<svg width="96" height="102" viewBox="0 0 96 102" fill="none" xmlns="http://www.w3.org/2000/svg">
<circle cx="59" cy="51" r="59" fill="#AAC2FF"/>
<path d="M43.0607 21H25V81.079H93.0751V29.6691H53.9766L43.0607 21Z" fill="#B376D4"/>
<path d="M93.0748 29.4678H59.335V81.0793H93.0748V29.4678Z" fill="#975FB6"/>
<path d="M49.4131 63.1359V59.9102H62.1151V63.1359H49.4131Z" fill="#BEC3D2"/>
<path d="M59.1377 63.1359V59.9102H62.1147V63.1359H59.1377Z" fill="#9196AA"/>
<path d="M72.435 36.1201H45.6416V70.7966H66.084L72.435 63.7403V36.1201Z" fill="white"/>
<path d="M59.1377 70.7966V36.1201H72.4352V63.7403L66.0841 70.7966H59.1377Z" fill="#E9EDF5"/>
<path d="M49.4131 44.3863V40.959H69.0616V44.3863H49.4131Z" fill="#BEC3D2"/>
<path d="M59.1377 44.3863V40.959H69.0612V44.3863H59.1377Z" fill="#9196AA"/>
<path d="M49.6113 50.6363V47.209H69.2598V50.6363H49.6113Z" fill="#BEC3D2"/>
<path d="M59.1416 50.6363V47.209H69.222V50.6363H59.1416Z" fill="#9196AA"/>
<path d="M49.6113 56.6842V53.2568H69.2598V56.6842H49.6113Z" fill="#BEC3D2"/>
<path d="M59.1416 56.6842V53.2568H69.222V56.6842H59.1416Z" fill="#9196AA"/>
<path d="M64.6948 75.2326L77.1983 62.7329L73.0305 58.9023L60.9238 71.2004L64.6948 75.2326Z" fill="#FFCE00"/>
<path d="M77.5898 63.0509L75.2982 61.0791L62.5898 73.3045L64.4648 75.0791L77.5898 63.0509Z" fill="#FDBA12"/>
<path d="M64.6949 75.2323L60.924 71.2002L59.9316 76.442L64.6949 75.2323Z" fill="white"/>
<path d="M64.6949 75.2319L62.9087 73.2158L59.9316 76.4415L64.6949 75.2319Z" fill="#E9EDF5"/>
<path d="M61.7181 76.0392L60.1303 74.6279L59.7334 76.644L61.7181 76.0392Z" fill="#23272B"/>
<path d="M76.0073 55.8779L73.0303 58.902L77.1981 62.7326L79.7782 59.9101L76.0073 55.8779Z" fill="#FFAA00"/>
<path d="M75.2139 60.7166L77.9924 58.0957L79.7787 59.9102L77.1986 62.7327L75.2139 60.7166Z" fill="#FF9500"/>
</svg>
