<svg width="96" height="102" viewBox="0 0 96 102" fill="none" xmlns="http://www.w3.org/2000/svg">
<circle cx="59" cy="51" r="59" fill="#9F9FFE"/>
<path d="M87.8086 10.3496H30.1914V91.4165H73.5195L87.8086 77.015V10.3496Z" fill="white"/>
<path d="M59 91.4167V10.5821L87.5781 10.582V77.0384L73.0586 91.4167H59Z" fill="#E9EDF5"/>
<path d="M87.5781 77.248H73.5195V91.4173L87.5781 77.248Z" fill="#CDD2E1"/>
<path d="M39.4102 32.1848V21.0352H78.5898V32.1848H39.4102Z" fill="#E9EDF5"/>
<path d="M59.2305 32.1848V21.0352H78.5898V32.1848H59.2305Z" fill="#CDD2E1"/>
<path d="M39.6406 48.4439V42.8691H78.5898V48.4439H39.6406Z" fill="#E9EDF5"/>
<path d="M59.2305 48.4439V42.8691H78.5898V48.4439H59.2305Z" fill="#CDD2E1"/>
<path d="M39.6406 60.0582V54.4834H78.5898V60.0582H39.6406Z" fill="#E9EDF5"/>
<path d="M59.2305 60.0582V54.4834H78.5898V60.0582H59.2305Z" fill="#CDD2E1"/>
<path d="M68.2188 71.9053L59.2305 65.4014L49.7812 71.9053V75.1573L51.3945 74.2281V85.8423H66.8359V74.2281L68.2188 75.1573V71.9053Z" fill="#E9EDF5"/>
<path d="M59.2305 85.8423V65.4014L68.2188 71.9053V75.1573L66.8359 74.2281V85.8423H59.2305Z" fill="#CDD2E1"/>
<path d="M91.7266 70.5118V28.0039H84.1211V70.5118H91.7266Z" fill="#FCC515"/>
<path d="M91.7266 28.0039H87.8086V70.5118H91.7266V28.0039Z" fill="#FFAA00"/>
<path d="M91.7266 28.0048L87.8086 16.3906L84.1211 28.0048H91.7266Z" fill="white"/>
<path d="M91.7266 28.0047H87.8086V16.1582L91.7266 28.0047Z" fill="#E9EDF5"/>
<path d="M88.7305 19.6425H86.6562L87.8086 16.1582L88.7305 19.6425Z" fill="#4F5660"/>
<path d="M88.9609 19.6425H87.8086V16.1582L88.9609 19.6425Z" fill="#202225"/>
</svg>
