<svg width="1440" height="1024" viewBox="0 0 1440 1024" fill="none" xmlns="http://www.w3.org/2000/svg">
<path d="M0 0C124.98 111.44 169.963 162.92 90.1371 255.2C185.316 359.96 153.307 399.56 54.0483 512C131.835 568.2 164.128 589.76 115.462 615.8C221.235 679.92 255.851 715.16 163.731 768.88C153.769 774.703 146.388 782.426 142.47 791.128C138.553 799.83 138.263 809.145 141.636 817.96C172.739 898.84 42.4908 976.56 0 1024L0 0Z" fill="#5865F2" fill-opacity="0.5"/>
<path d="M204.126 282.454C201.746 281.44 199.725 280.081 198.203 278.475C196.683 276.868 195.7 275.054 195.326 273.161L193.809 266.552C193.773 266.407 193.661 266.274 193.494 266.179C193.327 266.084 193.116 266.034 192.899 266.036C192.68 266.034 192.47 266.084 192.303 266.179C192.136 266.274 192.024 266.407 191.989 266.552L190.471 273.161C190.068 275.048 189.073 276.855 187.554 278.458C186.037 280.061 184.029 281.424 181.672 282.454L180.458 282.97C180.312 283.013 180.189 283.085 180.108 283.178C180.026 283.271 179.989 283.379 180.003 283.486C179.989 283.594 180.026 283.702 180.108 283.794C180.189 283.887 180.312 283.96 180.458 284.002L181.672 284.519C184.022 285.58 186.019 286.964 187.534 288.583C189.05 290.201 190.05 292.017 190.471 293.915L191.989 300.42C192.024 300.566 192.136 300.698 192.303 300.793C192.47 300.888 192.68 300.938 192.899 300.936C193.116 300.938 193.327 300.888 193.494 300.793C193.661 300.698 193.773 300.566 193.809 300.42L195.326 293.915C195.718 292.012 196.707 290.187 198.226 288.566C199.743 286.945 201.756 285.565 204.126 284.519L205.34 284.002C205.486 283.96 205.607 283.887 205.689 283.794C205.771 283.702 205.807 283.594 205.795 283.486C205.807 283.379 205.771 283.271 205.689 283.178C205.607 283.085 205.486 283.013 205.34 282.97L204.126 282.454Z" fill="#91FFAD"/>
<path d="M215.126 855.349C212.746 854.335 210.725 852.976 209.203 851.371C207.683 849.764 206.7 847.95 206.326 846.056L204.809 839.448C204.773 839.302 204.661 839.17 204.494 839.075C204.327 838.98 204.116 838.93 203.899 838.932C203.68 838.93 203.47 838.98 203.303 839.075C203.136 839.17 203.024 839.302 202.989 839.448L201.471 846.056C201.068 847.944 200.073 849.751 198.554 851.353C197.037 852.957 195.029 854.32 192.672 855.349L191.458 855.866C191.312 855.909 191.189 855.981 191.108 856.074C191.026 856.167 190.989 856.274 191.003 856.382C190.989 856.489 191.026 856.598 191.108 856.69C191.189 856.782 191.312 856.856 191.458 856.898L192.672 857.414C195.022 858.476 197.019 859.859 198.534 861.478C200.05 863.096 201.05 864.913 201.471 866.811L202.989 873.316C203.024 873.461 203.136 873.593 203.303 873.688C203.47 873.783 203.68 873.834 203.899 873.832C204.116 873.834 204.327 873.783 204.494 873.688C204.661 873.593 204.773 873.461 204.809 873.316L206.326 866.811C206.718 864.908 207.707 863.083 209.226 861.462C210.743 859.841 212.756 858.46 215.126 857.414L216.34 856.898C216.486 856.856 216.607 856.782 216.689 856.69C216.771 856.598 216.807 856.489 216.795 856.382C216.807 856.274 216.771 856.167 216.689 856.074C216.607 855.981 216.486 855.909 216.34 855.866L215.126 855.349Z" fill="#91FFAD"/>
<path d="M127.267 116.434C123.247 114.663 119.833 112.329 117.239 109.586C114.644 106.845 112.945 103.757 112.247 100.533L109.82 89.3812C109.729 89.1262 109.516 88.898 109.213 88.7307C108.909 88.5634 108.53 88.4653 108.151 88.4519C107.756 88.4478 107.377 88.5386 107.058 88.709C106.755 88.8784 106.558 89.1169 106.482 89.3812L104.054 100.533C103.326 103.765 101.597 106.854 98.987 109.596C96.3623 112.337 92.9184 114.668 88.8827 116.434L86.7586 117.363C86.531 117.471 86.349 117.609 86.2276 117.77C86.0911 117.93 86.0152 118.109 86 118.293C86 118.479 86.0759 118.659 86.2124 118.821C86.3338 118.983 86.531 119.121 86.7586 119.222L88.8827 120.151C92.9336 121.939 96.3774 124.289 98.987 127.047C101.597 129.806 103.326 132.911 104.054 136.156L106.482 147.307C106.558 147.572 106.755 147.81 107.058 147.981C107.377 148.15 107.756 148.241 108.151 148.237C108.53 148.223 108.909 148.125 109.213 147.959C109.516 147.792 109.729 147.564 109.82 147.307L112.247 136.156C112.945 132.917 114.644 129.815 117.239 127.056C119.818 124.297 123.247 121.944 127.267 120.151L129.543 119.222C129.755 119.116 129.922 118.975 130.029 118.812C130.135 118.649 130.18 118.47 130.15 118.293C130.165 118.116 130.12 117.941 130.013 117.78C129.907 117.618 129.74 117.476 129.543 117.363L127.267 116.434Z" fill="#8CD9FF"/>
<path d="M91.4434 778.253C90.2099 777.719 89.163 777.008 88.3771 776.17C87.5912 775.332 87.083 774.386 86.8918 773.4L86.1332 770.096C86.1332 770.015 86.0846 769.935 85.9997 769.877C85.9147 769.819 85.7978 769.786 85.678 769.786C85.5566 769.786 85.4413 769.819 85.3564 769.877C85.2699 769.935 85.2228 770.015 85.2228 770.096L84.4642 773.4C84.2716 774.386 83.7649 775.332 82.9774 776.17C82.1915 777.008 81.1446 777.719 79.9127 778.253L79.1541 778.563C79.0024 778.563 79.0024 778.77 79.0024 778.873C78.9948 778.929 79.0054 778.985 79.0312 779.038C79.057 779.092 79.0979 779.141 79.1541 779.183L79.9127 779.389C81.1128 779.948 82.1354 780.665 82.9168 781.499C83.6996 782.333 84.2261 783.266 84.4642 784.242L85.2228 787.65C85.2228 787.732 85.2699 787.811 85.3564 787.868C85.4413 787.926 85.5566 787.959 85.678 787.959C85.7978 787.959 85.9147 787.926 85.9997 787.868C86.0846 787.811 86.1332 787.732 86.1332 787.65L86.8918 784.242C87.13 783.266 87.6549 782.333 88.4378 781.499C89.2207 780.665 90.2418 779.948 91.4434 779.389L92.202 779.183C92.2566 779.141 92.2975 779.092 92.3249 779.038C92.3506 778.985 92.3597 778.929 92.3537 778.873C92.3537 778.77 92.3537 778.563 92.202 778.563L91.4434 778.253Z" fill="#FF78B9"/>
<path d="M179.372 466.801C178.742 466.546 178.201 466.201 177.782 465.793C177.363 465.383 177.078 464.917 176.945 464.426L176.641 462.671H176.186L175.731 464.426C175.623 464.911 175.365 465.373 174.972 465.783C174.579 466.193 174.062 466.54 173.455 466.801L173.152 467.008C173.111 467.008 173.073 467.019 173.044 467.039C173.015 467.057 173 467.084 173 467.111C173 467.139 173.015 467.165 173.044 467.184C173.073 467.204 173.111 467.214 173.152 467.214L173.455 467.421C174.062 467.682 174.579 468.03 174.972 468.44C175.365 468.85 175.623 469.313 175.731 469.796L176.186 471.551H176.641L176.945 469.796C177.078 469.305 177.363 468.84 177.782 468.431C178.201 468.021 178.742 467.677 179.372 467.421L179.676 467.214L179.372 466.801Z" fill="#FFC619"/>
<path d="M1440 0C1315.02 111.44 1270.04 162.92 1349.86 255.2C1254.68 359.96 1286.69 399.56 1385.95 512C1308.17 568.2 1275.87 589.76 1324.54 615.8C1218.76 679.92 1184.15 715.16 1276.27 768.88C1286.23 774.703 1293.61 782.426 1297.53 791.128C1301.45 799.83 1301.74 809.145 1298.36 817.96C1267.26 898.84 1397.51 976.56 1440 1024V0Z" fill="#5865F2" fill-opacity="0.3"/>
<path d="M1339.51 256.985C1337.13 255.971 1335.11 254.612 1333.59 253.007C1332.07 251.4 1331.09 249.586 1330.72 247.692L1329.2 241.084C1329.16 240.938 1329.05 240.806 1328.88 240.711C1328.72 240.616 1328.5 240.566 1328.29 240.568C1328.07 240.566 1327.86 240.616 1327.69 240.711C1327.52 240.806 1327.41 240.938 1327.38 241.084L1325.86 247.692C1325.46 249.58 1324.46 251.387 1322.94 252.989C1321.43 254.593 1319.42 255.956 1317.06 256.985L1315.85 257.502C1315.7 257.545 1315.58 257.617 1315.5 257.71C1315.41 257.803 1315.38 257.91 1315.39 258.018C1315.38 258.125 1315.41 258.234 1315.5 258.326C1315.58 258.418 1315.7 258.492 1315.85 258.534L1317.06 259.05C1319.41 260.112 1321.41 261.495 1322.92 263.115C1324.44 264.733 1325.44 266.549 1325.86 268.447L1327.38 274.952C1327.41 275.097 1327.52 275.229 1327.69 275.324C1327.86 275.419 1328.07 275.47 1328.29 275.468C1328.5 275.47 1328.72 275.419 1328.88 275.324C1329.05 275.229 1329.16 275.097 1329.2 274.952L1330.72 268.447C1331.11 266.544 1332.1 264.719 1333.61 263.098C1335.13 261.477 1337.15 260.096 1339.51 259.05L1340.73 258.534C1340.87 258.492 1341 258.418 1341.08 258.326C1341.16 258.234 1341.2 258.125 1341.18 258.018C1341.2 257.91 1341.16 257.803 1341.08 257.71C1341 257.617 1340.87 257.545 1340.73 257.502L1339.51 256.985Z" fill="#91FFAD"/>
<path d="M1235.37 70.1289C1234.74 69.8738 1234.2 69.529 1233.78 69.1201C1233.36 68.7102 1233.08 68.2445 1232.94 67.754L1232.64 65.9987H1232.19L1231.73 67.754C1231.62 68.2383 1231.37 68.7008 1230.97 69.1108C1230.58 69.5207 1230.06 69.8676 1229.46 70.1289L1229.15 70.3354C1229.11 70.3354 1229.07 70.3467 1229.04 70.3663C1229.02 70.3849 1229 70.4118 1229 70.4386C1229 70.4665 1229.02 70.4923 1229.04 70.5119C1229.07 70.5315 1229.11 70.5419 1229.15 70.5419L1229.46 70.7484C1230.06 71.0096 1230.58 71.3576 1230.97 71.7675C1231.37 72.1774 1231.62 72.6401 1231.73 73.1233L1232.19 74.8786H1232.64L1232.94 73.1233C1233.08 72.6328 1233.36 72.1671 1233.78 71.7582C1234.2 71.3483 1234.74 71.0045 1235.37 70.7484L1235.68 70.5419L1235.37 70.1289Z" fill="#FFC619"/>
<path d="M1299.37 425.297C1298.74 425.042 1298.2 424.697 1297.78 424.288C1297.36 423.878 1297.08 423.413 1296.94 422.922L1296.64 421.167H1296.19L1295.73 422.922C1295.62 423.406 1295.37 423.869 1294.97 424.279C1294.58 424.689 1294.06 425.036 1293.46 425.297L1293.15 425.503C1293.11 425.503 1293.07 425.515 1293.04 425.534C1293.02 425.553 1293 425.58 1293 425.607C1293 425.635 1293.02 425.66 1293.04 425.68C1293.07 425.7 1293.11 425.71 1293.15 425.71L1293.46 425.916C1294.06 426.178 1294.58 426.526 1294.97 426.936C1295.37 427.346 1295.62 427.808 1295.73 428.291L1296.19 430.047H1296.64L1296.94 428.291C1297.08 427.801 1297.36 427.335 1297.78 426.926C1298.2 426.516 1298.74 426.173 1299.37 425.916L1299.68 425.71L1299.37 425.297Z" fill="#FFC619"/>
<path d="M1290.27 836.976C1286.25 835.206 1282.83 832.871 1280.24 830.129C1277.64 827.387 1275.95 824.3 1275.25 821.075L1272.82 809.924C1272.73 809.669 1272.52 809.44 1272.21 809.273C1271.91 809.106 1271.53 809.008 1271.15 808.994C1270.76 808.99 1270.38 809.081 1270.06 809.251C1269.76 809.421 1269.56 809.659 1269.48 809.924L1267.05 821.075C1266.33 824.307 1264.6 827.396 1261.99 830.138C1259.36 832.879 1255.92 835.211 1251.88 836.976L1249.76 837.906C1249.53 838.013 1249.35 838.152 1249.23 838.313C1249.09 838.473 1249.02 838.651 1249 838.835C1249 839.021 1249.08 839.202 1249.21 839.364C1249.33 839.526 1249.53 839.663 1249.76 839.764L1251.88 840.694C1255.93 842.481 1259.38 844.831 1261.99 847.589C1264.6 850.348 1266.33 853.453 1267.05 856.698L1269.48 867.85C1269.56 868.114 1269.76 868.353 1270.06 868.523C1270.38 868.692 1270.76 868.783 1271.15 868.779C1271.53 868.766 1271.91 868.668 1272.21 868.501C1272.52 868.334 1272.73 868.106 1272.82 867.85L1275.25 856.698C1275.95 853.459 1277.64 850.357 1280.24 847.598C1282.82 844.839 1286.25 842.486 1290.27 840.694L1292.54 839.764C1292.76 839.658 1292.92 839.518 1293.03 839.354C1293.13 839.191 1293.18 839.013 1293.15 838.835C1293.17 838.658 1293.12 838.483 1293.01 838.322C1292.91 838.161 1292.74 838.018 1292.54 837.906L1290.27 836.976Z" fill="#8CD9FF"/>
<path d="M1248.44 543.26C1247.21 542.727 1246.16 542.015 1245.38 541.177C1244.59 540.339 1244.08 539.393 1243.89 538.407L1243.13 535.103C1243.13 535.022 1243.08 534.942 1243 534.884C1242.91 534.827 1242.8 534.793 1242.68 534.793C1242.56 534.793 1242.44 534.827 1242.36 534.884C1242.27 534.942 1242.22 535.022 1242.22 535.103L1241.46 538.407C1241.27 539.393 1240.76 540.339 1239.98 541.177C1239.19 542.015 1238.14 542.727 1236.91 543.26L1236.15 543.57C1236 543.57 1236 543.777 1236 543.88C1235.99 543.936 1236.01 543.992 1236.03 544.045C1236.06 544.099 1236.1 544.148 1236.15 544.19L1236.91 544.396C1238.11 544.955 1239.14 545.672 1239.92 546.506C1240.7 547.34 1241.23 548.273 1241.46 549.249L1242.22 552.657C1242.22 552.739 1242.27 552.818 1242.36 552.875C1242.44 552.933 1242.56 552.966 1242.68 552.966C1242.8 552.966 1242.91 552.933 1243 552.875C1243.08 552.818 1243.13 552.739 1243.13 552.657L1243.89 549.249C1244.13 548.273 1244.65 547.34 1245.44 546.506C1246.22 545.672 1247.24 544.955 1248.44 544.396L1249.2 544.19C1249.26 544.148 1249.3 544.099 1249.32 544.045C1249.35 543.992 1249.36 543.936 1249.35 543.88C1249.35 543.777 1249.35 543.57 1249.2 543.57L1248.44 543.26Z" fill="#FF78B9"/>
</svg>
