<svg width="117" height="40" viewBox="0 0 117 40" fill="none" xmlns="http://www.w3.org/2000/svg">
<g clip-path="url(#clip0_231_507)">
<path d="M-0.199219 20.314C-0.199219 10.8859 -0.199219 6.17182 2.72971 3.24289C5.65864 0.313965 10.3727 0.313965 19.8008 0.313965C29.2289 0.313965 33.9429 0.313965 36.8719 3.24289C39.8008 6.17182 39.8008 10.8859 39.8008 20.314C39.8008 29.7421 39.8008 34.4561 36.8719 37.3851C33.9429 40.314 29.2289 40.314 19.8008 40.314C10.3727 40.314 5.65864 40.314 2.72971 37.3851C-0.199219 34.4561 -0.199219 29.7421 -0.199219 20.314Z" fill="#8080FF"/>
<path d="M23.8015 26.314C24.3538 26.314 24.8116 26.7661 24.7019 27.3074C24.508 28.2634 24.037 29.1495 23.337 29.8495C22.3994 30.7872 21.1276 31.314 19.8015 31.314C18.4754 31.314 17.2037 30.7872 16.266 29.8495C15.566 29.1495 15.095 28.2634 14.9012 27.3074C14.7914 26.7661 15.2492 26.314 15.8015 26.314H23.8015Z" fill="white"/>
<path d="M25.9035 18.0905C25.37 18.2334 25.0433 18.7915 25.3138 19.273C25.5985 19.7798 25.9923 20.2221 26.4714 20.5654C27.2236 21.1044 28.1394 21.366 29.0629 21.3054C29.9863 21.2449 30.8602 20.8661 31.5356 20.2335C32.2111 19.6009 32.6462 18.7536 32.767 17.8361C32.8878 16.9186 32.6868 15.9876 32.1981 15.2017C31.7094 14.4159 30.9633 13.8238 30.087 13.5263C29.2107 13.2288 28.2584 13.2444 27.3923 13.5704C26.8407 13.778 26.3459 14.1033 25.9397 14.5191C25.5538 14.9142 25.7249 15.5379 26.2032 15.814L26.7105 16.1069C27.482 16.5524 27.3299 17.7083 26.4693 17.9389L25.9035 18.0905Z" fill="white"/>
<path d="M13.6985 18.0905C14.232 18.2334 14.5587 18.7915 14.2882 19.273C14.0035 19.7798 13.6097 20.2221 13.1307 20.5654C12.3785 21.1044 11.4626 21.366 10.5392 21.3054C9.61574 21.2449 8.74185 20.8661 8.06642 20.2335C7.39099 19.6009 6.9558 18.7536 6.83501 17.8361C6.71422 16.9186 6.91529 15.9876 7.40398 15.2017C7.89266 14.4159 8.63872 13.8238 9.51503 13.5263C10.3913 13.2288 11.3437 13.2444 12.2098 13.5704C12.7613 13.778 13.2562 14.1033 13.6624 14.5191C14.0483 14.9142 13.8771 15.5379 13.3988 15.814L12.8915 16.1069C12.12 16.5524 12.2722 17.7083 13.1327 17.9389L13.6985 18.0905Z" fill="white"/>
</g>
<path d="M56.932 16.472C55.26 16.472 54.138 17.242 53.566 18.232V12.16H49.144V28H53.566V22.038C53.566 20.916 54.028 20.124 55.062 20.124C56.074 20.124 56.448 20.85 56.448 21.972V28H60.87V20.96C60.87 18.1 59.396 16.472 56.932 16.472ZM74.2864 22.126C74.2864 18.452 72.3284 16.472 68.6764 16.472C64.9364 16.472 62.4944 18.848 62.4944 22.346C62.4944 26.02 65.0904 28.33 69.2924 28.33C71.4044 28.33 72.9224 27.758 73.7804 27.12V24.194C72.8564 24.744 71.7344 25.052 70.5024 25.052C68.6104 25.052 67.4884 24.458 67.0264 23.556H74.2864V22.126ZM68.8524 19.64C69.9304 19.64 70.5684 20.212 70.6344 21.312H66.9604C67.0704 20.256 67.7524 19.64 68.8524 19.64ZM87.3274 22.126C87.3274 18.452 85.3694 16.472 81.7174 16.472C77.9774 16.472 75.5354 18.848 75.5354 22.346C75.5354 26.02 78.1314 28.33 82.3334 28.33C84.4454 28.33 85.9634 27.758 86.8214 27.12V24.194C85.8974 24.744 84.7754 25.052 83.5434 25.052C81.6514 25.052 80.5294 24.458 80.0674 23.556H87.3274V22.126ZM81.8934 19.64C82.9714 19.64 83.6094 20.212 83.6754 21.312H80.0014C80.1114 20.256 80.7934 19.64 81.8934 19.64ZM93.5704 28V12.16H89.1484V28H93.5704ZM103.749 16.472C102.033 16.472 100.757 17.418 100.185 18.496V16.802H95.851V32.18H100.273V26.834C100.955 27.714 102.121 28.33 103.595 28.33C106.565 28.33 108.633 25.91 108.633 22.258C108.633 18.826 106.675 16.472 103.749 16.472ZM102.121 24.7C100.999 24.7 100.207 23.82 100.207 22.456C100.207 21.048 100.977 20.124 102.143 20.124C103.309 20.124 104.101 21.07 104.101 22.434C104.101 23.776 103.309 24.7 102.121 24.7ZM114.972 22.786V12.6H110.55V22.786H114.972ZM112.794 28.33C114.246 28.33 115.28 27.296 115.28 25.932C115.28 24.59 114.246 23.6 112.794 23.6C111.342 23.6 110.264 24.59 110.264 25.932C110.264 27.296 111.342 28.33 112.794 28.33Z" fill="#8080FF"/>
<defs>
<clipPath id="clip0_231_507">
<rect width="40" height="40" fill="white"/>
</clipPath>
</defs>
</svg>
