<svg width="67" height="21" viewBox="0 0 67 21" fill="none" xmlns="http://www.w3.org/2000/svg">
<path d="M7.932 4.472C6.26 4.472 5.138 5.242 4.566 6.232V0.159999H0.144V16H4.566V10.038C4.566 8.916 5.028 8.124 6.062 8.124C7.074 8.124 7.448 8.85 7.448 9.972V16H11.87V8.96C11.87 6.1 10.396 4.472 7.932 4.472ZM25.2864 10.126C25.2864 6.452 23.3284 4.472 19.6764 4.472C15.9364 4.472 13.4944 6.848 13.4944 10.346C13.4944 14.02 16.0904 16.33 20.2924 16.33C22.4044 16.33 23.9224 15.758 24.7804 15.12V12.194C23.8564 12.744 22.7344 13.052 21.5024 13.052C19.6104 13.052 18.4884 12.458 18.0264 11.556H25.2864V10.126ZM19.8524 7.64C20.9304 7.64 21.5684 8.212 21.6344 9.312H17.9604C18.0704 8.256 18.7524 7.64 19.8524 7.64ZM38.3274 10.126C38.3274 6.452 36.3694 4.472 32.7174 4.472C28.9774 4.472 26.5354 6.848 26.5354 10.346C26.5354 14.02 29.1314 16.33 33.3334 16.33C35.4454 16.33 36.9634 15.758 37.8214 15.12V12.194C36.8974 12.744 35.7754 13.052 34.5434 13.052C32.6514 13.052 31.5294 12.458 31.0674 11.556H38.3274V10.126ZM32.8934 7.64C33.9714 7.64 34.6094 8.212 34.6754 9.312H31.0014C31.1114 8.256 31.7934 7.64 32.8934 7.64ZM44.5704 16V0.159999H40.1484V16H44.5704ZM54.749 4.472C53.033 4.472 51.757 5.418 51.185 6.496V4.802H46.851V20.18H51.273V14.834C51.955 15.714 53.121 16.33 54.595 16.33C57.565 16.33 59.633 13.91 59.633 10.258C59.633 6.826 57.675 4.472 54.749 4.472ZM53.121 12.7C51.999 12.7 51.207 11.82 51.207 10.456C51.207 9.048 51.977 8.124 53.143 8.124C54.309 8.124 55.101 9.07 55.101 10.434C55.101 11.776 54.309 12.7 53.121 12.7ZM65.972 10.786V0.599999H61.55V10.786H65.972ZM63.794 16.33C65.246 16.33 66.28 15.296 66.28 13.932C66.28 12.59 65.246 11.6 63.794 11.6C62.342 11.6 61.264 12.59 61.264 13.932C61.264 15.296 62.342 16.33 63.794 16.33Z" fill="#8080FF"/>
</svg>
