<svg width="70" height="70" viewBox="0 0 70 70" fill="none" xmlns="http://www.w3.org/2000/svg">
<g clip-path="url(#clip0_331_2269)">
<rect width="70" height="70" rx="35" fill="#CCBDFF"/>
<path d="M52.4594 66.1565C45.35 72.664 17.9869 88.1087 17.9869 88.1087L16.5259 102.097C11.4668 102.043 6.41921 101.587 1.43164 100.736C1.52966 100.348 1.52967 99.9601 1.62654 99.4734C2.60099 88.9828 3.47743 81.5044 6.10671 77.2295C8.736 72.9557 21.2978 67.1275 21.2978 67.1275L52.4594 66.1565Z" fill="#2F3A52"/>
<path d="M50.8036 66.1565L21.298 67.1275L18.084 68.5851C22.563 70.6251 27.0432 72.5671 27.4329 82.6691C35.9043 77.6181 47.5897 70.4302 52.2647 66.3502L50.8036 66.1565Z" fill="#242F47"/>
<path d="M52.7514 74.802C52.4597 79.2695 48.2724 82.864 38.6317 87.0409C38.6317 87.0409 38.4369 93.2577 38.0471 102.679C35.3209 104.719 30.6458 105.885 23.0509 105.302H22.9529C23.0336 105.051 23.0659 104.787 23.0509 104.524C23.0509 104.039 22.9529 103.553 22.9529 103.068C22.758 97.5315 22.4663 90.0519 22.5631 86.2636C22.758 79.755 22.1745 77.3275 35.8076 72.4702L52.4597 66.1565C52.8126 69.0233 52.9106 71.9167 52.7514 74.802Z" fill="#2F3A52"/>
<path d="M52.7519 74.802C52.911 71.9167 52.813 69.0233 52.459 66.1565L35.7099 72.4702L33.1787 73.4412C42.0399 72.5671 43.8896 76.8408 42.8194 85.0977C49.5379 81.6981 52.4601 78.4922 52.7519 74.802Z" fill="#242F47"/>
<path d="M53.3364 40.8035C49.4409 39.3471 43.9875 38.6667 36.1976 39.1522C28.4067 39.6388 24.999 40.4149 21.3952 41.8726C16.6233 52.5569 17.5978 60.62 21.2984 67.1275C26.6388 69.4016 32.4567 70.3357 38.2423 69.8479C43.6957 69.5562 48.9543 68.8758 52.5568 67.3224C55.9645 57.6091 56.7441 46.5349 53.3364 40.8035Z" fill="#FFDB9E"/>
<path d="M27.7246 53.0435L21.7845 52.46C21.4927 52.3632 21.2979 52.1683 21.2979 51.9745C21.3267 50.5642 21.5227 49.1619 21.8813 47.7977C21.9794 47.6039 22.2711 47.409 22.466 47.5059C22.6609 47.6039 22.9526 47.7977 22.8558 48.0894C22.5525 49.1976 22.3887 50.3393 22.3691 51.489L27.238 51.9745C27.3152 50.721 27.5447 49.4825 27.9195 48.2832C27.9195 48.0894 28.2112 47.8945 28.503 47.9914C28.5676 48.0041 28.6298 48.0283 28.684 48.064C28.7394 48.0998 28.7867 48.1459 28.8224 48.2001C28.8593 48.2555 28.8836 48.3166 28.8962 48.38C28.9078 48.4446 28.9078 48.5103 28.8928 48.5749C28.5122 49.8711 28.2839 51.2077 28.2113 52.5569C28.2113 52.7518 28.2112 52.8487 28.0164 52.9455L27.7246 53.0435Z" fill="#F0B576"/>
<path d="M31.2301 69.2644C31.1009 69.2644 30.9775 69.2136 30.8853 69.1225C30.7942 69.0314 30.7435 68.908 30.7435 68.7789C29.0875 54.0145 30.8404 48.6717 33.6645 42.358C33.7164 42.2288 33.8167 42.1262 33.9447 42.072C34.0727 42.0167 34.2169 42.0155 34.3461 42.0662C34.4752 42.1181 34.579 42.2185 34.6332 42.3465C34.6885 42.4733 34.6897 42.6175 34.6389 42.7466C31.8148 48.9635 30.1588 54.1114 31.7167 68.682C31.7191 68.8215 31.6706 68.9564 31.5818 69.0637C31.4919 69.1698 31.3673 69.2413 31.2301 69.2644Z" fill="#F0B576"/>
<path d="M12.1436 16.2289C12.3384 21.085 24.5104 21.8622 24.5104 21.8622L25.6798 17.4916L12.1436 16.2289Z" fill="#0E2369"/>
<path d="M42.6353 9.61875L42.656 9.52302C42.7679 8.99832 42.4323 8.48285 41.9053 8.37099L39.2103 7.799C38.6844 7.68829 38.1666 8.02272 38.0547 8.54743L38.0352 8.64313C37.9233 9.16784 38.2589 9.68332 38.7848 9.79518L41.4809 10.366C42.0068 10.4779 42.5234 10.1435 42.6353 9.61875Z" fill="#1839AD"/>
<path d="M21.4923 33.3238C24.4502 33.3238 26.8478 30.932 26.8478 27.9822C26.8478 25.0311 24.4502 22.6394 21.4923 22.6394C18.5343 22.6394 16.1357 25.0311 16.1357 27.9822C16.1357 30.932 18.5343 33.3238 21.4923 33.3238Z" fill="#63A6FF"/>
<path d="M36.2942 43.4269C45.8139 43.4269 53.5299 35.7293 53.5299 26.2339C53.5299 16.7385 45.8139 9.04089 36.2942 9.04089C26.7746 9.04089 19.0586 16.7385 19.0586 26.2339C19.0586 35.7293 26.7746 43.4269 36.2942 43.4269Z" fill="#365DEC"/>
<path d="M26.7502 11.9539C24.6502 13.3458 22.8813 15.1816 21.5689 17.3289C20.2554 19.4773 19.432 21.8875 19.1553 24.3876C33.0801 24.8731 43.1106 20.1139 45.0584 18.2688C47.0061 16.4225 34.7361 13.897 26.7502 11.9539Z" fill="#1839AD"/>
<path d="M30.5487 33.0332H30.3538C29.7173 32.9721 29.1119 32.7288 28.6103 32.3332C28.1086 31.9365 27.7338 31.4038 27.5297 30.7983C27.464 30.5919 27.4766 30.3682 27.5666 30.171C27.6565 29.9738 27.8168 29.817 28.0163 29.7305C28.2239 29.6832 28.4407 29.7063 28.6345 29.7939C28.8271 29.8816 28.9862 30.0292 29.0877 30.216C29.173 30.5331 29.346 30.8191 29.5881 31.0428C29.8291 31.2665 30.1278 31.4176 30.4507 31.4787C30.8647 31.4372 31.2614 31.2908 31.6028 31.0521C31.943 30.8145 32.2174 30.4927 32.3985 30.1191C32.4504 30.0292 32.5184 29.9507 32.5991 29.8885C32.681 29.825 32.7744 29.7789 32.8736 29.7524C32.9728 29.7247 33.0766 29.7178 33.1792 29.7305C33.2818 29.7432 33.3799 29.7766 33.4698 29.8273C33.5598 29.8781 33.6382 29.9461 33.7005 30.028C33.7639 30.1087 33.8111 30.2021 33.8376 30.3013C33.8653 30.4005 33.8722 30.5043 33.8595 30.6058C33.8457 30.7084 33.8135 30.8064 33.7616 30.8964C33.4663 31.5064 33.0131 32.0265 32.448 32.4024C31.883 32.7784 31.2268 32.9963 30.5487 33.0332Z" fill="#1839AD"/>
<path d="M51.6801 33.3238C54.9067 33.3238 57.5234 30.7153 57.5234 27.4967C57.5234 24.277 54.9067 21.6685 51.6801 21.6685C48.4535 21.6685 45.8369 24.277 45.8369 27.4967C45.8369 30.7153 48.4535 33.3238 51.6801 33.3238Z" fill="#4293FF"/>
<path d="M56.7164 27.8126C56.9009 25.7818 55.9657 24.0382 54.6268 23.9159C53.288 23.7949 52.0529 25.3424 51.8672 27.3721C51.6816 29.4028 52.6168 31.1465 53.9568 31.2687C55.2956 31.3898 56.5307 29.8422 56.7164 27.8126Z" fill="#66A8FF"/>
<path d="M36.3907 8.74918C33.5585 8.70997 30.762 9.38345 28.2607 10.7073C25.7583 12.0323 23.6318 13.9639 22.0762 16.3257C28.601 16.908 48.4659 19.3367 52.2645 19.8222C49.7321 13.6053 43.5971 8.74918 36.3907 8.74918Z" fill="url(#paint0_linear_331_2269)"/>
<path d="M43.5971 20.4058H43.4022C43.3054 20.4058 31.2303 18.6564 12.9233 17.1999C12.808 17.1884 12.6961 17.1526 12.5935 17.0973C12.492 17.0419 12.402 16.9669 12.3294 16.877C12.2579 16.7859 12.2037 16.6821 12.1714 16.5714C12.1403 16.4595 12.1299 16.3431 12.1437 16.2289C12.1402 16.1078 12.1645 15.9879 12.2152 15.8783C12.266 15.7688 12.341 15.6719 12.4355 15.597C12.5301 15.522 12.6407 15.469 12.7595 15.4436C12.8783 15.4182 13.0005 15.4217 13.117 15.4517C31.4251 16.9081 43.5971 18.6564 43.6952 18.6564C43.9258 18.7221 44.1288 18.8628 44.2694 19.0565C44.4113 19.2503 44.4828 19.4855 44.4736 19.7254C44.4147 19.9145 44.2994 20.0806 44.1426 20.2017C43.9858 20.3239 43.7955 20.3942 43.5971 20.4058Z" fill="#0E2369"/>
<path d="M26.4587 27.1081H26.1669C25.8406 26.9202 25.4715 26.821 25.0956 26.821C24.7196 26.821 24.3495 26.9202 24.0243 27.1081C23.9285 27.1566 23.8248 27.1842 23.7175 27.1912C23.6114 27.1981 23.5042 27.1819 23.4039 27.1462C23.3035 27.1093 23.2113 27.0528 23.134 26.979C23.0568 26.9063 22.9945 26.8175 22.953 26.7195C22.9011 26.6295 22.8676 26.5315 22.8538 26.4289C22.8411 26.3274 22.8481 26.2236 22.8746 26.1244C22.9023 26.0241 22.9484 25.9319 23.013 25.85C23.0764 25.7693 23.1548 25.7012 23.2447 25.6505C23.8017 25.361 24.4198 25.21 25.0472 25.21C25.6745 25.21 26.2926 25.361 26.8485 25.6505C26.9465 25.692 27.0353 25.7543 27.1091 25.8315C27.1829 25.9088 27.2394 25.9999 27.2763 26.1002C27.312 26.2006 27.3282 26.3078 27.3212 26.4139C27.3143 26.52 27.2867 26.6238 27.2383 26.7195C27.1472 26.8394 27.0295 26.9375 26.8946 27.0055C26.7585 27.0724 26.6097 27.1081 26.4587 27.1081Z" fill="#13212B"/>
<path d="M37.7551 27.1081H37.3653C37.0574 26.919 36.7033 26.8186 36.3424 26.8186C35.9814 26.8186 35.6274 26.919 35.3207 27.1081C35.2307 27.16 35.1315 27.1934 35.0301 27.2061C34.9274 27.22 34.8236 27.213 34.7233 27.1854C34.6241 27.1588 34.5308 27.1116 34.4489 27.0481C34.367 26.9847 34.3001 26.9063 34.2493 26.8163C34.1767 26.7299 34.1236 26.6295 34.0936 26.5211C34.0648 26.4127 34.0579 26.2997 34.0775 26.189C34.096 26.0783 34.1375 25.9722 34.2009 25.88C34.2643 25.7865 34.3474 25.7081 34.4442 25.6505C35.0024 25.3172 35.6424 25.1407 36.294 25.1407C36.9455 25.1407 37.5856 25.3172 38.1437 25.6505C38.3167 25.7842 38.44 25.9722 38.4931 26.1832C38.5461 26.3943 38.5254 26.618 38.4366 26.8163C38.3559 26.9178 38.2509 26.9974 38.1322 27.0481C38.0134 27.0989 37.8831 27.1196 37.7551 27.1081Z" fill="#13212B"/>
<path d="M33.2022 14.1819C34.142 13.3793 34.4211 12.1661 33.826 11.4742C33.231 10.7811 31.9867 10.8711 31.048 11.6737C30.1081 12.4775 29.8291 13.6895 30.4241 14.3826C31.0192 15.0745 32.2635 14.9857 33.2022 14.1819Z" fill="#CCBDFF"/>
<path d="M53.4328 40.8035C48.3692 40.7066 45.4481 47.6039 45.1552 57.1224C45.1552 57.1224 37.1705 58.1914 32.2037 59.3573C27.238 60.522 25.7769 63.4361 26.0687 65.8647C26.3616 68.2934 28.5042 70.722 35.2227 70.722H37.4622L41.6495 70.3334C56.0621 68.5851 62.6838 61.4941 62.1972 53.529C61.9054 47.9925 59.8596 43.329 53.4328 40.8035Z" fill="#365DEC"/>
<path d="M31.1321 53.4309C29.5741 51.9744 25.5817 51.7806 19.8365 53.6258C19.7397 49.5573 20.4005 45.5061 21.7843 41.6775C11.9487 44.5916 6.98303 54.2081 10.0009 60.6199C13.02 67.0305 20.1283 65.3791 25.3868 63.2423C35.0276 59.1622 33.5676 55.5689 31.1321 53.4309Z" fill="#365DEC"/>
<path d="M45.1553 57.1223L48.3692 56.7336C49.8303 56.6368 49.3425 55.1803 48.3692 55.4709L45.1553 56.2481V57.1223Z" fill="#1A3EBD"/>
<path d="M14.9682 53.8197C13.1173 54.0146 13.1173 55.9565 14.7733 55.2773C16.4155 54.5958 18.1084 54.0434 19.837 53.6259V53.2373L14.9682 53.8197Z" fill="#1A3EBD"/>
<path d="M42.7203 54.9855H42.6234L35.7088 54.2082C35.5981 54.1863 35.4978 54.1252 35.4263 54.0364C35.3548 53.9476 35.3179 53.8369 35.3202 53.7227C35.2845 52.347 35.4482 50.9724 35.8069 49.6427C35.8657 49.5159 35.9637 49.4109 36.086 49.3417C36.2082 49.2714 36.3489 49.2414 36.4884 49.2552C36.6084 49.3164 36.7029 49.419 36.756 49.5424C36.8102 49.6669 36.8182 49.8053 36.7802 49.9345C36.4803 51.0104 36.3166 52.1209 36.2935 53.2372L42.2336 53.9176C42.3074 52.671 42.5035 51.4348 42.8183 50.2262C42.8391 50.1594 42.8737 50.0971 42.921 50.0452C42.9682 49.9921 43.0271 49.9506 43.0916 49.923C43.1562 49.8953 43.2265 49.8826 43.2969 49.8838C43.3672 49.8861 43.4364 49.9033 43.4999 49.9345C43.6948 49.9345 43.8896 50.2262 43.7916 50.518C43.4618 51.8211 43.2658 53.1565 43.2081 54.5C43.1816 54.6453 43.1136 54.7802 43.0132 54.8886L42.7203 54.9855Z" fill="#F0B576"/>
</g>
<defs>
<linearGradient id="paint0_linear_331_2269" x1="22.0958" y1="14.2661" x2="52.2841" y2="14.2661" gradientUnits="userSpaceOnUse">
<stop stop-color="#9E2FAD"/>
<stop offset="1" stop-color="#B84DCF"/>
</linearGradient>
<clipPath id="clip0_331_2269">
<rect width="70" height="70" rx="35" fill="white"/>
</clipPath>
</defs>
</svg>
