<svg width="70" height="70" viewBox="0 0 70 70" fill="none" xmlns="http://www.w3.org/2000/svg">
<g clip-path="url(#clip0_331_2247)">
<rect width="70" height="70" rx="35" fill="#7269FF"/>
<path d="M30.2625 70.2245C47.8351 70.2245 62.0807 68.344 62.0807 66.0245C62.0807 63.7049 47.8351 61.8245 30.2625 61.8245C12.69 61.8245 -1.55566 63.7049 -1.55566 66.0245C-1.55566 68.344 12.69 70.2245 30.2625 70.2245Z" fill="#1D2CC2"/>
<path d="M56.9264 72.0061C63.2875 72.0061 68.4446 71.0662 68.4446 69.9061C68.4446 68.7461 63.2875 67.8062 56.9264 67.8062C50.5653 67.8062 45.4082 68.7461 45.4082 69.9061C45.4082 71.0662 50.5653 72.0061 56.9264 72.0061Z" fill="#1D2CC2"/>
<path d="M41.9713 23.9607H26.0622L11.8076 34.588L14.6713 37.8334C14.7495 37.9276 14.8469 38.004 14.9563 38.0587C15.0658 38.1134 15.1854 38.1452 15.3076 38.1516H41.9713V23.9607Z" fill="#FFF2A6"/>
<path d="M27.6531 24.9154C25.9349 29.9427 21.8622 34.6518 16.5803 37.3881C16.1317 37.6153 15.6207 37.6885 15.1263 37.5969C14.6312 37.5046 14.1806 37.2526 13.844 36.879L11.8076 34.5881L27.844 20.5881L27.6531 24.9154Z" fill="#FFF2A6"/>
<path d="M37.962 67.8063C49.806 67.8063 59.4075 58.2048 59.4075 46.3609C59.4075 34.5169 49.806 24.9154 37.962 24.9154C26.118 24.9154 16.5166 34.5169 16.5166 46.3609C16.5166 58.2048 26.118 67.8063 37.962 67.8063Z" fill="#1D2CC2"/>
<path d="M62.0807 66.0244H-1.55566C0.226154 59.9789 9.51704 52.7244 19.8261 50.179L55.6534 49.988L56.1625 35.1608C62.6534 45.7244 62.0807 60.1699 62.0807 66.0244Z" fill="#1D2CC2"/>
<path d="M27.6533 24.9153C28.7351 32.3608 35.4806 38.0244 41.9078 40.2517H42.3533L62.0169 40.4426C62.141 40.4451 62.2638 40.4178 62.3746 40.3624C62.4853 40.3064 62.5808 40.2249 62.6533 40.1244L65.2624 36.8789L50.3078 23.9608L49.0351 20.9698H27.6533V24.9153Z" fill="#FFF2A6"/>
<path d="M28.7403 22.5232C28.9911 22.7739 29.1317 23.1137 29.1317 23.4682C29.1317 23.8227 28.9911 24.1625 28.7403 24.4132L27.7953 25.3582L26.8503 24.4132C26.7263 24.2891 26.6282 24.1421 26.5608 23.9798C26.4933 23.8176 26.459 23.6438 26.459 23.4682C26.459 23.2926 26.4933 23.1188 26.5608 22.9572C26.6276 22.7949 26.7263 22.6473 26.8503 22.5232C26.9744 22.3991 27.122 22.3011 27.2837 22.2337C27.446 22.1668 27.6197 22.1318 27.7953 22.1318C27.971 22.1318 28.1447 22.1668 28.307 22.2337C28.4693 22.3011 28.6162 22.3991 28.7403 22.5232Z" fill="black"/>
<path d="M66.0265 35.7335L52.0902 23.9608C54.1902 20.9062 54.0629 18.9972 51.072 18.4244C44.7084 17.2153 32.4902 17.0881 27.8447 17.2153L28.0356 22.3062L44.2629 36.7517C44.4653 36.9547 44.7402 37.0692 45.0265 37.0699L65.3902 37.4517C65.5085 37.4574 65.6262 37.4371 65.7357 37.3931C65.8458 37.3492 65.9451 37.2824 66.0265 37.1972C66.1334 37.1074 66.2193 36.9954 66.2785 36.8694C66.3377 36.7428 66.3683 36.6047 66.3683 36.4653C66.3683 36.326 66.3377 36.1879 66.2785 36.0612C66.2193 35.9352 66.1334 35.8232 66.0265 35.7335Z" fill="#FF78B9"/>
<path d="M45.3446 36.688C45.4121 36.613 45.4636 36.5251 45.4967 36.4303C45.5298 36.3355 45.5438 36.2343 45.5381 36.1338C45.5317 36.0332 45.5062 35.9352 45.4623 35.8442C45.4178 35.7539 45.3567 35.6731 45.2809 35.6062L30.6446 22.4335C32.2991 19.2517 32.681 17.2153 27.8446 17.2153C23.0082 17.2153 23.5173 18.4881 24.5991 22.4335L10.7901 33.7608C10.7233 33.8149 10.6679 33.8823 10.6265 33.9581C10.5858 34.0338 10.5603 34.1165 10.5514 34.2024C10.5425 34.2883 10.5502 34.3749 10.575 34.457C10.5998 34.5397 10.6405 34.6167 10.6946 34.6835C10.7487 34.7503 10.8161 34.8057 10.8919 34.8471C10.9676 34.8878 11.0503 34.9132 11.1362 34.9221C11.2221 34.9311 11.3087 34.9234 11.3908 34.8986C11.4735 34.8738 11.5505 34.833 11.6173 34.779L27.2719 22.3062C27.3769 22.2121 27.5131 22.1605 27.6537 22.1605C27.7943 22.1605 27.9305 22.2121 28.0355 22.3062L44.2628 36.7517C44.3379 36.8191 44.4257 36.8707 44.5205 36.9038C44.6153 36.9369 44.7165 36.9509 44.817 36.9452C44.9176 36.9394 45.0156 36.9133 45.1066 36.8694C45.197 36.8249 45.2778 36.7638 45.3446 36.688Z" fill="#D11583"/>
<path d="M60.8712 51.0698L42.9258 58.0698C42.9258 58.0698 45.2167 69.2698 45.4076 69.9698L68.3803 69.7789C66.6959 63.2447 64.1714 56.9555 60.8712 51.0698Z" fill="#1D2CC2"/>
<path d="M23.3264 43.8153H23.1991L20.1446 43.4971C19.8003 43.4348 19.4942 43.24 19.2918 42.9543C19.0895 42.6692 19.0074 42.3154 19.0628 41.9699C19.078 41.7961 19.1289 41.6275 19.2123 41.4748C19.295 41.3214 19.4089 41.1871 19.5464 41.0796C19.6832 40.972 19.841 40.8944 20.0097 40.8505C20.1783 40.8066 20.3539 40.7977 20.5264 40.8244L23.39 41.2062C23.5631 41.2138 23.7324 41.2571 23.8883 41.3329C24.0442 41.4079 24.1829 41.5149 24.2962 41.6459C24.4095 41.777 24.4948 41.9298 24.5469 42.0946C24.5985 42.26 24.6163 42.4338 24.5991 42.6062C24.5686 42.9276 24.4228 43.2267 24.1893 43.4488C23.9551 43.6715 23.649 43.8013 23.3264 43.8153Z" fill="white"/>
<path d="M37.4534 44.3881H33.4444C33.1491 44.3156 32.8869 44.1438 32.7023 43.902C32.5178 43.6601 32.4211 43.3623 32.4281 43.0581C32.4357 42.754 32.5464 42.4612 32.7431 42.2283C32.9397 41.9961 33.2095 41.8376 33.508 41.7791H37.4534C37.6291 41.7791 37.8028 41.8134 37.9651 41.8809C38.1267 41.9477 38.2743 42.0463 38.3984 42.1704C38.5225 42.2945 38.6212 42.4422 38.688 42.6038C38.7554 42.7661 38.7898 42.9398 38.7898 43.1154C38.7733 43.4584 38.6256 43.7823 38.3768 44.0197C38.128 44.2564 37.7971 44.3888 37.4534 44.3881Z" fill="white"/>
<path d="M30.2628 51.3244H30.1355L24.1537 50.8153C23.8769 50.7842 23.6096 50.6976 23.3665 50.5621C23.1235 50.4259 22.9103 50.2432 22.7385 50.0243C22.5666 49.8054 22.44 49.5541 22.3662 49.2855C22.2924 49.0176 22.2726 48.737 22.3083 48.4608C22.3312 48.1808 22.4113 47.9084 22.5443 47.6609C22.678 47.4133 22.8606 47.1963 23.0815 47.0226C23.3029 46.8495 23.5574 46.7242 23.8298 46.6535C24.1015 46.5835 24.3854 46.5708 24.6628 46.6153L30.3901 47.0608C30.6714 47.0691 30.9482 47.1334 31.2046 47.2504C31.4604 47.3675 31.6902 47.5349 31.8804 47.743C32.0701 47.9504 32.2164 48.1948 32.31 48.4602C32.4042 48.7255 32.4436 49.0068 32.4265 49.2881C32.394 49.8398 32.1515 50.3578 31.7494 50.7364C31.3472 51.1151 30.8152 51.3251 30.2628 51.3244Z" fill="#FFC619"/>
<path d="M30.2622 49.7334L24.344 49.2243C24.2034 49.2084 24.0736 49.1416 23.9794 49.0359C23.8859 48.9297 23.8343 48.7929 23.835 48.6516C23.8649 48.5059 23.9444 48.3748 24.0609 48.2819C24.1773 48.1889 24.3224 48.1393 24.4713 48.1425C26.1895 48.397 28.1622 48.5243 30.3258 48.6516C30.4665 48.6675 30.5963 48.7343 30.6905 48.8406C30.784 48.9462 30.8356 49.083 30.835 49.2243C30.8076 49.3598 30.7369 49.4827 30.6339 49.5749C30.5308 49.6666 30.4003 49.7226 30.2622 49.7334Z" fill="black"/>
<path d="M20.3349 43.6881C21.1787 43.6881 21.8622 43.004 21.8622 42.1608C21.8622 41.3176 21.1787 40.6335 20.3349 40.6335C19.4917 40.6335 18.8076 41.3176 18.8076 42.1608C18.8076 43.004 19.4917 43.6881 20.3349 43.6881Z" fill="black"/>
<path d="M33.5077 44.579C34.3509 44.579 35.035 43.8955 35.035 43.0517C35.035 42.2085 34.3509 41.5244 33.5077 41.5244C32.6639 41.5244 31.9805 42.2085 31.9805 43.0517C31.9805 43.8955 32.6639 44.579 33.5077 44.579Z" fill="black"/>
<path d="M45.3443 69.7153L43.7534 62.2699L43.117 59.0244L41.9716 59.2153C42.7352 63.0335 42.3534 67.2335 39.2988 70.0335L45.3443 69.7153Z" fill="black"/>
<path d="M22.1165 57.3699C15.6256 57.3699 7.54375 62.1426 3.34375 68.2517C8.49829 69.3335 17.2165 70.0972 27.3347 70.2244L27.7165 69.6517C31.5983 62.9063 29.1165 57.3699 22.1165 57.3699Z" fill="#66BCFF"/>
<path d="M44.3263 68.6335C44.2016 68.6348 44.0807 68.5896 43.9871 68.5075C43.893 68.4255 43.8325 68.3115 43.8172 68.1881C43.6899 67.4881 43.4354 66.4063 43.1809 65.1972C42.6081 62.2699 41.8445 58.579 41.4627 56.9245C41.4436 56.8576 41.4385 56.7876 41.4481 56.7183C41.457 56.6495 41.4799 56.5834 41.5161 56.5235C41.5518 56.4644 41.5995 56.4122 41.6561 56.3721C41.7121 56.3314 41.7764 56.3027 41.8445 56.2881C41.9877 56.248 42.141 56.2658 42.2721 56.3371C42.4026 56.4084 42.5006 56.528 42.5445 56.6699C42.9263 58.3245 43.6263 62.0154 44.2627 65.0063C44.5172 66.1517 44.7081 67.2335 44.8354 67.9972C44.8545 68.064 44.8596 68.134 44.85 68.2034C44.8411 68.2721 44.8182 68.3383 44.7819 68.3981C44.7463 68.4573 44.6986 68.5095 44.6426 68.5495C44.5859 68.5903 44.5217 68.6189 44.4536 68.6335H44.3263Z" fill="black"/>
</g>
<defs>
<clipPath id="clip0_331_2247">
<rect width="70" height="70" rx="35" fill="white"/>
</clipPath>
</defs>
</svg>
