<svg width="70" height="70" viewBox="0 0 70 70" fill="none" xmlns="http://www.w3.org/2000/svg">
<g clip-path="url(#clip0_331_2447)">
<rect width="70" height="70" rx="35" fill="#6C53E6"/>
<path d="M51.8033 58.4244L49.6368 55.0693C49.1775 54.3343 48.5643 53.7077 47.8395 53.2327C47.1146 52.7578 46.2953 52.4456 45.4381 52.318L41.8529 51.7141L27.7613 53.8135L16.8619 62.2684C16.4796 62.5659 16.1739 62.9504 15.9704 63.39C15.7829 63.8279 15.7071 64.3056 15.7499 64.78L15.8458 66.2083C22.6021 70.4453 30.6174 72.2115 38.5288 71.2067C46.4403 70.2018 53.7595 66.4878 59.2421 60.6963C59.049 60.6017 58.8505 60.5185 58.6477 60.4471L51.8033 58.4244Z" fill="#DE6B73"/>
<path d="M7.50507 13.0727H7.57217L27.4154 8.81649C40.4813 5.94065 46.7027 9.65048 53.6143 17.8274L54.1031 18.4601L64.5904 31.1713L66.6801 33.6924C70.2462 39.0702 68.5974 43.5374 59.9699 43.6141C51.1293 43.4937 42.3515 42.1055 33.9052 39.492C25.7283 37.0476 13.5731 33.5486 4.18828 25.4484L3.76649 25.0937L3.50766 24.8828L2.95167 24.3939L2.74077 24.183C-2.70414 18.7669 0.631831 14.6161 7.50507 13.0727Z" fill="url(#paint0_linear_331_2447)"/>
<path d="M2.75157 24.1827L2.96246 24.3936L3.51846 24.8825L3.72935 25.0934L4.15114 25.4481C13.5838 33.5483 25.739 37.0473 33.916 39.4917C42.3614 42.1093 51.1396 43.4976 59.9806 43.6138C66.1924 43.5371 68.7807 41.1693 68.3589 37.8621C65.0037 32.7623 51.6599 25.7069 36.3604 20.8851C21.061 16.0633 7.21869 14.472 1.1411 16.2933C-0.670675 18.316 -0.459781 21.0385 2.75157 24.1827Z" fill="url(#paint1_linear_331_2447)"/>
<path d="M60.0669 39.3675C60.9584 36.4916 49.6468 30.462 34.8075 25.8127C19.9682 21.1634 7.19954 19.7255 6.30803 22.5247C5.41652 25.3238 16.7377 31.4302 31.577 36.0794C46.4163 40.7287 59.1658 42.205 60.0669 39.3675Z" fill="#643443"/>
<path d="M23.2272 29.9825L24.0612 30.4713L10.9953 27.5955C12.1496 28.311 13.3399 28.967 14.5613 29.5607L26.3714 31.6504H26.4385L18.6833 31.5162L23.4764 33.4335L28.5091 32.4748L32.2669 33.8265L35.4878 34.7372L41.4599 38.8975L45.3711 39.7411L37.127 35.1302H37.6159L50.4038 40.508L52.4264 40.7189L39.2935 35.4753C40.1754 35.6383 41.0573 35.7533 41.9488 35.83L58.3698 40.623C58.9552 40.5107 59.4911 40.2193 59.9036 39.789L43.4826 35.7149C43.6264 35.6478 43.6935 35.5041 43.7702 35.437C43.8469 35.3698 43.7702 35.2261 43.6935 35.0152L59.4914 37.7376C59 37.1372 58.4366 36.5996 57.8138 36.1367L42.9266 34.3921L42.0926 33.8265H54.3149L51.7362 32.5036L40.9039 33.2705L39.1593 32.4269L46.7706 30.1933L44.1824 29.1485L38.0185 31.938L36.5519 31.382L41.5079 28.1707L39.3606 27.3942L35.3152 30.9507L33.9157 30.4618L36.7052 26.4835L34.9606 25.9275L33.283 30.3276L32.727 30.1167H32.9379L32.171 25.084L29.7936 24.3842L31.3083 29.7045L29.2185 29.1485L27.052 23.694L25.0198 23.2051L28.3749 28.9567L25.2498 28.3528L20.7635 22.304L18.5971 21.8822L24.3487 28.3049C23.7183 28.1567 23.062 28.1567 22.4315 28.3049L11.906 21.1824C11.3937 21.1153 10.8749 21.1153 10.3626 21.1824L21.8659 28.7267L6.52816 22.1602L6.24058 22.582C6.18204 22.9369 6.23217 23.301 6.38437 23.6269L23.2272 29.9825Z" fill="#723C4C"/>
<path d="M44.729 59.1913C42.9747 53.0466 42.8118 44.2369 44.0292 34.2674C44.2401 33.5676 39.5525 31.5449 33.542 29.7236C27.5315 27.9022 22.5084 27.0682 22.2975 27.8064C21.2334 37.7184 19.0382 53.0082 25.4513 70.3687C26.6262 70.675 27.8165 70.9182 29.0173 71.0972L44.729 59.1913Z" fill="url(#paint2_linear_331_2447)"/>
<path opacity="0.16" d="M21.1953 40.326C28.0494 38.2266 37.1274 37.2488 43.6268 38.0253C43.7023 36.7598 43.843 35.4992 44.0486 34.2484C44.2595 33.5486 39.5719 31.5259 33.5614 29.7045C27.5509 27.8832 22.5278 27.0492 22.3169 27.7873C21.9622 31.3821 21.4062 35.5808 21.1953 40.326Z" fill="#9A417B"/>
<path d="M26.5729 14.9323L25.6143 13.3218L29.0461 12.6987L26.5729 14.9323Z" fill="#F7CD96"/>
<path d="M23.5632 48.5412C24.0521 48.4453 24.3396 47.7839 24.1958 47.0649C24.0521 46.3459 23.544 45.8379 23.0455 45.9337C22.547 46.0296 22.269 46.691 22.4128 47.41C22.5566 48.129 23.0743 48.637 23.5632 48.5412Z" fill="#4F3446"/>
<path d="M32.612 47.3142C32.8136 47.0363 32.8993 46.691 32.851 46.3511C32.8026 46.0113 32.6242 45.7034 32.3532 45.4928C32.0312 45.3725 31.6749 45.3823 31.36 45.5201C31.0451 45.6579 30.7962 45.9128 30.666 46.231C30.462 46.5079 30.3749 46.8539 30.4232 47.1945C30.4716 47.5351 30.6517 47.8431 30.9248 48.0523C31.2468 48.1725 31.603 48.1628 31.918 48.025C32.2329 47.8873 32.4818 47.6323 32.612 47.3142Z" fill="#4F3446"/>
<path d="M35.7275 9.79417C36.5013 9.38632 37.3785 9.21625 38.2487 9.30528C38.2487 9.30528 36.5711 10.772 35.7275 9.79417Z" fill="#F7D097"/>
<path d="M28.5283 10.3501C28.5283 10.3501 28.883 8.43283 32.5832 9.30517L28.5283 10.3501Z" fill="#FFFBC9"/>
<path d="M39.6486 22.927C39.3736 24.116 38.9004 25.2501 38.249 26.2821L41.7384 27.327C41.7384 27.327 43.9048 26.1383 44.3266 24.3937C42.0931 23.5597 39.6486 22.927 39.6486 22.927Z" fill="#CE7868"/>
<path d="M29.583 58.7024C27.9725 60.1019 27.5603 59.8719 26.9948 59.5459C25.3555 58.5873 24.4832 57.2357 25.0775 56.6701C25.6719 56.1045 27.6658 56.1812 29.7651 56.1812C31.3948 56.1525 31.1935 57.3028 29.583 58.7024Z" fill="#331518"/>
<path d="M29.8326 58.4724L30.0147 58.2999L30.1681 58.1369C30.216 58.0794 30.2735 58.0219 30.3119 57.9643L30.4461 57.7918C30.4865 57.7445 30.5219 57.6932 30.5515 57.6384L30.6378 57.485L30.7049 57.3317C30.7089 57.2838 30.7089 57.2357 30.7049 57.1879C30.7049 57.1399 30.7049 57.092 30.7049 57.0537C30.7197 56.9776 30.7197 56.8995 30.7049 56.8236C30.6895 56.7865 30.6702 56.7512 30.6474 56.7181C30.6014 56.6468 30.539 56.5876 30.4653 56.5456L30.3406 56.4785L29.6696 56.373H28.874C27.6479 56.9706 26.6295 57.9224 25.9502 59.1051C26.2354 59.3293 26.533 59.5373 26.8417 59.7282C27.4073 60.0541 27.8003 60.2842 29.43 58.8846L29.6408 58.6929L29.8326 58.4724Z" fill="#DE6B73"/>
<path d="M30.7333 57.3796C31.1167 56.6607 30.8387 56.1909 29.7746 56.1909C28.3641 56.0997 26.9478 56.1802 25.5568 56.4306C25.4801 56.9003 25.4034 57.3892 25.7868 57.3892L30.7333 57.3796Z" fill="white"/>
<path d="M18.3286 53.4588C18.5189 53.7565 18.7788 54.0032 19.0859 54.1778C19.3807 54.3392 19.7087 54.431 20.0445 54.4462C21.722 57.5137 24.5979 57.7917 27.4737 55.2802C31.1068 57.6575 32.5735 57.4466 35.6507 54.8584C37.5679 55.2802 39.0729 54.8584 39.8398 53.8998C41.2394 52.5002 41.3832 49.2218 38.306 48.522C38.7949 49.6435 38.862 50.6213 36.6955 51.2444C36.0411 51.4474 35.3578 51.5413 34.6729 51.5224C32.1613 51.5224 30.2729 50.2666 27.4737 51.7333C26.6916 51.2673 25.8123 50.9885 24.9046 50.9185C23.9969 50.8398 23.0836 50.9777 22.2397 51.3211C21.584 51.5333 20.896 51.6274 20.2074 51.5991C20.0074 51.5704 19.8168 51.4949 19.6514 51.3786C19.4816 51.2698 19.3403 51.1219 19.2392 50.9473C19.1402 50.7706 19.0813 50.5742 19.0667 50.3721C19.0555 50.1694 19.0882 49.9667 19.1625 49.7777C18.6673 50.1782 18.3089 50.7227 18.1371 51.336C17.9653 51.9492 17.9887 52.6007 18.2039 53.2C18.271 53.2767 18.271 53.4109 18.3381 53.478L18.3286 53.4588Z" fill="#643443"/>
<path d="M35.6605 54.8585C37.5777 55.2803 39.0827 54.8585 39.8496 53.8999C40.3715 53.3612 40.702 52.6661 40.7903 51.9214C40.8787 51.1766 40.7199 50.4236 40.3385 49.7778C40.7603 52.0881 38.172 53.7657 34.5868 52.855C31.3659 55.4432 26.9179 53.0659 26.9179 53.0659C24.8282 54.6667 22.585 55.2323 20.4952 53.4781C20.0105 53.5861 19.503 53.5145 19.0669 53.2768C18.6023 53.0446 18.2403 52.6484 18.0508 52.1648C18.0611 52.4888 18.1094 52.8105 18.1946 53.1234C18.2617 53.2001 18.2617 53.3343 18.3288 53.4014C18.5191 53.6989 18.779 53.9457 19.0861 54.1203C19.3809 54.2817 19.7089 54.3735 20.0447 54.3888C21.7223 57.5138 24.5981 57.7918 27.4739 55.2803C31.1166 57.6576 32.5833 57.4467 35.6605 54.8585Z" fill="#572A37"/>
</g>
<defs>
<linearGradient id="paint0_linear_331_2447" x1="27.3196" y1="10.8583" x2="39.7048" y2="42.7513" gradientUnits="userSpaceOnUse">
<stop stop-color="#F5C38D"/>
<stop offset="1" stop-color="#CF8F71"/>
</linearGradient>
<linearGradient id="paint1_linear_331_2447" x1="68.4068" y1="29.5893" x2="-0.0092324" y2="29.5893" gradientUnits="userSpaceOnUse">
<stop stop-color="#C97A6D"/>
<stop offset="1" stop-color="#D89F83"/>
</linearGradient>
<linearGradient id="paint2_linear_331_2447" x1="983.966" y1="2747.79" x2="290.786" y2="1777.38" gradientUnits="userSpaceOnUse">
<stop stop-color="#F5C38D"/>
<stop offset="1" stop-color="#CF8F71"/>
</linearGradient>
<clipPath id="clip0_331_2447">
<rect width="70" height="70" rx="35" fill="white"/>
</clipPath>
</defs>
</svg>
