<svg width="70" height="70" viewBox="0 0 70 70" fill="none" xmlns="http://www.w3.org/2000/svg">
<g clip-path="url(#clip0_331_2306)">
<rect width="70" height="70" rx="35" fill="#628BF7"/>
<path d="M27.2916 -24.7377L53.2441 23.9242C53.8441 25.0165 54.0766 26.274 53.9041 27.5088C53.7291 28.7435 53.1616 29.8888 52.2816 30.773L51.9216 31.1335C47.6341 35.6172 42.2666 38.923 36.3316 40.7325C30.3991 42.5423 24.0991 42.795 18.0391 41.4668C17.1591 41.2757 16.3691 40.791 15.8016 40.0923C15.2341 39.3935 14.9216 38.5222 14.9141 37.6217L13.7141 -21.133C13.5941 -43.3615 14.6741 -48.2877 27.2916 -24.7377Z" fill="#33BEB5"/>
<path d="M51.92 31.1336C52.8625 30.1396 53.4725 28.8773 53.6675 27.5211C53.86 26.1651 53.6275 24.7823 53.0025 23.5641L27.2875 -24.7376C21.16 -36.1521 17.7975 -40.9581 15.875 -40.1171C20.8 -5.99365 30.8925 38.4631 30.8925 38.4631L37.8625 40.1451C43.1925 38.2913 48.01 35.2036 51.92 31.1336Z" fill="#33A2BE"/>
<path d="M45.6746 9.74625C44.1121 6.8625 43.3922 5.90126 42.6722 7.34326C31.9772 -9.71849 26.8122 -6.35425 26.8122 10.2268C26.8122 10.2268 19.3622 6.26176 20.2022 20.9205C19.1422 20.6338 18.0147 20.7018 16.9947 21.1138C15.9772 21.526 15.1197 22.2595 14.5547 23.2035L14.9147 37.6218C14.9247 38.391 15.1547 39.1413 15.5822 39.7813C16.0072 40.4213 16.6122 40.9235 17.3197 41.2263C23.6797 42.238 30.1872 41.7668 36.3347 39.8493C42.4847 37.932 48.1071 34.62 52.7646 30.1723C53.4246 29.2818 53.8197 28.2228 53.9047 27.1175C53.9897 26.0123 53.7597 24.9053 53.2447 23.9243L45.6746 9.74625Z" fill="#F7E5BC"/>
<path d="M53.2421 23.9243L45.6722 9.74625C44.1097 6.8625 43.3896 5.90126 42.6671 7.34326C31.9746 -9.71849 26.8072 -6.35425 26.8072 10.2268C26.1747 9.906 25.4746 9.74125 24.7646 9.74625C26.8071 10.2268 26.9271 12.2695 28.1296 16.715C29.3321 21.1607 30.1721 25.1258 30.1721 25.1258L49.1571 33.176C50.4396 32.277 51.6447 31.2723 52.7622 30.1723C53.4222 29.2818 53.8171 28.2228 53.9021 27.1175C53.9871 26.0123 53.7571 24.9053 53.2421 23.9243Z" fill="#F7D197"/>
<path d="M52.4018 24.5252C43.2693 14.6725 35.0993 11.188 16.5968 38.2225C16.4143 38.5127 16.3068 38.8415 16.2768 39.1822C16.2468 39.5227 16.2993 39.8655 16.4293 40.182C16.5568 40.4985 16.7593 40.78 17.0193 41.0032C17.2768 41.2267 17.5843 41.3855 17.9168 41.4667C23.9968 42.7817 30.3093 42.5227 36.2618 40.7145C42.2118 38.906 47.6018 35.6082 51.9218 31.1335L52.2817 30.773L53.1217 29.6917C53.5817 28.8695 53.7593 27.92 53.6293 26.9875C53.4993 26.055 53.0668 25.1905 52.4018 24.5252Z" fill="#242236"/>
<path d="M50.8396 32.9359L48.4371 20.6801C41.7096 15.1531 34.6196 15.0331 22.7246 29.9321L27.6496 41.5869C36.0096 40.8049 44.0121 37.8199 50.8396 32.9359Z" fill="#9E4B34"/>
<path d="M51.4392 32.455L42.6667 31.7342L41.4643 35.0985L39.3018 30.4125C37.2593 25.6062 37.1393 25.7265 35.3368 29.8117C33.5343 33.897 25.4843 32.455 25.4843 32.455L23.8018 28.7302C34.2568 16.1142 40.8643 15.3932 46.9918 19.5987L51.4392 32.455Z" fill="#7A2F28"/>
<path d="M11.6696 49.1565L13.2321 45.0713C13.5696 44.265 14.0946 43.5505 14.7621 42.9865C15.4321 42.4225 16.2246 42.0253 17.0771 41.8273L23.2046 40.6255L47.4746 40.145L60.6921 46.8735C61.2296 47.1363 61.6946 47.5248 62.0496 48.0058C62.4071 48.4868 62.6396 49.0463 62.7346 49.637L63.2146 52.761L69.5821 56.9665C69.9371 57.1945 70.2146 57.5205 70.3846 57.9048C70.5571 58.2888 70.6121 58.7143 70.5446 59.1293C68.8621 73.7873 53.8421 96.1373 32.9371 86.1648C17.3171 78.7148 2.8971 67.8998 -4.0704 62.3723L-6.7154 65.9773C-7.4354 62.4923 -6.8354 61.1723 -4.5504 59.3695C-3.8204 58.8733 -3.1354 58.31 -2.5079 57.6873C-2.2979 57.1083 -2.17787 56.5005 -2.14787 55.885C-1.54787 53.1215 -2.14788 52.4008 1.09462 51.6798L11.6696 49.1565Z" fill="#33BEB5"/>
<path d="M23.325 42.0674C17.6775 43.0286 14.555 42.9086 23.325 48.0751C32.0975 53.2419 23.325 42.0674 23.325 42.0674Z" fill="#1E6470"/>
<path d="M38.8223 24.6454L39.7848 28.9709C39.9048 29.0911 40.0248 29.3314 40.2648 29.3314L42.0673 29.5716L40.5048 25.9671V25.7269L40.8648 23.2036L39.1823 24.1649L38.8223 24.6454Z" fill="#66251F"/>
<path d="M30.1699 28.9708L33.4149 29.4513C32.2124 31.2536 30.7724 31.0133 30.1699 28.9708Z" fill="#5E221D"/>
<path d="M42.0693 27.7693L45.3144 26.808C44.9543 28.9707 43.5118 29.3313 42.0693 27.7693Z" fill="#5E221D"/>
<path d="M32.3321 29.5715C32.8646 29.5715 33.2946 28.8185 33.2946 27.8895C33.2946 26.9605 32.8646 26.2073 32.3321 26.2073C31.8021 26.2073 31.3721 26.9605 31.3721 27.8895C31.3721 28.8185 31.8021 29.5715 32.3321 29.5715Z" fill="black"/>
<path d="M43.8727 27.4087C44.4027 27.4087 44.8327 26.6557 44.8327 25.7267C44.8327 24.7977 44.4027 24.0444 43.8727 24.0444C43.3402 24.0444 42.9102 24.7977 42.9102 25.7267C42.9102 26.6557 43.3402 27.4087 43.8727 27.4087Z" fill="black"/>
<path d="M46.9942 19.5989L49.6367 21.6414C50.5992 24.2849 50.9592 28.0096 51.9192 31.1336C52.8817 34.2576 54.2017 38.9436 53.6017 41.5869C53.0017 44.2304 53.4817 44.4706 55.1642 47.8349C56.8467 51.1991 59.9692 54.8039 58.8892 58.8889C60.6917 61.6524 60.0892 63.3349 59.6092 65.8574C59.1292 68.3799 57.0867 75.1099 52.5217 74.9899C50.9792 77.1399 48.8217 78.7724 46.3342 79.6749C43.8467 80.5749 41.1442 80.7024 38.5817 80.0349C31.2542 78.2349 23.9242 73.1874 24.7642 66.5799C22.3617 64.6574 22.8417 59.6099 23.2042 56.8464C23.4617 54.3904 23.0892 51.9094 22.1217 49.6371C21.2817 47.2341 21.2817 44.8311 22.0017 39.7846C21.1592 37.6961 20.5542 35.5199 20.1992 33.2964L23.8042 28.6104L25.4867 32.4554C26.2917 34.0586 27.0142 35.7029 27.6492 37.3816C28.2542 37.1161 28.9117 36.9929 29.5717 37.0211C30.0192 36.0964 30.6942 35.3014 31.5367 34.7124C32.3767 34.1234 33.3567 33.7599 34.3767 33.6569L41.4667 35.0986L42.6692 31.7344C46.0317 31.2536 47.7142 31.2536 48.9167 32.0949C49.5517 30.1946 49.6367 28.1529 49.1567 26.2074C48.5567 23.9244 46.9942 19.5989 46.9942 19.5989Z" fill="white"/>
<path d="M42.0696 37.8621L39.3071 37.2614C37.9846 36.9009 38.1046 36.7809 34.3796 33.6569L41.4696 35.0986L42.6696 31.7344C46.0346 31.2536 47.7171 31.2536 48.9196 32.0949C49.5546 30.1946 49.6371 28.1529 49.1596 26.2074C48.5571 23.9244 46.9971 19.5989 46.9971 19.5989L49.5196 21.6414C50.5996 24.2849 50.9621 28.0096 51.9221 31.1336C52.8846 34.2576 54.2046 38.9436 53.6046 41.5869C53.0046 44.2304 53.4846 44.4706 55.1671 47.8349C56.8496 51.1991 59.9721 54.8039 58.8921 58.8889C60.6946 61.6524 60.0921 63.3349 59.6121 65.8574C59.1321 68.3799 57.0896 75.1099 52.5221 74.9899C50.9821 77.1399 48.8246 78.7724 46.3371 79.6749C43.8496 80.5749 41.1471 80.7024 38.5846 80.0349C31.2571 78.2349 23.9271 73.1874 24.7671 66.5799C27.0496 72.8274 31.8571 71.6249 31.8571 71.6249C34.7771 70.9949 37.7621 70.7124 40.7471 70.7849C42.4296 67.7799 44.4721 64.8974 46.1546 63.6949C49.7596 56.8464 46.9971 49.5171 45.3146 45.4319L42.0696 37.8621Z" fill="#D6DFFF"/>
<path d="M42.0699 37.8621C43.8724 38.2224 43.7524 36.6606 43.6324 35.0986C43.5649 33.9196 43.2374 32.7701 42.6699 31.7341L41.4699 35.0986L34.3799 33.6566C38.1049 36.7806 37.9848 36.9009 39.3048 37.2614L42.0699 37.8621Z" fill="#CAD5FC"/>
<path d="M28.4893 26.9283L35.0992 25.0058C34.5417 24.6898 33.9243 24.4888 33.2868 24.4148C32.6518 24.3405 32.0043 24.3945 31.3893 24.5738C30.7743 24.7528 30.1993 25.0535 29.7018 25.4578C29.2043 25.8623 28.7918 26.362 28.4893 26.9283Z" fill="#CFDEFF"/>
<path d="M39.9072 24.2848L46.7547 22.9633C45.6647 22.2595 44.3422 22.004 43.0672 22.2503C41.7897 22.4965 40.6597 23.2253 39.9072 24.2848Z" fill="#CFDEFF"/>
<path d="M44.9523 40.3854C44.9273 40.8354 44.7448 41.2624 44.4373 41.5919C44.1298 41.9211 43.7174 42.1321 43.2699 42.1879C36.0599 43.1491 32.9373 41.4669 31.7348 40.5056C31.5898 40.3694 31.4823 40.1991 31.4198 40.0104C31.3548 39.8216 31.3398 39.6201 31.3748 39.4241V39.1839C35.2198 40.5056 40.9874 39.9049 42.3099 39.6646C43.6299 39.4241 43.1498 39.0639 43.0298 38.4631C43.2823 38.4631 43.5324 38.5126 43.7649 38.6094C43.9999 38.7059 44.2099 38.8476 44.3899 39.0261C44.5674 39.2046 44.7098 39.4166 44.8048 39.6499C44.9023 39.8831 44.9523 40.1331 44.9523 40.3854Z" fill="#DE5D70"/>
<path d="M36.1199 8.77648C37.3174 8.20298 37.4499 5.9915 36.4174 3.83725C35.3849 1.68275 33.5799 0.401239 32.3824 0.974739C31.1849 1.54799 31.0524 3.75949 32.0849 5.91399C33.1149 8.06824 34.9224 9.34998 36.1199 8.77648Z" fill="#FF9CCD"/>
<path d="M36.4199 3.73843C35.4574 1.57568 33.535 0.25394 32.335 0.85469C32.19 0.92844 32.0624 1.03018 31.9599 1.15418C31.8574 1.27793 31.7799 1.42144 31.7324 1.57569C33.7749 1.45544 32.6949 3.85868 36.4199 3.73843Z" fill="#FFEBF5"/>
<path d="M31.3721 3.0177C31.3971 4.00695 31.6021 4.98371 31.9721 5.90121L32.4521 6.62221C32.8146 6.50196 33.6546 6.26171 34.0146 6.86246C34.3746 7.46321 34.8571 8.5447 36.1771 8.78495C36.5021 8.53045 36.7596 8.20021 36.9271 7.82321C37.0946 7.44621 37.1671 7.03371 37.1396 6.62221H36.7796C34.2546 6.62221 32.8146 3.9787 31.3721 3.0177Z" fill="#FF70B7"/>
<path d="M23.805 16.5951C24.4675 16.5951 25.005 15.8958 25.005 15.0331C25.005 14.1706 24.4675 13.4711 23.805 13.4711C23.14 13.4711 22.6025 14.1706 22.6025 15.0331C22.6025 15.8958 23.14 16.5951 23.805 16.5951Z" fill="#F7D197"/>
<path d="M17.4369 26.9282C18.0994 26.9282 18.6369 26.2289 18.6369 25.3662C18.6369 24.5037 18.0994 23.8044 17.4369 23.8044C16.7719 23.8044 16.2344 24.5037 16.2344 25.3662C16.2344 26.2289 16.7719 26.9282 17.4369 26.9282Z" fill="#F7D197"/>
<path d="M20.1992 33.2962C20.5542 35.169 21.0367 37.0155 21.6417 38.8232C21.6417 37.3815 22.2417 35.6992 23.2042 35.3387C24.1642 34.9785 24.2842 32.5752 25.4867 32.4552L23.8042 28.6102L20.1992 33.2962Z" fill="#A8C3FF"/>
<path d="M45.7891 46.6333C48.7941 49.6373 49.874 51.8 50.1165 53.482C48.894 53.0355 47.7565 52.3856 46.7515 51.5598L45.7891 46.6333Z" fill="white"/>
<path d="M34.2568 22.8433C36.9018 22.0478 39.5893 21.4058 42.3068 20.9208C37.9818 20.4403 35.5793 21.161 34.2568 22.8433Z" fill="#66251F"/>
<path d="M37.0223 28.0095C37.0473 28.5642 37.1873 29.1077 37.4373 29.6045C37.6848 30.1012 38.0347 30.5402 38.4647 30.8932C39.0647 31.3737 38.5847 30.5327 37.8622 28.9707C37.1423 27.4087 36.7823 27.0482 37.0223 28.0095Z" fill="#C27059"/>
</g>
<defs>
<clipPath id="clip0_331_2306">
<rect width="70" height="70" rx="35" fill="white"/>
</clipPath>
</defs>
</svg>
