<svg width="70" height="70" viewBox="0 0 70 70" fill="none" xmlns="http://www.w3.org/2000/svg">
<g clip-path="url(#clip0_331_2337)">
<rect width="70" height="70" rx="35" fill="#5865F2"/>
<path d="M38.4219 45.9197C44.3312 53.5242 51.7567 60.1204 57.2771 64.233C58.2101 64.9345 59.3341 65.3361 60.5005 65.3847C61.6668 65.4332 62.8203 65.1264 63.8084 64.5048C64.4599 64.0955 65.0232 63.5601 65.465 62.9301C65.9069 62.3001 66.2185 61.5882 66.3815 60.8361C66.5442 60.0846 66.5552 59.3081 66.4137 58.5522C66.2723 57.7964 65.9812 57.0764 65.5577 56.4345C58.1322 45.2599 50.6293 34.241 50.6293 34.241L38.4219 45.9197Z" fill="url(#paint0_linear_331_2337)"/>
<path d="M56.3437 61.0902C56.2828 61.0939 56.222 61.0815 56.1674 61.0542C56.1128 61.027 56.0663 60.9858 56.0327 60.9349L46.3132 46.1136C46.285 46.0703 46.2657 46.0219 46.2564 45.971C46.2471 45.9202 46.248 45.8681 46.259 45.8176C46.2756 45.7417 46.3143 45.6723 46.3702 45.6183C46.4261 45.5643 46.4967 45.528 46.5732 45.514C46.6496 45.5 46.7285 45.509 46.7999 45.5397C46.8713 45.5705 46.932 45.6217 46.9744 45.6869L56.6547 60.5082C56.6972 60.5734 56.7194 60.6497 56.7185 60.7275C56.7176 60.8053 56.6936 60.8811 56.6495 60.9452C56.6199 60.9879 56.5818 61.024 56.5377 61.0515L56.3437 61.0902Z" fill="#0EC2BC"/>
<path d="M16.651 42.7378C8.91448 44.0183 5.64929 48.2475 3.27749 54.6105C0.556419 61.7887 -0.143425 68.3458 10.4307 74.7089L19.6056 73.4283C32.746 73.0795 46.1582 69.5485 50.6291 45.4924L16.651 42.7378Z" fill="#0EC2BC"/>
<path d="M16.6514 19.6518C17.4291 10.8055 18.7896 7.46888 22.7164 6.57633C26.6427 5.68422 28.5478 9.09825 30.2193 14.3752L16.6514 19.6518ZM40.5603 6.22706C37.1394 6.38234 35.5066 9.17611 33.9512 13.444L44.9925 15.6557C45.5366 9.6028 44.0204 6.07221 40.5603 6.22706Z" fill="#2AE5C4"/>
<path d="M30.2572 51.0409C51.0563 52.4767 53.7386 43.6304 55.488 37.7327C57.8985 29.5459 60.0368 25.8987 56.8486 22.4068C54.9439 20.3116 52.1058 20.0789 49.1903 20.8936C46.7411 15.7332 42.9309 12.086 32.4346 12.8233C24.5424 13.4053 12.2189 17.557 7.74797 31.2918C3.27709 45.0271 20.3051 50.3815 30.2572 51.0409Z" fill="url(#paint1_linear_331_2337)"/>
<path d="M51.7569 25.0839L51.1349 23.2988L48.0637 31.9903L44.4092 34.8614L39.1606 34.2408L24.6602 25.2775L23.999 26.4414C25.6168 27.2202 27.0895 28.27 28.3533 29.5453C33.2518 34.2403 35.2343 42.8539 30.0636 51.0403H30.258C44.0204 52.0107 49.8518 48.441 52.7286 44.2118C50.0462 32.9207 51.2515 28.1487 51.7569 25.0835V25.0839Z" fill="#ADFDDC"/>
<path d="M22.9881 26.4421C22.9273 26.4457 22.8666 26.4332 22.812 26.4061C22.7575 26.3789 22.711 26.3379 22.6771 26.2872C21.511 24.6957 20.1114 24.0363 17.9344 24.0754C17.8312 24.0859 17.728 24.055 17.6475 23.9894C17.6079 23.957 17.5751 23.917 17.551 23.8718C17.5268 23.8266 17.5118 23.7771 17.5069 23.7262C17.5059 23.6192 17.5454 23.5158 17.6174 23.4367C17.6894 23.3576 17.7887 23.3086 17.8953 23.2995C20.3445 23.2608 22.0165 24.0367 23.2991 25.8601C23.3525 25.9452 23.3739 26.0465 23.3597 26.146C23.3454 26.2454 23.2964 26.3366 23.2213 26.4034L22.9881 26.4421Z" fill="#0EC2BC"/>
<path d="M43.2419 35.4048C39.4322 35.4048 33.9117 31.641 28.0803 27.645L26.3697 26.4419C26.295 26.412 26.228 26.3659 26.1733 26.307C26.1185 26.2481 26.0775 26.1778 26.0531 26.1012C26.0292 26.0246 26.0225 25.9436 26.0334 25.8641C26.0443 25.7845 26.0726 25.7084 26.1163 25.641C26.1602 25.5735 26.2186 25.5166 26.2871 25.4744C26.3557 25.4322 26.4328 25.4057 26.5129 25.397C26.593 25.3882 26.674 25.3973 26.7501 25.4237C26.8262 25.45 26.8954 25.493 26.9529 25.5494L28.7023 26.7133C34.495 30.6711 40.443 34.7449 43.7865 34.2795C47.1295 33.8141 48.2569 29.7398 49.5788 25.4332C49.7345 24.89 49.9289 24.3467 50.0842 23.8034C50.1091 23.6934 50.1701 23.5948 50.2576 23.5236C50.3451 23.4523 50.454 23.4124 50.5668 23.4103C50.6416 23.4086 50.7156 23.4236 50.784 23.4542C50.9155 23.4986 51.0251 23.5917 51.0902 23.7143C51.1553 23.8369 51.171 23.9797 51.1342 24.1136C50.9784 24.6573 50.784 25.2001 50.6287 25.7438C49.2678 30.2057 47.8685 34.7836 43.9418 35.3661L43.2419 35.4048Z" fill="black"/>
<path d="M50.201 21.7861C51.6398 21.5921 54.3608 22.6783 54.6718 24.6573C54.9828 26.636 51.7951 26.3646 50.0844 24.9287C49.268 24.2302 48.9183 23.4155 48.957 22.8727C49.0029 22.5739 49.1529 22.3011 49.3806 22.1022C49.6082 21.9034 49.8988 21.7915 50.201 21.7861Z" fill="#5865F2"/>
<path d="M28.1586 13.5219C27.643 12.4961 27.0312 11.5216 26.3313 10.6116C26.1098 10.2651 25.7803 10.0013 25.3938 9.86106C25.0072 9.72078 24.5852 9.71184 24.1931 9.83561C23.5324 10.0296 21.9383 10.9996 21.7439 15.5006C21.7381 15.5465 21.7417 15.5932 21.7545 15.6377C21.7673 15.6822 21.789 15.7236 21.8183 15.7595C21.847 15.7958 21.8828 15.8259 21.9235 15.8481C21.9641 15.8702 22.0088 15.884 22.0549 15.8886H22.1327C22.2135 15.8907 22.2925 15.8648 22.3562 15.8153C22.42 15.7657 22.4646 15.6955 22.4824 15.6167C23.1435 13.2501 24.2709 11.4267 25.2426 11.2714H25.6315C26.3313 11.5816 27.2256 12.8234 27.8863 14.026C28.0028 14.2588 28.1586 14.2588 28.2364 14.22C28.3138 14.1813 28.3917 14.0652 28.1586 13.5219ZM44.0979 14.608C44.066 13.446 43.9228 12.2896 43.6703 11.1549C43.5146 10.2236 42.9313 9.60291 42.1928 9.48677C41.4542 9.3702 39.8214 9.5642 37.9163 13.6768C37.8816 13.7661 37.8781 13.8646 37.9064 13.9561C37.9347 14.0477 37.993 14.1271 38.072 14.1813H38.1107C38.1803 14.2184 38.2604 14.2309 38.3379 14.2168C38.4155 14.2028 38.4861 14.163 38.5383 14.1039C39.9767 12.2027 41.6486 10.9996 42.5038 11.2714L42.8147 11.465C43.2814 12.0474 43.5533 13.5993 43.6703 14.9964C43.6703 15.2674 43.8256 15.3453 43.9034 15.3453C43.9813 15.3453 44.0979 15.2291 44.0979 14.608Z" fill="black"/>
<path d="M12.8799 28.8865C13.3887 27.8729 14.1419 27.0019 15.0715 26.3521C16.0015 25.7017 17.0786 25.2925 18.2059 25.1615C18.7486 25.1099 19.2942 25.0969 19.8387 25.1228L20.6551 25.2002L21.4716 25.3555C22.5414 25.5903 23.5745 25.9688 24.5428 26.4807C26.4427 27.5236 28.1182 28.9313 29.473 30.623C30.8269 32.3137 31.8335 34.2553 32.435 36.3361C32.4405 36.3616 32.4408 36.388 32.4359 36.4136C32.431 36.4393 32.4211 36.4637 32.4066 36.4854C32.3769 36.529 32.3311 36.559 32.2793 36.5688C32.2014 36.6075 32.0849 36.5301 32.0461 36.4523C31.4398 34.4447 30.4405 32.5777 29.1061 30.9598C27.7708 29.3408 26.1273 28.003 24.2709 27.024C23.3511 26.5439 22.3701 26.1915 21.355 25.9766L20.5777 25.8213H19.8387C19.3192 25.788 18.7975 25.8139 18.2838 25.8987C17.2762 26.0272 16.3153 26.4002 15.4849 26.9853C14.6692 27.5779 14.0144 28.3648 13.5798 29.2745C13.5185 29.3563 13.4321 29.4158 13.3338 29.4438C13.2355 29.4717 13.1308 29.4667 13.0356 29.4293C12.9899 29.4091 12.949 29.3793 12.9157 29.342C12.8824 29.3047 12.8575 29.2607 12.8425 29.213C12.8279 29.1651 12.8236 29.1147 12.8301 29.065C12.8365 29.0154 12.8535 28.9677 12.8799 28.9252V28.8865Z" fill="#0EC2BC"/>
<path d="M21.4332 30.5159C25.2821 30.2836 27.5369 32.301 28.392 35.7929C29.2471 39.2848 29.5973 41.186 30.997 42.9319C32.3962 44.6779 33.8737 47.6269 31.6964 52.7482C29.7526 57.2492 24.6988 66.406 19.9561 73.4285C19.3529 74.2918 18.5501 74.9967 17.616 75.4831C16.6819 75.9695 15.6441 76.2231 14.591 76.2222C13.399 76.2222 12.2303 75.8928 11.2143 75.2708C10.199 74.6487 9.37569 73.7577 8.83567 72.6964C8.29612 71.6358 8.06147 70.4464 8.15784 69.2604C8.25421 68.0744 8.67782 66.9384 9.38152 65.9789C17.118 55.3479 20.5002 50.3428 20.6168 47.4716C20.7334 43.8245 17.8179 40.4487 16.5348 38.8581C15.2521 37.2674 15.8349 36.103 16.7292 35.7929C17.6234 35.4823 18.7117 35.9481 19.3728 36.9955C18.362 33.6589 17.9344 30.7099 21.4332 30.5159Z" fill="#2AE5C4"/>
<path d="M26.2923 23.1053C28.1587 24.2693 28.936 26.4032 28.003 27.8386C27.07 29.2744 26.3702 28.6146 25.5151 27.9547C24.5149 27.2108 23.4158 26.6103 22.2494 26.1705C20.9663 25.7434 20.6553 24.6573 21.2773 23.6094C21.8997 22.5621 24.4264 21.9409 26.2923 23.1053Z" fill="#5865F2"/>
<path d="M65.5578 56.4343C62.681 52.0499 59.7651 47.7429 57.2771 44.057C57.9552 39.7261 58.9822 35.4571 60.3484 31.2917C61.0482 29.2744 60.5428 27.6059 58.1323 27.4506C55.7218 27.2957 54.3612 29.1582 52.845 32.9215C51.3287 36.6853 50.4349 37.8879 48.8795 39.8666C47.3246 41.8452 46.5081 44.2123 49.3462 49.0234C50.979 51.8559 55.9553 59.4217 59.8429 65.3193C61.2194 65.5155 62.6212 65.2277 63.8084 64.5046C64.46 64.0953 65.0232 63.5599 65.4651 62.9299C65.9069 62.2999 66.2185 61.588 66.3815 60.836C66.5442 60.0844 66.5552 59.3079 66.4138 58.552C66.2723 57.7962 65.9813 57.0762 65.5578 56.4343Z" fill="#2AE5C4"/>
<path d="M21.2388 30.5159L20.5781 30.632C20.3422 30.6996 20.1349 30.8423 19.9875 31.0385C19.8401 31.2347 19.7609 31.4736 19.7617 31.719C19.7622 32.1631 19.8143 32.6057 19.917 33.0378C20.3859 35.1631 20.9696 37.2613 21.6664 39.3234C21.701 39.3994 21.7553 39.4646 21.8237 39.5125C21.8921 39.5603 21.972 39.5889 22.0552 39.5953H22.1718C22.2208 39.5781 22.2658 39.5512 22.3041 39.5163C22.3425 39.4813 22.3734 39.439 22.3951 39.3918C22.417 39.3449 22.4292 39.2941 22.4309 39.2423C22.4326 39.1905 22.4238 39.139 22.4049 39.0907C21.8608 37.4222 21.2001 35.2109 20.6947 32.8829C20.4611 31.8351 20.5003 31.1366 20.7334 30.7877C20.8784 30.6589 21.0515 30.5659 21.2388 30.5159Z" fill="black"/>
<path d="M20.3443 42.3499C20.3625 42.4285 20.4073 42.4984 20.471 42.5479C20.5348 42.5973 20.6137 42.6233 20.6944 42.6213H20.8497C20.8988 42.6044 20.9439 42.5777 20.9822 42.5428C21.0206 42.5079 21.0515 42.4655 21.0729 42.4183C21.095 42.3714 21.1072 42.3205 21.109 42.2688C21.1108 42.217 21.102 42.1654 21.0833 42.1172C20.6553 40.8753 20.0724 39.3234 19.3335 36.9568C19.0584 36.5127 18.669 36.1508 18.2061 35.9089C19.1395 39.0133 19.8389 40.9145 20.3443 42.3499Z" fill="#0EBABA"/>
<path d="M25.0874 39.168C25.105 39.2469 25.1495 39.3172 25.2134 39.3668C25.2772 39.4164 25.3563 39.4422 25.4371 39.4398H25.5928C25.6662 39.4135 25.73 39.3659 25.7761 39.303C25.8221 39.2402 25.8484 39.165 25.8513 39.0871C25.853 39.0353 25.8444 38.9837 25.826 38.9353C25.7872 38.8965 24.1544 34.2016 23.7264 32.3395C23.5712 31.6022 23.5712 31.0589 23.8043 30.9037C23.9437 30.8176 24.1113 30.7898 24.271 30.8262L23.221 30.5935C23.1616 30.6103 23.1065 30.6397 23.0596 30.6798C23.0126 30.7199 22.975 30.7697 22.9492 30.8258C22.7891 31.3838 22.7891 31.9755 22.9492 32.5335C23.4155 34.4347 25.0096 38.974 25.0874 39.168ZM56.9269 37.616H57.0434C57.1266 37.6096 57.2065 37.581 57.2748 37.5333C57.3432 37.4855 57.3976 37.4204 57.4323 37.3446C58.0934 35.2885 59.2595 31.6022 59.6484 30.2443C59.8045 29.7272 59.8961 29.193 59.9206 28.6536C59.9364 28.4413 59.8847 28.2294 59.7729 28.0482C59.6612 27.867 59.495 27.7257 59.2982 27.6445C59.0118 27.5352 58.7104 27.4699 58.4044 27.4509C58.832 27.5284 58.9485 27.6445 59.0264 27.7606C59.1042 27.8776 59.2208 28.7697 58.8707 30.0116C58.521 31.2529 57.2379 35.4434 56.6937 37.1119C56.6552 37.1834 56.6431 37.2662 56.6594 37.3458C56.6758 37.4254 56.7196 37.4967 56.7832 37.5472C56.8252 37.5808 56.8744 37.6043 56.9269 37.616Z" fill="black"/>
<path d="M57.2772 44.0571C55.9554 44.0958 54.4392 44.2511 54.3613 44.2511C54.3098 44.2605 54.2608 44.28 54.217 44.3087C54.1733 44.3374 54.1357 44.3746 54.1066 44.418C54.0776 44.4614 54.0576 44.5102 54.0479 44.5615C54.0382 44.6128 54.0391 44.6656 54.0503 44.7165C54.0552 44.7626 54.0692 44.8071 54.0914 44.8477C54.1137 44.8883 54.1437 44.9242 54.1798 44.9531C54.2159 44.9821 54.2574 45.0036 54.302 45.0163C54.3465 45.029 54.3932 45.0327 54.4392 45.0271H54.4779C55.5746 44.8971 56.6782 44.8323 57.7826 44.8331H57.8214L57.2772 44.0571ZM49.191 20.8936L48.8409 20.1951C48.1091 20.7065 47.5094 21.3848 47.0915 22.1737C47.0647 22.2161 47.0474 22.2638 47.041 22.3135C47.0345 22.3632 47.039 22.4137 47.0541 22.4615C47.0688 22.5094 47.0937 22.5535 47.127 22.5909C47.1604 22.6283 47.2013 22.6581 47.2472 22.6783H47.4412C47.5102 22.6739 47.5774 22.6542 47.638 22.6208C47.6985 22.5873 47.7509 22.5408 47.7913 22.4847C48.1534 21.848 48.6431 21.293 49.2297 20.8545L49.191 20.8936Z" fill="#0EC2BC"/>
<path opacity="0.58" d="M47.4803 38.3533C47.2995 39.0839 46.9428 39.7592 46.4415 40.3205C45.9401 40.8818 45.3091 41.312 44.6035 41.5738C42.0378 42.5051 39.783 40.7591 39.0831 39.5952C38.3833 38.4312 38.4611 37.8879 39.4715 38.2372C43.0482 39.5565 44.6423 39.1293 46.1194 37.8101C46.6639 37.306 47.0528 36.8793 47.3638 36.918C47.6747 36.9567 47.7913 37.306 47.4803 38.3533Z" fill="#2AE5C4"/>
<path d="M19.917 9.48631C19.917 9.87429 20.1893 10.0683 20.6555 9.95215C20.956 9.87206 21.2329 9.72104 21.4629 9.51176C21.6929 9.30248 21.8693 9.04107 21.9774 8.74947C22.1331 8.12835 21.6277 7.89564 20.9665 8.20621C20.7064 8.3267 20.4769 8.50443 20.2952 8.72609C20.1135 8.94776 19.9842 9.20764 19.917 9.48631ZM37.3338 8.51634C37.2947 8.90475 37.6057 9.09875 38.0332 9.02089C38.3296 8.93238 38.6024 8.77834 38.8312 8.57015C39.06 8.36197 39.239 8.10498 39.3551 7.81822C39.5495 7.15838 39.0441 6.92568 38.3442 7.27495C38.0924 7.39128 37.8705 7.56359 37.6954 7.77872C37.5203 7.99386 37.3966 8.24615 37.3338 8.51634Z" fill="#2FFFDA"/>
</g>
<defs>
<linearGradient id="paint0_linear_331_2337" x1="64.3525" y1="59.3251" x2="48.1396" y2="44.1613" gradientUnits="userSpaceOnUse">
<stop offset="0.04" stop-color="#2AE5C4"/>
<stop offset="0.27" stop-color="#25DFC3"/>
<stop offset="0.56" stop-color="#19CFBF"/>
<stop offset="0.73" stop-color="#0EC2BC"/>
</linearGradient>
<linearGradient id="paint1_linear_331_2337" x1="29.1806" y1="15.799" x2="35.7493" y2="44.4546" gradientUnits="userSpaceOnUse">
<stop stop-color="#2AE5C4"/>
<stop offset="0.9" stop-color="#0EC2BC"/>
</linearGradient>
<clipPath id="clip0_331_2337">
<rect width="70" height="70" rx="35" fill="white"/>
</clipPath>
</defs>
</svg>
