<svg width="70" height="70" viewBox="0 0 70 70" fill="none" xmlns="http://www.w3.org/2000/svg">
<g clip-path="url(#clip0_331_2467)">
<rect width="70" height="70" rx="35" fill="#5865F2"/>
<path d="M50.7231 66.9633L6.43262 65.9243C6.60593 88.1384 7.25601 101.692 8.51277 121.525C8.59946 123.3 11.1563 123.256 19.7804 122.607C26.8876 122.087 26.6709 120.312 26.6276 119.749C26.5843 119.186 26.3243 117.194 26.0642 115.116C26.5843 106.066 27.2777 99.0937 28.4478 86.1465C28.4478 86.1465 31.8714 86.4062 34.3416 85.8867C34.2549 96.9286 34.2116 108.317 33.0848 118.796C32.7814 121.395 33.2581 121.784 40.8854 122.434C48.5128 123.083 48.5128 122.78 48.8163 119.966C50.7664 103.468 52.0229 87.5323 50.7231 66.9633Z" fill="#57F287"/>
<path d="M12.3697 69.9514C12.2893 69.9514 12.2121 69.9831 12.1553 70.04C12.0984 70.0969 12.0664 70.1739 12.0664 70.2545V116.242C12.0664 116.285 12.4131 120.269 12.7598 122.997H13.4532C13.0632 120.269 12.7164 116.242 12.7164 116.242V70.2545C12.7059 70.1704 12.6647 70.0929 12.6008 70.037C12.5369 69.9811 12.4547 69.9509 12.3697 69.9514Z" fill="#29CC7A"/>
<path d="M50.9829 71.4238L50.7231 66.9633L6.43262 65.9243C6.43262 67.0071 6.47596 68.0894 6.47596 69.1289C8.59946 72.939 22.0773 75.451 33.1282 75.5808C43.0958 75.6674 49.5528 73.5023 50.9829 71.4238Z" fill="black"/>
<path d="M20.9072 75.1046V69.9514" stroke="#57F287" stroke-width="0.485411" stroke-linecap="round" stroke-linejoin="round"/>
<path d="M10.5059 72.3329V67.1802" stroke="#57F287" stroke-width="0.485411" stroke-linecap="round" stroke-linejoin="round"/>
<path d="M45.9561 74.4116V69.2156" stroke="#57F287" stroke-width="0.485411" stroke-linecap="round" stroke-linejoin="round"/>
<path d="M13.7996 15.5203C10.9827 14.2213 7.9924 13.0954 7.38572 13.0088C6.77898 12.9222 6.77898 12.9222 7.38572 16.6029C7.9924 20.2836 8.85914 21.5827 13.7996 15.5203Z" fill="black"/>
<path d="M75.3381 52.4139C75.771 47.6073 73.5178 43.5369 69.834 40.2459C73.0844 30.1998 69.0975 23.3147 61.5135 21.5393L54.8828 49.6858C54.8828 57.1771 57.4395 59.5155 60.9935 61.8972C60.6466 69.8215 62.4669 77.1393 69.314 78.5251C76.1611 79.911 82.0548 72.6793 83.0953 61.4641C84.1353 50.2488 75.3381 52.4139 75.3381 52.4139Z" fill="url(#paint0_linear_331_2467)"/>
<path d="M64.374 40.4192C68.3609 42.7142 70.2244 46.6114 70.5713 48.1703" stroke="#FFC619" stroke-width="0.485411" stroke-miterlimit="10" stroke-linecap="round"/>
<path d="M73.215 52.717L64.8945 61.6373" stroke="#FFA20D" stroke-width="0.485411" stroke-miterlimit="10" stroke-linecap="round"/>
<path d="M13.7997 15.5205C35.4682 16.4299 43.4852 17.7722 61.5136 21.5395C63.8971 36.9552 58.3498 44.8795 52.8895 55.4453C53.3229 64.7988 53.7563 68.8692 47.7756 70.774C40.6249 73.0695 27.5375 72.9396 14.0597 69.735C1.57862 66.7907 3.57214 64.452 4.3522 53.2368C5.26227 39.8997 2.40202 24.5274 13.7997 15.5205Z" fill="white"/>
<path d="M26.1074 36.1755C31.7846 47.0444 41.5351 53.7563 50.2896 50.5519C59.0435 47.3476 40.4519 24.5705 26.1074 36.1755Z" fill="#8CD9FF"/>
<path d="M38.806 23.0551C47.2564 23.7046 48.6866 31.1526 44.4395 49.253C43.5298 53.1502 43.3995 53.6266 43.7463 54.8823C44.0931 56.1381 45.2197 59.1692 45.3929 62.8069C45.48 64.019 45.3496 64.9287 46.2164 64.9287C47.0833 64.9287 49.5967 64.9287 54.1473 63.3697C55.1007 63.0666 55.2739 62.8935 55.4038 54.1029C58.7841 50.1624 67.0618 39.1636 61.5144 21.5395C43.0531 17.0794 28.6217 15.5638 13.8005 15.5205C5.00307 19.5476 4.65638 30.5897 3.44296 50.119C2.96625 57.7836 1.01607 60.8148 8.51335 62.8502C16.0106 64.8854 24.7647 64.9287 27.2349 64.9287C29.7052 64.9287 29.7918 64.6251 29.7918 61.421C29.7484 59.2992 30.5719 44.3599 30.2685 36.6087C29.9652 28.8576 29.4884 22.319 38.806 23.0551Z" fill="black"/>
<path d="M30.2687 36.6086C30.442 41.5451 30.2253 49.3828 30.0087 55.0121C28.7085 50.3354 26.325 45.399 25.6749 43.9267C25.0249 42.4544 24.8515 42.0647 26.6283 40.246C23.1614 38.4706 22.9447 38.6871 23.8548 36.3488C24.7648 34.0105 26.325 28.4678 30.962 25.0036C31.5554 24.5914 32.215 24.2839 32.9122 24.0942C29.7053 26.216 30.0087 31.1092 30.2687 36.6086Z" fill="#5865F2"/>
<path d="M44.6128 24.5705L43.3125 24.4839C47.6029 27.4284 47.7761 35.0929 44.4391 49.2528C43.6593 52.5871 43.4424 53.4098 43.616 54.3625C44.7426 52.5871 48.7295 47.2176 50.1163 45.2256C51.5031 43.2338 50.5064 43.2338 49.2062 40.5923C52.2834 39.25 52.9766 39.25 52.7168 37.9076C52.4566 36.5652 50.7667 30.8493 44.6128 24.5705Z" fill="#5865F2"/>
<path d="M50.5932 32.8848C50.42 29.7237 48.5998 26.9524 45.8261 25.0904L45.6962 23.8346C45.1762 19.028 43.0962 15.2607 37.5922 15.2607C32.0886 15.2607 30.3117 18.5517 29.9651 23.6614C29.9651 24.0078 29.9217 24.3543 29.9217 24.7006C26.8015 26.5627 24.8513 29.5938 24.7213 33.058C24.5479 38.9471 30.8751 42.7144 37.9823 42.7144C45.0897 42.7144 50.94 38.7739 50.5932 32.8848Z" fill="#FFE75C"/>
<path d="M43.442 21.2362C44.1356 23.0982 45.7389 24.4839 46.8655 23.4879C47.9926 22.492 46.3888 20.5867 44.7422 18.8546C46.0858 18.9412 47.0825 17.8586 45.7822 16.906C44.482 15.9533 42.185 14.9141 37.6782 14.9141C33.1712 14.9141 30.9176 17.5122 29.1842 19.7206C27.4507 21.929 27.4507 23.1415 28.2741 23.8343C29.0975 24.5272 32.0877 24.1375 33.5612 21.0197C33.9512 22.1456 34.7313 22.7951 36.1614 22.6219C37.5916 22.4486 38.5883 20.9331 38.8047 19.5474C39.8885 21.6692 40.322 22.7518 41.7954 22.8817C43.2688 23.0116 43.3554 22.059 43.442 21.2362Z" fill="#EB459F"/>
<path d="M38.2418 15.2608C38.1552 13.0091 38.4155 11.6667 39.022 11.6667C39.6286 11.6667 39.4988 12.8792 38.8922 14.7845C40.7557 12.8359 41.5355 12.7493 41.7957 13.0524C42.0555 13.3555 41.9689 14.2649 38.2418 15.2608Z" fill="#EB459F"/>
<path d="M42.5755 25.0036C43.7021 25.0469 44.1355 25.4799 44.0489 26.5625C43.9855 26.9715 43.7736 27.3431 43.4539 27.6065C43.1348 27.8699 42.7291 28.0069 42.3153 27.9914C41.8219 28.0214 41.3342 27.871 40.9435 27.5682C40.5529 27.2655 40.2856 26.831 40.192 26.346C40.0183 25.7397 39.7153 25.6531 39.4983 25.6531C39.2818 25.6531 38.9783 25.783 38.7618 26.3026C38.6138 26.782 38.3038 27.1952 37.8849 27.4716C37.4661 27.7481 36.9642 27.8706 36.4649 27.8182C36.2565 27.824 36.0486 27.788 35.8543 27.7122C35.66 27.6364 35.4828 27.5226 35.3335 27.3772C35.184 27.2319 35.0652 27.0581 34.9841 26.8661C34.903 26.6741 34.8612 26.4677 34.8613 26.2593C34.9047 25.1768 35.4249 24.8736 36.5082 24.8304C38.7186 24.7871 41.2753 24.8736 42.5755 25.0036Z" fill="black"/>
<path d="M31.3512 28.2947C31.0847 28.6837 30.9421 29.1441 30.9421 29.6154C30.9421 30.0868 31.0847 30.5472 31.3512 30.9362C32.3046 32.1486 33.6914 31.8888 34.8614 31.2826C34.5581 32.4084 34.6448 33.924 36.2048 34.4869C37.7648 35.0499 38.9785 34.3571 39.802 33.1446C40.0618 34.0539 40.7121 34.8334 42.0119 34.5303C42.2928 34.4476 42.552 34.3042 42.7715 34.1101C42.9905 33.9161 43.1641 33.6762 43.2799 33.4075C43.3957 33.1388 43.4511 32.8479 43.4415 32.5555C43.4319 32.2631 43.3585 31.9763 43.2256 31.7156C43.8321 32.1053 44.8721 32.6249 45.7823 31.9321C46.6924 31.2393 46.6491 30.1567 46.0858 29.2041C47.7757 29.2907 47.9927 28.0782 47.7757 27.4287C47.5592 26.7791 46.6924 26.3028 45.4792 26.9524C44.2656 27.6019 41.3187 29.5072 39.6716 30.5032L32.3479 26.3461C30.6578 25.3502 29.9644 25.8698 29.7044 26.4327C29.4443 26.9956 29.4443 28.338 31.3512 28.2947Z" fill="#EB459F"/>
<path d="M35.252 37.6047C36.2923 38.8605 39.8457 39.7266 42.3591 37.6047" stroke="#FFC619" stroke-width="0.485411" stroke-miterlimit="10" stroke-linecap="round"/>
<path d="M65.3709 37.7777L68.2745 35.3961C68.8811 34.7899 68.578 34.4001 68.0142 33.7939C67.451 33.1877 65.5008 31.0659 64.8942 30.5462C64.2877 30.0266 64.3309 29.8967 64.634 29.5503C66.3677 27.1687 67.1041 26.1727 67.1041 25.8696C67.1041 25.5665 66.2378 25.0902 64.5041 24.0942C64.4608 24.0942 64.4608 24.0509 64.4608 24.0076C65.8044 22.1889 67.2778 20.4568 67.0175 20.2403C66.7578 20.0238 64.6773 20.5867 61.514 21.5393L55.5332 52.1541L58.3502 52.847C59.1304 53.0635 59.217 53.0635 59.3036 52.6304C59.3902 52.1974 59.5638 50.5952 59.6071 50.2488C59.6504 49.9024 59.7803 49.9024 60.257 49.9457L63.074 50.422C64.1573 50.5952 64.4175 50.7251 64.2006 49.9457C63.9841 49.1662 63.1606 47.0877 62.9874 46.6547C62.8142 46.2217 62.6839 46.0052 63.1606 45.832C63.6373 45.6588 65.2411 45.0525 66.4975 44.4896C67.7545 43.9266 67.6246 43.5803 67.3644 42.8874C66.8132 41.6326 66.1759 40.4173 65.4575 39.25C64.8942 38.3407 64.8509 38.254 65.3709 37.7777Z" fill="black"/>
<path d="M13.8001 15.5204C4.48263 15.2606 -4.01141 19.2011 -3.14468 33.794C-8.47512 37.085 -10.2953 41.4152 -8.90849 48.8199C-13.0688 52.847 -16.5358 58.1299 -13.8056 64.3653C-11.0753 70.6008 -2.92797 69.6917 4.04926 69.1289L14.0601 57.0906C11.7199 56.0514 8.98968 55.6617 6.38947 54.7956C11.8499 52.0243 14.1034 47.8672 13.8001 41.1987C19.9539 34.4436 20.2572 21.7559 13.8001 15.5204Z" fill="url(#paint1_linear_331_2467)"/>
<path d="M8.98926 39.813C9.72597 41.5451 9.37928 44.0999 8.98926 45.2258" stroke="#FFB012" stroke-width="0.485411" stroke-miterlimit="10" stroke-linecap="round"/>
<path d="M-5.39844 50.6819C-1.41642 51.1408 2.49692 52.0711 6.25916 53.4532" stroke="#FFA20D" stroke-width="0.485411" stroke-miterlimit="10" stroke-linecap="round"/>
<path d="M15.1001 41.5449L11.9365 40.8088C11.5031 40.6789 11.4598 40.549 11.9365 40.116L14.7534 37.3879C15.1001 37.0415 15.1001 36.9549 14.5801 36.3486L11.5898 33.2309C11.1998 32.8412 11.1998 32.7545 11.5898 32.1916C11.9799 31.6287 14.2334 28.9006 14.6234 28.4243C15.0134 27.948 14.9701 27.6882 14.3634 27.2985C13.7567 26.9087 11.0264 25.1767 10.1597 24.657C9.29296 24.1374 9.24962 24.0075 9.68299 23.4879L12.4132 20.2835C12.8032 19.8505 12.8032 19.6772 12.0665 18.9411C11.3298 18.205 7.90617 14.481 6.99609 13.052L13.8 15.5202L22.2941 19.7205L20.6906 38.5571L15.1001 41.5449Z" fill="black"/>
<path d="M19.4776 31.3257C18.8709 37.9509 15.4473 47.7372 15.4473 47.7372" stroke="#0C1AAD" stroke-width="0.485411" stroke-linecap="round" stroke-linejoin="round"/>
<path d="M81.0156 45.3123C83.009 46.9144 85.1756 47.6939 86.4326 46.1783C87.6895 44.6627 86.0424 43.2338 84.3093 41.5016C83.0523 36.7817 80.4523 36.4786 78.3718 37.1714C76.2918 37.8643 75.5115 40.8088 75.5115 44.5328C72.1746 48.7764 69.7477 52.5438 73.2151 56.7874C79.9756 56.5709 81.7954 50.292 81.0156 45.3123Z" fill="#FFE75C"/>
<path d="M1.05936 53.4966C2.35946 49.7293 3.87628 49.5994 8.42662 48.3869C12.977 47.1745 14.7105 47.824 17.4841 49.0797C20.2576 50.3355 20.0409 52.1543 19.8676 53.6265C19.6942 55.0988 19.4342 55.7916 17.5707 56.9608C19.2609 59.2125 19.6942 60.3384 17.0073 63.9757C17.7874 67.4833 17.5274 69.8216 13.8437 70.6008C10.1601 71.3806 4.82965 72.0299 2.1861 69.3021C-1.58419 65.3182 -2.79761 64.842 1.05936 53.4966Z" fill="#FFE75C"/>
<path d="M64.8076 59.9922C65.4444 59.811 66.0978 59.6949 66.7577 59.6455" stroke="#FFA20D" stroke-width="0.485411" stroke-miterlimit="10" stroke-linecap="round"/>
<path d="M9.50966 65.3181C2.35906 67.2235 -0.197809 66.6602 -0.93457 65.3181C-0.414519 66.7035 0.668927 67.6997 2.18569 69.302C4.82924 72.0298 10.1163 71.3372 13.8433 70.6007C17.5703 69.8648 17.787 67.4832 17.0069 63.9756C19.6938 60.3383 19.2605 59.2124 17.5703 56.9607C19.4338 55.7915 19.7372 55.0987 19.8671 53.6264C19.9972 52.1541 20.2572 50.2921 17.4836 49.0797C16.3844 48.5296 15.2193 48.1222 14.0167 47.8672C15.4468 48.127 15.6201 48.9498 16.0102 50.6818C16.4002 52.414 15.4901 54.0161 12.2832 56.1812C15.6635 61.9837 11.6332 64.7554 9.50966 65.3181Z" fill="#FFC619"/>
<path d="M18.2207 57.0904C16.7039 56.5275 14.3203 55.9646 14.3203 55.9646" stroke="black" stroke-width="0.485411" stroke-linecap="round" stroke-linejoin="round"/>
<path d="M17.8739 63.9757C16.3138 63.4562 13.9736 62.8501 13.9736 62.8501" stroke="black" stroke-width="0.485411" stroke-linecap="round" stroke-linejoin="round"/>
<path d="M0.799285 51.8076C0.0242664 51.0859 -0.801243 50.4202 -1.6709 49.8157" stroke="#FFA20D" stroke-width="0.485411" stroke-miterlimit="10" stroke-linecap="round"/>
<path d="M59.7803 29.9399C60.0325 37.8763 58.5848 45.7749 55.5332 53.1067" stroke="#0C1AAD" stroke-width="0.485411" stroke-linecap="round" stroke-linejoin="round"/>
<path d="M44.2656 27.6882L43.4854 28.1646C44.5384 28.476 45.5135 29.0074 46.3456 29.7234L46.0859 29.2038H46.7357C45.9922 28.579 45.1596 28.0682 44.2656 27.6882Z" fill="#D11583"/>
<path d="M34.8615 31.2824C34.8115 31.4514 34.7824 31.6259 34.7748 31.802C35.4608 30.8032 36.2607 29.8877 37.1582 29.074L36.5517 28.7275C35.5998 29.5896 34.7556 30.5638 34.0381 31.6288L34.8615 31.2824Z" fill="#D11583"/>
<path d="M43.3989 32.4947C43.4044 32.2248 43.345 31.9575 43.2257 31.7153C43.4668 31.8792 43.7296 32.0102 44.0054 32.105C43.3193 31.0794 42.5355 30.1223 41.6652 29.2471L41.0586 29.6368C41.9516 30.4915 42.7374 31.4511 43.3989 32.4947Z" fill="#D11583"/>
<path d="M39.2822 30.2866V33.7075L39.7589 33.1446C39.8047 33.3551 39.8777 33.5589 39.9754 33.7508V30.2866L39.6724 30.5031L39.2822 30.2866Z" fill="#D11583"/>
<path d="M30.6143 28.2513C30.855 28.3114 31.1049 28.3261 31.351 28.2946C31.2392 28.4383 31.1514 28.5992 31.091 28.7709C31.8909 28.1234 32.7634 27.5712 33.6912 27.1254L32.9978 26.6924C32.1614 27.1451 31.3642 27.6665 30.6143 28.2513Z" fill="#D11583"/>
<path d="M36.2924 27.8182L38.1987 24.8303H36.5954L35.1221 27.1253C35.262 27.3119 35.4371 27.4692 35.638 27.588C35.8388 27.7069 36.0613 27.7851 36.2924 27.8182Z" fill="#8CD9FF"/>
<path d="M41.9261 24.9602H41.1458L40.1924 26.4325C40.2639 26.6891 40.3656 26.9363 40.4959 27.1686L41.9261 24.9602Z" fill="#8CD9FF"/>
<path d="M43.0519 25.0469L41.2754 27.7749C41.6021 27.9216 41.957 27.9955 42.3154 27.9915H42.4453L43.9187 25.6531C43.8417 25.4838 43.7209 25.3383 43.5683 25.2317C43.4158 25.1251 43.2376 25.0612 43.0519 25.0469Z" fill="#8CD9FF"/>
<path d="M37.678 25.0468C39.5849 25.0468 41.4917 25.1334 42.5755 25.22C43.6588 25.3066 43.9186 25.6098 43.832 26.5191C43.7454 27.4285 43.1388 27.7748 42.272 27.7748C41.831 27.7948 41.3976 27.6578 41.0482 27.3881C40.6989 27.1185 40.4573 26.7338 40.3651 26.3026C40.2353 25.7396 39.9317 25.4366 39.4983 25.4366C39.0649 25.4366 38.7618 25.6964 38.5449 26.2593C38.4291 26.6589 38.1824 27.0082 37.8447 27.2515C37.5069 27.4948 37.0976 27.6181 36.6813 27.6017H36.4649C36.2847 27.6075 36.1055 27.577 35.9373 27.5122C35.7692 27.4473 35.6162 27.3494 35.4868 27.2241C35.3573 27.0989 35.2545 26.9489 35.1843 26.7832C35.114 26.6175 35.0779 26.4393 35.078 26.2593C35.1213 25.3499 35.4682 25.0901 36.5082 25.0468H37.678ZM37.678 24.8303H36.5082C35.4249 24.8736 34.9047 25.1768 34.8613 26.2593C34.8612 26.4677 34.903 26.674 34.9841 26.866C35.0652 27.058 35.184 27.2318 35.3335 27.3772C35.4828 27.5225 35.66 27.6364 35.8543 27.7122C36.0486 27.7879 36.2565 27.824 36.4649 27.8182H36.6813C37.1465 27.828 37.602 27.6851 37.9776 27.4113C38.3536 27.1375 38.6289 26.748 38.7618 26.3026C38.9783 25.783 39.2385 25.6531 39.4983 25.6531C39.7586 25.6531 40.0183 25.7396 40.192 26.3459C40.2846 26.8232 40.5454 27.2516 40.9269 27.5535C41.3085 27.8553 41.7857 28.0106 42.272 27.9914H42.3153C42.7291 28.0069 43.1348 27.8699 43.4539 27.6065C43.7736 27.343 43.9855 26.9715 44.0489 26.5624C44.1355 25.4798 43.7021 25.0468 42.5755 25.0035C41.4484 24.9602 39.5416 24.8303 37.678 24.8303Z" fill="black"/>
<path d="M41.2761 15.1741C42.966 15.4339 43.2695 16.8629 42.0126 16.3432C40.7561 15.8236 39.3693 15.6937 38.1994 17.1227C37.029 18.5517 35.469 18.3351 35.2956 16.733C35.1222 15.1308 34.1688 15.4339 32.8254 16.2133C32.4116 16.4522 32.02 16.7275 31.6553 17.036C33.6921 15.3906 34.7322 15.8669 34.2988 17.2959C33.8655 18.7249 34.6455 19.8074 35.989 19.8507C37.3325 19.894 38.7194 18.9414 39.5424 17.7722C40.366 16.603 41.4926 16.9495 42.6197 17.4258C43.7462 17.9021 44.8728 16.2566 42.7928 15.5205L41.2761 15.1741Z" fill="#FF78B9"/>
</g>
<defs>
<linearGradient id="paint0_linear_331_2467" x1="5338.36" y1="4635.7" x2="7516.08" y2="6611.86" gradientUnits="userSpaceOnUse">
<stop stop-color="#FFE75C"/>
<stop offset="1" stop-color="#FFC619"/>
</linearGradient>
<linearGradient id="paint1_linear_331_2467" x1="1123" y1="2953.75" x2="2601.31" y2="4708.06" gradientUnits="userSpaceOnUse">
<stop stop-color="#FFE75C"/>
<stop offset="1" stop-color="#FFC619"/>
</linearGradient>
<clipPath id="clip0_331_2467">
<rect width="70" height="70" rx="35" fill="white"/>
</clipPath>
</defs>
</svg>
