<svg width="70" height="70" viewBox="0 0 70 70" fill="none" xmlns="http://www.w3.org/2000/svg">
<g clip-path="url(#clip0_331_2593)">
<rect width="70" height="70" rx="35" fill="#7194FD"/>
<path d="M63.1716 49.538C59.2942 47.9416 55.3059 46.6274 51.2388 45.6069C53.7586 42.8517 56.0545 39.8988 58.1046 36.7779C64.9383 26.4336 68.1038 16.463 65.1314 14.5077C62.158 12.5525 54.2455 19.353 47.4129 29.6974C43.9331 34.9689 41.4133 40.1411 40.1597 44.2128C39.9666 44.2128 39.7803 44.2128 39.5929 44.2528C37.3337 40.0702 34.5533 36.1905 31.3204 32.7063C23.6811 24.2509 15.5354 19.1725 13.1219 21.362C10.7084 23.5504 14.948 32.1657 22.5749 40.6153C25.017 43.3488 27.6933 45.8629 30.5742 48.1302C27.8076 50.5688 25.4752 53.4589 23.6742 56.6792C19.0083 64.8008 18.0278 73.0356 21.5475 75.072C25.0672 77.1073 31.7273 72.1819 36.4206 64.0603C38.1827 61.0788 39.4706 57.8414 40.2397 54.4634C44.2394 57.6528 50.2389 61.064 57.2852 63.9335C71.1835 69.6119 83.7631 71.0003 85.3824 67.0235C87.0028 63.0455 77.063 55.2176 63.1716 49.538Z" fill="#D4E4FF" fill-opacity="0.5"/>
<path d="M35.6942 58.8082C35.4382 58.8082 35.1879 58.7339 34.9731 58.5956C34.7571 58.4574 34.5868 58.2597 34.4805 58.0265C32.4087 53.4486 31.3711 48.4707 31.4408 43.4449C31.4408 43.0906 31.5813 42.7512 31.8316 42.5009C32.0807 42.2507 32.4201 42.1101 32.7744 42.1101H32.8075C32.9824 42.1147 33.1549 42.1535 33.3149 42.2244C33.4749 42.2952 33.62 42.3981 33.74 42.5249C33.8612 42.6518 33.956 42.8015 34.0189 42.9649C34.0817 43.1283 34.1114 43.3032 34.1069 43.478C34.0463 48.0993 35.0051 52.6773 36.9135 56.8861C36.9866 57.046 37.0266 57.2186 37.0323 57.3934C37.0381 57.5694 37.0083 57.7443 36.9466 57.9088C36.8849 58.0734 36.7912 58.2231 36.6712 58.3511C36.5512 58.4791 36.4072 58.5819 36.2473 58.6539C36.0758 58.7453 35.8873 58.7979 35.6942 58.8082Z" fill="#61D5B2"/>
<path d="M42.506 44.8926C42.3209 44.7452 42.1221 44.6161 41.9129 44.5064L42.1861 43.9921C42.7723 42.9099 42.9746 41.6609 42.7597 40.4496C42.546 39.2371 41.9278 38.1332 41.0067 37.3184C40.4593 36.8578 39.8251 36.5139 39.1417 36.3059C38.4572 36.099 37.7384 36.0328 37.0288 36.1128C36.318 36.1916 35.6323 36.4145 35.0106 36.7676C34.389 37.1207 33.8462 37.5961 33.4142 38.1663C32.6908 39.1651 32.3297 40.381 32.3891 41.614C32.4486 42.8459 32.9251 44.0218 33.7399 44.9463L34.0141 45.2732C34.8655 46.3154 35.4026 47.5804 35.5603 48.9174L38.9532 71.0539C41.1381 71.6642 43.4214 71.8299 45.6715 71.543C47.9205 71.2562 50.0906 70.5214 52.0527 69.3832C54.0148 68.245 55.729 66.7251 57.0957 64.9139C58.4625 63.1026 59.4544 61.0353 60.0121 58.8344L42.506 44.8926Z" fill="#51BC9D"/>
<path d="M42.3666 44.8001C42.2203 44.6938 42.0695 44.5966 41.9129 44.5064L42.1861 43.9921C42.7723 42.9099 42.9746 41.6609 42.7597 40.4496C42.546 39.2371 41.9278 38.1332 41.0067 37.3184C40.4593 36.8578 39.8251 36.5139 39.1417 36.3059C38.4572 36.099 37.7384 36.0328 37.0288 36.1128C36.318 36.1916 35.6323 36.4145 35.0106 36.7676C34.389 37.1207 33.8462 37.5961 33.4142 38.1663C32.6908 39.1651 32.3297 40.381 32.3891 41.614C32.4486 42.8459 32.9251 44.0218 33.7399 44.9463L34.0141 45.2732C34.2141 45.5097 34.3947 45.7611 34.5535 46.0274C35.862 46.4422 37.2482 46.5485 38.6046 46.3348C39.9599 46.1222 41.2478 45.5966 42.3666 44.8001Z" fill="#299F7B"/>
<path d="M36.0401 57.8666C35.7429 57.8655 35.4538 57.7649 35.2207 57.5798C35.0824 57.4712 34.967 57.3375 34.8813 57.1844C34.7945 57.0324 34.7396 56.8633 34.719 56.6896C34.6973 56.5147 34.711 56.3387 34.7579 56.1696C34.8059 56.0005 34.8859 55.8428 34.9933 55.7045C35.047 55.6382 40.6066 48.4765 41.8396 42.2702C41.8682 42.093 41.931 41.9228 42.027 41.7708C42.1219 41.6188 42.2464 41.4862 42.3938 41.3834C42.5413 41.2817 42.7081 41.2097 42.8841 41.172C43.0589 41.1354 43.2406 41.1342 43.4166 41.1697C43.5926 41.2051 43.7606 41.2748 43.908 41.3765C44.0566 41.4782 44.1834 41.6085 44.2794 41.7593C44.3765 41.9113 44.4417 42.0805 44.4714 42.2576C44.5011 42.4347 44.4954 42.6164 44.4531 42.7913C43.1195 49.6318 37.3405 57.0392 37.12 57.3535C36.992 57.5169 36.8286 57.6483 36.6412 57.7386C36.4537 57.8278 36.248 57.8712 36.0401 57.8666Z" fill="#61D5B2"/>
<path d="M30.121 25.6462L30.2741 25.4988C33.0785 22.867 34.7412 19.2399 34.9069 15.3956L35.0943 11.1903C35.1229 10.9548 35.2337 10.7366 35.4074 10.5743C35.58 10.4109 35.804 10.3137 36.0417 10.2989C36.2782 10.284 36.5125 10.3515 36.7056 10.492C36.8976 10.6314 37.0347 10.8337 37.0942 11.0634L37.8072 15.2082C38.4621 19.001 40.5727 22.3871 43.6868 24.6452L43.8593 24.772C45.0078 25.5868 46.2591 26.2462 47.579 26.7341C48.9732 27.2575 50.1868 28.174 51.0725 29.3716C51.9592 30.5704 52.4792 32 52.5729 33.4879C52.638 34.5027 52.5021 35.5209 52.1741 36.4842C51.845 37.4476 51.3307 38.3366 50.6588 39.1C49.9868 39.8634 49.1709 40.4873 48.259 40.9353C47.3459 41.3832 46.354 41.6461 45.3392 41.7101L30.7941 42.6174C28.7474 42.7511 26.7316 42.0655 25.1911 40.7113C23.6495 39.3571 22.709 37.4453 22.5753 35.3963C22.4805 33.9084 22.8153 32.4263 23.5398 31.1246C24.2643 29.8219 25.3477 28.7568 26.6607 28.0552C27.9166 27.4107 29.0811 26.6004 30.121 25.6462Z" fill="#61D7B4"/>
<path d="M30.121 25.6462L30.2741 25.4988C33.0785 22.867 34.7412 19.2399 34.9069 15.3956L35.0943 11.1903C35.1229 10.9548 35.2337 10.7366 35.4074 10.5743C35.58 10.4109 35.804 10.3137 36.0417 10.2989C36.2782 10.284 36.5125 10.3515 36.7056 10.492C36.8976 10.6314 37.0347 10.8337 37.0942 11.0634L37.8072 15.2082C38.4621 19.001 40.5727 22.3871 43.6868 24.6452L43.8593 24.772C45.0078 25.5868 46.2591 26.2462 47.579 26.7341C48.9732 27.2575 50.1868 28.174 51.0725 29.3716C51.9592 30.5704 52.4792 32 52.5729 33.4879C52.638 34.5027 52.5021 35.5209 52.1741 36.4842C51.845 37.4476 51.3307 38.3366 50.6588 39.1C49.9868 39.8634 49.1709 40.4873 48.259 40.9353C47.3459 41.3832 46.354 41.6461 45.3392 41.7101L30.7941 42.6174C28.7474 42.7511 26.7316 42.0655 25.1911 40.7113C23.6495 39.3571 22.709 37.4453 22.5753 35.3963C22.4805 33.9084 22.8153 32.4263 23.5398 31.1246C24.2643 29.8219 25.3477 28.7568 26.6607 28.0552C27.9166 27.4107 29.0811 26.6004 30.121 25.6462Z" fill="#61D7B4"/>
<path d="M37.8265 15.2082C38.1556 17.1041 38.8516 18.9176 39.8732 20.5472C39.1555 20.9552 38.527 21.5026 38.0231 22.1574C37.5202 22.811 37.1511 23.5595 36.9409 24.3583C36.6323 23.5915 36.1741 22.8956 35.5924 22.3094C35.0107 21.7243 34.3171 21.2603 33.5537 20.9472C34.3605 19.2033 34.8142 17.3166 34.8873 15.3956L35.0736 11.1903C35.1033 10.9548 35.2141 10.7366 35.3867 10.5743C35.5604 10.4109 35.7844 10.3137 36.0209 10.2989C36.2586 10.284 36.4929 10.3515 36.6849 10.492C36.8769 10.6314 37.014 10.8337 37.0734 11.0634L37.8265 15.2082Z" fill="#A5F7DE"/>
<path d="M40.3998 37.8052C40.3621 37.275 40.4295 36.7436 40.5987 36.2408C40.7689 35.7368 41.0363 35.2717 41.3872 34.8729C41.7368 34.4752 42.1631 34.1495 42.6408 33.9175C43.1184 33.6856 43.6361 33.5507 44.1664 33.521C44.2315 34.5883 43.8727 35.6385 43.1664 36.4419C42.4614 37.2453 41.466 37.7355 40.3998 37.8052Z" fill="#4CBC9C"/>
<path d="M29.4946 38.4932C29.4649 37.9652 29.33 37.4487 29.1003 36.9721C28.8695 36.4967 28.5484 36.0705 28.153 35.7208C27.7576 35.37 27.2959 35.1014 26.7965 34.93C26.2971 34.7586 25.768 34.6877 25.2412 34.722C25.2709 35.25 25.4046 35.7665 25.6355 36.243C25.8652 36.7184 26.1874 37.1447 26.5828 37.4944C26.9782 37.8452 27.4387 38.1138 27.9393 38.2852C28.4387 38.4566 28.9666 38.5274 29.4946 38.4932Z" fill="#4CBC9C"/>
<path d="M37.4136 12.8061C37.3587 11.0074 36.5942 9.3047 35.2869 8.07051C33.9796 6.83747 32.2369 6.17352 30.4404 6.22495C30.4941 8.02366 31.2586 9.72638 32.5671 10.9606C33.8744 12.1936 35.6172 12.8576 37.4136 12.8061Z" fill="#61D7B4"/>
<path d="M38.6531 33.8479C39.3262 33.8479 39.8724 33.3016 39.8724 32.6274C39.8724 31.952 39.3262 31.4058 38.6531 31.4058C37.9789 31.4058 37.4326 31.952 37.4326 32.6274C37.4326 33.3016 37.9789 33.8479 38.6531 33.8479Z" fill="#202225"/>
<path d="M31.4996 34.5222C32.1738 34.5222 32.7201 33.9759 32.7201 33.3006C32.7201 32.6263 32.1738 32.0801 31.4996 32.0801C30.8265 32.0801 30.2803 32.6263 30.2803 33.3006C30.2803 33.9759 30.8265 34.5222 31.4996 34.5222Z" fill="#202225"/>
<path d="M34.0938 36.4773C34.1177 36.8007 34.2697 37.1001 34.5154 37.3115C34.7611 37.5229 35.08 37.6269 35.4034 37.6018C35.7256 37.5778 36.025 37.4246 36.2364 37.1789C36.4467 36.9332 36.5507 36.6133 36.5267 36.291L34.0938 36.4773Z" fill="white"/>
</g>
<defs>
<clipPath id="clip0_331_2593">
<rect width="70" height="70" rx="35" fill="white"/>
</clipPath>
</defs>
</svg>
