<svg width="150" height="150" viewBox="0 0 150 150" fill="none" xmlns="http://www.w3.org/2000/svg">
<g clip-path="url(#clip0_495_2583)">
<rect width="150" height="150" rx="75" fill="#EB459F"/>
<path d="M113.105 165.701C125.725 164.018 128.401 163.768 131.192 163.403C133.985 163.038 135.059 156.55 136.31 148.263C137.559 139.977 136.086 125.006 136.086 125.006L117.438 130.554L113.105 165.701Z" fill="#FF78B9"/>
<path d="M163.174 119.54C155.517 110.916 116.491 80.9399 116.491 80.9399L107.299 94.1476C107.299 94.1476 120.243 108.401 129.522 118.047C110.7 119.546 76.7565 124.008 76.7565 124.008C52.6751 119.181 40.0149 118.296 40.0149 118.296L67.2933 93.4299L58.1492 79.9121C58.1492 79.9121 34.5745 94.3691 21.2321 104.772C7.89152 115.174 5.80221 128.008 18.3879 137.843C30.9718 147.677 35.2834 150.489 35.2834 150.489L116.633 158.876C140.486 152.286 154.727 145.061 163.364 137.56C171.271 130.712 170.832 128.164 163.174 119.54Z" fill="#FFC619"/>
<path d="M36.3314 118.669C36.2251 118.669 36.1206 118.653 36.0196 118.621C35.9664 118.621 31.0593 117.209 28.3019 116.748C28.0112 116.686 27.7578 116.516 27.5912 116.271C27.4247 116.027 27.3591 115.727 27.4088 115.437C27.4566 115.144 27.6161 114.882 27.8535 114.705C28.091 114.527 28.3852 114.449 28.6793 114.485C31.5591 114.97 36.4395 116.356 36.6486 116.417C36.9127 116.496 37.1394 116.666 37.2883 116.899C37.4372 117.129 37.4975 117.407 37.4603 117.68C37.4213 117.953 37.2866 118.203 37.0792 118.384C36.8719 118.564 36.6061 118.665 36.3314 118.669Z" fill="black"/>
<path d="M111.576 76.7627L103.393 90.3691C103.393 90.3691 110.942 98.1541 112.537 99.8908C115.592 96.4723 118.518 90.6048 117.687 81.831C114.261 79.0682 111.576 76.7627 111.576 76.7627Z" fill="black"/>
<path d="M58.7782 136.391C47.7467 122.941 43.8073 116.999 41.5637 110.242C39.921 105.287 49.673 108.342 62.3597 112.079C75.0463 115.817 72.957 119.446 58.7782 136.391Z" fill="#FF78B9"/>
<path d="M42.991 116.559C31.3392 129.5 31.0893 145.439 32.3865 167.498C32.3865 167.498 12.4147 187.619 15.2323 205.213C18.0518 222.807 45.4118 230.289 76.502 229.991C101.509 229.748 104.328 223.806 106.579 212.053C108.051 204.362 109.072 195.48 109.721 188.613C110.424 181.39 112.248 174.323 115.127 167.662C130.451 131.974 118.115 119.1 118.115 119.1L76.603 122.479L42.991 116.559Z" fill="#FF78B9"/>
<path d="M52.1302 98.0271C42.3162 105.252 44.4126 116.207 58.2139 131.435L64.3508 137.586L104.41 130.989C117.251 115.052 114.697 104.428 110.033 97.7436C116.549 86.9283 117.001 79.4942 116.933 72.8629C116.825 61.5833 106.634 43.9559 80.9291 44.2058C66.8583 44.3404 54.4818 49.7897 50.0355 67.5447C48.4938 73.8429 48.0472 83.866 52.1302 98.0271Z" fill="#FFE75C"/>
<path d="M101.644 58.7637C101.956 58.7619 102.266 58.8258 102.553 58.9498C102.84 59.0756 103.099 59.2582 103.312 59.4885C103.523 59.7189 103.684 59.9918 103.785 60.2877C103.886 60.5855 103.923 60.8991 103.895 61.211L102.488 76.703C102.094 80.1817 100.459 83.4016 97.8837 85.7745C95.3071 88.1456 91.9631 89.5102 88.4631 89.6183H85.3477C81.7042 89.652 78.1724 88.3512 75.422 85.9606C72.6717 83.57 70.8924 80.2543 70.4174 76.641L69.7423 71.5053C69.6643 70.8957 69.3648 70.3357 68.9023 69.9317C68.438 69.5276 67.8426 69.3079 67.2276 69.315C66.6056 69.3221 66.0084 69.5595 65.5512 69.9813C65.0958 70.4048 64.8105 70.9808 64.7537 71.5993L64.0042 79.8928C63.7543 82.6166 62.5014 85.1507 60.49 87.0044C58.4786 88.8563 55.8506 89.8965 53.1144 89.9231C51.4876 89.9709 49.8696 89.6714 48.3668 89.0423C46.8659 88.4132 45.5173 87.4687 44.4097 86.276C43.3039 85.0816 42.4657 83.6639 41.9517 82.1186C41.4396 80.5733 41.2641 78.9359 41.436 77.3179L42.8627 61.6842C42.9176 61.048 43.2083 60.4543 43.6796 60.0201C44.1493 59.586 44.7641 59.3432 45.4039 59.3397L101.644 58.7637Z" fill="black"/>
<path d="M103.174 59.3662L116.968 72.8628L116.995 75.6609L103.241 66.0649L103.174 59.3662Z" fill="black"/>
<path d="M118.111 119.052C111.725 112.968 103.241 107.561 95.7399 104.972C88.2367 102.385 86.5195 101.594 84.8111 105.913C83.101 110.232 81.2952 115.024 80.5191 116.537C79.7411 118.05 71.7719 123.702 66.778 127.852C61.7824 132.001 56.6396 140.794 56.6396 140.794L109.034 144.755L118.111 119.052Z" fill="#FF78B9"/>
<path d="M129.325 117.87L136.084 125.028C133.029 134.673 131.009 146.657 129.92 160.066L103.115 162.019L118.113 119.107L129.325 117.87Z" fill="#FF78B9"/>
<path d="M42.9917 116.56C41.0441 116.201 39.3075 115.883 38.0103 115.681C37.2483 115.556 36.4667 115.607 35.7277 115.834C34.9888 116.061 34.3136 116.454 33.7518 116.986C27.8188 122.623 24.2905 129.091 22.9986 136.295C21.4302 145.081 21.9654 145.994 32.0754 151.367C38.8343 154.969 45.8023 139.006 49.6496 128.09C50.0661 126.897 50.2203 125.628 50.1015 124.37C49.9828 123.112 49.5947 121.893 48.9638 120.799C48.3311 119.704 47.4699 118.76 46.4402 118.028C45.4089 117.296 44.234 116.796 42.9917 116.56Z" fill="#FF78B9"/>
<path d="M41.6494 74.9245L63.5352 59.1348L55.3834 59.2092L42.2164 68.7131L41.6494 74.9245Z" fill="#5865F2"/>
<path d="M46.9043 88.3137C48.7828 89.4266 50.9324 89.9954 53.1156 89.9565C55.85 89.9316 58.4781 88.8914 60.4912 87.0377C62.5026 85.1841 63.7537 82.6499 64.0036 79.9262L64.3828 75.6943L46.9043 88.3137Z" fill="#5865F2"/>
<path d="M101.647 58.7637L92.6303 58.8523L70.2041 75.0389L70.4203 76.6746C70.6525 78.4485 71.2017 80.1657 72.0435 81.7447L103.134 59.3184C102.721 58.9604 102.193 58.7619 101.647 58.7637Z" fill="#5865F2"/>
<path d="M102.489 76.7025L103.164 69.2666L77.7109 87.6383C80.0271 88.9886 82.6658 89.6886 85.3471 89.6656H88.4642C91.9712 89.5557 95.3206 88.1841 97.8972 85.8024C100.474 83.4206 102.104 80.19 102.489 76.7025Z" fill="#5865F2"/>
<path d="M62.9154 92.4636C62.6354 92.46 62.366 92.3555 62.1587 92.1676C61.9514 91.9815 61.8184 91.7246 61.7865 91.4464C61.7528 91.1699 61.8238 90.8899 61.9833 90.6595C62.1428 90.4309 62.3802 90.2661 62.6514 90.1988C65.882 89.5236 69.2188 89.5236 72.4512 90.1988C72.7471 90.2679 73.0042 90.4522 73.1637 90.7092C73.3232 90.9679 73.3745 91.278 73.3054 91.5739C73.238 91.8699 73.0538 92.1269 72.7951 92.2864C72.5381 92.4476 72.2261 92.499 71.9302 92.4299C69.0416 91.8451 66.0663 91.8451 63.1777 92.4299C63.0926 92.4547 63.004 92.4654 62.9154 92.4636Z" fill="black"/>
<path d="M67.1698 37.2642C65.6848 41.3631 65.5112 45.8218 66.6684 50.0253C66.8686 50.7571 67.3028 51.4022 67.9053 51.8612C68.5061 52.322 69.2433 52.5718 70.0017 52.5736H76.9892C77.7725 52.5665 78.5452 52.3999 79.2593 52.0827C79.9753 51.7655 80.6168 51.3047 81.1467 50.7288C85.3572 46.2134 93.0288 45.1519 98.9956 47.6595L102.653 42.4618C103.013 41.9568 103.183 41.3383 103.13 40.7198C103.077 40.0996 102.804 39.5201 102.363 39.0824C98.8998 35.7844 94.7619 33.2804 90.2341 31.7458C85.7063 30.2093 80.8986 29.6777 76.1439 30.188C74.1344 30.4025 72.224 31.1787 70.6362 32.4316C69.0484 33.6827 67.845 35.3591 67.1698 37.2642Z" fill="#FF8C19"/>
<path d="M96.3253 125.921C96.0648 125.923 95.8115 125.836 95.6077 125.675C95.4039 125.512 95.2603 125.285 95.2036 125.031C95.1469 124.778 95.1771 124.51 95.2923 124.276C95.4057 124.043 95.5971 123.855 95.8328 123.745C100.497 121.507 105.781 119.688 116.427 118.264C116.579 118.241 116.733 118.249 116.882 118.287C117.031 118.324 117.171 118.391 117.293 118.482C117.417 118.574 117.52 118.689 117.598 118.82C117.678 118.953 117.729 119.098 117.752 119.251C117.773 119.401 117.766 119.555 117.727 119.704C117.69 119.853 117.625 119.993 117.533 120.117C117.44 120.24 117.325 120.344 117.194 120.422C117.063 120.5 116.916 120.553 116.765 120.574C106.418 121.987 101.321 123.704 96.8464 125.847C96.6816 125.912 96.5026 125.937 96.3253 125.921Z" fill="black"/>
<path d="M141.004 131.69C140.707 131.69 140.421 131.573 140.207 131.366C138.376 129.581 136.95 128.142 135.97 127.088C135.762 126.863 135.653 126.567 135.665 126.262C135.677 125.957 135.81 125.669 136.034 125.461C136.259 125.256 136.555 125.146 136.859 125.158C137.164 125.169 137.453 125.302 137.66 125.527C138.607 126.553 139.998 127.967 141.809 129.723C141.972 129.883 142.082 130.088 142.128 130.312C142.174 130.533 142.153 130.765 142.066 130.976C141.979 131.187 141.834 131.368 141.644 131.494C141.455 131.621 141.233 131.69 141.004 131.69Z" fill="black"/>
<path d="M65.3929 152.191H59.3091C59.1514 152.191 58.9955 152.158 58.8502 152.096C58.7049 152.034 58.5737 151.942 58.4638 151.826C58.3575 151.708 58.276 151.571 58.2246 151.421C58.1714 151.272 58.1502 151.112 58.1609 150.955C58.5862 146.457 59.3163 141.991 60.3441 137.593C60.5621 136.657 60.9874 135.782 61.5864 135.03C63.1689 133.035 65.003 131.252 67.041 129.724C70.5959 127.061 74.1649 124.419 77.633 121.865C80.4365 119.804 82.5648 116.958 83.7486 113.687C86.9597 104.9 87.805 103.88 88.1151 103.508C88.3171 103.297 88.5919 103.169 88.8825 103.153C89.1749 103.137 89.462 103.233 89.6853 103.421C89.9086 103.607 90.0521 103.873 90.0875 104.163C90.123 104.454 90.045 104.746 89.8731 104.98C89.6639 105.23 88.7585 106.65 85.9053 114.443C84.5674 118.142 82.1608 121.36 78.9904 123.689C75.5241 126.23 71.9692 128.874 68.4143 131.536C66.5252 132.951 64.8293 134.605 63.3655 136.457C62.9757 136.942 62.701 137.508 62.561 138.112C61.6572 141.998 60.9802 145.934 60.5319 149.9H64.2977C64.4589 147.46 64.8577 141.39 65.1484 137.355C65.1785 137.057 65.3237 136.785 65.5524 136.591C65.781 136.4 66.0752 136.304 66.3729 136.324C66.6724 136.345 66.9488 136.482 67.149 136.705C67.3475 136.928 67.4521 137.219 67.4397 137.518C67.0693 142.661 66.5217 151.116 66.5217 151.116C66.5022 151.405 66.3765 151.676 66.1674 151.874C65.9583 152.073 65.6818 152.186 65.3929 152.191Z" fill="#F551A0"/>
<path d="M130.201 118.783C125.409 130.949 120.096 151.537 124.184 161.438C124.565 162.385 125.077 163.271 125.705 164.075L127.95 163.804C127.035 162.954 126.325 161.908 125.875 160.742C122.258 151.956 126.766 132.856 131.592 120.258L130.201 118.783Z" fill="#F551A0"/>
<path d="M23.96 146.164C24.4721 146.703 25.0374 147.19 25.6488 147.617C26.8113 134.14 32.3138 122.765 40.8165 116.167L38.417 115.756C30.5009 122.548 25.3316 133.417 23.96 146.164Z" fill="#F551A0"/>
</g>
<defs>
<clipPath id="clip0_495_2583">
<rect width="150" height="150" rx="75" fill="white"/>
</clipPath>
</defs>
</svg>
