<svg width="70" height="70" viewBox="0 0 70 70" fill="none" xmlns="http://www.w3.org/2000/svg">
<rect width="70" height="70" rx="35" fill="#9C84EF"/>
<path d="M37.2158 37.5285L40.9853 11.0327C41.0968 10.1189 41.5493 9.28095 42.2522 8.68652C42.9529 8.0767 43.8575 7.75285 44.7861 7.77934C45.3261 7.78736 45.8586 7.90719 46.3502 8.13126C46.8366 8.3573 47.2687 8.68536 47.6171 9.09318C47.9655 9.49964 48.2237 9.9754 48.3747 10.489C48.5257 11.0026 48.5659 11.5424 48.493 12.0728L44.7939 39.4837L37.2158 37.5285Z" fill="#EE8BAA"/>
<path d="M41.5332 32.6173L44.896 15.9753C44.9302 15.836 45.0135 15.7138 45.1306 15.6312C45.2468 15.5502 45.3894 15.5166 45.5295 15.5374C45.8188 15.6077 46.0378 15.8189 45.9674 16.1004L43.8794 32.3749L41.5332 32.6173Z" fill="#DF76A5"/>
<path d="M40.9857 11.0328C41.1039 10.0826 41.5792 9.21304 42.3152 8.60059C41.7365 12.9566 40.6338 20.6598 39.101 33.5089L37.748 33.7435L40.9857 11.0328Z" fill="#F2AEBA"/>
<path d="M23.3026 10.4308C22.1969 10.8907 21.3088 11.7559 20.8203 12.8493C20.3318 13.9426 20.2798 15.1814 20.6749 16.3119L28.6831 38.7098L38.5448 35.652L29.3948 12.9725C28.9203 11.8305 28.014 10.922 26.8732 10.4446C25.7323 9.96713 24.4491 9.9594 23.3026 10.423V10.4308Z" fill="#EE8BAA"/>
<path d="M31.2414 33.0475L35.1516 32.4217L29.5522 19.0331C29.4779 18.8364 29.3664 18.6558 29.2237 18.5013C29.0711 18.3543 28.8901 18.2399 28.6919 18.165C28.4919 18.0922 28.2781 18.0655 28.0663 18.0868C27.8557 18.1052 27.6523 18.1721 27.4719 18.2824C27.1484 18.4467 26.8975 18.7254 26.7681 19.0644C26.6315 19.3947 26.6122 19.7617 26.7133 20.1045L31.2414 33.0475Z" fill="#DF76A5"/>
<path d="M29.1063 33.0788L21.1998 12.2372C20.8145 12.8336 20.5711 13.5105 20.4882 14.2158C20.3964 14.9202 20.4633 15.6363 20.6837 16.3116L26.768 33.3916L29.1063 33.0788Z" fill="#F1A6B4"/>
<path d="M47.9614 29.6454L18.9786 33.8216C16.9824 34.1083 15.1814 35.1748 13.9705 36.7875C12.7595 38.4001 12.2375 40.4271 12.5189 42.4241V42.6274C12.8075 44.6227 13.8746 46.4224 15.4868 47.6329C17.0989 48.8436 19.1248 49.3664 21.1214 49.0872L50.1355 44.9423C52.1293 44.6518 53.9271 43.5839 55.136 41.9719C56.3449 40.36 56.8667 38.3352 56.5874 36.3398V36.1364C56.4493 35.1429 56.1163 34.1865 55.6075 33.322C55.0987 32.4575 54.4243 31.702 53.6228 31.0989C52.8213 30.4958 51.9086 30.0569 50.9371 29.8075C49.9655 29.5581 48.9543 29.503 47.9614 29.6454Z" fill="#EE8BAA"/>
<path d="M51.1836 42.3149L21.4031 46.6396C20.4701 46.7751 19.5729 47.0932 18.7628 47.5755C17.9526 48.0578 17.2454 48.6949 16.6815 49.4505C15.5427 50.9765 15.0567 52.8925 15.3305 54.7768C15.6043 56.6612 16.6154 58.3596 18.1414 59.4984C19.6674 60.6372 21.5834 61.1232 23.4677 60.8495L53.2638 56.5247C55.085 56.1791 56.7023 55.1433 57.7777 53.6335C58.8532 52.1237 59.3038 50.2567 59.0353 48.4226C58.7667 46.5885 57.7999 44.929 56.3368 43.7908C54.8737 42.6527 53.0274 42.1239 51.1836 42.3149Z" fill="#EE8BAA"/>
<path d="M37.8814 44.6611C38.4836 44.1684 38.4054 43.0501 37.6781 42.1664C36.9508 41.2827 35.8872 40.962 35.2772 41.4547C34.6672 41.9474 34.7532 43.0657 35.4649 43.9572C36.1766 44.8487 37.2636 45.1616 37.8814 44.6611Z" fill="#1E1C2A"/>
<path d="M50.816 41.4625C50.9959 40.4145 50.5423 39.4604 49.8072 39.3353C49.072 39.2102 48.3291 39.9531 48.1492 41.001C47.9694 42.049 48.4151 42.9953 49.1502 43.1282C49.8854 43.2612 50.6283 42.5104 50.816 41.4625Z" fill="#1E1C2A"/>
<path d="M41.5332 47.1556L43.4023 48.3365C43.6924 48.5231 44.0215 48.6408 44.3642 48.6806C44.7046 48.726 45.0507 48.6986 45.3796 48.6001C45.7086 48.5018 46.0129 48.3346 46.2724 48.1097C46.5259 47.8923 46.7333 47.6264 46.8824 47.3277L47.4377 46.1077" stroke="#AB4A72" stroke-width="0.439199" stroke-miterlimit="10" stroke-linecap="round"/>
<path d="M19.1903 47.6797C17.4698 47.2731 15.3974 46.7335 14.5449 46.6709C15.3684 47.6017 16.4038 48.3206 17.5636 48.7668L17.2899 49.0561L21.7085 48.7824C23.2648 48.5713 22.6157 48.4149 19.1903 47.6797Z" fill="#DF79A8"/>
<path d="M17.4147 38.5686C18.5252 37.3408 19.0335 36.0035 18.5721 35.5812C18.1107 35.1589 16.8203 35.8159 15.7255 37.0515C14.6306 38.2872 14.1144 39.6167 14.5837 40.039C15.0529 40.4613 16.312 39.8043 17.4147 38.5686Z" fill="#F1A5BC"/>
</svg>
