<svg width="70" height="70" viewBox="0 0 70 70" fill="none" xmlns="http://www.w3.org/2000/svg">
<g clip-path="url(#clip0_331_2545)">
<rect width="70" height="70" rx="35" fill="#5883F2"/>
<path d="M71.8749 42.293C67.4154 42.477 64.9969 43.9793 57.6647 48.0635C56.4193 48.7573 54.85 48.0721 52.4303 46.925C50.4412 45.982 49.292 45.4287 47.4283 44.4181C46.4693 43.8982 45.034 43.8966 43.4846 45.788C42.3966 47.1169 41.6958 48.7198 41.4589 50.4208C41.1599 52.0564 41.8055 53.2951 43.111 54.2151C46.4965 56.6009 50.9512 58.6511 54.6325 59.121C56.9374 59.4151 59.9354 59.1354 62.1383 57.9155C69.0785 54.0723 69.1588 53.0386 72.1114 52.2418C74.1225 51.699 76.5829 53.2404 78.8523 53.8557C80.7681 54.375 82.342 54.3849 83.4829 53.3169C85.3044 51.6115 84.2838 48.6597 82.4298 46.4864C80.0079 43.6475 76.3097 42.11 71.8749 42.293Z" fill="#FF78B9"/>
<path d="M55.5598 46.9334C54.9315 46.4934 54.2042 46.2153 53.4426 46.1239C52.4048 45.9994 51.5018 46.8636 50.5886 48.2203C49.1357 50.3789 49.1024 51.6245 49.1357 53.6584C49.1683 55.6525 50.0928 58.1315 50.6302 58.7645C51.0485 59.2573 51.6883 59.7829 54.3002 60.3047C56.743 60.7927 58.5026 60.9877 61.8017 59.5675C64.8554 58.2529 65.8341 57.3202 65.991 56.4195L66.0741 55.6045C66.0741 55.6045 63.8343 57.0858 62.9258 56.0073C62.0172 54.9287 60.996 51.2031 61.0404 48.4848C61.0772 46.2298 63.2084 45.0068 63.2084 45.0068C63.2084 45.0068 62.9129 43.4855 61.7579 43.8474C59.5723 44.6159 57.4903 45.6525 55.5598 46.9334Z" fill="#EB459F"/>
<path d="M55.3113 53.4497C55.2482 53.4779 55.1798 53.4922 55.1108 53.4918C55.0175 53.4912 54.9263 53.4642 54.8479 53.4138C54.7694 53.3634 54.7069 53.2917 54.6677 53.2071C53.3319 50.2702 53.7103 48.3812 54.7064 46.4631C55.0071 46.5849 55.2926 46.7412 55.5572 46.9289C54.6515 48.6723 54.3701 50.2152 55.5507 52.806C55.6042 52.9232 55.609 53.0567 55.5641 53.1774C55.5192 53.298 55.4283 53.396 55.3113 53.4497Z" fill="#EB459F"/>
<path d="M55.3113 53.4497C55.2482 53.4779 55.1798 53.4922 55.1108 53.4918C55.0175 53.4912 54.9263 53.4642 54.8479 53.4138C54.7694 53.3634 54.7069 53.2917 54.6677 53.2071C53.3319 50.2702 53.7103 48.3812 54.7064 46.4631C55.0071 46.5849 55.2926 46.7412 55.5572 46.9289C54.6515 48.6723 54.3701 50.2152 55.5507 52.806C55.6042 52.9232 55.609 53.0567 55.5641 53.1774C55.5192 53.298 55.4283 53.396 55.3113 53.4497Z" fill="#D11583"/>
<path d="M32.4 14.7735C32.624 14.1354 33.493 12.5665 33.9587 12.4604C34.2582 12.3922 34.8544 12.5392 34.5951 12.9437C34.3146 13.3809 33.2792 14.4327 32.8496 14.9383C32.6754 15.1435 32.3294 14.9744 32.4 14.7735Z" fill="black"/>
<path d="M23.0747 22.9418C22.4673 21.8802 22.4081 21.7172 22.3093 21.6283C22.1298 21.4667 21.623 21.1395 20.8526 20.4383C20.1249 19.7759 19.8322 18.9674 21.06 17.9101C23.9043 15.4609 30.9381 13.8136 33.3258 14.493C35.7553 15.1843 40.4759 19.0162 41.9573 21.7617C42.8 23.3234 41.6018 24.5072 39.2513 25.0207C38.8456 25.1093 38.56 25.3367 37.6909 25.8898L23.0747 22.9418Z" fill="#423D80"/>
<path d="M29.7902 21.9666C29.699 21.9666 29.6097 21.9395 29.5339 21.8888C25.8382 19.4186 25.3684 19.2826 22.3502 19.8102C22.23 19.8303 22.1068 19.802 22.0074 19.7316C21.908 19.6613 21.8404 19.5544 21.8194 19.4345C21.7984 19.3145 21.8257 19.1911 21.8952 19.0911C21.9648 18.9911 22.0711 18.9227 22.1909 18.9007C25.4826 18.3245 26.143 18.5111 30.0473 21.1213C30.1297 21.1763 30.1921 21.2564 30.2254 21.3497C30.2588 21.443 30.2612 21.5446 30.2324 21.6393C30.2036 21.7341 30.1451 21.8171 30.0655 21.8761C29.9858 21.9351 29.8894 21.9669 29.7903 21.9668L29.7902 21.9666Z" fill="black"/>
<path d="M38.7143 27.8197C38.2117 24.2412 36.3499 22.3492 30.6644 21.1029C23.7066 19.5777 20.5165 24.2503 20.3656 28.8009C20.2096 33.5082 22.5547 35.8923 29.208 35.8324C29.5211 35.8296 29.8332 35.8244 30.1445 35.8166C31.348 39.8689 33.2265 43.6891 35.7008 47.1166C38.2711 50.6678 41.7385 53.4728 45.7483 55.2447L47.355 44.3206C42.1413 40.5025 39.7171 32.9002 38.7143 27.8197Z" fill="#FF78B9"/>
<path d="M32.1403 26.922C32.1403 28.8189 29.8026 28.6629 27.9056 28.6629C26.0087 28.6629 24.4707 28.819 24.4707 26.922C24.4707 26.011 24.8326 25.1373 25.4768 24.4931C26.121 23.849 26.9946 23.4871 27.9056 23.4871C29.8025 23.4871 32.1403 25.0249 32.1403 26.922Z" fill="white"/>
<path d="M26.3292 27.4865C27.1998 27.4865 27.9055 26.7808 27.9055 25.9103C27.9055 25.0397 27.1998 24.334 26.3292 24.334C25.4587 24.334 24.7529 25.0397 24.7529 25.9103C24.7529 26.7808 25.4587 27.4865 26.3292 27.4865Z" fill="black"/>
<path d="M35.4433 30.9099C35.4433 31.9149 32.4503 33.0797 28.7582 33.0797C25.0662 33.0797 22.7246 31.9149 22.7246 30.9099C22.7246 29.905 25.0662 30.2771 28.7582 30.2771C32.4503 30.2771 35.4433 29.9051 35.4433 30.9099Z" fill="black"/>
<path d="M25.251 32.6639C26.3973 32.953 27.5761 33.0927 28.7582 33.0795C31.7528 33.0795 34.2871 32.3133 35.138 31.4875H32.2561C29.1416 31.4875 26.4613 31.9702 25.251 32.6639Z" fill="#D11583"/>
<path d="M33.7427 34.9439C32.5853 35.3772 31.386 35.689 30.1641 35.8742C30.2588 36.1771 30.3609 36.4715 30.4605 36.7688C31.7023 36.5721 32.9203 36.2466 34.0947 35.7976C34.2079 35.7509 34.298 35.6612 34.345 35.5481C34.3921 35.435 34.3923 35.3079 34.3456 35.1947C34.299 35.0815 34.2092 34.9914 34.0961 34.9444C33.9831 34.8973 33.856 34.8971 33.7427 34.9438V34.9439Z" fill="#EB459F"/>
<path d="M45.3742 39.0445C42.7966 35.7855 42.4118 35.8725 40.5208 36.7369C37.7555 38.0011 33.5682 40.4503 32.5411 41.2403C31.514 42.0304 30.8271 42.8368 31.1827 43.8738C32.0496 46.1714 33.0487 48.417 34.1751 50.5993C34.7676 51.5473 35.1824 51.4288 35.8638 51.2807C36.5452 51.1326 37.286 50.8955 37.286 50.8955C37.286 50.8955 40.6042 54.1546 44.7027 55.9519L45.3742 39.0445Z" fill="#423D80"/>
<path d="M35.9734 49.5491C35.8915 49.5491 35.8111 49.5274 35.7404 49.4862C35.6696 49.4449 35.6111 49.3856 35.5709 49.3143C34.5848 47.5764 33.7224 45.7711 32.9901 43.9119C32.9482 43.7975 32.9532 43.6712 33.004 43.5605C33.0548 43.4498 33.1474 43.3637 33.2614 43.3209C33.3755 43.2781 33.5018 43.2822 33.6129 43.3321C33.724 43.382 33.8109 43.4739 33.8545 43.5876C34.5727 45.401 35.4149 47.1628 36.3752 48.8604C36.4149 48.9306 36.4354 49.01 36.4349 49.0907C36.4343 49.1713 36.4126 49.2504 36.3719 49.32C36.3313 49.3897 36.2731 49.4475 36.2032 49.4876C36.1332 49.5278 36.054 49.5489 35.9734 49.549V49.5491Z" fill="black"/>
<path d="M34.2638 24.2306C36.1599 25.6527 37.2535 26.0131 37.7005 25.8897C38.1079 25.7382 38.4663 25.4788 38.7375 25.1392L35.755 20.9519L28.1309 19.8162C28.1309 19.8162 32.0121 22.5418 34.2638 24.2306Z" fill="#423D80"/>
<path d="M37.8844 48.5559C37.8025 48.556 37.7221 48.5343 37.6513 48.493C37.5806 48.4518 37.5221 48.3924 37.4819 48.3211C36.4958 46.5832 35.6335 44.778 34.9014 42.9187C34.8585 42.8041 34.8628 42.6771 34.9135 42.5657C34.9642 42.4542 35.057 42.3675 35.1717 42.3245C35.2863 42.2816 35.4133 42.2859 35.5247 42.3366C35.6362 42.3872 35.7229 42.4801 35.7659 42.5947C36.484 44.408 37.3261 46.1697 38.2863 47.8673C38.3259 47.9375 38.3465 48.0169 38.3459 48.0975C38.3453 48.1781 38.3236 48.2572 38.283 48.3269C38.2423 48.3965 38.1841 48.4543 38.1142 48.4945C38.0443 48.5346 37.965 48.5558 37.8844 48.5558V48.5559Z" fill="black"/>
</g>
<defs>
<clipPath id="clip0_331_2545">
<rect width="70" height="70" rx="35" fill="white"/>
</clipPath>
</defs>
</svg>
