<svg width="70" height="70" viewBox="0 0 70 70" fill="none" xmlns="http://www.w3.org/2000/svg">
<g clip-path="url(#clip0_331_2389)">
<rect width="70" height="70" rx="35" fill="#5865F2"/>
<path d="M48.9955 14.1524C48.4204 12.427 47.4427 12.1682 45.3723 11.5644C43.0069 10.8534 40.5184 10.6477 38.0683 10.9605C38.3141 10.7344 38.4985 10.4495 38.6041 10.1326C38.7097 9.81578 38.7332 9.47729 38.6722 9.14889C38.3559 8.02742 36.7168 7.48106 35.0202 7.94115C33.3236 8.40124 32.2309 9.72401 32.5472 10.8742C32.691 11.4494 33.2374 11.8807 33.9275 12.082C33.4267 12.2857 32.9371 12.516 32.461 12.7721C28.7227 14.67 29.039 15.3026 29.4416 18.1207C28.3776 18.2645 28.1476 18.6095 28.4927 20.1623C28.8377 21.7152 29.0103 21.974 30.3905 21.974L50.5771 18.6958C51.7906 13.8936 50.002 14.0949 48.9955 14.1524Z" fill="#0C1AAD"/>
<path d="M64.7821 69.1908C65.3285 71.175 63.5456 73.5042 59.2322 77.5588C57.4494 79.2554 56.5579 80.118 55.2927 80.118C54.7751 80.118 53.6536 79.5717 52.8772 79.0253C51.6407 78.2202 49.5128 76.7249 47.4136 75.057C46.6085 74.4244 46.1771 72.7853 47.9025 70.5999C49.6278 68.4144 51.3244 67.9544 52.5897 68.817C53.2798 69.3059 55.5802 70.7437 56.5292 71.3188C58.6284 66.6316 63.9194 66.0565 64.7821 69.1908Z" fill="#1927BC"/>
<path d="M52.2161 76.8975C51.5314 76.8993 50.8649 76.6772 50.3183 76.2648C50.232 76.2073 41.404 69.6223 30.3042 62.7784C29.9493 62.5594 29.6409 62.2726 29.3968 61.9344C29.1527 61.5962 28.9775 61.2132 28.8814 60.8073C28.7853 60.4015 28.77 59.9806 28.8365 59.5689C28.903 59.1571 29.05 58.7625 29.269 58.4075C29.4881 58.0525 29.7748 57.7442 30.113 57.5001C30.4512 57.2559 30.8342 57.0808 31.2401 56.9847C31.646 56.8885 32.0668 56.8733 32.4785 56.9398C32.8903 57.0063 33.2849 57.1533 33.6399 57.3723C44.9984 64.36 53.7689 70.8875 54.114 71.1751C54.6573 71.5696 55.061 72.1267 55.2666 72.7659C55.4722 73.405 55.4691 74.093 55.2577 74.7303C55.0464 75.3676 54.6377 75.9211 54.0909 76.3107C53.5441 76.7003 52.8875 76.9058 52.2161 76.8975Z" fill="#8CD9FF"/>
<path d="M0.714404 52.8287C-0.838407 54.4391 -2.99509 55.0142 -3.3114 54.5541C-3.62772 54.094 -3.54145 52.7425 -3.02384 51.1322C-2.30495 49.0042 -0.579607 46.7613 0.685647 46.9626C1.9509 47.1639 3.67625 49.7806 0.714404 52.8287Z" fill="#FFE75C"/>
<path d="M20.9869 41.8442C19.9804 43.6846 19.089 44.4035 18.4276 44.0584C17.7662 43.7134 17.1911 42.6206 16.961 41.0966C16.5297 38.2785 17.9963 34.224 20.2104 34.9429C22.4246 35.6617 22.4246 39.2275 20.9869 41.8442Z" fill="#FFE75C"/>
<path d="M18.687 43.7419C19.7797 43.5982 20.2111 43.3106 20.1823 42.9368C20.1535 42.563 19.7797 41.9878 19.0896 41.3552C17.3355 39.7736 11.4693 37.2144 11.4406 39.9749C11.4118 42.7355 16.4211 44.0582 18.687 43.7419Z" fill="#FFE75C"/>
<path d="M1.49099 50.8733L-5.75545 51.2184C-7.35563 51.2898 -8.91113 51.7683 -10.2748 52.6086C-11.6384 53.449 -12.7651 54.6233 -13.5483 56.0206L-17.2233 62.5194C-18.0334 63.956 -18.4542 65.5793 -18.4442 67.2286C-18.4341 68.8779 -17.9934 70.4959 -17.1657 71.9225L-14.4627 76.6097C-13.6253 78.0411 -12.4287 79.2291 -10.9914 80.0562C-9.55401 80.8833 -7.92564 81.3209 -6.26731 81.3257H0.317762C1.84288 81.3257 3.3454 80.957 4.69728 80.251C6.04915 79.545 7.21032 78.5227 8.08182 77.2711L12.4239 71.0598C13.4005 69.6555 13.9777 68.0125 14.0942 66.3059C14.2106 64.5994 13.862 62.8932 13.0853 61.3692L10.411 56.0493C9.5815 54.4184 8.29815 53.0621 6.71554 52.1438C5.13294 51.2255 3.31857 50.7843 1.49099 50.8733Z" fill="#66BCFF"/>
<path d="M36.8888 70.5424L29.9357 73.9356C28.3111 74.7241 26.5082 75.0727 24.7068 74.9465C22.9054 74.8204 21.1686 74.2239 19.6698 73.2167L12.711 68.5583C11.198 67.5333 9.98325 66.126 9.1903 64.4795C8.39734 62.833 8.05439 61.0059 8.1963 59.1839L8.77141 51.9662C8.92075 50.1323 9.55997 48.3721 10.6223 46.8697C11.6845 45.3674 13.1309 44.1779 14.8101 43.4257L21.6252 40.3201C23.1949 39.607 24.9193 39.3016 26.6384 39.4323C28.3575 39.563 30.0159 40.1255 31.4597 41.0678L38.2173 45.4099C39.7077 46.3793 40.9224 47.7173 41.7436 49.2943C42.5648 50.8712 42.9647 52.6335 42.9045 54.4104L42.6745 61.5994C42.6175 63.476 42.0484 65.3012 41.0285 66.8776C40.0087 68.4539 38.5772 69.7213 36.8888 70.5424Z" fill="#66BCFF"/>
<path d="M42.8994 53.4615C42.8017 51.8465 42.3268 50.2769 41.5128 48.8786C40.6988 47.4804 39.5683 46.2923 38.2122 45.4099L33.8989 42.6206L30.1318 44.346C34.6465 52.5701 35.3079 55.4169 42.8994 53.4615Z" fill="#3892EB"/>
<path d="M48.3399 49.3494L39.5693 49.6082C37.6679 49.6682 35.7859 49.2102 34.1246 48.2833C32.4633 47.3564 31.0851 45.9954 30.1375 44.3459L26.6293 38.2496C25.6672 36.5601 25.1904 34.6377 25.2513 32.6943C25.3122 30.751 25.9084 28.8622 26.9743 27.2362L31.4027 20.4786C32.3596 19.0321 33.6573 17.8428 35.1816 17.0155C36.7059 16.1882 38.4102 15.7481 40.1445 15.7339H48.5699C50.3927 15.7347 52.1845 16.2063 53.7714 17.1031C55.3584 17.9998 56.6868 19.2913 57.628 20.8524L61.1074 26.6323C62.0799 28.2626 62.5934 30.1257 62.5934 32.024C62.5934 33.9224 62.0799 35.7854 61.1074 37.4157L57.0816 44.2308C56.1772 45.7545 54.9006 47.0235 53.3716 47.9188C51.8426 48.8141 50.1112 49.3063 48.3399 49.3494Z" fill="#66BCFF"/>
<path d="M54.6023 26.7474C53.4828 27.9958 52.2181 29.1059 50.8353 30.0543C50.4962 30.2957 50.0832 30.4106 49.6682 30.3791C49.2532 30.3475 48.8623 30.1716 48.5636 29.8817C46.2631 27.6388 44.0776 26.1147 40.7707 24.5907C40.3106 24.3894 38.9304 23.9005 38.2977 24.5619C37.6651 25.2233 37.7801 25.7409 38.0102 26.4023C39.8218 31.6071 41.9497 36.8981 47.212 37.502C52.4743 38.1059 56.1263 33.9075 57.8229 28.5877C57.9805 28.0944 58.0676 27.5813 58.0817 27.0637C58.0949 26.6523 57.9442 26.2525 57.6627 25.9521C57.3812 25.6518 56.992 25.4755 56.5806 25.462C56.1676 25.4506 55.7667 25.6025 55.4649 25.8847C55.1569 26.151 54.8686 26.4393 54.6023 26.7474Z" fill="white"/>
<path d="M49.0525 30.198L48.4199 33.5049L50.8067 33.6199L50.2315 30.313C49.8377 30.4197 49.4184 30.3788 49.0525 30.198Z" fill="#3892EB"/>
<path d="M55.4651 25.8847C55.1571 26.1511 54.8688 26.4394 54.6024 26.7474L54.5449 26.8049L56.7591 31.2333C57.1792 30.3792 57.5348 29.4949 57.8231 28.5878C57.9807 28.0945 58.0678 27.5814 58.0819 27.0637C58.0951 26.6523 57.9443 26.2525 57.6629 25.9522C57.3814 25.6518 56.9922 25.4755 56.5808 25.462C56.1678 25.4506 55.7669 25.6025 55.4651 25.8847Z" fill="#3892EB"/>
<path d="M41.4609 24.9357L40.7707 24.5907C40.3106 24.3894 38.9304 23.9005 38.2977 24.5619C37.6651 25.2233 37.7801 25.7409 38.0102 26.4023C38.554 28.0595 39.1974 29.6823 39.9368 31.262L41.4609 24.9357Z" fill="#3892EB"/>
<path d="M45.7511 27.4661L45.0897 26.9773L42.9043 35.5178C43.1115 35.7154 43.3325 35.898 43.5657 36.0641L45.7511 27.4661Z" fill="#8CD9FF"/>
<path d="M52.4746 28.7891L54.8901 34.1664L55.4077 33.505L53.0785 28.2715L52.4746 28.7891Z" fill="#8CD9FF"/>
<path d="M39.2474 24.2455C39.7719 24.2688 40.2881 24.3856 40.7715 24.5906C44.0784 26.1146 46.2638 27.6387 48.5643 29.8816C48.903 30.1899 49.3428 30.3638 49.8008 30.3705C50.1698 30.3714 50.5305 30.2612 50.836 30.0542C52.2189 29.1058 53.4835 27.9956 54.603 26.7472C54.8693 26.4392 55.1576 26.1509 55.4657 25.8846C55.6881 25.6838 55.9633 25.551 56.2588 25.5019C56.5544 25.4528 56.8578 25.4894 57.1332 25.6074C57.4085 25.7254 57.6443 25.9199 57.8125 26.1678C57.9808 26.4157 58.0744 26.7066 58.0824 27.006C58.0853 27.0251 58.0853 27.0445 58.0824 27.0636C58.0684 27.5812 57.9812 28.0943 57.8236 28.5876C56.2421 33.5624 52.9639 37.5594 48.2192 37.5594L47.2128 37.5019C41.9505 36.898 39.8254 31.607 38.0109 26.4022C37.7809 25.7408 37.7809 25.1082 38.2985 24.5618C38.5625 24.3366 38.904 24.2231 39.2503 24.2455H39.2474ZM39.2503 23.9579C39.0389 23.9437 38.8269 23.9749 38.6286 24.0492C38.4302 24.1236 38.25 24.2396 38.1001 24.3893C37.3812 25.1082 37.5796 25.9421 37.755 26.4884C39.7104 32.0958 41.8671 37.1568 47.1869 37.7607C47.5297 37.8087 47.876 37.8279 48.2221 37.8182C50.5226 37.8182 52.6217 36.9268 54.4046 35.1152C56.1874 33.3036 57.2514 31.3194 58.0853 28.6739C58.2526 28.1622 58.3493 27.6301 58.3729 27.0923C58.38 26.8484 58.3378 26.6055 58.2489 26.3782C58.1599 26.1509 58.0261 25.9439 57.8553 25.7695C57.4934 25.418 57.0083 25.2219 56.5038 25.2232C56.0571 25.2164 55.6249 25.381 55.296 25.6833C54.9701 25.9502 54.6715 26.2488 54.4046 26.5747C53.2986 27.7983 52.0537 28.8888 50.6951 29.8241C50.4324 30.0049 50.1225 30.1049 49.8037 30.1117C49.6107 30.1148 49.4192 30.0781 49.2411 30.0039C49.063 29.9297 48.9021 29.8195 48.7684 29.6803C46.4921 27.437 43.8209 25.6335 40.8894 24.3605C40.3766 24.1147 39.8186 23.9776 39.2503 23.9579Z" fill="#66BCFF"/>
<path d="M52.2157 24.5619H52.1869C51.0654 24.4757 48.5924 24.4182 46.8958 24.4182C46.8043 24.4182 46.7166 24.3818 46.6518 24.3171C46.5871 24.2524 46.5508 24.1646 46.5508 24.0731C46.5508 23.9816 46.5871 23.8938 46.6518 23.8291C46.7166 23.7644 46.8043 23.728 46.8958 23.728C48.6212 23.728 51.1229 23.8143 52.2444 23.9006C52.3286 23.9006 52.4093 23.9338 52.4691 23.993C52.5289 24.0523 52.5628 24.1327 52.5636 24.2169C52.565 24.2264 52.565 24.2361 52.5636 24.2456C52.5563 24.3326 52.5164 24.4135 52.4519 24.4722C52.3873 24.5309 52.3029 24.563 52.2157 24.5619Z" fill="#3F99F2"/>
<path d="M53.8839 22.0601C53.7689 23.0953 53.4238 23.124 52.5324 22.8652C51.0893 22.4124 49.5532 22.3431 48.0752 22.6639C46.1486 23.0665 45.1134 23.3253 45.2284 22.0601C45.3434 20.7948 47.5001 19.012 49.8868 19.012C52.2736 19.012 54.0564 20.3922 53.8839 22.0601Z" fill="white"/>
<path d="M53.8839 22.0601C53.7689 23.0953 53.4238 23.124 52.5324 22.8652C51.0893 22.4124 49.5532 22.3431 48.0752 22.6639C46.1486 23.0665 45.1134 23.3253 45.2284 22.0601C45.3434 20.7948 47.5001 19.012 49.8868 19.012C52.2736 19.012 54.0564 20.3922 53.8839 22.0601Z" fill="white"/>
<path d="M45.8614 20.6799C45.8604 20.7822 45.8904 20.8825 45.9476 20.9674C46.0914 21.366 46.3165 21.7302 46.6086 22.0371C46.9006 22.3441 47.2533 22.5869 47.6442 22.7503L48.0755 22.664C48.4049 22.5752 48.7419 22.5175 49.082 22.4915C49.6284 21.9451 49.6284 20.7949 48.8807 19.7022C48.7603 19.5114 48.6153 19.3374 48.4494 19.1846C47.4495 19.3948 46.5429 19.9187 45.8614 20.6799Z" fill="black"/>
<path d="M33.295 13.6921L30.3906 21.9738C34.7615 21.9738 36.4868 22.5202 39.4199 19.8746C43.9346 15.8201 44.0784 15.7338 45.3724 15.7338H50.3184L45.3724 13.6921H33.295Z" fill="#0C1AAD"/>
<path d="M32.0001 18.5518H29.7572C29.6681 18.5446 29.5844 18.506 29.5212 18.4427C29.458 18.3795 29.4193 18.2959 29.4121 18.2068C29.4121 18.1153 29.4485 18.0275 29.5132 17.9628C29.5779 17.8981 29.6657 17.8617 29.7572 17.8617H30.9937C34.2718 17.8905 36.256 17.9192 38.8152 15.7625L39.0453 15.5612C41.3457 13.6059 42.3234 12.8007 47.2407 13.5483C47.2858 13.5534 47.3294 13.5676 47.3689 13.5899C47.4084 13.6123 47.4429 13.6424 47.4705 13.6785C47.498 13.7146 47.518 13.7559 47.5292 13.7999C47.5403 13.8438 47.5425 13.8896 47.5355 13.9345C47.5285 13.9793 47.5125 14.0223 47.4885 14.0608C47.4645 14.0993 47.4329 14.1325 47.3957 14.1585C47.3584 14.1845 47.3164 14.2027 47.2719 14.212C47.2275 14.2213 47.1817 14.2215 47.1372 14.2126C42.5362 13.5225 41.7598 14.1551 39.4881 16.0817L39.2581 16.283C36.8023 18.3506 34.7894 18.5518 32.0001 18.5518Z" fill="black"/>
<path d="M50.807 44.7196C50.7315 44.7285 50.6556 44.7072 50.5958 44.6603C50.536 44.6135 50.4971 44.5448 50.4878 44.4694C50.4835 44.4379 50.4835 44.406 50.4878 44.3745C50.4878 44.3458 50.5166 42.4766 50.1427 41.3839C50.1261 41.3458 50.1171 41.3047 50.1163 41.2631C50.1155 41.2215 50.1229 41.1801 50.1381 41.1414C50.1534 41.1027 50.1761 41.0673 50.205 41.0374C50.2339 41.0075 50.2685 40.9835 50.3066 40.967L50.344 40.9526C50.428 40.9243 50.5196 40.9295 50.5999 40.9669C50.6802 41.0044 50.743 41.0713 50.7753 41.1539C51.2067 42.3616 51.1492 44.317 51.1492 44.4033C51.15 44.4448 51.1424 44.486 51.1269 44.5245C51.1115 44.5631 51.0885 44.5981 51.0593 44.6276C51.03 44.6571 50.9952 44.6804 50.9568 44.6962C50.9184 44.712 50.8773 44.72 50.8357 44.7196H50.807Z" fill="#3F99F2"/>
<path d="M53.3656 42.4192C53.2948 42.4219 53.225 42.4006 53.1677 42.3589C53.1103 42.3172 53.0686 42.2574 53.0493 42.1892L52.5605 40.8951C52.5309 40.8071 52.5352 40.7113 52.5724 40.6263C52.6096 40.5412 52.6771 40.4731 52.7618 40.435C52.8052 40.4217 52.8508 40.4172 52.896 40.4215C52.9412 40.4259 52.9851 40.4392 53.0252 40.4605C53.0653 40.4819 53.1007 40.511 53.1295 40.5461C53.1583 40.5812 53.18 40.6216 53.1931 40.6651L53.682 41.9591C53.711 42.0431 53.7061 42.135 53.6686 42.2155C53.631 42.296 53.5636 42.3587 53.4807 42.3904L53.3656 42.4192Z" fill="#3F99F2"/>
<path d="M47.1891 43.6844C47.1045 43.6779 47.0246 43.6431 46.962 43.5858C46.8995 43.5285 46.858 43.4518 46.8441 43.3681C46.8153 42.7355 47.2754 41.1252 47.3329 40.9239C47.3657 40.8405 47.4271 40.7715 47.5062 40.7294C47.5853 40.6872 47.6767 40.6746 47.7643 40.6938C47.808 40.7067 47.8487 40.7281 47.8842 40.7567C47.9196 40.7854 47.949 40.8208 47.9706 40.8609C47.9923 40.901 48.0058 40.9451 48.0103 40.9904C48.0149 41.0358 48.0104 41.0815 47.9972 41.1252C47.7959 41.7578 47.5083 42.9368 47.5371 43.3106C47.5388 43.4007 47.5076 43.4883 47.4494 43.5571C47.3912 43.6259 47.3099 43.6712 47.2208 43.6844H47.1891Z" fill="#3F99F2"/>
<path d="M13.0797 61.7144C13.0204 61.7152 12.9622 61.6994 12.9114 61.669C12.8606 61.6385 12.8193 61.5945 12.7921 61.5419L10.0948 56.1933C10.0365 56.1228 10.0085 56.032 10.0172 55.9408C10.0258 55.8497 10.0703 55.7657 10.1408 55.7074C10.2114 55.649 10.3022 55.6211 10.3933 55.6297C10.4845 55.6383 10.5684 55.6828 10.6268 55.7534C10.6654 55.7959 10.6905 55.8489 10.6987 55.9058L13.4017 61.2256C13.4433 61.3057 13.4515 61.3991 13.4246 61.4852C13.3977 61.5714 13.3378 61.6435 13.2579 61.6857L13.0797 61.7144Z" fill="#3F99F2"/>
<path d="M19.6933 59.0113C15.5813 62.117 14.431 63.5548 17.3354 77.1562H10.8078C8.13353 64.3599 8.76615 59.2701 15.8688 53.9216C16.5472 53.424 17.3933 53.2116 18.2263 53.3298C19.0592 53.448 19.8128 53.8875 20.326 54.5542C20.5779 54.8846 20.7623 55.2614 20.8686 55.6631C20.9749 56.0647 21.0011 56.4834 20.9455 56.8952C20.89 57.307 20.7539 57.7038 20.5449 58.0629C20.336 58.4221 20.0583 58.7365 19.7278 58.9883L19.6933 59.0113Z" fill="#8CD9FF"/>
<path d="M47.3271 74.0794C47.9598 74.597 49.4838 73.6193 50.3753 72.3828C51.2667 71.1463 51.7843 69.5935 50.9791 68.8746L51.3817 68.7883L56.2127 72.009L56.8166 76.2361L53.4809 77.8176L51.0942 77.2138L47.3271 74.5107V74.0794Z" fill="#1927BC"/>
<path d="M64.2073 68.127C64.5236 68.587 64.4949 69.2772 64.1498 70.2549C63.3159 72.8141 59.8939 76.0923 58.3699 77.5013C56.8458 78.9104 55.293 80.1181 54.2578 79.8018C54.5836 79.9623 54.9332 80.0691 55.293 80.1181C56.5583 80.1181 57.4497 79.2554 59.2326 77.5588C62.1081 74.8558 63.8622 72.9004 64.5524 71.3476C65.2425 69.7948 65.07 69.2197 64.9837 68.8458C64.8974 68.472 64.7824 68.3858 64.2073 68.127Z" fill="#0C1AAD"/>
</g>
<defs>
<clipPath id="clip0_331_2389">
<rect width="70" height="70" rx="35" fill="white"/>
</clipPath>
</defs>
</svg>
