<svg width="70" height="70" viewBox="0 0 70 70" fill="none" xmlns="http://www.w3.org/2000/svg">
<rect width="70" height="70" rx="35" fill="#5865F2"/>
<path d="M46.4657 36.7485L28.0057 43.1015L15.0723 43.5044L36.4144 37.4096C36.5767 37.3662 36.7427 37.3385 36.9103 37.327L46.4657 36.7485C46.4761 36.7382 46.4657 36.7485 46.4657 36.7485Z" fill="black"/>
<path d="M11.0637 25.4473L14.1628 42.585C14.1891 42.7257 14.2443 42.8594 14.3249 42.9776C14.4056 43.0958 14.51 43.1959 14.6314 43.2717C14.7528 43.3474 14.8886 43.3971 15.0302 43.4177C15.1718 43.4382 15.3162 43.429 15.4541 43.3908L36.1144 37.4716C36.4518 37.3791 36.7981 37.3237 37.1475 37.3063L45.8145 36.8001C45.9663 36.8024 46.1167 36.7711 46.255 36.7086C46.3933 36.646 46.5162 36.5538 46.6148 36.4384C46.7135 36.323 46.7854 36.1873 46.8257 36.0409C46.8659 35.8945 46.8733 35.7411 46.8475 35.5915L43.2526 13.8361C43.2009 13.515 43.0361 13.223 42.7879 13.0127C42.5398 12.8024 42.2246 12.6878 41.8994 12.6895H33.4183C32.7214 12.6898 32.0333 12.845 31.4039 13.144L13.0265 21.6457C12.3217 21.9691 11.7455 22.5191 11.3897 23.2081C11.034 23.8971 10.9192 24.6854 11.0637 25.4473Z" fill="#8CD9FF"/>
<path d="M32.4991 13.6501L36.5176 36.6658C36.5503 36.8472 36.5145 37.0342 36.4172 37.1907C36.3199 37.3472 36.1679 37.462 35.9907 37.5129L15.1857 43.4734C15.1241 43.4832 15.0613 43.4832 14.9998 43.4734C14.8232 43.4784 14.6507 43.4195 14.514 43.3076C14.3774 43.1956 14.2858 43.038 14.256 42.8639L10.9297 24.7447C10.8295 24.1962 10.9141 23.6299 11.1702 23.1345C11.4263 22.6392 11.8394 22.2427 12.3449 22.0072L31.4454 13.1439C31.5465 13.0944 31.6574 13.0683 31.77 13.0679C31.8825 13.0674 31.9937 13.0925 32.0952 13.1412C32.1966 13.19 32.2857 13.2611 32.3556 13.3492C32.4256 13.4374 32.4747 13.5403 32.4991 13.6501Z" fill="#3F99F2"/>
<path d="M21.2906 25.3748C21.022 21.9762 23.243 19.0838 26.2697 19.0631C29.2965 19.0424 31.7654 21.9246 31.7654 25.3232C31.7654 28.5565 29.5237 31.0771 26.7552 31.0771C23.9867 31.0771 21.5488 28.5979 21.2906 25.3748Z" fill="black"/>
<path d="M20.5983 25.4473C20.3917 22.6685 22.0652 20.3855 24.3378 20.4061C26.6105 20.4268 28.4699 22.7098 28.6042 25.4576C28.7385 28.2054 27.0547 30.2715 24.8957 30.2818C22.7367 30.2921 20.8049 28.1538 20.5983 25.4473Z" fill="#FF78B9"/>
<path d="M21.2397 26.0156C21.1157 24.2388 22.1384 22.7822 23.5226 22.7925C24.9069 22.8029 26.0639 24.2698 26.1362 26.0259C26.2085 27.782 25.1858 29.1249 23.8635 29.1249C22.5413 29.1249 21.3636 27.7407 21.2397 26.0156Z" fill="white"/>
<path d="M24.8577 25.4281C25.2233 25.1549 25.2179 24.5296 24.8457 24.0315C24.4734 23.5333 23.8753 23.351 23.5097 23.6242C23.144 23.8974 23.1494 24.5227 23.5217 25.0209C23.8939 25.519 24.4921 25.7014 24.8577 25.4281Z" fill="black"/>
<path d="M33.1701 9.44559L34.1309 14.6107L35.3601 14.4867L34.2651 9.03238C34.205 8.71567 34.0641 8.41986 33.8559 8.1737C33.6478 7.92754 33.3795 7.73938 33.0772 7.62748C32.3692 7.46526 31.6443 7.38895 30.9182 7.40021H30.1641C30.8279 7.31868 31.4988 7.48118 32.0518 7.85745C32.6048 8.23372 33.0023 8.79813 33.1701 9.44559Z" fill="black"/>
<path d="M35.8148 14.5282L34.7818 8.73292C34.6433 8.01667 34.2566 7.37223 33.6897 6.91306C33.1228 6.45389 32.4121 6.20942 31.6828 6.22268H28.2531C27.5447 6.23031 26.8465 6.39288 26.2076 6.699C25.5687 7.00511 25.0045 7.44734 24.5546 7.99466C24.1047 8.54198 23.7801 9.18112 23.6035 9.86722C23.4269 10.5533 23.4025 11.2698 23.5322 11.9663L25.247 21.2634L25.371 22.1105L27.2924 22.4618L25.309 11.5221C25.2231 11.0321 25.2455 10.5292 25.3745 10.0487C25.5036 9.56829 25.7363 9.12192 26.0562 8.74095C26.3762 8.35998 26.7756 8.05366 27.2265 7.84347C27.6774 7.63329 28.1688 7.52435 28.6663 7.52429H32.3852C32.8368 7.52401 33.2742 7.68196 33.6215 7.9707C33.9687 8.25944 34.2038 8.66072 34.286 9.10481L35.319 14.7451L35.8148 14.5282Z" fill="#FF78B9"/>
<path d="M42.1268 12.6895H33.0775C32.9862 12.6897 32.896 12.7098 32.8132 12.7484C32.7304 12.787 32.657 12.8431 32.598 12.9129C32.5391 12.9826 32.496 13.0644 32.4718 13.1524C32.4476 13.2405 32.4428 13.3328 32.4577 13.4229L36.5898 36.7175C36.6199 36.887 36.7112 37.0397 36.8465 37.1463C36.9817 37.253 37.1513 37.3062 37.3233 37.296L46.3519 36.7691C46.5024 36.7414 46.6371 36.6579 46.7289 36.5354C46.8208 36.4129 46.8632 36.2603 46.8477 36.108L43.1392 13.6295C43.1162 13.3755 43.0001 13.1389 42.8132 12.9653C42.6263 12.7918 42.3818 12.6935 42.1268 12.6895Z" fill="#8CD9FF"/>
<path d="M24.1214 15.2926L25.8362 14.4868L25.3507 11.739L23.6152 12.5448L24.1214 15.2926Z" fill="#FFE75C"/>
<path d="M29.8753 41.583C29.4396 41.6021 29.0223 41.7642 28.688 42.0443C28.3538 42.3244 28.1211 42.7069 28.0261 43.1325L26.8898 48.1633L26.3113 50.6736L26.0118 51.9235L25.8775 52.4917C25.8524 52.5945 25.8178 52.6948 25.7742 52.7913C25.5862 53.1838 25.2527 53.4876 24.8444 53.6384C24.6375 53.7194 24.4155 53.7546 24.1937 53.7417C24.0802 53.7518 23.9662 53.7518 23.8528 53.7417L23.6978 53.69L23.3982 53.5867L19.1319 51.9855C18.9485 51.9264 18.7516 51.9244 18.5671 51.9797C18.3826 52.0351 18.2193 52.1452 18.0988 52.2954C17.7019 52.8057 17.4583 53.4184 17.3964 54.0619C17.0348 57.9564 17.2414 59.9191 17.5203 60.9005C17.5506 61.0002 17.6102 61.0885 17.6915 61.1537C17.7729 61.2189 17.872 61.258 17.9759 61.2658C18.0798 61.2737 18.1837 61.2499 18.2739 61.1976C18.364 61.1453 18.4362 61.0669 18.481 60.9728L20.7847 55.8077L22.2826 56.4688L22.5821 56.6031C22.7268 56.6031 22.8714 56.7168 23.0263 56.7581C23.3277 56.859 23.6396 56.9249 23.9561 56.9543C24.5943 57.0292 25.2411 56.9729 25.8568 56.7891C27.1149 56.4267 28.1776 55.5795 28.8112 54.4338C28.9734 54.1525 29.105 53.8547 29.2038 53.5454C29.2658 53.3594 29.2761 53.2871 29.3174 53.1838L29.4104 52.8636L29.772 51.624L30.4951 49.1344L31.9206 44.1552V44.0416C31.9958 43.7394 31.9988 43.4237 31.9293 43.1202C31.8598 42.8166 31.7198 42.5337 31.5206 42.2943C31.3215 42.0549 31.0687 41.8657 30.7829 41.7422C30.497 41.6186 30.1861 41.5641 29.8753 41.583Z" fill="#57F287"/>
<path d="M37.282 51.9748L35.216 43.5557V43.4524C35.1702 43.1431 35.0583 42.8472 34.888 42.5849C34.7176 42.3226 34.4929 42.1001 34.2289 41.9323C33.965 41.7646 33.668 41.6556 33.3582 41.6128C33.0485 41.57 32.7331 41.5943 32.4335 41.6842C32.134 41.7741 31.8573 41.9273 31.6222 42.1336C31.3872 42.3399 31.1992 42.5943 31.0712 42.8796C30.9432 43.165 30.8781 43.4745 30.8803 43.7872C30.8824 44.0999 30.9519 44.4085 31.0839 44.692L33.5322 52.9562C33.5537 53.0688 33.5537 53.1845 33.5322 53.2971C33.5307 53.4155 33.5024 53.5321 33.4495 53.638C33.4026 53.7513 33.3322 53.8534 33.2429 53.9376L33.026 54.1132L32.6128 54.4541L29.2451 57.1813C27.7989 58.2969 29.1728 59.7225 32.84 62.7906C35.2367 64.7843 33.1603 60.3113 32.4475 59.2163L34.8957 57.4292L35.3296 57.1089L35.5466 56.954H35.6085C35.6085 56.954 35.6085 56.954 35.6705 56.954L35.8461 56.8197C36.7799 56.036 37.3847 54.9297 37.5403 53.7206C37.5618 53.1278 37.4743 52.5361 37.282 51.9748Z" fill="#57F287"/>
<path d="M42.0371 16.4052C42.5017 16.3501 42.8036 15.6762 42.7115 14.9C42.6193 14.1238 42.168 13.5393 41.7035 13.5945C41.2389 13.6496 40.937 14.3235 41.0291 15.0997C41.1213 15.8759 41.5726 16.4604 42.0371 16.4052Z" fill="#FF78B9"/>
<path d="M15.3822 38.2878L15.8368 40.674C15.8559 40.7687 15.8944 40.8584 15.9498 40.9376C16.0052 41.0167 16.0763 41.0836 16.1587 41.134C16.2411 41.1844 16.333 41.2173 16.4287 41.2306C16.5244 41.2439 16.6218 41.2373 16.7148 41.2112L19.9688 40.2918C20.1383 40.2455 20.2839 40.1365 20.3759 39.9869C20.468 39.8373 20.4998 39.6582 20.4647 39.4861L19.9895 36.9242C19.971 36.826 19.9317 36.7328 19.8743 36.651C19.8169 36.5692 19.7427 36.5006 19.6566 36.4497C19.5706 36.3989 19.4747 36.367 19.3753 36.3562C19.2759 36.3454 19.1754 36.3559 19.0804 36.387L15.8574 37.4923C15.6939 37.5427 15.5549 37.6519 15.4671 37.7988C15.3793 37.9457 15.3491 38.1199 15.3822 38.2878Z" fill="#66BCFF"/>
<path d="M14.3488 33.6699L14.8033 36.0355C14.8187 36.1303 14.8549 36.2205 14.9093 36.2996C14.9637 36.3788 15.0349 36.4449 15.1178 36.4933C15.2007 36.5417 15.2934 36.5711 15.389 36.5795C15.4847 36.5879 15.581 36.575 15.6711 36.5417L18.8941 35.5087C19.0606 35.4543 19.2021 35.3421 19.293 35.1924C19.384 35.0427 19.4183 34.8654 19.3899 34.6926L18.9561 32.1307C18.9373 32.0336 18.8973 31.9418 18.8389 31.8619C18.7805 31.782 18.7052 31.716 18.6183 31.6687C18.5315 31.6213 18.4352 31.5937 18.3365 31.5878C18.2377 31.582 18.1389 31.5981 18.047 31.6349L14.824 32.8642C14.6609 32.9186 14.5231 33.0301 14.4357 33.1782C14.3484 33.3262 14.3175 33.5009 14.3488 33.6699Z" fill="#66BCFF"/>
<path d="M41.2799 30.2093L50.1742 31.5006C51.6494 31.717 53.1552 31.57 54.5609 31.0725C55.9665 30.575 57.2294 29.742 58.2402 28.6458C59.2509 27.5496 59.9788 26.2233 60.3608 24.782C60.7428 23.3407 60.7672 21.8279 60.432 20.375C60.0981 18.9217 59.415 17.5717 58.4418 16.442C57.4685 15.3122 56.2346 14.4368 54.8467 13.8914C53.4589 13.346 51.959 13.1472 50.4771 13.3122C48.9951 13.4771 47.5756 14.0008 46.3416 14.838L38.9039 19.8895C37.9575 20.5333 37.2276 21.448 36.8098 22.5137C36.3921 23.5794 36.306 24.7464 36.5628 25.8619C36.8196 26.9774 37.4074 27.9893 38.2491 28.765C39.0908 29.5408 40.1472 30.0442 41.2799 30.2093Z" fill="#3F99F2"/>
<path d="M52.4221 30.5705C56.427 30.5481 59.6538 26.9503 59.6291 22.5346C59.6044 18.1188 56.3377 14.5572 52.3327 14.5796C48.3277 14.602 45.101 18.1998 45.1257 22.6156C45.1504 27.0313 48.4171 30.5929 52.4221 30.5705Z" fill="black"/>
<mask id="mask0_331_2637" style="mask-type:alpha" maskUnits="userSpaceOnUse" x="45" y="14" width="15" height="17">
<path d="M52.4221 30.5707C56.427 30.5484 59.6537 26.9506 59.6291 22.5348C59.6044 18.119 56.3377 14.5575 52.3327 14.5799C48.3277 14.6022 45.101 18.2 45.1257 22.6158C45.1504 27.0316 48.4171 30.5931 52.4221 30.5707Z" fill="black"/>
</mask>
<g mask="url(#mask0_331_2637)">
<path d="M43.2012 20.365C44.2993 20.5396 45.4245 20.3679 46.4205 19.8736C47.4166 19.3793 48.2338 18.587 48.7588 17.6068C49.9881 15.9333 52.395 24.59 55.2565 16.7081C55.6284 15.6751 56.7027 19.4249 59.1716 18.7741C59.1716 18.7741 53.3764 12.2351 53.3144 12.2351C53.2524 12.2351 45.3499 16.3672 45.3499 16.3672L43.2012 20.365Z" fill="white"/>
</g>
<path d="M60.2767 30.9428C60.0831 29.441 59.499 28.0162 58.5826 26.8108C57.1298 24.7169 55.0214 23.1662 52.5899 22.4031C50.1584 21.64 47.542 21.7079 45.1533 22.596C45.1609 23.9417 45.479 25.2674 46.083 26.4699C48.4858 26.9989 50.5808 28.4588 51.9093 30.5296C52.6672 31.6359 53.2751 32.8378 53.717 34.1039C55.1116 38.0294 60.6486 35.953 60.2767 30.9428Z" fill="#EB459F"/>
<mask id="mask1_331_2637" style="mask-type:alpha" maskUnits="userSpaceOnUse" x="45" y="14" width="15" height="17">
<path d="M52.4221 30.5707C56.427 30.5484 59.6537 26.9506 59.6291 22.5348C59.6044 18.119 56.3377 14.5575 52.3327 14.5799C48.3277 14.6022 45.101 18.2 45.1257 22.6158C45.1504 27.0316 48.4171 30.5931 52.4221 30.5707Z" fill="black"/>
</mask>
<g mask="url(#mask1_331_2637)">
<path d="M55.5561 28.4638C55.5027 28.4654 55.45 28.4517 55.4043 28.4242C55.3585 28.3968 55.3215 28.3567 55.2978 28.3089C53.4384 24.8069 50.8869 22.7306 47.7052 22.1108C46.2967 21.8374 44.8443 21.8904 43.4594 22.2657C43.3827 22.2887 43.3001 22.2812 43.2288 22.2446C43.1575 22.208 43.1032 22.1452 43.0772 22.0695C43.0644 22.0315 43.0594 21.9914 43.0624 21.9514C43.0653 21.9115 43.0763 21.8725 43.0946 21.8369C43.1129 21.8012 43.1382 21.7696 43.1689 21.7439C43.1996 21.7182 43.2352 21.6989 43.2735 21.6872C44.7453 21.2845 46.2904 21.2279 47.7878 21.5219C50.1121 21.9455 53.3868 23.4227 55.8247 27.999C55.8618 28.0705 55.8695 28.1536 55.8464 28.2307C55.8233 28.3078 55.771 28.3729 55.7007 28.4122C55.6572 28.4405 55.6077 28.4582 55.5561 28.4638Z" fill="black"/>
</g>
<path d="M39.4715 19.5073C38.7076 21.3257 38.5219 23.3351 38.9396 25.2627C39.3572 27.1903 40.3581 28.9426 41.8061 30.2817L44.2441 30.6433C38.9137 25.8707 40.4839 20.5817 41.9095 17.8545L39.4715 19.5073Z" fill="#1416A8"/>
<path d="M50.1124 49.3513C49.2963 49.9814 48.16 51.9132 47.3129 52.6776L35.5675 41.6449C35.3809 41.4508 35.1567 41.2967 34.9085 41.1921C34.6604 41.0874 34.3936 41.0344 34.1243 41.0362C33.855 41.038 33.5889 41.0946 33.3422 41.2026C33.0955 41.3106 32.8734 41.4677 32.6894 41.6644C32.5054 41.861 32.3634 42.0931 32.272 42.3464C32.1806 42.5997 32.1418 42.8689 32.1578 43.1378C32.1739 43.4066 32.2445 43.6693 32.3654 43.9099C32.4863 44.1506 32.6549 44.3641 32.861 44.5374L45.7014 56.4894L46.3316 57.1402C46.4471 57.2589 46.5852 57.3533 46.7378 57.4177C46.8904 57.4821 47.0543 57.5153 47.22 57.5153C47.3856 57.5153 47.5495 57.4821 47.7021 57.4177C47.8547 57.3533 47.9928 57.2589 48.1084 57.1402C50.1124 54.9915 52.1578 47.7914 50.1124 49.3513Z" fill="#57F287"/>
<path d="M36.7341 42.7398L37.2506 42.3885C37.6985 42.0808 38.0071 41.609 38.1095 41.0753C38.212 40.5417 38.1001 39.9891 37.7981 39.5374C37.492 39.0879 37.0209 38.7772 36.4871 38.6727C35.9534 38.5683 35.4 38.6785 34.947 38.9796L32.0442 40.9423L27.8501 40.8287C27.3056 40.8147 26.7776 41.0164 26.381 41.3898C25.9844 41.7631 25.7513 42.278 25.7324 42.8224C25.7306 43.3412 25.924 43.8418 26.2742 44.2246C26.6245 44.6073 27.1059 44.8443 27.6229 44.8884L27.065 47.3677C28.3666 47.0268 29.6889 47.3677 30.35 49.3614L30.443 49.0515L31.3624 45.8491L31.507 46.345L31.9099 47.6879C31.9099 47.6879 33.4078 44.9814 35.918 46.3863L36.2279 47.6363L37.5295 48.8449C37.6328 47.8119 38.015 46.0351 39.4613 45.2707L36.7341 42.7398Z" fill="black"/>
</svg>
