<svg width="70" height="70" viewBox="0 0 70 70" fill="none" xmlns="http://www.w3.org/2000/svg">
<g clip-path="url(#clip0_331_2164)">
<rect width="70" height="70" rx="35" fill="#5865F2"/>
<path d="M52.4377 50.1054C51.933 50.2247 51.4044 50.1923 50.918 50.0122C50.4318 49.832 50.0095 49.5123 49.7043 49.093C49.3008 48.5115 49.1388 47.7962 49.2521 47.0976C49.3653 46.3989 49.7452 45.7716 50.3117 45.3473C54.8674 42.0064 55.6773 39.4755 55.1711 38.7669C54.7781 38.1732 54.6323 37.4496 54.7646 36.75C54.897 36.0505 55.297 35.4302 55.8798 35.0211C56.4576 34.6335 57.1653 34.4906 57.8482 34.6233C58.5311 34.7561 59.1338 35.1539 59.5243 35.7297C60.8404 37.552 62.8651 42.6139 53.4501 49.5992C53.171 49.8657 52.8182 50.042 52.4377 50.1054Z" fill="#4086EA"/>
<path d="M60.6384 39.3739C59.8285 33.8059 53.8555 34.717 45.6553 36.3368V36.6405C45.7682 36.9776 45.9483 37.2883 46.1845 37.5539C46.4209 37.8194 46.7085 38.0344 47.0302 38.1858C47.3519 38.3371 47.7009 38.4218 48.0561 38.4346C48.4114 38.4474 48.7656 38.3881 49.0973 38.2603C50.3122 37.8553 53.9567 37.0454 55.1716 38.7665C56.3864 40.4875 54.8679 42.0061 50.3122 45.3469C49.7457 45.7712 49.3658 46.3986 49.2525 47.0972C49.1393 47.7958 49.3013 48.5112 49.7048 49.0927C50.0099 49.5119 50.4322 49.8317 50.9185 50.0118C51.4047 50.1919 51.9335 50.2243 52.4382 50.105C52.8187 50.0417 53.1714 49.8653 53.4505 49.5989C59.1198 45.4481 60.6384 41.9048 60.6384 39.3739Z" fill="#0654B5"/>
<path d="M19.2323 65.2909C18.616 65.4306 17.97 65.3435 17.4124 65.0459C16.8547 64.7493 16.4227 64.2603 16.1952 63.6711C15.5066 61.8665 15.5316 59.8673 16.2652 58.0806C16.9986 56.2938 18.3856 54.8537 20.1435 54.0536L27.5338 50.6115C27.8529 50.4652 28.1976 50.3833 28.5484 50.3702C28.8992 50.3573 29.2491 50.4135 29.5781 50.5357C29.9071 50.6579 30.2088 50.8437 30.466 51.0825C30.7232 51.3214 30.9309 51.6085 31.0771 51.9276C31.2234 52.2467 31.3053 52.5914 31.3183 52.9422C31.3313 53.2929 31.2751 53.6427 31.1529 53.9717C31.0307 54.3008 30.8449 54.6026 30.606 54.8597C30.3672 55.1169 30.0801 55.3246 29.761 55.4709L22.3707 58.8117C21.834 59.0562 21.4103 59.4952 21.1847 60.0402C20.9592 60.5852 20.9489 61.1953 21.1558 61.7476C21.3916 62.4066 21.3655 63.131 21.083 63.7713C20.8004 64.4121 20.283 64.9193 19.6373 65.1896L19.2323 65.2909Z" fill="#4086EA"/>
<path d="M25.2052 54.7621C22.4718 55.8757 20.5483 57.7992 20.9533 61.0388C20.9497 60.5704 21.0816 60.111 21.3331 59.7159C21.5846 59.3207 21.9449 59.0066 22.3706 58.8116L28.1411 56.1794C27.4325 55.0658 26.4201 54.2559 25.2052 54.7621Z" fill="#0654B5"/>
<path d="M52.7418 45.8533C52.2779 45.0977 51.5892 44.506 50.7724 44.1611C49.9555 43.8163 49.0512 43.7353 48.1862 43.9298L27.7362 48.8904C26.8953 49.1066 26.1461 49.5874 25.5993 50.2619C25.0524 50.9363 24.7369 51.7687 24.6991 52.6362L24.1929 63.7723C24.101 66.4935 25.0004 69.1561 26.7239 71.2638C27.4704 72.1324 28.4405 72.7804 29.5292 73.1377C30.6177 73.4941 31.7832 73.5467 32.8993 73.2886L54.8678 67.923C55.968 67.6466 56.9725 67.0767 57.7747 66.2738C58.577 65.4721 59.1467 64.4678 59.4235 63.3673C59.99 60.6749 59.5582 57.8684 58.2086 55.4708L52.7418 45.8533Z" fill="#FF7259"/>
<path d="M26.7236 71.2636C27.4702 72.1322 28.4403 72.7801 29.5289 73.1375C30.6174 73.4938 31.783 73.5465 32.8991 73.2883L54.8676 67.9228C55.9677 67.6464 56.9723 67.0764 57.7745 66.2736C58.5767 65.4718 59.1465 64.4675 59.4233 63.3671C59.8497 61.3437 59.7096 59.2418 59.0183 57.2928L24.2939 65.6955C24.5449 67.7486 25.3893 69.6833 26.7236 71.2636Z" fill="#ED4C4C"/>
<path d="M56.0828 62.7601L29.3561 69.2392C28.0267 69.6128 26.6157 69.5774 25.3066 69.138C25.7116 69.8467 26.2178 70.5553 26.724 71.264C27.4705 72.1326 28.4406 72.7805 29.5292 73.1379C30.6178 73.4942 31.7833 73.5469 32.8994 73.2887L54.8679 67.9232C55.9681 67.6468 56.9726 67.0768 57.7748 66.274C58.577 65.4722 59.1468 64.4679 59.4236 63.3675C59.5373 62.5281 59.6048 61.6833 59.6261 60.8365C58.6561 61.8072 57.4252 62.4755 56.0828 62.7601Z" fill="#ED4C4C"/>
<path d="M43.3235 6.50751L12.3312 15.2191C8.29422 16.3537 5.94147 20.5463 7.07624 24.5832L12.336 43.2955C13.4708 47.3324 17.6632 49.6852 21.7002 48.5504L52.6925 39.8389C56.7295 38.7042 59.0821 34.5116 57.9474 30.4747L52.6877 11.7624C51.5529 7.7255 47.3605 5.37275 43.3235 6.50751Z" fill="#FF7259"/>
<path d="M56.9933 27.2258L57.9044 30.4654C58.1817 31.4293 58.2653 32.4385 58.1504 33.4348C58.0355 34.4312 57.7243 35.3949 57.2348 36.2703C56.7453 37.1457 56.0873 37.9155 55.2986 38.5351C54.51 39.1547 53.6065 39.612 52.6401 39.8805L21.6615 48.5869C20.7043 48.863 19.7016 48.9454 18.7121 48.8292C17.7227 48.7131 16.7664 48.4008 15.8991 47.9106C15.0318 47.4204 14.271 46.7622 13.6612 45.9743C13.0514 45.1865 12.6048 44.285 12.3477 43.3225L11.4365 40.083C11.6937 41.0454 12.1402 41.9469 12.7501 42.7348C13.3598 43.5226 14.1206 44.1808 14.9879 44.671C15.8552 45.1612 16.8116 45.4735 17.801 45.5896C18.7905 45.7058 19.7931 45.6234 20.7503 45.3473L51.8302 36.6409C52.7874 36.3617 53.6803 35.8967 54.4578 35.2725C55.2353 34.6482 55.8822 33.8769 56.3616 33.0026C56.8411 32.1284 57.1436 31.1683 57.252 30.1771C57.3604 29.1859 57.2725 28.183 56.9933 27.2258Z" fill="#ED4C4C"/>
<path d="M32.1542 40.0798L39.1713 38.1073C39.5849 37.9911 40.0277 38.0439 40.4024 38.2541C40.7769 38.4643 41.0528 38.8148 41.169 39.2284L42.1826 42.8343L32.1442 45.656L31.1307 42.0501C31.0182 41.653 31.0615 41.2281 31.2517 40.8619C31.442 40.4958 31.7647 40.2161 32.1542 40.0798Z" fill="#FFDC53"/>
<path d="M41.2435 39.5671L31.2051 42.3888L32.1146 45.6245L42.153 42.8028L41.2435 39.5671Z" fill="#F9B300"/>
<path d="M57.196 27.8332L53.4502 14.3687C54.4673 14.7401 55.3824 15.3463 56.1212 16.1379C56.86 16.9294 57.4017 17.8841 57.7022 18.9243L58.5121 21.759C58.8101 22.8015 58.8459 23.9016 58.6163 24.9613C58.3867 26.021 57.8989 27.0075 57.196 27.8332Z" fill="#FFDC53"/>
<path d="M57.9049 19.5316L58.5124 21.7588C58.8104 22.8014 58.8462 23.9014 58.6166 24.9611C58.387 26.0208 57.8992 27.0074 57.1963 27.8331L55.9814 23.5811C57.5 22.3663 58.2087 20.8477 57.9049 19.5316Z" fill="#F9B300"/>
<path d="M11.538 40.6904L7.79223 27.2258C7.08944 28.0515 6.60148 29.0381 6.37187 30.0977C6.14227 31.1575 6.17811 32.2575 6.47615 33.3001L7.28605 36.1347C7.58662 37.1749 8.12824 38.1296 8.86707 38.9212C9.6059 39.7127 10.521 40.3189 11.538 40.6904Z" fill="#FFDC53"/>
<path d="M10.3232 36.4383L11.5381 40.6902C10.521 40.3188 9.60588 39.7126 8.86705 38.921C8.12832 38.1294 7.5866 37.1748 7.28613 36.1346L6.67871 33.9073C6.98242 35.2234 8.39974 36.1346 10.3232 36.4383Z" fill="#F9B300"/>
<path d="M21.6797 9.89828L33.7648 6.50137C34.1008 6.40692 34.4606 6.44984 34.765 6.62063C35.0693 6.79142 35.2934 7.0762 35.3879 7.4122L35.744 8.67918L21.125 12.7884L20.7688 11.5214C20.6744 11.1854 20.7173 10.8256 20.8881 10.5212C21.0589 10.2168 21.3437 9.99274 21.6797 9.89828Z" fill="#70A9FA"/>
<path d="M23.5503 9.28783L33.881 6.38394C34.1912 6.29678 34.5233 6.33636 34.8043 6.49399C35.0852 6.65171 35.2921 6.91452 35.3792 7.22471L35.7628 8.58919L23.093 12.1505L22.7094 10.786C22.6222 10.4758 22.6618 10.1438 22.8195 9.86276C22.9771 9.58182 23.2401 9.375 23.5503 9.28783Z" fill="#4086EA"/>
<path d="M43.7068 12.5323L17.1976 19.9837C15.1523 20.5586 13.9602 22.6828 14.5351 24.7282L17.7541 36.1797C18.329 38.2251 20.4532 39.4172 22.4986 38.8423L49.0077 31.3908C51.0531 30.8159 52.2451 28.6917 51.6702 26.6463L48.4513 15.1948C47.8764 13.1494 45.7521 11.9574 43.7068 12.5323Z" fill="#ED4C4C"/>
<path d="M43.4959 11.8072L16.9867 19.2587C14.9413 19.8336 13.7493 21.9578 14.3242 24.0032L17.5431 35.4547C18.1181 37.5001 20.2422 38.6922 22.2876 38.1172L48.7968 30.6658C50.8422 30.0909 52.0341 27.9667 51.4592 25.9213L48.2404 14.4698C47.6654 12.4244 45.5413 11.2323 43.4959 11.8072Z" fill="black"/>
<path d="M25.4264 24.3934L19.8711 25.9548C19.5481 26.0457 19.3563 26.368 19.4425 26.6747C19.5287 26.9816 19.8604 27.1567 20.1834 27.0659L25.7387 25.5044C26.0616 25.4136 26.2535 25.0913 26.1672 24.7845C26.081 24.4777 25.7493 24.3025 25.4264 24.3934Z" fill="#FFF0A6"/>
<path d="M39.0995 21.6998L45.0445 20.0287C45.3675 19.9379 45.5593 19.6156 45.4732 19.3088C45.3869 19.002 45.0552 18.8269 44.7322 18.9176L38.7872 20.5887C38.4642 20.6795 38.2723 21.0018 38.3585 21.3086C38.4448 21.6155 38.7765 21.7905 39.0995 21.6998Z" fill="#FFF0A6"/>
<path d="M43.1234 45.1445L32.8984 47.6755L33.2022 55.0658C33.2138 55.2353 33.261 55.4004 33.3404 55.5504C33.4199 55.7005 33.53 55.8323 33.6635 55.9373C33.7971 56.0422 33.9512 56.1179 34.1158 56.1597C34.2804 56.2014 34.452 56.2081 34.6195 56.1794L45.4519 53.5472C45.6179 53.5063 45.7722 53.4279 45.903 53.3177C46.0338 53.2076 46.1374 53.0689 46.206 52.9123C46.2745 52.7556 46.306 52.5853 46.2981 52.4145C46.2902 52.2438 46.2431 52.0771 46.1605 51.9274L43.1234 45.1445Z" fill="#FFDC53"/>
<path d="M31.8867 28.4403C32.6069 27.2402 33.6964 26.3057 34.9922 25.7765C36.2878 25.2472 37.7201 25.1518 39.0746 25.5044" stroke="#FFF0A6" stroke-width="0.264307" stroke-linecap="round" stroke-linejoin="round"/>
<path d="M27.9388 69.3405C27.6528 69.381 27.3625 69.3081 27.1289 69.138L24.6992 66.6071C24.6043 66.4522 24.5643 66.269 24.5857 66.0888C24.6071 65.9086 24.6887 65.7405 24.8173 65.612C24.9459 65.4834 25.114 65.4014 25.2946 65.3801C25.4752 65.3589 25.6577 65.3983 25.8128 65.4935L28.3438 68.0244C28.4862 68.1753 28.5656 68.3737 28.5656 68.5812C28.5656 68.7888 28.4862 68.9872 28.3438 69.138L27.9388 69.3405Z" fill="#22262E"/>
<path d="M25.711 70.3526H25.6097C25.3846 70.3536 25.1669 70.2716 24.9988 70.1228C24.8305 69.973 24.7236 69.7665 24.6986 69.5427L24.4961 66.1007C24.4945 65.9022 24.5658 65.7099 24.6965 65.5611C24.8271 65.4112 25.0079 65.3151 25.2048 65.2908C25.3112 65.2766 25.4195 65.2837 25.5232 65.312C25.6268 65.3404 25.7239 65.388 25.8087 65.4548C25.8935 65.5206 25.9644 65.6026 26.017 65.6957C26.0698 65.7899 26.1034 65.8931 26.1159 65.9994L26.3184 69.4415C26.3295 69.6389 26.2764 69.8343 26.1667 69.9983C26.0572 70.1633 25.8972 70.2868 25.711 70.3526Z" fill="#22262E"/>
<path d="M24.8004 68.5303H22.5732C21.1696 68.3744 19.8349 67.8399 18.7116 66.9834C17.5882 66.128 16.7184 64.983 16.1952 63.6709C16.065 63.3456 16.0012 62.9975 16.0072 62.6472C16.0134 62.2968 16.0893 61.9512 16.2309 61.6306C16.3723 61.31 16.5763 61.0209 16.8309 60.7802C17.0856 60.5395 17.3858 60.3521 17.7138 60.2289C18.3728 59.9932 19.0973 60.0192 19.7376 60.3018C20.378 60.5843 20.8857 61.1017 21.1559 61.7474C21.3037 62.1543 21.5619 62.512 21.9017 62.7802C22.2414 63.0485 22.6493 63.2167 23.0794 63.266H24.3954C24.7415 63.2916 25.079 63.3854 25.3887 63.5413C25.6984 63.6983 25.974 63.9149 26.1998 64.1781C26.4257 64.4414 26.5972 64.7471 26.7045 65.0771C26.8118 65.4072 26.8528 65.7544 26.8251 66.1006C26.8138 66.6756 26.6071 67.2294 26.2391 67.6708C25.8711 68.1122 25.3637 68.4159 24.8004 68.5303Z" fill="#4086EA"/>
<path d="M45.554 38.9691C45.3868 39.0113 45.2106 38.999 45.0509 38.9341C44.8912 38.8692 44.7564 38.755 44.666 38.6083C44.5757 38.4615 44.5345 38.2897 44.5486 38.1179C44.5627 37.9461 44.6311 37.7832 44.7441 37.653L47.1738 35.3245C47.2378 35.2201 47.3245 35.1315 47.4277 35.0655C47.5308 34.9993 47.6476 34.9575 47.7692 34.9432C47.8907 34.9287 48.0141 34.9421 48.1298 34.9821C48.2455 35.0223 48.3507 35.0881 48.4372 35.1747C48.5238 35.2614 48.5897 35.3664 48.6298 35.4822C48.6699 35.5979 48.6832 35.7212 48.6687 35.8428C48.6544 35.9643 48.6126 36.0812 48.5465 36.1842C48.4804 36.2874 48.3919 36.3742 48.2874 36.4381L45.8577 38.7666L45.554 38.9691Z" fill="#22262E"/>
<path d="M47.9839 36.6406H47.3765L44.3394 35.2233C44.2456 35.1708 44.1634 35.1001 44.0973 35.0154C44.0312 34.9307 43.9826 34.8338 43.9543 34.7301C43.926 34.6265 43.9187 34.5182 43.9326 34.4117C43.9466 34.3052 43.9816 34.2025 44.0357 34.1097C44.078 34.0193 44.1388 33.9389 44.2143 33.8737C44.2899 33.8085 44.3784 33.7599 44.4738 33.7313C44.5694 33.7026 44.67 33.6944 44.7689 33.7074C44.8678 33.7202 44.963 33.7539 45.048 33.806L48.0852 35.2233C48.1874 35.2667 48.2797 35.3307 48.3563 35.4114C48.4327 35.4921 48.4918 35.5876 48.5298 35.692C48.5678 35.7965 48.5839 35.9077 48.5771 36.0186C48.5702 36.1296 48.5406 36.2379 48.4901 36.3369C48.3553 36.4863 48.1791 36.5919 47.9839 36.6406Z" fill="#22262E"/>
<path d="M47.9836 36.6406H44.4403C44.339 36.6552 44.2359 36.6478 44.1379 36.6188C44.0399 36.5898 43.9493 36.5399 43.8723 36.4726C43.7954 36.4052 43.7339 36.322 43.6921 36.2288C43.6503 36.1354 43.6292 36.0342 43.6304 35.932C43.6157 35.8307 43.6232 35.7277 43.6521 35.6296C43.6812 35.5316 43.7311 35.441 43.7984 35.364C43.8657 35.2871 43.9489 35.2256 44.0422 35.1838C44.1355 35.1421 44.2368 35.1211 44.339 35.1221H47.6799C47.7863 35.1079 47.8946 35.1151 47.9983 35.1431C48.1019 35.1713 48.199 35.2197 48.2837 35.2856C48.3686 35.3516 48.4394 35.4337 48.4921 35.5273C48.5448 35.6209 48.5784 35.724 48.591 35.8307C48.5812 36.0106 48.5182 36.1836 48.4101 36.3278C48.302 36.472 48.1535 36.5808 47.9836 36.6406Z" fill="#22262E"/>
<path d="M58.0063 39.7789C57.4869 39.9203 56.9368 39.8989 56.43 39.7179C55.9231 39.5369 55.4839 39.2048 55.1716 38.7666C53.9568 37.0455 50.3122 37.8554 49.0974 38.2604C48.7656 38.3881 48.4115 38.4475 48.0563 38.4346C47.7009 38.4219 47.3519 38.3372 47.0303 38.1859C46.7087 38.0344 46.421 37.8195 46.1847 37.5539C45.9484 37.2883 45.7683 36.9776 45.6553 36.6406C45.4551 35.982 45.5107 35.2723 45.811 34.653C46.1113 34.0336 46.6341 33.5504 47.2751 33.2998C50.4135 32.1862 56.4877 31.3762 59.5248 35.7294C59.7353 36.0045 59.887 36.3199 59.9707 36.656C60.0544 36.9921 60.0681 37.3418 60.0112 37.6834C59.9543 38.025 59.8278 38.3514 59.6396 38.6422C59.4515 38.9329 59.2057 39.182 58.9174 39.374C58.6572 39.591 58.3418 39.7313 58.0063 39.7789Z" fill="#4086EA"/>
<path d="M15.79 62.3549C15.8643 62.8099 16.0006 63.2527 16.1949 63.6709C16.7182 64.983 17.5879 66.128 18.7112 66.9834C19.8346 67.8399 21.1693 68.3744 22.5729 68.5303H24.8001C25.347 68.42 25.8422 68.1315 26.2084 67.7103C26.5745 67.2892 26.7913 66.7587 26.8248 66.2019C20.5481 67.2143 16.3975 64.2784 15.79 62.3549Z" fill="#0654B5"/>
<path d="M60.031 37.3494C58.1075 34.1098 52.6406 34.9197 45.6553 36.3371V36.6408C45.7682 36.9779 45.9483 37.2886 46.1845 37.5541C46.4209 37.8197 46.7085 38.0347 47.0302 38.186C47.3519 38.3374 47.7009 38.422 48.0561 38.4349C48.4114 38.4476 48.7656 38.3883 49.0973 38.2606C50.3122 37.8556 53.9567 37.0457 55.1716 38.7667L57.2976 42.0063L60.2334 39.0705L60.031 37.3494Z" fill="#0654B5"/>
<path d="M15.6885 60.8364V61.5451C16.4429 60.9312 17.3813 60.5877 18.3538 60.5694C19.3263 60.5509 20.277 60.8589 21.0541 61.4438V61.0389C20.3626 60.3123 19.4147 59.8846 18.4124 59.8467C17.4101 59.809 16.4327 60.164 15.6885 60.8364Z" fill="black"/>
<path d="M21.9652 53.1425L21.459 53.4462C22.2479 53.9777 22.855 54.7379 23.1989 55.6247C23.5428 56.5115 23.6069 57.4824 23.3826 58.4068L23.8888 58.1031C24.2937 55.5722 23.4837 53.9524 21.9652 53.1425Z" fill="black"/>
<path d="M21.7626 62.6585C21.2241 62.6038 20.6808 62.6939 20.1888 62.9195C19.6967 63.1452 19.274 63.4988 18.9643 63.9422C18.6546 64.3867 18.4691 64.905 18.4271 65.4446C18.3851 65.9842 18.4882 66.5248 18.7255 67.0117L19.4341 67.5179C18.7255 64.8857 19.5354 63.5697 21.9651 62.861L21.7626 62.6585Z" fill="black"/>
<path d="M17.2076 56.3823L16.8027 56.8885C18.9287 55.4712 21.3584 58.1034 21.5609 59.4194L21.8646 59.1157C21.8352 58.5819 21.6744 58.0636 21.3961 57.607C21.1178 57.1504 20.7308 56.7699 20.2697 56.4992C19.8086 56.2286 19.2876 56.0762 18.7534 56.0558C18.219 56.0354 17.6881 56.1476 17.2076 56.3823Z" fill="black"/>
<path d="M56.3858 47.1695C55.5759 43.6261 53.9561 43.3224 52.8425 43.2212L52.4375 43.6261C55.3734 44.2336 55.9808 47.5744 55.9808 47.5744L56.3858 47.1695Z" fill="black"/>
<path d="M54.9691 40.3865L54.7666 40.9939C57.5 40.8927 58.9173 41.9051 59.4235 43.5249L59.8285 42.715C58.3099 40.4878 56.7914 39.8803 54.9691 40.3865Z" fill="black"/>
<path d="M50.8184 32.4901H50.0085C49.6035 34.0087 49.806 36.4384 51.2233 37.6532H51.7295C50.7566 36.1198 50.4292 34.264 50.8184 32.4901Z" fill="black"/>
<path d="M54.2607 38.0581C55.1152 36.4703 55.7293 34.7643 56.083 32.9962L56.7917 33.2999C56.5054 35.1015 55.8506 36.8247 54.8682 38.3618L54.2607 38.0581Z" fill="black"/>
</g>
<defs>
<clipPath id="clip0_331_2164">
<rect width="70" height="70" rx="35" fill="white"/>
</clipPath>
</defs>
</svg>
