<svg width="70" height="70" viewBox="0 0 70 70" fill="none" xmlns="http://www.w3.org/2000/svg">
<g clip-path="url(#clip0_331_2564)">
<rect width="70" height="70" rx="35" fill="#6F93DE"/>
<path opacity="0.91" d="M58.0746 64.6394C54.7832 64.6394 52.1131 61.9724 52.1131 58.6779C52.1131 55.3865 54.7832 52.7163 58.0746 52.7163C61.366 52.7163 64.0361 55.3865 64.0361 58.6779C64.0361 61.9724 61.366 64.6394 58.0746 64.6394Z" fill="#EDBA7E"/>
<path d="M46.6531 22.5317C46.6531 22.5317 47.2806 15.1896 38.6835 15.4407H37.5853C34.592 14.6249 31.4449 14.5621 28.4233 15.2524C15.0883 17.888 13.2057 26.642 13.2057 26.642C13.325 31.6215 13.8302 36.5821 14.7118 41.4832C16.2493 50.2058 21.1754 55.9163 37.8991 57.1714C54.6227 58.4265 58.6075 45.9386 58.8272 33.1998C58.9527 25.8263 46.6531 22.5317 46.6531 22.5317Z" fill="#86D7C6"/>
<path d="M45.5556 40.95C48.5834 41.1696 51.6112 40.4825 54.2469 38.9733C55.4392 38.0634 56.2236 38.9733 55.0313 41.6403C53.839 44.3073 52.7722 46.4409 51.0465 46.7547C49.3522 47.0433 47.6139 46.6731 46.1831 45.7192C44.5516 44.7779 41.1629 40.7931 45.5556 40.95Z" fill="#64C3C1"/>
<path d="M25.5374 20.2729C29.2241 17.9573 33.3093 16.3383 37.5859 15.5037C34.5926 14.6879 31.4456 14.6251 28.424 15.3154C15.089 17.951 13.2064 26.7051 13.2064 26.7051C13.3256 31.6845 13.8308 36.6451 14.7125 41.5461C15.0576 43.6797 15.7354 45.7443 16.7206 47.6646C25.1609 50.1119 34.9817 52.4965 34.8562 50.3002C34.966 46.2777 33.8741 42.3117 31.7185 38.9105C29.3339 36.0866 25.9766 31.6625 23.5293 28.2739C21.0819 24.8852 22.5252 22.3751 25.5374 20.2729Z" fill="#64C3C1"/>
<path d="M16.2494 24.4148L14.4924 23.8186C13.9119 24.7066 13.4757 25.6824 13.2059 26.7052C13.3094 31.1764 13.7268 35.6318 14.461 40.0402L16.626 36.5888L16.2494 24.4148Z" fill="#4895A3"/>
<path d="M13.4252 36.7764L5.86345 37.8432C6.10191 36.2242 5.87913 34.5675 5.2265 33.0645C4.57073 31.5616 3.51023 30.272 2.16104 29.3401C3.049 28.926 3.84281 28.333 4.4923 27.5988C5.14494 26.8677 5.64067 26.0111 5.9513 25.0792C6.26193 24.1505 6.38116 23.1684 6.30272 22.1895C6.22114 21.2137 5.94504 20.2629 5.48695 19.3938L14.1468 22.3746C14.9438 22.6413 15.6498 23.1307 16.1706 23.7896C16.6946 24.4454 17.0178 25.2424 17.0962 26.077C17.2155 27.354 16.977 28.6342 16.406 29.7794C16.5534 30.0022 16.6884 30.2344 16.8139 30.4697C17.1245 31.1004 17.2814 31.7938 17.2688 32.4935C17.2563 33.1932 17.0774 33.8803 16.7448 34.4984C16.4154 35.1165 15.9416 35.6437 15.3611 36.0422C14.7838 36.4375 14.1218 36.6917 13.4252 36.7764Z" fill="#86D7C6"/>
<path d="M4.60957 37.7181C4.62212 37.8091 4.65036 37.8969 4.69743 37.9785C4.74135 38.057 4.80408 38.126 4.87625 38.1825C4.94841 38.239 5.03314 38.2766 5.12099 38.3017C5.21198 38.3237 5.30299 38.3299 5.39398 38.3142L14.5246 36.9651C15.5474 36.8333 16.4761 36.3062 17.1162 35.4966C17.7532 34.6871 18.0513 33.6611 17.9446 32.6351C17.7689 31.631 17.3955 30.6709 16.8464 29.8112C17.5241 28.4432 17.7532 26.8963 17.5053 25.3871C17.3798 24.6749 17.066 24.0097 16.5954 23.4575C16.1279 22.9052 15.5223 22.4911 14.8383 22.2495L5.645 19.1118C5.56342 19.0836 5.47557 19.0742 5.38771 19.0805C5.303 19.0867 5.21825 19.1118 5.13981 19.1526C5.0645 19.1934 4.99551 19.2499 4.94217 19.3189C4.88883 19.3879 4.85115 19.4664 4.82918 19.5511C4.79467 19.7048 4.81981 19.8649 4.89511 20.0029C4.96728 20.141 5.08962 20.2477 5.23709 20.3042C7.08831 20.9631 13.3008 23.2221 14.4931 23.8497C14.8038 24.0568 15.0642 24.3297 15.2587 24.6498C15.4501 24.9698 15.5725 25.3275 15.6102 25.7009C15.6509 26.0712 15.607 26.4476 15.4847 26.7991C15.3623 27.1536 15.1615 27.4737 14.9011 27.7404C13.6209 28.6315 12.0552 29.0111 10.5083 28.8072L1.84843 29.0268C1.74174 29.0268 1.63507 29.0488 1.5378 29.0927C1.4374 29.1366 1.34954 29.1994 1.28051 29.2809C1.20835 29.3594 1.155 29.4566 1.12362 29.5571C1.09224 29.6606 1.08282 29.7673 1.09537 29.8739C1.11106 30.0622 1.19581 30.2411 1.33701 30.3666C1.47506 30.4952 1.66017 30.5674 1.84843 30.5642H10.7907C12.5478 30.5642 14.65 31.129 15.2776 32.3841C15.425 32.7167 15.4909 33.0775 15.469 33.4383C15.447 33.7992 15.3372 34.1506 15.1458 34.458C14.9575 34.7687 14.6971 35.026 14.3865 35.2111C14.0759 35.3962 13.7244 35.5029 13.3636 35.5217C11.8261 35.8355 7.08829 36.6199 5.17433 36.9337C5.08647 36.9462 5.00491 36.9745 4.92647 37.0184C4.85116 37.0623 4.78526 37.1219 4.73506 37.1941C4.68172 37.2631 4.64408 37.3416 4.62212 37.4263C4.60015 37.5142 4.59702 37.602 4.60957 37.6867V37.7181Z" fill="#64C3C1"/>
<path d="M73.0407 65.5803C71.6915 71.8556 66.0437 71.6674 62.6865 71.6674H-0.945068C-0.945068 71.6674 -2.73354 62.2544 11.982 45.2484L11.4173 41.2635C11.3483 40.7396 11.4769 40.2093 11.7812 39.7731C12.0825 39.3401 12.5343 39.0327 13.0489 38.9103L14.3039 38.6279L14.8059 41.5459C23.5066 43.2089 32.336 44.1125 41.1936 44.2443C41.4728 44.2725 41.7333 44.4075 41.9152 44.6209C42.731 45.7504 45.3667 49.2959 47.312 52.3394C49.5115 49.823 51.2811 46.9615 52.5519 43.8678C52.6021 43.7454 52.6805 43.6356 52.7872 43.554C52.8907 43.4693 53.0162 43.416 53.148 43.3972C54.7796 43.0928 56.3923 42.6943 57.98 42.2048V41.5773L58.7644 41.8597C58.9181 41.9193 59.0593 42.0103 59.1692 42.1327C59.2821 42.2551 59.3637 42.4025 59.4045 42.5625C59.4484 42.7226 59.4516 42.892 59.4171 43.052C59.3825 43.2152 59.3104 43.3658 59.2037 43.4913L56.4739 46.7858C56.4739 46.7858 57.0073 47.1623 57.9486 47.6957C62.4355 50.3 63.3767 51.9002 63.7533 53.971C66.8909 54.2848 68.0832 53.971 69.1814 55.2261C69.6207 55.6967 69.6834 56.1674 69.5893 57.799C71.2209 60.0267 73.5427 63.1643 73.0407 65.5803Z" fill="#3C5293"/>
<path d="M59.0473 59.4936L58.6081 60.0898C59.0128 58.8348 59.2231 57.5201 59.2356 56.1991C58.9156 52.9203 57.99 49.7293 56.5059 46.7862L59.2356 43.4917L54.3095 45.3429L47.3439 57.2032L39.5312 46.441L30.1182 45.5625C23.0899 44.9036 13.4573 44.4643 11.2923 41.2639L11.8571 45.2487C-2.85845 62.1607 -1.06998 71.6677 -1.06998 71.6677H62.687C65.9816 71.6677 71.5038 71.9188 72.9785 65.8317L59.0473 59.4936Z" fill="#334489"/>
<path d="M53.5503 68.7874C51.172 68.0908 50.2935 63.9303 51.5893 59.4874C52.8851 55.0445 55.8628 52.0072 58.2443 52.7007C60.6226 53.3941 61.5011 57.5577 60.2053 62.0006C58.9094 66.4404 55.9318 69.4808 53.5503 68.7874Z" fill="#262537"/>
<path d="M62.9382 61.5324C63.07 59.6121 62.6715 57.6918 61.7867 55.9818C60.9019 54.2718 59.5621 52.8379 57.918 51.837C56.2739 51.0683 54.4384 50.8047 52.6468 51.084C50.3249 51.084 50.168 51.7429 49.2894 53.8451C49.0918 54.3565 48.9318 54.8805 48.8188 55.4139C48.8188 55.4139 40.6923 55.665 39.6569 58.7399C37.8057 64.168 40.0962 64.6386 42.5122 64.0738L46.0577 63.3208C45.7659 64.5382 45.5682 65.7776 45.4616 67.0232C45.2419 68.8117 46.246 69.8785 49.5091 69.8471H52.6468C57.1963 69.9099 62.499 69.1568 62.9382 61.5324Z" fill="#86D7C6"/>
<path d="M-2.26269 52.9673C-2.26269 52.9673 -10.6089 48.9825 -12.4287 56.2619C-12.4601 56.4156 -12.4444 56.5725 -12.391 56.7169C-12.3345 56.8612 -12.2404 56.9867 -12.1149 57.0777L-10.9226 57.9562C-9.51692 58.9603 -8.38741 60.2969 -7.62809 61.8469C-6.65542 63.855 -2.01168 69.2204 -0.348727 64.3884C0.329005 62.4807 0.507827 60.4287 0.175236 58.43C-0.160493 56.4313 -0.998222 54.5519 -2.26269 52.9673Z" fill="#60BAB3"/>
<path d="M13.206 74.9928C7.46413 79.6365 3.51071 71.8552 3.51071 71.8552C3.51071 71.8552 -1.50952 75.6831 -5.05506 71.8552C-9.44777 67.1487 -5.05507 64.011 -1.72916 62.0343C1.59675 60.0576 2.82043 59.4615 4.54614 60.0576C6.24988 60.7605 7.67126 62.0092 8.59373 63.6031C8.93574 64.1742 9.23067 64.7735 9.47227 65.3916C10.8999 64.6511 12.5283 64.3875 14.116 64.6386C15.0447 64.8676 15.8793 65.3728 16.5068 66.0913C17.1375 66.8098 17.5297 67.7072 17.6301 68.6547C17.8811 71.3217 16.6261 72.2317 13.206 74.9928Z" fill="#67C8C1"/>
<path d="M29.3019 28.8695C29.3019 28.8695 42.0093 23.9434 50.3241 25.3239C50.3241 25.3239 59.4233 35.6468 51.3595 36.7136C47.3308 37.1341 43.2581 36.6477 39.4427 35.2891C35.6273 33.9337 32.1603 31.7404 29.3019 28.8695Z" fill="#471D33"/>
<path d="M51.0772 36.7457H51.3595C59.4233 35.6789 50.3241 25.356 50.3241 25.356C46.5997 24.9199 42.8283 25.152 39.1855 26.0463C42.1035 26.1686 44.8866 27.3045 47.0578 29.2561C49.2259 31.2109 50.6473 33.859 51.0772 36.7457Z" fill="#52223B"/>
<path d="M26.3524 27.0815C28.7496 25.8609 31.0118 24.3862 33.0984 22.6888C33.6631 22.1868 34.3534 21.9044 34.0396 22.6888C33.318 24.0819 32.2543 25.2679 30.9491 26.137C29.6407 27.003 28.1346 27.5239 26.572 27.6463C26.2269 27.7404 25.7562 27.4266 26.3524 27.0815Z" fill="#482E41"/>
<path d="M43.3584 21.7162L46.4961 22.532C45.696 23.0403 44.7359 23.238 43.8009 23.0874C42.8659 22.9368 42.0155 22.4504 41.4131 21.7162C41.2249 21.3711 41.6014 21.3083 43.3584 21.7162Z" fill="#482E41"/>
<path d="M38.1817 31.3804C36.2363 31.7569 33.6948 29.7488 32.5025 28.7134C34.3851 28.2427 36.9894 27.6152 39.7505 27.0818C39.8446 28.6506 39.8446 31.0666 38.1817 31.3804Z" fill="#F3E4C0"/>
<path d="M47.9397 31.2549C46.3395 31.2549 44.1745 28.3997 43.5156 26.5171C45.4704 26.2315 47.4409 26.0746 49.4144 26.0464C49.791 28.0859 48.7555 31.2549 47.9397 31.2549Z" fill="#F3E4C0"/>
<path d="M52.6465 36.4316C52.226 36.5665 51.7962 36.6606 51.36 36.7139C47.667 37.216 43.9113 36.8614 40.3783 35.6785C42.1542 34.2226 44.3568 33.3849 46.6536 33.2939C47.849 33.1904 49.0476 33.4319 50.1081 33.9873C51.1718 34.5427 52.0503 35.393 52.6465 36.4316Z" fill="#D47299"/>
<path d="M8.46875 63.6974L8.24914 63.9798L7.15094 65.0779C6.89993 65.3321 6.60186 65.5329 6.27241 65.6678C5.94609 65.8059 5.59153 65.8749 5.23697 65.8749C4.88242 65.8749 4.52786 65.8059 4.20155 65.6678C3.87209 65.5329 3.57402 65.3321 3.32301 65.0779C2.82412 64.5728 2.54175 63.8919 2.54175 63.1797C2.54175 62.4706 2.82412 61.7866 3.32301 61.2814L4.4212 60.1519C6.12495 60.8547 7.54942 62.1034 8.46875 63.6974Z" fill="#E2D4B2"/>
<path d="M17.5674 68.7496L16.4379 69.8791C16.19 70.149 15.8919 70.3624 15.5593 70.513C15.2267 70.6636 14.8659 70.742 14.5019 70.7483C14.138 70.7546 13.7771 70.6887 13.4383 70.5506C13.1025 70.4157 12.795 70.2086 12.5377 69.9513C12.2805 69.694 12.0797 69.3834 11.9447 69.0445C11.8098 68.7057 11.7471 68.3448 11.7565 67.9809C11.7659 67.6169 11.8506 67.2561 12.0012 66.9266C12.155 66.594 12.3715 66.2959 12.6413 66.0512L13.7395 64.9531C13.8619 64.8119 14.0125 64.6958 14.1788 64.6079C15.1012 64.8652 15.9233 65.4017 16.5288 66.1422C17.1375 66.8827 17.4984 67.7957 17.5674 68.7496Z" fill="#E2D4B2"/>
<path d="M55.5332 54.8186L49.2579 53.438L49.0697 53.8458C48.872 54.3573 48.712 54.8813 48.599 55.4147L55.5332 54.8186Z" fill="#60BAB3"/>
<path d="M42.9823 60.0272C42.8944 59.7071 42.7407 59.4091 42.5305 59.1518C42.3234 58.8913 42.0629 58.678 41.7711 58.5211C41.4762 58.3673 41.1561 58.2732 40.8236 58.245C40.4941 58.2199 40.1584 58.2607 39.8446 58.3642L39.6655 58.4113L39.4367 58.5525C38.5582 61.1567 38.621 62.6001 39.1857 63.3531C39.4117 63.4159 39.6501 63.4159 39.876 63.3531L41.2252 62.9765C41.8464 62.8134 42.3798 62.4149 42.7062 61.8627C43.0356 61.3105 43.136 60.6515 42.9823 60.0272Z" fill="#F3E4C0"/>
<path d="M14.7432 41.546C14.2129 41.4393 13.7046 41.251 13.2371 40.9812C13.1085 40.909 13.0049 40.7961 12.939 40.6611C12.8731 40.5262 12.848 40.3756 12.8669 40.2281C12.8888 40.0807 12.9516 39.9426 13.052 39.8297C13.1492 39.7199 13.281 39.6383 13.4254 39.6006L14.3667 39.3496L14.7432 41.546Z" fill="#273C7D"/>
<path d="M46.12 63.3219C48.1846 62.8324 50.2837 62.4873 52.3953 62.2865C54.1524 62.1296 54.2465 62.0982 53.7131 63.3219C53.4621 63.8553 52.6777 63.8553 50.0735 63.8239C48.7274 63.8176 47.3814 63.9337 46.0573 64.1691L46.12 63.3219Z" fill="#5DB4AD"/>
<path d="M57.9808 51.9001C58.2946 52.4649 58.6397 53.0925 58.8593 53.4376C59.079 53.7828 56.2551 54.3161 57.6671 54.7868C60.0517 56.1673 60.8047 56.9204 60.1771 58.8971C59.5496 60.8738 58.7966 61.2503 59.7693 62.1916C60.3435 62.7784 60.6666 63.569 60.6666 64.388C60.6666 65.21 60.3435 65.9976 59.7693 66.5844C58.828 67.5257 58.3887 68.8435 58.9221 68.8435C59.3457 68.6646 59.7473 68.4324 60.1144 68.1532C60.5757 67.7265 61.0149 67.2778 61.4322 66.804C62.4865 65.2477 63.0638 63.4153 63.0952 61.5327C63.2081 59.6125 62.7908 57.6985 61.8903 56.0011C60.9867 54.3005 59.6343 52.8822 57.9808 51.9001Z" fill="#9CE7D6"/>
</g>
<defs>
<clipPath id="clip0_331_2564">
<rect width="70" height="70" rx="35" fill="white"/>
</clipPath>
</defs>
</svg>
