<svg width="70" height="70" viewBox="0 0 70 70" fill="none" xmlns="http://www.w3.org/2000/svg">
<rect width="70" height="70" rx="35" fill="#808AFF"/>
<path d="M16.0748 29.383L15.1899 23.7758C15.0258 22.73 15.0742 21.6619 15.3323 20.6354C15.5903 19.6088 16.0527 18.6447 16.6918 17.8009C17.3309 16.9571 18.1336 16.2508 19.0519 15.7242C19.9701 15.1976 20.9851 14.8616 22.0362 14.7362L40.6904 12.5159L40.9677 14.8391L22.3178 17.0595C21.5791 17.1475 20.8657 17.3835 20.2203 17.7535C19.5749 18.1235 19.0107 18.6198 18.5615 19.2128C18.1123 19.8058 17.7872 20.4833 17.6058 21.2048C17.4244 21.9262 17.3903 22.6769 17.5056 23.4118L18.3862 29.0169L16.0748 29.383Z" fill="#41D98D"/>
<path d="M19.0596 46.0953C15.5763 46.4321 12.313 42.1474 11.7703 36.525C11.2277 30.9026 13.6116 26.0742 17.0959 25.7384L20.2369 25.4341L22.2006 45.7963L19.0596 46.0953Z" fill="black"/>
<path d="M26.2582 22.1686L28.0659 40.9138L11.084 38.6685L24.7549 22.3137L26.2582 22.1686Z" fill="#EB459F"/>
<path d="M26.0199 23.3405L20.5113 29.9301L18.5996 29.6777L24.7549 22.3137L26.0199 23.3405Z" fill="black"/>
<path d="M41.3307 33.958L26.9266 22.2562L15.0244 36.4946L19.5821 57.5555L40.8542 56.9858L41.3307 33.958Z" fill="#8CD9FF"/>
<path d="M59.1762 36.317L58.8144 53.7711L40.8545 56.9858L41.3311 33.958L59.1762 36.317Z" fill="url(#paint0_linear_331_2207)"/>
<path d="M35.0867 41.0166C35.5492 45.8104 33.1826 49.9738 29.7795 50.4071C27.2516 49.4074 25.2197 46.3379 24.8536 42.5427C24.3911 37.7467 26.7588 33.5833 30.1608 33.1533C32.6909 34.1552 34.7206 37.2236 35.0867 41.0166Z" fill="#3442D9"/>
<path d="M29.7835 50.4071C29.7381 50.4147 29.6904 50.419 29.6427 50.4233C26.1682 50.7591 22.9698 47.0906 22.5019 42.2308C22.034 37.3709 24.471 33.1598 27.9455 32.824C28.7007 32.7522 29.462 32.8637 30.1648 33.149C26.7628 33.5822 24.3951 37.7424 24.8576 42.5384C25.2237 46.3379 27.2556 49.4074 29.7835 50.4071Z" fill="#3F99F2"/>
<path d="M25.4311 37.5941C26.3095 35.1571 28.0306 33.4231 30.1653 33.1534C29.4625 32.8681 28.7012 32.7566 27.9461 32.8284C25.6835 33.0451 23.8617 34.9091 22.9941 37.5237L25.4311 37.5941Z" fill="black"/>
<path d="M63.5232 34.9869L44.3036 19.3773C43.8965 19.0465 43.4028 18.8397 42.8815 18.7816L24.3291 16.7129L44.0177 32.4081L63.5232 34.9869Z" fill="#FF78B9"/>
<path d="M47.3584 21.8534L28.3078 19.8843L26.5997 19.7078C26.5461 19.7022 26.4941 19.6862 26.4467 19.6605C26.3992 19.6349 26.3573 19.6001 26.3234 19.5583C26.2894 19.5164 26.2639 19.4683 26.2485 19.4167C26.2331 19.365 26.2281 19.3108 26.2336 19.2572C26.2392 19.2036 26.2552 19.1516 26.2809 19.1041C26.3065 19.0567 26.3412 19.0148 26.3831 18.9808C26.4249 18.9468 26.4731 18.9214 26.5247 18.906C26.5764 18.8906 26.6306 18.8855 26.6842 18.8911L27.1174 18.9366L46.1908 20.9078L47.3584 21.8534Z" fill="black"/>
<path d="M55.0412 28.0963L36.1606 26.1468L34.2013 25.9453C34.093 25.9341 33.9936 25.8803 33.9249 25.7958C33.8563 25.7113 33.824 25.603 33.8352 25.4947C33.8464 25.3864 33.9002 25.287 33.9846 25.2184C34.0691 25.1497 34.1775 25.1174 34.2858 25.1286L34.9735 25.199L53.8768 27.1486L55.0412 28.0963Z" fill="black"/>
<path d="M25.0029 16.9609L27.5201 19.0058L11.084 38.6673L7.77734 35.9032L23.4899 17.1028C23.673 16.8852 23.9343 16.7484 24.2173 16.7219C24.5004 16.6954 24.7826 16.7812 25.0029 16.9609Z" fill="#D11583"/>
<path d="M25.2789 17.1871L22.5615 20.5321L41.3005 35.7555L44.0179 32.4105L25.2789 17.1871Z" fill="#D11583"/>
<path d="M63.5238 34.9881L44.0183 32.4082L41.3008 35.7539L60.8063 38.3328L63.5238 34.9881Z" fill="#EB459F"/>
<path d="M50.7817 45.1919C47.3949 45.5169 44.2214 41.3524 43.6939 35.8849C43.1665 30.4174 45.4854 25.7222 48.8722 25.3962L51.9331 25.1005L53.8426 44.8963L50.7817 45.1919Z" fill="black"/>
<path d="M53.8417 44.8967C57.2291 44.5699 59.5475 39.8736 59.0202 34.4071C58.4929 28.9406 55.3194 24.774 51.9321 25.1007C48.5448 25.4275 46.2263 30.1239 46.7536 35.5904C47.281 41.0569 50.4544 45.2235 53.8417 44.8967Z" fill="black"/>
<path d="M55.0239 43.6501C58.0277 43.3603 60.0838 39.1959 59.6162 34.3486C59.1486 29.5014 56.3344 25.8068 53.3306 26.0965C50.3267 26.3863 48.2707 30.5507 48.7383 35.398C49.2058 40.2453 52.02 43.9398 55.0239 43.6501Z" fill="#41D98D"/>
<path d="M55.6712 41.3199C54.7267 41.3199 53.8018 40.7068 53.0447 39.5739C52.2724 38.4161 51.7558 36.8358 51.5901 35.1235C51.4244 33.4111 51.6302 31.7659 52.1674 30.478C52.7327 29.1274 53.6036 28.3292 54.6206 28.2317C55.6376 28.1342 56.6438 28.7505 57.4572 29.9647C58.2295 31.1214 58.7461 32.7016 58.9107 34.414C59.0754 36.1264 58.8717 37.7771 58.3345 39.0605C57.7692 40.4111 56.8973 41.2083 55.8813 41.3069C55.812 41.3166 55.7416 41.3199 55.6712 41.3199ZM54.8318 28.8751C54.7831 28.8751 54.7343 28.8751 54.6867 28.8826C53.9209 28.9563 53.2418 29.6127 52.7739 30.7304C52.2778 31.9164 52.0894 33.4544 52.2443 35.0628C52.3991 36.6712 52.8779 38.1442 53.5916 39.2122C54.2643 40.2205 55.0592 40.735 55.8217 40.6613C56.5842 40.5877 57.2666 39.9313 57.7345 38.8125C58.2306 37.6276 58.4179 36.0896 58.2631 34.4801C58.1082 32.8739 57.6294 31.3998 56.9157 30.3307C56.2821 29.3863 55.5477 28.8751 54.8318 28.8751Z" fill="black"/>
<path d="M51.0664 33.8031L48.7377 33.58L49.7125 23.4184C49.8293 22.2484 49.6818 21.0672 49.2811 19.9618C48.8804 18.8564 48.2367 17.8551 47.3974 17.0317C46.5581 16.2083 45.5446 15.5838 44.4318 15.2043C43.3189 14.8249 42.1351 14.7001 40.9676 14.8391L40.6914 12.5159C42.2062 12.3356 43.7422 12.4976 45.186 12.99C46.6299 13.4824 47.9448 14.2926 49.0339 15.3608C50.1229 16.4291 50.9583 17.7281 51.4784 19.1622C51.9985 20.5963 52.1901 22.1289 52.039 23.6469L51.0664 33.8031Z" fill="#41D98D"/>
<path d="M32.4733 40.6656L27.1553 41.179C27.1683 39.1038 28.3683 37.3058 29.837 37.1639C31.3057 37.0221 32.4863 38.5904 32.4733 40.6656Z" fill="white"/>
<path d="M27.7642 40.5358C27.8151 39.5837 28.6177 38.7378 29.5567 38.6479C30.4958 38.558 31.215 39.2556 31.1641 40.2076C31.1515 40.4129 31.1058 40.6148 31.0287 40.8055L27.8357 41.1131C27.7776 40.9264 27.7534 40.7309 27.7642 40.5358Z" fill="black"/>
<path d="M28.981 44.0721C28.2521 44.072 27.5301 43.9307 26.8548 43.6562C26.8151 43.64 26.7789 43.6161 26.7484 43.5859C26.7179 43.5557 26.6936 43.5198 26.6769 43.4802C26.6603 43.4406 26.6516 43.3982 26.6514 43.3552C26.6511 43.3123 26.6594 43.2697 26.6756 43.23C26.6918 43.1902 26.7157 43.154 26.7459 43.1235C26.7761 43.093 26.812 43.0687 26.8516 43.0521C26.8911 43.0354 26.9336 43.0267 26.9765 43.0265C27.0195 43.0263 27.062 43.0345 27.1018 43.0507C27.8494 43.354 28.6593 43.4719 29.4624 43.3943C30.2654 43.3168 31.0378 43.0462 31.7136 42.6056C31.7496 42.5822 31.7898 42.5661 31.832 42.5582C31.8742 42.5504 31.9176 42.5509 31.9596 42.5598C32.0016 42.5687 32.0414 42.5858 32.0768 42.6101C32.1122 42.6344 32.1424 42.6654 32.1658 42.7014C32.1892 42.7374 32.2053 42.7776 32.2131 42.8198C32.221 42.862 32.2204 42.9054 32.2115 42.9474C32.2026 42.9894 32.1856 43.0292 32.1613 43.0646C32.137 43.1 32.1059 43.1302 32.07 43.1536C31.1513 43.7531 30.078 44.0723 28.981 44.0721Z" fill="black"/>
<defs>
<linearGradient id="paint0_linear_331_2207" x1="42.736" y1="41.7705" x2="59.997" y2="53.3637" gradientUnits="userSpaceOnUse">
<stop stop-color="#66BCFF"/>
<stop offset="1" stop-color="#8CD9FF"/>
</linearGradient>
</defs>
</svg>
