<svg width="70" height="70" viewBox="0 0 70 70" fill="none" xmlns="http://www.w3.org/2000/svg">
<g clip-path="url(#clip0_331_2087)">
<rect width="70" height="70" rx="35" fill="#F7DB4C"/>
<path d="M8.28528 46.9587C5.86979 45.8372 5.1509 45.7222 -0.0826522 46.9012C-0.100374 46.9076 -0.116631 46.9174 -0.13047 46.9302C-0.144309 46.943 -0.155446 46.9584 -0.163221 46.9756C-0.170995 46.9927 -0.17525 47.0113 -0.175735 47.0301C-0.176219 47.0489 -0.172928 47.0677 -0.166046 47.0852C-0.160274 47.102 -0.151497 47.1176 -0.140158 47.1312C3.08049 50.9845 2.53412 50.8407 9.75181 49.633L8.28528 46.9587Z" fill="#FF78B9"/>
<path d="M10.2984 49.8917C9.49326 43.9105 9.63703 43.5079 3.33952 40.6323C3.32101 40.6281 3.30185 40.6275 3.28314 40.6307C3.26442 40.6339 3.24652 40.6408 3.23048 40.651C3.21444 40.6611 3.20058 40.6744 3.18968 40.6899C3.17878 40.7055 3.17107 40.723 3.16699 40.7416C3.16699 46.1246 3.85713 46.0959 10.2984 49.8917Z" fill="#FF78B9"/>
<path d="M5.26588 54.5214C8.3715 58.4321 12.5123 64.4708 16.3081 74.8517C17.4008 77.8423 19.0974 76.6633 24.5322 73.4714C31.0886 69.6181 35.5169 64.3271 36.1783 62.688C36.4659 61.9691 36.6672 61.394 36.4659 60.9626C36.2646 60.5313 35.5745 60.0712 34.2805 59.4098C35.4019 57.1094 35.2006 57.0231 33.8203 56.2179C36.0345 51.8758 34.0792 51.4732 31.4336 50.8406C27.0627 49.7191 22.3181 48.0801 13.7201 47.0449C8.91787 46.441 9.46422 46.5272 8.74532 49.4028C7.04873 48.8277 5.49593 48.5689 5.09334 48.7127C4.69076 48.8565 4.54699 49.1728 4.17317 50.1792C3.65556 51.617 3.51178 51.9908 3.88561 52.5372C4.25943 53.0836 4.97832 54.1475 5.26588 54.5214Z" fill="url(#paint0_linear_331_2087)"/>
<path d="M32.4118 51.4446L31.9805 54.0613C33.8496 52.5661 34.511 52.3648 32.4118 51.4446Z" fill="#D11583"/>
<path d="M11.3767 47.5626C11.4055 47.7639 12.5269 48.4253 14.5399 49.6905L16.6678 47.8789C13.174 47.5914 11.3336 47.3326 11.3767 47.5626Z" fill="#D11583"/>
<path d="M-3.56166 23.9827C-11.6995 25.9669 -14 28.6412 -14 32.0056C2.70709 34.191 25.0791 33.8172 52.1958 14.1195C50.0966 10.295 45.4957 6.55673 33.9071 9.05848C29.2774 10.0649 26.7181 9.11599 22.1747 8.25332C17.6313 7.39065 11.5926 7.10309 7.73935 12.7967C3.88607 18.4904 3.05216 22.3436 -3.56166 23.9827Z" fill="#CF8A5C"/>
<path d="M-13.9709 32.4082C-13.5395 35.8877 -9.68628 38.5044 8.60238 34.2198C15.2148 32.6748 21.9337 31.6271 28.7027 31.0854C48.2566 29.4464 56.3945 19.1806 51.4197 12.9406C45.8411 5.8954 36.438 9.1448 24.9932 20.3308C16.884 28.2961 8.45861 27.2897 -1.49088 26.8583C-11.4404 26.427 -14.316 29.4176 -13.9709 32.4082Z" fill="#AA5F44"/>
<path d="M40.6361 27.0597C33.4184 29.4176 27.8973 28.1236 21.3985 29.2739C17.5452 29.9352 11.679 31.6031 6.50298 33.2421C-0.599692 35.5139 -8.68006 35.7439 -11.2393 34.1623C-13.7986 32.5808 -13.1084 29.5327 -7.84614 28.7563C-3.10144 28.0949 1.55699 29.4464 12.5417 28.0086C25.0504 26.3983 29.6801 21.366 35.0287 16.7076C38.3356 13.8033 43.8567 11.4453 47.3649 12.8256C50.8731 14.2058 51.2182 17.1102 50.8156 18.663C49.7804 22.7463 44.9782 25.6219 40.6361 27.0597Z" fill="#8F473B"/>
<path d="M20.4493 28.7274C20.5512 28.7277 20.6495 28.6893 20.7242 28.6199C20.799 28.5505 20.8446 28.4553 20.8519 28.3536C20.846 28.2535 20.8055 28.1586 20.7373 28.0851C20.6691 28.0116 20.5774 27.9642 20.478 27.951C19.1169 27.9099 17.7655 27.7072 16.4522 27.3472L14.8994 27.6635C16.685 28.2964 18.5562 28.6551 20.4493 28.7274Z" fill="#6B2F34"/>
<path d="M14.0372 29.9927H14.181C14.181 29.964 14.181 29.964 14.2098 29.964H14.2385V29.9064H14.2673V29.8489H14.2529C14.2534 29.845 14.2529 29.8411 14.2517 29.8374C14.2504 29.8337 14.2483 29.8303 14.2455 29.8276C14.2427 29.8248 14.2394 29.8227 14.2357 29.8214C14.232 29.8201 14.228 29.8197 14.2242 29.8202H14.1379C14.1379 29.7914 14.1379 29.7914 14.1091 29.7914H13.8216C9.89208 30.5384 5.84135 30.3413 2.00295 29.2163H-0.498796C1.93822 30.214 4.52198 30.8066 7.15023 30.9704C-0.786361 32.0631 -6.88258 31.8043 -10.7646 30.194C-11.038 30.3326 -11.2979 30.4963 -11.541 30.6829C-8.86673 31.9193 -5.35852 32.4082 -1.56276 32.4082C1.87647 32.3645 5.30776 32.0665 8.70305 31.5168C3.00941 33.3571 -2.13787 34.7087 -7.97529 35.6001C-6.64636 35.718 -5.31103 35.7468 -3.97824 35.6864C1.9742 34.5074 7.46655 32.8108 14.0229 30.5678L14.0372 29.9927Z" fill="#6B2F34"/>
<path d="M46.8184 23.954C41.2397 26.0819 31.7503 27.1459 27.9258 25.8806C37.4152 24.0978 44.6329 21.2797 48.8313 13.6307L48.1986 13.1993C45.2655 18.6629 40.3771 22.775 27.782 25.133C27.6837 25.1452 27.5942 25.196 27.5332 25.2742C27.4723 25.3524 27.4449 25.4516 27.4571 25.5499V25.5931C27.4674 25.6416 27.4882 25.6874 27.518 25.7271C27.5478 25.7668 27.5859 25.7996 27.6296 25.8231C27.5454 25.8344 27.4671 25.8731 27.4069 25.9332C27.3467 25.9932 27.3079 26.0714 27.2965 26.1557C27.2851 26.24 27.3016 26.3257 27.3436 26.3996C27.3856 26.4736 27.4508 26.5317 27.529 26.565C28.708 26.9964 30.4333 27.1976 32.4462 27.1976C36.359 27.1426 40.2504 26.6116 44.0348 25.6161C45.0115 25.1484 45.9433 24.592 46.8184 23.954Z" fill="#6B2F34"/>
<path d="M23.8428 28.2961C23.9147 28.3029 23.9866 28.2823 24.0441 28.2385C26.4308 26.7432 27.4085 24.414 27.8686 22.6024L26.8909 23.235C26.3733 24.7591 25.4531 26.4557 23.6415 27.6059C23.5998 27.6234 23.562 27.6491 23.5304 27.6814C23.4988 27.7137 23.4739 27.7521 23.4573 27.7941C23.4407 27.8362 23.4327 27.8811 23.4337 27.9263C23.4347 27.9716 23.4447 28.0161 23.4632 28.0574C23.4718 28.0808 23.4834 28.1031 23.4977 28.1235C23.5364 28.1787 23.5882 28.2233 23.6484 28.2535C23.7087 28.2836 23.7755 28.2982 23.8428 28.2961Z" fill="#6B2F34"/>
<path d="M30.3125 23.2064C30.271 23.2325 30.235 23.2665 30.2067 23.3066C30.1784 23.3466 30.1583 23.3919 30.1476 23.4398C30.1369 23.4876 30.1358 23.5372 30.1444 23.5854C30.1529 23.6337 30.171 23.6799 30.1975 23.7211C30.2335 23.7722 30.2808 23.8143 30.3356 23.8442C30.3904 23.8741 30.4514 23.891 30.5138 23.8937L30.7439 23.8362L31.1752 23.5486C35.2585 20.8168 38.0478 18.9477 39.8307 13.6566L38.8242 14.1455C37.1564 18.6314 34.6259 20.2992 30.7439 22.916L30.3125 23.2064Z" fill="#6B2F34"/>
<path d="M30.1692 61.9691L9.58008 57.0806C11.5642 54.3488 13.3183 52.5947 14.9862 48.7415C15.996 46.3564 16.3915 43.7561 16.1364 41.1787C15.6475 35.7439 14.7274 33.7597 13.5196 29.3026C19.7596 28.3249 26.0284 26.0819 30.5143 23.0338C34.9714 34.6224 35.2446 41.38 30.1692 61.9691Z" fill="url(#paint1_linear_331_2087)"/>
<path d="M29.1051 45.5784C26.8909 48.1951 25.1368 48.684 24.3891 47.0161C23.8428 45.8084 24.2166 44.3706 24.2166 44.3706L29.1051 45.5784Z" fill="white"/>
<path d="M41.3258 36.319C41.2683 35.14 40.0031 34.5361 38.8528 35.4851C32.3253 41.1212 31.7502 38.4757 28.357 42.3289C25.6539 39.0795 23.1522 40.6036 9.55072 37.5555C7.56657 37.1241 7.4803 39.022 9.20565 40.7761C10.931 42.5302 14.9568 43.2204 16.9409 42.8753C18.1774 46.8723 21.3406 47.3037 28.357 44.1693C37.2713 47.0736 38.2202 44.3706 36.9837 41.495C41.1533 39.9422 41.3834 37.4692 41.3258 36.319Z" fill="#6B2F34"/>
<path d="M24.7339 35.744C25.1652 36.6641 25.0502 37.5843 24.5326 37.7569C24.015 37.9294 23.4686 37.3255 23.0373 36.4053C22.606 35.4852 22.4909 34.5937 23.0085 34.3924C23.5261 34.1912 24.3313 34.8238 24.7339 35.744Z" fill="black"/>
<path d="M31.6071 35.6863C31.5208 36.7215 30.9745 37.4404 30.3994 37.3254C29.8243 37.2104 29.7092 36.434 29.8243 35.3988C29.9393 34.3636 30.2556 33.5584 30.8019 33.6734C31.3483 33.7885 31.7221 34.6799 31.6071 35.6863Z" fill="black"/>
<path d="M22.4047 11.1002C27.2932 11.1002 29.2486 10.0362 33.907 9.0585C29.2773 10.065 26.7181 9.11602 22.1747 8.25334C21.3983 8.10956 20.5931 7.96578 19.7592 7.87952C19.4425 8.07226 19.1441 8.29365 18.8678 8.5409C17.545 9.89242 18.9253 11.1002 22.4047 11.1002Z" fill="#EDB997"/>
<path d="M18.8964 20.0433C18.3501 21.7111 15.8196 23.0339 13.2891 23.0339C10.7586 23.0339 9.09072 21.6824 9.72335 20.0433C10.701 17.5703 14.353 15.2411 16.8835 15.2411C19.414 15.2411 19.4716 18.4042 18.8964 20.0433Z" fill="#EDB997"/>
<path d="M12.5273 48.4252C19.5437 52.8536 24.6047 55.9017 27.1352 55.9017C29.6657 55.9017 30.9885 54.924 32.8001 53.4287L30.7297 64.0108L9.65172 59.5537L5.72656 52.4078L12.5273 48.4252Z" fill="url(#paint2_linear_331_2087)"/>
<path d="M34.2809 59.4099C32.6994 62.228 28.271 66.0813 25.7117 67.6628C25.6442 67.7095 25.5974 67.7806 25.5813 67.861C25.5652 67.9415 25.5811 68.0251 25.6254 68.0942C25.6503 68.1426 25.6871 68.1839 25.7324 68.2141C25.7777 68.2443 25.83 68.2624 25.8843 68.2667L26.0568 68.2092C28.6736 66.5701 33.217 62.6306 34.8561 59.7262L34.2809 59.4099Z" fill="#D11583"/>
<path d="M33.821 56.218C28.2711 62.343 27.0921 63.2345 21.8586 60.0138C18.6379 58.0297 12.858 54.1476 8.74592 49.4029L7.5957 49.0579C11.794 54.2051 18.0916 58.461 21.5135 60.5602C23.6127 61.8542 25.1655 62.4868 26.517 62.4868C28.99 62.4868 30.8879 60.4451 34.3673 56.5631L33.821 56.218Z" fill="#D11583"/>
<path d="M3.97266 18.7781C7.39459 17.8579 8.65984 14.4647 8.37228 11.9342C6.77634 13.9759 4.95035 17.3403 3.97266 18.7781Z" fill="#EDB997"/>
</g>
<defs>
<linearGradient id="paint0_linear_331_2087" x1="20.7451" y1="56.0627" x2="25.9959" y2="68.5484" gradientUnits="userSpaceOnUse">
<stop stop-color="#EB459F"/>
<stop offset="1" stop-color="#FF78B9"/>
</linearGradient>
<linearGradient id="paint1_linear_331_2087" x1="21.7466" y1="27.5858" x2="21.7466" y2="55.7722" gradientUnits="userSpaceOnUse">
<stop stop-color="#AA5F44"/>
<stop offset="0.17" stop-color="#B56D4D"/>
<stop offset="1" stop-color="#E6B078"/>
</linearGradient>
<linearGradient id="paint2_linear_331_2087" x1="15088.4" y1="2220.44" x2="15270.5" y2="1468.26" gradientUnits="userSpaceOnUse">
<stop stop-color="#EB459F"/>
<stop offset="1" stop-color="#FF78B9"/>
</linearGradient>
<clipPath id="clip0_331_2087">
<rect width="70" height="70" rx="35" fill="white"/>
</clipPath>
</defs>
</svg>
