<svg width="70" height="70" viewBox="0 0 70 70" fill="none" xmlns="http://www.w3.org/2000/svg">
<g clip-path="url(#clip0_331_2113)">
<rect width="70" height="70" rx="35" fill="#6874F6"/>
<path d="M50.2245 50.0517C50.2245 50.0517 63.7657 48.9723 74.6331 32.5691L78.509 36.9561C78.509 36.9561 62.809 62.4482 47.4893 61.9371L50.2245 50.0517Z" fill="#EB459F"/>
<path d="M15.1856 50.6936C15.1856 50.6936 1.21505 52.1655 0.0866158 60.9313C-1.04182 69.6972 9.2286 62.4359 9.2286 62.4359L14.0204 57.5746L15.1856 50.6936Z" fill="#EB459F"/>
<path d="M19.4988 19.0361C9.03218 21.154 11.6816 28.7301 14.6744 33.6118C13.7504 32.6959 12.7773 31.8374 11.7756 31.0156C11.2604 30.5944 10.7371 30.1815 10.2056 29.7767L9.40015 29.1757C9.12213 28.9754 8.86455 28.7873 8.54564 28.5747L8.44343 28.5052C8.21856 28.358 7.96916 28.2435 7.69932 28.1699C6.26015 27.7652 4.76783 28.6074 4.36715 30.0425C3.96239 31.4817 4.80463 32.974 6.23971 33.3746C6.75895 33.5218 7.36814 33.7303 7.93236 33.9266C8.50476 34.131 9.08124 34.3436 9.64955 34.5726C10.7862 35.0264 11.9105 35.5211 12.994 36.0772C13.3824 36.2775 13.7626 36.486 14.1429 36.7027C10.365 35.7705 5.11127 35.4598 5.71228 41.1838C6.63629 50.0232 14.7153 50.4443 19.3394 49.0133C19.3394 49.0133 31.2861 40.9303 32.5495 34.4499C32.5372 34.4418 35.3133 15.8389 19.4988 19.0361Z" fill="#FF63AF"/>
<path d="M26.89 41.4328C29.6391 40.5479 30.9524 36.9869 29.8232 33.479C28.6941 29.9712 25.5502 27.8448 22.8011 28.7297C20.052 29.6146 18.7387 33.1756 19.8678 36.6835C20.9969 40.1914 24.1409 42.3179 26.89 41.4328Z" fill="white" stroke="#FFAB18" stroke-miterlimit="10"/>
<path d="M22.6723 32.6428C22.9912 32.5242 23.2488 32.4629 23.5431 32.4138C23.8293 32.3647 24.1196 32.3443 24.414 32.3402C24.9987 32.3402 25.5915 32.4588 26.1271 32.7123C26.6545 32.9698 27.1411 33.3255 27.4845 33.7835L27.6235 33.947L27.738 34.1228L27.9629 34.4785C28.0937 34.7238 28.2 34.9773 28.3186 35.2226C28.3921 35.3739 28.3267 35.5579 28.1755 35.6274C28.0324 35.6969 27.8647 35.6438 27.783 35.5088L27.7584 35.4679C27.6317 35.2553 27.5172 35.0346 27.3823 34.8342L27.1615 34.548L27.0511 34.4049L26.9244 34.2823C26.6055 33.9266 26.2007 33.6935 25.7837 33.53C25.3625 33.3746 24.9046 33.3215 24.4467 33.3623C24.2177 33.3869 23.9888 33.4196 23.768 33.4809C23.5513 33.5341 23.3101 33.624 23.1465 33.7017L23.1261 33.714C22.8358 33.853 22.4883 33.7303 22.3493 33.44C22.2103 33.1497 22.3329 32.8022 22.6232 32.6632C22.6396 32.655 22.6559 32.6509 22.6723 32.6428Z" fill="black"/>
<path d="M52.3367 34.6279C54.76 34.0829 56.0692 30.7266 55.2604 27.1314C54.4521 23.5362 51.8322 21.0635 49.4089 21.6085C46.9856 22.1534 45.6765 25.5097 46.4852 29.1049C47.2935 32.7001 49.9135 35.1728 52.3367 34.6279Z" fill="white" stroke="#FFAB18" stroke-miterlimit="10"/>
<path d="M51.8841 26.3546C51.6428 26.3914 51.3158 26.5018 51.0541 26.6368C50.7842 26.7758 50.5389 26.9516 50.3386 27.1683C50.1342 27.385 49.9706 27.6384 49.8725 27.9287C49.758 28.2149 49.7253 28.5338 49.7049 28.8609V28.8895C49.6926 29.0572 49.5495 29.1839 49.3819 29.1757C49.2265 29.1676 49.1079 29.0449 49.0957 28.8936C49.0671 28.5134 49.0548 28.1168 49.1529 27.7243C49.2306 27.3318 49.4064 26.9434 49.6476 26.6122C49.8848 26.277 50.1873 25.9908 50.5226 25.7577C50.8701 25.5288 51.1972 25.3489 51.6387 25.2139C51.9454 25.1199 52.2725 25.2916 52.3665 25.6024C52.4605 25.909 52.2888 26.2361 51.9781 26.3301C51.9536 26.3383 51.9249 26.3424 51.9004 26.3465L51.8841 26.3546Z" fill="black"/>
<path d="M36.7939 65.49L44.0347 75.8954C55.0288 72.4283 62.838 62.8366 62.838 62.8366L50.1185 86.546L56.2636 89.8414L72.1966 60.1422C75.7291 53.5597 68.3289 46.5151 61.9262 50.3665L36.7939 65.49Z" fill="#242145"/>
<path d="M12.2706 61.5366C12.2706 61.5366 9.38407 53.245 19.4419 46.3313C22.1076 44.4997 24.5894 42.4022 26.7113 39.9573C29.144 37.1485 31.9529 33.2112 34.173 28.1496C39.1324 16.8284 50.5354 17.736 50.0407 31.4572C50.0366 31.4572 30.3706 63.5236 12.2706 61.5366Z" fill="url(#paint0_linear_331_2113)"/>
<path d="M48.4949 33.7508C49.4271 31.3794 49.2023 28.2149 48.2251 25.3652C47.988 24.6701 46.6428 21.9635 43.6746 22.2906C41.847 22.4909 40.1707 23.4845 38.9605 24.8705C37.7503 26.2565 36.9244 27.9287 36.078 29.5641C35.0518 31.5471 33.1956 36.6455 31.965 38.8533C26.8501 47.9912 25.7216 49.6021 19.3926 53.4453C19.3926 53.4371 44.5209 43.8495 48.4949 33.7508Z" fill="black"/>
<path d="M48.1357 33.6076C48.52 32.5896 48.6795 31.4775 48.6795 30.3654C48.6795 29.2533 48.5282 28.133 48.2665 27.0455C48.1357 26.5058 47.9681 25.9539 47.7882 25.4469C47.6001 24.9767 47.3098 24.5024 46.9705 24.1058C46.2958 23.2922 45.3473 22.7648 44.3252 22.7443C43.8223 22.7239 43.2826 22.822 42.7715 22.961C42.2605 23.1123 41.7617 23.3208 41.2956 23.5907C40.3552 24.1304 39.562 24.8745 38.9038 25.7617C38.2373 26.6448 37.6895 27.6261 37.162 28.64C36.9045 29.1429 36.6264 29.6703 36.3893 30.1651C36.1522 30.672 35.9232 31.1954 35.7024 31.7228C34.8111 33.8366 33.9975 35.9871 32.9999 38.1091C32.7505 38.6365 32.4561 39.1762 32.174 39.6668L31.3235 41.1755C30.7511 42.1772 30.1787 43.183 29.5777 44.1724C28.9808 45.1659 28.3512 46.1513 27.6643 47.1039C27.3249 47.5823 26.957 48.0443 26.5808 48.5022L25.9839 49.1604C25.7835 49.3771 25.5628 49.5815 25.3542 49.7901C23.6207 51.4377 21.5846 52.6234 19.524 53.666L19.295 53.1999C22.0589 52.1042 24.7819 50.8858 27.4598 49.5938C30.1378 48.2937 32.775 46.9076 35.3304 45.3867C37.8816 43.8658 40.3634 42.2181 42.6366 40.3292C43.7691 39.3806 44.8485 38.3708 45.8093 37.2628C46.766 36.1507 47.6083 34.9364 48.1357 33.6076ZM48.8594 33.8897C48.2747 35.3371 47.3752 36.6004 46.3817 37.7452C45.3759 38.8859 44.2638 39.9121 43.1027 40.873C40.7722 42.7823 38.2496 44.4259 35.6697 45.9427C33.0817 47.4555 30.424 48.8293 27.7215 50.1171C25.019 51.3969 22.2838 52.5989 19.4872 53.6824L17.6719 54.3856L19.2582 53.2163C21.1185 51.8548 22.9992 50.5587 24.5692 48.9764C26.1515 47.4105 27.4067 45.5134 28.5883 43.5591C29.1811 42.582 29.7494 41.5884 30.3177 40.5868C30.8738 39.5851 31.4789 38.5875 31.9532 37.5898C32.9263 35.5415 33.7726 33.3991 34.6885 31.2731C34.9215 30.7415 35.1546 30.21 35.4121 29.6785C35.682 29.1347 35.9437 28.6482 36.2176 28.129C36.7614 27.1027 37.3501 26.0765 38.0861 25.1239C39.5252 23.2064 41.8107 21.7427 44.3661 21.7876C45.008 21.8162 45.6499 21.9921 46.2182 22.2987C46.7865 22.6053 47.2689 23.0346 47.6655 23.513C48.0621 23.9995 48.381 24.5229 48.6141 25.1198C48.8103 25.7045 48.9698 26.2523 49.1047 26.8329C49.3663 27.9859 49.5135 29.1675 49.5013 30.3572C49.4849 31.5552 49.305 32.7613 48.8594 33.8897Z" fill="#FFAB18"/>
<path d="M15.0303 58.8094C15.0303 58.8094 15.1693 57.4111 16.3918 55.2933C17.8105 52.832 20.1655 51.0902 22.8762 50.2357C29.0826 48.2855 31.8588 43.5796 39.0301 37.0625C46.2014 30.5453 54.9754 28.4315 58.2217 29.8871C59.9675 30.668 60.7239 34.8955 55.4456 40.4478C51.2262 44.8838 51.1036 52.0306 49.7584 58.237C48.5155 63.9937 44.2471 69.8321 39.1323 69.967H16.404L15.0303 58.8094Z" fill="url(#paint1_linear_331_2113)"/>
<path d="M38.4367 43.9599C27.7656 55.6531 19.4209 58.2943 15.0625 59.0834L15.1688 59.9338L42.3822 65.5965L47.7504 63.5195C48.6744 61.8718 49.3654 60.0524 49.7538 58.2412C51.0949 52.0348 51.2216 44.888 55.441 40.4519C57.706 38.0683 58.859 35.93 59.3006 34.2005C56.181 32.7859 48.8175 32.5856 38.4367 43.9599Z" fill="#FFC619"/>
<path d="M18.5752 58.7032L7.10688 62.9553C5.48782 63.5563 3.68886 62.7304 3.08784 61.1113C2.48683 59.4923 3.31271 57.6933 4.93178 57.0923L16.4001 52.8402L18.5752 58.7032Z" fill="#EB459F"/>
<path d="M2.02441 78.2054L19.1963 70.5721L15.9541 54.1403C6.5627 59.1692 2.02441 78.2054 2.02441 78.2054Z" fill="#242145"/>
<path d="M41.2949 60.1055C37.648 61.0214 33.8211 59.9747 30.9306 57.5706C27.0914 54.3775 21.208 55.4119 21.208 55.4119L23.4567 69.9671H39.1321C44.251 69.8322 48.5153 63.9937 49.7582 58.2371C50.1507 56.4299 50.4369 54.5451 50.7517 52.6685C47.8775 57.2967 44.4022 59.3287 41.2949 60.1055Z" fill="#EB459F"/>
<path d="M34.6025 54.4102C34.6025 54.4102 38.2413 53.801 38.5071 49.7615C38.5071 49.7615 40.9112 49.7574 41.3773 46.9977" stroke="#FFAB18" stroke-miterlimit="10" stroke-linecap="round"/>
<path d="M23.0682 53.3717C20.4351 52.5335 18.0638 52.9383 15.9541 54.1362L21.0402 95.3733L22.2423 105.116L28.7308 106.592C28.8248 103.837 28.8984 101.224 28.9557 98.7504C28.9638 98.4683 28.9679 98.1862 28.9761 97.9082C29.847 58.5805 26.3717 54.4265 23.0682 53.3717Z" fill="#242145"/>
<path d="M43.5312 49.3732C43.5312 49.3732 47.4317 49.2996 46.9002 44.5119C46.9002 44.5119 49.2102 44.2257 49.4474 42.0833C49.4474 42.0833 51.7042 41.9443 52.432 40.0063" stroke="#FFAB18" stroke-miterlimit="10" stroke-linecap="round"/>
<path d="M42.5996 56.9491C42.5996 56.9491 44.9669 55.8738 44.9587 53.7396C44.9587 53.7396 47.0807 53.3471 47.4854 51.2211" stroke="#FFAB18" stroke-miterlimit="10" stroke-linecap="round"/>
<path d="M46.5328 57.3417C44.6766 56.5526 44.8688 59.4146 40.9151 60.1423C37.9223 60.4326 35.596 57.7178 34.1609 58.2289C31.2621 59.2674 34.1404 65.6537 34.1404 65.6537C34.1404 65.6537 37.7956 60.9069 40.6903 60.727C43.585 60.5471 44.8279 63.961 44.8279 63.961C44.8279 63.961 47.9433 57.9427 46.5328 57.3417Z" fill="white"/>
<path d="M6.38672 57.1864L11.9063 54.5125" stroke="black" stroke-miterlimit="10" stroke-linecap="round"/>
<path d="M25.906 53.2573C25.8733 53.0692 25.2723 51.1476 23.4283 51.0944C23.0685 51.0822 22.7251 51.1108 22.4103 51.2048C21.8011 50.7673 20.8853 50.5629 19.9081 50.706C18.6406 50.8941 17.6471 51.6178 17.3568 52.4641C16.8417 52.3619 16.2652 52.4559 15.7623 52.783C14.8424 53.3758 14.5112 54.492 14.9691 55.3302C15.2635 56.1479 15.9954 57.0678 16.257 57.8978C17.0379 60.3591 16.9235 61.647 18.0642 62.1498C18.6325 62.4033 19.675 62.4238 20.783 62.3175C21.891 62.2112 23.0644 61.9781 23.8985 61.7287C25.5625 61.2258 26.1186 60.3713 26.278 57.7138C26.3884 55.7513 26.09 54.263 25.906 53.2573Z" fill="#FFAB18"/>
<path d="M20.0185 62.3706C20.2679 62.3624 20.5214 62.342 20.7831 62.3174C20.918 62.3052 21.0529 62.2888 21.1878 62.2725C21.3391 59.1488 20.4151 57.2149 20.3701 57.1209C20.227 56.8306 19.8795 56.7161 19.5933 56.8552C19.3071 56.9982 19.1844 57.3458 19.3275 57.632C19.3316 57.6565 20.1902 59.4473 20.0185 62.3706Z" fill="#E89300"/>
<path d="M23.8946 61.7287C24.2462 61.6224 24.5406 61.4997 24.8023 61.3485C24.974 58.8013 24.4098 57.0146 24.3811 56.9165C24.283 56.6098 23.9559 56.4463 23.6493 56.5444C23.3427 56.6426 23.175 56.9696 23.2731 57.2763C23.2813 57.3008 23.8742 59.202 23.5921 61.8146C23.6984 61.7859 23.7965 61.7573 23.8946 61.7287Z" fill="#E89300"/>
<path d="M63.0703 62.1457L64.7998 58.7358" stroke="black" stroke-miterlimit="10" stroke-linecap="round"/>
<path d="M17.1276 63.593C17.0867 63.2741 16.8005 63.0451 16.4816 63.086C16.1627 63.1269 15.9378 63.4131 15.9746 63.732L16.6165 68.9531H17.7859L17.1276 63.593Z" fill="black"/>
</g>
<defs>
<linearGradient id="paint0_linear_331_2113" x1="44.5865" y1="18.3735" x2="25.2848" y2="53.9863" gradientUnits="userSpaceOnUse">
<stop stop-color="#FFE75C"/>
<stop offset="1" stop-color="#FFC619"/>
</linearGradient>
<linearGradient id="paint1_linear_331_2113" x1="51.2299" y1="24.0521" x2="30.6204" y2="62.0782" gradientUnits="userSpaceOnUse">
<stop stop-color="#FFE75C"/>
<stop offset="1" stop-color="#FFC619"/>
</linearGradient>
<clipPath id="clip0_331_2113">
<rect width="70" height="70" rx="35" fill="white"/>
</clipPath>
</defs>
</svg>
