<svg width="70" height="70" viewBox="0 0 70 70" fill="none" xmlns="http://www.w3.org/2000/svg">
<g clip-path="url(#clip0_331_2151)">
<rect width="70" height="70" rx="35" fill="#7196FF"/>
<path d="M26.1411 59.8348L24.6035 61.3595L35.7699 72.4317L37.3078 70.9067L26.1411 59.8348Z" fill="#2E3338"/>
<path d="M33.1229 59.8514L31.585 61.3761L42.7513 72.448L44.2892 70.9233L33.1229 59.8514Z" fill="#2E3338"/>
<path d="M45.7025 57.9354C48.5941 55.0547 50.3837 51.2656 50.7634 47.219C51.1431 43.1721 50.0891 39.1207 47.7831 35.761L40.5491 25.2128H31.9914V38.6675C31.9914 39.8363 31.5229 40.9571 30.6896 41.7836C29.856 42.6098 28.7255 43.0741 27.5467 43.0741H13.7881V46.1215C13.7881 50.602 15.5799 54.8992 18.7706 58.0718C21.9612 61.2444 26.2907 63.033 30.8093 63.0453H33.3151C37.9578 63.0066 42.4022 61.1735 45.7025 57.9354Z" fill="#FFD836"/>
<path d="M40.5492 20.2908C42.8188 20.2908 44.9955 21.1848 46.6005 22.7761C48.2052 24.3674 49.1069 26.5257 49.1069 28.7761V30.9795H31.9912V28.7293C32.0038 26.4869 32.911 24.3407 34.5147 22.7595C36.1181 21.1783 38.2877 20.2907 40.5492 20.2908Z" fill="#FFD836"/>
<path d="M51.6118 27.8383C52.0238 28.2422 52.349 28.7245 52.5684 29.2562C52.7878 29.7879 52.8968 30.358 52.8884 30.9324H44.7088C44.4049 30.9264 44.1091 30.8324 43.8584 30.6621C43.6074 30.4917 43.4122 30.2523 43.2967 29.9734C43.1812 29.6945 43.1503 29.3882 43.208 29.0922C43.2658 28.7961 43.4093 28.5233 43.6213 28.3071L45.2763 26.6663V24.3223C45.276 24.0194 45.3941 23.7282 45.6054 23.5097C45.817 23.2912 46.1058 23.1624 46.411 23.1503C46.7226 23.167 47.0207 23.282 47.262 23.4784L51.6118 27.8383Z" fill="#FF9A15"/>
<path d="M40.5482 20.2905H38.0421C34.9579 20.2866 32.0005 19.0732 29.8154 16.9151L28.5859 15.5555V16.3994C28.5859 19.1348 29.6819 21.7581 31.6327 23.6923C33.5833 25.6265 36.229 26.7131 38.9877 26.7131H40.5008L40.5482 20.2905Z" fill="#FFD836"/>
<path d="M28.3975 24.1345H35.253V30.9322L28.3975 24.1345Z" fill="#FFD836"/>
<path d="M17.7588 49.6375C19.0373 52.3456 21.3188 54.461 24.1295 55.5443C26.9401 56.6277 30.0637 56.596 32.8511 55.4553C35.6385 54.3148 37.8758 52.1533 39.0979 49.4198C40.32 46.6863 40.4329 43.5911 39.4134 40.7772L17.7588 49.6375Z" fill="#FF9A15"/>
<path d="M6.22266 35.5734L11.5655 41.1053C12.2669 41.7918 12.8243 42.6093 13.2057 43.5104C13.5873 44.4117 13.7851 45.3786 13.7877 46.3558H17.6174V43.6839C17.6129 42.1905 17.1093 40.741 16.1854 39.5619C15.2614 38.3827 13.9693 37.5407 12.5111 37.1674L6.22266 35.5734Z" fill="#FFD836"/>
<path d="M16.2929 44.7621L15.8674 45.1838C15.6929 45.3499 15.4728 45.4612 15.2347 45.5038C14.9966 45.5464 14.7511 45.5186 14.5292 45.4235C14.3069 45.3283 14.1182 45.1702 13.9862 44.9692C13.8543 44.7682 13.7849 44.5331 13.7872 44.293V31.9636L16.2929 34.4484C17.656 35.8247 18.4196 37.6762 18.4196 39.6051C18.4196 41.534 17.656 43.3858 16.2929 44.7621Z" fill="#FFD836"/>
<path d="M41.069 26.7131C41.6697 26.7131 42.1565 26.2304 42.1565 25.6349C42.1565 25.0394 41.6697 24.5566 41.069 24.5566C40.4683 24.5566 39.9814 25.0394 39.9814 25.6349C39.9814 26.2304 40.4683 26.7131 41.069 26.7131Z" fill="#202225"/>
</g>
<defs>
<clipPath id="clip0_331_2151">
<rect width="70" height="70" rx="35" fill="white"/>
</clipPath>
</defs>
</svg>
