<svg width="70" height="70" viewBox="0 0 70 70" fill="none" xmlns="http://www.w3.org/2000/svg">
<g clip-path="url(#clip0_331_2359)">
<rect width="70" height="70" rx="35" fill="#5865F2"/>
<path d="M48.9972 86.869C41.0023 84.956 30.2154 74.0988 30.2154 74.0988C30.2154 74.0988 26.4599 82.557 24.2298 86.869H16.2035C12.5281 86.869 9.63437 83.3701 10.0187 79.7174C10.3857 76.2228 12.0463 72.3049 14.5644 66.5845C18.7606 57.0513 20.1084 52.0562 28.3902 52.0562H35.8384L52.9465 44.4673C64.0257 50.2093 71.6189 53.5751 78.0852 57.4887C87.7192 63.3108 95.2464 75.2333 87.8296 86.869H48.9972Z" fill="#FFC619"/>
<path d="M56.6583 86.8691C56.7071 86.7457 61.6058 73.8726 64.1683 65.8463L64.3317 65.3343C66.0714 59.9192 67.4636 55.5628 67.286 51.698L68.4791 52.2945C68.4791 56.1724 67.1269 60.4529 65.4446 65.6926L65.2768 66.2047C62.9308 73.5067 58.6773 84.784 57.8643 86.8691H56.627C56.6497 86.842 56.6497 86.8951 56.6583 86.8691Z" fill="black"/>
<path d="M11.9097 84.8144C11.4734 84.3824 11.1422 83.8552 10.9386 83.276C10.7362 82.6957 10.668 82.0765 10.7394 81.467C11.2558 76.3377 13.9201 70.2687 16.685 63.9691C17.6474 61.7606 18.6456 59.4991 19.543 57.282L20.6246 57.7237C19.7412 59.9581 18.7213 62.238 17.7535 64.4422C14.3748 72.0885 11.167 79.4036 11.9097 84.8144Z" fill="white"/>
<path d="M35.835 66.1559C37.1914 71.7215 39.1174 78.9662 41.5998 86.869H56.6185C56.6185 86.869 61.5486 74.0231 64.1598 65.8907C66.7699 57.7583 68.7132 52.0076 66.0987 46.6315C63.4832 41.2553 59.3087 40.8883 52.9615 44.4674L53.9022 54.6047L49.1497 68.1706L46.8654 60.9963C42.2049 57.8687 36.268 59.5965 35.835 66.1559Z" fill="#FFC619"/>
<path d="M55.1736 82.0367L56.3927 78.476C59.0439 70.7323 61.34 64.0451 62.913 57.9935C64.2381 52.9746 65.2677 47.0377 64.6225 44.3518C65.1562 44.9949 65.613 45.6975 65.9833 46.4466C65.9833 50.2985 64.7286 55.6562 64.0444 58.289C62.4584 64.3807 60.1611 71.0993 57.4969 78.8517L56.2779 82.4123C55.7658 83.9182 55.2581 85.6233 54.759 86.8693H53.5C54.0478 85.5886 54.5815 83.7677 55.1736 82.0367Z" fill="white"/>
<path d="M44.3276 86.8689C42.7026 81.365 40.3166 72.9187 37.2605 62.4544C37.2389 62.3808 37.2324 62.3028 37.241 62.2271C37.2486 62.1502 37.2724 62.0766 37.3092 62.0095C37.346 61.9423 37.3958 61.8828 37.4554 61.8352C37.516 61.7864 37.5842 61.7507 37.6578 61.7302C37.7314 61.7085 37.8083 61.702 37.8851 61.7096C37.9609 61.7182 38.0356 61.741 38.1027 61.7789C38.1698 61.8157 38.2294 61.8655 38.277 61.925C38.3247 61.9846 38.3604 62.0538 38.382 62.1274C41.4739 72.8039 43.9173 81.365 45.5423 86.8646L44.3276 86.8689Z" fill="white"/>
<path d="M38.4927 22.0938C47.5258 20.8077 50.9402 21.4702 54.3547 29.0733C57.7703 36.6752 56.0078 43.0625 50.3794 51.2122C44.7522 59.3619 31.1018 57.9307 25.8145 55.9474C20.5271 53.9641 16.0127 48.7872 13.4773 41.4104C10.9418 34.0337 11.7105 25.9717 15.571 21.572C19.4315 17.1724 25.9249 13.431 31.7654 15.2995C37.6049 17.168 38.4927 22.0938 38.4927 22.0938Z" fill="#DE3A93"/>
<path d="M34.1692 33.5116C33.997 33.5116 33.8303 33.4478 33.7004 33.3341C33.5705 33.2204 33.4861 33.0635 33.4634 32.8924C33.4406 32.7214 33.4796 32.547 33.5748 32.4031C33.669 32.2591 33.813 32.1541 33.9797 32.1075L36.6873 31.3649C36.7782 31.34 36.8735 31.3335 36.9666 31.3454C37.0597 31.3573 37.1506 31.3865 37.2318 31.4331C37.3141 31.4796 37.3855 31.5424 37.4429 31.616C37.5014 31.6907 37.5436 31.7763 37.5685 31.8661C37.5934 31.9571 37.601 32.0523 37.5891 32.1454C37.5772 32.2385 37.5468 32.3295 37.5003 32.4107C37.4537 32.4929 37.3921 32.5644 37.3174 32.6228C37.2427 32.6802 37.1582 32.7224 37.0673 32.7473L34.3554 33.49C34.2948 33.5062 34.232 33.5138 34.1692 33.5116Z" fill="black"/>
<path d="M36.8207 35.0046H36.7276L33.9453 34.6517C33.8479 34.6452 33.7526 34.6192 33.666 34.5748C33.5794 34.5293 33.5026 34.4687 33.4409 34.3929C33.3791 34.3182 33.3326 34.2306 33.3055 34.1374C33.2785 34.0443 33.2709 33.9458 33.2828 33.8495C33.2947 33.7531 33.3272 33.6589 33.3759 33.5756C33.4257 33.4911 33.4907 33.4186 33.5697 33.3612C33.6487 33.3028 33.7375 33.2627 33.8328 33.24C33.9269 33.2183 34.0255 33.2161 34.1218 33.2335L36.9084 33.5875C37.0913 33.607 37.2592 33.6968 37.3783 33.8376C37.4963 33.9783 37.5558 34.1591 37.5439 34.3431C37.5331 34.5261 37.4519 34.6982 37.3165 34.8227C37.1823 34.9483 37.0047 35.0165 36.8207 35.0143V35.0046Z" fill="black"/>
<path d="M14.2902 33.2995C14.1506 33.2995 14.0141 33.2583 13.8972 33.1804L11.7418 31.7579C11.5957 31.6485 11.4971 31.4883 11.4668 31.3086C11.4354 31.1289 11.4733 30.9438 11.574 30.7922C11.6747 30.6396 11.8284 30.5324 12.006 30.4902C12.1835 30.4479 12.3697 30.475 12.5278 30.5659L14.6832 31.9885C14.8174 32.0707 14.9214 32.1953 14.9777 32.3414C15.034 32.4886 15.0405 32.6499 14.995 32.8015C14.9506 32.952 14.8575 33.0841 14.7298 33.1772C14.602 33.2692 14.4483 33.3168 14.2902 33.3135V33.2995Z" fill="black"/>
<path d="M14.4096 34.4923C14.3738 34.4966 14.336 34.4966 14.2992 34.4923L12.0907 34.148C11.9077 34.1144 11.7443 34.0105 11.6371 33.8579C11.5288 33.7063 11.4844 33.5179 11.5137 33.3339C11.5418 33.1498 11.6414 32.9831 11.7908 32.8716C11.9402 32.7601 12.1264 32.7103 12.3115 32.7341L14.52 33.0784C14.6986 33.1065 14.8588 33.2007 14.9704 33.3425C15.0819 33.4833 15.136 33.6619 15.1219 33.8405C15.1079 34.0202 15.0266 34.188 14.8946 34.3104C14.7636 34.4327 14.5904 34.5009 14.4096 34.5009V34.4923Z" fill="black"/>
<path d="M41.4564 14.809C42.9547 14.8361 44.1076 15.8515 44.165 16.5758C44.2224 17.3 41.5138 19.5626 38.0332 23.9135L37.1055 23.5552C40.3879 15.1359 39.9591 14.783 41.4564 14.809Z" fill="black"/>
<path d="M40.3752 26.2683C40.2161 26.2704 40.0602 26.2217 39.9324 26.1265C39.9108 26.0994 36.819 23.7631 34.1374 22.1241C33.9761 22.0245 33.8603 21.8654 33.8159 21.6802C33.7726 21.4951 33.8039 21.3013 33.9035 21.139C34.0031 20.9776 34.1623 20.8618 34.3474 20.8185C34.5325 20.7741 34.7263 20.8055 34.8887 20.9051C37.6179 22.5832 40.7726 24.9648 40.8072 24.9865C40.9274 25.0774 41.0161 25.2041 41.0594 25.3481C41.1027 25.492 41.1006 25.6469 41.0518 25.7887C41.0031 25.9316 40.91 26.055 40.7866 26.1416C40.6643 26.2282 40.516 26.2737 40.3655 26.2726L40.3752 26.2683Z" fill="black"/>
<path d="M35.8338 66.1562C34.9504 62.5079 34.3052 59.429 33.9165 57.0084C32.94 50.8852 34.826 49.9044 37.4945 49.0968C40.0787 48.3097 42.1724 46.8169 43.4758 42.1217C44.7782 37.4254 45.5652 37.6116 47.1025 38.3575C48.8282 39.2885 50.2983 40.6288 51.383 42.2624C52.2664 43.7077 52.1517 45.4257 50.4997 49.6576C49.4095 52.2969 47.6697 54.6169 45.4418 56.4032L46.8632 60.9966C41.3951 60.7314 38.104 61.487 35.8338 66.1562Z" fill="#FF78B9"/>
<path d="M26.8631 63.2622C27.6804 59.7287 28.6298 55.9959 26.8631 54.9891C24.3363 53.5406 19.5307 51.3668 16.5926 44.8604C16.4497 44.5346 16.1834 44.2791 15.8521 44.1492C15.5208 44.0193 15.1528 44.0258 14.8258 44.1665L14.6407 44.2412C14.514 44.2953 14.4003 44.3733 14.3051 44.4718C14.2098 44.5703 14.1351 44.6861 14.0853 44.8139C14.0355 44.9416 14.0117 45.078 14.0149 45.2144C14.0193 45.3519 14.0496 45.4862 14.1059 45.6107C15.5468 48.7253 17.3006 51.6862 19.3402 54.4457C18.931 56.1356 18.3929 57.793 17.7326 59.4018C21.0323 60.9477 26.8631 63.2622 26.8631 63.2622Z" fill="#FF78B9"/>
<path d="M44.4654 51.8168C44.3539 51.7107 44.2879 51.5646 44.2825 51.4098C44.2781 51.255 44.3344 51.1045 44.4395 50.9908C45.522 49.8595 46.4834 48.6178 47.3062 47.2851C48.68 44.9662 49.9921 40.7517 49.0426 39.6648C49.3782 39.9474 49.7052 40.2483 50.0094 40.5482C50.1794 40.7214 50.307 40.9304 50.3839 41.1599C50.4608 41.3894 50.4835 41.634 50.451 41.8733C50.0895 43.9854 49.3631 46.0185 48.3043 47.8816C47.4361 49.2847 46.4249 50.5946 45.2871 51.7909C45.2352 51.8472 45.1724 51.8915 45.102 51.924C45.0327 51.9554 44.9569 51.9727 44.88 51.976C44.8032 51.9782 44.7263 51.9652 44.6549 51.9381C44.5834 51.911 44.5174 51.8699 44.4611 51.8168H44.4654Z" fill="black"/>
<path d="M44.8202 57.2906H44.7412C42.7243 57.0362 40.6912 56.929 38.6581 56.968C38.565 56.9734 38.4708 56.9593 38.3821 56.929C38.2933 56.8976 38.211 56.8489 38.1406 56.7861C38.0702 56.7233 38.014 56.6475 37.9729 56.5631C37.9317 56.4776 37.9079 56.3855 37.9035 56.2924C37.8981 56.1983 37.9111 56.1041 37.9425 56.0153C37.9739 55.9265 38.0215 55.8442 38.0843 55.7739C38.1471 55.7046 38.2229 55.6472 38.3085 55.6061C38.3929 55.566 38.4849 55.5422 38.5791 55.5368C40.6901 55.4913 42.8012 55.6018 44.896 55.8681C45.0768 55.8886 45.2435 55.9774 45.3626 56.116C45.4806 56.2556 45.5412 56.4343 45.5315 56.6172C45.5217 56.7991 45.4427 56.9712 45.3106 57.0968C45.1786 57.2224 45.0032 57.2938 44.8202 57.2949V57.2906Z" fill="black"/>
<path d="M51.5926 76.7133C51.44 76.7122 51.2916 76.6635 51.1682 76.5725C51.0459 76.4816 50.9539 76.3549 50.9084 76.2099L46.4157 61.924C46.3865 61.8342 46.3756 61.74 46.3832 61.6458C46.3908 61.5527 46.4168 61.4607 46.459 61.3773C46.5023 61.2929 46.5607 61.2182 46.6322 61.1576C46.7047 61.0958 46.787 61.0493 46.8768 61.0212C46.9667 60.9919 47.0609 60.9811 47.1551 60.9887C47.2493 60.9962 47.3402 61.0212 47.4247 61.0645C47.508 61.1078 47.5827 61.1662 47.6445 61.2377C47.7051 61.3102 47.7516 61.3925 47.7808 61.4824L52.2811 75.7811C52.3136 75.8883 52.3201 76.0009 52.3017 76.1114C52.2833 76.2218 52.2389 76.3257 52.1729 76.4166C52.1069 76.5065 52.0213 76.5801 51.9217 76.6321C51.8232 76.6829 51.7128 76.7111 51.6013 76.7133H51.5926Z" fill="black"/>
<path d="M49.1312 68.8861C49.05 68.885 48.9698 68.872 48.893 68.8461C48.8042 68.8158 48.722 68.7681 48.6516 68.7053C48.5812 68.6436 48.5238 68.5678 48.4827 68.4834C48.4416 68.3989 48.4177 68.3069 48.4123 68.2127C48.4069 68.1185 48.4199 68.0244 48.4513 67.9356L52.8206 55.462C52.8823 55.2823 53.0144 55.1351 53.1854 55.0528C53.3565 54.9706 53.5535 54.9597 53.7322 55.0225C53.9119 55.0842 54.058 55.2163 54.1414 55.3873C54.2236 55.5584 54.2345 55.7554 54.1717 55.9341L49.7991 68.4087C49.7504 68.5472 49.6605 68.6674 49.5404 68.753C49.4213 68.8385 49.2784 68.885 49.1312 68.8861Z" fill="black"/>
<path d="M22.6846 81.2592C22.6175 81.2592 22.5504 81.2494 22.4855 81.2321C22.3036 81.1791 22.1509 81.0567 22.0589 80.8911C21.968 80.7254 21.9442 80.5306 21.9951 80.3487C22.0265 80.2513 24.8 70.5513 26.0417 63.7093C26.0526 63.6119 26.0829 63.5177 26.1327 63.4322C26.1814 63.3467 26.2475 63.2731 26.3254 63.2146C26.4044 63.1561 26.4942 63.1139 26.5895 63.0923C26.6848 63.0696 26.7844 63.0674 26.8808 63.0847C26.9771 63.1031 27.0691 63.1399 27.1503 63.194C27.2326 63.2493 27.3019 63.3196 27.3549 63.4019C27.408 63.4852 27.4426 63.5773 27.4589 63.6747C27.4751 63.7711 27.4708 63.8696 27.4459 63.9649C26.1955 70.8739 23.4003 80.6453 23.3732 80.7514C23.3288 80.8987 23.2367 81.0275 23.1133 81.1195C22.9888 81.2104 22.8384 81.2603 22.6846 81.2592Z" fill="black"/>
<path d="M16.8393 25.9184C16.651 25.9173 16.4669 25.8675 16.3045 25.7733C16.1421 25.6791 16.0079 25.5438 15.9137 25.3814C15.8195 25.219 15.7687 25.035 15.7676 24.8466C15.7665 24.6593 15.8152 24.4742 15.9072 24.3108C16.075 24.0239 16.2515 23.7359 16.4377 23.4533C16.6087 23.252 16.848 23.121 17.11 23.0852C17.3731 23.0484 17.6383 23.1112 17.858 23.2596C18.0767 23.4079 18.2337 23.632 18.2976 23.8885C18.3614 24.1451 18.3279 24.4168 18.2045 24.6507C18.0453 24.8845 17.8948 25.1281 17.7628 25.3749C17.6686 25.5384 17.5343 25.6737 17.373 25.769C17.2107 25.8643 17.0266 25.9162 16.8393 25.9184Z" fill="#FFA8D2"/>
<path d="M19.4415 22.6891C19.2185 22.6977 18.9987 22.636 18.8125 22.5126C18.6263 22.3903 18.4834 22.2127 18.4033 22.0049C18.3221 21.797 18.308 21.5696 18.3632 21.3531C18.4173 21.1366 18.5386 20.9428 18.7086 20.7989C20.261 19.4023 22.1047 18.3695 24.1064 17.773C24.2417 17.733 24.3835 17.72 24.5231 17.7351C24.6639 17.7492 24.7992 17.7914 24.9237 17.8585C25.0472 17.9267 25.1565 18.0177 25.2453 18.127C25.334 18.2364 25.4001 18.3619 25.4401 18.4973C25.4802 18.6326 25.4932 18.7744 25.4791 18.9141C25.4639 19.0548 25.4217 19.1901 25.3546 19.3146C25.2874 19.438 25.1965 19.5474 25.0861 19.6361C24.9767 19.7249 24.8512 19.791 24.7159 19.831C23.0205 20.3355 21.4594 21.2113 20.1441 22.3935C19.9546 22.5754 19.7046 22.6815 19.4415 22.6891Z" fill="#FFA8D2"/>
<path d="M15.5598 36.4184C13.1921 33.7411 13.5321 32.0545 14.3191 31.5857C15.1051 31.118 16.3771 32.0274 18.5152 35.4646C20.6533 38.9007 18.8692 40.1554 15.5598 36.4184Z" fill="white"/>
<path d="M26.7928 36.4357C28.3517 33.1761 31.1166 30.764 33.5957 31.1668C36.0738 31.5684 35.0616 35.2438 31.8279 37.6991C28.5953 40.1555 25.0877 40.0093 26.7928 36.4357Z" fill="white"/>
<path d="M14.4467 33.4096C14.358 32.759 14.423 32.0964 14.6373 31.475C15.2999 31.396 16.245 32.1203 17.6144 34.0906C17.4726 35.053 17.0179 35.787 16.3867 35.893C15.5077 36.0381 14.6416 34.9339 14.4467 33.4096Z" fill="black"/>
<path d="M26.7217 36.6134C26.7487 36.556 26.7618 36.4986 26.7932 36.4358C27.5531 34.7751 28.705 33.3223 30.1502 32.2051C30.5508 33.0159 30.7229 33.9221 30.6493 34.8239C30.5302 36.7898 29.4964 38.3271 28.3434 38.2567C27.6322 38.2124 27.04 37.5844 26.7217 36.6134Z" fill="black"/>
<path d="M20.7801 50.7885C19.5525 50.7885 18.7481 50.4659 18.3291 49.8034C17.7586 48.92 18.0943 47.6783 18.55 46.6043C17.8431 45.8054 16.7475 44.2725 17.7586 42.7882C18.7708 41.304 20.5777 41.8345 25.0434 42.9604L25.564 43.0892C25.6561 43.1119 25.7416 43.152 25.8174 43.2083C25.8932 43.2646 25.9571 43.3349 26.0047 43.4161C26.0534 43.4962 26.0859 43.5861 26.1 43.6792C26.113 43.7723 26.1086 43.8676 26.0859 43.9585C26.0632 44.0505 26.022 44.136 25.9657 44.2118C25.9094 44.2876 25.8391 44.3515 25.759 44.4002C25.6778 44.4478 25.5879 44.4803 25.4948 44.4944C25.4017 44.5074 25.3064 44.503 25.2155 44.4803L24.6937 44.3472C21.2446 43.4638 19.3489 43.022 18.9516 43.5926C18.8055 43.8091 18.4082 44.3872 19.9194 45.9645C20.018 46.0685 20.084 46.1994 20.1078 46.3413C20.1316 46.4831 20.1122 46.6292 20.0515 46.7592C19.3089 48.3722 19.4507 48.8843 19.5438 49.0347C19.6358 49.1841 20.1306 49.3574 20.7931 49.3574C22.7948 49.3574 25.0076 48.094 25.0303 48.0799C25.1115 48.0269 25.2025 47.9901 25.2988 47.9738C25.3941 47.9565 25.4926 47.9597 25.5879 47.9825C25.6821 48.0041 25.7719 48.0464 25.8499 48.1048C25.9278 48.1622 25.9928 48.2358 26.0415 48.3202C26.0902 48.4047 26.1216 48.4978 26.1335 48.5941C26.1443 48.6916 26.1357 48.789 26.1086 48.8821C26.0805 48.9763 26.0339 49.0629 25.9722 49.1376C25.9094 49.2123 25.8326 49.2729 25.7459 49.3173C25.6301 49.379 23.1705 50.7885 20.7801 50.7885Z" fill="black"/>
<path d="M21.7112 48.0097C21.6051 48.0097 21.499 47.9848 21.4037 47.9393C21.3074 47.8939 21.2219 47.8268 21.1548 47.7445C20.6405 47.0635 20.2129 46.3219 19.8828 45.536C19.807 45.3606 19.8048 45.1614 19.8762 44.985C19.9477 44.8074 20.0862 44.6656 20.2627 44.5909C20.4381 44.5162 20.6362 44.514 20.8138 44.5844C20.9913 44.6558 21.1331 44.7944 21.2078 44.9709C21.4861 45.6388 21.8455 46.2711 22.2763 46.8524C22.3619 46.9574 22.4149 47.0841 22.4312 47.2183C22.4474 47.3526 22.4247 47.489 22.3662 47.6113C22.3078 47.7336 22.2168 47.8365 22.102 47.908C21.9873 47.9805 21.8552 48.0184 21.7199 48.0184L21.7112 48.0097Z" fill="black"/>
</g>
<defs>
<clipPath id="clip0_331_2359">
<rect width="70" height="70" rx="35" fill="white"/>
</clipPath>
</defs>
</svg>
