<svg width="70" height="70" viewBox="0 0 70 70" fill="none" xmlns="http://www.w3.org/2000/svg">
<g clip-path="url(#clip0_331_2028)">
<rect width="70" height="70" rx="35" fill="#3895F2"/>
<path d="M30.5752 21.9441C30.6082 19.986 30.7774 18.0325 31.0806 16.0977C31.2971 15.5203 31.73 15.015 33.1727 16.7473C34.6154 18.4796 37.0679 22.1606 37.0679 22.1606L30.5752 21.9441Z" fill="#FF8C19"/>
<path d="M44.0664 22.4492C47.1683 18.1907 49.6218 16.3863 50.8481 16.4585C52.0743 16.5307 51.9303 17.8299 50.8481 25.6972C49.7658 33.5645 44.0664 22.4492 44.0664 22.4492Z" fill="#FF8C19"/>
<path d="M31.2971 87.2643L22.4234 70.0146C17.9503 68.2818 12.9003 67.9928 11.818 72.6846C10.7368 77.3764 12.6838 80.7683 16.724 88.7081C13.3332 90.1518 11.1686 90.6573 9.07658 92.9669C6.98451 95.2765 5.25394 98.163 6.84057 99.3903C8.4283 100.618 9.79847 99.8958 10.8808 98.8849C11.9631 97.874 13.3332 96.4314 14.7045 95.8534C16.0747 95.2765 20.9082 93.5438 23.0003 92.5329C26.8965 90.6573 31.0081 88.7806 31.2971 87.2643Z" fill="#FF8C19"/>
<path d="M20.6923 58.6818C19.0332 63.0845 16.9411 70.0145 18.8892 77.8092C20.3319 83.7272 26.0312 90.9451 36.997 90.9451C47.9617 90.9451 55.8982 83.7998 54.8159 75.7161C54.3104 72.3956 51.6415 67.6324 48.8275 65.3942C49.9098 63.301 52.5074 58.4653 53.3007 56.0842C54.094 53.7021 55.1763 51.2474 51.714 46.9173C41.758 34.5029 28.9892 37.9673 26.1027 40.277C23.2173 42.5867 22.135 46.1234 21.1977 51.6089C20.8428 53.9493 20.6747 56.315 20.6923 58.6818Z" fill="white"/>
<path d="M25.3087 51.898C24.2781 49.5389 23.9286 46.9386 24.2989 44.3912H23.0002C22.152 46.7037 21.5476 49.0983 21.1971 51.5365C20.8422 53.878 20.673 56.2425 20.6917 58.6104C18.3831 64.3845 17.8063 68.9312 17.5898 77.7368L15.9307 83.7273L24.01 86.182C23.0584 85.2074 22.2332 84.1163 21.5575 82.934C18.0953 75.0667 19.6094 65.5393 25.3087 51.898Z" fill="#FF8C19"/>
<path d="M54.8149 75.7161C54.3095 72.3956 51.6406 67.6324 48.8266 65.3942C49.9089 63.301 52.5064 58.4653 53.2997 56.0842C54.0931 53.7021 55.1753 51.2474 51.7131 46.9173C50.9165 45.8946 50.0221 44.9519 49.0431 44.1024L44.5711 41.504C48.0333 46.7008 45.2193 50.0212 41.6846 53.1967C45.7248 58.3939 46.3016 70.7353 46.3741 80.6957L45.8687 89.1409C51.857 86.5423 55.5357 81.3462 54.8149 75.7161Z" fill="#FF8C19"/>
<path d="M54.5983 79.6861C53.7325 83.4395 50.8471 86.6875 46.7344 88.7806C44.5698 93.0384 42.9832 93.9768 39.9528 93.3274C39.2144 93.1911 38.5123 92.9022 37.8914 92.4802C37.2706 92.0572 36.7443 91.51 36.3466 90.8738C35.1961 89.0235 34.2292 87.0655 33.4601 85.0272C31.0076 79.1081 27.6168 76.1491 29.132 73.767C30.6472 71.3859 33.2436 72.1792 34.5424 74.0559C36.1554 76.6194 37.6244 79.2696 38.943 81.9957C38.4386 72.9011 40.0978 68.7148 43.9215 68.8598C47.7442 69.0038 52.7942 71.8903 54.5983 79.6861Z" fill="#FF8C19"/>
<path d="M50.1252 51.6091C44.9313 49.7324 42.5503 49.0105 39.5198 53.1243L34.9753 59.1874C33.4601 61.2806 33.0997 63.3012 34.9753 64.2396C36.8509 65.1779 39.0881 63.0848 40.3143 61.786C41.5405 60.4872 46.8069 55.2175 50.1252 55.1461H53.66C54.3819 53.0529 54.6698 50.6708 51.7119 46.9176L51.279 46.4123L48.8265 46.1958L50.1252 51.6091Z" fill="#FF8C19"/>
<path d="M52.0738 53.0528C51.9902 53.9329 51.821 54.8031 51.5683 55.6514L50.9189 55.4338C51.2178 54.6482 51.3881 53.8197 51.4244 52.9803C51.4244 52.8363 51.6408 52.6913 51.7848 52.6913C51.9287 52.6913 52.0738 52.9077 52.0738 53.0528Z" fill="black"/>
<path d="M53.8054 50.6704C54.0219 51.3923 53.589 52.7636 50.1267 51.6088L48.828 51.1758C45.0767 49.8046 42.9122 49.4431 40.5322 51.8977C27.2579 53.1965 25.4537 48.0718 22.3519 48.0718H21.9189C22.7123 44.6075 23.8671 42.1535 26.1031 40.2769C28.3402 38.4003 41.7584 34.5027 51.7133 46.9172L52.1463 47.4224C52.2243 47.6176 52.3484 47.7908 52.5078 47.9279C52.588 48.1048 52.6847 48.274 52.7957 48.4333C53.078 48.8673 53.3187 49.3266 53.5175 49.8046L53.734 50.2375C53.734 50.3814 53.8054 50.5265 53.8054 50.6704Z" fill="black"/>
<path d="M18.4551 40.1327L27.4002 41.2154L44.5697 41.5041L55.319 47.5669L58.9263 33.9255L47.9605 21.2224L32.3776 20.6449L20.7636 19.7788L19.6813 32.0489L18.4551 40.1327Z" fill="#FFD73B"/>
<path d="M44.5703 41.504L46.8074 32.3375L47.9611 21.2223L58.9269 33.9255L55.3196 47.567L44.5703 41.504Z" fill="#FFB619"/>
<path d="M18.4565 40.1327L12.3242 44.2468L12.8286 45.4738L25.3095 47.5669H38.6553L44.4272 42.8754L46.7357 48.2885L56.6917 52.3308L57.485 51.8979L55.3204 47.5669L52.2911 47.6391L44.5711 41.5041L23.5779 44.3911L18.4565 40.1327Z" fill="#FFD73B"/>
<path d="M18.4565 40.1327L12.3242 44.2468L25.6699 46.4843H38.2234L44.5711 41.5041L27.4016 41.2153L18.4565 40.1327Z" fill="#FFF2A6"/>
<path d="M55.3196 47.5669L44.5703 41.504L47.6007 47.5669L57.4842 51.8979L55.3196 47.5669Z" fill="#FFB619"/>
<path d="M41.5405 33.8534C40.5681 35.4517 39.0177 36.6146 37.2113 37.1013C36.6246 37.2845 35.995 37.2845 35.4082 37.1013C35.3357 37.0291 35.3357 36.957 35.3357 36.8126C34.9643 35.2253 35.0907 33.5621 35.6972 32.0489C36.4905 30.3166 39.088 28.2236 40.8911 28.1514H41.5405L41.7569 28.801C42.0448 29.9558 42.4063 32.3376 41.5405 33.8534Z" fill="black"/>
<path d="M41.5409 28.2235H40.8915C39.0884 28.2957 36.4909 30.3888 35.6976 32.121C35.091 33.6343 34.9647 35.2975 35.3361 36.8848C35.3361 37.029 35.3361 37.1012 35.4086 37.1734C35.1548 37.0838 34.9361 36.9175 34.7812 36.6978C34.6252 36.478 34.5427 36.2154 34.5427 35.9464C34.1713 34.3591 34.2977 32.6959 34.9042 31.1827C35.6976 29.4505 38.2939 27.3573 40.0981 27.2852C40.4113 27.2384 40.7311 27.3081 40.997 27.4809C41.2629 27.6537 41.4562 27.9178 41.5409 28.2235Z" fill="#FFB012"/>
<path d="M28.9157 34.3586C28.5553 35.4412 28.2663 36.3795 27.617 36.5239C26.9676 36.6683 25.7413 35.3691 24.8755 33.9977C24.1547 32.5541 24.0822 30.6776 24.3712 28.5844C24.6591 26.4912 25.9578 25.4808 26.8962 26.8522C27.6389 28.1385 28.3136 29.4636 28.9157 30.8219C29.2387 31.9786 29.2387 33.2019 28.9157 34.3586Z" fill="black"/>
<path d="M26.8969 26.8523C25.9586 25.4809 24.7323 26.2027 24.3719 28.5845C24.0105 30.9664 24.1555 32.5542 24.8763 33.9978C24.7565 33.8711 24.6587 33.7246 24.5884 33.5647C23.5775 32.049 23.3622 29.8837 23.7226 27.5018C24.083 25.12 25.2378 24.1817 26.175 25.6252L26.8969 26.8523Z" fill="#FFB012"/>
<path d="M24.8767 33.9979C24.8042 33.9256 24.8042 33.8531 24.7317 33.8531C24.6592 33.8531 24.8042 33.9256 24.8767 33.9979Z" fill="#FFB012"/>
<path d="M22.1342 51.8979C20.475 49.8762 18.5994 46.1234 17.4457 42.5867C16.2909 39.05 14.9921 38.3283 13.478 38.1839C13.0978 38.1423 12.7122 38.183 12.3496 38.3031C11.987 38.4232 11.653 38.6199 11.3728 38.8799C11.0926 39.14 10.8717 39.4574 10.7245 39.8105C10.5773 40.1637 10.5069 40.5443 10.5201 40.9266C10.5201 43.9581 11.8903 47.4226 13.7659 52.6912C15.6415 57.961 16.4348 59.1158 20.6915 58.6818C23.7219 58.3939 23.7219 53.8461 22.1342 51.8979Z" fill="#FF8C19"/>
<path d="M15.3538 40.9989C15.3329 40.8212 15.2725 40.6506 15.1747 40.5005C15.078 40.3504 14.9472 40.2249 14.7934 40.1339C14.6396 40.043 14.4671 39.989 14.2891 39.9763C14.11 39.9635 13.932 39.9924 13.766 40.0605C13.6836 39.8565 13.5452 39.6803 13.3661 39.5524C13.187 39.4245 12.976 39.3504 12.7563 39.3389C12.1794 39.3389 11.8904 39.7719 11.963 40.3493C12.0344 40.9267 10.6642 40.4215 10.9532 41.7929C11.162 42.6919 11.529 43.5471 12.0344 44.3191C12.2662 44.7075 12.6134 45.0138 13.0266 45.1951C13.4408 45.3763 13.9012 45.4233 14.3429 45.3295C14.7176 45.2136 15.0395 44.9688 15.2505 44.6385C15.4615 44.3083 15.5494 43.9138 15.4977 43.5251C15.59 42.6809 15.5417 41.8272 15.3538 40.9989Z" fill="white"/>
<path d="M41.5407 33.8531C41.2154 34.4624 40.7748 35.0018 40.2419 35.4409C40.4595 35.0935 40.5836 34.6957 40.6023 34.2861C40.8913 32.6261 40.1694 31.3269 39.0157 31.3991C37.8609 31.4713 36.7071 32.7705 36.4181 34.3583C36.1292 35.9462 36.6346 36.6679 37.3565 37.0289H37.2115L36.2742 37.1732C35.6886 36.2788 35.4809 35.1889 35.6963 34.1417C35.9852 32.0487 37.5004 30.2443 39.1596 30.2443C40.8187 30.2443 41.6846 31.8321 41.5407 33.8531Z" fill="#57F287"/>
<path d="M28.9162 30.8218L28.5558 30.0278C28.2229 29.8468 27.8515 29.7478 27.4735 29.739C26.0308 29.739 24.876 31.327 24.876 33.2758C24.8639 33.5663 24.8892 33.8572 24.9485 34.1418C25.8144 35.5132 26.6791 36.7402 27.6175 36.5237C28.5558 36.3072 28.5558 35.441 28.9162 34.3584C29.2392 33.2017 29.2392 31.9784 28.9162 30.8218Z" fill="#57F287"/>
<path d="M28.9155 34.3585C29.1462 33.4631 29.1946 32.5304 29.0594 31.6157C28.9177 31.3558 28.71 31.1384 28.4562 30.9861C28.2024 30.8338 27.9123 30.7522 27.6167 30.7496C26.5344 30.7496 25.6686 32.0488 25.6686 33.7089C25.6192 34.5751 25.9037 35.4276 26.463 36.0907C26.6036 36.253 26.7839 36.3775 26.9849 36.4531C27.186 36.5286 27.4036 36.5529 27.6167 36.5238C28.2661 36.3794 28.5551 35.4411 28.9155 34.3585Z" fill="black"/>
<path d="M21.6299 50.743L23.0726 52.9076" stroke="black" stroke-width="0.902235" stroke-miterlimit="10" stroke-linecap="round"/>
<path d="M14.6853 41.9145C14.9457 41.8128 15.038 41.4293 14.893 41.0581C14.7468 40.6871 14.4194 40.4688 14.159 40.5705C13.8997 40.6724 13.8074 41.0557 13.9524 41.4269C14.0975 41.7981 14.426 42.0164 14.6853 41.9145Z" fill="#FF78B9"/>
<path d="M13.0017 41.4052C13.2621 41.3033 13.3544 40.92 13.2094 40.5488C13.0632 40.1776 12.7358 39.9593 12.4754 40.0612C12.2161 40.163 12.1238 40.5464 12.2688 40.9175C12.4139 41.2886 12.7424 41.507 13.0017 41.4052Z" fill="#FF78B9"/>
<path d="M11.9703 42.2864C12.1933 42.1992 12.2669 41.8577 12.1362 41.5236C12.0054 41.1896 11.7186 40.9895 11.4967 41.0769C11.2736 41.1641 11.1989 41.5056 11.3308 41.8396C11.4615 42.1737 11.7472 42.3738 11.9703 42.2864Z" fill="#FF78B9"/>
<path d="M12.5393 42.1538C12.2504 42.9477 12.2504 43.453 12.6833 43.5973C12.9657 43.7178 13.2744 43.7613 13.5788 43.7233C13.882 43.6851 14.171 43.567 14.4149 43.3808C14.9193 43.0199 14.7028 42.659 14.1985 42.2982C13.6931 41.9372 12.8272 41.3598 12.5393 42.1538Z" fill="#FF78B9"/>
<path d="M12.3955 71.1694C13.4053 69.5092 16.3632 70.8079 18.1663 71.3134C19.9705 71.8188 19.1046 70.375 17.084 68.8598C14.9919 68.7873 13.3328 69.4366 12.3955 71.1694Z" fill="#ED5F00"/>
<path d="M52.5781 26.4911L51.9287 31.9043L54.8866 34.7193L55.4635 29.8833L52.5781 26.4911Z" fill="white"/>
<path d="M26.6799 32.1932C27.0777 32.1932 27.4007 31.8701 27.4007 31.4714C27.4007 31.0728 27.0777 30.7496 26.6799 30.7496C26.2811 30.7496 25.958 31.0728 25.958 31.4714C25.958 31.8701 26.2811 32.1932 26.6799 32.1932Z" fill="white"/>
<path d="M37.4288 33.2036C37.8277 33.2036 38.1507 32.8804 38.1507 32.4818C38.1507 32.0832 37.8277 31.76 37.4288 31.76C37.0311 31.76 36.708 32.0832 36.708 32.4818C36.708 32.8804 37.0311 33.2036 37.4288 33.2036Z" fill="white"/>
<path d="M37.6465 55.6502C38.6563 54.279 42.5514 54.0625 43.9227 54.8569C45.2929 55.6502 44.6435 54.713 44.0666 54.2075C43.4898 53.7021 40.6758 51.6089 38.4398 54.5679L37.6465 55.6502Z" fill="#ED5F00"/>
<path d="M44.5703 50.0927C46.447 50.1652 47.3118 51.5364 47.8172 52.5473C48.3226 53.5582 48.5391 52.2583 48.0337 50.8871C46.914 50.4904 45.7515 50.2234 44.5703 50.0927Z" fill="#ED5F00"/>
<path d="M18.0959 54.568C15.8588 54.713 14.4886 54.713 14.0557 53.5582C14.4655 54.7053 14.9721 55.8162 15.5709 56.8776C19.2496 55.8678 20.4044 54.4955 18.0959 54.568Z" fill="#ED5F00"/>
</g>
<defs>
<clipPath id="clip0_331_2028">
<rect width="70" height="70" rx="35" fill="white"/>
</clipPath>
</defs>
</svg>
