<svg width="70" height="70" viewBox="0 0 70 70" fill="none" xmlns="http://www.w3.org/2000/svg">
<g clip-path="url(#clip0_331_2609)">
<rect width="70" height="70" rx="35" fill="#5A49E3"/>
<path d="M20.9668 67.8175L56.3487 68.097L56.4605 49.372L56.4046 41.9937C56.3767 39.8138 55.1749 37.9413 52.8553 38.0531C50.5356 38.1649 45.7286 39.171 45.7286 39.171L29.4629 43.1955C25.6061 50.9371 21.945 63.9048 20.9668 67.8175Z" fill="#3F99F2"/>
<path d="M44.4155 48.1982C43.6802 51.0507 43.111 53.9435 42.7107 56.862C42.6787 57.0794 42.6937 57.3012 42.7548 57.5123C42.8158 57.7235 42.9214 57.9191 43.0644 58.086C43.2074 58.2528 43.3846 58.3871 43.5839 58.4797C43.7832 58.5723 44.0001 58.621 44.2199 58.6227H56.4051L56.461 49.372L56.4051 41.9937C56.3772 39.8138 55.1754 37.9413 52.8557 38.0531C51.123 38.1369 48.1046 38.6959 46.5954 39.0033L44.4155 48.1982Z" fill="#3F99F2"/>
<path d="M48.4118 59.0978H44.3593C44.078 59.1014 43.7993 59.0434 43.5428 58.9279C43.2863 58.8123 43.0581 58.6421 42.8744 58.429C42.6906 58.216 42.5557 57.9653 42.4791 57.6946C42.4025 57.4239 42.3861 57.1397 42.4309 56.862C42.7104 54.8218 43.9401 48.3938 43.996 48.1143C44.006 48.0587 44.0271 48.0057 44.058 47.9585C44.089 47.9113 44.1291 47.8708 44.1761 47.8394C44.2231 47.8081 44.2759 47.7866 44.3314 47.7762C44.3869 47.7658 44.4439 47.7667 44.4991 47.7789C44.6078 47.8056 44.7026 47.872 44.7647 47.9652C44.8268 48.0583 44.8517 48.1714 44.8345 48.282C44.8065 48.3379 43.5489 54.9615 43.2414 56.9737C43.2224 57.1341 43.2374 57.2967 43.2856 57.4508C43.3337 57.6049 43.4139 57.7471 43.5209 57.8681C43.6207 57.9939 43.7484 58.0948 43.8939 58.1627C44.0395 58.2306 44.1988 58.2637 44.3593 58.2593H48.4118C48.523 58.2593 48.6296 58.3035 48.7082 58.3821C48.7868 58.4608 48.831 58.5674 48.831 58.6786C48.831 58.7898 48.7868 58.8964 48.7082 58.975C48.6296 59.0536 48.523 59.0978 48.4118 59.0978Z" fill="#3442D9"/>
<path d="M66.0752 24.8617C65.6 27.6285 62.3581 29.7246 54.9799 29.7246C47.6016 29.7246 29.9386 27.7683 23.2591 25.6722C19.7377 24.5822 16.2721 23.4084 14.3437 21.1726C12.4153 18.9367 12.9184 15.9463 15.294 14.493C19.1228 12.1734 24.6565 13.7943 27.7028 14.0738C29.151 14.1967 30.6095 14.0547 32.0068 13.6546C34.9692 12.8441 37.4566 11.1672 40.1116 10.4406C41.2114 10.1365 42.3585 10.0417 43.4933 10.1611C44.7813 10.2522 46.0192 10.6971 47.0706 11.4467C49.1667 12.9839 49.8654 15.4433 52.6323 17.0363C53.1776 17.3367 53.748 17.5891 54.3371 17.7909C58.4733 19.1603 61.7712 19.5516 63.9232 20.7254C64.6641 21.1094 65.2684 21.7127 65.6536 22.453C66.0388 23.1934 66.186 24.0345 66.0752 24.8617Z" fill="url(#paint0_linear_331_2609)"/>
<path d="M45.0301 15.583C43.4091 12.5646 41.9837 12.9279 41.1733 14.0738C40.3628 15.2196 38.4623 17.7629 42.2353 18.9647C46.0082 20.1664 46.3157 17.9585 45.0301 15.583Z" fill="#EDB997"/>
<path d="M52.6319 17.0363C51.7376 18.0145 49.6415 17.9866 47.8529 16.3656C46.0642 14.7446 46.4834 12.6765 47.0703 11.4468C49.1664 12.9839 49.8651 15.4433 52.6319 17.0363Z" fill="#EDB997"/>
<path d="M38.3789 14.8563C35.5283 16.5611 32.3702 14.6886 32.0068 13.6825C34.9693 12.872 37.4567 11.1951 40.1117 10.4685C40.8104 11.5864 40.3912 13.6546 38.3789 14.8563Z" fill="#EDB997"/>
<path d="M63.2242 24.638C63.2242 24.6939 63.1963 24.7777 63.1963 24.8616C63.0006 26.3148 60.2617 27.5725 55.4268 27.6004C45.0022 27.6563 31.727 25.9515 24.5724 23.6598C21.4422 22.6537 19.1784 21.0886 18.7033 19.6353C18.5963 19.3098 18.5866 18.9601 18.6754 18.6292L18.7592 18.4056C19.4859 16.8405 22.4763 17.2318 25.6903 17.9305L27.1436 18.2938C28.8763 18.713 30.5811 19.1602 31.8947 19.3838C33.7392 19.6912 35.4161 19.9427 37.0091 20.1384L37.9314 20.2502C43.1018 20.865 47.4896 20.9768 53.7499 21.2842H54.5045L55.7342 21.3681C60.4294 21.7314 62.5255 22.486 63.0845 23.7157C63.193 24.0105 63.2406 24.3243 63.2242 24.638Z" fill="#8F473B"/>
<path d="M55.7346 21.3961C54.4769 22.6538 52.3249 23.3804 50.8996 23.7717C48.6622 24.3448 46.362 24.6359 44.0524 24.6381H42.4035L41.8445 24.5822C41.7881 24.5827 41.7322 24.5711 41.6806 24.548C41.6291 24.525 41.5832 24.491 41.546 24.4486C41.5089 24.4061 41.4813 24.3561 41.4653 24.3019C41.4493 24.2478 41.4452 24.1909 41.4532 24.135C41.4736 24.0265 41.5334 23.9293 41.6211 23.8622C41.7088 23.7951 41.8183 23.7629 41.9283 23.7717C46.2323 24.2188 51.9616 23.1848 54.5049 21.3682L55.7346 21.3961Z" fill="#6B2F34"/>
<path d="M63.2244 24.6381C61.1842 25.756 56.1256 26.3709 51.2348 26.3709C47.8251 26.3709 44.4993 26.0635 42.3753 25.3927C42.2721 25.3548 42.188 25.278 42.1409 25.1786C42.0939 25.0793 42.0877 24.9655 42.1238 24.8617C42.1384 24.7931 42.1726 24.7302 42.2222 24.6806C42.2718 24.631 42.3347 24.5969 42.4032 24.5822C42.4865 24.5681 42.5715 24.5681 42.6548 24.5822C42.6548 24.6102 42.6548 24.6102 42.6827 24.6102C47.6574 26.1752 60.1781 25.6722 63.0287 23.7717H63.0846C63.1859 24.049 63.2334 24.3431 63.2244 24.6381Z" fill="#6B2F34"/>
<path d="M39.6918 23.5483C39.6029 23.6375 39.4823 23.6877 39.3564 23.688C39.2551 23.6757 39.1588 23.6372 39.0769 23.5763C38.0714 22.6531 37.3533 21.4595 37.0088 20.1387L37.9311 20.2505C38.2582 21.285 38.8451 22.2184 39.6359 22.9614C39.7206 23.0322 39.774 23.1335 39.7844 23.2434C39.7949 23.3532 39.7616 23.4628 39.6918 23.5483Z" fill="#6B2F34"/>
<path d="M36.9255 22.8774C36.9067 22.9763 36.8551 23.066 36.779 23.132C36.7029 23.1979 36.6068 23.2362 36.5062 23.2408H36.4503C33.7007 22.9611 31.0568 22.0319 28.7367 20.5298C27.6052 19.8096 26.5798 18.9348 25.6904 17.9307L27.1437 18.294C29.5193 20.4739 33.4879 22.1508 36.5342 22.4023C36.6478 22.4163 36.7518 22.4734 36.8246 22.5618C36.8974 22.6502 36.9335 22.7632 36.9255 22.8774Z" fill="#6B2F34"/>
<path d="M36.8415 24.2469C36.8452 24.302 36.8381 24.3573 36.8205 24.4096C36.8029 24.4619 36.7751 24.5102 36.7387 24.5518C36.7024 24.5933 36.6582 24.6273 36.6086 24.6517C36.5591 24.6761 36.5053 24.6905 36.4502 24.6941H35.9192C31.168 24.6941 22.616 22.067 18.7033 19.6355C18.5963 19.31 18.5866 18.9603 18.6754 18.6294C22.1409 21.0888 31.7829 24.0513 36.4222 23.8556C36.4759 23.8518 36.5298 23.8591 36.5806 23.877C36.6313 23.8949 36.6778 23.9231 36.7172 23.9599C36.7565 23.9966 36.7878 24.041 36.8092 24.0904C36.8306 24.1398 36.8416 24.1931 36.8415 24.2469Z" fill="#6B2F34"/>
<path d="M56.4609 69.746V69.8577C56.4609 72.2613 56.0416 74.4132 52.2687 74.3294C46.6512 74.1617 29.4912 70.1652 29.4912 70.1652L32.4816 62.759L47.5455 64.9948V64.0725L47.6014 58.2314H56.405L56.4609 69.746Z" fill="#D18D5E"/>
<path d="M51.9337 65.3022C51.9151 65.3937 51.8666 65.4764 51.7957 65.5371C51.7248 65.5979 51.6357 65.6332 51.5424 65.6376H51.4306C50.2568 65.3861 48.7477 65.1345 47.5459 64.9109V64.0725C48.7756 64.2681 50.3686 64.5476 51.6263 64.8271C51.6803 64.8327 51.7323 64.8504 51.7786 64.8788C51.8249 64.9071 51.8642 64.9455 51.8937 64.9911C51.9232 65.0367 51.9421 65.0883 51.949 65.1421C51.9559 65.196 51.9507 65.2507 51.9337 65.3022Z" fill="#6B2F34"/>
<path d="M46.3719 24.1629L45.4776 36.8791L32.1465 36.2363L33.6277 23.1568C33.663 22.8277 33.8265 22.5259 34.0829 22.3166C34.3392 22.1073 34.6677 22.0075 34.9972 22.0388L45.1981 22.7934C45.5344 22.822 45.8459 22.9816 46.0655 23.2378C46.2851 23.494 46.3952 23.8262 46.3719 24.1629Z" fill="#D18D5E"/>
<path d="M37.2647 27.0278C37.4703 26.8416 37.3519 26.3759 37.0003 25.9876C36.6487 25.5992 36.197 25.4353 35.9914 25.6214C35.7858 25.8076 35.9042 26.2733 36.2558 26.6617C36.6074 27.05 37.0591 27.2139 37.2647 27.0278Z" fill="black"/>
<path d="M41.6591 26.878C42.0478 26.5255 42.2117 26.0729 42.0251 25.8671C41.8384 25.6613 41.372 25.7802 40.9832 26.1327C40.5945 26.4852 40.4306 26.9378 40.6172 27.1437C40.8038 27.3495 41.2703 27.2306 41.6591 26.878Z" fill="black"/>
<path d="M37.4562 30.7029C37.4003 32.0444 37.9313 33.1623 38.6859 33.1902C39.4405 33.2182 40.0833 32.1841 40.1392 30.8426L37.4562 30.7029Z" fill="white"/>
<path d="M50.1447 28.4109C48.3839 28.3271 47.5455 29.0817 45.5612 29.1376C43.5769 29.1935 42.2634 28.7743 40.5027 29.0537C39.9274 29.1112 39.3871 29.3567 38.9655 29.7524C38.9525 29.7698 38.9356 29.7839 38.9162 29.7936C38.8968 29.8033 38.8754 29.8083 38.8537 29.8083C38.832 29.8083 38.8106 29.8033 38.7912 29.7936C38.7718 29.7839 38.755 29.7698 38.7419 29.7524C38.3563 29.3232 37.8496 29.0211 37.2887 28.8861C35.5559 28.4389 34.1585 28.7463 32.258 28.4948C30.3576 28.2433 29.4912 27.4048 27.7584 27.321C26.5287 27.2651 25.83 27.824 25.8021 28.6904C25.7741 29.5568 26.1934 29.9481 26.9759 30.2276C27.7584 30.507 29.7707 30.5909 30.4694 30.535C30.5672 30.5303 30.6642 30.5542 30.7486 30.6039C30.833 30.6535 30.9011 30.7267 30.9445 30.8145C31.1404 31.2351 31.4465 31.5948 31.8302 31.8556C32.214 32.1164 32.6612 32.2685 33.1244 32.2957C33.8677 32.3268 34.6071 32.1732 35.2764 31.8485C37.5122 30.8983 37.8756 30.7865 38.7978 30.8424C39.7201 30.8983 40.0834 31.0101 42.2075 32.1839C42.8356 32.5828 43.5598 32.8049 44.3036 32.8267C44.7664 32.8585 45.2289 32.7601 45.6388 32.5428C46.0488 32.3255 46.3897 31.9979 46.6232 31.597C46.6678 31.512 46.737 31.4425 46.8218 31.3976C46.9066 31.3527 47.003 31.3345 47.0983 31.3455C47.825 31.4852 49.446 31.6808 50.6198 31.4014C51.7936 31.1219 51.9333 30.6747 51.9613 29.976C51.9892 29.2773 51.3744 28.4948 50.1447 28.4109Z" fill="#6B2F34"/>
<path d="M50.7036 38.2767C50.0888 39.0313 46.8748 42.7484 40.2791 47.0803C35.3323 50.3222 27.3672 53.5642 25.4947 54.2349C25.3491 54.2862 25.1899 54.2834 25.0462 54.2269C24.9025 54.1705 24.7839 54.0642 24.7121 53.9275C24.1532 52.8375 22.8117 50.0148 22.4484 47.3598C22.085 44.7047 23.9296 43.0279 25.9977 42.2733V42.2174L25.9418 41.3789L25.7462 37.4383C25.7309 37.2406 25.7563 37.0418 25.8207 36.8543C25.8851 36.6668 25.9872 36.4944 26.1207 36.3478C26.2542 36.2012 26.4163 36.0834 26.597 36.0018C26.7778 35.9202 26.9733 35.8764 27.1715 35.8732L45.3376 35.2863L47.4058 35.2025C47.8242 35.1875 48.2415 35.2552 48.6338 35.4017C49.0261 35.5481 49.3857 35.7705 49.6919 36.056C49.9982 36.3415 50.2452 36.6846 50.4188 37.0657C50.5924 37.4467 50.6892 37.8582 50.7036 38.2767Z" fill="#FF78B9"/>
<path d="M39.3853 39.8138L25.9983 42.2174L25.9424 41.3789L39.2176 38.9754C39.3322 38.9591 39.4486 38.9879 39.5424 39.0556C39.6362 39.1234 39.7001 39.2248 39.7207 39.3387C39.7371 39.4459 39.7113 39.5553 39.6488 39.6439C39.5862 39.7325 39.4918 39.7934 39.3853 39.8138Z" fill="#FF2EA2"/>
<path d="M32.4817 62.7589L30.2738 72.7922C30.2083 73.0827 30.0773 73.3545 29.8907 73.5867C29.7042 73.819 29.4671 74.0055 29.1976 74.1322C28.928 74.2589 28.6331 74.3224 28.3352 74.3178C28.0374 74.3132 27.7446 74.2407 27.479 74.1057L20.2406 70.3048C20.1165 70.2387 19.979 70.2018 19.8385 70.197C19.6981 70.1921 19.5584 70.2195 19.4301 70.2769C18.4798 70.6122 16.244 71.4786 15.0702 71.8699C13.8964 72.2612 13.3654 72.5686 12.0518 72.4568C11.3642 72.4125 10.7153 72.123 10.223 71.6409C9.7307 71.1589 9.42763 70.5162 9.36885 69.8297C9.34638 69.4608 9.39379 69.091 9.50859 68.7397C9.52686 68.6256 9.50289 68.5087 9.44115 68.4109C9.37941 68.3132 9.28415 68.2413 9.17321 68.2087C8.63961 68.0468 8.17222 67.7176 7.84007 67.2697C7.50792 66.8218 7.32862 66.279 7.32865 65.7214V65.4978C7.3567 65.2079 7.43224 64.9247 7.55224 64.6594H6.60201C5.26052 64.6594 3.94697 63.7371 3.89107 62.3956C3.83518 61.0541 4.75745 60.0759 6.46227 59.8523C7.58019 59.6846 14.5671 59.7405 15.9366 59.7405C15.9628 59.749 15.9909 59.7495 16.0174 59.742C16.0438 59.7345 16.0675 59.7193 16.0854 59.6984C16.1033 59.6775 16.1147 59.6518 16.118 59.6245C16.1214 59.5972 16.1166 59.5695 16.1043 59.5449C15.9366 58.6506 15.2379 55.3248 15.4894 54.151C15.741 52.9772 16.244 52.4182 17.1383 52.4182C18.6196 52.4182 18.8991 54.4863 19.1785 55.4366C19.458 56.3868 20.4362 60.3554 22.9515 60.8864C25.4668 61.4174 32.4817 62.7589 32.4817 62.7589Z" fill="#6B2F34"/>
<path d="M10.4589 64.9108C10.4627 64.9682 10.4547 65.0257 10.4354 65.0798C10.416 65.134 10.3858 65.1835 10.3464 65.2255C10.3071 65.2674 10.2596 65.3008 10.2068 65.3236C10.1541 65.3464 10.0972 65.3581 10.0397 65.358L7.32873 65.4977C7.35677 65.2079 7.43231 64.9246 7.55231 64.6593H7.30078L10.0117 64.5195C10.1212 64.5187 10.2273 64.5581 10.3097 64.6302C10.3921 64.7023 10.4452 64.8022 10.4589 64.9108Z" fill="black"/>
</g>
<defs>
<linearGradient id="paint0_linear_331_2609" x1="39.67" y1="29.7358" x2="39.67" y2="10.1052" gradientUnits="userSpaceOnUse">
<stop stop-color="#AA5F44"/>
<stop offset="0.17" stop-color="#B8704E"/>
<stop offset="0.4" stop-color="#C68057"/>
<stop offset="0.66" stop-color="#CE8A5C"/>
<stop offset="1" stop-color="#D18D5E"/>
</linearGradient>
<clipPath id="clip0_331_2609">
<rect width="70" height="70" rx="35" fill="white"/>
</clipPath>
</defs>
</svg>
