<svg width="560" height="118" viewBox="0 0 560 118" fill="none" xmlns="http://www.w3.org/2000/svg">
<rect width="560" height="118" rx="8" fill="#404EED"/>
<path d="M37.1719 92.1802C35.7124 91.1954 34.4743 89.9196 33.5352 88.4333C32.5945 86.9469 31.9725 85.2817 31.71 83.5438L30.7997 77.4832C30.648 77.1802 30.4962 76.8772 30.1928 76.8772C30.032 76.8772 29.8773 76.9408 29.7635 77.0545C29.6497 77.1681 29.5859 77.3226 29.5859 77.4832L28.6756 83.5438C28.3843 85.2923 27.7365 86.9605 26.77 88.4469C25.8036 89.9333 24.5413 91.2045 23.062 92.1802L22.1517 92.6347C22 92.7863 22 92.9378 22 93.2408C22 93.3924 22 93.6954 22.1517 93.6954L23.062 94.3014C24.5549 95.2635 25.8264 96.5317 26.7943 98.0196C27.7608 99.509 28.4025 101.185 28.6756 102.938L29.5859 108.998C29.5859 109.301 29.8894 109.453 30.1928 109.453C30.4962 109.453 30.648 109.301 30.7997 108.998L31.71 102.938C31.9543 101.194 32.5687 99.5226 33.5109 98.0332C34.4516 96.5438 35.7002 95.2726 37.1719 94.3014L38.0822 93.6954C38.2339 93.6954 38.3856 93.3924 38.3856 93.2408C38.3856 93.1242 38.3583 93.0075 38.3052 92.9029C38.2521 92.7969 38.1763 92.706 38.0822 92.6347L37.1719 92.1802Z" fill="#FF78B9"/>
<path d="M308.372 90.9251C307.742 90.5508 307.201 90.0448 306.782 89.4448C306.363 88.8432 306.078 88.1599 305.945 87.4402L305.641 84.8644H305.186L304.731 87.4402C304.623 88.1508 304.365 88.8296 303.972 89.4311C303.579 90.0326 303.062 90.5417 302.455 90.9251L302.152 91.2281C302.111 91.2281 302.073 91.2447 302.044 91.2735C302.015 91.3008 302 91.3402 302 91.3796C302 91.4205 302.015 91.4583 302.044 91.4871C302.073 91.5159 302.111 91.5311 302.152 91.5311L302.455 91.8341C303.062 92.2174 303.579 92.728 303.972 93.3296C304.365 93.9311 304.623 94.6099 304.731 95.319L305.186 97.8947H305.641L305.945 95.319C306.078 94.5993 306.363 93.916 306.782 93.316C307.201 92.7145 307.742 92.2099 308.372 91.8341L308.676 91.5311L308.372 90.9251Z" fill="#FFC619"/>
<path d="M176.062 27.6367C209.592 10.667 233.26 23.8488 233.26 23.8488C249.797 18.6973 264.514 22.3337 271.948 28.0913C276.652 31.8791 266.183 31.1216 242.515 31.1216H176.821C176.338 31.1216 175.874 30.9306 175.533 30.5897C175.191 30.2488 175 29.7852 175 29.3034C174.997 28.9534 175.096 28.6094 175.284 28.314C175.473 28.0185 175.742 27.7822 176.062 27.6367Z" fill="#8080FF"/>
<path d="M498.532 75.8789C489.43 75.8835 480.467 78.091 472.407 82.3122C464.348 86.5349 457.433 92.6456 452.258 100.121C432.005 90.9077 409.531 87.6941 387.503 90.8638C365.476 94.0335 344.824 103.452 328 118H552.999C549.849 105.959 542.799 95.2971 532.946 87.6789C523.094 80.0592 510.993 75.9107 498.532 75.8789Z" fill="#8080FF"/>
<path d="M199.126 36.0719C196.746 34.584 194.725 32.59 193.203 30.234C191.683 27.8764 190.7 25.2143 190.326 22.4355L188.809 12.7385C188.773 12.5249 188.661 12.331 188.494 12.1916C188.327 12.0522 188.116 11.9779 187.899 11.981C187.68 11.9779 187.47 12.0522 187.303 12.1916C187.136 12.331 187.024 12.5249 186.989 12.7385L185.471 22.4355C185.068 25.2052 184.073 27.8567 182.554 30.2082C181.037 32.5613 179.029 34.5613 176.672 36.0719L175.458 36.8294C175.312 36.8931 175.189 36.9991 175.108 37.1355C175.026 37.2719 174.989 37.4294 175.003 37.587C174.989 37.7446 175.026 37.9037 175.108 38.0385C175.189 38.1749 175.312 38.2825 175.458 38.3446L176.672 39.1022C179.022 40.6597 181.019 42.6901 182.534 45.0658C184.05 47.4401 185.05 50.1052 185.471 52.8901L186.989 62.4355C187.024 62.6491 187.136 62.8431 187.303 62.9825C187.47 63.1219 187.68 63.1961 187.899 63.1931C188.116 63.1961 188.327 63.1219 188.494 62.9825C188.661 62.8431 188.773 62.6491 188.809 62.4355L190.326 52.8901C190.718 50.0976 191.707 47.4204 193.226 45.0416C194.743 42.6628 196.756 40.637 199.126 39.1022L200.34 38.3446C200.486 38.2825 200.607 38.1749 200.689 38.0385C200.771 37.9037 200.807 37.7446 200.795 37.587C200.807 37.4294 200.771 37.2719 200.689 37.1355C200.607 36.9991 200.486 36.8931 200.34 36.8294L199.126 36.0719Z" fill="#91FFAD"/>
</svg>
