<svg width="150" height="150" viewBox="0 0 150 150" fill="none" xmlns="http://www.w3.org/2000/svg">
<rect width="150" height="150" fill="#5883F2"/>
<path d="M131.999 111.217C132.619 111.826 133.002 112.676 133.002 113.61C133.002 115.482 131.471 116.997 129.586 116.997H38.3956C34.6596 116.997 31.2829 115.497 28.8356 113.071C26.3883 110.647 24.873 107.293 24.873 103.592C24.873 96.1883 30.9288 90.1865 38.3956 90.1865H129.586C130.528 90.1865 131.38 90.5634 131.999 91.1778C132.619 91.7896 133.002 92.6363 133.002 93.5707C133.002 95.4423 131.471 96.9576 129.586 96.9576H91.7335C88.0391 96.9576 85.0451 99.9287 85.0451 103.592C85.0451 106.617 87.0862 109.168 89.8772 109.963C90.4682 110.133 91.0878 110.223 91.7335 110.223H129.586C130.528 110.223 131.38 110.6 131.999 111.217Z" fill="#40444B"/>
<path d="M90.0055 109.963C90.5939 110.131 91.2187 110.224 91.867 110.224H90.1148H90.0679C89.7217 110.224 89.3806 110.198 89.0474 110.149C85.8399 109.661 83.377 106.912 83.377 103.592C83.377 103.592 83.377 103.592 83.377 103.59C83.377 100.273 85.8399 97.5207 89.0474 97.0354C89.3806 96.9864 89.7217 96.958 90.0679 96.958H90.1148H91.867C91.2187 96.958 90.5939 97.0509 90.0055 97.2213C89.831 97.2704 89.6644 97.3245 89.4978 97.3891C89.4952 97.3891 89.4926 97.3891 89.4926 97.3917C89.1671 97.513 88.8547 97.6601 88.5579 97.8279C88.5371 97.8383 88.5189 97.8486 88.5006 97.8615C88.3601 97.9415 88.2221 98.0267 88.0893 98.1171C88.0763 98.1274 88.0632 98.1351 88.0502 98.1454C87.9253 98.2332 87.8029 98.3236 87.6831 98.4191C87.6675 98.4294 87.6545 98.4397 87.6389 98.4526C87.5191 98.5481 87.4046 98.6514 87.2926 98.7547C87.2666 98.7779 87.2431 98.8011 87.2171 98.8244C87.1078 98.9302 87.001 99.0386 86.8995 99.1522C86.8813 99.1677 86.8682 99.1858 86.8526 99.2038C86.7589 99.3071 86.673 99.4129 86.5871 99.5213C86.5662 99.5446 86.548 99.5704 86.5298 99.5936C86.4387 99.7098 86.3528 99.8337 86.272 99.9576C86.2512 99.9886 86.2304 100.022 86.2096 100.053C86.1289 100.18 86.0534 100.309 85.9778 100.44C85.97 100.461 85.957 100.484 85.9466 100.505C85.8841 100.624 85.8216 100.745 85.767 100.871C85.7513 100.902 85.7357 100.936 85.7227 100.967C85.6628 101.104 85.6082 101.243 85.5587 101.385C85.5457 101.421 85.5327 101.457 85.5196 101.494C85.4728 101.641 85.4259 101.788 85.3869 101.938C85.3843 101.953 85.379 101.969 85.3764 101.987C85.34 102.129 85.3114 102.271 85.2827 102.418C85.2775 102.451 85.2697 102.487 85.2671 102.521C85.2411 102.673 85.2202 102.831 85.2072 102.986C85.202 103.022 85.1994 103.055 85.1968 103.091C85.1864 103.254 85.1786 103.419 85.1786 103.587C85.1786 103.59 85.1786 103.59 85.1786 103.59C85.1786 103.592 85.1786 103.595 85.1786 103.595C85.1786 103.763 85.1864 103.928 85.1968 104.093C85.1994 104.127 85.202 104.163 85.2072 104.196C85.2202 104.354 85.2411 104.509 85.2671 104.661C85.2697 104.697 85.2775 104.731 85.2827 104.767C85.3114 104.911 85.34 105.056 85.3764 105.198C85.379 105.213 85.3843 105.229 85.3869 105.244C85.4259 105.397 85.4728 105.544 85.5196 105.688C85.5327 105.724 85.5457 105.763 85.5587 105.799C85.6082 105.941 85.6628 106.078 85.7227 106.215C85.7357 106.248 85.7513 106.279 85.767 106.31C85.8216 106.437 85.8841 106.558 85.9466 106.68C85.957 106.7 85.97 106.721 85.9778 106.742C86.0534 106.876 86.1289 107.005 86.2096 107.131C86.2304 107.162 86.2512 107.193 86.272 107.227C86.3528 107.351 86.4387 107.472 86.5298 107.591C86.548 107.614 86.5662 107.637 86.5871 107.661C86.673 107.769 86.7589 107.877 86.8526 107.981C86.8682 107.996 86.8813 108.014 86.8995 108.032C87.001 108.146 87.1078 108.254 87.2171 108.36C87.2431 108.381 87.2666 108.404 87.2926 108.427C87.4046 108.533 87.5191 108.634 87.6389 108.732C87.6545 108.745 87.6675 108.755 87.6831 108.765C87.8029 108.861 87.9253 108.951 88.0502 109.039C88.0632 109.047 88.0763 109.057 88.0893 109.065C88.2221 109.155 88.3601 109.24 88.5006 109.323C88.5189 109.333 88.5371 109.344 88.5579 109.354C88.8547 109.522 89.1671 109.671 89.4926 109.793C89.4926 109.793 89.4952 109.793 89.4978 109.795C89.6644 109.857 89.831 109.912 90.0055 109.963Z" fill="#40444B"/>
<path d="M49.4338 116.999H38.395C30.9281 116.999 24.875 110.995 24.875 103.592C24.875 102.448 25.0208 101.335 25.2916 100.274C26.7287 105.881 31.7274 110.073 37.7597 110.352C40.1055 114.325 44.4533 116.999 49.4338 116.999Z" fill="#40444B"/>
<path d="M74.0009 117H58.8303C53.8551 117 49.5124 114.334 47.1641 110.366H62.3346C64.683 114.334 69.0282 117 74.0009 117Z" fill="#40444B"/>
<path d="M133.001 113.61C133.001 115.482 131.47 117 129.585 117H83.3967C78.4241 117 74.0788 114.333 71.7305 110.366H129.585C129.825 110.366 130.057 110.342 130.286 110.296C131.835 110.616 133.001 111.976 133.001 113.61Z" fill="#40444B"/>
<path d="M58.8289 116.999H49.4329C44.4524 116.999 40.1045 114.324 37.7588 110.352C37.9697 110.359 38.1806 110.364 38.394 110.364H47.1626C49.511 114.332 53.8536 116.999 58.8289 116.999Z" fill="#40444B"/>
<path d="M83.3963 117H74.0003C69.0276 117 64.6823 114.334 62.334 110.366H71.73C74.0784 114.334 78.4236 117 83.3963 117Z" fill="#40444B"/>
<path d="M128.231 96.96V110.223H91.7323C88.038 110.223 85.0439 107.252 85.0439 103.592C85.0439 99.9286 88.038 96.96 91.7323 96.96H128.231Z" fill="#40444B"/>
<path d="M91.7792 110.223H91.7323C88.038 110.223 85.0439 107.252 85.0439 103.592C85.0439 99.9286 88.038 96.96 91.7323 96.96H128.231V100.995H97.9365C94.2421 100.995 91.2481 103.966 91.2481 107.626C91.2481 108.548 91.4381 109.426 91.7792 110.223Z" fill="#40444B"/>
<path d="M42.7951 91.9131H52.1885C48.0828 94.2157 45.3101 98.5809 45.3101 103.591C45.3101 106.062 45.987 108.377 47.1638 110.365H38.3952C38.1817 110.365 37.9708 110.36 37.7599 110.352C36.5884 108.364 35.9141 106.057 35.9141 103.591C35.9141 98.5809 38.6868 94.2157 42.7951 91.9131Z" fill="#40444B"/>
<path d="M67.3589 91.9131H76.7549C72.6492 94.2157 69.8739 98.5809 69.8739 103.591C69.8739 106.062 70.5508 108.377 71.7302 110.365H62.3342C61.1574 108.377 60.4805 106.062 60.4805 103.591C60.4805 98.5809 63.2532 94.2157 67.3589 91.9131Z" fill="#40444B"/>
<path d="M49.4338 90.1846C47.0204 90.1846 44.7553 90.8144 42.7949 91.9141H39.3661C31.8966 91.9141 25.8435 97.9159 25.8435 105.322C25.8435 107.328 26.2913 109.233 27.0906 110.942C25.6899 108.83 24.875 106.308 24.875 103.592C24.875 96.1889 30.9281 90.1846 38.395 90.1846H49.4338Z" fill="#40444B"/>
<path d="M130.554 91.9141H76.7549C78.7179 90.8144 80.983 90.1846 83.3964 90.1846H129.585C131.228 90.1846 132.597 91.3359 132.925 92.8667C132.311 92.2781 131.475 91.9141 130.554 91.9141Z" fill="#40444B"/>
<path d="M74.0006 90.1846C71.5845 90.1846 69.3221 90.8144 67.3591 91.9141H52.1885C54.1515 90.8144 56.414 90.1846 58.83 90.1846H74.0006Z" fill="#40444B"/>
<path d="M58.8308 90.1846C56.4148 90.1846 54.1524 90.8144 52.1893 91.9141H42.7959C44.7563 90.8144 47.0214 90.1846 49.4348 90.1846H58.8308Z" fill="#40444B"/>
<path d="M83.3959 90.1846C80.9825 90.1846 78.7175 90.8144 76.7544 91.9141H67.3584C69.3214 90.8144 71.5839 90.1846 73.9999 90.1846H83.3959Z" fill="#40444B"/>
<path d="M131.999 83.9239C132.619 84.5357 133.002 85.3824 133.002 86.3169C133.002 88.1884 131.471 89.7063 129.586 89.7063H38.3956C34.6596 89.7063 31.2829 88.2039 28.8356 85.7774C26.3883 83.3534 24.873 80.0028 24.873 76.301C24.873 68.895 30.9288 62.8906 38.3956 62.8906H129.586C130.528 62.8906 131.38 63.2701 131.999 63.8845C132.619 64.4963 133.002 65.3429 133.002 66.28C133.002 68.1515 131.471 69.6668 129.586 69.6668H91.7335C88.0391 69.6668 85.0451 72.6354 85.0451 76.301C85.0451 79.3239 87.0862 81.8743 89.8772 82.6719C90.4682 82.8397 91.0878 82.9301 91.7335 82.9301H129.586C130.528 82.9301 131.38 83.3096 131.999 83.9239Z" fill="#40444B"/>
<path d="M90.0055 82.6695C90.5939 82.8399 91.2187 82.9302 91.867 82.9302H90.1148H90.0679C89.7217 82.9302 89.3806 82.907 89.0474 82.8554C85.8399 82.3701 83.377 79.6183 83.377 76.3012V76.2986C83.377 72.9789 85.8399 70.2297 89.0474 69.7418C89.3806 69.6928 89.7217 69.667 90.0679 69.667H90.1148H91.867C91.2187 69.667 90.5939 69.7599 90.0055 69.9277C89.831 69.9767 89.6644 70.0335 89.4978 70.0955C89.4952 70.0955 89.4926 70.0981 89.4926 70.0981C89.1671 70.2194 88.8547 70.3666 88.5579 70.5369C88.5371 70.5473 88.5189 70.5576 88.5006 70.5679C88.3601 70.6479 88.2221 70.7331 88.0893 70.826C88.0763 70.8338 88.0632 70.8441 88.0502 70.8518C87.9253 70.9396 87.8029 71.03 87.6831 71.1255C87.6675 71.1358 87.6545 71.1487 87.6389 71.159C87.5191 71.2545 87.4046 71.3578 87.2926 71.4636C87.2666 71.4843 87.2431 71.5075 87.2171 71.5308C87.1078 71.6366 87.001 71.745 86.8995 71.8586C86.8813 71.8741 86.8682 71.8922 86.8526 71.9102C86.7589 72.0135 86.673 72.1193 86.5871 72.2303C86.5662 72.2535 86.548 72.2768 86.5298 72.3C86.4387 72.4188 86.3528 72.5401 86.272 72.664C86.2512 72.695 86.2304 72.7285 86.2096 72.7621C86.1289 72.8886 86.0534 73.0151 85.9778 73.1467C85.97 73.1674 85.957 73.188 85.9466 73.2113C85.8841 73.3326 85.8216 73.4539 85.767 73.5778C85.7513 73.6114 85.7357 73.6423 85.7227 73.6759C85.6628 73.8101 85.6082 73.9495 85.5587 74.0915C85.5457 74.1276 85.5327 74.1638 85.5196 74.2025C85.4728 74.3471 85.4259 74.4942 85.3869 74.6439C85.3843 74.6594 85.379 74.6775 85.3764 74.693C85.34 74.835 85.3114 74.9795 85.2827 75.1241C85.2775 75.1576 85.2697 75.1938 85.2671 75.2273C85.2411 75.3822 85.2202 75.5371 85.2072 75.6946C85.202 75.7281 85.1994 75.7643 85.1968 75.7978C85.1864 75.9605 85.1786 76.1257 85.1786 76.2934C85.1786 76.296 85.1786 76.2986 85.1786 76.2986C85.1786 76.3012 85.1786 76.3012 85.1786 76.3038C85.1786 76.4716 85.1864 76.6342 85.1968 76.7994C85.1994 76.833 85.202 76.8691 85.2072 76.9027C85.2202 77.0601 85.2411 77.215 85.2671 77.3699C85.2697 77.4035 85.2775 77.4396 85.2827 77.4732C85.3114 77.6177 85.34 77.7623 85.3764 77.9042C85.379 77.9197 85.3843 77.9378 85.3869 77.9533C85.4259 78.103 85.4728 78.2502 85.5196 78.3947C85.5327 78.4334 85.5457 78.4696 85.5587 78.5057C85.6082 78.6477 85.6628 78.7871 85.7227 78.9213C85.7357 78.9549 85.7513 78.9859 85.767 79.0194C85.8216 79.1433 85.8841 79.2646 85.9466 79.386C85.957 79.4092 85.97 79.4299 85.9778 79.4505C86.0534 79.5822 86.1289 79.7112 86.2096 79.8351C86.2304 79.8687 86.2512 79.8997 86.272 79.9332C86.3528 80.0571 86.4387 80.1785 86.5298 80.2972C86.548 80.3204 86.5662 80.3437 86.5871 80.3669C86.673 80.4753 86.7589 80.5838 86.8526 80.687C86.8682 80.7051 86.8813 80.7231 86.8995 80.7386C87.001 80.8522 87.1078 80.9606 87.2171 81.0665C87.2431 81.0897 87.2666 81.1129 87.2926 81.1336C87.4046 81.2394 87.5191 81.3427 87.6389 81.4382C87.6545 81.4485 87.6675 81.4614 87.6831 81.4718C87.8029 81.5673 87.9253 81.6576 88.0502 81.7454C88.0632 81.7557 88.0763 81.7634 88.0893 81.7738C88.2221 81.8615 88.3601 81.9493 88.5006 82.0293C88.5189 82.0422 88.5371 82.05 88.5579 82.0629C88.8547 82.2307 89.1671 82.3778 89.4926 82.4992C89.4926 82.4992 89.4952 82.5017 89.4978 82.5017C89.6644 82.5637 89.831 82.6205 90.0055 82.6695Z" fill="#40444B"/>
<path d="M49.4338 89.7057H38.395C30.9281 89.7057 24.875 83.704 24.875 76.2979C24.875 75.1544 25.0208 74.0418 25.2916 72.9834C26.7287 78.5876 31.7274 82.7824 37.7597 83.0586C40.1055 87.0314 44.4533 89.7057 49.4338 89.7057Z" fill="#40444B"/>
<path d="M74.0009 89.7068H58.8303C53.8551 89.7068 49.5124 87.0402 47.1641 83.0752H62.3346C64.683 87.0402 69.0282 89.7068 74.0009 89.7068Z" fill="#40444B"/>
<path d="M133.001 86.3165C133.001 88.188 131.47 89.7059 129.585 89.7059H83.3967C78.4241 89.7059 74.0788 87.0393 71.7305 83.0742H129.585C129.825 83.0742 130.057 83.0484 130.286 83.002C131.835 83.322 133.001 84.6851 133.001 86.3165Z" fill="#40444B"/>
<path d="M58.8289 89.7057H49.4329C44.4524 89.7057 40.1045 87.0314 37.7588 83.0586C37.9697 83.0663 38.1806 83.0741 38.394 83.0741H47.1626C49.511 87.0391 53.8536 89.7057 58.8289 89.7057Z" fill="#40444B"/>
<path d="M83.3963 89.7068H74.0003C69.0276 89.7068 64.6823 87.0402 62.334 83.0752H71.73C74.0784 87.0402 78.4236 89.7068 83.3963 89.7068Z" fill="#40444B"/>
<path d="M128.231 69.667V82.9302H91.7323C88.038 82.9302 85.0439 79.9616 85.0439 76.2986C85.0439 72.6356 88.038 69.667 91.7323 69.667H128.231Z" fill="#40444B"/>
<path d="M91.7792 82.9302H91.7323C88.038 82.9302 85.0439 79.9616 85.0439 76.2986C85.0439 72.6356 88.038 69.667 91.7323 69.667H128.231V73.7043H97.9365C94.2421 73.7043 91.2481 76.6729 91.2481 80.3359C91.2481 81.2549 91.4381 82.1326 91.7792 82.9302Z" fill="#40444B"/>
<path d="M42.7951 64.623H52.1885C48.0828 66.9231 45.3101 71.2882 45.3101 76.2987C45.3101 78.7717 45.987 81.0873 47.1638 83.0749H38.3952C38.1817 83.0749 37.9708 83.0672 37.7599 83.0594C36.5884 81.0743 35.9141 78.764 35.9141 76.2987C35.9141 71.2882 38.6868 66.9231 42.7951 64.623Z" fill="#40444B"/>
<path d="M67.3589 64.623H76.7549C72.6492 66.9231 69.8739 71.2882 69.8739 76.2987C69.8739 78.7717 70.5508 81.0873 71.7302 83.0749H62.3342C61.1574 81.0873 60.4805 78.7717 60.4805 76.2987C60.4805 71.2882 63.2532 66.9231 67.3589 64.623Z" fill="#40444B"/>
<path d="M49.4338 62.8906C47.0204 62.8906 44.7553 63.5231 42.7949 64.6227H39.3661C31.8966 64.6227 25.8435 70.6245 25.8435 78.028C25.8435 80.0363 26.2913 81.9388 27.0906 83.6477C25.6899 81.5387 24.875 79.0141 24.875 76.2984C24.875 68.895 30.9281 62.8906 38.395 62.8906H49.4338Z" fill="#40444B"/>
<path d="M130.554 64.6227H76.7549C78.7179 63.5231 80.983 62.8906 83.3964 62.8906H129.585C131.228 62.8906 132.597 64.0419 132.925 65.5753C132.311 64.9867 131.475 64.6227 130.554 64.6227Z" fill="#40444B"/>
<path d="M74.0006 62.8906C71.5845 62.8906 69.3221 63.5231 67.3591 64.6227H52.1885C54.1515 63.5231 56.414 62.8906 58.83 62.8906H74.0006Z" fill="#40444B"/>
<path d="M58.8308 62.8906C56.4148 62.8906 54.1524 63.5231 52.1893 64.6227H42.7959C44.7563 63.5231 47.0214 62.8906 49.4348 62.8906H58.8308Z" fill="#40444B"/>
<path d="M83.3959 62.8906C80.9825 62.8906 78.7175 63.5231 76.7544 64.6227H67.3584C69.3214 63.5231 71.5839 62.8906 73.9999 62.8906H83.3959Z" fill="#40444B"/>
<path d="M131.999 56.6304C132.619 57.2422 133.002 58.0888 133.002 59.0259C133.002 60.8974 131.471 62.4127 129.586 62.4127H38.3956C34.6596 62.4127 31.2829 60.9103 28.8356 58.4838C26.3883 56.0624 24.873 52.7092 24.873 49.0075C24.873 41.6014 30.9288 35.5996 38.3956 35.5996H129.586C130.528 35.5996 131.38 35.9765 131.999 36.5909C132.619 37.2027 133.002 38.0519 133.002 38.9864C133.002 40.8579 131.471 42.3732 129.586 42.3732H91.7335C88.0391 42.3732 85.0451 45.3419 85.0451 49.0075C85.0451 52.0303 87.0862 54.5833 89.8772 55.3784C90.4682 55.5487 91.0878 55.6391 91.7335 55.6391H129.586C130.528 55.6391 131.38 56.016 131.999 56.6304Z" fill="#40444B"/>
<path d="M90.0055 55.3766C90.5939 55.5469 91.2187 55.6399 91.867 55.6399H90.1148H90.0679C89.7217 55.6399 89.3806 55.6141 89.0474 55.5625C85.8399 55.0772 83.377 52.3254 83.377 49.0083V49.0057C83.377 45.686 85.8399 42.9368 89.0474 42.4515C89.3806 42.3999 89.7217 42.374 90.0679 42.374H90.1148H91.867C91.2187 42.374 90.5939 42.467 90.0055 42.6347C89.831 42.6864 89.6644 42.7406 89.4978 42.8025C89.4952 42.8025 89.4926 42.8051 89.4926 42.8051C89.1671 42.9265 88.8547 43.0762 88.5579 43.244C88.5371 43.2543 88.5189 43.2646 88.5006 43.2749C88.3601 43.3575 88.2221 43.4427 88.0893 43.5331C88.0763 43.5408 88.0632 43.5512 88.0502 43.5589C87.9253 43.6467 87.8029 43.7396 87.6831 43.8325C87.6675 43.8429 87.6545 43.8558 87.6389 43.8661C87.5191 43.9642 87.4046 44.0649 87.2926 44.1707C87.2666 44.1939 87.2431 44.2172 87.2171 44.2378C87.1078 44.3437 87.001 44.4521 86.8995 44.5656C86.8813 44.5837 86.8682 44.5992 86.8526 44.6199C86.7589 44.7205 86.673 44.829 86.5871 44.9374C86.5662 44.9606 86.548 44.9864 86.5298 45.0071C86.4387 45.1258 86.3528 45.2471 86.272 45.3736C86.2512 45.4046 86.2304 45.4356 86.2096 45.4691C86.1289 45.5956 86.0534 45.7221 85.9778 45.8563C85.97 45.877 85.957 45.8977 85.9466 45.9183C85.8841 46.0396 85.8216 46.161 85.767 46.2874C85.7513 46.3184 85.7357 46.352 85.7227 46.383C85.6628 46.5198 85.6082 46.6592 85.5587 46.7986C85.5457 46.8347 85.5327 46.8734 85.5196 46.9096C85.4728 47.0541 85.4259 47.2013 85.3869 47.3536C85.3843 47.3691 85.379 47.3846 85.3764 47.4C85.34 47.542 85.3114 47.6866 85.2827 47.8311C85.2775 47.8673 85.2697 47.9008 85.2671 47.937C85.2411 48.0893 85.2202 48.2442 85.2072 48.4016C85.202 48.4378 85.1994 48.4713 85.1968 48.5049C85.1864 48.6701 85.1786 48.8353 85.1786 49.0005C85.1786 49.0031 85.1786 49.0057 85.1786 49.0057C85.1786 49.0083 85.1786 49.0108 85.1786 49.0134C85.1786 49.1786 85.1864 49.3438 85.1968 49.5065C85.1994 49.5426 85.202 49.5762 85.2072 49.6097C85.2202 49.7672 85.2411 49.9247 85.2671 50.077C85.2697 50.1131 85.2775 50.1466 85.2827 50.1802C85.3114 50.3273 85.34 50.4693 85.3764 50.6113C85.379 50.6268 85.3843 50.6449 85.3869 50.6604C85.4259 50.8127 85.4728 50.9572 85.5196 51.1044C85.5327 51.1405 85.5457 51.1792 85.5587 51.2153C85.6082 51.3547 85.6628 51.4941 85.7227 51.6309C85.7357 51.6619 85.7513 51.6929 85.767 51.7265C85.8216 51.853 85.8841 51.9743 85.9466 52.0956C85.957 52.1163 85.97 52.1369 85.9778 52.1576C86.0534 52.2892 86.1289 52.4183 86.2096 52.5448C86.2304 52.5758 86.2512 52.6093 86.272 52.6403C86.3528 52.7642 86.4387 52.8855 86.5298 53.0043C86.548 53.0275 86.5662 53.0507 86.5871 53.0766C86.673 53.185 86.7589 53.2908 86.8526 53.3941C86.8682 53.4121 86.8813 53.4302 86.8995 53.4457C87.001 53.5593 87.1078 53.6703 87.2171 53.7735C87.2431 53.7968 87.2666 53.82 87.2926 53.8432C87.4046 53.9465 87.5191 54.0498 87.6389 54.1453C87.6545 54.1582 87.6675 54.1685 87.6831 54.1814C87.8029 54.2743 87.9253 54.3673 88.0502 54.4524C88.0632 54.4628 88.0763 54.4731 88.0893 54.4808C88.2221 54.5712 88.3601 54.6564 88.5006 54.7364C88.5189 54.7493 88.5371 54.7596 88.5579 54.77C88.8547 54.9377 89.1671 55.0849 89.4926 55.2088C89.4926 55.2088 89.4952 55.2088 89.4978 55.2088C89.6644 55.2733 89.831 55.3275 90.0055 55.3766Z" fill="#40444B"/>
<path d="M49.4338 62.4118H38.395C30.9281 62.4118 24.875 56.41 24.875 49.0066C24.875 47.8604 25.0208 46.7504 25.2916 45.6895C26.7287 51.2937 31.7274 55.4859 37.7597 55.7647C40.1055 59.74 44.4533 62.4118 49.4338 62.4118Z" fill="#40444B"/>
<path d="M74.0009 62.4129H58.8303C53.8551 62.4129 49.5124 59.7489 47.1641 55.7812H62.3346C64.683 59.7489 69.0282 62.4129 74.0009 62.4129Z" fill="#40444B"/>
<path d="M133.001 59.0271C133.001 60.8986 131.47 62.4139 129.585 62.4139H83.3967C78.4241 62.4139 74.0788 59.7499 71.7305 55.7822H129.585C129.825 55.7822 130.057 55.759 130.286 55.71C131.835 56.0301 133.001 57.393 133.001 59.0271Z" fill="#40444B"/>
<path d="M58.8289 62.4128H49.4329C44.4524 62.4128 40.1045 59.741 37.7588 55.7656C37.9697 55.776 38.1806 55.7811 38.394 55.7811H47.1626C49.511 59.7488 53.8536 62.4128 58.8289 62.4128Z" fill="#40444B"/>
<path d="M83.3963 62.4129H74.0003C69.0276 62.4129 64.6823 59.7489 62.334 55.7812H71.73C74.0784 59.7489 78.4236 62.4129 83.3963 62.4129Z" fill="#40444B"/>
<path d="M128.231 42.374V55.6373H91.7323C88.038 55.6373 85.0439 52.6687 85.0439 49.0083C85.0439 45.3452 88.038 42.374 91.7323 42.374H128.231Z" fill="#40444B"/>
<path d="M91.7792 55.6373H91.7323C88.038 55.6373 85.0439 52.6687 85.0439 49.0083C85.0439 45.3452 88.038 42.374 91.7323 42.374H128.231V46.4113H97.9365C94.2421 46.4113 91.2481 49.38 91.2481 53.043C91.2481 53.9646 91.4381 54.8422 91.7792 55.6373Z" fill="#40444B"/>
<path d="M42.7951 37.3291H52.1885C48.0828 39.6291 45.3101 43.9969 45.3101 49.0074C45.3101 51.4778 45.987 53.7907 47.1638 55.781H38.3952C38.1817 55.781 37.9708 55.7758 37.7599 55.7655C36.5884 53.7804 35.9141 51.4726 35.9141 49.0074C35.9141 43.9969 38.6868 39.6291 42.7951 37.3291Z" fill="#40444B"/>
<path d="M67.3589 37.3291H76.7549C72.6492 39.6291 69.8739 43.9969 69.8739 49.0074C69.8739 51.4778 70.5508 53.7907 71.7302 55.781H62.3342C61.1574 53.7907 60.4805 51.4778 60.4805 49.0074C60.4805 43.9969 63.2532 39.6291 67.3589 37.3291Z" fill="#40444B"/>
<path d="M49.4338 35.5996C47.0204 35.5996 44.7553 36.2295 42.7949 37.3292H39.3661C31.8966 37.3292 25.8435 43.3335 25.8435 50.737C25.8435 52.7427 26.2913 54.6478 27.0906 56.3567C25.6899 54.2451 24.875 51.7205 24.875 49.0075C24.875 41.6014 30.9281 35.5996 38.395 35.5996H49.4338Z" fill="#40444B"/>
<path d="M130.554 37.3292H76.7549C78.7179 36.2295 80.983 35.5996 83.3964 35.5996H129.585C131.228 35.5996 132.597 36.7509 132.925 38.2817C132.311 37.6931 131.475 37.3292 130.554 37.3292Z" fill="#40444B"/>
<path d="M74.0006 35.5996C71.5845 35.5996 69.3221 36.2295 67.3591 37.3292H52.1885C54.1515 36.2295 56.414 35.5996 58.83 35.5996H74.0006Z" fill="#40444B"/>
<path d="M58.8308 35.5996C56.4148 35.5996 54.1524 36.2295 52.1893 37.3292H42.7959C44.7563 36.2295 47.0214 35.5996 49.4348 35.5996H58.8308Z" fill="#40444B"/>
<path d="M83.3959 35.5996C80.9825 35.5996 78.7175 36.2295 76.7544 37.3292H67.3584C69.3214 36.2295 71.5839 35.5996 73.9999 35.5996H83.3959Z" fill="#40444B"/>
<path d="M92.6299 49.0078H102.364C105.587 52.0022 107.475 55.3555 108.03 59.0624L103.122 55.7659L98.8965 59.0624C97.4594 54.5449 95.3714 51.1917 92.6299 49.0078Z" fill="#40444B"/>
<path d="M113.8 77.9004H123.534C126.755 80.8974 128.645 84.2507 129.197 87.9576L124.289 84.6611L120.066 87.9576C118.629 83.4401 116.541 80.0868 113.8 77.9004Z" fill="#40444B"/>
<path d="M92.6299 105.193H102.364C105.587 108.19 107.475 111.541 108.03 115.248L103.122 111.954L98.8965 115.248C97.4594 110.73 95.3714 107.38 92.6299 105.193Z" fill="#40444B"/>
<path d="M125.124 108.618C125.743 109.229 126.126 110.076 126.126 111.011C126.126 112.882 124.595 114.397 122.71 114.397H31.52C27.7865 114.397 24.4072 112.898 21.9599 110.471C19.5126 108.047 18 104.694 18 100.992C18 93.5887 24.0531 87.5869 31.52 87.5869H122.71C123.653 87.5869 124.504 87.9638 125.124 88.5782C125.743 89.19 126.126 90.0367 126.126 90.9711C126.126 92.8452 124.595 94.3605 122.71 94.3605H84.8578C81.1661 94.3605 78.1694 97.3292 78.1694 100.992C78.1694 104.018 80.2106 106.568 83.0015 107.366C83.5925 107.533 84.2148 107.626 84.8578 107.626H122.71C123.653 107.626 124.504 108.003 125.124 108.618Z" fill="#C92E41"/>
<path d="M83.1318 107.362C83.7228 107.53 84.345 107.625 84.9933 107.625H83.2411H83.1942C82.848 107.625 82.5069 107.597 82.1763 107.548C78.9662 107.06 76.5059 104.311 76.5059 100.991C76.5059 100.991 76.5059 100.991 76.5059 100.988C76.5059 97.6713 78.9662 94.9221 82.1763 94.4342C82.5069 94.3852 82.848 94.3594 83.1942 94.3594H83.2411H84.9933C84.345 94.3594 83.7228 94.4523 83.1318 94.6201C82.9599 94.6691 82.7907 94.7259 82.6241 94.7879C82.6215 94.7879 82.6189 94.7879 82.6189 94.7905C82.2934 94.9118 81.981 95.0589 81.6842 95.2267C81.6634 95.2396 81.6452 95.25 81.6269 95.2603C81.4864 95.3429 81.3484 95.4281 81.2156 95.5184C81.2026 95.5262 81.1896 95.5365 81.1765 95.5443C81.0516 95.632 80.9292 95.7224 80.8094 95.8179C80.7964 95.8282 80.7808 95.8385 80.7652 95.8514C80.6454 95.9495 80.5309 96.0502 80.4189 96.1561C80.3929 96.1793 80.3695 96.1999 80.346 96.2231C80.2341 96.329 80.1273 96.4374 80.0258 96.551C80.0102 96.5691 79.9945 96.5846 79.9789 96.6026C79.8878 96.7059 79.7993 96.8117 79.7134 96.9227C79.6925 96.946 79.6743 96.9692 79.6561 96.9924C79.565 97.1112 79.4791 97.2325 79.3983 97.3564C79.3775 97.3874 79.3567 97.4209 79.3359 97.4519C79.2552 97.5784 79.1797 97.7075 79.1068 97.8391C79.0963 97.8623 79.0859 97.883 79.0729 97.9036C79.0104 98.0224 78.9479 98.1463 78.8933 98.2702C78.8776 98.3038 78.862 98.3348 78.849 98.3683C78.7891 98.5051 78.7345 98.6419 78.685 98.7839C78.672 98.8201 78.659 98.8562 78.6485 98.8949C78.5991 99.0395 78.5522 99.1866 78.5132 99.3363C78.5106 99.3518 78.5079 99.3699 78.5027 99.3854C78.4663 99.5273 78.4377 99.6719 78.409 99.8165C78.4038 99.85 78.3986 99.8862 78.3934 99.9223C78.3674 100.075 78.3465 100.229 78.3335 100.387C78.3283 100.421 78.3257 100.454 78.3231 100.49C78.3127 100.655 78.3049 100.821 78.3049 100.986C78.3049 100.988 78.3049 100.988 78.3049 100.991C78.3049 100.994 78.3049 100.994 78.3049 100.996C78.3049 101.164 78.3127 101.329 78.3231 101.492C78.3257 101.525 78.3283 101.562 78.3335 101.595C78.3465 101.753 78.3674 101.907 78.3934 102.062C78.3986 102.096 78.4038 102.129 78.409 102.166C78.4377 102.313 78.4663 102.455 78.5027 102.597C78.5079 102.612 78.5106 102.63 78.5132 102.646C78.5522 102.795 78.5991 102.943 78.6485 103.09C78.659 103.126 78.672 103.162 78.685 103.198C78.7345 103.34 78.7891 103.479 78.849 103.614C78.862 103.647 78.8776 103.678 78.8933 103.712C78.9479 103.836 79.0104 103.96 79.0729 104.078C79.0859 104.099 79.0963 104.122 79.1068 104.143C79.1797 104.275 79.2552 104.404 79.3359 104.53C79.3567 104.561 79.3775 104.595 79.3983 104.626C79.4791 104.75 79.565 104.871 79.6561 104.99C79.6743 105.013 79.6925 105.036 79.7134 105.059C79.7993 105.17 79.8878 105.276 79.9789 105.379C79.9945 105.397 80.0102 105.416 80.0258 105.431C80.1273 105.545 80.2341 105.653 80.346 105.759C80.3695 105.782 80.3929 105.805 80.4189 105.826C80.5309 105.932 80.6454 106.035 80.7652 106.131C80.7808 106.143 80.7964 106.154 80.8094 106.164C80.9292 106.26 81.0516 106.35 81.1765 106.438C81.1896 106.448 81.2026 106.456 81.2156 106.466C81.3484 106.557 81.4864 106.642 81.6269 106.722C81.6452 106.732 81.6634 106.745 81.6842 106.753C81.981 106.923 82.2934 107.07 82.6189 107.192C82.6189 107.194 82.6215 107.194 82.6241 107.194C82.7907 107.256 82.9599 107.313 83.1318 107.362Z" fill="#EC313A"/>
<path d="M42.5588 114.399H31.52C24.0531 114.399 18 108.397 18 100.991C18 99.8474 18.1458 98.7374 18.4166 97.6738C19.8537 103.281 24.8524 107.473 30.8847 107.752C33.2305 111.727 37.5809 114.399 42.5588 114.399Z" fill="#951E41"/>
<path d="M67.1259 114.399H51.9553C46.9827 114.399 42.6374 111.735 40.2891 107.768H55.4596C57.808 111.735 62.1532 114.399 67.1259 114.399Z" fill="#951E41"/>
<path d="M126.126 111.01C126.126 112.881 124.595 114.399 122.71 114.399H76.5217C71.5491 114.399 67.2038 111.735 64.8555 107.768H122.71C122.95 107.768 123.184 107.742 123.411 107.695C124.96 108.015 126.126 109.378 126.126 111.01Z" fill="#951E41"/>
<path d="M51.9539 114.399H42.5579C37.58 114.399 33.2295 111.727 30.8838 107.752C31.0947 107.76 31.3082 107.767 31.519 107.767H40.2876C42.636 111.735 46.9812 114.399 51.9539 114.399Z" fill="#F9892D"/>
<path d="M76.5213 114.399H67.1253C62.1526 114.399 57.8073 111.735 55.459 107.768H64.855C67.2034 111.735 71.5486 114.399 76.5213 114.399Z" fill="#F9892D"/>
<path d="M121.357 94.3594V107.623H84.8583C81.1665 107.623 78.1699 104.654 78.1699 100.991C78.1699 97.328 81.1665 94.3594 84.8583 94.3594H121.357Z" fill="#DFDFDF"/>
<path d="M84.9052 107.623H84.8583C81.1665 107.623 78.1699 104.654 78.1699 100.991C78.1699 97.328 81.1665 94.3594 84.8583 94.3594H121.357V98.3967H91.0624C87.3681 98.3967 84.3741 101.365 84.3741 105.028C84.3741 105.95 84.5641 106.825 84.9052 107.623Z" fill="#C6C6C6"/>
<path d="M35.9201 89.3135H45.3135C41.2078 91.6161 38.4351 95.9813 38.4351 100.992C38.4351 103.465 39.112 105.778 40.2888 107.768H31.5202C31.3093 107.768 31.0958 107.76 30.8849 107.752C29.7134 105.767 29.0391 103.457 29.0391 100.992C29.0391 95.9813 31.8118 91.6161 35.9201 89.3135Z" fill="#FFB43A"/>
<path d="M60.4839 89.3135H69.8799C65.7742 91.6161 62.9989 95.9813 62.9989 100.992C62.9989 103.465 63.6784 105.778 64.8552 107.768H55.4592C54.2824 105.778 53.6055 103.465 53.6055 100.992C53.6055 95.9813 56.3782 91.6161 60.4839 89.3135Z" fill="#FFB43A"/>
<path d="M42.5588 87.583C40.1454 87.583 37.8803 88.2155 35.9199 89.3126H32.4911C25.0216 89.3126 18.9685 95.3169 18.9685 102.72C18.9685 104.729 19.4163 106.631 20.2156 108.34C18.8175 106.231 18 103.706 18 100.991C18 93.5874 24.0531 87.583 31.52 87.583H42.5588Z" fill="#EC313A"/>
<path d="M123.679 89.3126H69.8799C71.8429 88.2155 74.108 87.583 76.5214 87.583H122.71C124.353 87.583 125.722 88.7343 126.05 90.2677C125.436 89.6791 124.6 89.3126 123.679 89.3126Z" fill="#EC313A"/>
<path d="M67.1256 87.583C64.7121 87.583 62.4471 88.2155 60.4841 89.3126H45.3135C47.2765 88.2155 49.5416 87.583 51.955 87.583H67.1256Z" fill="#EC313A"/>
<path d="M51.9539 87.583C49.5404 87.583 47.2754 88.2155 45.3124 89.3126H35.9189C37.8794 88.2155 40.1444 87.583 42.5579 87.583H51.9539Z" fill="#FFD466"/>
<path d="M76.5209 87.583C74.1075 87.583 71.8425 88.2155 69.8794 89.3126H60.4834C62.4464 88.2155 64.7115 87.583 67.1249 87.583H76.5209Z" fill="#FFD466"/>
<path d="M125.124 81.3247C125.743 81.9365 126.126 82.7832 126.126 83.7202C126.126 85.5917 124.595 87.107 122.71 87.107H31.52C27.7865 87.107 24.4072 85.6072 21.9599 83.1807C19.5126 80.7542 18 77.4035 18 73.7018C18 66.2983 24.0531 60.2939 31.52 60.2939H122.71C123.653 60.2939 124.504 60.6734 125.124 61.2852C125.743 61.897 126.126 62.7437 126.126 63.6808C126.126 65.5523 124.595 67.0676 122.71 67.0676H84.8578C81.1661 67.0676 78.1694 70.0362 78.1694 73.7018C78.1694 76.7246 80.2106 79.2776 83.0015 80.0727C83.5925 80.2405 84.2148 80.3334 84.8578 80.3334H122.71C123.653 80.3334 124.504 80.7103 125.124 81.3247Z" fill="#6BA43E"/>
<path d="M83.1318 80.069C83.7228 80.2393 84.345 80.3323 84.9933 80.3323H83.2411H83.1942C82.848 80.3323 82.5069 80.3064 82.1763 80.2548C78.9662 79.7695 76.5059 77.0203 76.5059 73.7006V73.6981C76.5059 70.3784 78.9662 67.6292 82.1763 67.1439C82.5069 67.0922 82.848 67.0664 83.1942 67.0664H83.2411H84.9933C84.345 67.0664 83.7228 67.1593 83.1318 67.3297C82.9599 67.3788 82.7907 67.433 82.6241 67.4949C82.6215 67.4975 82.6189 67.4975 82.6189 67.4975C82.2934 67.6214 81.981 67.766 81.6842 67.9363C81.6634 67.9467 81.6452 67.957 81.6269 67.9673C81.4864 68.0499 81.3484 68.1351 81.2156 68.2255C81.2026 68.2332 81.1896 68.2435 81.1765 68.2538C81.0516 68.339 80.9292 68.4294 80.8094 68.5249C80.7964 68.5378 80.7808 68.5481 80.7652 68.5585C80.6454 68.6566 80.5309 68.7572 80.4189 68.8631C80.3929 68.8863 80.3695 68.9095 80.346 68.9302C80.2341 69.0386 80.1273 69.1444 80.0258 69.258C80.0102 69.2761 79.9945 69.2942 79.9789 69.3097C79.8878 69.4129 79.7993 69.5213 79.7134 69.6298C79.6925 69.653 79.6743 69.6762 79.6561 69.702C79.565 69.8182 79.4791 69.9395 79.3983 70.0634C79.3775 70.0944 79.3567 70.128 79.3359 70.1615C79.2552 70.288 79.1797 70.4171 79.1068 70.5461C79.0963 70.5668 79.0859 70.59 79.0729 70.6107C79.0104 70.732 78.9479 70.8559 78.8933 70.9772C78.8776 71.0108 78.862 71.0418 78.849 71.0753C78.7891 71.2122 78.7345 71.349 78.685 71.4909C78.672 71.5297 78.659 71.5658 78.6485 71.602C78.5991 71.7491 78.5522 71.8962 78.5132 72.0434C78.5106 72.0614 78.5079 72.0769 78.5027 72.0924C78.4663 72.2344 78.4377 72.3789 78.409 72.5235C78.4038 72.5596 78.3986 72.5932 78.3934 72.6294C78.3674 72.7817 78.3465 72.9391 78.3335 73.094C78.3283 73.1275 78.3257 73.1637 78.3231 73.1973C78.3127 73.3625 78.3049 73.5277 78.3049 73.6955V73.6981C78.3049 73.7006 78.3049 73.7032 78.3049 73.7032C78.3049 73.871 78.3127 74.0362 78.3231 74.1988C78.3257 74.235 78.3283 74.2685 78.3335 74.3047C78.3465 74.4596 78.3674 74.6144 78.3934 74.7693C78.3986 74.8029 78.4038 74.839 78.409 74.8752C78.4377 75.0197 78.4663 75.1643 78.5027 75.3063C78.5079 75.3218 78.5106 75.3372 78.5132 75.3527C78.5522 75.5024 78.5991 75.6496 78.6485 75.7967C78.659 75.8329 78.672 75.869 78.685 75.9077C78.7345 76.0497 78.7891 76.1865 78.849 76.3233C78.862 76.3543 78.8776 76.3879 78.8933 76.4188C78.9479 76.5428 79.0104 76.6667 79.0729 76.788C79.0859 76.8087 79.0963 76.8293 79.1068 76.8499C79.1797 76.9816 79.2552 77.1107 79.3359 77.2372C79.3567 77.2707 79.3775 77.3017 79.3983 77.3353C79.4791 77.4566 79.565 77.5779 79.6561 77.6967C79.6743 77.7225 79.6925 77.7457 79.7134 77.7663C79.7993 77.8773 79.8878 77.9832 79.9789 78.089C79.9945 78.1045 80.0102 78.1226 80.0258 78.1407C80.1273 78.2542 80.2341 78.3601 80.346 78.4659C80.3695 78.4891 80.3929 78.5124 80.4189 78.5356C80.5309 78.6415 80.6454 78.7421 80.7652 78.8402C80.7808 78.8505 80.7964 78.8609 80.8094 78.8712C80.9292 78.9693 81.0516 79.0596 81.1765 79.1448C81.1896 79.1552 81.2026 79.1629 81.2156 79.1732C81.3484 79.2636 81.4864 79.3488 81.6269 79.4314C81.6452 79.4417 81.6634 79.452 81.6842 79.4623C81.981 79.6301 82.2934 79.7773 82.6189 79.9012C82.6189 79.9012 82.6215 79.9012 82.6241 79.9037C82.7907 79.9657 82.9599 80.0199 83.1318 80.069Z" fill="#9DBE31"/>
<path d="M42.5588 87.1062H31.52C24.0531 87.1062 18 81.1044 18 73.6983C18 72.5548 18.1458 71.4447 18.4166 70.3838C19.8537 75.988 24.8524 80.1828 30.8847 80.459C33.2305 84.4344 37.5809 87.1062 42.5588 87.1062Z" fill="#4A8B47"/>
<path d="M67.1259 87.1062H51.9553C46.9827 87.1062 42.6374 84.4422 40.2891 80.4746H55.4596C57.808 84.4422 62.1532 87.1062 67.1259 87.1062Z" fill="#4A8B47"/>
<path d="M126.126 83.7194C126.126 85.591 124.595 87.1063 122.71 87.1063H76.5217C71.5491 87.1063 67.2038 84.4423 64.8555 80.4746H122.71C122.95 80.4746 123.184 80.4488 123.411 80.4023C124.96 80.725 126.126 82.0854 126.126 83.7194Z" fill="#4A8B47"/>
<path d="M51.9539 87.1071H42.5579C37.58 87.1071 33.2295 84.4353 30.8838 80.46C31.0947 80.4703 31.3082 80.4755 31.519 80.4755H40.2876C42.636 84.4431 46.9812 87.1071 51.9539 87.1071Z" fill="#F9892D"/>
<path d="M76.5213 87.1062H67.1253C62.1526 87.1062 57.8073 84.4422 55.459 80.4746H64.855C67.2034 84.4422 71.5486 87.1062 76.5213 87.1062Z" fill="#F9892D"/>
<path d="M121.357 67.0703V80.331H84.8583C81.1665 80.331 78.1699 77.3624 78.1699 73.6994C78.1699 70.0364 81.1665 67.0703 84.8583 67.0703H121.357Z" fill="#DFDFDF"/>
<path d="M84.9052 80.331H84.8583C81.1665 80.331 78.1699 77.3624 78.1699 73.6994C78.1699 70.0364 81.1665 67.0703 84.8583 67.0703H121.357V71.1051H91.0624C87.3681 71.1051 84.3741 74.0737 84.3741 77.7367C84.3741 78.6582 84.5641 79.5359 84.9052 80.331Z" fill="#C6C6C6"/>
<path d="M35.9201 62.0234H45.3135C41.2078 64.3235 38.4351 68.6912 38.4351 73.6992C38.4351 76.1722 39.112 78.4877 40.2888 80.4754H31.5202C31.3093 80.4754 31.0958 80.4702 30.8849 80.4599C29.7134 78.4748 29.0391 76.167 29.0391 73.6992C29.0391 68.6912 31.8118 64.3235 35.9201 62.0234Z" fill="#FFB43A"/>
<path d="M60.4839 62.0234H69.8799C65.7742 64.3235 62.9989 68.6912 62.9989 73.6992C62.9989 76.1722 63.6784 78.4877 64.8552 80.4754H55.4592C54.2824 78.4877 53.6055 76.1722 53.6055 73.6992C53.6055 68.6912 56.3782 64.3235 60.4839 62.0234Z" fill="#FFB43A"/>
<path d="M42.5588 60.2939C40.1454 60.2939 37.8803 60.9238 35.9199 62.0235H32.4911C25.0216 62.0235 18.9685 68.0253 18.9685 75.4313C18.9685 77.4397 19.4163 79.3422 20.2156 81.0511C18.8175 78.9395 18 76.4149 18 73.6992C18 66.2957 24.0531 60.2939 31.52 60.2939H42.5588Z" fill="#9DBE31"/>
<path d="M123.679 62.0235H69.8799C71.8429 60.9238 74.108 60.2939 76.5214 60.2939H122.71C124.353 60.2939 125.722 61.4427 126.05 62.976C125.436 62.3875 124.6 62.0235 123.679 62.0235Z" fill="#9DBE31"/>
<path d="M67.1256 60.2939C64.7121 60.2939 62.4471 60.9238 60.4841 62.0235H45.3135C47.2765 60.9238 49.5416 60.2939 51.955 60.2939H67.1256Z" fill="#9DBE31"/>
<path d="M51.9539 60.2939C49.5404 60.2939 47.2754 60.9238 45.3124 62.0235H35.9189C37.8794 60.9238 40.1444 60.2939 42.5579 60.2939H51.9539Z" fill="#FFD466"/>
<path d="M76.5209 60.2939C74.1075 60.2939 71.8425 60.9238 69.8794 62.0235H60.4834C62.4464 60.9238 64.7115 60.2939 67.1249 60.2939H76.5209Z" fill="#FFD466"/>
<path d="M125.124 54.0307C125.743 54.6451 126.126 55.4918 126.126 56.4263C126.126 58.2978 124.595 59.8131 122.71 59.8131H31.52C27.7865 59.8131 24.4072 58.3133 21.9599 55.8868C19.5126 53.4628 18 50.1096 18 46.4078C18 39.0043 24.0531 33 31.52 33H122.71C123.653 33 124.504 33.3795 125.124 33.9938C125.743 34.6056 126.126 35.4523 126.126 36.3868C126.126 38.2583 124.595 39.7736 122.71 39.7736H84.8578C81.1661 39.7736 78.1694 42.7448 78.1694 46.4078C78.1694 49.4332 80.2106 51.9837 83.0015 52.7787C83.5925 52.9491 84.2148 53.0395 84.8578 53.0395H122.71C123.653 53.0395 124.504 53.4189 125.124 54.0307Z" fill="#FFA01E"/>
<path d="M83.1318 52.7796C83.7228 52.9473 84.345 53.0403 84.9933 53.0403H83.2411H83.1942C82.848 53.0403 82.5069 53.0145 82.1763 52.9654C78.9662 52.4775 76.5059 49.7283 76.5059 46.4086C76.5059 46.4086 76.5059 46.4086 76.5059 46.406C76.5059 43.0889 78.9662 40.3372 82.1763 39.8519C82.5069 39.8028 82.848 39.7744 83.1942 39.7744H83.2411H84.9933C84.345 39.7744 83.7228 39.8699 83.1318 40.0377C82.9599 40.0868 82.7907 40.1436 82.6241 40.2055C82.6215 40.2055 82.6189 40.2055 82.6189 40.2081C82.2934 40.3294 81.981 40.4766 81.6842 40.6443C81.6634 40.6547 81.6452 40.665 81.6269 40.6779C81.4864 40.7579 81.3484 40.8431 81.2156 40.9335C81.2026 40.9438 81.1896 40.9515 81.1765 40.9619C81.0516 41.0496 80.9292 41.14 80.8094 41.2355C80.7964 41.2458 80.7808 41.2562 80.7652 41.2691C80.6454 41.3646 80.5309 41.4678 80.4189 41.5711C80.3929 41.5943 80.3695 41.6175 80.346 41.6408C80.2341 41.744 80.1273 41.855 80.0258 41.9686C80.0102 41.9841 79.9945 42.0022 79.9789 42.0202C79.8878 42.1235 79.7993 42.2293 79.7134 42.3403C79.6925 42.3636 79.6743 42.3868 79.6561 42.41C79.565 42.5288 79.4791 42.6501 79.3983 42.774C79.3775 42.805 79.3567 42.8385 79.3359 42.8695C79.2552 42.996 79.1797 43.1251 79.1068 43.2567C79.0963 43.2774 79.0859 43.3006 79.0729 43.3187C79.0104 43.44 78.9479 43.5639 78.8933 43.6878C78.8776 43.7214 78.862 43.7524 78.849 43.7833C78.7891 43.9202 78.7345 44.0596 78.685 44.199C78.672 44.2377 78.659 44.2738 78.6485 44.3099C78.5991 44.4571 78.5522 44.6042 78.5132 44.754C78.5106 44.7694 78.5079 44.7875 78.5027 44.803C78.4663 44.945 78.4377 45.087 78.409 45.2341C78.4038 45.2677 78.3986 45.3038 78.3934 45.3374C78.3674 45.4897 78.3465 45.6471 78.3335 45.802C78.3283 45.8381 78.3257 45.8717 78.3231 45.9078C78.3127 46.0705 78.3049 46.2357 78.3049 46.4035C78.3049 46.406 78.3049 46.406 78.3049 46.406C78.3049 46.4086 78.3049 46.4112 78.3049 46.4138C78.3049 46.579 78.3127 46.7442 78.3231 46.9094C78.3257 46.943 78.3283 46.9791 78.3335 47.0127C78.3465 47.1702 78.3674 47.325 78.3934 47.4773C78.3986 47.5135 78.4038 47.547 78.409 47.5832C78.4377 47.7277 78.4663 47.8723 78.5027 48.0143C78.5079 48.0298 78.5106 48.0452 78.5132 48.0633C78.5522 48.213 78.5991 48.3602 78.6485 48.5047C78.659 48.5409 78.672 48.5796 78.685 48.6157C78.7345 48.7551 78.7891 48.8945 78.849 49.0313C78.862 49.0649 78.8776 49.0959 78.8933 49.1269C78.9479 49.2533 79.0104 49.3747 79.0729 49.496C79.0859 49.5167 79.0963 49.5373 79.1068 49.558C79.1797 49.6922 79.2552 49.8213 79.3359 49.9452C79.3567 49.9787 79.3775 50.0097 79.3983 50.0433C79.4791 50.1672 79.565 50.2885 79.6561 50.4072C79.6743 50.4305 79.6925 50.4537 79.7134 50.4769C79.7993 50.5853 79.8878 50.6938 79.9789 50.797C79.9945 50.8151 80.0102 50.8306 80.0258 50.8487C80.1273 50.9622 80.2341 51.0707 80.346 51.1765C80.3695 51.1972 80.3929 51.2204 80.4189 51.2436C80.5309 51.3494 80.6454 51.4501 80.7652 51.5482C80.7808 51.5585 80.7964 51.5714 80.8094 51.5818C80.9292 51.6773 81.0516 51.7676 81.1765 51.8554C81.1896 51.8632 81.2026 51.8735 81.2156 51.8812C81.3484 51.9716 81.4864 52.0568 81.6269 52.1394C81.6452 52.1497 81.6634 52.16 81.6842 52.1729C81.981 52.3381 82.2934 52.4878 82.6189 52.6092C82.6189 52.6092 82.6215 52.6118 82.6241 52.6118C82.7907 52.6737 82.9599 52.7279 83.1318 52.7796Z" fill="#FEC04D"/>
<path d="M42.5588 59.8148H31.52C24.0531 59.8148 18 53.8104 18 46.4069C18 45.2634 18.1458 44.1508 18.4166 43.0898C19.8537 48.6941 24.8524 52.8889 30.8847 53.1677C33.2305 57.143 37.5809 59.8148 42.5588 59.8148Z" fill="#EA7218"/>
<path d="M67.1259 59.8169H51.9553C46.9827 59.8169 42.6374 57.1502 40.2891 53.1826H55.4596C57.808 57.1502 62.1532 59.8169 67.1259 59.8169Z" fill="#EA7218"/>
<path d="M126.126 56.4258C126.126 58.2974 124.595 59.8152 122.71 59.8152H76.5217C71.5491 59.8152 67.2038 57.1486 64.8555 53.181H122.71C122.95 53.181 123.184 53.1578 123.411 53.1113C124.96 53.4314 126.126 54.7918 126.126 56.4258Z" fill="#EA7218"/>
<path d="M51.9539 59.8151H42.5579C37.58 59.8151 33.2295 57.1433 30.8838 53.168C31.0947 53.1757 31.3082 53.1809 31.519 53.1809H40.2876C42.636 57.1485 46.9812 59.8151 51.9539 59.8151Z" fill="#8F1E41"/>
<path d="M76.5213 59.8169H67.1253C62.1526 59.8169 57.8073 57.1502 55.459 53.1826H64.855C67.2034 57.1502 71.5486 59.8169 76.5213 59.8169Z" fill="#8F1E41"/>
<path d="M121.357 39.7764V53.0396H84.8583C81.1665 53.0396 78.1699 50.0684 78.1699 46.408C78.1699 42.745 81.1665 39.7764 84.8583 39.7764H121.357Z" fill="#DFDFDF"/>
<path d="M84.9052 53.0396H84.8583C81.1665 53.0396 78.1699 50.0684 78.1699 46.408C78.1699 42.745 81.1665 39.7764 84.8583 39.7764H121.357V43.8111H91.0624C87.3681 43.8111 84.3741 46.7823 84.3741 50.4427C84.3741 51.3643 84.5641 52.242 84.9052 53.0396Z" fill="#C6C6C6"/>
<path d="M35.9201 34.7295H45.3135C41.2078 37.0321 38.4351 41.3973 38.4351 46.4078C38.4351 48.8808 39.112 51.1937 40.2888 53.1814H31.5202C31.3093 53.1814 31.0958 53.1762 30.8849 53.1685C29.7134 51.1834 29.0391 48.873 29.0391 46.4078C29.0391 41.3973 31.8118 37.0321 35.9201 34.7295Z" fill="#C32E41"/>
<path d="M60.4839 34.7295H69.8799C65.7742 37.0321 62.9989 41.3973 62.9989 46.4078C62.9989 48.8808 63.6784 51.1937 64.8552 53.1814H55.4592C54.2824 51.1937 53.6055 48.8808 53.6055 46.4078C53.6055 41.3973 56.3782 37.0321 60.4839 34.7295Z" fill="#C32E41"/>
<path d="M42.5588 33C40.1454 33 37.8803 33.6299 35.9199 34.7295H32.4911C25.0216 34.7295 18.9685 40.7339 18.9685 48.1374C18.9685 50.1457 19.4163 52.0482 20.2156 53.7571C18.8175 51.6455 18 49.1209 18 46.4078C18 39.0043 24.0531 33 31.52 33H42.5588Z" fill="#FEC04D"/>
<path d="M123.679 34.7295H69.8799C71.8429 33.6299 74.108 33 76.5214 33H122.71C124.353 33 125.722 34.1513 126.05 35.6821C125.436 35.0935 124.6 34.7295 123.679 34.7295Z" fill="#FEC04D"/>
<path d="M67.1256 33C64.7121 33 62.4471 33.6299 60.4841 34.7295H45.3135C47.2765 33.6299 49.5416 33 51.955 33H67.1256Z" fill="#FEC04D"/>
<path d="M51.9539 33C49.5404 33 47.2754 33.6299 45.3124 34.7295H35.9189C37.8794 33.6299 40.1444 33 42.5579 33H51.9539Z" fill="#EC536D"/>
<path d="M76.5209 33C74.1075 33 71.8425 33.6299 69.8794 34.7295H60.4834C62.4464 33.6299 64.7115 33 67.1249 33H76.5209Z" fill="#EC536D"/>
<path d="M85.7568 46.4072H95.4913C98.7144 49.4042 100.602 52.7549 101.157 56.4618L96.2489 53.168L92.0235 56.4618C90.5863 51.9444 88.4983 48.5937 85.7568 46.4072Z" fill="#30262D"/>
<path d="M106.925 75.3037H116.659C119.882 78.3007 121.77 81.6514 122.322 85.3583L117.414 82.0618L113.191 85.3583C111.754 80.8408 109.666 77.4902 106.925 75.3037Z" fill="#30262D"/>
<path d="M85.7568 102.598H95.4913C98.7144 105.592 100.602 108.945 101.157 112.652L96.2489 109.356L92.0235 112.652C90.5863 108.132 88.4983 104.782 85.7568 102.598Z" fill="#30262D"/>
</svg>
