<svg width="150" height="150" viewBox="0 0 150 150" fill="none" xmlns="http://www.w3.org/2000/svg">
<rect width="150" height="150" fill="#8080FF"/>
<g style="mix-blend-mode:multiply" opacity="0.2">
<g style="mix-blend-mode:multiply" opacity="0.2">
<path d="M57.1294 35.8035C57.1467 35.7483 57.1785 35.6959 57.2189 35.6465L57.1207 35.9286C57.1207 35.8879 57.1178 35.8443 57.1294 35.8035ZM53.7129 45.5255C53.7187 45.5022 53.7389 45.4818 53.7504 45.4557C53.7591 45.4353 53.7764 45.415 53.7909 45.3975L53.7042 45.6505C53.7042 45.6098 53.7013 45.5662 53.7129 45.5255ZM50.2964 55.2445C50.3137 55.1893 50.3455 55.1369 50.3859 55.0875L50.2848 55.3725C50.2877 55.3289 50.2848 55.2852 50.2964 55.2445ZM46.6171 65.7139C46.6229 65.6935 46.6373 65.6761 46.6489 65.6557C46.6604 65.6296 46.6778 65.6063 46.6951 65.583L46.6055 65.8389C46.6055 65.7982 46.6056 65.7546 46.6171 65.7139ZM43.0418 75.8837C43.0562 75.84 43.0793 75.8023 43.1053 75.7645C43.1082 75.7586 43.1198 75.7528 43.1226 75.747L43.0331 76.0087C43.0331 75.9651 43.0302 75.9215 43.0418 75.8837ZM39.5213 85.8994C39.5386 85.8441 39.5704 85.7918 39.6108 85.7452L39.5098 86.0244C39.5098 85.9837 39.5097 85.9401 39.5213 85.8994Z" fill="#202225"/>
</g>
</g>
<path d="M25.4625 114.877L24.625 109.078L27.643 100.493L29.0696 106.574L25.4625 114.877Z" fill="#202225"/>
<path d="M25.4619 114.876L59.2601 18.7236L87.7934 28.8934C87.9147 28.908 88.036 28.9341 88.1573 28.9545L128.734 43.4167C131.382 44.9551 132.67 48.1279 131.65 51.0303L101.835 135.849C100.942 138.385 98.5482 139.959 95.9462 139.999L25.4619 114.876Z" fill="#202225"/>
<path d="M25.3818 112.92L59.1829 16.7676L87.7162 26.9374C87.8375 26.9519 87.9588 26.9752 88.0801 26.9984L128.656 41.4607C131.302 42.9991 132.593 46.1748 131.573 49.0742L101.758 133.893C100.868 136.429 98.4711 138.006 95.869 138.043L25.3818 112.92Z" fill="#202225"/>
<path d="M24.625 109.078L58.4231 12.9258L86.9564 23.0956C87.0777 23.1102 87.199 23.1363 87.3203 23.1567L127.899 37.6218C130.542 39.1573 131.836 42.333 130.816 45.2353L101.001 130.055C100.111 132.588 97.7113 134.164 95.1093 134.202L24.625 109.078Z" fill="#202225"/>
<path d="M25.3817 112.92L24.625 109.078L95.1093 134.202L95.8688 138.043L25.3817 112.92Z" fill="#202225"/>
<path d="M51.4565 32.238C51.3727 32.2089 51.2947 32.1507 51.237 32.0751C51.185 32.0024 50.7402 31.3655 50.9453 30.6472C51.081 30.1645 51.4622 29.7951 52.0745 29.5537L52.1814 29.5247C52.2218 29.5189 53.273 29.3705 54.1019 30.0423C54.6679 30.5047 54.9856 31.2085 55.0491 32.142C55.0664 32.4037 54.8672 32.6306 54.6073 32.648C54.3445 32.6655 54.1221 32.4677 54.1047 32.2031C54.0614 31.5516 53.8622 31.0776 53.5156 30.7926C53.0882 30.4407 52.5308 30.4524 52.3662 30.464C52.1554 30.5542 51.9157 30.6967 51.8579 30.906C51.7857 31.1387 51.9359 31.4208 52.0023 31.5109C52.1496 31.7232 52.1034 32.0199 51.8926 32.174C51.7626 32.27 51.598 32.2903 51.4565 32.238Z" fill="#202225"/>
<path d="M48.0394 41.9605C47.9557 41.9285 47.8777 41.8733 47.82 41.7948C47.768 41.725 47.3232 41.0852 47.5283 40.3668C47.664 39.8841 48.0452 39.5177 48.6575 39.2734L48.7614 39.2443C48.8048 39.2385 49.856 39.0902 50.6848 39.7649C51.2509 40.2244 51.5686 40.9281 51.6321 41.8616C51.6494 42.1234 51.4502 42.3502 51.1902 42.3676C50.9274 42.3851 50.7051 42.1874 50.6877 41.9256C50.6444 41.2713 50.4451 40.7972 50.0986 40.5122C49.6712 40.1604 49.1138 40.172 48.9492 40.1836C48.7383 40.2738 48.4986 40.4221 48.438 40.6286C48.3687 40.8583 48.5188 41.1433 48.5824 41.2335C48.7326 41.4458 48.6864 41.7424 48.4755 41.8965C48.3456 41.9925 48.1809 42.01 48.0394 41.9605Z" fill="#202225"/>
<path d="M44.6226 51.6786C44.5388 51.6495 44.4608 51.5914 44.4031 51.5158C44.3511 51.4431 43.9035 50.8062 44.1114 50.0849C44.2471 49.6051 44.6284 49.2358 45.2406 48.9915L45.3446 48.9653C45.3879 48.9566 46.4391 48.8112 47.268 49.4859C47.834 49.9454 48.1517 50.6491 48.2152 51.5797C48.2326 51.8415 48.0333 52.0712 47.7734 52.0887C47.5106 52.1032 47.2882 51.9054 47.2709 51.6437C47.2276 50.9923 47.0283 50.5154 46.6817 50.2304C46.2543 49.8814 45.6969 49.8901 45.5294 49.9046C45.3215 49.9919 45.0818 50.1373 45.024 50.3467C44.9518 50.5764 45.102 50.8614 45.1655 50.9516C45.3157 51.1639 45.2695 51.4634 45.0587 51.6146C44.9287 51.7106 44.7641 51.728 44.6226 51.6786Z" fill="#202225"/>
<path d="M40.944 62.1484C40.8603 62.1164 40.7794 62.0612 40.7245 61.9826C40.6697 61.9128 40.2278 61.273 40.4328 60.5547C40.5686 60.072 40.9498 59.7055 41.562 59.4613L41.666 59.4322C41.7093 59.4264 42.7606 59.281 43.5894 59.9528C44.1555 60.4122 44.4731 61.116 44.5367 62.0495C44.554 62.3113 44.3547 62.5381 44.0948 62.5555C43.832 62.573 43.6096 62.3752 43.5923 62.1135C43.549 61.4621 43.3497 60.9851 43.0032 60.7001C42.5728 60.3483 42.0183 60.3599 41.8508 60.3715C41.64 60.4617 41.4032 60.61 41.3426 60.8165C41.2732 61.0462 41.4234 61.3312 41.487 61.4214C41.6371 61.6336 41.5909 61.9303 41.3801 62.0844C41.2501 62.1804 41.0855 62.1978 40.944 62.1484Z" fill="#202225"/>
<path d="M37.3666 72.316C37.2829 72.2869 37.2049 72.2317 37.1471 72.1532C37.0951 72.0804 36.6504 71.4436 36.8554 70.7252C36.9912 70.2425 37.3724 69.8761 37.9847 69.6318L38.0915 69.6027C38.1319 69.5969 39.1832 69.4486 40.012 70.1233C40.5781 70.5828 40.8958 71.2894 40.9593 72.22C40.9766 72.4818 40.7773 72.7086 40.5174 72.726C40.2575 72.7435 40.0322 72.5457 40.0149 72.284C39.9716 71.6297 39.7723 71.1556 39.4258 70.8706C38.9983 70.5188 38.441 70.5275 38.2763 70.542C38.0655 70.6322 37.8258 70.7776 37.7652 70.987C37.6959 71.2167 37.846 71.5017 37.9096 71.5919C38.0597 71.8042 38.0135 72.1008 37.8027 72.252C37.6728 72.3509 37.5081 72.3684 37.3666 72.316Z" fill="#202225"/>
<path d="M33.8482 82.3336C33.7644 82.3045 33.6864 82.2463 33.6287 82.1678C33.5767 82.098 33.129 81.4612 33.337 80.7429C33.4727 80.2601 33.8539 79.8908 34.4662 79.6465L34.5702 79.6203C34.6135 79.6116 35.6647 79.4632 36.4935 80.1379C37.0596 80.5974 37.3773 81.3041 37.4408 82.2347C37.4581 82.4965 37.2588 82.7262 36.9989 82.7408C36.7361 82.7582 36.5137 82.5604 36.4964 82.2987C36.4531 81.6473 36.2539 81.1703 35.9073 80.8853C35.477 80.5364 34.9225 80.5451 34.7578 80.5567C34.5441 80.6498 34.3073 80.7923 34.2467 81.0017C34.1774 81.2314 34.3276 81.5164 34.3911 81.6066C34.5413 81.8189 34.495 82.1184 34.2842 82.2696C34.1543 82.3656 33.9897 82.3859 33.8482 82.3336Z" fill="#202225"/>
<path d="M27.4337 103.916L26.3594 103.532L55.8515 19.6377L56.9258 20.0186L27.4337 103.916Z" fill="#202225"/>
<path d="M57.2905 32.2971C56.9411 33.2917 55.861 33.8093 54.8762 33.4574C53.8914 33.1085 53.3773 32.0208 53.7268 31.0291C54.0733 30.0374 55.1534 29.5169 56.1382 29.8688C57.123 30.2178 57.64 31.3083 57.2905 32.2971Z" fill="#202225"/>
<path d="M53.7111 42.4758C53.3645 43.4675 52.2844 43.9851 51.2996 43.6332C50.3148 43.2843 49.7979 42.1966 50.1473 41.2049C50.4968 40.2132 51.5769 39.6927 52.5617 40.0446C53.5465 40.3935 54.0605 41.4841 53.7111 42.4758Z" fill="#202225"/>
<path d="M50.1372 52.6516C49.7906 53.6432 48.7076 54.1638 47.7228 53.8119C46.738 53.4601 46.224 52.3724 46.5734 51.3807C46.92 50.389 48.0001 49.8685 48.9849 50.2203C49.9697 50.5693 50.4866 51.6599 50.1372 52.6516Z" fill="#202225"/>
<path d="M46.5616 62.8272C46.2122 63.8189 45.1321 64.3394 44.1473 63.9875C43.1625 63.6357 42.6455 62.548 42.995 61.5563C43.3444 60.5647 44.4245 60.047 45.4093 60.3959C46.3941 60.7478 46.9082 61.8355 46.5616 62.8272Z" fill="#202225"/>
<path d="M42.9834 73.0029C42.6339 73.9946 41.5538 74.5152 40.569 74.1633C39.5842 73.8114 39.0701 72.7238 39.4167 71.7321C39.7661 70.7404 40.8462 70.2228 41.831 70.5717C42.8158 70.9236 43.3328 72.0113 42.9834 73.0029Z" fill="#202225"/>
<path d="M39.4043 83.1789C39.0578 84.1706 37.9776 84.6911 36.9928 84.3392C36.008 83.9874 35.494 82.8997 35.8405 81.908C36.19 80.9164 37.2701 80.3958 38.2549 80.7477C39.2397 81.0996 39.7538 82.1901 39.4043 83.1789Z" fill="#202225"/>
<path d="M54.6078 32.6493C54.345 32.6667 54.1226 32.469 54.1053 32.2043C54.0619 31.5529 53.8627 31.0789 53.5161 30.7939C53.0887 30.442 52.5313 30.4536 52.3667 30.4652C52.1559 30.5554 51.9162 30.6979 51.8584 30.9073C51.8324 30.9887 51.8411 31.0789 51.8584 31.1603L51.6562 31.0905L52.2079 29.523C52.3465 29.5026 53.3169 29.4067 54.1024 30.0435C54.6684 30.5059 54.9861 31.2097 55.0496 32.1433C55.067 32.405 54.8677 32.6318 54.6078 32.6493Z" fill="#202225"/>
<path d="M51.1903 42.3671C50.9275 42.3845 50.7051 42.1868 50.6878 41.925C50.6445 41.2707 50.4452 40.7966 50.0986 40.5116C49.6712 40.1598 49.1138 40.1714 48.9492 40.183C48.7615 40.2645 48.5565 40.3924 48.4698 40.5611L48.3398 40.5146L48.7875 39.2437C48.929 39.2233 49.8994 39.1274 50.6849 39.7643C51.2509 40.2238 51.5686 40.9275 51.6322 41.861C51.6495 42.1228 51.4502 42.3496 51.1903 42.3671Z" fill="#202225"/>
<path d="M47.7742 52.0905C47.5114 52.105 47.289 51.9072 47.2717 51.6455C47.2284 50.9941 47.0291 50.5171 46.6826 50.2321C46.2551 49.8832 45.6978 49.8919 45.5302 49.9064C45.4061 49.9588 45.279 50.0315 45.1779 50.1245L44.9873 50.0577L45.3743 48.9613C45.5129 48.9467 46.4833 48.8479 47.2688 49.4877C47.8349 49.9472 48.1526 50.6509 48.2161 51.5815C48.2334 51.8433 48.0341 52.073 47.7742 52.0905Z" fill="#202225"/>
<path d="M44.0955 62.5565C43.8327 62.574 43.6103 62.3762 43.593 62.1145C43.5497 61.463 43.3504 60.9861 43.0039 60.7011C42.5735 60.3492 42.0191 60.3608 41.8515 60.3725C41.6609 60.4539 41.453 60.5848 41.3692 60.7651L41.2422 60.7186L41.6927 59.4332C41.8342 59.4128 42.8046 59.3168 43.5901 59.9537C44.1562 60.4132 44.4738 61.117 44.5374 62.0505C44.5547 62.3122 44.3554 62.5391 44.0955 62.5565Z" fill="#202225"/>
<path d="M40.5187 72.7266C40.2588 72.744 40.0335 72.5462 40.0162 72.2845C39.9729 71.6302 39.7736 71.1562 39.4271 70.8712C38.9996 70.5193 38.4423 70.528 38.2776 70.5425C38.1072 70.6123 37.9253 70.7258 37.8242 70.8712L37.6885 70.8217L38.1159 69.6003C38.2574 69.5828 39.2278 69.4869 40.0133 70.1238C40.5794 70.5833 40.8971 71.2899 40.9606 72.2205C40.9779 72.4823 40.7786 72.7091 40.5187 72.7266Z" fill="#202225"/>
<path d="M36.9991 82.7422C36.7363 82.7596 36.5139 82.5619 36.4966 82.3001C36.4533 81.6487 36.2541 81.1718 35.9075 80.8868C35.4772 80.5378 34.9227 80.5465 34.758 80.5582C34.5443 80.6512 34.3075 80.7937 34.2469 81.0031C34.2382 81.0293 34.2411 81.0554 34.2382 81.0845L34.0996 81.0351L34.5963 79.6159C34.7378 79.5985 35.7082 79.5025 36.4937 80.1394C37.0598 80.5989 37.3775 81.3056 37.441 82.2362C37.4583 82.4979 37.259 82.7277 36.9991 82.7422Z" fill="#202225"/>
<path d="M116.224 70.6237L55.5996 49.0161L62.4355 29.5693L123.057 51.1798L116.224 70.6237Z" fill="#202225"/>
<g style="mix-blend-mode:multiply" opacity="0.2">
<g style="mix-blend-mode:multiply" opacity="0.2">
<path d="M49.5034 32.8777C49.5207 32.8196 49.5525 32.7701 49.5929 32.7207L49.4947 33.0028C49.4947 32.9592 49.4919 32.9184 49.5034 32.8777ZM46.0869 42.5968C46.0956 42.5735 46.1129 42.5532 46.1244 42.5299C46.1331 42.5066 46.1533 42.4892 46.1678 42.4688L46.0783 42.7218C46.0783 42.6811 46.0754 42.6375 46.0869 42.5968ZM42.6704 52.3187C42.6877 52.2606 42.7195 52.2082 42.76 52.1617L42.6617 52.4438C42.6617 52.4002 42.6589 52.3595 42.6704 52.3187ZM38.9911 62.7881C38.9969 62.7648 39.0142 62.7474 39.0229 62.727C39.0344 62.7008 39.0518 62.6776 39.072 62.6572L38.9796 62.9102C38.9796 62.8695 38.9796 62.8259 38.9911 62.7881ZM35.4158 72.955C35.4302 72.9114 35.4533 72.8735 35.4793 72.8386C35.4851 72.8299 35.4938 72.8241 35.4967 72.8183L35.4071 73.08C35.4071 73.0393 35.4042 72.9957 35.4158 72.955ZM31.8954 82.9735C31.9127 82.9154 31.9444 82.8631 31.9849 82.8165L31.8838 83.0986C31.8838 83.055 31.8838 83.0143 31.8954 82.9735Z" fill="#F9763D"/>
</g>
</g>
<path d="M17.8375 111.948L17 106.149L20.0179 97.5674L21.4446 103.645L17.8375 111.948Z" fill="#6C569E"/>
<path d="M17.8369 111.948L51.6351 15.7959L80.1684 25.9657C80.2897 25.9803 80.411 26.0093 80.5351 26.0268L121.111 40.4919C123.757 42.0274 125.045 45.2002 124.025 48.1026L94.2127 132.922C93.3203 135.461 90.9233 137.034 88.3212 137.072L17.8369 111.948Z" fill="#CC3B23"/>
<path d="M17.7578 109.994L51.5588 13.8389L80.0922 24.0087C80.2135 24.0232 80.3348 24.0494 80.4561 24.0698L121.035 38.532C123.678 40.0704 124.969 43.2461 123.949 46.1455L94.1336 130.965C93.2441 133.501 90.847 135.077 88.245 135.115L17.7578 109.994Z" fill="#F2F3F9"/>
<path d="M17 106.149L50.7981 10L79.3315 20.1698C79.4528 20.1814 79.574 20.2076 79.6982 20.2309L120.274 34.6931C122.917 36.2286 124.211 39.4043 123.191 42.3067L93.3758 127.126C92.4863 129.662 90.0863 131.238 87.4843 131.273L17 106.149Z" fill="#FBC241"/>
<path d="M17.7567 109.994L17 106.149L87.4843 131.273L88.2438 135.115L17.7567 109.994Z" fill="#A1BACE"/>
<path d="M43.8334 29.3125C43.7497 29.2805 43.6717 29.2252 43.6139 29.1467C43.5619 29.0769 43.1172 28.4371 43.3222 27.7188C43.458 27.236 43.8392 26.8696 44.4515 26.6253L44.5583 26.5962C44.6016 26.5904 45.65 26.445 46.4788 27.1168C47.0449 27.5763 47.3625 28.2801 47.4261 29.2136C47.4434 29.4753 47.247 29.7022 46.9842 29.7225C46.7214 29.7371 46.499 29.5393 46.4817 29.2776C46.4384 28.6232 46.242 28.1492 45.8926 27.8642C45.4651 27.5152 44.9078 27.5239 44.7431 27.5356C44.5323 27.6257 44.2926 27.7711 44.2349 27.9805C44.1627 28.2103 44.3128 28.4953 44.3793 28.5825C44.5294 28.7977 44.4803 29.0943 44.2724 29.2456C44.1396 29.3444 43.9778 29.3619 43.8334 29.3125Z" fill="#3D2C33"/>
<path d="M40.4174 39.0309C40.3337 39.0018 40.2557 38.9466 40.1979 38.8652C40.1459 38.7954 39.7012 38.1585 39.9062 37.4373C40.0448 36.9574 40.4232 36.5881 41.0354 36.3467L41.1423 36.3176C41.1827 36.3118 42.2339 36.1635 43.0628 36.8353C43.6288 37.2948 43.9465 38.0014 44.01 38.9321C44.0274 39.1967 43.8281 39.4235 43.5711 39.441C43.3054 39.4555 43.083 39.2578 43.0657 38.996C43.0223 38.3446 42.826 37.8706 42.4765 37.5827C42.0491 37.2308 41.4917 37.2424 41.3271 37.254C41.1163 37.3442 40.8766 37.4925 40.8159 37.699C40.7466 37.9287 40.8997 38.2137 40.9603 38.3039C41.1105 38.5162 41.0643 38.8157 40.8535 38.967C40.7235 39.0629 40.5589 39.0833 40.4174 39.0309Z" fill="#3D2C33"/>
<path d="M37.0004 48.7545C36.9167 48.7225 36.8387 48.6673 36.7809 48.5887C36.7289 48.516 36.2842 47.8792 36.4892 47.1609C36.625 46.6781 37.0062 46.3117 37.6184 46.0674L37.7224 46.0412C37.7657 46.0325 38.817 45.8842 39.6458 46.5589C40.2119 47.0183 40.5296 47.7221 40.5931 48.6527C40.6104 48.9174 40.414 49.1442 40.1512 49.1616C39.8884 49.1791 39.666 48.9814 39.6487 48.7196C39.6054 48.0682 39.409 47.5913 39.0595 47.3034C38.6321 46.9544 38.0747 46.9631 37.9101 46.9777C37.6993 47.0678 37.4596 47.2132 37.4018 47.4197C37.3296 47.6494 37.4798 47.9344 37.5434 48.0246C37.6964 48.2369 37.6473 48.5364 37.4365 48.6905C37.3065 48.7836 37.1448 48.804 37.0004 48.7545Z" fill="#3D2C33"/>
<path d="M33.3217 59.2204C33.2379 59.1913 33.16 59.1361 33.1022 59.0546C33.0502 58.9848 32.6055 58.348 32.8105 57.6268C32.9463 57.1469 33.3275 56.7776 33.9397 56.5333L34.0466 56.5071C34.087 56.5013 35.1383 56.353 35.9671 57.0247C36.5332 57.4842 36.8508 58.1909 36.9144 59.1215C36.9317 59.3862 36.7324 59.613 36.4725 59.6304C36.2097 59.645 35.9873 59.4473 35.97 59.1884C35.9267 58.5341 35.7274 58.0601 35.3808 57.7722C34.9534 57.4203 34.396 57.4319 34.2314 57.4464C34.0206 57.5366 33.7809 57.682 33.7202 57.8885C33.6509 58.1182 33.8011 58.4032 33.8646 58.4934C34.0148 58.7057 33.9686 59.0052 33.7578 59.1564C33.6278 59.2524 33.4632 59.2699 33.3217 59.2204Z" fill="#3D2C33"/>
<path d="M29.7455 69.3896C29.6618 69.3577 29.5838 69.3024 29.526 69.2239C29.4741 69.1541 29.0293 68.5172 29.2343 67.7989C29.3701 67.3161 29.7513 66.9468 30.3635 66.7025L30.4704 66.6764C30.5137 66.6676 31.5621 66.5222 32.3909 67.194C32.957 67.6535 33.2747 68.3602 33.3382 69.2908C33.3555 69.5554 33.1591 69.7793 32.8963 69.7997C32.6364 69.8142 32.4111 69.6165 32.3938 69.3547C32.3505 68.7033 32.1541 68.2264 31.8046 67.9414C31.3772 67.5895 30.8198 67.6011 30.6552 67.6128C30.4444 67.7029 30.2047 67.8483 30.1469 68.0577C30.0747 68.2875 30.2249 68.5725 30.2913 68.6626C30.4415 68.8749 30.3924 69.1744 30.1816 69.3257C30.0516 69.4216 29.887 69.4391 29.7455 69.3896Z" fill="#3D2C33"/>
<path d="M26.2261 79.4087C26.1423 79.3768 26.0644 79.3215 26.0066 79.243C25.9546 79.1703 25.507 78.5334 25.7149 77.8151C25.8506 77.3323 26.2319 76.963 26.8441 76.7187L26.951 76.6925C26.9914 76.6867 28.0426 76.5384 28.8715 77.2131C29.4375 77.6726 29.7552 78.3764 29.8187 79.3099C29.8361 79.5716 29.6368 79.7984 29.3798 79.8159C29.1141 79.8304 28.8917 79.6356 28.8744 79.3738C28.831 78.7195 28.6347 78.2455 28.2852 77.9605C27.8578 77.6086 27.3004 77.6173 27.1358 77.629C26.925 77.722 26.6853 77.8674 26.6275 78.0739C26.5553 78.3066 26.7055 78.5886 26.769 78.6788C26.9192 78.894 26.873 79.1906 26.6622 79.3419C26.5322 79.4378 26.3676 79.4582 26.2261 79.4087Z" fill="#3D2C33"/>
<path d="M19.8136 100.99L18.7363 100.606L48.2285 16.709L49.3028 17.0929L19.8136 100.99Z" fill="#F6F5FC"/>
<path d="M49.6674 29.3701C49.3209 30.3618 48.2379 30.8795 47.256 30.5305C46.2683 30.1786 45.7542 29.091 46.1037 28.0993C46.4531 27.1076 47.5303 26.5899 48.5151 26.9389C49.5028 27.2908 50.0169 28.3785 49.6674 29.3701Z" fill="#423D42"/>
<path d="M46.0908 39.5461C45.7413 40.5378 44.6612 41.0554 43.6764 40.7064C42.6916 40.3545 42.1775 39.2669 42.5241 38.2752C42.8736 37.2835 43.9537 36.763 44.9385 37.1149C45.9233 37.4668 46.4402 38.5544 46.0908 39.5461Z" fill="#423D42"/>
<path d="M42.5142 49.7219C42.1676 50.7135 41.0846 51.2341 40.0998 50.8822C39.115 50.5332 38.6009 49.4427 38.9504 48.451C39.2969 47.4593 40.3799 46.9388 41.3647 47.2907C42.3467 47.6425 42.8636 48.7302 42.5142 49.7219Z" fill="#423D42"/>
<path d="M38.9385 59.897C38.589 60.8887 37.5089 61.4093 36.5241 61.0574C35.5393 60.7055 35.0252 59.6178 35.3718 58.6262C35.7212 57.6345 36.8013 57.1168 37.7861 57.4687C38.771 57.8177 39.285 58.9053 38.9385 59.897Z" fill="#423D42"/>
<path d="M35.3599 70.0728C35.0104 71.0674 33.9303 71.585 32.9455 71.2331C31.9607 70.8812 31.4466 69.7965 31.7961 68.8048C32.1455 67.8102 33.2228 67.2926 34.2076 67.6445C35.1924 67.9935 35.7093 69.0811 35.3599 70.0728Z" fill="#423D42"/>
<path d="M31.7841 80.2526C31.4347 81.2414 30.3546 81.7619 29.3698 81.41C28.385 81.0611 27.8709 79.9705 28.2175 78.9817C28.5669 77.99 29.647 77.4695 30.6318 77.8185C31.6166 78.1704 32.1307 79.2609 31.7841 80.2526Z" fill="#423D42"/>
<path d="M46.9848 29.7236C46.7219 29.7382 46.4996 29.5404 46.4822 29.2787C46.4389 28.6243 46.2425 28.1503 45.8931 27.8653C45.4657 27.5163 44.9083 27.525 44.7437 27.5367C44.5328 27.6268 44.2931 27.7722 44.2354 27.9816C44.2094 28.0631 44.2181 28.1503 44.2354 28.2346L44.0332 28.1619L44.5848 26.5944C44.7263 26.577 45.6938 26.481 46.4794 27.1179C47.0454 27.5774 47.3631 28.2812 47.4266 29.2147C47.4439 29.4764 47.2476 29.7033 46.9848 29.7236Z" fill="#3D2C33"/>
<path d="M43.5701 39.4422C43.3044 39.4568 43.0821 39.259 43.0647 38.9973C43.0214 38.3458 42.8251 37.8718 42.4756 37.5839C42.0482 37.232 41.4908 37.2437 41.3262 37.2553C41.1384 37.3367 40.9334 37.4647 40.8497 37.6363L40.7168 37.5897L41.1673 36.316C41.3089 36.2956 42.2763 36.1996 43.0618 36.8365C43.6279 37.296 43.9456 38.0027 44.0091 38.9333C44.0264 39.1979 43.8272 39.4248 43.5701 39.4422Z" fill="#3D2C33"/>
<path d="M40.1502 49.1611C39.8874 49.1786 39.665 48.9809 39.6477 48.7191C39.6044 48.0677 39.408 47.5908 39.0585 47.3029C38.6311 46.9539 38.0737 46.9626 37.9091 46.9771C37.782 47.0295 37.655 47.1051 37.5539 47.1981L37.3633 47.1283L37.7503 46.0349C37.8889 46.0174 38.8593 45.9215 39.6448 46.5583C40.2108 47.0178 40.5285 47.7216 40.5921 48.6522C40.6094 48.9168 40.413 49.1437 40.1502 49.1611Z" fill="#3D2C33"/>
<path d="M36.4725 59.6304C36.2097 59.645 35.9873 59.4472 35.97 59.1884C35.9266 58.5341 35.7274 58.06 35.3808 57.7721C34.9534 57.4203 34.396 57.4319 34.2314 57.4464C34.0379 57.5279 33.8299 57.6587 33.7462 57.8361L33.6191 57.7896L34.0696 56.5042C34.2112 56.4867 35.1815 56.3878 35.9671 57.0247C36.5331 57.4842 36.8508 58.1909 36.9143 59.1215C36.9317 59.3861 36.7324 59.613 36.4725 59.6304Z" fill="#3D2C33"/>
<path d="M32.8957 69.8006C32.6357 69.8152 32.4105 69.6174 32.3931 69.3557C32.3498 68.7043 32.1534 68.2273 31.804 67.9423C31.3766 67.5904 30.8192 67.6021 30.6546 67.6137C30.4842 67.6864 30.3051 67.7969 30.204 67.9423L30.0654 67.8929L30.4957 66.6744C30.6343 66.654 31.6047 66.558 32.3903 67.1949C32.9563 67.6544 33.274 68.3611 33.3375 69.2917C33.3549 69.5563 33.1585 69.7803 32.8957 69.8006Z" fill="#3D2C33"/>
<path d="M29.379 79.8162C29.1133 79.8307 28.8909 79.6359 28.8736 79.3741C28.8303 78.7198 28.6339 78.2458 28.2844 77.9608C27.857 77.6089 27.2996 77.6176 27.135 77.6293C26.9242 77.7223 26.6845 77.8677 26.6267 78.0742C26.6152 78.1004 26.6181 78.1295 26.6152 78.1556L26.4766 78.1062L26.9762 76.6899C27.1177 76.6696 28.0852 76.5736 28.8707 77.2134C29.4367 77.6729 29.7544 78.3767 29.818 79.3102C29.8353 79.5719 29.636 79.7987 29.379 79.8162Z" fill="#3D2C33"/>
<path d="M108.599 67.695L47.9746 46.0875L54.8105 26.6436L115.432 48.2511L108.599 67.695Z" fill="white"/>
</svg>
