<svg width="150" height="150" viewBox="0 0 150 150" fill="none" xmlns="http://www.w3.org/2000/svg">
<rect width="150" height="150" fill="#29CC7A"/>
<path d="M48.9069 125.697C48.6207 125.891 48.3188 126.061 48.0051 126.208C47.5424 126.432 47.0483 126.603 46.5464 126.715C44.582 127.164 42.4764 126.723 40.8452 125.515C40.6648 125.384 40.4923 125.248 40.3355 125.105C40.3002 125.074 40.2688 125.047 40.2335 125.016C39.4767 124.312 38.9004 123.469 38.5239 122.509L29.9799 100.837C28.984 98.2993 29.5956 95.4167 31.5444 93.4937L34.9048 90.1817C36.8104 88.2974 39.6806 87.6705 42.2136 88.5876L47.0091 90.3171C47.2091 90.3906 47.4012 90.4757 47.5894 90.5647L49.252 91.3463V92.6928L50.6753 92.0196L52.1026 92.6928V91.3463L53.7612 90.5647C53.9533 90.4757 54.1415 90.3906 54.3415 90.3171L59.137 88.5876C60.7524 88.0033 62.5248 88.0343 64.1324 88.6727C64.548 88.8391 64.948 89.0441 65.3126 89.2763L65.3754 89.3188C65.5401 89.4272 65.7008 89.5433 65.893 89.6942L65.9675 89.7522C66.1086 89.8683 66.2459 89.9843 66.3792 90.112L67.2379 91.0909H67.3712L69.8062 93.4937C70.2845 93.9658 70.6923 94.5075 71.0139 95.0956C71.0923 95.2387 71.1668 95.3858 71.2374 95.5405C71.4374 95.9855 71.5942 96.4537 71.6961 96.9373C71.7314 97.096 71.7589 97.2546 71.7785 97.4171V97.421C71.8255 97.746 71.8451 98.0749 71.8451 98.396C71.8412 98.5585 71.8373 98.7249 71.8216 98.8913C71.7981 99.2202 71.7471 99.5491 71.6726 99.8741C71.5942 100.199 71.4962 100.524 71.3707 100.837L62.8306 122.509C61.7837 125.171 59.235 126.889 56.3452 126.889C56.1765 126.889 56.0079 126.881 55.8785 126.873L55.7727 126.862C55.4355 126.835 55.11 126.784 54.8042 126.715C54.3023 126.603 53.8122 126.432 53.3456 126.208C53.0358 126.061 52.7339 125.891 52.4437 125.697L50.6753 124.513L48.9069 125.697ZM40.7942 70.4022C40.3355 69.9031 39.9002 69.3962 39.4963 68.9126C40.1198 68.7926 40.7825 68.6843 41.4647 68.5876L41.8725 68.5295C45.9543 68.011 47.6953 68.514 48.2638 68.7617C48.703 68.9474 50.0283 69.5239 50.5302 71.8725L50.891 73.5711L48.354 74.4881C47.5973 74.7628 46.8915 74.7899 46.1308 74.5694C45.5348 74.403 43.884 73.6911 41.1079 70.7466L40.7942 70.4022Z" fill="#202225"/>
<path d="M74.3142 101.967L65.7702 123.639C64.2567 127.473 60.516 130 56.3479 130C54.3129 130 52.3445 129.384 50.6781 128.274C49.0155 129.384 47.0472 130 45.0121 130C40.8401 130 37.0994 127.473 35.5898 123.639L27.0458 101.967C25.5911 98.2758 26.4851 94.0893 29.32 91.2919L32.6764 87.9798C35.4604 85.2327 39.605 84.3311 43.3025 85.666L48.098 87.3956C49.0391 87.736 49.9056 88.2081 50.6781 88.7807C51.4544 88.2081 52.321 87.736 53.262 87.3956L58.0575 85.666C61.7512 84.3311 65.8957 85.2327 68.6797 87.9798L72.04 91.2919C74.875 94.0893 75.765 98.2758 74.3142 101.967Z" fill="#202225"/>
<path d="M74.3132 101.968L65.7692 123.64C64.2557 127.474 60.515 130.001 56.3469 130.001C54.3118 130.001 52.3435 129.386 50.677 128.275C49.0145 129.386 47.0461 130.001 45.0111 130.001C40.8391 130.001 37.0984 127.474 35.5887 123.64L34.5811 121.094C36.0122 121.318 37.4787 121.438 38.9766 121.438C54.253 121.438 66.6358 109.219 66.6358 94.1447C66.6358 91.2273 66.1692 88.4221 65.3104 85.791C66.5495 86.2824 67.7023 87.0137 68.6786 87.981L72.039 91.293C74.8739 94.0905 75.764 98.277 74.3132 101.968Z" fill="#202225"/>
<path d="M33.6862 100.464C32.1335 99.2027 31.91 96.9199 33.1882 95.3876L36.2388 91.739C37.5171 90.2068 39.8344 89.9862 41.3833 91.2476C42.936 92.5089 43.1595 94.7956 41.8812 96.3279L38.8346 99.9765C37.5524 101.509 35.239 101.729 33.6862 100.464Z" fill="#202225"/>
<path d="M50.6774 92.3824C49.7246 92.3824 48.9521 91.6202 48.9521 90.68V80.7554C48.9521 77.5826 50.2069 74.5956 52.4811 72.3515L59.5351 65.3907C60.2095 64.7252 61.3035 64.7252 61.9779 65.3907C62.6524 66.0562 62.6524 67.1358 61.9779 67.8013L54.92 74.762C53.3006 76.3638 52.4027 78.4919 52.4027 80.7554V90.68C52.4027 91.6202 51.6342 92.3824 50.6774 92.3824Z" fill="#202225"/>
<path d="M50.8813 80.4652C50.7676 80.4652 50.6539 80.4536 50.5402 80.4304C49.603 80.2485 48.9992 79.3509 49.1835 78.4261C49.654 76.1162 50.7911 74.0191 52.4811 72.3553L59.5351 65.3907C60.2095 64.7252 61.3035 64.7252 61.9779 65.3907C62.6523 66.0562 62.6523 67.1358 61.9779 67.8013L54.92 74.762C53.7162 75.9498 52.9045 77.4472 52.5713 79.0955C52.4066 79.9042 51.6851 80.4652 50.8813 80.4652Z" fill="#202225"/>
<path d="M34.124 66.9902L53.8391 74.04C51.5179 77.3559 48.6555 78.5321 45.2599 77.5609C42.97 76.907 40.4958 74.7132 38.4607 72.4961C38.4607 72.4923 38.4646 72.4923 38.4646 72.4923C36.7943 70.6699 35.3474 68.8397 34.124 66.9902Z" fill="#202225"/>
<path d="M39.5295 68.9219L53.8374 74.037C51.5161 77.3529 48.6538 78.5292 45.2581 77.558C42.9682 76.9041 40.494 74.7102 38.459 72.4932C38.459 72.4893 38.4629 72.4893 38.4629 72.4893C38.6668 72.6209 45.0895 76.8847 47.9715 73.77L39.5295 68.9219Z" fill="#202225"/>
<path d="M41.0251 65.511C41.0251 65.511 41.0251 65.511 41.029 65.5071C44.0286 65.0931 47.3576 64.9693 49.5338 65.9134C52.7726 67.3179 54.2077 70.0263 53.8391 74.0426L34.124 66.9929C36.261 66.3467 38.5627 65.8514 41.0251 65.511Z" fill="#202225"/>
<path d="M49.1614 70.5409C48.9693 66.3274 41.2683 65.538 41.0252 65.511C41.0252 65.511 41.0252 65.511 41.0291 65.5071C44.0287 65.0931 47.3577 64.9693 49.5339 65.9134C52.7727 67.3179 54.2078 70.0263 53.8392 74.0426L39.5312 68.9275L49.1614 70.5409Z" fill="#202225"/>
<path d="M38.551 121.809C38.2648 121.999 37.9629 122.169 37.6531 122.32C37.1865 122.541 36.6925 122.711 36.1906 122.827C34.2261 123.272 32.1205 122.831 30.4893 121.627C30.3129 121.492 30.1364 121.357 29.9796 121.213C29.9443 121.182 29.9129 121.155 29.8776 121.124C29.1209 120.424 28.5445 119.581 28.1681 118.621L19.628 96.9456C18.6281 94.4113 19.2398 91.5287 21.1925 89.6019L24.5489 86.2898C26.4546 84.4055 29.3287 83.7826 31.8617 84.6957L36.6533 86.4252C36.8532 86.4987 37.0454 86.5839 37.2375 86.6729L38.8961 87.4544V88.8009L40.3194 88.1277L41.7467 88.8009V87.4544L43.4053 86.6729C43.5974 86.5839 43.7896 86.4987 43.9895 86.4291L48.7811 84.6957C50.3966 84.1114 52.1728 84.1463 53.7765 84.7847C54.1961 84.9511 54.5921 85.1523 54.9568 85.3844L55.0195 85.4308C55.1842 85.5392 55.345 85.6553 55.5371 85.8062L55.6116 85.8642C55.7528 85.9803 55.89 86.0963 56.0233 86.2202L56.882 87.1991H57.0153L59.4503 89.6019C59.9326 90.0778 60.3365 90.6156 60.658 91.2037C60.7364 91.3508 60.8109 91.4939 60.8815 91.6487C61.0815 92.0975 61.2383 92.5657 61.3403 93.0455C61.3756 93.208 61.403 93.3666 61.4265 93.5253V93.5291C61.4697 93.8541 61.4932 94.183 61.4893 94.5042C61.4893 94.6667 61.4814 94.833 61.4657 95.0033C61.4422 95.3283 61.3912 95.6572 61.3167 95.9822C61.2422 96.3072 61.1403 96.6322 61.0148 96.9456L52.4747 118.621C51.4278 121.279 48.8831 122.997 45.9893 122.997C45.8207 122.997 45.656 122.993 45.5266 122.982L45.4168 122.97C45.0796 122.943 44.7581 122.897 44.4483 122.823C43.9464 122.711 43.4563 122.541 42.9936 122.32C42.6799 122.169 42.378 121.999 42.0918 121.805L40.3194 120.621L38.551 121.809ZM30.4383 66.5142C29.9796 66.0112 29.5443 65.5082 29.1405 65.0207C29.7678 64.9046 30.4266 64.7924 31.1089 64.6996L31.5166 64.6415C35.5985 64.1192 37.3394 64.6222 37.9119 64.8698C38.3471 65.0594 39.6725 65.632 40.1744 67.9807L40.5351 69.6831L37.9982 70.5963C37.2414 70.871 36.5356 70.8981 35.7749 70.6814C35.1789 70.5111 33.5281 69.7992 30.756 66.8547L30.4383 66.5142Z" fill="white"/>
<path d="M63.9568 98.0737L55.4128 119.745C53.9032 123.58 50.1586 126.106 45.9905 126.106C43.9555 126.106 41.9871 125.495 40.3206 124.381C38.6581 125.495 36.6897 126.106 34.6547 126.106C30.4866 126.106 26.742 123.58 25.2324 119.745L16.6884 98.0737C15.2337 94.3863 16.1277 90.1998 18.9626 87.4024L22.319 84.0865C25.103 81.3432 29.2476 80.4378 32.9451 81.7727L37.7406 83.5061C38.6816 83.8427 39.5482 84.3186 40.3206 84.8913C41.097 84.3186 41.9636 83.8427 42.9046 83.5061L47.7001 81.7727C51.3977 80.4378 55.5383 81.3432 58.3223 84.0865L61.6826 87.4024C64.5175 90.1998 65.4076 94.3863 63.9568 98.0737Z" fill="#C92E41"/>
<path d="M63.9558 98.0747L55.4118 119.746C53.9022 123.581 50.1576 126.107 45.9895 126.107C43.9544 126.107 41.9861 125.496 40.3196 124.381C38.6571 125.496 36.6887 126.107 34.6537 126.107C30.4856 126.107 26.741 123.581 25.2313 119.746L24.2236 117.2C25.6587 117.425 27.1213 117.548 28.6192 117.548C43.8956 117.548 56.2783 105.326 56.2783 90.2511C56.2783 87.3376 55.8117 84.5324 54.953 81.8975C56.1921 82.3889 57.3449 83.124 58.3212 84.0874L61.6816 87.4034C64.5165 90.2008 65.4066 94.3873 63.9558 98.0747Z" fill="#951E41"/>
<path d="M23.329 96.577C21.7763 95.3156 21.5528 93.0289 22.835 91.5005L25.8817 87.848C27.1599 86.3158 29.4773 86.0991 31.0261 87.3605C32.5788 88.6218 32.8024 90.9047 31.5241 92.4369L28.4774 96.0856C27.1952 97.6178 24.8818 97.8383 23.329 96.577Z" fill="#EC313A"/>
<path d="M40.32 88.4908C39.3672 88.4908 38.5947 87.7286 38.5947 86.7883V76.8638C38.5947 73.691 39.8495 70.7079 42.1237 68.4637L49.1777 61.4991C49.8521 60.8336 50.9461 60.8336 51.6205 61.4991C52.2949 62.1646 52.2949 63.2441 51.6205 63.9097L44.5626 70.8704C42.9432 72.4722 42.0492 74.6003 42.0492 76.8638V86.7883C42.0492 87.7286 41.2767 88.4908 40.32 88.4908Z" fill="#6BA43E"/>
<path d="M40.526 76.5736C40.4122 76.5736 40.2985 76.562 40.1848 76.5388C39.2516 76.3569 38.6438 75.4593 38.8321 74.5384C39.2987 72.2285 40.4358 70.1275 42.1258 68.4637L49.1797 61.4991C49.8542 60.8336 50.9481 60.8336 51.6226 61.4991C52.297 62.1646 52.297 63.2441 51.6226 63.9097L44.5646 70.8704C43.3609 72.0582 42.5492 73.5556 42.2159 75.2039C42.0512 76.0126 41.3298 76.5736 40.526 76.5736Z" fill="#276955"/>
<path d="M23.7656 63.0986L43.4807 70.1484C41.1595 73.4681 38.2971 74.6405 34.9014 73.6693C32.6155 73.0193 30.1374 70.8216 28.1023 68.6045C28.1062 68.6007 28.1062 68.6007 28.1062 68.6007C26.4359 66.7821 24.989 64.9481 23.7656 63.0986Z" fill="#9DBE31"/>
<path d="M29.171 65.0342L43.479 70.1493C41.1577 73.4691 38.2953 74.6415 34.8997 73.6703C32.6137 73.0202 30.1356 70.8225 28.1006 68.6055C28.1045 68.6016 28.1045 68.6016 28.1045 68.6016C28.3084 68.7332 34.7311 72.997 37.6131 69.8823L29.171 65.0342Z" fill="#6BA43E"/>
<path d="M30.6667 61.6209L30.6706 61.6171C33.6702 61.1992 36.9992 61.0793 39.1793 62.0233C42.4181 63.424 43.8493 66.1325 43.4807 70.1487L23.7656 63.099C25.9065 62.4528 28.2043 61.9614 30.6667 61.6209Z" fill="#4A8A4D"/>
<path d="M38.803 66.6471C38.6109 62.4335 30.9099 61.648 30.6668 61.6209L30.6707 61.6171C33.6703 61.1992 36.9993 61.0793 39.1794 62.0233C42.4182 63.424 43.8494 66.1325 43.4808 70.1487L29.1729 65.0336L38.803 66.6471Z" fill="#276955"/>
<path d="M134.001 29.5941V83.3753C134.001 83.7191 133.715 83.9991 133.363 83.9991H89.5948C89.4826 83.9991 89.374 83.9707 89.2799 83.9176C89.2074 83.875 89.1423 83.8183 89.0916 83.751L89.0662 83.7191L84.7437 78.2786L84.7401 78.2715L84.7256 78.2538L84.9356 77.9383L88.9613 72.0264V29.7288C88.9613 29.385 89.2436 29.1086 89.5948 29.1086H125.804L129.436 23.7744L129.49 23.8418L129.493 23.8524L133.686 29.1936C133.827 29.2752 133.932 29.4063 133.975 29.5622L134.001 29.5941Z" fill="#202225"/>
<path d="M133.363 83.9982H89.5948C89.4826 83.9982 89.374 83.9699 89.2799 83.9167C89.2074 83.8742 89.1423 83.8175 89.0916 83.7501L89.0662 83.7182L84.7437 78.2778L84.7401 78.2707L84.7256 78.2529L84.9356 77.9375L128.52 78.4585L133.363 83.9982Z" fill="#202225"/>
<path d="M129.598 24.1918V77.8347C129.598 78.1785 129.312 78.4585 128.961 78.4585H85.1958C84.8446 78.4585 84.5586 78.1785 84.5586 77.8347V24.1918C84.5586 23.8445 84.8446 23.5645 85.1958 23.5645H128.961C129.312 23.5645 129.598 23.8445 129.598 24.1918Z" fill="#202225"/>
<path d="M129.598 24.1882V77.8347C129.598 78.1785 129.312 78.4585 128.961 78.4585H85.1958C84.8446 78.4585 84.5586 78.1785 84.5586 77.8347C84.5586 73.3653 86.061 69.02 88.8341 65.4687L117.821 28.3457C120.175 25.3331 123.827 23.5645 127.701 23.5645H128.961C129.312 23.5645 129.598 23.8445 129.598 24.1882Z" fill="#202225"/>
<path d="M125.316 34.7542V40.0104C125.316 41.4458 124.129 42.6084 122.659 42.6084H92.0245C90.5583 42.6084 89.3672 41.4458 89.3672 40.0104V34.7542C89.3672 33.3188 90.5583 32.1562 92.0245 32.1562H122.659C124.129 32.1562 125.316 33.3188 125.316 34.7542Z" fill="#202225"/>
<path d="M125.314 34.7542V40.0104C125.314 41.4458 124.127 42.6084 122.657 42.6084H106.685L114.845 32.1562H122.657C124.127 32.1562 125.314 33.3188 125.314 34.7542Z" fill="#202225"/>
<path d="M125.316 34.7542V35.3071C125.316 33.8717 124.129 32.7092 122.663 32.7092H92.0245C90.5583 32.7092 89.3672 33.8717 89.3672 35.3071V34.7542C89.3672 33.3188 90.5583 32.1562 92.0245 32.1562H122.663C124.129 32.1562 125.316 33.3188 125.316 34.7542Z" fill="#202225"/>
<path d="M134 83.2304V83.3757C134 83.7195 133.714 83.9995 133.362 83.9995L128.519 78.4597H128.96C129.311 78.4597 129.597 78.1797 129.597 77.8359L134 83.2304Z" fill="#202225"/>
<path d="M93.2907 51.2049H91.5422C90.514 51.2049 89.6777 50.3897 89.6777 49.3796V49.2413C89.6777 48.2347 90.514 47.416 91.5422 47.416H93.2907C94.3189 47.416 95.1552 48.2347 95.1552 49.2413V49.3796C95.1552 50.3897 94.3189 51.2049 93.2907 51.2049Z" fill="#202225"/>
<path d="M92.9802 50.9285H91.2316C90.2035 50.9285 89.3672 50.1133 89.3672 49.1032V48.965C89.3672 47.9584 90.2035 47.1396 91.2316 47.1396H92.9802C94.0083 47.1396 94.8446 47.9584 94.8446 48.965V49.1032C94.8446 50.1133 94.0083 50.9285 92.9802 50.9285Z" fill="#202225"/>
<path d="M100.831 51.2049H99.0822C98.0504 51.2049 97.2178 50.3897 97.2178 49.3796V49.2413C97.2178 48.2347 98.0504 47.416 99.0822 47.416H100.831C101.859 47.416 102.692 48.2347 102.692 49.2413V49.3796C102.692 50.3897 101.859 51.2049 100.831 51.2049Z" fill="#202225"/>
<path d="M100.519 50.9285H98.7707C97.7425 50.9285 96.9062 50.1133 96.9062 49.1032V48.965C96.9062 47.9584 97.7425 47.1396 98.7707 47.1396H100.519C101.547 47.1396 102.384 47.9584 102.384 48.965V49.1032C102.384 50.1133 101.547 50.9285 100.519 50.9285Z" fill="#202225"/>
<path d="M108.373 51.2049H106.624C105.592 51.2049 104.76 50.3897 104.76 49.3796V49.2413C104.76 48.2347 105.592 47.416 106.624 47.416H108.373C109.401 47.416 110.234 48.2347 110.234 49.2413V49.3796C110.234 50.3897 109.401 51.2049 108.373 51.2049Z" fill="#202225"/>
<path d="M108.061 50.9285H106.313C105.285 50.9285 104.448 50.1133 104.448 49.1032V48.965C104.448 47.9584 105.285 47.1396 106.313 47.1396H108.061C109.089 47.1396 109.926 47.9584 109.926 48.965V49.1032C109.926 50.1133 109.089 50.9285 108.061 50.9285Z" fill="#202225"/>
<path d="M115.91 51.2049H114.165C113.133 51.2049 112.301 50.3897 112.301 49.3796V49.2413C112.301 48.2347 113.133 47.416 114.165 47.416H115.91C116.942 47.416 117.775 48.2347 117.775 49.2413V49.3796C117.775 50.3897 116.942 51.2049 115.91 51.2049Z" fill="#202225"/>
<path d="M115.603 50.9285H113.855C112.823 50.9285 111.99 50.1133 111.99 49.1032V48.965C111.99 47.9584 112.823 47.1396 113.855 47.1396H115.603C116.631 47.1396 117.464 47.9584 117.464 48.965V49.1032C117.464 50.1133 116.631 50.9285 115.603 50.9285Z" fill="#202225"/>
<path d="M123.451 51.2049H121.706C120.674 51.2049 119.842 50.3897 119.842 49.3796V49.2413C119.842 48.2347 120.674 47.416 121.706 47.416H123.451C124.483 47.416 125.316 48.2347 125.316 49.2413V49.3796C125.316 50.3897 124.483 51.2049 123.451 51.2049Z" fill="#202225"/>
<path d="M123.144 50.9285H121.396C120.364 50.9285 119.531 50.1133 119.531 49.1032V48.965C119.531 47.9584 120.364 47.1396 121.396 47.1396H123.144C124.172 47.1396 125.005 47.9584 125.005 48.965V49.1032C125.005 50.1133 124.172 50.9285 123.144 50.9285Z" fill="#202225"/>
<path d="M93.2907 59.797H91.5422C90.514 59.797 89.6777 58.9818 89.6777 57.9753V57.8335C89.6777 56.8269 90.514 56.0117 91.5422 56.0117H93.2907C94.3189 56.0117 95.1552 56.8269 95.1552 57.8335V57.9753C95.1552 58.9818 94.3189 59.797 93.2907 59.797Z" fill="#202225"/>
<path d="M92.9802 59.5203H91.2316C90.2035 59.5203 89.3672 58.7051 89.3672 57.695V57.5568C89.3672 56.5502 90.2035 55.7314 91.2316 55.7314H92.9802C94.0083 55.7314 94.8446 56.5502 94.8446 57.5568V57.695C94.8446 58.7051 94.0083 59.5203 92.9802 59.5203Z" fill="#202225"/>
<path d="M100.831 59.797H99.0822C98.0504 59.797 97.2178 58.9818 97.2178 57.9753V57.8335C97.2178 56.8269 98.0504 56.0117 99.0822 56.0117H100.831C101.859 56.0117 102.692 56.8269 102.692 57.8335V57.9753C102.692 58.9818 101.859 59.797 100.831 59.797Z" fill="#202225"/>
<path d="M100.519 59.5203H98.7707C97.7425 59.5203 96.9062 58.7051 96.9062 57.695V57.5568C96.9062 56.5502 97.7425 55.7314 98.7707 55.7314H100.519C101.547 55.7314 102.384 56.5502 102.384 57.5568V57.695C102.384 58.7051 101.547 59.5203 100.519 59.5203Z" fill="#202225"/>
<path d="M108.373 59.797H106.624C105.592 59.797 104.76 58.9818 104.76 57.9753V57.8335C104.76 56.8269 105.592 56.0117 106.624 56.0117H108.373C109.401 56.0117 110.234 56.8269 110.234 57.8335V57.9753C110.234 58.9818 109.401 59.797 108.373 59.797Z" fill="#202225"/>
<path d="M108.061 59.5203H106.313C105.285 59.5203 104.448 58.7051 104.448 57.695V57.5568C104.448 56.5502 105.285 55.7314 106.313 55.7314H108.061C109.089 55.7314 109.926 56.5502 109.926 57.5568V57.695C109.926 58.7051 109.089 59.5203 108.061 59.5203Z" fill="#202225"/>
<path d="M115.909 59.797H114.164C113.132 59.797 112.3 58.9818 112.3 57.9753V57.8335C112.3 56.8269 113.132 56.0117 114.164 56.0117H115.909C116.941 56.0117 117.774 56.8269 117.774 57.8335V57.9753C117.774 58.9818 116.941 59.797 115.909 59.797Z" fill="#202225"/>
<path d="M115.603 59.5203H113.855C112.823 59.5203 111.99 58.7051 111.99 57.695V57.5568C111.99 56.5502 112.823 55.7314 113.855 55.7314H115.603C116.631 55.7314 117.464 56.5502 117.464 57.5568V57.695C117.464 58.7051 116.631 59.5203 115.603 59.5203Z" fill="#202225"/>
<path d="M123.451 59.797H121.706C120.674 59.797 119.842 58.9818 119.842 57.9753V57.8335C119.842 56.8269 120.674 56.0117 121.706 56.0117H123.451C124.483 56.0117 125.316 56.8269 125.316 57.8335V57.9753C125.316 58.9818 124.483 59.797 123.451 59.797Z" fill="#202225"/>
<path d="M123.144 59.5203H121.396C120.364 59.5203 119.531 58.7051 119.531 57.695V57.5568C119.531 56.5502 120.364 55.7314 121.396 55.7314H123.144C124.172 55.7314 125.005 56.5502 125.005 57.5568V57.695C125.005 58.7051 124.172 59.5203 123.144 59.5203Z" fill="#202225"/>
<path d="M102.692 66.6046V67.4304C102.692 68.2491 102.015 68.9119 101.183 68.9119H100.343H98.732H91.191C90.3547 68.9119 89.6777 68.2491 89.6777 67.4304V66.6046C89.6777 65.7858 90.3547 65.123 91.191 65.123H98.732H100.343H101.183C102.015 65.123 102.692 65.7858 102.692 66.6046Z" fill="#202225"/>
<path d="M102.386 66.3272V67.153C102.386 67.9718 101.709 68.6346 100.872 68.6346H99.6487H98.4214H90.8804C90.0442 68.6346 89.3672 67.9718 89.3672 67.153V66.3272C89.3672 65.5085 90.0442 64.8457 90.8804 64.8457H98.4214H99.6487H100.872C101.709 64.8457 102.386 65.5085 102.386 66.3272Z" fill="#202225"/>
<path d="M108.373 68.9109H106.624C105.592 68.9109 104.76 68.0957 104.76 67.0856V66.9474C104.76 65.9408 105.592 65.1221 106.624 65.1221H108.373C109.401 65.1221 110.234 65.9408 110.234 66.9474V67.0856C110.234 68.0957 109.401 68.9109 108.373 68.9109Z" fill="#202225"/>
<path d="M108.062 68.6346H106.314C105.286 68.6346 104.449 67.8194 104.449 66.8092V66.671C104.449 65.6644 105.286 64.8457 106.314 64.8457H108.062C109.09 64.8457 109.927 65.6644 109.927 66.671V66.8092C109.927 67.8194 109.09 68.6346 108.062 68.6346Z" fill="#202225"/>
<path d="M115.911 68.9109H114.166C113.134 68.9109 112.302 68.0957 112.302 67.0856V66.9474C112.302 65.9408 113.134 65.1221 114.166 65.1221H115.911C116.943 65.1221 117.776 65.9408 117.776 66.9474V67.0856C117.776 68.0957 116.943 68.9109 115.911 68.9109Z" fill="#202225"/>
<path d="M115.604 68.6346H113.856C112.824 68.6346 111.991 67.8194 111.991 66.8092V66.671C111.991 65.6644 112.824 64.8457 113.856 64.8457H115.604C116.632 64.8457 117.465 65.6644 117.465 66.671V66.8092C117.465 67.8194 116.632 68.6346 115.604 68.6346Z" fill="#202225"/>
<path d="M123.45 68.9109H121.705C120.673 68.9109 119.841 68.0957 119.841 67.0856V66.9474C119.841 65.9408 120.673 65.1221 121.705 65.1221H123.45C124.482 65.1221 125.315 65.9408 125.315 66.9474V67.0856C125.315 68.0957 124.482 68.9109 123.45 68.9109Z" fill="#202225"/>
<path d="M123.142 68.6346H121.394C120.362 68.6346 119.529 67.8194 119.529 66.8092V66.671C119.529 65.6644 120.362 64.8457 121.394 64.8457H123.142C124.17 64.8457 125.003 65.6644 125.003 66.671V66.8092C125.003 67.8194 124.17 68.6346 123.142 68.6346Z" fill="#202225"/>
<path d="M124.442 26.0248V79.8059C124.442 80.1497 124.156 80.4333 123.805 80.4333H80.0398C79.924 80.4333 79.8154 80.4014 79.7213 80.3482C79.6489 80.3057 79.5837 80.249 79.533 80.1816L79.5077 80.1497L75.1851 74.7092L75.1815 74.7057L75.167 74.6844L75.377 74.3725L79.4027 68.4607V26.163C79.4027 25.8192 79.6887 25.5392 80.0398 25.5392H116.249L119.877 20.2051L119.931 20.276L119.935 20.2831L124.127 25.6278C124.268 25.7058 124.373 25.8405 124.417 25.9929L124.442 26.0248Z" fill="#29489B"/>
<path d="M123.805 80.4338H80.0398C79.924 80.4338 79.8154 80.4019 79.7213 80.3487C79.6489 80.3062 79.5837 80.2495 79.533 80.1821L79.5077 80.1502L75.1851 74.7098L75.1815 74.7062L75.167 74.6849L75.377 74.373L118.961 74.8905L123.805 80.4338Z" fill="#283674"/>
<path d="M120.039 20.6238V74.2667C120.039 74.6105 119.753 74.8905 119.402 74.8905H75.6372C75.286 74.8905 75 74.6105 75 74.2667V20.6238C75 20.28 75.286 20 75.6372 20H119.402C119.753 20 120.039 20.28 120.039 20.6238Z" fill="#59A1F6"/>
<path d="M120.039 20.6203V74.2667C120.039 74.6105 119.753 74.8905 119.402 74.8905H75.6372C75.286 74.8905 75 74.6105 75 74.2667C75 69.7973 76.5024 65.452 79.2755 61.9007L108.263 24.7777C110.616 21.7651 114.269 20 118.142 20H119.402C119.753 20 120.039 20.2765 120.039 20.6203Z" fill="#3162C2"/>
<path d="M115.758 31.1849V36.4411C115.758 37.8765 114.57 39.039 113.104 39.039H82.4659C80.9997 39.039 79.8086 37.8765 79.8086 36.4411V31.1849C79.8086 29.753 80.9997 28.5869 82.4659 28.5869H113.104C114.57 28.5869 115.758 29.753 115.758 31.1849Z" fill="white"/>
<path d="M115.758 31.1849V36.4411C115.758 37.8765 114.57 39.039 113.104 39.039H97.1279L105.292 28.5869H113.104C114.57 28.5869 115.758 29.753 115.758 31.1849Z" fill="#E0DCF5"/>
<path d="M115.758 31.1849V31.7413C115.758 30.3059 114.57 29.1398 113.104 29.1398H82.4659C80.9997 29.1398 79.8086 30.3059 79.8086 31.7413V31.1849C79.8086 29.7494 80.9997 28.5869 82.4659 28.5869H113.104C114.57 28.5869 115.758 29.7494 115.758 31.1849Z" fill="#737194"/>
<path d="M124.442 79.6646V79.8063C124.442 80.1501 124.156 80.4337 123.805 80.4337L118.961 74.8904H119.403C119.754 74.8904 120.04 74.6139 120.04 74.2666L124.442 79.6646Z" fill="#3162C2"/>
<path d="M83.7312 47.6385H81.9826C80.9544 47.6385 80.1182 46.8197 80.1182 45.8131V45.6749C80.1182 44.6648 80.9544 43.8496 81.9826 43.8496H83.7312C84.7593 43.8496 85.5956 44.6648 85.5956 45.6749V45.8131C85.5956 46.8197 84.7593 47.6385 83.7312 47.6385Z" fill="#737194"/>
<path d="M83.4206 47.3605H81.6757C80.6439 47.3605 79.8076 46.5453 79.8076 45.5387V45.4005C79.8076 44.3904 80.6439 43.5752 81.6757 43.5752H83.4206C84.4524 43.5752 85.285 44.3904 85.285 45.4005V45.5387C85.285 46.5453 84.4524 47.3605 83.4206 47.3605Z" fill="white"/>
<path d="M91.2722 47.6385H89.5236C88.4955 47.6385 87.6592 46.8197 87.6592 45.8131V45.6749C87.6592 44.6648 88.4955 43.8496 89.5236 43.8496H91.2722C92.3003 43.8496 93.1366 44.6648 93.1366 45.6749V45.8131C93.1366 46.8197 92.3003 47.6385 91.2722 47.6385Z" fill="#737194"/>
<path d="M90.9609 47.3605H89.2124C88.1842 47.3605 87.3516 46.5453 87.3516 45.5387V45.4005C87.3516 44.3904 88.1842 43.5752 89.2124 43.5752H90.9609C91.9891 43.5752 92.8254 44.3904 92.8254 45.4005V45.5387C92.8254 46.5453 91.9891 47.3605 90.9609 47.3605Z" fill="white"/>
<path d="M98.8152 47.6385H97.0666C96.0348 47.6385 95.2021 46.8197 95.2021 45.8131V45.6749C95.2021 44.6648 96.0348 43.8496 97.0666 43.8496H98.8152C99.8433 43.8496 100.68 44.6648 100.68 45.6749V45.8131C100.68 46.8197 99.8433 47.6385 98.8152 47.6385Z" fill="#737194"/>
<path d="M98.5046 47.3605H96.756C95.7279 47.3605 94.8916 46.5453 94.8916 45.5387V45.4005C94.8916 44.3904 95.7279 43.5752 96.756 43.5752H98.5046C99.5328 43.5752 100.369 44.3904 100.369 45.4005V45.5387C100.369 46.5453 99.5328 47.3605 98.5046 47.3605Z" fill="white"/>
<path d="M106.354 47.6385H104.606C103.577 47.6385 102.741 46.8197 102.741 45.8131V45.6749C102.741 44.6648 103.577 43.8496 104.606 43.8496H106.354C107.382 43.8496 108.215 44.6648 108.215 45.6749V45.8131C108.215 46.8197 107.382 47.6385 106.354 47.6385Z" fill="#737194"/>
<path d="M106.044 47.3605H104.295C103.267 47.3605 102.431 46.5453 102.431 45.5387V45.4005C102.431 44.3904 103.267 43.5752 104.295 43.5752H106.044C107.072 43.5752 107.908 44.3904 107.908 45.4005V45.5387C107.908 46.5453 107.072 47.3605 106.044 47.3605Z" fill="white"/>
<path d="M113.891 47.6385H112.146C111.114 47.6385 110.281 46.8197 110.281 45.8131V45.6749C110.281 44.6648 111.114 43.8496 112.146 43.8496H113.891C114.922 43.8496 115.755 44.6648 115.755 45.6749V45.8131C115.755 46.8197 114.922 47.6385 113.891 47.6385Z" fill="#EA5443"/>
<path d="M113.583 47.3605H111.834C110.802 47.3605 109.97 46.5453 109.97 45.5387V45.4005C109.97 44.3904 110.802 43.5752 111.834 43.5752H113.583C114.611 43.5752 115.447 44.3904 115.447 45.4005V45.5387C115.447 46.5453 114.611 47.3605 113.583 47.3605Z" fill="#FDC853"/>
<path d="M83.7312 56.2342H81.9826C80.9544 56.2342 80.1182 55.4154 80.1182 54.4088V54.2706C80.1182 53.2605 80.9544 52.4453 81.9826 52.4453H83.7312C84.7593 52.4453 85.5956 53.2605 85.5956 54.2706V54.4088C85.5956 55.4154 84.7593 56.2342 83.7312 56.2342Z" fill="#737194"/>
<path d="M83.4206 55.9588H81.6757C80.6439 55.9588 79.8076 55.14 79.8076 54.1335V53.9952C79.8076 52.9851 80.6439 52.1699 81.6757 52.1699H83.4206C84.4524 52.1699 85.285 52.9851 85.285 53.9952V54.1335C85.285 55.14 84.4524 55.9588 83.4206 55.9588Z" fill="white"/>
<path d="M91.2722 56.2342H89.5236C88.4955 56.2342 87.6592 55.4154 87.6592 54.4088V54.2706C87.6592 53.2605 88.4955 52.4453 89.5236 52.4453H91.2722C92.3003 52.4453 93.1366 53.2605 93.1366 54.2706V54.4088C93.1366 55.4154 92.3003 56.2342 91.2722 56.2342Z" fill="#737194"/>
<path d="M90.9609 55.9588H89.2124C88.1842 55.9588 87.3516 55.14 87.3516 54.1335V53.9952C87.3516 52.9851 88.1842 52.1699 89.2124 52.1699H90.9609C91.9891 52.1699 92.8254 52.9851 92.8254 53.9952V54.1335C92.8254 55.14 91.9891 55.9588 90.9609 55.9588Z" fill="white"/>
<path d="M98.8152 56.2342H97.0666C96.0348 56.2342 95.2021 55.4154 95.2021 54.4088V54.2706C95.2021 53.2605 96.0348 52.4453 97.0666 52.4453H98.8152C99.8433 52.4453 100.68 53.2605 100.68 54.2706V54.4088C100.68 55.4154 99.8433 56.2342 98.8152 56.2342Z" fill="#737194"/>
<path d="M98.5046 55.9588H96.756C95.7279 55.9588 94.8916 55.14 94.8916 54.1335V53.9952C94.8916 52.9851 95.7279 52.1699 96.756 52.1699H98.5046C99.5328 52.1699 100.369 52.9851 100.369 53.9952V54.1335C100.369 55.14 99.5328 55.9588 98.5046 55.9588Z" fill="white"/>
<path d="M106.354 56.2342H104.606C103.577 56.2342 102.741 55.4154 102.741 54.4088V54.2706C102.741 53.2605 103.577 52.4453 104.606 52.4453H106.354C107.382 52.4453 108.215 53.2605 108.215 54.2706V54.4088C108.215 55.4154 107.382 56.2342 106.354 56.2342Z" fill="#737194"/>
<path d="M106.044 55.9588H104.295C103.267 55.9588 102.431 55.14 102.431 54.1335V53.9952C102.431 52.9851 103.267 52.1699 104.295 52.1699H106.044C107.072 52.1699 107.908 52.9851 107.908 53.9952V54.1335C107.908 55.14 107.072 55.9588 106.044 55.9588Z" fill="white"/>
<path d="M113.891 56.2342H112.146C111.114 56.2342 110.281 55.4154 110.281 54.4088V54.2706C110.281 53.2605 111.114 52.4453 112.146 52.4453H113.891C114.922 52.4453 115.755 53.2605 115.755 54.2706V54.4088C115.755 55.4154 114.922 56.2342 113.891 56.2342Z" fill="#737194"/>
<path d="M113.583 55.9588H111.834C110.802 55.9588 109.97 55.14 109.97 54.1335V53.9952C109.97 52.9851 110.802 52.1699 111.834 52.1699H113.583C114.611 52.1699 115.447 52.9851 115.447 53.9952V54.1335C115.447 55.14 114.611 55.9588 113.583 55.9588Z" fill="white"/>
<path d="M93.1365 63.0356V63.865C93.1365 64.6837 92.4559 65.3465 91.6233 65.3465H90.7834H89.1724H81.6314C80.7951 65.3465 80.1182 64.6837 80.1182 63.865V63.0356C80.1182 62.2204 80.7951 61.5576 81.6314 61.5576H89.1724H90.7834H91.6233C92.4559 61.5576 93.1365 62.2204 93.1365 63.0356Z" fill="#737194"/>
<path d="M92.826 62.7582V63.5876C92.826 64.4028 92.149 65.0656 91.3127 65.0656H90.0891H88.8618H81.3209C80.4882 65.0656 79.8076 64.4028 79.8076 63.5876V62.7582C79.8076 61.9431 80.4882 61.2803 81.3209 61.2803H88.8618H90.0891H91.3127C92.149 61.2803 92.826 61.9431 92.826 62.7582Z" fill="white"/>
<path d="M98.8142 65.3455H97.0656C96.0338 65.3455 95.2012 64.5268 95.2012 63.5202V63.382C95.2012 62.3718 96.0338 61.5566 97.0656 61.5566H98.8142C99.8423 61.5566 100.679 62.3718 100.679 63.382V63.5202C100.679 64.5268 99.8423 65.3455 98.8142 65.3455Z" fill="#737194"/>
<path d="M98.5027 65.0656H96.7541C95.7259 65.0656 94.8896 64.2504 94.8896 63.2403V63.1056C94.8896 62.0955 95.7259 61.2803 96.7541 61.2803H98.5027C99.5308 61.2803 100.367 62.0955 100.367 63.1056V63.2403C100.367 64.2504 99.5308 65.0656 98.5027 65.0656Z" fill="white"/>
<path d="M106.353 65.3455H104.605C103.577 65.3455 102.74 64.5268 102.74 63.5202V63.382C102.74 62.3718 103.577 61.5566 104.605 61.5566H106.353C107.381 61.5566 108.214 62.3718 108.214 63.382V63.5202C108.214 64.5268 107.381 65.3455 106.353 65.3455Z" fill="#737194"/>
<path d="M106.043 65.0656H104.294C103.266 65.0656 102.43 64.2504 102.43 63.2403V63.1056C102.43 62.0955 103.266 61.2803 104.294 61.2803H106.043C107.071 61.2803 107.907 62.0955 107.907 63.1056V63.2403C107.907 64.2504 107.071 65.0656 106.043 65.0656Z" fill="white"/>
<path d="M113.891 65.3455H112.146C111.114 65.3455 110.281 64.5268 110.281 63.5202V63.382C110.281 62.3718 111.114 61.5566 112.146 61.5566H113.891C114.922 61.5566 115.755 62.3718 115.755 63.382V63.5202C115.755 64.5268 114.922 65.3455 113.891 65.3455Z" fill="#737194"/>
<path d="M113.583 65.0656H111.834C110.802 65.0656 109.97 64.2504 109.97 63.2403V63.1056C109.97 62.0955 110.802 61.2803 111.834 61.2803H113.583C114.611 61.2803 115.447 62.0955 115.447 63.1056V63.2403C115.447 64.2504 114.611 65.0656 113.583 65.0656Z" fill="white"/>
</svg>
