<svg width="150" height="150" viewBox="0 0 150 150" fill="none" xmlns="http://www.w3.org/2000/svg">
<rect width="150" height="150" fill="#EB459F"/>
<path fill-rule="evenodd" clip-rule="evenodd" d="M69.2007 46.6561L61.1144 48.6062C55.2885 50.0143 49.4116 46.374 48.0189 40.494L45.044 27.9393C43.6489 22.0593 47.2557 16.1303 53.0841 14.7222L61.1679 12.7696C66.9962 11.364 72.8708 15.0019 74.2659 20.8843L77.2408 33.4366C78.6335 39.319 75.0266 45.248 69.2007 46.6561ZM53.7962 17.7321C49.6133 18.7403 47.0224 22.9989 48.0238 27.2205L50.9987 39.7728C52.0001 43.9969 56.217 46.6094 60.4023 45.5988L68.4886 43.6462C72.6714 42.638 75.2599 38.3794 74.261 34.1577L71.2836 21.6055C70.2847 17.3814 66.0654 14.7689 61.8825 15.7795L53.7962 17.7321Z" fill="#202225"/>
<path d="M103.929 114.015L60.3481 124.536C47.9209 127.536 35.4379 119.802 32.4654 107.262L32.0571 105.537C29.0846 92.9946 36.7479 80.3958 49.1751 77.3981L92.7563 66.8745C105.181 63.8745 117.664 71.6089 120.637 84.1514L121.045 85.8734C124.017 98.4159 116.356 111.012 103.929 114.015Z" fill="#202225"/>
<path d="M120.604 84.0215L123.672 96.9589C125.193 103.378 121.27 109.825 114.91 111.363L49.3665 127.188C43.0035 128.723 36.6137 124.764 35.0922 118.345L32.0273 105.407C33.5488 111.827 39.9386 115.788 46.2992 114.25L111.845 98.4258C118.205 96.8902 122.128 90.4411 120.604 84.0215Z" fill="#202225"/>
<path d="M77.3766 94.3113L75.1916 94.8387C59.2889 98.6777 43.3132 88.7797 39.5095 72.7318L36.7897 61.254C32.986 45.2037 42.7931 29.0798 58.6958 25.2408L60.8808 24.7134C76.7836 20.8743 92.7568 30.7724 96.5605 46.8202L99.2827 58.2981C103.086 74.3484 93.2794 90.4723 77.3766 94.3113Z" fill="#202225"/>
<path d="M111.269 127.235L59.7307 139.68C53.5913 141.161 47.4251 137.34 45.9571 131.146L35.6275 87.5623C34.157 81.3659 37.9437 75.1425 44.0807 73.6608L95.6219 61.2165C101.759 59.7349 107.925 63.5543 109.393 69.7507L119.725 113.336C121.193 119.53 117.409 125.754 111.269 127.235Z" fill="#202225"/>
<path d="M108.169 64.5809L109.561 70.4535C108.001 63.8695 101.451 59.8122 94.9272 61.387L44.7763 73.4953C38.2552 75.0701 34.2328 81.6811 35.7932 88.2627L34.4005 82.39C32.8401 75.8085 36.8626 69.1951 43.386 67.6202L93.5345 55.512C100.058 53.9371 106.608 57.9969 108.169 64.5809Z" fill="#202225"/>
<path d="M114.559 91.5439L118.166 106.76C119.726 113.342 115.704 119.955 109.18 121.53L59.0319 133.638C52.5109 135.213 45.9582 131.153 44.3979 124.572L40.791 109.353C42.3514 115.937 48.904 119.994 55.425 118.42L105.573 106.311C112.097 104.736 116.119 98.1255 114.559 91.5439Z" fill="#202225"/>
<path d="M79.1287 50.3859L53.9318 56.4694C48.8131 57.7058 43.6702 54.5193 42.4452 49.3507L42.2775 48.6417C41.0525 43.4732 44.2098 38.2825 49.3284 37.0486L74.5254 30.9626C79.644 29.7287 84.7869 32.9152 86.0119 38.0814L86.182 38.7927C87.407 43.9589 84.2473 49.1495 79.1287 50.3859Z" fill="#202225"/>
<path d="M77.9635 30.1329C80.5058 29.5197 83.0554 30.6407 84.397 32.7381C84.1418 35.223 82.37 37.389 79.8277 38.0023L47.7548 45.7465C45.2125 46.3598 42.6605 45.2388 41.3213 43.139C41.5741 40.6565 43.3459 38.4904 45.8882 37.8772L77.9635 30.1329Z" fill="#202225"/>
<path d="M64.8347 123.307L64.0716 123.491C58.5276 124.828 52.9569 121.379 51.6298 115.781L50.157 109.563C48.8299 103.967 52.2496 98.3451 57.7936 97.0057L58.5568 96.8217C64.1007 95.4824 69.6714 98.9338 70.996 104.529L72.4714 110.75C73.7984 116.346 70.3787 121.968 64.8347 123.307Z" fill="#202225"/>
<path d="M51.1999 101.826L66.5996 98.1095C68.1016 97.7465 69.611 98.6811 69.9707 100.197L70.9234 104.22C71.6186 107.147 69.8297 110.085 66.9326 110.784L56.5859 113.282C53.6888 113.983 50.777 112.178 50.0819 109.251L49.1292 105.231C48.7694 103.712 49.6979 102.189 51.1999 101.826Z" fill="#202225"/>
<path d="M50.3857 98.3946L65.7853 94.6758C67.2874 94.3127 68.7967 95.2498 69.1564 96.7658L70.1116 100.786C70.8043 103.713 69.0155 106.652 66.1183 107.351L55.7717 109.848C52.8745 110.549 49.9628 108.744 49.2701 105.82L48.3149 101.797C47.9576 100.281 48.8837 98.7576 50.3857 98.3946Z" fill="#202225"/>
<path d="M61.8237 112.019L61.6949 112.051C60.7641 112.274 59.8283 111.695 59.6071 110.756L58.7856 107.289C58.562 106.35 59.1356 105.408 60.0689 105.182L60.1953 105.15C61.1262 104.927 62.0619 105.506 62.2831 106.446L63.1046 109.909C63.3282 110.849 62.7546 111.793 61.8237 112.019Z" fill="#202225"/>
<path d="M100.139 114.782L99.3758 114.966C93.8318 116.305 88.2611 112.854 86.9341 107.256L85.4588 101.037C84.1342 95.4421 87.5539 89.8197 93.0978 88.4803L93.861 88.2963C99.405 86.957 104.976 90.4084 106.3 96.0038L107.776 102.225C109.103 107.82 105.683 113.443 100.139 114.782Z" fill="#202225"/>
<path d="M86.5038 93.3005L101.901 89.5841C103.405 89.2211 104.915 90.1557 105.275 91.6717L106.227 95.6946C106.92 98.6211 105.134 101.56 102.236 102.259L91.8898 104.756C88.9902 105.458 86.0784 103.652 85.3858 100.726L84.433 96.7053C84.0733 95.1869 84.9993 93.6635 86.5038 93.3005Z" fill="#202225"/>
<path d="M85.6892 89.8682L101.089 86.1494C102.591 85.7864 104.1 86.7234 104.46 88.2394L105.413 92.2624C106.108 95.1864 104.319 98.1252 101.422 98.8243L91.0776 101.322C88.178 102.023 85.2663 100.218 84.5712 97.2936L83.6184 93.2706C83.2587 91.7546 84.1872 90.2313 85.6892 89.8682Z" fill="#202225"/>
<path d="M97.1265 103.493L96.9977 103.524C96.0668 103.748 95.1311 103.169 94.9099 102.229L94.0884 98.7631C93.8648 97.8236 94.4384 96.8816 95.3692 96.6559L95.4981 96.624C96.4289 96.4008 97.3647 96.9797 97.5859 97.9192L98.4074 101.383C98.631 102.322 98.0549 103.267 97.1265 103.493Z" fill="#202225"/>
<path d="M80.9563 44.9656L49.8751 52.472C49.1897 52.6363 48.5043 52.2119 48.3414 51.5226L48.3171 51.4269C48.1543 50.7376 48.5772 50.0459 49.2601 49.8791L80.3414 42.3752C81.0243 42.2108 81.7097 42.6352 81.875 43.3245L81.8969 43.4202C82.0597 44.1095 81.6392 44.8013 80.9563 44.9656Z" fill="#202225"/>
<path fill-rule="evenodd" clip-rule="evenodd" d="M54.3981 61.2026L53.2679 61.4748C52.2471 61.7226 51.2482 60.9965 51.1534 59.9417L50.3926 51.4002C50.3708 51.1622 50.5287 50.9439 50.7596 50.8875L51.8898 50.6152C52.1207 50.5588 52.3565 50.6814 52.4464 50.9047L55.5963 58.8697C55.9852 59.8509 55.4213 60.9573 54.3981 61.2026ZM54.4613 58.909C54.3106 58.2761 53.6811 57.8836 53.0516 58.0357C52.4221 58.1878 52.0357 58.8256 52.1864 59.4584C52.3346 60.0938 52.9665 60.4863 53.596 60.3342C54.2255 60.1821 54.612 59.5443 54.4613 58.909Z" fill="#202225"/>
<path fill-rule="evenodd" clip-rule="evenodd" d="M62.7837 44.1866L54.6974 46.1393C48.8715 47.5448 42.9946 43.9045 41.6019 38.0245L38.627 25.4723C37.2319 19.5899 40.8388 13.6609 46.6671 12.2553L54.7534 10.3026C60.5793 8.89458 66.4538 12.5349 67.8489 18.4173L70.8238 30.9696C72.2165 36.8495 68.6096 42.7786 62.7837 44.1866ZM47.3792 15.2627C43.1963 16.2734 40.6054 20.5294 41.6068 24.7511L44.5817 37.3058C45.5831 41.5275 49.8024 44.14 53.9853 43.1318L62.0716 41.1792C66.2545 40.1685 68.8454 35.91 67.844 31.6883L64.8691 19.1361C63.8677 14.9144 59.6484 12.2994 55.4655 13.3101L47.3792 15.2627Z" fill="#393954"/>
<path d="M97.5123 111.545L53.9311 122.066C41.504 125.066 29.0209 117.332 26.0484 104.792L25.6401 103.067C22.6676 90.5273 30.331 77.9285 42.7581 74.9284L86.3393 64.4048C98.764 61.4047 111.247 69.1392 114.22 81.6816L114.628 83.4061C117.6 95.9461 109.939 108.545 97.5123 111.545Z" fill="#3E4FBA"/>
<path d="M114.191 81.5518L117.256 94.4891C118.777 100.909 114.854 107.358 108.494 108.893L42.9505 124.718C36.5899 126.254 30.1977 122.294 28.6762 115.875L25.6113 102.94C27.1328 109.36 33.5226 113.319 39.8832 111.783L105.429 95.9585C111.789 94.4205 115.712 87.9714 114.191 81.5518Z" fill="#393954"/>
<path d="M70.9587 91.8415L68.7736 92.369C52.8709 96.2104 36.8977 86.3124 33.0915 70.2621L30.3718 58.7843C26.5681 42.7339 36.3751 26.6101 52.2778 22.771L54.4629 22.2436C70.3656 18.4046 86.3388 28.3027 90.145 44.353L92.8647 55.8308C96.6685 71.8786 86.8614 88.0025 70.9587 91.8415Z" fill="#3377EF"/>
<path d="M104.854 124.767L53.3129 137.211C47.1759 138.693 41.0073 134.873 39.5393 128.679L29.2097 85.0934C27.7417 78.897 31.526 72.6761 37.663 71.192L89.2041 58.7476C95.3435 57.266 101.507 61.0879 102.978 67.2818L113.307 110.868C114.775 117.062 110.991 123.285 104.854 124.767Z" fill="#4FA2FB"/>
<path d="M101.751 62.1114L103.143 67.984C101.583 61.4 95.0327 57.3427 88.5093 58.9175L38.3608 71.0258C31.8374 72.6006 27.8149 79.2116 29.3753 85.7931L27.9826 79.9205C26.4246 73.339 30.4471 66.728 36.9681 65.1532L87.1166 53.0425C93.64 51.4701 100.193 55.5274 101.751 62.1114Z" fill="#91D4FF"/>
<path d="M108.142 89.0752L111.749 104.294C113.309 110.875 109.287 117.489 102.766 119.061L52.6149 131.17C46.0939 132.744 39.5413 128.685 37.9809 122.103L34.374 106.887C35.9344 113.468 42.487 117.528 49.0081 115.953L99.1589 103.845C105.68 102.27 109.702 95.6567 108.142 89.0752Z" fill="#3377EF"/>
<path d="M72.7127 47.9171L47.5182 54.0006C42.3971 55.237 37.2542 52.048 36.0292 46.8819L35.8615 46.1705C34.6365 41.0044 37.7937 35.8137 42.9124 34.5774L68.1093 28.4938C73.228 27.2575 78.3709 30.444 79.5959 35.6126L79.766 36.3215C80.991 41.4901 77.8338 46.6807 72.7127 47.9171Z" fill="#4FA2FB"/>
<path d="M71.5465 27.6632C74.0888 27.0499 76.6408 28.171 77.98 30.2708C77.7248 32.7533 75.953 34.9193 73.4107 35.5325L41.3378 43.2768C38.7955 43.8926 36.2435 42.7691 34.9043 40.6717C35.1571 38.1868 36.9289 36.0232 39.4736 35.4075L71.5465 27.6632Z" fill="#3E4FBA"/>
<path d="M58.4168 120.837L57.6536 121.021C52.1096 122.36 46.5389 118.909 45.2119 113.311L43.739 107.092C42.4119 101.497 45.8316 95.8744 51.3756 94.5351L52.1388 94.3511C57.6828 93.0142 63.2535 96.4656 64.5805 102.061L66.0534 108.279C67.3804 113.877 63.9607 119.497 58.4168 120.837Z" fill="#91D4FF"/>
<path d="M44.7839 99.3576L60.1836 95.6388C61.6856 95.2758 63.1949 96.2104 63.5547 97.7288L64.5098 101.749C65.2025 104.676 63.4161 107.615 60.5165 108.314L50.1699 110.813C47.2728 111.512 44.361 109.707 43.6683 106.783L42.7131 102.76C42.3534 101.244 43.2819 99.7207 44.7839 99.3576Z" fill="#3377EF"/>
<path d="M43.9682 95.9231L59.3678 92.2043C60.8698 91.8437 62.3816 92.7783 62.7413 94.2943L63.6941 98.3173C64.3868 101.241 62.6004 104.18 59.7008 104.882L49.3566 107.379C46.457 108.078 43.5453 106.275 42.8526 103.349L41.8998 99.328C41.5401 97.8095 42.4661 96.2862 43.9682 95.9231Z" fill="#91D4FF"/>
<path d="M55.4076 109.549L55.2788 109.581C54.3479 109.804 53.4121 109.225 53.191 108.285L52.3695 104.819C52.1459 103.882 52.7219 102.938 53.6528 102.712L53.7792 102.683C54.71 102.457 55.6458 103.036 55.8694 103.975L56.6909 107.441C56.9121 108.381 56.3385 109.325 55.4076 109.549Z" fill="#393954"/>
<path d="M93.723 112.311L92.9598 112.495C87.4158 113.835 81.8451 110.383 80.5181 104.788L79.0428 98.5668C77.7181 92.9714 81.1379 87.349 86.6818 86.0097L87.445 85.8257C92.9889 84.4888 98.5597 87.9402 99.8843 93.5356L101.36 99.7541C102.687 105.352 99.2669 110.972 93.723 112.311Z" fill="#91D4FF"/>
<path d="M80.0886 90.8332L95.4882 87.1144C96.9903 86.7513 98.4996 87.686 98.8593 89.2044L99.8121 93.2249C100.505 96.1514 98.7184 99.0902 95.8212 99.7893L85.4746 102.289C82.5774 102.988 79.6633 101.183 78.9706 98.2586L78.0178 94.2356C77.6581 92.7196 78.5866 91.1963 80.0886 90.8332Z" fill="#3377EF"/>
<path d="M79.2732 87.3982L94.6728 83.6818C96.1749 83.3187 97.6842 84.2533 98.0439 85.7693L98.9991 89.7923C99.6918 92.7188 97.903 95.6576 95.0058 96.3567L84.6616 98.8539C81.762 99.553 78.8503 97.75 78.1576 94.8235L77.2024 90.803C76.8427 89.2846 77.7711 87.7612 79.2732 87.3982Z" fill="#91D4FF"/>
<path d="M90.7114 101.022L90.5826 101.054C89.6518 101.277 88.7184 100.698 88.4948 99.7588L87.6733 96.2927C87.4497 95.3556 88.0233 94.4112 88.9566 94.1855L89.083 94.1561C90.0139 93.9304 90.9496 94.5117 91.1708 95.4488L91.9923 98.915C92.2159 99.8545 91.6423 100.799 90.7114 101.022Z" fill="#393954"/>
<path d="M74.5397 42.4993L43.4585 50.0032C42.7755 50.1676 42.0877 49.7432 41.9249 49.0539L41.903 48.9582C41.7377 48.2689 42.1606 47.5771 42.8436 47.4128L73.9248 39.9064C74.6078 39.7421 75.2932 40.1665 75.4584 40.8558L75.4803 40.9514C75.6431 41.6407 75.2227 42.3325 74.5397 42.4993Z" fill="#91D4FF"/>
<path fill-rule="evenodd" clip-rule="evenodd" d="M47.9801 58.7351L46.8524 59.0074C45.8316 59.2527 44.8302 58.5266 44.7354 57.4718L43.9747 48.9327C43.9528 48.6923 44.1108 48.474 44.3417 48.4176L45.4719 48.1453C45.7028 48.0889 45.941 48.214 46.0284 48.4372L49.1784 56.3998C49.5697 57.3835 49.0034 58.4874 47.9801 58.7351ZM48.0433 56.4415C47.8926 55.8062 47.2631 55.4162 46.6336 55.5682C46.0041 55.7179 45.6177 56.3557 45.7684 56.991C45.9166 57.6239 46.5486 58.0164 47.1781 57.8643C47.8076 57.7122 48.194 57.0744 48.0433 56.4415Z" fill="#393954"/>
</svg>
