<svg width="150" height="150" viewBox="0 0 150 150" fill="none" xmlns="http://www.w3.org/2000/svg">
<rect width="150" height="150" fill="#404EED"/>
<path d="M78.4027 41.8564V74.4804C78.4027 75.9623 77.1927 77.1684 75.7059 77.1684H74.0098C71.9872 76.9385 70.4152 75.2302 70.4152 73.1541C70.4152 71.0744 71.9872 69.3661 74.0098 69.1397V47.2784C74.0098 46.3765 73.2753 45.6444 72.3704 45.6444H69.4678V41.8564H74.0098H78.1295H78.4027Z" fill="#202225"/>
<path d="M65.1095 127.32C65.2479 127.32 65.3508 127.451 65.3118 127.586L63.7718 133.446C63.5412 134.316 62.2992 134.316 62.0721 133.446L60.5285 127.586C60.4931 127.451 60.5959 127.32 60.7343 127.32H62.9202H65.1095Z" fill="#202225"/>
<path d="M67.5998 116.509L66.3898 126.309C66.2833 127.151 65.5665 127.784 64.7149 127.784H63.143H62.6781H61.1026C60.251 127.784 59.5342 127.151 59.4278 126.309L58.2178 116.509H62.6781H63.143H67.5998Z" fill="#202225"/>
<path d="M67.5998 116.509L66.3898 126.309C66.2833 127.151 65.5665 127.784 64.7149 127.784H63.143H62.6781H61.1026C60.3042 127.784 59.6194 127.225 59.4526 126.458H60.8613H61.3262H62.9017C63.7533 126.458 64.4701 126.034 64.573 125.468L65.0059 118.896H61.3262H60.8613H58.5123L58.2178 116.509H62.6781H63.143H67.5998Z" fill="#202225"/>
<path d="M58.5123 118.896L58.2178 116.509H67.5998L67.3053 118.896H58.5123Z" fill="#202225"/>
<path d="M67.2989 21.2434V28.4267C67.2989 30.4569 65.6453 32.1051 63.605 32.1051H62.2388C60.1985 32.1051 58.5449 30.4569 58.5449 28.4267V21.2434C58.5449 19.2097 60.1985 17.5615 62.2388 17.5615H63.605C65.6453 17.5615 67.2989 19.2097 67.2989 21.2434Z" fill="#202225"/>
<path d="M67.2989 21.2421V28.4255C67.2989 30.4556 65.6453 32.1038 63.605 32.1038H62.2388C60.1985 32.1038 58.5449 30.4556 58.5449 28.4255V24.9982C59.0169 25.2175 59.542 25.3413 60.0956 25.3413H61.4653C63.5057 25.3413 65.1592 23.6931 65.1592 21.6595V17.9033C66.4224 18.4869 67.2989 19.7637 67.2989 21.2421Z" fill="#202225"/>
<path d="M63.1589 117.295H62.6834C59.2166 117.295 56.4062 114.49 56.4062 111.035V33.0259C56.4062 29.5668 59.2166 26.7656 62.6834 26.7656H63.1589C66.6292 26.7656 69.4396 29.5668 69.4396 33.0259V111.035C69.4396 114.49 66.6292 117.295 63.1589 117.295Z" fill="#202225"/>
<path d="M57.5508 111.468V29.5264C57.5508 28.667 58.2747 27.9809 59.144 28.0374C59.9424 28.087 60.5456 28.7802 60.5456 29.576V108.48C60.5456 110.131 59.2043 111.468 57.5508 111.468Z" fill="#202225"/>
<path d="M69.4396 29.3758V114.688C69.4396 116.128 68.2686 117.295 66.8244 117.295H59.0214C57.5772 117.295 56.4062 116.128 56.4062 114.688V114.257C62.0128 114.094 66.5122 109.514 66.5122 103.88V26.7656H66.8244C68.2686 26.7656 69.4396 27.9328 69.4396 29.3758Z" fill="#202225"/>
<path d="M65.7776 48.2208H60.0043C57.4459 48.2208 55.3701 46.1518 55.3701 43.6017V43.248C55.3701 40.698 57.4459 38.6289 60.0043 38.6289H65.7776C68.3396 38.6289 70.4155 40.698 70.4155 43.248V43.6017C70.4155 46.1518 68.3396 48.2208 65.7776 48.2208Z" fill="#202225"/>
<path d="M63.6273 38.6289V39.7748C63.6273 40.6272 62.9318 41.3204 62.0731 41.3204H55.3701V40.178C55.3701 39.3221 56.0656 38.6289 56.9243 38.6289H63.6273Z" fill="#202225"/>
<path d="M70.4155 40.178V46.6717C70.4155 47.5276 69.72 48.2208 68.8612 48.2208H56.9243C56.0656 48.2208 55.3701 47.5276 55.3701 46.6717V45.2994H64.8693C65.728 45.2994 66.4235 44.6062 66.4235 43.7503V38.6289H68.8612C69.72 38.6289 70.4155 39.3221 70.4155 40.178Z" fill="#202225"/>
<path d="M62.9202 17.5615V18.9869C62.9202 20.6598 61.5611 22.0144 59.8827 22.0144C59.4001 22.0144 58.9459 21.9048 58.5449 21.7067V21.2434C58.5449 19.2097 60.1985 17.5615 62.2388 17.5615H62.9202Z" fill="#202225"/>
<path d="M104.579 48.3428L105.001 79.6262C105.019 81.0516 103.876 82.2188 102.446 82.24L100.821 82.2612C98.8798 82.0667 97.3504 80.4468 97.322 78.4555C97.2972 76.4643 98.7805 74.8055 100.718 74.5615L100.438 53.595C100.427 52.732 99.7137 52.0388 98.8443 52.0529L96.0624 52.0883L96.0127 48.456L100.367 48.3994L104.32 48.3463L104.579 48.3428Z" fill="#202225"/>
<path d="M92.9288 130.473C93.0636 130.469 93.163 130.593 93.1311 130.724L91.7259 136.362C91.5165 137.2 90.3278 137.217 90.0971 136.383L88.5394 130.784C88.5074 130.657 88.6033 130.529 88.7346 130.529L90.8317 130.501L92.9288 130.473Z" fill="#202225"/>
<path d="M95.1834 120.069L94.1473 129.484C94.0585 130.294 93.3772 130.91 92.5611 130.92L91.053 130.942L90.6059 130.945L89.0979 130.966C88.2817 130.977 87.5827 130.379 87.4727 129.569L86.1846 120.19L90.4604 120.133L90.9075 120.126L95.1834 120.069Z" fill="#202225"/>
<path d="M95.1834 120.069L94.1473 129.484C94.0585 130.294 93.3772 130.91 92.5611 130.92L91.053 130.942L90.6059 130.945L89.0979 130.966C88.3314 130.977 87.6678 130.446 87.4975 129.714L88.8494 129.697L89.293 129.69L90.8046 129.672C91.6208 129.661 92.3021 129.244 92.3979 128.699L92.7243 122.393L89.1972 122.439L88.7536 122.443L86.5004 122.474L86.1846 120.19L90.4604 120.133L90.9075 120.126L95.1834 120.069Z" fill="#202225"/>
<path d="M86.5004 122.474L86.1846 120.19L95.1834 120.069L94.9314 122.365L86.5004 122.474Z" fill="#202225"/>
<path d="M93.6659 28.7175L93.7581 35.6037C93.7865 37.5561 92.2216 39.1547 90.2629 39.183L88.9535 39.2007C86.9984 39.2255 85.3909 37.6657 85.3625 35.7169L85.2738 28.8307C85.2454 26.8783 86.8103 25.2761 88.7655 25.2514L90.0784 25.2337C92.0335 25.2089 93.641 26.7687 93.6659 28.7175Z" fill="#202225"/>
<path d="M93.6662 28.7171L93.7584 35.6033C93.7868 37.5521 92.222 39.1543 90.2668 39.1826L88.9539 39.2003C86.9987 39.2251 85.3913 37.6653 85.3629 35.7165L85.3203 32.4308C85.7745 32.6324 86.2819 32.7456 86.8142 32.7385L88.1271 32.7208C90.0823 32.6961 91.6472 31.0939 91.6223 29.1415L91.5726 25.541C92.7933 26.0857 93.6485 27.2988 93.6662 28.7171Z" fill="#202225"/>
<path d="M90.9323 120.884L90.4746 120.891C87.1497 120.933 84.4209 118.284 84.3748 114.966L83.3706 40.1549C83.328 36.8409 85.9894 34.1175 89.3142 34.0751L89.772 34.068C93.0968 34.022 95.8291 36.6746 95.8753 39.9887L96.8759 114.8C96.9185 118.114 94.2572 120.838 90.9323 120.884Z" fill="#202225"/>
<path d="M85.4763 115.362L84.426 36.784C84.4118 35.96 85.1002 35.2915 85.9376 35.3339C86.7005 35.3729 87.2896 36.0307 87.2967 36.7946L88.308 112.462C88.3328 114.043 87.0625 115.341 85.4763 115.362Z" fill="#202225"/>
<path d="M95.8248 36.487L96.9213 118.301C96.939 119.684 95.8319 120.816 94.4445 120.834L86.9644 120.936C85.577 120.954 84.4379 119.851 84.4202 118.468L84.4131 118.057C89.7925 117.827 94.0471 113.375 93.9761 107.977L92.9861 34.0253L93.2841 34.0218C94.668 34.0006 95.8071 35.1076 95.8248 36.487Z" fill="#202225"/>
<path d="M92.5558 54.6054L87.0202 54.6797C84.5647 54.715 82.5456 52.7556 82.5137 50.3081L82.5101 49.9721C82.4782 47.5246 84.4405 45.5157 86.896 45.4838L92.4351 45.4096C94.887 45.3777 96.9061 47.3336 96.9381 49.7811L96.9416 50.1171C96.9771 52.5646 95.0113 54.5735 92.5558 54.6054Z" fill="#202225"/>
<path d="M90.3716 45.4365L90.3858 46.5329C90.3964 47.3535 89.7364 48.0255 88.9167 48.0361L82.487 48.1245L82.4728 47.0246C82.4621 46.204 83.1186 45.532 83.9418 45.5214L90.3716 45.4365Z" fill="#202225"/>
<path d="M96.9012 46.8325L96.9863 53.0609C96.997 53.8815 96.337 54.5535 95.5137 54.5641L84.0665 54.7162C83.2433 54.7303 82.5655 54.0725 82.5549 53.2519L82.5371 51.9362L91.6495 51.816C92.4692 51.8054 93.1292 51.1298 93.115 50.3128L93.0511 45.3966L95.3931 45.3683C96.2128 45.3577 96.8905 46.012 96.9012 46.8325Z" fill="#202225"/>
<path d="M89.4219 25.2412L89.4397 26.6064C89.461 28.2122 88.1729 29.5314 86.5654 29.5526C86.1042 29.5597 85.6677 29.4571 85.2774 29.2732L85.2738 28.8311C85.2454 26.8788 86.8103 25.2766 88.7655 25.2518L89.4219 25.2412Z" fill="#202225"/>
<path d="M69.0326 38.2949V70.9188C69.0326 72.4043 67.8262 73.6068 66.3358 73.6068H64.6397C62.6171 73.3805 61.0451 71.6687 61.0451 69.5925C61.0451 67.5164 62.6171 65.8045 64.6397 65.5782V43.7169C64.6397 42.815 63.9051 42.0829 63.0003 42.0829H60.0977V38.2949H64.6397H68.7594H69.0326Z" fill="#393954"/>
<path d="M55.7424 123.758C55.8808 123.758 55.9837 123.889 55.9482 124.023L54.4046 129.884C54.174 130.754 52.9356 130.754 52.7049 129.884L51.1614 124.023C51.1259 123.889 51.2288 123.758 51.3671 123.758H53.5565H55.7424Z" fill="#30262D"/>
<path d="M58.2306 112.948L57.0207 122.749C56.9178 123.591 56.1974 124.227 55.3458 124.227H53.7738H53.309H51.7335C50.8819 124.227 50.1651 123.591 50.0622 122.749L48.8486 112.948H53.309H53.7738H58.2306Z" fill="#C92E41"/>
<path d="M58.2306 112.948L57.0207 122.749C56.9178 123.591 56.1974 124.227 55.3458 124.227H53.7738H53.309H51.7335C50.9351 124.227 50.2503 123.665 50.087 122.901H51.4922H51.9606H53.5325C54.3842 122.901 55.101 122.473 55.2074 121.911L55.6368 115.336H51.9606H51.4922H49.1431L48.8486 112.948H53.309H53.7738H58.2306Z" fill="#7F133B"/>
<path d="M49.1431 115.336L48.8486 112.948H58.2306L57.9361 115.336H49.1431Z" fill="#30262D"/>
<path d="M57.9287 17.6854V24.8652C57.9287 26.8989 56.2752 28.5471 54.2348 28.5471H52.8687C50.8283 28.5471 49.1748 26.8989 49.1748 24.8652V17.6854C49.1748 15.6517 50.8283 14 52.8687 14H54.2348C56.2752 14 57.9287 15.6517 57.9287 17.6854Z" fill="#4FA2FB"/>
<path d="M57.9287 17.6806V24.8639C57.9287 26.8976 56.2752 28.5458 54.2348 28.5458H52.8687C50.8283 28.5458 49.1748 26.8976 49.1748 24.8639V21.4367C49.6467 21.656 50.1719 21.7798 50.7255 21.7798H52.0952C54.1355 21.7798 55.789 20.1316 55.789 18.0979V14.3418C57.0523 14.9254 57.9287 16.2022 57.9287 17.6806Z" fill="#3E4FBA"/>
<path d="M53.7933 113.735H53.3143C49.8474 113.735 47.0371 110.934 47.0371 107.475V29.4663C47.0371 26.0108 49.8474 23.2061 53.3143 23.2061H53.7933C57.2601 23.2061 60.0705 26.0108 60.0705 29.4663V107.475C60.0705 110.934 57.2601 113.735 53.7933 113.735Z" fill="#C92E41"/>
<path d="M48.1807 107.906V25.9639C48.1807 25.108 48.9045 24.4183 49.7775 24.4749C50.5723 24.528 51.1755 25.2212 51.1755 26.017V104.921C51.1755 106.569 49.8342 107.906 48.1807 107.906Z" fill="#EC313A"/>
<path d="M60.0705 25.8163V111.129C60.0705 112.568 58.8995 113.735 57.4553 113.735H49.6523C48.2081 113.735 47.0371 112.568 47.0371 111.129V110.701C52.6436 110.534 57.143 105.954 57.143 100.324V23.2061H57.4553C58.8995 23.2061 60.0705 24.3768 60.0705 25.8163Z" fill="#7F133B"/>
<path d="M56.4111 44.6583H50.6343C48.0758 44.6583 46 42.5928 46 40.0392V39.6891C46 37.1355 48.0758 35.0664 50.6343 35.0664H56.4111C58.973 35.0664 61.0453 37.1355 61.0453 39.6891V40.0392C61.0453 42.5928 58.973 44.6583 56.4111 44.6583Z" fill="#3E4FBA"/>
<path d="M54.2572 35.0664V36.2123C54.2572 37.0683 53.5617 37.7615 52.7065 37.7615H46V36.6155C46 35.7596 46.6955 35.0664 47.5542 35.0664H54.2572Z" fill="#91D4FF"/>
<path d="M61.0453 36.6155V43.1092C61.0453 43.9651 60.3498 44.6583 59.4911 44.6583H47.5542C46.6955 44.6583 46 43.9651 46 43.1092V41.7404H55.4991C56.3579 41.7404 57.0534 41.0472 57.0534 40.1913V35.0664H59.4911C60.3498 35.0664 61.0453 35.7596 61.0453 36.6155Z" fill="#393954"/>
<path d="M53.5535 14V15.4253C53.5535 17.0983 52.1909 18.4564 50.5125 18.4564C50.0299 18.4564 49.5793 18.3432 49.1748 18.1452V17.6854C49.1748 15.6517 50.8283 14 52.8687 14H53.5535Z" fill="#91D4FF"/>
<path d="M95.2088 44.7822L95.6311 76.0692C95.6488 77.4911 94.5062 78.6618 93.0798 78.6794L91.451 78.7007C89.51 78.5097 87.9807 76.8862 87.9523 74.8985C87.9274 72.9073 89.4143 71.245 91.3481 71.0009L91.0678 50.038C91.0572 49.1715 90.3439 48.4818 89.4746 48.4924L86.6926 48.5278L86.6465 44.8954L90.9969 44.8388L94.9498 44.7858L95.2088 44.7822Z" fill="#393954"/>
<path d="M83.5632 126.912C83.6945 126.912 83.7939 127.036 83.7619 127.163L82.3567 132.804C82.1509 133.643 80.9587 133.657 80.728 132.826L79.1702 127.227C79.1383 127.096 79.2341 126.969 79.3654 126.969L81.4626 126.94L83.5632 126.912Z" fill="#30262D"/>
<path d="M85.8133 116.509L84.7771 125.924C84.6884 126.734 84.0071 127.349 83.191 127.36L81.6829 127.381L81.2358 127.388L79.7277 127.406C78.9116 127.416 78.2125 126.819 78.1025 126.012L76.8145 116.629L81.0939 116.572L81.5374 116.565L85.8133 116.509Z" fill="#FFB33A"/>
<path d="M85.8133 116.509L84.7771 125.924C84.6884 126.734 84.0071 127.349 83.191 127.36L81.6829 127.381L81.2358 127.388L79.7277 127.406C78.9613 127.416 78.2977 126.889 78.1274 126.154L79.4793 126.136L79.9229 126.133L81.4345 126.111C82.2506 126.101 82.9355 125.683 83.0277 125.142L83.3542 118.833L79.8271 118.878L79.3836 118.886L77.1303 118.914L76.8145 116.629L81.0939 116.572L81.5374 116.565L85.8133 116.509Z" fill="#FA872C"/>
<path d="M77.1303 118.914L76.8145 116.629L85.8133 116.509L85.5613 118.804L77.1303 118.914Z" fill="#30262D"/>
<path d="M84.2967 25.1569L84.3925 32.0467C84.4174 33.9955 82.8525 35.5977 80.8937 35.6225L79.5844 35.6402C77.6292 35.6649 76.0218 34.1052 75.9969 32.1564L75.9047 25.2701C75.8763 23.3213 77.4411 21.7191 79.3999 21.6908L80.7093 21.6731C82.668 21.6484 84.2719 23.2081 84.2967 25.1569Z" fill="#4FA2FB"/>
<path d="M84.2971 25.1566L84.3929 32.0463C84.4177 33.9951 82.8528 35.5974 80.8977 35.6221L79.5848 35.6398C77.6296 35.6645 76.0221 34.1048 75.9973 32.156L75.9512 28.8703C76.4089 29.0754 76.9128 29.185 77.445 29.178L78.758 29.1603C80.7132 29.1355 82.278 27.5333 82.2532 25.5845L82.2035 21.9805C83.4242 22.5287 84.2793 23.7383 84.2971 25.1566Z" fill="#3E4FBA"/>
<path d="M81.5631 117.323L81.1089 117.33C77.7805 117.372 75.0517 114.723 75.0056 111.406L74.0014 36.5978C73.9624 33.2802 76.6201 30.5604 79.945 30.5144L80.4028 30.5073C83.7276 30.4649 86.4599 33.114 86.506 36.4316L87.5067 111.243C87.5493 114.557 84.8879 117.28 81.5631 117.323Z" fill="#FFB33A"/>
<path d="M76.1071 111.803L75.0568 33.2245C75.0461 32.4039 75.731 31.7319 76.5684 31.7744C77.3313 31.8133 77.9203 32.4747 77.9274 33.2351L78.9423 108.906C78.9636 110.487 77.6932 111.785 76.1071 111.803Z" fill="#FFC97B"/>
<path d="M86.4586 32.9318L87.5515 114.743C87.5693 116.126 86.4622 117.261 85.0747 117.279L77.5947 117.378C76.2072 117.395 75.0682 116.292 75.0504 114.909L75.0469 114.499C80.4227 114.269 84.6773 109.819 84.6064 104.419L83.6163 30.4666L83.9144 30.4631C85.2983 30.4454 86.4409 31.5489 86.4586 32.9318Z" fill="#FA872C"/>
<path d="M83.1921 51.0474L77.653 51.1217C75.1975 51.1535 73.1785 49.1941 73.1465 46.7501L73.143 46.4106C73.111 43.9666 75.0733 41.9542 77.5288 41.9223L83.0679 41.848C85.5234 41.8162 87.5389 43.7721 87.5709 46.2196L87.5744 46.5556C87.6099 49.0031 85.6441 51.0156 83.1921 51.0474Z" fill="#3E4FBA"/>
<path d="M81.0015 41.876L81.0157 42.9724C81.0263 43.7929 80.3699 44.4685 79.5466 44.4791L73.1169 44.564L73.1027 43.4676C73.092 42.647 73.7485 41.9715 74.5717 41.9609L81.0015 41.876Z" fill="#91D4FF"/>
<path d="M87.531 43.2755L87.6162 49.5004C87.6268 50.3209 86.9668 50.9965 86.1436 51.0071L74.6963 51.1592C73.8731 51.1698 73.1989 50.5119 73.1847 49.6914L73.167 48.3757L82.2793 48.259C83.1026 48.2448 83.759 47.5728 83.7484 46.7523L83.681 41.8396L86.0229 41.8077C86.8462 41.7971 87.5204 42.4514 87.531 43.2755Z" fill="#393954"/>
<path d="M80.0528 21.6826L80.0705 23.0478C80.0918 24.6536 78.8073 25.9693 77.1963 25.9905C76.735 25.9976 76.2986 25.8986 75.9082 25.7111L75.9047 25.269C75.8763 23.3202 77.4411 21.718 79.3999 21.6897L80.0528 21.6826Z" fill="#91D4FF"/>
</svg>
