<svg width="200" height="100" viewBox="0 0 200 100" fill="none" xmlns="http://www.w3.org/2000/svg">
<rect width="200" height="100" rx="8" fill="#8080FF"/>
<rect x="13.75" y="22" width="56.25" height="56" rx="28" fill="#5B40FF"/>
<path d="M16.2583 47.9891C19.0402 47.9891 21.2954 45.7439 21.2954 42.9743C21.2954 40.2048 19.0402 37.9596 16.2583 37.9596C13.4763 37.9596 11.2211 40.2048 11.2211 42.9743C11.2211 45.7439 13.4763 47.9891 16.2583 47.9891Z" fill="#B32FB3"/>
<path d="M24.5619 38.4156C24.3826 38.4138 24.2097 38.3492 24.0735 38.2332L23.8903 38.0509C23.2184 37.3773 22.4194 36.8426 21.5392 36.4775C20.6591 36.1124 19.7151 35.9241 18.7616 35.9234C18.5835 35.9234 18.4126 35.8529 18.2867 35.7275C18.1607 35.6021 18.09 35.4321 18.09 35.2548C18.0978 35.0827 18.172 34.9204 18.2972 34.8015C18.4223 34.6826 18.5886 34.6163 18.7616 34.6165C19.8893 34.6124 21.0066 34.8305 22.0493 35.2583C23.0919 35.686 24.0393 36.3149 24.8367 37.1087L25.0198 37.291C25.1378 37.4198 25.2032 37.5878 25.2032 37.7621C25.2032 37.9364 25.1378 38.1044 25.0198 38.2332C24.896 38.3496 24.7323 38.4148 24.5619 38.4156Z" fill="#270813"/>
<path d="M36.8037 33.6438C33.7396 33.6419 30.7153 34.3348 27.9601 35.6698C25.205 37.0048 22.7915 38.9469 20.9026 41.3488C19.0137 43.7507 17.699 46.5494 17.0582 49.5324C16.4175 52.5155 16.4676 55.6047 17.2047 58.5656H56.3722C59.5166 45.892 49.9003 33.6438 36.8037 33.6438Z" fill="#B32FB3"/>
<path d="M36.8037 33.6438C32.3802 33.6301 28.0764 35.0726 24.5619 37.7468C30.573 43.7973 35.4983 50.8285 39.1238 58.5352H56.3722C59.5166 45.8919 49.9002 33.6438 36.8037 33.6438Z" fill="url(#paint0_linear_1491_2551)"/>
<path d="M54.6321 55.4961L54.8153 55.3441C55.1801 55.0893 55.6124 54.9476 56.0578 54.9368C56.5032 54.926 56.9419 55.0466 57.3186 55.2833C59.9135 56.8941 60.5851 60.0245 60.5851 61.6961C60.5851 62.2119 60.3793 62.7067 60.0127 63.0714C59.6463 63.4364 59.1493 63.6412 58.6313 63.6412C58.1102 63.6412 57.6101 63.4373 57.2389 63.0735C56.8677 62.7094 56.6549 62.2149 56.647 61.6961C56.647 61.6657 56.5859 59.3863 55.1511 58.5657H53.1667V58.4138C53.1713 57.8484 53.306 57.2916 53.5599 56.7859C53.8139 56.2802 54.1806 55.839 54.6321 55.4961Z" fill="#EB3EEB"/>
<path d="M62.3557 63.6412H62.3862C62.9043 63.6412 63.4013 63.4364 63.7679 63.0713C64.1343 62.7066 64.34 62.2119 64.34 61.6961C64.34 59.9941 63.6074 56.7117 60.8293 55.1313C60.3714 54.88 59.8323 54.8188 59.3292 54.9611C58.826 55.1034 58.3996 55.4376 58.1428 55.8911C58.0125 56.1141 57.9279 56.3607 57.8943 56.6165C57.8607 56.8723 57.8785 57.1322 57.9465 57.3812C58.0149 57.63 58.1321 57.863 58.2915 58.0663C58.4509 58.2697 58.6496 58.4394 58.8755 58.5657C60.3103 59.3863 60.4019 61.6657 60.4019 61.6961C60.4019 62.2119 60.6077 62.7066 60.9743 63.0713C61.3406 63.4364 61.8376 63.6412 62.3557 63.6412Z" fill="#EB3EEB"/>
<path d="M66.1107 63.6411C66.6318 63.6411 67.1318 63.4371 67.5031 63.0733C67.8743 62.7092 68.0871 62.2147 68.095 61.6959C68.095 59.994 67.3318 56.7116 64.5537 55.1312C64.1019 54.9355 63.5933 54.914 63.1266 55.071C62.6598 55.228 62.2684 55.5522 62.0288 55.9806C61.7888 56.4089 61.7174 56.9108 61.8288 57.3886C61.9399 57.8664 62.2257 58.2859 62.6305 58.5655C64.0653 59.3861 64.1263 61.6656 64.1263 61.6959C64.1419 62.212 64.3571 62.7025 64.7265 63.0648C65.0962 63.4271 65.592 63.6335 66.1107 63.6411Z" fill="#EB3EEB"/>
<path d="M60.5851 62.9422C60.415 62.9422 60.252 62.875 60.1317 62.7553C60.0115 62.6355 59.944 62.4732 59.944 62.3039V61.6961C59.9156 60.1599 59.4498 58.6633 58.6008 57.3804C58.5486 57.3113 58.511 57.2323 58.4906 57.1484C58.4698 57.0644 58.4664 56.9772 58.4808 56.8919C58.4951 56.8066 58.5266 56.7252 58.5736 56.6524C58.6203 56.5796 58.6817 56.5171 58.7534 56.4686C58.8963 56.3716 59.0712 56.3333 59.2419 56.3616C59.4125 56.39 59.5658 56.4827 59.6692 56.6205C60.6767 58.1256 61.228 59.8876 61.2567 61.6961V62.3039C61.2567 62.3902 61.2393 62.476 61.2051 62.5553C61.1709 62.6349 61.1212 62.7066 61.0583 62.7662C60.9954 62.8261 60.9212 62.8723 60.8397 62.9027C60.7585 62.9327 60.6718 62.9464 60.5851 62.9422Z" fill="#270813"/>
<path d="M64.34 62.9423C64.2533 62.9466 64.1666 62.9329 64.0854 62.9028C64.0039 62.8724 63.9297 62.8262 63.8669 62.7663C63.804 62.7068 63.7542 62.635 63.72 62.5554C63.6858 62.4761 63.6684 62.3904 63.6684 62.3041V61.6962C63.6538 60.1579 63.187 58.6575 62.3252 57.3805C62.251 57.3134 62.193 57.2305 62.1551 57.1381C62.1173 57.0458 62.1008 56.9461 62.1066 56.8465C62.1127 56.7469 62.1408 56.6499 62.1893 56.5626C62.2379 56.4752 62.3053 56.3998 62.3869 56.3418C62.4684 56.2838 62.5618 56.2448 62.6607 56.2274C62.7593 56.2101 62.8606 56.215 62.9571 56.2418C63.0536 56.2685 63.143 56.3164 63.2184 56.382C63.2941 56.4475 63.354 56.5291 63.3937 56.6207C64.4216 58.1178 64.9845 59.8829 65.0117 61.6962V62.3041C65.0117 62.3904 64.9943 62.4761 64.9601 62.5554C64.9259 62.635 64.8761 62.7068 64.8132 62.7663C64.7503 62.8262 64.6762 62.8724 64.5946 62.9028C64.5134 62.9329 64.4267 62.9466 64.34 62.9423Z" fill="#270813"/>
<path d="M11.4348 55.4961L11.6485 55.3441C12.0132 55.0893 12.4455 54.9476 12.8909 54.9368C13.3364 54.926 13.7751 55.0466 14.1518 55.2833C16.7162 56.8941 17.4183 60.0245 17.4183 61.6961C17.4183 62.2119 17.2125 62.7067 16.8461 63.0714C16.4797 63.4364 15.9827 63.6412 15.4645 63.6412H15.434C14.9158 63.6412 14.4189 63.4364 14.0525 63.0714C13.6861 62.7067 13.4802 62.2119 13.4802 61.6961C13.4802 61.6657 13.3886 59.3863 11.9538 58.5657H10V58.4138C9.99876 57.8505 10.1275 57.2945 10.3763 56.7886C10.625 56.2828 10.9872 55.8405 11.4348 55.4961Z" fill="#EB3EEB"/>
<path d="M19.189 63.6411C19.71 63.6411 20.2102 63.4371 20.5814 63.0733C20.9527 62.7092 21.1653 62.2147 21.1733 61.6959C21.1733 59.994 20.4101 56.7116 17.632 55.1312C17.1803 54.9355 16.6717 54.914 16.2049 55.071C15.7382 55.228 15.3468 55.5522 15.1069 55.9806C14.867 56.4089 14.7958 56.9108 14.907 57.3886C15.0183 57.8664 15.304 58.2859 15.7088 58.5655C17.1436 59.3861 17.2046 61.6656 17.2046 61.6959C17.2203 62.212 17.4353 62.7025 17.805 63.0648C18.1746 63.4271 18.6703 63.6335 19.189 63.6411Z" fill="#EB3EEB"/>
<path d="M22.9439 63.6412C23.4621 63.6412 23.959 63.4364 24.3255 63.0713C24.6919 62.7066 24.8977 62.2119 24.8977 61.6961C24.8977 59.9941 24.165 56.7117 21.387 55.1313C20.929 54.88 20.3898 54.8188 19.8867 54.9611C19.3837 55.1034 18.9574 55.4376 18.7005 55.8911C18.5702 56.1141 18.4857 56.3607 18.452 56.6165C18.4183 56.8723 18.4361 57.1322 18.5043 57.3812C18.5725 57.63 18.6897 57.863 18.8492 58.0663C19.0087 58.2697 19.2072 58.4394 19.4332 58.5657C20.868 59.3863 20.9596 61.6657 20.9596 61.6961C20.9676 62.2149 21.1802 62.7094 21.5515 63.0735C21.9227 63.4373 22.4229 63.6412 22.9439 63.6412Z" fill="#EB3EEB"/>
<path d="M17.4184 62.9422C17.2484 62.9422 17.0853 62.875 16.9651 62.7553C16.8448 62.6355 16.7773 62.4732 16.7773 62.3039V61.6961C16.7502 60.1552 16.2728 58.6555 15.4035 57.3804C15.3528 57.3094 15.3171 57.2289 15.2989 57.1437C15.2806 57.0585 15.28 56.9705 15.2971 56.8851C15.3143 56.7996 15.3488 56.7186 15.3987 56.647C15.4484 56.5754 15.5124 56.5147 15.5867 56.4686C15.7296 56.3716 15.9046 56.3333 16.0752 56.3616C16.2458 56.39 16.3989 56.4827 16.5025 56.6205C17.5101 58.1256 18.0612 59.8876 18.09 61.6961V62.3039C18.0901 62.3902 18.0726 62.476 18.0384 62.5553C18.0043 62.6349 17.9543 62.7066 17.8915 62.7662C17.8288 62.8261 17.7544 62.8723 17.6731 62.9027C17.5917 62.9327 17.5051 62.9464 17.4184 62.9422Z" fill="#270813"/>
<path d="M21.1733 62.9422C21.0866 62.9464 20.9999 62.9327 20.9186 62.9027C20.8372 62.8723 20.7629 62.8261 20.7001 62.7662C20.6373 62.7066 20.5873 62.6349 20.5532 62.5553C20.5191 62.476 20.5016 62.3902 20.5017 62.3039V61.6961C20.4733 60.1599 20.0075 58.6633 19.1584 57.3804C19.1063 57.3113 19.0687 57.2323 19.0481 57.1484C19.0275 57.0644 19.0242 56.9772 19.0385 56.8919C19.0528 56.8066 19.0843 56.7252 19.1311 56.6524C19.178 56.5796 19.2392 56.5171 19.3111 56.4686C19.454 56.3716 19.629 56.3333 19.7996 56.3616C19.9702 56.39 20.1233 56.4827 20.2269 56.6205C21.2474 58.1195 21.7997 59.8854 21.8144 61.6961V62.3039C21.8144 62.4732 21.7468 62.6355 21.6266 62.7553C21.5064 62.875 21.3433 62.9422 21.1733 62.9422Z" fill="#270813"/>
<path d="M46.5422 54.3107H49.5339C50.5719 54.3107 51.4267 54.9185 51.4267 55.6783C51.4267 56.4381 50.5719 57.0156 49.5339 57.0156H46.5422C45.5042 57.0156 44.6494 56.4077 44.6494 55.6783C44.6494 54.9489 45.5042 54.3107 46.5422 54.3107Z" fill="white"/>
<path d="M49.9002 54.3411C50.0981 54.7595 50.2022 55.2158 50.2055 55.6783C50.2061 56.1315 50.1014 56.5787 49.9002 56.9852H47.1832C46.9854 56.5667 46.8813 56.1104 46.878 55.6479C46.8777 55.1753 46.9821 54.7084 47.1832 54.2803H49.9002V54.3411Z" fill="#270813"/>
<path d="M31.9192 54.3107H34.8804C35.9489 54.3107 36.8037 54.9185 36.8037 55.6783C36.8037 56.4381 35.9489 57.0156 34.8804 57.0156H31.9192C30.8507 57.0156 29.9959 56.4077 29.9959 55.6783C29.9959 54.9489 30.8507 54.3107 31.9192 54.3107Z" fill="white"/>
<path d="M35.2773 54.3411C35.4751 54.7595 35.5792 55.2158 35.5826 55.6783C35.5832 56.1315 35.4785 56.5787 35.2773 56.9852H32.5603C32.3393 56.5739 32.2239 56.1145 32.2245 55.6479C32.2202 55.1713 32.3356 54.7011 32.5603 54.2803H35.2773V54.3411Z" fill="#270813"/>
<path d="M24.5619 37.7772C27.6452 35.2546 32.1329 33.583 36.8037 33.583C45.1989 33.583 52.4951 38.7801 55.2427 45.6184C43.6114 45.6184 32.1634 45.3449 24.5619 37.7772Z" fill="#FFE75C"/>
<path d="M40.533 33.9921L43.3098 34.7122C43.8645 34.8561 44.4314 34.525 44.5761 33.9727L44.5768 33.9698C44.7211 33.4175 44.3887 32.8532 43.834 32.7093L41.0569 31.9892C40.5022 31.8453 39.9353 32.1764 39.7909 32.7287L39.7902 32.7316C39.6455 33.2839 39.9783 33.8482 40.533 33.9921Z" fill="#270813"/>
<path d="M18.2426 43.5518C18.141 43.5483 18.0414 43.5218 17.9515 43.4744C17.8616 43.4271 17.7837 43.36 17.7236 43.2782L15.0677 39.9351C15.0123 39.8698 14.9707 39.794 14.9453 39.7124C14.9198 39.6308 14.9111 39.5449 14.9197 39.4599C14.9282 39.3748 14.9538 39.2924 14.995 39.2174C15.0362 39.1424 15.092 39.0764 15.1593 39.0233C15.2274 38.9673 15.3059 38.9253 15.3904 38.8996C15.4748 38.8739 15.5636 38.865 15.6514 38.8735C15.7394 38.8819 15.8247 38.9076 15.9027 38.9489C15.9806 38.9903 16.0496 39.0465 16.1056 39.1145L18.7616 42.488C18.8658 42.623 18.9144 42.7926 18.8973 42.962C18.8803 43.1314 18.799 43.288 18.67 43.3998C18.5473 43.4942 18.3976 43.5474 18.2426 43.5518Z" fill="#270813"/>
<path d="M46.7559 42.9136C47.6662 42.9136 48.4044 42.1788 48.4044 41.2724C48.4044 40.366 47.6662 39.6312 46.7559 39.6312C45.8455 39.6312 45.1073 40.366 45.1073 41.2724C45.1073 42.1788 45.8455 42.9136 46.7559 42.9136Z" fill="#00CD9D"/>
<path d="M50.9992 52.6391H50.8466C49.2564 52.3044 47.6134 52.3044 46.0232 52.6391C45.9371 52.6619 45.847 52.6673 45.7588 52.6551C45.6703 52.6429 45.5854 52.6133 45.5088 52.568C45.4318 52.5227 45.365 52.4627 45.3119 52.3914C45.2587 52.3201 45.2203 52.239 45.1989 52.1528C45.1617 51.9838 45.1919 51.807 45.2832 51.6596C45.3741 51.5123 45.5191 51.4058 45.6874 51.3626C47.4873 50.9678 49.352 50.9678 51.1519 51.3626C51.3024 51.4082 51.4318 51.505 51.5182 51.636C51.6043 51.767 51.6416 51.9239 51.6232 52.0794C51.6052 52.235 51.5329 52.3792 51.4187 52.4871C51.3045 52.5949 51.1562 52.6594 50.9992 52.6695V52.6391Z" fill="#270813"/>
<path d="M31.6749 52.6393C31.5241 52.642 31.377 52.5917 31.2598 52.4972C31.1426 52.4027 31.0626 52.2701 31.0339 52.1226C30.9955 51.9576 31.0214 51.7843 31.1064 51.6377C31.1914 51.491 31.3291 51.3819 31.4918 51.3324C33.3018 50.9371 35.1768 50.9371 36.9868 51.3324C37.1496 51.3819 37.2872 51.491 37.3721 51.6377C37.4573 51.7843 37.4832 51.9576 37.4448 52.1226C37.4271 52.2076 37.3919 52.2881 37.3419 52.3592C37.2915 52.4303 37.2274 52.4905 37.1532 52.536C37.0787 52.5815 36.996 52.6115 36.9096 52.624C36.8232 52.6365 36.7353 52.6314 36.651 52.6089C35.0608 52.2742 33.4178 52.2742 31.8276 52.6089L31.6749 52.6393Z" fill="#270813"/>
<path d="M16.5025 46.6518C16.8734 46.6518 17.1741 46.3525 17.1741 45.9832C17.1741 45.6139 16.8734 45.3146 16.5025 45.3146C16.1316 45.3146 15.8309 45.6139 15.8309 45.9832C15.8309 46.3525 16.1316 46.6518 16.5025 46.6518Z" fill="white"/>
<path d="M14.2434 44.4636H14.1213C14.0364 44.4491 13.9553 44.4177 13.8829 44.3713C13.8104 44.3249 13.7481 44.2644 13.6997 44.1935C13.6512 44.1225 13.6177 44.0426 13.6009 43.9585C13.5842 43.8744 13.5847 43.7877 13.6023 43.7038C13.8771 42.0322 14.9456 40.9077 16.6857 40.4822C16.8514 40.444 17.0254 40.4698 17.1728 40.5544C17.3201 40.6391 17.4297 40.7762 17.4794 40.9381C17.5023 41.0239 17.5077 41.1134 17.4955 41.2014C17.4832 41.2893 17.4535 41.3739 17.408 41.4504C17.3625 41.5267 17.3022 41.5933 17.2306 41.6463C17.159 41.6992 17.0776 41.7374 16.991 41.7587C15.7698 42.0626 15.0982 42.7312 14.8845 43.9165C14.8623 44.0696 14.7851 44.2094 14.6672 44.31C14.5493 44.4106 14.3987 44.4652 14.2434 44.4636Z" fill="#270813"/>
<path d="M52.0983 45.6488H66.7517C67.3586 45.6488 67.8507 45.159 67.8507 44.5547V44.5274C67.8507 43.9231 67.3586 43.4332 66.7517 43.4332H52.0983C51.4914 43.4332 50.9992 43.9231 50.9992 44.5274V44.5547C50.9992 45.159 51.4914 45.6488 52.0983 45.6488Z" fill="#66BCFF"/>
<path d="M79.544 57.378C82.82 57.378 84.728 55.776 84.728 53.13C84.728 51.096 83.594 49.872 81.074 49.206L79.742 48.846C79.094 48.648 78.77 48.396 78.77 47.982C78.77 47.46 79.22 47.19 80.264 47.19C81.506 47.19 82.856 47.604 84.062 48.324V45.048C82.748 44.4 81.326 44.004 79.778 44.004C76.628 44.004 74.774 45.534 74.774 48.09C74.774 49.962 75.728 51.114 78.05 51.816L79.688 52.302C80.318 52.536 80.516 52.824 80.516 53.22C80.516 53.85 80.084 54.174 79.076 54.174C77.618 54.174 75.962 53.58 74.828 52.788V56.136C76.34 56.982 77.942 57.378 79.544 57.378ZM95.4367 52.194C95.4367 49.188 93.8347 47.568 90.8467 47.568C87.7867 47.568 85.7887 49.512 85.7887 52.374C85.7887 55.38 87.9127 57.27 91.3507 57.27C93.0787 57.27 94.3207 56.802 95.0227 56.28V53.886C94.2667 54.336 93.3487 54.588 92.3407 54.588C90.7927 54.588 89.8747 54.102 89.4967 53.364H95.4367V52.194ZM90.9907 50.16C91.8727 50.16 92.3947 50.628 92.4487 51.528H89.4427C89.5327 50.664 90.0907 50.16 90.9907 50.16ZM108.843 47.568C107.547 47.568 106.539 48.144 105.891 49.152C105.405 48.162 104.523 47.568 103.227 47.568C101.913 47.568 100.977 48.198 100.455 49.134V47.838H96.9087V57H100.527V51.978C100.527 51.168 100.923 50.556 101.697 50.556C102.453 50.556 102.759 51.132 102.759 51.924V57H106.305V51.816C106.323 51.096 106.719 50.556 107.439 50.556C108.213 50.556 108.519 51.132 108.519 51.942V57H112.119V51.204C112.119 48.918 110.859 47.568 108.843 47.568ZM120.277 47.136C121.375 47.136 122.167 46.452 122.167 45.372C122.167 44.346 121.429 43.644 120.277 43.644C119.125 43.644 118.369 44.346 118.369 45.372C118.369 46.452 119.179 47.136 120.277 47.136ZM122.095 57V47.838H118.477V57H122.095ZM135.895 47.568C134.599 47.568 133.591 48.144 132.943 49.152C132.457 48.162 131.575 47.568 130.279 47.568C128.965 47.568 128.029 48.198 127.507 49.134V47.838H123.961V57H127.579V51.978C127.579 51.168 127.975 50.556 128.749 50.556C129.505 50.556 129.811 51.132 129.811 51.924V57H133.357V51.816C133.375 51.096 133.771 50.556 134.491 50.556C135.265 50.556 135.571 51.132 135.571 51.942V57H139.171V51.204C139.171 48.918 137.911 47.568 135.895 47.568ZM144.793 47.568C143.317 47.568 141.985 47.982 141.049 48.54V51.366C141.697 50.862 142.687 50.448 143.875 50.448C145.297 50.448 146.035 51.096 146.035 52.338C145.549 51.798 144.793 51.51 143.803 51.51C141.931 51.51 140.563 52.554 140.563 54.408C140.563 56.064 141.787 57.27 143.515 57.27C144.595 57.27 145.513 56.802 146.035 56.01V57H149.563V51.996C149.563 49.332 147.943 47.568 144.793 47.568ZM144.955 55.092C144.253 55.092 143.821 54.714 143.821 54.174C143.821 53.616 144.253 53.238 144.955 53.238C145.639 53.238 146.107 53.634 146.107 54.156C146.107 54.696 145.639 55.092 144.955 55.092ZM157.667 49.152C157.163 48.144 156.119 47.568 155.003 47.568C152.429 47.568 150.881 49.71 150.881 52.194C150.881 54.696 152.411 56.604 154.751 56.604C156.065 56.604 157.109 56.028 157.649 55.074V55.722C157.649 57.09 156.731 58.044 155.111 58.044C153.905 58.044 152.753 57.702 151.943 57.09V59.916C152.915 60.528 154.193 60.78 155.363 60.78C158.693 60.78 161.213 59.196 161.213 55.524V47.838H157.667V49.152ZM156.119 53.922C155.219 53.922 154.571 53.274 154.571 52.212C154.571 51.114 155.219 50.412 156.137 50.412C157.055 50.412 157.649 51.096 157.649 52.194C157.649 53.256 157.019 53.922 156.119 53.922ZM172.271 52.194C172.271 49.188 170.669 47.568 167.681 47.568C164.621 47.568 162.623 49.512 162.623 52.374C162.623 55.38 164.747 57.27 168.185 57.27C169.913 57.27 171.155 56.802 171.857 56.28V53.886C171.101 54.336 170.183 54.588 169.175 54.588C167.627 54.588 166.709 54.102 166.331 53.364H172.271V52.194ZM167.825 50.16C168.707 50.16 169.229 50.628 169.283 51.528H166.277C166.367 50.664 166.925 50.16 167.825 50.16ZM185.677 47.568C184.381 47.568 183.373 48.144 182.725 49.152C182.239 48.162 181.357 47.568 180.061 47.568C178.747 47.568 177.811 48.198 177.289 49.134V47.838H173.743V57H177.361V51.978C177.361 51.168 177.757 50.556 178.531 50.556C179.287 50.556 179.593 51.132 179.593 51.924V57H183.139V51.816C183.157 51.096 183.553 50.556 184.273 50.556C185.047 50.556 185.353 51.132 185.353 51.942V57H188.953V51.204C188.953 48.918 187.693 47.568 185.677 47.568Z" fill="white"/>
<defs>
<linearGradient id="paint0_linear_1491_2551" x1="46.9115" y1="64.8659" x2="40.9102" y2="44.5887" gradientUnits="userSpaceOnUse">
<stop offset="0.06" stop-color="#B32FB3"/>
<stop offset="1" stop-color="#3D0A27"/>
</linearGradient>
</defs>
</svg>
