<svg width="680" height="372" viewBox="0 0 680 372" fill="none" xmlns="http://www.w3.org/2000/svg">
<rect y="83" width="650" height="289" rx="20" fill="#2F3136"/>
<path d="M0 104C0 92.9543 8.95431 84 20 84H50V372H20C8.9543 372 0 363.046 0 352V104Z" fill="#202225"/>
<rect x="426" y="292" width="204" height="32" rx="2.12387" fill="#404EED"/>
<path d="M450.788 313C454.106 313 455.828 310.9 455.828 308.016C455.828 305.16 454.176 303.2 450.97 303.2H447.078V313H450.788ZM449.43 305.3H450.844C452.552 305.3 453.35 306.364 453.35 308.058C453.35 309.752 452.496 310.9 450.76 310.9H449.43V305.3ZM459.906 305.706C458.814 305.706 457.876 306.042 457.204 306.476V308.366C457.736 307.89 458.492 307.568 459.388 307.568C460.508 307.568 461.138 308.142 461.138 309.206V309.416C460.774 308.968 460.172 308.688 459.346 308.688C457.876 308.688 456.826 309.542 456.826 310.956C456.826 312.258 457.792 313.21 459.164 313.21C460.046 313.21 460.76 312.818 461.138 312.174V313H463.364V308.982C463.364 306.98 462.146 305.706 459.906 305.706ZM460.032 311.754C459.332 311.754 458.926 311.376 458.926 310.816C458.926 310.27 459.346 309.892 460.046 309.892C460.732 309.892 461.18 310.284 461.18 310.802C461.18 311.348 460.732 311.754 460.032 311.754ZM469.015 305.79C468.203 305.79 467.559 306.252 467.237 307.386V305.916H464.969V313H467.237V309.836C467.237 308.562 467.825 307.876 468.791 307.876C469.267 307.876 469.645 307.988 469.911 308.17V306.07C469.687 305.916 469.393 305.79 469.015 305.79ZM478.817 309.626C478.817 310.69 478.411 311.334 477.585 311.334C476.787 311.334 476.437 310.802 476.437 309.85V305.916H474.169V310.34C474.169 312.09 475.009 313.196 476.703 313.196C477.725 313.196 478.509 312.65 478.873 311.838V313H481.099V305.916H478.817V309.626ZM491.379 305.706C490.385 305.706 489.629 306.182 489.167 306.98C488.803 306.196 488.103 305.706 487.137 305.706C486.143 305.706 485.443 306.21 485.051 307.05V305.916H482.811V313H485.079V308.996C485.079 308.198 485.513 307.61 486.199 307.61C486.871 307.61 487.207 308.1 487.207 308.842V313H489.447V308.8C489.461 308.128 489.881 307.61 490.553 307.61C491.239 307.61 491.561 308.1 491.561 308.898V313H493.829V308.464C493.829 306.742 492.905 305.706 491.379 305.706ZM503.52 305.706C502.428 305.706 501.7 306.196 501.308 306.91V302.92H499.04V313H501.308V309.206C501.308 308.24 501.756 307.61 502.596 307.61C503.408 307.61 503.73 308.114 503.73 309.066V313H505.998V308.562C505.998 306.742 505.06 305.706 503.52 305.706ZM514.373 309.094C514.373 306.91 513.127 305.706 510.999 305.706C508.675 305.706 507.247 307.232 507.247 309.416C507.247 311.74 508.843 313.21 511.363 313.21C512.581 313.21 513.533 312.86 514.065 312.454V310.816C513.491 311.208 512.721 311.446 511.923 311.446C510.551 311.446 509.767 310.9 509.543 310.018H514.373V309.094ZM511.055 307.428C511.867 307.428 512.399 307.876 512.427 308.758H509.571C509.683 307.932 510.173 307.428 511.055 307.428ZM518.015 313V302.92H515.733V313H518.015ZM524.303 305.706C523.155 305.706 522.357 306.364 521.979 307.106V305.916H519.739V315.66H522.007V312.118C522.441 312.776 523.211 313.21 524.191 313.21C526.025 313.21 527.397 311.684 527.397 309.388C527.397 307.246 526.151 305.706 524.303 305.706ZM523.491 311.306C522.567 311.306 521.979 310.578 521.979 309.5C521.979 308.394 522.581 307.638 523.519 307.638C524.443 307.638 525.073 308.394 525.073 309.472C525.073 310.55 524.443 311.306 523.491 311.306Z" fill="white"/>
<path d="M575.404 307.68C576.292 307.476 576.712 306.744 576.712 305.952C576.712 304.728 575.692 303.84 573.988 303.84C573.088 303.84 572.368 304.056 571.672 304.488V305.88C572.032 305.556 572.68 305.184 573.688 305.184C574.708 305.184 575.188 305.604 575.188 306.216C575.188 306.864 574.816 307.356 573.76 307.356H572.356L572.164 308.46H573.856C575.056 308.46 575.428 309.024 575.428 309.6C575.428 310.38 574.792 310.884 573.712 310.884C572.74 310.884 572.08 310.548 571.672 310.188V311.58C572.356 312 573.064 312.192 573.952 312.192C575.764 312.192 576.964 311.112 576.964 309.66C576.964 308.736 576.4 307.932 575.404 307.68ZM581.343 312.192C583.347 312.192 584.571 310.572 584.571 308.016C584.571 305.496 583.335 303.84 581.343 303.84C579.375 303.84 578.139 305.484 578.139 308.004C578.139 310.572 579.363 312.192 581.343 312.192ZM581.343 310.8C580.251 310.8 579.687 309.672 579.687 308.016C579.687 306.372 580.251 305.232 581.343 305.232C582.459 305.232 583.011 306.384 583.011 308.028C583.011 309.66 582.459 310.8 581.343 310.8ZM588.949 312.192C590.953 312.192 592.177 310.572 592.177 308.016C592.177 305.496 590.941 303.84 588.949 303.84C586.981 303.84 585.745 305.484 585.745 308.004C585.745 310.572 586.969 312.192 588.949 312.192ZM588.949 310.8C587.857 310.8 587.293 309.672 587.293 308.016C587.293 306.372 587.857 305.232 588.949 305.232C590.065 305.232 590.617 306.384 590.617 308.028C590.617 309.66 590.065 310.8 588.949 310.8ZM599.96 308.82L601.94 305.964H600.284L599 307.992L597.764 305.964H596.06L598.052 308.868L595.964 312H597.644L598.988 309.804L600.344 312H602.06L599.96 308.82ZM606.54 305.784C605.496 305.784 604.824 306.396 604.488 307.092V305.964H603.012V314.28H604.5V311.136C604.872 311.76 605.556 312.18 606.42 312.18C607.944 312.18 609.168 310.884 609.168 308.928C609.168 307.128 608.1 305.784 606.54 305.784ZM606.024 310.896C605.052 310.896 604.476 310.116 604.476 309.024C604.476 307.896 605.088 307.092 606.06 307.092C607.02 307.092 607.644 307.884 607.644 308.988C607.644 310.104 606.996 310.896 606.024 310.896Z" fill="#FFC619"/>
<path d="M557 299L559.021 305.219H565.56L560.269 309.062L562.29 315.281L557 311.438L551.71 315.281L553.731 309.062L548.44 305.219H554.979L557 299Z" fill="#FFC619"/>
<line x1="538.5" y1="298" x2="538.5" y2="318" stroke="#5883F2"/>
<rect x="124" y="150" width="93" height="24" rx="12" fill="#404EED"/>
<path d="M137.99 166L135.218 157.6H133.094L130.346 166H131.942L132.566 164.008H135.734L136.358 166H137.99ZM134.138 158.956L135.338 162.784H132.938L134.138 158.956ZM143.269 160.936C142.861 160.168 142.225 159.784 141.373 159.784C139.729 159.784 138.601 161.188 138.601 163.012C138.601 164.836 139.621 166.18 141.241 166.18C142.309 166.18 142.957 165.58 143.281 164.884V166H144.757V157.36H143.269V160.936ZM141.673 164.884C140.749 164.884 140.125 164.164 140.125 163.012C140.125 161.848 140.749 161.08 141.709 161.08C142.693 161.08 143.293 161.86 143.293 162.964C143.293 164.08 142.669 164.884 141.673 164.884ZM153.158 159.784C152.318 159.784 151.694 160.204 151.334 160.912C151.034 160.216 150.446 159.784 149.63 159.784C148.814 159.784 148.226 160.216 147.902 160.972V159.964H146.426V166H147.914V162.412C147.926 161.632 148.382 161.056 149.042 161.056C149.702 161.056 150.062 161.5 150.062 162.268V166H151.538V162.244C151.55 161.56 151.994 161.056 152.678 161.056C153.35 161.056 153.686 161.5 153.686 162.352V166H155.174V162.088C155.174 160.66 154.418 159.784 153.158 159.784ZM157.553 159.052C158.057 159.052 158.429 158.692 158.429 158.2C158.429 157.72 158.069 157.36 157.553 157.36C157.037 157.36 156.665 157.72 156.665 158.2C156.665 158.692 157.049 159.052 157.553 159.052ZM158.297 166V159.964H156.809V166H158.297ZM163.428 159.784C162.48 159.784 161.808 160.216 161.472 160.924V159.964H159.996V166H161.484V162.76C161.484 161.704 161.976 161.056 162.864 161.056C163.692 161.056 164.04 161.536 164.04 162.544V166H165.528V162.22C165.528 160.684 164.724 159.784 163.428 159.784ZM167.901 159.052C168.405 159.052 168.777 158.692 168.777 158.2C168.777 157.72 168.417 157.36 167.901 157.36C167.385 157.36 167.013 157.72 167.013 158.2C167.013 158.692 167.397 159.052 167.901 159.052ZM168.645 166V159.964H167.157V166H168.645ZM172.336 166.18C173.776 166.18 174.748 165.388 174.748 164.212C174.748 163.348 174.292 162.736 173.188 162.448L172.204 162.196C171.748 162.076 171.544 161.86 171.544 161.548C171.544 161.176 171.856 160.972 172.504 160.972C173.176 160.972 173.884 161.188 174.424 161.608V160.36C173.932 160.048 173.284 159.784 172.408 159.784C170.956 159.784 170.044 160.516 170.044 161.596C170.044 162.424 170.536 162.988 171.544 163.264L172.54 163.552C173.056 163.708 173.224 163.948 173.224 164.26C173.224 164.74 172.84 164.992 172.18 164.992C171.46 164.992 170.656 164.68 170.044 164.188V165.46C170.716 165.952 171.472 166.18 172.336 166.18ZM178.248 159.964V158.02L176.76 158.416V159.964H175.332V161.2H176.76V166H178.248V161.2H179.832V159.964H178.248ZM183.808 159.856C183.148 159.856 182.62 160.288 182.332 161.164V159.964H180.844V166H182.332V162.976C182.344 161.872 182.86 161.248 183.628 161.248C184.012 161.248 184.324 161.332 184.588 161.524V160.12C184.372 159.952 184.12 159.856 183.808 159.856ZM187.679 159.784C186.779 159.784 186.059 160.084 185.519 160.456V161.812C186.011 161.344 186.647 161.056 187.391 161.056C188.351 161.056 188.951 161.608 188.951 162.592V162.964C188.651 162.556 188.111 162.268 187.379 162.268C186.095 162.268 185.195 163.048 185.195 164.224C185.195 165.34 186.059 166.18 187.247 166.18C188.039 166.18 188.639 165.82 188.951 165.232V166H190.415V162.448C190.415 160.792 189.407 159.784 187.679 159.784ZM187.787 165.124C187.043 165.124 186.635 164.74 186.635 164.152C186.635 163.564 187.055 163.18 187.799 163.18C188.519 163.18 188.963 163.588 188.963 164.128C188.963 164.704 188.507 165.124 187.787 165.124ZM196.872 164.308C196.476 164.62 195.84 164.872 195.168 164.872C193.848 164.872 193.152 164.056 193.152 162.964C193.152 161.86 193.884 161.092 195.072 161.092C195.756 161.092 196.308 161.284 196.812 161.692V160.252C196.368 159.988 195.768 159.784 194.892 159.784C192.912 159.784 191.628 161.116 191.628 162.976C191.628 164.68 192.744 165.988 194.472 166.156V166.936H194.808C195.216 166.936 195.408 167.092 195.408 167.344C195.408 167.584 195.24 167.764 194.88 167.764C194.484 167.764 194.184 167.584 194.028 167.452V168.244C194.304 168.412 194.616 168.508 194.976 168.508C195.804 168.508 196.272 168.04 196.272 167.404C196.272 166.804 195.864 166.348 195.144 166.348H195.096V166.18C195.768 166.144 196.356 165.976 196.872 165.64V164.308ZM199.412 159.124C199.412 158.812 199.544 158.62 199.868 158.62C200.3 158.62 200.672 159.268 201.38 159.268C202.088 159.268 202.508 158.776 202.508 157.876H201.704C201.716 158.176 201.572 158.38 201.26 158.38C200.816 158.38 200.456 157.72 199.76 157.72C199.052 157.72 198.62 158.212 198.632 159.124H199.412ZM200.312 159.784C199.412 159.784 198.692 160.084 198.152 160.456V161.812C198.644 161.344 199.28 161.056 200.024 161.056C200.984 161.056 201.584 161.608 201.584 162.592V162.964C201.284 162.556 200.744 162.268 200.012 162.268C198.728 162.268 197.828 163.048 197.828 164.224C197.828 165.34 198.692 166.18 199.88 166.18C200.672 166.18 201.272 165.82 201.584 165.232V166H203.048V162.448C203.048 160.792 202.04 159.784 200.312 159.784ZM200.42 165.124C199.676 165.124 199.268 164.74 199.268 164.152C199.268 163.564 199.688 163.18 200.432 163.18C201.152 163.18 201.596 163.588 201.596 164.128C201.596 164.704 201.14 165.124 200.42 165.124ZM207.345 166.18C209.181 166.18 210.441 164.86 210.441 163C210.441 161.116 209.193 159.784 207.345 159.784C205.509 159.784 204.261 161.116 204.261 163C204.261 164.86 205.521 166.18 207.345 166.18ZM207.345 164.884C206.361 164.884 205.785 164.104 205.785 162.988C205.785 161.86 206.361 161.08 207.345 161.08C208.329 161.08 208.929 161.86 208.929 162.988C208.929 164.104 208.329 164.884 207.345 164.884Z" fill="white"/>
<rect x="223" y="150" width="52" height="24" rx="12" fill="#8080FF"/>
<path d="M233.155 166C235.963 166 237.451 164.248 237.451 161.764C237.451 159.304 236.035 157.6 233.359 157.6H230.275V166H233.155ZM231.835 159.004H233.239C235.027 159.004 235.831 160.084 235.831 161.788C235.831 163.48 234.943 164.596 233.143 164.596H231.835V159.004ZM241.896 157.444L240.936 159.244H242.064L243.312 157.444H241.896ZM242.784 163.12C242.784 164.26 242.328 164.92 241.476 164.92C240.66 164.92 240.264 164.416 240.264 163.432V159.964H238.776V163.78C238.776 165.28 239.556 166.156 240.948 166.156C241.824 166.156 242.472 165.712 242.808 164.944V166H244.284V159.964H242.784V163.12ZM248.385 164.176L246.885 159.964H245.301L247.665 166H249.105L251.469 159.964H249.909L248.385 164.176ZM253.268 159.052C253.772 159.052 254.144 158.692 254.144 158.2C254.144 157.72 253.784 157.36 253.268 157.36C252.752 157.36 252.38 157.72 252.38 158.2C252.38 158.692 252.764 159.052 253.268 159.052ZM254.012 166V159.964H252.524V166H254.012ZM260.007 160.936C259.599 160.168 258.963 159.784 258.111 159.784C256.467 159.784 255.339 161.188 255.339 163.012C255.339 164.836 256.359 166.18 257.979 166.18C259.047 166.18 259.695 165.58 260.019 164.884V166H261.495V157.36H260.007V160.936ZM258.411 164.884C257.487 164.884 256.863 164.164 256.863 163.012C256.863 161.848 257.487 161.08 258.447 161.08C259.431 161.08 260.031 161.86 260.031 162.964C260.031 164.08 259.407 164.884 258.411 164.884ZM265.288 159.784C264.388 159.784 263.668 160.084 263.128 160.456V161.812C263.62 161.344 264.256 161.056 265 161.056C265.96 161.056 266.56 161.608 266.56 162.592V162.964C266.26 162.556 265.72 162.268 264.988 162.268C263.704 162.268 262.804 163.048 262.804 164.224C262.804 165.34 263.668 166.18 264.856 166.18C265.648 166.18 266.248 165.82 266.56 165.232V166H268.024V162.448C268.024 160.792 267.016 159.784 265.288 159.784ZM265.396 165.124C264.652 165.124 264.244 164.74 264.244 164.152C264.244 163.564 264.664 163.18 265.408 163.18C266.128 163.18 266.572 163.588 266.572 164.128C266.572 164.704 266.116 165.124 265.396 165.124Z" fill="white"/>
<rect x="281" y="150" width="53" height="24" rx="12" fill="#00AFF4"/>
<path d="M290.989 162.532H294.805C294.709 163.96 293.881 164.8 292.405 164.8C290.725 164.8 289.633 163.564 289.633 161.836C289.633 160.144 290.605 158.824 292.693 158.824C294.013 158.824 294.973 159.34 295.549 159.82V158.272C294.889 157.768 293.905 157.36 292.573 157.36C289.621 157.36 288.001 159.364 288.001 161.824C288.001 164.332 289.753 166.24 292.369 166.24C294.793 166.24 296.293 164.74 296.293 161.992V161.248H291.265L290.989 162.532ZM303.064 162.52C303.064 160.768 302.02 159.784 300.352 159.784C298.42 159.784 297.28 161.104 297.28 162.952C297.28 164.932 298.612 166.18 300.64 166.18C301.576 166.18 302.368 165.904 302.824 165.544V164.332C302.344 164.704 301.636 164.932 300.928 164.932C299.68 164.932 298.948 164.344 298.804 163.312H303.064V162.52ZM300.352 160.996C301.168 160.996 301.708 161.476 301.72 162.376H298.84C298.96 161.548 299.452 160.996 300.352 160.996ZM306.383 166.18C307.823 166.18 308.795 165.388 308.795 164.212C308.795 163.348 308.339 162.736 307.235 162.448L306.251 162.196C305.795 162.076 305.591 161.86 305.591 161.548C305.591 161.176 305.903 160.972 306.551 160.972C307.223 160.972 307.931 161.188 308.471 161.608V160.36C307.979 160.048 307.331 159.784 306.455 159.784C305.003 159.784 304.091 160.516 304.091 161.596C304.091 162.424 304.583 162.988 305.591 163.264L306.587 163.552C307.103 163.708 307.271 163.948 307.271 164.26C307.271 164.74 306.887 164.992 306.227 164.992C305.507 164.992 304.703 164.68 304.091 164.188V165.46C304.763 165.952 305.519 166.18 306.383 166.18ZM312.295 159.964V158.02L310.807 158.416V159.964H309.379V161.2H310.807V166H312.295V161.2H313.879V159.964H312.295ZM316.033 159.124C316.033 158.812 316.165 158.62 316.489 158.62C316.921 158.62 317.293 159.268 318.001 159.268C318.709 159.268 319.129 158.776 319.129 157.876H318.325C318.337 158.176 318.193 158.38 317.881 158.38C317.437 158.38 317.077 157.72 316.381 157.72C315.673 157.72 315.241 158.212 315.253 159.124H316.033ZM316.933 159.784C316.033 159.784 315.313 160.084 314.773 160.456V161.812C315.265 161.344 315.901 161.056 316.645 161.056C317.605 161.056 318.205 161.608 318.205 162.592V162.964C317.905 162.556 317.365 162.268 316.633 162.268C315.349 162.268 314.449 163.048 314.449 164.224C314.449 165.34 315.313 166.18 316.501 166.18C317.293 166.18 317.893 165.82 318.205 165.232V166H319.669V162.448C319.669 160.792 318.661 159.784 316.933 159.784ZM317.041 165.124C316.297 165.124 315.889 164.74 315.889 164.152C315.889 163.564 316.309 163.18 317.053 163.18C317.773 163.18 318.217 163.588 318.217 164.128C318.217 164.704 317.761 165.124 317.041 165.124ZM323.966 166.18C325.802 166.18 327.062 164.86 327.062 163C327.062 161.116 325.814 159.784 323.966 159.784C322.13 159.784 320.882 161.116 320.882 163C320.882 164.86 322.142 166.18 323.966 166.18ZM323.966 164.884C322.982 164.884 322.406 164.104 322.406 162.988C322.406 161.86 322.982 161.08 323.966 161.08C324.95 161.08 325.55 161.86 325.55 162.988C325.55 164.104 324.95 164.884 323.966 164.884Z" fill="white"/>
<g clip-path="url(#clip0_181_4438)">
<rect x="70" y="192" width="46" height="46" rx="23" fill="#29CC7A"/>
<path d="M104.746 232.703C108.68 234.372 110.747 236.307 112.68 240.113C114.613 243.919 117.146 249.126 112.08 251.196C107.013 253.264 106.08 245.987 104.413 243.25C102.08 239.379 101.48 236.174 104.746 232.703Z" fill="#F79C13"/>
<path d="M113.614 250.327C116.814 247.523 116.948 244.72 117.347 243.718C117.748 242.717 119.681 238.578 120.015 237.176C120.347 235.773 121.081 234.906 118.814 232.703C116.547 230.499 115.28 230.967 114.014 233.236L111.281 238.511C111.281 238.511 107.68 242.249 107.214 246.055C106.747 249.86 110.081 253.399 113.614 250.327Z" fill="#F79C13"/>
<path d="M103.413 218.282C104.079 216.214 105.013 214.277 105.146 215.679C105.229 217.394 105.497 219.095 105.946 220.753C106.613 222.689 106.28 223.289 104.679 221.754C103.079 220.219 103.013 219.751 103.413 218.282Z" fill="#C44FA3"/>
<path d="M79.613 262.678C77.6796 262.144 76.9455 260.876 77.6128 258.806C77.9531 257.798 78.2426 256.772 78.4794 255.734C77.1457 254.6 76.7453 253.064 77.9456 249.526C79.1458 245.987 77.4126 243.852 77.2124 238.577C77.0122 233.303 76.0789 227.696 84.6124 228.096C93.146 228.496 101.814 230.633 105.481 233.17C109.147 235.707 108.347 243.652 108.347 245.387C108.347 247.123 109.814 253.198 109.68 257.604C109.548 262.01 93.8133 266.283 79.613 262.678Z" fill="#F79C13"/>
<path d="M88.537 204.284L87.708 204.536C87.4965 204.601 87.3771 204.825 87.4411 205.036L87.4608 205.1C87.5247 205.311 87.7484 205.431 87.9599 205.367L88.7889 205.114C89.0004 205.05 89.1198 204.827 89.0549 204.615L89.0361 204.551C88.9713 204.34 88.7485 204.219 88.537 204.284Z" fill="#4070EF"/>
<path d="M97.946 236.242L101.08 235.507C103.414 232.836 106.013 228.831 101.614 228.898L93.2793 230.833L97.946 236.242Z" fill="#F79C13"/>
<path d="M98.9468 233.971C99.883 232.67 100.479 231.156 100.681 229.565L92.5469 229.899L98.9468 233.971Z" fill="#C44FA3"/>
<path d="M96.2798 230.833C104.88 230.499 105.613 225.559 105.48 222.355C105.346 219.151 103.813 217.615 102.479 216.147C101.213 211.874 99.6795 205.598 89.9456 207.868C81.9459 209.804 81.6123 214.144 81.4121 220.018C81.2119 224.692 83.0786 231.435 96.2798 230.833Z" fill="#D65A9F"/>
<path d="M100.612 211.206C99.0124 208.469 96.1456 206.399 89.9449 207.868C88.9919 208.089 88.0566 208.379 87.1449 208.736C86.9908 208.897 86.9043 209.113 86.9043 209.337C86.9043 209.561 86.9908 209.776 87.1449 209.938C89.412 212.074 94.0787 212.875 96.4126 213.075C98.7455 213.276 100.213 213.476 100.612 211.206Z" fill="#C44FA3"/>
<path d="M102.481 216.146C102.139 214.853 101.716 213.582 101.214 212.341C101.814 214.678 96.0133 214.611 92.8138 213.676C89.6134 212.741 87.5465 213.275 87.6799 215.745C87.9713 218.172 88.5766 220.551 89.4799 222.822C90.4132 224.959 93.0131 230.166 99.4807 229.565C100.467 229.497 101.428 229.231 102.31 228.783C103.191 228.336 103.975 227.716 104.614 226.962C105.303 225.529 105.602 223.94 105.48 222.355C105.281 219.151 104.147 217.748 102.481 216.146Z" fill="#E66EA6"/>
<path d="M93.8385 215.989C94.2728 215.911 94.5049 215.172 94.3564 214.337C94.2079 213.502 93.7351 212.888 93.2999 212.966C92.8657 213.044 92.6326 213.783 92.7811 214.618C92.9306 215.453 93.4033 216.067 93.8385 215.989Z" fill="#3C2439"/>
<path d="M99.9766 216.232C100.376 216.161 100.589 215.485 100.453 214.723C100.318 213.961 99.8845 213.401 99.486 213.472C99.0875 213.542 98.8741 214.218 99.0094 214.981C99.1448 215.743 99.5781 216.303 99.9766 216.232Z" fill="#3C2439"/>
<path d="M92.4805 218.549L102.081 219.618C101.881 221.354 102.081 221.019 102.348 222.355C102.614 223.689 100.214 224.625 97.2139 223.556C94.2137 222.488 93.2136 220.285 92.4805 218.549Z" fill="#4D1616"/>
<path d="M98.147 220.819H100.613L101.014 220.552L101.347 221.287C101.347 221.287 99.3473 221.421 98.5474 221.354C97.7466 221.287 98.147 220.819 98.147 220.819Z" fill="#A1C4FF"/>
<path d="M97.2135 223.556C98.2371 223.935 99.3227 224.116 100.414 224.091C99.7475 222.489 98.0134 221.153 95.814 220.552H93.5469C94.3608 221.97 95.6655 223.038 97.2135 223.556Z" fill="#C12254"/>
<path d="M102.081 219.618L101.814 220.953C101.798 221.064 101.742 221.167 101.656 221.241C101.57 221.314 101.46 221.355 101.348 221.353L101.014 220.619L100.614 220.886H98.1473C96.947 220.752 93.5473 220.686 93.5473 220.686C93.114 220.039 92.7559 219.344 92.4805 218.616L102.081 219.618Z" fill="white"/>
<path d="M93.5473 220.703H94.4139L93.88 218.701L92.4805 218.567C92.7512 219.318 93.1093 220.036 93.5473 220.703Z" fill="#E6EAF0"/>
<path d="M84.6119 223.624C82.5488 224.039 80.449 224.241 78.3455 224.225C78.1453 224.158 77.9451 224.024 77.9451 223.824C78.0118 222.555 77.8116 220.686 76.2786 219.818C76.1771 219.729 76.1085 219.608 76.084 219.474C76.0596 219.341 76.0812 219.204 76.1451 219.084C76.8783 218.082 77.0117 217.215 76.6113 215.011C76.5446 214.811 76.7448 214.611 77.0117 214.611C79.573 214.943 82.0967 215.524 84.5452 216.347C84.5866 216.378 84.6204 216.419 84.6439 216.465C84.6665 216.511 84.6787 216.562 84.6787 216.614C84.3422 218.789 84.549 221.014 85.2783 223.089C85.4118 223.356 85.3451 223.424 84.6119 223.624Z" fill="#D65A9F"/>
<path d="M82.9453 212.074C89.0116 208.469 92.2787 208.268 98.1457 208.535C96.4793 205.531 94.3456 203.462 88.8123 204.864C83.278 206.265 82.9453 212.074 82.9453 212.074Z" fill="#4070EF"/>
<path d="M88.8122 204.864H88.4785C89.7549 205.801 90.6347 207.182 90.9449 208.737H91.0116C93.3708 208.367 95.7657 208.277 98.1456 208.469C96.4791 205.532 94.3455 203.462 88.8122 204.864Z" fill="white"/>
<path d="M100.08 210.405C99.5736 209.653 98.9147 209.016 98.1467 208.536C95.7669 208.343 93.3729 208.434 91.0137 208.803L95.4135 207.534C101.547 206.199 102.813 207.334 102.614 208.268C102.414 209.203 101.681 209.671 100.08 210.405Z" fill="#0F809C"/>
<path d="M100.079 206.934C97.6792 206.8 96.5456 207.601 94.7457 208.669C92.9448 209.737 91.5453 210.405 87.1445 209.938C92.3451 207.868 97.745 206.733 100.079 206.934Z" fill="#13B7BF"/>
<path d="M79.8123 228.831C76.1457 230.766 74.9454 233.705 74.2122 235.64C73.4791 237.576 71.7449 238.778 70.0785 241.115C68.412 243.452 69.0116 245.52 69.4788 246.389C69.945 247.256 69.7457 249.66 71.8784 250.327C74.012 250.995 77.2792 251.196 79.0124 251.262C80.4637 251.314 81.9102 251.448 83.3455 251.663C84.6792 251.796 85.4791 250.862 85.8795 249.393C86.279 247.924 87.2123 244.119 84.8127 244.119H81.2795C80.7992 243.77 80.256 243.52 79.6788 243.384C80.1403 243.199 80.5407 242.889 80.8359 242.487C81.1301 242.087 81.3068 241.611 81.3453 241.115C82.398 240.364 83.2646 239.382 83.8794 238.244C84.2788 237.376 85.4791 235.306 84.9462 232.836C84.4123 230.366 82.2129 227.562 79.8123 228.831Z" fill="#F79C13"/>
<path d="M82.1471 228.163C81.7466 226.828 82.5465 225.76 84.5467 225.159C86.5468 224.558 89.0132 225.76 93.5474 229.699C98.0806 233.637 98.9472 233.971 98.9472 233.971L97.9472 236.241L82.1471 228.163Z" fill="#F79C13"/>
<path d="M78.7461 229.498C81.4126 229.298 83.4128 232.102 83.2126 235.573C83.0133 239.045 82.346 240.18 81.3459 241.048C81.9531 240.953 82.5312 240.724 83.0387 240.378C83.5463 240.031 83.9702 239.576 84.2794 239.045C85.397 237.155 85.7316 234.903 85.2128 232.769C84.6798 229.966 83.2793 228.564 80.813 228.296C80.4737 228.241 80.1259 228.288 79.8129 228.431C78.9463 228.831 78.6794 229.098 78.7461 229.498Z" fill="#3C2439"/>
<path d="M119.809 235.662C120.106 235.386 119.533 234.286 118.53 233.206C117.528 232.125 116.475 231.473 116.178 231.749C115.882 232.026 116.454 233.125 117.456 234.205C118.459 235.286 119.512 235.938 119.809 235.662Z" fill="#D65A9F"/>
<path d="M116.081 232.035C116.147 230.968 116.214 230.366 116.214 230.366C115.503 229.615 114.877 228.786 114.346 227.896C114.11 227.434 113.843 226.988 113.547 226.561C113.464 226.428 113.426 226.273 113.438 226.117C113.45 225.96 113.512 225.812 113.613 225.693C113.794 225.556 114.011 225.478 114.236 225.465C114.462 225.454 114.687 225.509 114.88 225.626C115.445 226.031 115.96 226.502 116.413 227.028L117.014 227.629C119.081 228.698 119.213 229.632 119.28 230.901C119.347 232.169 119.213 234.038 119.213 234.038L116.081 232.035Z" fill="#D65A9F"/>
<path d="M116.281 228.765C116.08 227.362 115.548 226.228 115.281 224.492C115.014 222.756 115.014 222.889 114.947 222.422C114.938 222.343 114.945 222.263 114.967 222.187C114.988 222.11 115.025 222.038 115.075 221.976C115.125 221.914 115.186 221.863 115.255 221.825C115.325 221.787 115.402 221.763 115.481 221.755C115.699 221.73 115.92 221.784 116.102 221.906C116.285 222.028 116.42 222.21 116.481 222.422L117.347 225.761L119.947 227.763C120.881 228.498 121.348 229.766 121.014 231.902C120.726 233.195 120.347 234.467 119.881 235.708L116.08 232.035L116.281 228.765Z" fill="#D65A9F"/>
<path d="M92.4805 215.345L100.881 215.746L101.68 217.348L92.4805 216.347V215.345Z" fill="#E66EA6"/>
<path d="M98.0805 225.226C99.1501 225.369 100.238 225.301 101.281 225.025C101.881 224.825 101.547 225.559 100.881 225.893C100.529 226.123 100.125 226.262 99.7056 226.297C99.2864 226.332 98.8653 226.262 98.4809 226.094C97.7468 225.626 97.5476 225.159 98.0805 225.226Z" fill="#C44FA3"/>
<path d="M92.6807 219.084L102.014 219.818L102.081 219.618L92.4805 218.549L92.6807 219.084Z" fill="#5E1B1B"/>
<path d="M91.6137 219.618C93.1468 219.284 92.8798 218.216 92.7473 217.682C92.6138 217.148 92.5471 217.482 92.3469 218.015C92.1486 218.478 91.8779 218.906 91.547 219.284C91.3468 219.485 91.3468 219.685 91.6137 219.618Z" fill="#C44FA3"/>
<path d="M84.6119 223.623C82.5497 224.04 80.449 224.241 78.3454 224.225H77.7458C77.679 224.091 77.679 224.025 77.945 223.958C79.2788 223.69 81.2122 223.156 82.9454 222.689C83.124 222.624 83.2772 222.503 83.3797 222.343C83.4831 222.182 83.5301 221.993 83.515 221.804C83.5 221.614 83.4229 221.434 83.296 221.293C83.1691 221.151 82.999 221.055 82.812 221.02L76.2786 219.885C75.6789 219.819 75.6789 219.351 76.1451 219.218L82.279 218.616C82.4379 218.634 82.5977 218.588 82.7227 218.488C82.8477 218.388 82.9276 218.242 82.9454 218.082C82.9633 217.924 82.9172 217.764 82.8167 217.638C82.717 217.513 82.5713 217.433 82.4125 217.415L78.212 216.146C77.0784 215.879 76.7457 215.612 76.6122 215.212C76.5455 215.012 76.7457 214.812 77.0117 214.812C79.5739 215.143 82.0967 215.724 84.5452 216.548C84.5875 216.579 84.6204 216.619 84.6439 216.665C84.6664 216.711 84.6787 216.763 84.6787 216.815C84.3431 218.989 84.5489 221.214 85.2793 223.29C85.4127 223.356 85.346 223.423 84.6119 223.623Z" fill="#C44FA3"/>
<path d="M120.681 229.365C120.88 230.566 120.347 230.633 119.947 229.899C119.548 229.165 118.947 228.497 117.281 228.096C116.93 227.609 116.528 227.162 116.08 226.761C115.876 225.974 115.743 225.169 115.681 224.358C115.614 223.958 115.214 222.288 115.814 222.155C115.898 222.12 115.989 222.108 116.079 222.119C116.17 222.13 116.256 222.164 116.329 222.218C116.403 222.27 116.461 222.342 116.499 222.425C116.538 222.507 116.554 222.598 116.547 222.689C116.614 223.089 117.481 226.161 117.481 226.161C117.607 225.14 117.83 224.134 118.147 223.156C118.347 222.822 119.214 222.889 119.147 223.757C119.08 224.625 118.814 226.695 118.814 226.695L120.347 225.426C120.548 225.292 121.014 224.959 121.147 225.226C121.281 225.492 121.281 225.759 121.081 225.96C120.88 226.161 119.748 227.362 119.748 227.362C120.169 227.972 120.484 228.65 120.681 229.365Z" fill="#E66EA6"/>
<path d="M103.479 232.035C106.812 235.573 108.212 241.115 108.345 245.387C109.013 243.719 109.546 237.576 106.279 233.438C105.612 232.569 103.612 231.768 103.612 231.768L103.479 232.035Z" fill="#3C2439"/>
<path d="M82.1465 228.163C84.6128 228.096 86.1459 228.296 87.2794 229.565C88.413 230.833 90.2796 233.437 95.4802 235.039C96.813 235.44 96.3468 235.573 94.4134 235.306C92.1867 235.048 90.0456 234.295 88.146 233.103C86.7925 231.993 85.5631 230.74 84.4794 229.365C84.0197 228.812 83.3844 228.435 82.6794 228.296L82.1465 228.163Z" fill="#F08024"/>
<path d="M103.479 232.035C102.479 233.705 101.28 235.106 101.746 235.106C102.213 235.106 103.813 233.505 104.214 232.903L103.479 232.035Z" fill="#F08024"/>
<path d="M102.215 240.113C101.748 238.177 99.815 235.841 99.815 235.841C99.815 235.841 103.015 237.309 103.148 235.44C103.281 233.571 101.081 234.372 99.6816 235.573C95.9482 233.304 94.4142 233.705 95.2141 236.242C96.014 238.778 99.4814 235.908 99.4814 235.908C98.4926 237.812 97.8177 239.863 97.4812 241.983" stroke="#E6EAF0" stroke-linecap="round" stroke-linejoin="round"/>
</g>
<g clip-path="url(#clip1_181_4438)">
<rect x="70" y="192" width="46" height="46" rx="23" fill="#5883F2"/>
<path d="M117.232 219.793C114.302 219.913 112.713 220.901 107.894 223.585C107.076 224.041 106.045 223.59 104.454 222.837C103.147 222.217 102.392 221.853 101.167 221.189C100.537 220.847 99.594 220.846 98.5759 222.089C97.8609 222.963 97.4004 224.016 97.2447 225.134C97.0482 226.209 97.4725 227.023 98.3304 227.627C100.555 229.195 103.482 230.542 105.902 230.851C107.416 231.044 109.386 230.86 110.834 230.059C115.395 227.533 115.447 226.854 117.388 226.33C118.709 225.974 120.326 226.987 121.818 227.391C123.076 227.732 124.111 227.739 124.86 227.037C126.057 225.916 125.387 223.976 124.168 222.548C122.577 220.683 120.147 219.672 117.232 219.793Z" fill="#FF78B9"/>
<path d="M106.511 222.842C106.098 222.553 105.62 222.37 105.12 222.31C104.438 222.228 103.844 222.796 103.244 223.688C102.29 225.106 102.268 225.925 102.29 227.261C102.311 228.572 102.919 230.201 103.272 230.617C103.547 230.94 103.967 231.286 105.683 231.629C107.289 231.949 108.445 232.078 110.613 231.144C112.62 230.28 113.263 229.667 113.366 229.076L113.421 228.54C113.421 228.54 111.949 229.513 111.352 228.805C110.755 228.096 110.084 225.648 110.113 223.861C110.137 222.379 111.537 221.576 111.537 221.576C111.537 221.576 111.343 220.576 110.584 220.814C109.148 221.319 107.78 222 106.511 222.842Z" fill="#EB459F"/>
<path d="M106.347 227.124C106.305 227.143 106.26 227.152 106.215 227.152C106.154 227.151 106.094 227.134 106.042 227.101C105.991 227.067 105.95 227.02 105.924 226.965C105.046 225.035 105.295 223.793 105.949 222.533C106.147 222.613 106.335 222.716 106.508 222.839C105.913 223.985 105.728 224.999 106.504 226.701C106.539 226.778 106.542 226.866 106.513 226.945C106.483 227.024 106.424 227.089 106.347 227.124Z" fill="#EB459F"/>
<path d="M106.347 227.124C106.305 227.143 106.26 227.152 106.215 227.152C106.154 227.151 106.094 227.134 106.042 227.101C105.991 227.067 105.95 227.02 105.924 226.965C105.046 225.035 105.295 223.793 105.949 222.533C106.147 222.613 106.335 222.716 106.508 222.839C105.913 223.985 105.728 224.999 106.504 226.701C106.539 226.778 106.542 226.866 106.513 226.945C106.483 227.024 106.424 227.089 106.347 227.124Z" fill="#D11583"/>
<path d="M91.2913 201.708C91.4385 201.289 92.0095 200.258 92.3156 200.188C92.5124 200.143 92.9042 200.24 92.7338 200.506C92.5495 200.793 91.8691 201.484 91.5868 201.817C91.4723 201.951 91.2449 201.84 91.2913 201.708Z" fill="black"/>
<path d="M85.1633 207.076C84.7641 206.378 84.7252 206.271 84.6603 206.213C84.5423 206.107 84.2093 205.892 83.7031 205.431C83.2249 204.996 83.0325 204.464 83.8393 203.77C85.7084 202.16 90.3306 201.078 91.8997 201.524C93.4962 201.978 96.5984 204.496 97.5718 206.301C98.1256 207.327 97.3382 208.105 95.7936 208.442C95.527 208.5 95.3393 208.65 94.7682 209.013L85.1633 207.076Z" fill="#423D80"/>
<path d="M89.5765 206.435C89.5165 206.435 89.4579 206.417 89.408 206.384C86.9794 204.761 86.6707 204.671 84.6873 205.018C84.6084 205.031 84.5274 205.013 84.4621 204.967C84.3968 204.92 84.3523 204.85 84.3385 204.771C84.3247 204.692 84.3426 204.611 84.3884 204.546C84.4341 204.48 84.5039 204.435 84.5826 204.42C86.7457 204.042 87.1797 204.164 89.7454 205.88C89.7995 205.916 89.8406 205.969 89.8625 206.03C89.8844 206.091 89.886 206.158 89.8671 206.22C89.8481 206.282 89.8097 206.337 89.7574 206.376C89.705 206.415 89.6416 206.435 89.5765 206.435L89.5765 206.435Z" fill="black"/>
<path d="M95.4414 210.282C95.111 207.93 93.8876 206.687 90.1514 205.868C85.5791 204.865 83.4828 207.936 83.3837 210.926C83.2811 214.02 84.8222 215.586 89.1944 215.547C89.4001 215.545 89.6052 215.542 89.8097 215.537C90.6007 218.2 91.8351 220.71 93.461 222.962C95.1501 225.296 97.4287 227.139 100.064 228.304L101.12 221.125C97.6934 218.616 96.1003 213.62 95.4414 210.282Z" fill="#FF78B9"/>
<path d="M91.1201 209.692C91.1201 210.938 89.5839 210.836 88.3373 210.836C87.0907 210.836 86.0801 210.938 86.0801 209.692C86.0801 209.093 86.3179 208.519 86.7412 208.095C87.1645 207.672 87.7387 207.434 88.3373 207.434C89.5838 207.434 91.1201 208.445 91.1201 209.692Z" fill="white"/>
<path d="M87.3015 210.063C87.8735 210.063 88.3373 209.599 88.3373 209.027C88.3373 208.455 87.8735 207.991 87.3015 207.991C86.7294 207.991 86.2656 208.455 86.2656 209.027C86.2656 209.599 86.7294 210.063 87.3015 210.063Z" fill="black"/>
<path d="M93.2916 212.312C93.2916 212.973 91.3248 213.738 88.8985 213.738C86.4723 213.738 84.9336 212.973 84.9336 212.312C84.9336 211.652 86.4723 211.896 88.8985 211.896C91.3248 211.896 93.2916 211.652 93.2916 212.312Z" fill="black"/>
<path d="M86.5938 213.465C87.347 213.655 88.1217 213.747 88.8985 213.738C90.8664 213.738 92.5318 213.235 93.0909 212.692H91.1971C89.1504 212.692 87.3891 213.009 86.5938 213.465Z" fill="#D11583"/>
<path d="M92.174 214.963C91.4134 215.248 90.6252 215.453 89.8223 215.574C89.8845 215.774 89.9516 215.967 90.0171 216.162C90.8331 216.033 91.6335 215.819 92.4053 215.524C92.4797 215.493 92.5388 215.435 92.5698 215.36C92.6007 215.286 92.6008 215.202 92.5702 215.128C92.5395 215.054 92.4805 214.994 92.4062 214.963C92.3319 214.933 92.2484 214.932 92.174 214.963V214.963Z" fill="#EB459F"/>
<path d="M99.8178 217.658C98.124 215.516 97.8711 215.573 96.6285 216.141C94.8113 216.972 92.0596 218.581 91.3847 219.101C90.7097 219.62 90.2583 220.15 90.492 220.831C91.0617 222.341 91.7182 223.817 92.4584 225.251C92.8478 225.874 93.1204 225.796 93.5682 225.699C94.0159 225.601 94.5027 225.445 94.5027 225.445C94.5027 225.445 96.6833 227.587 99.3766 228.768L99.8178 217.658Z" fill="#423D80"/>
<path d="M93.6391 224.561C93.5853 224.561 93.5325 224.547 93.486 224.52C93.4395 224.492 93.4011 224.453 93.3746 224.407C92.7266 223.264 92.1599 222.078 91.6787 220.856C91.6511 220.781 91.6544 220.698 91.6878 220.626C91.7212 220.553 91.782 220.496 91.857 220.468C91.9319 220.44 92.0149 220.443 92.0879 220.475C92.161 220.508 92.218 220.569 92.2467 220.643C92.7187 221.835 93.2721 222.993 93.9032 224.108C93.9292 224.154 93.9428 224.207 93.9424 224.26C93.942 224.313 93.9277 224.365 93.901 224.41C93.8743 224.456 93.8361 224.494 93.7901 224.52C93.7442 224.547 93.6921 224.561 93.6391 224.561V224.561Z" fill="black"/>
<path d="M92.5165 207.923C93.7626 208.857 94.4812 209.094 94.775 209.013C95.0426 208.914 95.2782 208.743 95.4564 208.52L93.4965 205.768L88.4863 205.022C88.4863 205.022 91.0368 206.813 92.5165 207.923Z" fill="#423D80"/>
<path d="M94.8956 223.908C94.8417 223.908 94.7889 223.894 94.7424 223.867C94.6959 223.84 94.6575 223.801 94.6311 223.754C93.983 222.612 93.4164 221.425 92.9353 220.204C92.9071 220.128 92.9099 220.045 92.9432 219.972C92.9765 219.898 93.0376 219.841 93.1129 219.813C93.1882 219.785 93.2717 219.788 93.3449 219.821C93.4181 219.854 93.4751 219.915 93.5034 219.991C93.9753 221.182 94.5287 222.34 95.1596 223.456C95.1857 223.502 95.1992 223.554 95.1988 223.607C95.1984 223.66 95.1842 223.712 95.1575 223.758C95.1307 223.803 95.0925 223.841 95.0466 223.868C95.0006 223.894 94.9485 223.908 94.8956 223.908V223.908Z" fill="black"/>
</g>
<path d="M126.254 206.28C128.004 206.28 129.222 205.244 129.222 203.06V196.2H127.416V202.85C127.416 204.026 126.828 204.572 125.946 204.572C125.12 204.572 124.63 204.292 124.266 204.012V205.734C124.658 206.028 125.414 206.28 126.254 206.28ZM135.259 198.748C134.167 198.748 133.397 199.224 132.991 200.022V195.92H131.255V206H132.991V202.22C132.991 200.988 133.565 200.232 134.601 200.232C135.567 200.232 135.973 200.792 135.973 201.968V206H137.709V201.59C137.709 199.784 136.771 198.748 135.259 198.748ZM142.732 206.21C144.874 206.21 146.344 204.67 146.344 202.5C146.344 200.302 144.888 198.748 142.732 198.748C140.59 198.748 139.134 200.302 139.134 202.5C139.134 204.67 140.604 206.21 142.732 206.21ZM142.732 204.698C141.584 204.698 140.912 203.788 140.912 202.486C140.912 201.17 141.584 200.26 142.732 200.26C143.88 200.26 144.58 201.17 144.58 202.486C144.58 203.788 143.88 204.698 142.732 204.698ZM151.871 198.748C150.765 198.748 149.981 199.252 149.589 200.078V198.958H147.867V206H149.603V202.22C149.603 200.988 150.177 200.232 151.213 200.232C152.179 200.232 152.585 200.792 152.585 201.968V206H154.321V201.59C154.321 199.798 153.383 198.748 151.871 198.748ZM168.697 203.844L166.807 196.2H164.553L162.649 203.83L160.899 196.2H159.009L161.529 206H163.629L165.659 198.048L167.689 206H169.775L172.421 196.2H170.531L168.697 203.844ZM174.589 197.894C175.177 197.894 175.611 197.474 175.611 196.9C175.611 196.34 175.191 195.92 174.589 195.92C173.987 195.92 173.553 196.34 173.553 196.9C173.553 197.474 174.001 197.894 174.589 197.894ZM175.457 206V198.958H173.721V206H175.457ZM179.203 206V195.92H177.467V206H179.203ZM182.949 206V195.92H181.213V206H182.949ZM185.827 197.894C186.415 197.894 186.849 197.474 186.849 196.9C186.849 196.34 186.429 195.92 185.827 195.92C185.225 195.92 184.791 196.34 184.791 196.9C184.791 197.474 185.239 197.894 185.827 197.894ZM186.695 206V198.958H184.959V206H186.695ZM191.155 198.748C190.105 198.748 189.265 199.098 188.635 199.532V201.114C189.209 200.568 189.951 200.232 190.819 200.232C191.939 200.232 192.639 200.876 192.639 202.024V202.458C192.289 201.982 191.659 201.646 190.805 201.646C189.307 201.646 188.257 202.556 188.257 203.928C188.257 205.23 189.265 206.21 190.651 206.21C191.575 206.21 192.275 205.79 192.639 205.104V206H194.347V201.856C194.347 199.924 193.171 198.748 191.155 198.748ZM191.281 204.978C190.413 204.978 189.937 204.53 189.937 203.844C189.937 203.158 190.427 202.71 191.295 202.71C192.135 202.71 192.653 203.186 192.653 203.816C192.653 204.488 192.121 204.978 191.281 204.978ZM204.064 198.748C203.084 198.748 202.356 199.238 201.936 200.064C201.586 199.252 200.9 198.748 199.948 198.748C198.996 198.748 198.31 199.252 197.932 200.134V198.958H196.21V206H197.946V201.814C197.96 200.904 198.492 200.232 199.262 200.232C200.032 200.232 200.452 200.75 200.452 201.646V206H202.174V201.618C202.188 200.82 202.706 200.232 203.504 200.232C204.288 200.232 204.68 200.75 204.68 201.744V206H206.416V201.436C206.416 199.77 205.534 198.748 204.064 198.748ZM210.62 206.21C212.3 206.21 213.434 205.286 213.434 203.914C213.434 202.906 212.902 202.192 211.614 201.856L210.466 201.562C209.934 201.422 209.696 201.17 209.696 200.806C209.696 200.372 210.06 200.134 210.816 200.134C211.6 200.134 212.426 200.386 213.056 200.876V199.42C212.482 199.056 211.726 198.748 210.704 198.748C209.01 198.748 207.946 199.602 207.946 200.862C207.946 201.828 208.52 202.486 209.696 202.808L210.858 203.144C211.46 203.326 211.656 203.606 211.656 203.97C211.656 204.53 211.208 204.824 210.438 204.824C209.598 204.824 208.66 204.46 207.946 203.886V205.37C208.73 205.944 209.612 206.21 210.62 206.21Z" fill="#DCDDDE"/>
<path d="M134.544 257.792L130.288 246.912H128.784L124.464 258H125.984L127.232 254.688H131.792L133.088 258.112L134.544 257.792ZM131.28 253.36H127.744L129.504 248.704L131.28 253.36ZM137.672 258V246.448L136.248 246.672V258H137.672ZM141.834 257.408C142.138 257.472 142.362 257.52 142.778 257.6L143.69 257.76C144.778 257.952 145.13 258.272 145.13 258.736C145.13 259.376 144.298 259.888 142.81 259.888C141.322 259.888 140.538 259.44 140.538 258.832C140.538 258.304 140.938 257.856 141.834 257.408ZM144.202 252.848C144.202 253.76 143.594 254.48 142.618 254.48C141.674 254.48 141.066 253.792 141.066 252.912C141.066 251.984 141.658 251.248 142.618 251.248C143.562 251.248 144.202 251.936 144.202 252.848ZM144.586 250.848C144.058 250.432 143.386 250.208 142.618 250.208C141.066 250.208 139.69 251.216 139.69 252.864C139.69 253.904 140.266 254.72 141.114 255.136C140.602 255.44 140.314 255.808 140.314 256.176C140.314 256.464 140.458 256.736 140.794 256.976C139.722 257.552 139.178 258.16 139.178 258.944C139.178 260.288 140.762 260.912 142.746 260.912C144.73 260.912 146.474 260.16 146.474 258.56C146.474 257.376 145.466 256.864 143.85 256.576L143.306 256.48C141.962 256.24 141.69 256.176 141.69 255.904C141.69 255.76 141.85 255.584 142.074 255.44C142.266 255.472 142.458 255.488 142.65 255.488C144.202 255.488 145.578 254.496 145.578 252.864C145.578 252.432 145.482 252.032 145.274 251.68L146.73 251.536L146.522 250.256L144.586 250.848ZM154.281 258V250.368H152.857V255.648C152.169 256.384 151.401 256.88 150.649 256.88C149.817 256.88 149.481 256.352 149.481 255.568V250.368H148.057V255.92C148.057 257.296 148.809 258.16 150.265 258.16C151.337 258.16 152.249 257.568 152.969 256.896L153.145 258H154.281ZM162.702 254.032C162.702 251.92 161.678 250.208 159.454 250.208C157.534 250.208 156.094 251.712 156.094 254.16C156.094 256.96 157.646 258.16 159.63 258.16C160.894 258.16 161.87 257.776 162.686 257.136L162.478 255.856C161.646 256.512 160.846 256.944 159.742 256.944C158.414 256.944 157.566 256.112 157.518 254.336H162.702C162.702 254.24 162.702 254.112 162.702 254.032ZM161.262 253.264H157.582C157.806 251.952 158.558 251.328 159.438 251.328C160.542 251.328 161.086 252.032 161.262 253.264ZM161.838 247.216L160.11 246.832L158.734 249.248H159.694L161.838 247.216ZM175.343 258V252.448C175.343 251.072 174.639 250.208 173.183 250.208C172.111 250.208 171.183 250.816 170.495 251.472C170.207 250.688 169.599 250.208 168.479 250.208C167.407 250.208 166.543 250.816 165.823 251.472L165.647 250.368H164.511V258H165.935V252.72C166.623 251.984 167.343 251.488 168.095 251.488C168.927 251.488 169.215 252.016 169.215 252.8V258H170.639V252.72C171.327 251.984 172.047 251.488 172.799 251.488C173.631 251.488 173.919 252.016 173.919 252.8V258H175.343ZM187.873 253.968C187.873 251.424 186.513 250.208 184.865 250.208C183.745 250.208 182.961 250.8 182.385 251.472L182.209 250.368H181.073V260.976L182.497 260.768V257.76C182.977 257.952 183.665 258.096 184.417 258.096C186.273 258.096 187.873 256.752 187.873 253.968ZM186.433 254.032C186.433 255.92 185.553 256.896 184.353 256.896C183.537 256.896 183.073 256.768 182.497 256.48V252.816C183.105 252 183.777 251.472 184.641 251.472C185.681 251.472 186.433 252.368 186.433 254.032ZM196.307 254.192C196.307 251.68 194.803 250.208 192.755 250.208C190.723 250.208 189.251 251.68 189.251 254.192C189.251 256.704 190.723 258.16 192.755 258.16C194.803 258.16 196.307 256.704 196.307 254.192ZM194.867 254.192C194.867 255.792 194.163 256.976 192.755 256.976C191.411 256.976 190.691 255.76 190.691 254.192C190.691 252.592 191.379 251.408 192.755 251.408C194.131 251.408 194.867 252.624 194.867 254.192ZM204.488 258V246.448L203.064 246.672V250.608C202.584 250.416 201.896 250.272 201.144 250.272C199.288 250.272 197.688 251.616 197.688 254.4C197.688 256.96 199.048 258.16 200.696 258.16C201.816 258.16 202.6 257.584 203.176 256.896L203.352 258H204.488ZM203.064 255.552C202.456 256.368 201.784 256.896 200.904 256.896C199.88 256.896 199.128 256.016 199.128 254.336C199.128 252.448 199.992 251.472 201.192 251.472C202.008 251.472 202.472 251.6 203.064 251.904V255.552ZM212.905 254.032C212.905 251.92 211.881 250.208 209.657 250.208C207.737 250.208 206.297 251.712 206.297 254.16C206.297 256.96 207.849 258.16 209.833 258.16C211.097 258.16 212.073 257.776 212.889 257.136L212.681 255.856C211.849 256.512 211.049 256.944 209.945 256.944C208.617 256.944 207.769 256.112 207.721 254.336H212.905C212.905 254.24 212.905 254.112 212.905 254.032ZM211.465 253.264H207.785C208.009 251.952 208.761 251.328 209.641 251.328C210.745 251.328 211.289 252.032 211.465 253.264ZM229.061 258V252.448C229.061 251.072 228.357 250.208 226.901 250.208C225.829 250.208 224.901 250.816 224.213 251.472C223.925 250.688 223.317 250.208 222.197 250.208C221.125 250.208 220.261 250.816 219.541 251.472L219.365 250.368H218.229V258H219.653V252.72C220.341 251.984 221.061 251.488 221.813 251.488C222.645 251.488 222.933 252.016 222.933 252.8V258H224.357V252.72C225.045 251.984 225.765 251.488 226.517 251.488C227.349 251.488 227.637 252.016 227.637 252.8V258H229.061ZM237.452 254.032C237.452 251.92 236.428 250.208 234.204 250.208C232.284 250.208 230.844 251.712 230.844 254.16C230.844 256.96 232.396 258.16 234.38 258.16C235.644 258.16 236.62 257.776 237.436 257.136L237.228 255.856C236.396 256.512 235.596 256.944 234.492 256.944C233.164 256.944 232.316 256.112 232.268 254.336H237.452C237.452 254.24 237.452 254.112 237.452 254.032ZM236.012 253.264H232.332C232.556 251.952 233.308 251.328 234.188 251.328C235.292 251.328 235.836 252.032 236.012 253.264ZM248.952 254.032C248.952 251.92 247.928 250.208 245.704 250.208C243.784 250.208 242.344 251.712 242.344 254.16C242.344 256.96 243.896 258.16 245.88 258.16C247.144 258.16 248.12 257.776 248.936 257.136L248.728 255.856C247.896 256.512 247.096 256.944 245.992 256.944C244.664 256.944 243.816 256.112 243.768 254.336H248.952C248.952 254.24 248.952 254.112 248.952 254.032ZM247.512 253.264H243.832C244.056 251.952 244.808 251.328 245.688 251.328C246.792 251.328 247.336 252.032 247.512 253.264ZM256.588 257.904L254.012 254.048L256.428 250.368H254.94L253.276 252.976L251.532 250.256L250.124 250.48L252.54 254.096L249.964 258H251.468L253.26 255.152L255.18 258.112L256.588 257.904ZM264.967 253.968C264.967 251.424 263.607 250.208 261.959 250.208C260.839 250.208 260.055 250.8 259.479 251.472L259.303 250.368H258.167V260.976L259.591 260.768V257.76C260.071 257.952 260.759 258.096 261.511 258.096C263.367 258.096 264.967 256.752 264.967 253.968ZM263.527 254.032C263.527 255.92 262.647 256.896 261.447 256.896C260.631 256.896 260.167 256.768 259.591 256.48V252.816C260.199 252 260.871 251.472 261.735 251.472C262.775 251.472 263.527 252.368 263.527 254.032ZM268.312 258V246.448L266.888 246.672V258H268.312ZM272.395 247.936C272.395 247.44 271.995 247.024 271.499 247.024C271.003 247.024 270.587 247.44 270.587 247.936C270.587 248.432 271.003 248.832 271.499 248.832C271.995 248.832 272.395 248.432 272.395 247.936ZM272.203 258V250.368H270.779V258H272.203ZM280.286 257.344L280.078 256.064C279.294 256.736 278.622 256.912 277.854 256.912C276.51 256.912 275.566 256.032 275.566 254.176C275.566 252.4 276.446 251.456 277.694 251.456C278.574 251.456 279.294 251.728 279.998 252.304L280.206 250.912C279.63 250.496 278.83 250.208 277.71 250.208C275.726 250.208 274.126 251.584 274.126 254.192C274.126 256.736 275.63 258.16 277.678 258.16C278.702 258.16 279.502 257.936 280.286 257.344ZM287.834 258V252.656C287.834 250.96 286.938 250.208 285.082 250.208C283.898 250.208 283.034 250.48 282.122 250.848L282.314 252.08C283.146 251.712 284.026 251.424 284.954 251.424C285.834 251.424 286.41 251.76 286.41 252.72V253.04C283.226 253.376 281.594 254.128 281.594 256.032C281.594 257.328 282.458 258.16 283.834 258.16C285.082 258.16 285.914 257.6 286.522 256.976L286.682 258H287.834ZM286.41 255.904C285.77 256.56 284.97 256.976 284.138 256.976C283.418 256.976 283.002 256.576 283.002 255.952C283.002 255.168 283.594 254.4 286.41 254.128V255.904ZM294.314 251.568L294.09 250.208C292.842 250.272 291.962 251.056 291.418 251.92L291.178 250.368H290.042V258H291.466V253.488C291.978 252.48 293.05 251.632 294.314 251.568ZM305.916 254.192C305.916 251.68 304.412 250.208 302.364 250.208C300.332 250.208 298.86 251.68 298.86 254.192C298.86 256.704 300.332 258.16 302.364 258.16C304.412 258.16 305.916 256.704 305.916 254.192ZM304.476 254.192C304.476 255.792 303.772 256.976 302.364 256.976C301.02 256.976 300.3 255.76 300.3 254.192C300.3 252.592 300.988 251.408 302.364 251.408C303.74 251.408 304.476 252.624 304.476 254.192ZM317.533 260.768V250.752C316.525 250.448 315.709 250.272 314.557 250.272C312.349 250.272 310.813 251.616 310.813 254.4C310.813 256.96 312.173 258.16 313.821 258.16C314.861 258.16 315.597 257.632 316.109 257.12V260.976L317.533 260.768ZM316.109 255.648C315.533 256.368 314.829 256.896 314.029 256.896C313.005 256.896 312.253 256.016 312.253 254.336C312.253 252.384 313.085 251.488 314.573 251.488C315.277 251.488 315.629 251.584 316.109 251.76V255.648ZM325.968 258V250.368H324.544V255.648C323.856 256.384 323.088 256.88 322.336 256.88C321.504 256.88 321.168 256.352 321.168 255.568V250.368H319.744V255.92C319.744 257.296 320.496 258.16 321.952 258.16C323.024 258.16 323.936 257.568 324.656 256.896L324.832 258H325.968ZM334.39 254.032C334.39 251.92 333.366 250.208 331.142 250.208C329.222 250.208 327.782 251.712 327.782 254.16C327.782 256.96 329.334 258.16 331.318 258.16C332.582 258.16 333.558 257.776 334.374 257.136L334.166 255.856C333.334 256.512 332.534 256.944 331.43 256.944C330.102 256.944 329.254 256.112 329.206 254.336H334.39C334.39 254.24 334.39 254.112 334.39 254.032ZM332.95 253.264H329.27C329.494 251.952 330.246 251.328 331.126 251.328C332.23 251.328 332.774 252.032 332.95 253.264ZM345.89 254.032C345.89 251.92 344.866 250.208 342.642 250.208C340.722 250.208 339.282 251.712 339.282 254.16C339.282 256.96 340.834 258.16 342.818 258.16C344.082 258.16 345.058 257.776 345.874 257.136L345.666 255.856C344.834 256.512 344.034 256.944 342.93 256.944C341.602 256.944 340.754 256.112 340.706 254.336H345.89C345.89 254.24 345.89 254.112 345.89 254.032ZM344.45 253.264H340.77C340.994 251.952 341.746 251.328 342.626 251.328C343.73 251.328 344.274 252.032 344.45 253.264ZM345.026 247.216L343.298 246.832L341.922 249.248H342.882L345.026 247.216ZM356.99 258V252.656C356.99 250.96 356.094 250.208 354.238 250.208C353.054 250.208 352.19 250.48 351.278 250.848L351.47 252.08C352.302 251.712 353.182 251.424 354.11 251.424C354.99 251.424 355.566 251.76 355.566 252.72V253.04C352.382 253.376 350.75 254.128 350.75 256.032C350.75 257.328 351.614 258.16 352.99 258.16C354.238 258.16 355.07 257.6 355.678 256.976L355.838 258H356.99ZM355.566 255.904C354.926 256.56 354.126 256.976 353.294 256.976C352.574 256.976 352.158 256.576 352.158 255.952C352.158 255.168 352.75 254.4 355.566 254.128V255.904ZM364.394 247.024L363.594 246.832L362.282 250.56H363.93L364.394 247.024ZM367.306 247.024L366.506 246.832L365.194 250.56H366.842L367.306 247.024ZM370.912 257.408C371.216 257.472 371.44 257.52 371.856 257.6L372.768 257.76C373.856 257.952 374.208 258.272 374.208 258.736C374.208 259.376 373.376 259.888 371.888 259.888C370.4 259.888 369.616 259.44 369.616 258.832C369.616 258.304 370.016 257.856 370.912 257.408ZM373.28 252.848C373.28 253.76 372.672 254.48 371.696 254.48C370.752 254.48 370.144 253.792 370.144 252.912C370.144 251.984 370.736 251.248 371.696 251.248C372.64 251.248 373.28 251.936 373.28 252.848ZM373.664 250.848C373.136 250.432 372.464 250.208 371.696 250.208C370.144 250.208 368.768 251.216 368.768 252.864C368.768 253.904 369.344 254.72 370.192 255.136C369.68 255.44 369.392 255.808 369.392 256.176C369.392 256.464 369.536 256.736 369.872 256.976C368.8 257.552 368.256 258.16 368.256 258.944C368.256 260.288 369.84 260.912 371.824 260.912C373.808 260.912 375.552 260.16 375.552 258.56C375.552 257.376 374.544 256.864 372.928 256.576L372.384 256.48C371.04 256.24 370.768 256.176 370.768 255.904C370.768 255.76 370.928 255.584 371.152 255.44C371.344 255.472 371.536 255.488 371.728 255.488C373.28 255.488 374.656 254.496 374.656 252.864C374.656 252.432 374.56 252.032 374.352 251.68L375.808 251.536L375.6 250.256L373.664 250.848ZM383.218 254.032C383.218 251.92 382.194 250.208 379.97 250.208C378.05 250.208 376.61 251.712 376.61 254.16C376.61 256.96 378.162 258.16 380.146 258.16C381.41 258.16 382.386 257.776 383.202 257.136L382.994 255.856C382.162 256.512 381.362 256.944 380.258 256.944C378.93 256.944 378.082 256.112 378.034 254.336H383.218C383.218 254.24 383.218 254.112 383.218 254.032ZM381.778 253.264H378.098C378.322 251.952 379.074 251.328 379.954 251.328C381.058 251.328 381.602 252.032 381.778 253.264ZM390.354 255.872C390.354 254.416 389.506 253.872 387.618 253.392C386.418 253.088 386.034 252.8 386.034 252.288C386.034 251.744 386.482 251.408 387.346 251.408C388.146 251.408 388.994 251.68 389.666 252.064L389.89 250.72C389.17 250.4 388.322 250.208 387.378 250.208C385.714 250.208 384.69 251.104 384.69 252.32C384.69 253.68 385.41 254.224 387.202 254.672C388.578 255.008 389.01 255.264 389.01 255.968C389.01 256.608 388.434 256.976 387.458 256.976C386.418 256.976 385.49 256.592 384.77 256.096L384.562 257.44C385.218 257.808 386.338 258.16 387.346 258.16C389.314 258.16 390.354 257.264 390.354 255.872ZM395.768 258.032L395.576 256.816C395.4 256.848 395.176 256.864 394.92 256.864C394.12 256.864 393.864 256.48 393.864 255.856V251.568H395.704L395.512 250.368H393.864V247.616L392.472 247.824V250.368H391.32V251.568H392.472V256.112C392.472 257.648 393.352 258.128 394.696 258.128C395.192 258.128 395.528 258.08 395.768 258.032ZM403.271 258V252.656C403.271 250.96 402.375 250.208 400.519 250.208C399.335 250.208 398.471 250.48 397.559 250.848L397.751 252.08C398.583 251.712 399.463 251.424 400.391 251.424C401.271 251.424 401.847 251.76 401.847 252.72V253.04C398.663 253.376 397.031 254.128 397.031 256.032C397.031 257.328 397.895 258.16 399.271 258.16C400.519 258.16 401.351 257.6 401.959 256.976L402.119 258H403.271ZM401.847 255.904C401.207 256.56 400.407 256.976 399.575 256.976C398.855 256.976 398.439 256.576 398.439 255.952C398.439 255.168 399.031 254.4 401.847 254.128V255.904ZM402.823 247.376L401.895 247.184C401.767 247.808 401.623 248 401.383 248C401.143 248 400.951 247.92 400.343 247.6C399.911 247.376 399.623 247.232 399.207 247.232C398.471 247.232 398.039 247.84 397.895 249.056L398.823 249.248C398.951 248.608 399.095 248.432 399.335 248.432C399.575 248.432 399.767 248.512 400.375 248.832C400.807 249.056 401.095 249.2 401.511 249.2C402.247 249.2 402.679 248.592 402.823 247.376ZM412.103 254.192C412.103 251.68 410.599 250.208 408.551 250.208C406.519 250.208 405.047 251.68 405.047 254.192C405.047 256.704 406.519 258.16 408.551 258.16C410.599 258.16 412.103 256.704 412.103 254.192ZM410.663 254.192C410.663 255.792 409.959 256.976 408.551 256.976C407.207 256.976 406.487 255.76 406.487 254.192C406.487 252.592 407.175 251.408 408.551 251.408C409.927 251.408 410.663 252.624 410.663 254.192ZM423.801 258V246.448L422.377 246.672V250.608C421.897 250.416 421.209 250.272 420.457 250.272C418.601 250.272 417.001 251.616 417.001 254.4C417.001 256.96 418.361 258.16 420.009 258.16C421.129 258.16 421.913 257.584 422.489 256.896L422.665 258H423.801ZM422.377 255.552C421.769 256.368 421.097 256.896 420.217 256.896C419.193 256.896 418.441 256.016 418.441 254.336C418.441 252.448 419.305 251.472 420.505 251.472C421.321 251.472 421.785 251.6 422.377 251.904V255.552ZM431.818 258V252.656C431.818 250.96 430.922 250.208 429.066 250.208C427.882 250.208 427.018 250.48 426.106 250.848L426.298 252.08C427.13 251.712 428.01 251.424 428.938 251.424C429.818 251.424 430.394 251.76 430.394 252.72V253.04C427.21 253.376 425.578 254.128 425.578 256.032C425.578 257.328 426.442 258.16 427.818 258.16C429.066 258.16 429.898 257.6 430.506 256.976L430.666 258H431.818ZM430.394 255.904C429.754 256.56 428.954 256.976 428.122 256.976C427.402 256.976 426.986 256.576 426.986 255.952C426.986 255.168 427.578 254.4 430.394 254.128V255.904ZM439.27 247.936C439.27 247.44 438.87 247.024 438.374 247.024C437.878 247.024 437.462 247.44 437.462 247.936C437.462 248.432 437.878 248.832 438.374 248.832C438.87 248.832 439.27 248.432 439.27 247.936ZM439.078 258V250.368H437.654V258H439.078ZM447.657 258V252.448C447.657 251.072 446.889 250.208 445.449 250.208C444.361 250.208 443.465 250.816 442.745 251.472L442.569 250.368H441.433V258H442.857V252.72C443.545 251.984 444.312 251.488 445.065 251.488C445.897 251.488 446.233 252.016 446.233 252.8V258H447.657ZM456.494 254.192C456.494 251.68 454.99 250.208 452.942 250.208C450.91 250.208 449.438 251.68 449.438 254.192C449.438 256.704 450.91 258.16 452.942 258.16C454.99 258.16 456.494 256.704 456.494 254.192ZM455.054 254.192C455.054 255.792 454.35 256.976 452.942 256.976C451.598 256.976 450.878 255.76 450.878 254.192C450.878 252.592 451.566 251.408 452.942 251.408C454.318 251.408 455.054 252.624 455.054 254.192ZM464.122 250.368H462.666L460.746 256.288L458.762 250.256L457.338 250.48L460.042 258.032H461.402L464.122 250.368ZM471.193 258V252.656C471.193 250.96 470.297 250.208 468.441 250.208C467.257 250.208 466.393 250.48 465.481 250.848L465.673 252.08C466.505 251.712 467.385 251.424 468.313 251.424C469.193 251.424 469.769 251.76 469.769 252.72V253.04C466.585 253.376 464.953 254.128 464.953 256.032C464.953 257.328 465.817 258.16 467.193 258.16C468.441 258.16 469.273 257.6 469.881 256.976L470.041 258H471.193ZM469.769 255.904C469.129 256.56 468.329 256.976 467.497 256.976C466.777 256.976 466.361 256.576 466.361 255.952C466.361 255.168 466.953 254.4 469.769 254.128V255.904ZM479.129 257.344L478.921 256.064C478.137 256.736 477.465 256.912 476.697 256.912C475.353 256.912 474.409 256.032 474.409 254.176C474.409 252.4 475.289 251.456 476.537 251.456C477.417 251.456 478.137 251.728 478.841 252.304L479.049 250.912C478.473 250.496 477.673 250.208 476.553 250.208C474.569 250.208 472.969 251.584 472.969 254.192C472.969 256.736 474.473 258.16 476.521 258.16C477.545 258.16 478.345 257.936 479.129 257.344ZM477.609 259.328L475.897 258.928L474.681 261.056H475.641L477.609 259.328ZM486.677 258V252.656C486.677 250.96 485.781 250.208 483.925 250.208C482.741 250.208 481.877 250.48 480.965 250.848L481.157 252.08C481.989 251.712 482.869 251.424 483.797 251.424C484.677 251.424 485.253 251.76 485.253 252.72V253.04C482.069 253.376 480.437 254.128 480.437 256.032C480.437 257.328 481.301 258.16 482.677 258.16C483.925 258.16 484.757 257.6 485.365 256.976L485.525 258H486.677ZM485.253 255.904C484.613 256.56 483.813 256.976 482.981 256.976C482.261 256.976 481.845 256.576 481.845 255.952C481.845 255.168 482.437 254.4 485.253 254.128V255.904ZM486.229 247.376L485.301 247.184C485.173 247.808 485.029 248 484.789 248C484.549 248 484.357 247.92 483.749 247.6C483.317 247.376 483.029 247.232 482.613 247.232C481.877 247.232 481.445 247.84 481.301 249.056L482.229 249.248C482.357 248.608 482.501 248.432 482.741 248.432C482.981 248.432 483.173 248.512 483.781 248.832C484.213 249.056 484.501 249.2 484.917 249.2C485.653 249.2 486.085 248.592 486.229 247.376ZM495.51 254.192C495.51 251.68 494.006 250.208 491.958 250.208C489.926 250.208 488.454 251.68 488.454 254.192C488.454 256.704 489.926 258.16 491.958 258.16C494.006 258.16 495.51 256.704 495.51 254.192ZM494.07 254.192C494.07 255.792 493.366 256.976 491.958 256.976C490.614 256.976 489.894 255.76 489.894 254.192C489.894 252.592 490.582 251.408 491.958 251.408C493.334 251.408 494.07 252.624 494.07 254.192ZM504.455 247.92L504.247 246.624C504.103 246.624 503.927 246.592 503.639 246.592C502.279 246.592 501.271 247.168 501.271 248.688V250.368H500.119V251.568H501.271V258H502.663V251.568H504.375L504.199 250.368H502.663V248.832C502.663 248.128 503.063 247.856 503.719 247.856C504.007 247.856 504.295 247.888 504.455 247.92ZM512.291 254.192C512.291 251.68 510.787 250.208 508.739 250.208C506.707 250.208 505.235 251.68 505.235 254.192C505.235 256.704 506.707 258.16 508.739 258.16C510.787 258.16 512.291 256.704 512.291 254.192ZM510.851 254.192C510.851 255.792 510.147 256.976 508.739 256.976C507.395 256.976 506.675 255.76 506.675 254.192C506.675 252.592 507.363 251.408 508.739 251.408C510.115 251.408 510.851 252.624 510.851 254.192ZM518.376 251.568L518.152 250.208C516.904 250.272 516.024 251.056 515.48 251.92L515.24 250.368H514.104V258H515.528V253.488C516.04 252.48 517.112 251.632 518.376 251.568ZM525.734 254.032C525.734 251.92 524.71 250.208 522.486 250.208C520.566 250.208 519.126 251.712 519.126 254.16C519.126 256.96 520.678 258.16 522.661 258.16C523.926 258.16 524.902 257.776 525.718 257.136L525.51 255.856C524.678 256.512 523.878 256.944 522.774 256.944C521.446 256.944 520.598 256.112 520.549 254.336H525.734C525.734 254.24 525.734 254.112 525.734 254.032ZM524.294 253.264H520.614C520.838 251.952 521.59 251.328 522.47 251.328C523.574 251.328 524.118 252.032 524.294 253.264ZM532.87 255.872C532.87 254.416 532.022 253.872 530.134 253.392C528.934 253.088 528.55 252.8 528.55 252.288C528.55 251.744 528.998 251.408 529.862 251.408C530.662 251.408 531.51 251.68 532.182 252.064L532.406 250.72C531.686 250.4 530.838 250.208 529.894 250.208C528.23 250.208 527.206 251.104 527.206 252.32C527.206 253.68 527.926 254.224 529.718 254.672C531.094 255.008 531.526 255.264 531.526 255.968C531.526 256.608 530.95 256.976 529.974 256.976C528.934 256.976 528.006 256.592 527.286 256.096L527.078 257.44C527.734 257.808 528.854 258.16 529.862 258.16C531.83 258.16 532.87 257.264 532.87 255.872ZM536.348 247.936C536.348 247.44 535.948 247.024 535.452 247.024C534.956 247.024 534.54 247.44 534.54 247.936C534.54 248.432 534.956 248.832 535.452 248.832C535.948 248.832 536.348 248.432 536.348 247.936ZM536.156 258V250.368H534.732V258H536.156ZM540.319 257.408C540.623 257.472 540.847 257.52 541.263 257.6L542.175 257.76C543.263 257.952 543.615 258.272 543.615 258.736C543.615 259.376 542.783 259.888 541.295 259.888C539.807 259.888 539.023 259.44 539.023 258.832C539.023 258.304 539.423 257.856 540.319 257.408ZM542.687 252.848C542.687 253.76 542.079 254.48 541.103 254.48C540.159 254.48 539.551 253.792 539.551 252.912C539.551 251.984 540.143 251.248 541.103 251.248C542.047 251.248 542.687 251.936 542.687 252.848ZM543.071 250.848C542.543 250.432 541.871 250.208 541.103 250.208C539.551 250.208 538.175 251.216 538.175 252.864C538.175 253.904 538.751 254.72 539.599 255.136C539.087 255.44 538.799 255.808 538.799 256.176C538.799 256.464 538.943 256.736 539.279 256.976C538.207 257.552 537.663 258.16 537.663 258.944C537.663 260.288 539.247 260.912 541.231 260.912C543.215 260.912 544.959 260.16 544.959 258.56C544.959 257.376 543.951 256.864 542.335 256.576L541.791 256.48C540.447 256.24 540.175 256.176 540.175 255.904C540.175 255.76 540.335 255.584 540.559 255.44C540.751 255.472 540.943 255.488 541.135 255.488C542.687 255.488 544.063 254.496 544.063 252.864C544.063 252.432 543.967 252.032 543.759 251.68L545.215 251.536L545.007 250.256L543.071 250.848ZM552.797 258V252.448C552.797 251.072 552.029 250.208 550.589 250.208C549.501 250.208 548.621 250.816 547.997 251.376V246.448L546.573 246.672V258H547.997V252.72C548.685 251.984 549.453 251.488 550.205 251.488C551.037 251.488 551.373 252.016 551.373 252.8V258H552.797ZM558.675 258.032L558.483 256.816C558.307 256.848 558.083 256.864 557.827 256.864C557.027 256.864 556.771 256.48 556.771 255.856V251.568H558.611L558.419 250.368H556.771V247.616L555.379 247.824V250.368H554.227V251.568H555.379V256.112C555.379 257.648 556.259 258.128 557.603 258.128C558.099 258.128 558.435 258.08 558.675 258.032ZM562.225 246.96H560.577L560.113 250.496L560.913 250.688L562.225 246.96ZM565.137 246.96H563.489L563.025 250.496L563.825 250.688L565.137 246.96ZM573.236 249.584C573.236 247.84 571.908 246.752 569.956 246.752C568.644 246.752 567.508 247.216 566.532 247.936L566.74 249.408C567.636 248.672 568.628 248.112 569.876 248.112C570.948 248.112 571.732 248.672 571.732 249.648C571.732 250.672 571.06 251.184 569.556 251.808L568.9 252.08L569.108 254.72L570.036 254.512L570.18 252.928C572.084 252.064 573.236 251.312 573.236 249.584ZM570.372 258V256.096H568.772V258H570.372Z" fill="#DCDDDE"/>
<path d="M130.444 221.032H126.616V217.6H125.056V226H126.616V222.436H130.444V226H131.992V217.6H130.444V221.032ZM136.493 217.444L135.533 219.244H136.661L137.909 217.444H136.493ZM135.905 219.784C135.005 219.784 134.285 220.084 133.745 220.456V221.812C134.237 221.344 134.873 221.056 135.617 221.056C136.577 221.056 137.177 221.608 137.177 222.592V222.964C136.877 222.556 136.337 222.268 135.605 222.268C134.321 222.268 133.421 223.048 133.421 224.224C133.421 225.34 134.285 226.18 135.473 226.18C136.265 226.18 136.865 225.82 137.177 225.232V226H138.641V222.448C138.641 220.792 137.633 219.784 135.905 219.784ZM136.013 225.124C135.269 225.124 134.861 224.74 134.861 224.152C134.861 223.564 135.281 223.18 136.025 223.18C136.745 223.18 137.189 223.588 137.189 224.128C137.189 224.704 136.733 225.124 136.013 225.124ZM142.924 219.34H146.824L143.056 226H144.772L148.408 219.268V218.02H142.924V219.34ZM159.31 219.784C158.47 219.784 157.846 220.204 157.486 220.912C157.186 220.216 156.598 219.784 155.782 219.784C154.966 219.784 154.378 220.216 154.054 220.972V219.964H152.578V226H154.066V222.412C154.078 221.632 154.534 221.056 155.194 221.056C155.854 221.056 156.214 221.5 156.214 222.268V226H157.69V222.244C157.702 221.56 158.146 221.056 158.83 221.056C159.502 221.056 159.838 221.5 159.838 222.352V226H161.326V222.088C161.326 220.66 160.57 219.784 159.31 219.784ZM163.706 219.052C164.21 219.052 164.582 218.692 164.582 218.2C164.582 217.72 164.222 217.36 163.706 217.36C163.19 217.36 162.818 217.72 162.818 218.2C162.818 218.692 163.202 219.052 163.706 219.052ZM164.45 226V219.964H162.962V226H164.45ZM169.581 219.784C168.633 219.784 167.961 220.216 167.625 220.924V219.964H166.149V226H167.637V222.76C167.637 221.704 168.129 221.056 169.017 221.056C169.845 221.056 170.193 221.536 170.193 222.544V226H171.681V222.22C171.681 220.684 170.877 219.784 169.581 219.784ZM177.221 223.12C177.221 224.26 176.765 224.92 175.913 224.92C175.097 224.92 174.701 224.416 174.701 223.432V219.964H173.213V223.78C173.213 225.28 173.993 226.156 175.385 226.156C176.261 226.156 176.909 225.712 177.245 224.944V226H178.721V219.964H177.221V223.12ZM182.643 219.964V218.02L181.155 218.416V219.964H179.727V221.2H181.155V226H182.643V221.2H184.227V219.964H182.643ZM187.81 226.18C189.646 226.18 190.906 224.86 190.906 223C190.906 221.116 189.658 219.784 187.81 219.784C185.974 219.784 184.726 221.116 184.726 223C184.726 224.86 185.986 226.18 187.81 226.18ZM187.81 224.884C186.826 224.884 186.25 224.104 186.25 222.988C186.25 221.86 186.826 221.08 187.81 221.08C188.794 221.08 189.394 221.86 189.394 222.988C189.394 224.104 188.794 224.884 187.81 224.884ZM194.203 226.18C195.643 226.18 196.615 225.388 196.615 224.212C196.615 223.348 196.159 222.736 195.055 222.448L194.071 222.196C193.615 222.076 193.411 221.86 193.411 221.548C193.411 221.176 193.723 220.972 194.371 220.972C195.043 220.972 195.751 221.188 196.291 221.608V220.36C195.799 220.048 195.151 219.784 194.275 219.784C192.823 219.784 191.911 220.516 191.911 221.596C191.911 222.424 192.403 222.988 193.411 223.264L194.407 223.552C194.923 223.708 195.091 223.948 195.091 224.26C195.091 224.74 194.707 224.992 194.047 224.992C193.327 224.992 192.523 224.68 191.911 224.188V225.46C192.583 225.952 193.339 226.18 194.203 226.18ZM201.049 221.62C201.049 221.26 201.105 220.972 201.217 220.756C201.337 220.532 201.497 220.372 201.697 220.276C201.905 220.18 202.133 220.132 202.381 220.132C202.629 220.132 202.853 220.18 203.053 220.276C203.253 220.372 203.413 220.532 203.533 220.756C203.653 220.972 203.713 221.26 203.713 221.62C203.713 221.972 203.653 222.26 203.533 222.484C203.413 222.7 203.253 222.86 203.053 222.964C202.853 223.06 202.629 223.108 202.381 223.108C202.133 223.108 201.905 223.06 201.697 222.964C201.497 222.86 201.337 222.7 201.217 222.484C201.105 222.26 201.049 221.972 201.049 221.62ZM208.03 219.664V221.188L210.166 219.736V226H211.666V218.02H210.454L208.03 219.664ZM215.302 220.996C214.918 220.996 214.582 220.92 214.294 220.768C214.014 220.608 213.794 220.392 213.634 220.12C213.474 219.84 213.394 219.52 213.394 219.16C213.394 218.792 213.47 218.472 213.622 218.2C213.782 217.92 214.002 217.704 214.282 217.552C214.57 217.392 214.91 217.312 215.302 217.312C215.678 217.312 216.01 217.392 216.298 217.552C216.586 217.704 216.81 217.92 216.97 218.2C217.13 218.472 217.21 218.792 217.21 219.16C217.21 219.52 217.13 219.84 216.97 220.12C216.81 220.392 216.586 220.608 216.298 220.768C216.01 220.92 215.678 220.996 215.302 220.996ZM215.314 220.288C215.698 220.288 215.978 220.184 216.154 219.976C216.338 219.768 216.43 219.496 216.43 219.16C216.43 218.928 216.386 218.728 216.298 218.56C216.218 218.384 216.094 218.248 215.926 218.152C215.766 218.056 215.562 218.008 215.314 218.008C214.922 218.008 214.634 218.112 214.45 218.32C214.266 218.528 214.174 218.808 214.174 219.16C214.174 219.496 214.266 219.768 214.45 219.976C214.634 220.184 214.922 220.288 215.314 220.288ZM230.897 217.6H228.605L226.613 224.092L224.693 217.6H222.317L221.777 226H223.229L223.649 219.004L225.713 226H227.417L229.505 219.076L230.021 226H231.569L230.897 217.6ZM236.267 219.244L237.515 217.444H236.099L235.139 219.244H236.267ZM235.763 226.18C237.599 226.18 238.859 224.86 238.859 223C238.859 221.116 237.611 219.784 235.763 219.784C233.927 219.784 232.679 221.116 232.679 223C232.679 224.86 233.939 226.18 235.763 226.18ZM235.763 224.884C234.779 224.884 234.203 224.104 234.203 222.988C234.203 221.86 234.779 221.08 235.763 221.08C236.747 221.08 237.347 221.86 237.347 222.988C237.347 224.104 236.747 224.884 235.763 224.884ZM244.46 220.936C244.052 220.168 243.416 219.784 242.564 219.784C240.92 219.784 239.792 221.188 239.792 223.012C239.792 224.836 240.812 226.18 242.432 226.18C243.5 226.18 244.148 225.58 244.472 224.884V226H245.948V217.36H244.46V220.936ZM242.864 224.884C241.94 224.884 241.316 224.164 241.316 223.012C241.316 221.848 241.94 221.08 242.9 221.08C243.884 221.08 244.484 221.86 244.484 222.964C244.484 224.08 243.86 224.884 242.864 224.884ZM251.553 223.12C251.553 224.26 251.097 224.92 250.245 224.92C249.429 224.92 249.033 224.416 249.033 223.432V219.964H247.545V223.78C247.545 225.28 248.325 226.156 249.717 226.156C250.593 226.156 251.241 225.712 251.577 224.944V226H253.053V219.964H251.553V223.12ZM256.231 226V217.36H254.743V226H256.231ZM260.63 226.18C262.466 226.18 263.726 224.86 263.726 223C263.726 221.116 262.478 219.784 260.63 219.784C258.794 219.784 257.546 221.116 257.546 223C257.546 224.86 258.806 226.18 260.63 226.18ZM260.63 224.884C259.646 224.884 259.07 224.104 259.07 222.988C259.07 221.86 259.646 221.08 260.63 221.08C261.614 221.08 262.214 221.86 262.214 222.988C262.214 224.104 261.614 224.884 260.63 224.884ZM268.209 221.62C268.209 221.26 268.265 220.972 268.377 220.756C268.497 220.532 268.657 220.372 268.857 220.276C269.065 220.18 269.293 220.132 269.541 220.132C269.789 220.132 270.013 220.18 270.213 220.276C270.413 220.372 270.573 220.532 270.693 220.756C270.813 220.972 270.873 221.26 270.873 221.62C270.873 221.972 270.813 222.26 270.693 222.484C270.573 222.7 270.413 222.86 270.213 222.964C270.013 223.06 269.789 223.108 269.541 223.108C269.293 223.108 269.065 223.06 268.857 222.964C268.657 222.86 268.497 222.7 268.377 222.484C268.265 222.26 268.209 221.972 268.209 221.62ZM277.507 222.244H281.107V220.972H277.507V218.956H281.359V217.6H275.947V226H281.407V224.644H277.507V222.244ZM285.076 219.964V218.02L283.588 218.416V219.964H282.16V221.2H283.588V226H285.076V221.2H286.66V219.964H285.076ZM292.943 222.52C292.943 220.768 291.899 219.784 290.231 219.784C288.299 219.784 287.159 221.104 287.159 222.952C287.159 224.932 288.491 226.18 290.519 226.18C291.455 226.18 292.247 225.904 292.703 225.544V224.332C292.223 224.704 291.515 224.932 290.807 224.932C289.559 224.932 288.827 224.344 288.683 223.312H292.943V222.52ZM290.231 220.996C291.047 220.996 291.587 221.476 291.599 222.376H288.719C288.839 221.548 289.331 220.996 290.231 220.996ZM297.126 226.18C297.894 226.18 298.554 226.012 299.13 225.64V224.308C298.734 224.62 298.098 224.872 297.426 224.872C296.106 224.872 295.41 224.056 295.41 222.964C295.41 221.86 296.142 221.092 297.33 221.092C298.014 221.092 298.566 221.284 299.07 221.692V220.252C298.626 219.988 298.026 219.784 297.15 219.784C295.17 219.784 293.886 221.116 293.886 222.976C293.886 224.812 295.17 226.18 297.126 226.18ZM312.635 217.6H310.343L308.351 224.092L306.431 217.6H304.055L303.515 226H304.967L305.387 219.004L307.451 226H309.155L311.243 219.076L311.759 226H313.307L312.635 217.6ZM316.96 219.784C316.06 219.784 315.34 220.084 314.8 220.456V221.812C315.292 221.344 315.928 221.056 316.672 221.056C317.632 221.056 318.232 221.608 318.232 222.592V222.964C317.932 222.556 317.392 222.268 316.66 222.268C315.376 222.268 314.476 223.048 314.476 224.224C314.476 225.34 315.34 226.18 316.528 226.18C317.32 226.18 317.92 225.82 318.232 225.232V226H319.696V222.448C319.696 220.792 318.688 219.784 316.96 219.784ZM317.068 225.124C316.324 225.124 315.916 224.74 315.916 224.152C315.916 223.564 316.336 223.18 317.08 223.18C317.8 223.18 318.244 223.588 318.244 224.128C318.244 224.704 317.788 225.124 317.068 225.124ZM324.149 226.18C324.917 226.18 325.577 226.012 326.153 225.64V224.308C325.757 224.62 325.121 224.872 324.449 224.872C323.129 224.872 322.433 224.056 322.433 222.964C322.433 221.86 323.165 221.092 324.353 221.092C325.037 221.092 325.589 221.284 326.093 221.692V220.252C325.649 219.988 325.049 219.784 324.173 219.784C322.193 219.784 320.909 221.116 320.909 222.976C320.909 224.812 322.193 226.18 324.149 226.18ZM330.901 219.784C329.965 219.784 329.305 220.192 328.957 220.876V217.36H327.469V226H328.957V222.76C328.957 221.704 329.449 221.056 330.337 221.056C331.165 221.056 331.513 221.536 331.513 222.544V226H333.001V222.22C333.001 220.672 332.197 219.784 330.901 219.784ZM336.73 219.784C335.83 219.784 335.11 220.084 334.57 220.456V221.812C335.062 221.344 335.698 221.056 336.442 221.056C337.402 221.056 338.002 221.608 338.002 222.592V222.964C337.702 222.556 337.162 222.268 336.43 222.268C335.146 222.268 334.246 223.048 334.246 224.224C334.246 225.34 335.11 226.18 336.298 226.18C337.09 226.18 337.69 225.82 338.002 225.232V226H339.466V222.448C339.466 220.792 338.458 219.784 336.73 219.784ZM336.838 225.124C336.094 225.124 335.686 224.74 335.686 224.152C335.686 223.564 336.106 223.18 336.85 223.18C337.57 223.18 338.014 223.588 338.014 224.128C338.014 224.704 337.558 225.124 336.838 225.124ZM345.359 220.936C344.951 220.168 344.315 219.784 343.463 219.784C341.819 219.784 340.691 221.188 340.691 223.012C340.691 224.836 341.711 226.18 343.331 226.18C344.399 226.18 345.047 225.58 345.371 224.884V226H346.847V217.36H345.359V220.936ZM343.763 224.884C342.839 224.884 342.215 224.164 342.215 223.012C342.215 221.848 342.839 221.08 343.799 221.08C344.783 221.08 345.383 221.86 345.383 222.964C345.383 224.08 344.759 224.884 343.763 224.884ZM351.216 226.18C353.052 226.18 354.312 224.86 354.312 223C354.312 221.116 353.064 219.784 351.216 219.784C349.38 219.784 348.132 221.116 348.132 223C348.132 224.86 349.392 226.18 351.216 226.18ZM351.216 224.884C350.232 224.884 349.656 224.104 349.656 222.988C349.656 221.86 350.232 221.08 351.216 221.08C352.2 221.08 352.8 221.86 352.8 222.988C352.8 224.104 352.2 224.884 351.216 224.884ZM363.007 220.936C362.599 220.168 361.963 219.784 361.111 219.784C359.467 219.784 358.339 221.188 358.339 223.012C358.339 224.836 359.359 226.18 360.979 226.18C362.047 226.18 362.695 225.58 363.019 224.884V226H364.495V217.36H363.007V220.936ZM361.411 224.884C360.487 224.884 359.863 224.164 359.863 223.012C359.863 221.848 360.487 221.08 361.447 221.08C362.431 221.08 363.031 221.86 363.031 222.964C363.031 224.08 362.407 224.884 361.411 224.884ZM371.564 222.52C371.564 220.768 370.52 219.784 368.852 219.784C366.92 219.784 365.78 221.104 365.78 222.952C365.78 224.932 367.112 226.18 369.14 226.18C370.076 226.18 370.868 225.904 371.324 225.544V224.332C370.844 224.704 370.136 224.932 369.428 224.932C368.18 224.932 367.448 224.344 367.304 223.312H371.564V222.52ZM368.852 220.996C369.668 220.996 370.208 221.476 370.22 222.376H367.34C367.46 221.548 367.952 220.996 368.852 220.996ZM382.771 226L379.999 217.6H377.875L375.127 226H376.723L377.347 224.008H380.515L381.139 226H382.771ZM378.919 218.956L380.119 222.784H377.719L378.919 218.956ZM385.84 226.18C387.28 226.18 388.252 225.388 388.252 224.212C388.252 223.348 387.796 222.736 386.692 222.448L385.708 222.196C385.252 222.076 385.048 221.86 385.048 221.548C385.048 221.176 385.36 220.972 386.008 220.972C386.68 220.972 387.388 221.188 387.928 221.608V220.36C387.436 220.048 386.788 219.784 385.912 219.784C384.46 219.784 383.548 220.516 383.548 221.596C383.548 222.424 384.04 222.988 385.048 223.264L386.044 223.552C386.56 223.708 386.728 223.948 386.728 224.26C386.728 224.74 386.344 224.992 385.684 224.992C384.964 224.992 384.16 224.68 383.548 224.188V225.46C384.22 225.952 384.976 226.18 385.84 226.18ZM391.5 226.18C392.94 226.18 393.912 225.388 393.912 224.212C393.912 223.348 393.456 222.736 392.352 222.448L391.368 222.196C390.912 222.076 390.708 221.86 390.708 221.548C390.708 221.176 391.02 220.972 391.668 220.972C392.34 220.972 393.048 221.188 393.588 221.608V220.36C393.096 220.048 392.448 219.784 391.572 219.784C390.12 219.784 389.208 220.516 389.208 221.596C389.208 222.424 389.7 222.988 390.708 223.264L391.704 223.552C392.22 223.708 392.388 223.948 392.388 224.26C392.388 224.74 392.004 224.992 391.344 224.992C390.624 224.992 389.82 224.68 389.208 224.188V225.46C389.88 225.952 390.636 226.18 391.5 226.18ZM395.936 219.052C396.44 219.052 396.812 218.692 396.812 218.2C396.812 217.72 396.452 217.36 395.936 217.36C395.42 217.36 395.048 217.72 395.048 218.2C395.048 218.692 395.432 219.052 395.936 219.052ZM396.68 226V219.964H395.192V226H396.68ZM400.371 226.18C401.811 226.18 402.783 225.388 402.783 224.212C402.783 223.348 402.327 222.736 401.223 222.448L400.239 222.196C399.783 222.076 399.579 221.86 399.579 221.548C399.579 221.176 399.891 220.972 400.539 220.972C401.211 220.972 401.919 221.188 402.459 221.608V220.36C401.967 220.048 401.319 219.784 400.443 219.784C398.991 219.784 398.079 220.516 398.079 221.596C398.079 222.424 398.571 222.988 399.579 223.264L400.575 223.552C401.091 223.708 401.259 223.948 401.259 224.26C401.259 224.74 400.875 224.992 400.215 224.992C399.495 224.992 398.691 224.68 398.079 224.188V225.46C398.751 225.952 399.507 226.18 400.371 226.18Z" fill="#72767D"/>
<line x1="50" y1="351.5" x2="650" y2="351.5" stroke="#40444B"/>
<path d="M617.333 160.667V164.667H616V152H622.255C622.378 152 622.5 152.035 622.605 152.1C622.71 152.165 622.795 152.258 622.851 152.369L623.333 153.333H627.333C627.51 153.333 627.68 153.404 627.805 153.529C627.93 153.654 628 153.823 628 154V161.333C628 161.51 627.93 161.68 627.805 161.805C627.68 161.93 627.51 162 627.333 162H623.079C622.955 162 622.834 161.965 622.728 161.9C622.623 161.835 622.538 161.742 622.483 161.631L622 160.667H617.333ZM617.333 153.333V159.333H622.824L623.491 160.667H626.667V154.667H622.509L621.843 153.333H617.333Z" fill="#ADB0B3"/>
<rect x="120" width="560" height="118" rx="8" fill="#404EED"/>
<path d="M157.172 92.1802C155.712 91.1954 154.474 89.9196 153.535 88.4333C152.595 86.9469 151.972 85.2817 151.71 83.5438L150.8 77.4832C150.648 77.1802 150.496 76.8772 150.193 76.8772C150.032 76.8772 149.877 76.9408 149.763 77.0545C149.65 77.1681 149.586 77.3226 149.586 77.4832L148.676 83.5438C148.384 85.2923 147.736 86.9605 146.77 88.4469C145.804 89.9333 144.541 91.2045 143.062 92.1802L142.152 92.6347C142 92.7863 142 92.9378 142 93.2408C142 93.3924 142 93.6954 142.152 93.6954L143.062 94.3014C144.555 95.2635 145.826 96.5317 146.794 98.0196C147.761 99.509 148.403 101.185 148.676 102.938L149.586 108.998C149.586 109.301 149.889 109.453 150.193 109.453C150.496 109.453 150.648 109.301 150.8 108.998L151.71 102.938C151.954 101.194 152.569 99.5226 153.511 98.0332C154.452 96.5438 155.7 95.2726 157.172 94.3014L158.082 93.6954C158.234 93.6954 158.386 93.3924 158.386 93.2408C158.386 93.1242 158.358 93.0075 158.305 92.9029C158.252 92.7969 158.176 92.706 158.082 92.6347L157.172 92.1802Z" fill="#FF78B9"/>
<path d="M428.372 90.9251C427.742 90.5509 427.201 90.0448 426.782 89.4448C426.363 88.8433 426.078 88.16 425.945 87.4403L425.641 84.8645H425.186L424.731 87.4403C424.623 88.1509 424.365 88.8296 423.972 89.4311C423.579 90.0327 423.062 90.5418 422.455 90.9251L422.152 91.2282C422.111 91.2282 422.073 91.2448 422.044 91.2736C422.015 91.3008 422 91.3402 422 91.3796C422 91.4205 422.015 91.4584 422.044 91.4872C422.073 91.516 422.111 91.5312 422.152 91.5312L422.455 91.8342C423.062 92.2175 423.579 92.7281 423.972 93.3296C424.365 93.9311 424.623 94.61 424.731 95.3191L425.186 97.8948H425.641L425.945 95.3191C426.078 94.5994 426.363 93.916 426.782 93.316C427.201 92.7145 427.742 92.2099 428.372 91.8342L428.676 91.5312L428.372 90.9251Z" fill="#FFC619"/>
<g clip-path="url(#clip2_181_4438)">
<rect x="160" y="8.9856" width="101" height="100.839" rx="50.4195" fill="#8080FF"/>
<path d="M244.428 39.4208C240.177 34.0019 238.367 34.9051 235.201 34.9051C235.201 29.5765 232.668 29.1249 231.492 33.5503C230.316 37.9758 229.593 40.053 232.488 44.2978C235.382 48.5426 239.272 54.7744 240.991 62.1802C236.884 63.2945 232.838 64.6209 228.869 66.1541L235.925 82.5012C247.685 77.2629 254.56 72.7472 255.283 63.3544C256.007 53.9616 248.77 44.9301 244.428 39.4208Z" fill="#FFC619"/>
<path d="M243.796 108.693C230.589 110.77 206.617 112.847 175.861 113.208C175.047 105.622 177.398 99.0289 186.716 91.8037C190.787 88.6426 190.425 86.2944 190.063 84.2172C188.887 76.721 185.992 69.2248 181.65 59.5611C175.047 44.6591 174.232 32.3762 185.178 25.6929C196.124 19.0096 208.697 22.8028 217.11 35.176C225.523 47.5492 244.067 74.734 243.796 108.693Z" fill="#FFC619"/>
<path d="M206.889 41.8594C215.03 49.5362 218.106 48.6331 219.915 48.1815C221.724 47.7299 220.186 43.1239 219.191 41.0466L206.889 41.8594Z" fill="#FFAE00"/>
<path d="M193.591 52.6068C194.224 56.3097 192.957 59.3805 191.058 59.832C189.158 60.2836 187.349 58.387 186.263 55.4969C185.178 52.6068 185.54 47.9105 187.53 46.646C189.52 45.3816 192.777 48.0911 193.591 52.6068Z" fill="white"/>
<path d="M206.888 41.8593C204.627 39.0595 205.893 33.9115 208.698 29.2151C211.502 24.5187 215.392 22.8931 218.648 22.8931C221.905 22.8931 222.9 26.1444 219.1 35.176C223.895 34.3631 226.066 34.4534 226.518 37.0726C226.97 39.6917 223.804 41.5883 216.658 42.7624C209.512 43.9365 208.155 43.3946 206.888 41.8593Z" fill="#ED5F00"/>
<path d="M235.022 34.3634C236.288 30.9314 237.735 30.5701 238.459 30.9314C239.183 31.2927 239.002 32.9183 238.278 36.1697C237.554 39.421 233.846 37.5244 235.022 34.3634Z" fill="#FFC619"/>
<path d="M237.644 34.905C240.449 32.5568 241.896 32.8277 242.348 33.5502C242.801 34.2728 241.896 35.5372 239.725 38.066C237.554 40.5948 235.112 37.0725 237.644 34.905Z" fill="#FFC619"/>
<path d="M190.654 52.4187C191.511 52.0107 191.699 50.6215 191.076 49.3159C190.452 48.0103 189.252 47.2827 188.395 47.6907C187.538 48.0987 187.349 49.4878 187.973 50.7934C188.597 52.099 189.797 52.8267 190.654 52.4187Z" fill="black"/>
<path d="M209.784 38.7887C209.688 38.7887 209.596 38.7506 209.528 38.6829C209.46 38.6151 209.422 38.5232 209.422 38.4274C209.704 36.0402 210.54 33.7518 211.864 31.7441C214.126 28.3121 215.844 27.138 217.382 26.7768C218.92 26.4155 220.187 26.7768 220.187 28.1315C219.885 30.7706 219.215 33.3547 218.196 35.8083C219.89 35.445 221.622 35.2933 223.353 35.3567C224.348 35.447 224.348 35.8986 223.624 36.2599C222.9 36.6211 219.101 38.0662 209.784 38.7887Z" fill="black"/>
<path d="M202.094 93.1587C203.089 101.919 195.762 112.757 195.762 112.757" stroke="black" stroke-miterlimit="10" stroke-linecap="round"/>
<path d="M240.992 62.1802L245.153 63.6252" stroke="black" stroke-miterlimit="10" stroke-linecap="round"/>
</g>
<path d="M296.062 27.6367C329.592 10.667 353.26 23.8489 353.26 23.8489C369.797 18.6973 384.514 22.3337 391.948 28.0913C396.652 31.8792 386.183 31.1216 362.515 31.1216H296.821C296.338 31.1216 295.874 30.9307 295.533 30.5898C295.191 30.2488 295 29.7852 295 29.3034C294.997 28.9534 295.096 28.6095 295.284 28.314C295.473 28.0185 295.742 27.7822 296.062 27.6367Z" fill="#8080FF"/>
<path d="M618.532 75.8789C609.43 75.8835 600.467 78.091 592.407 82.3122C584.348 86.5349 577.433 92.6456 572.258 100.121C552.005 90.9077 529.531 87.6941 507.503 90.8638C485.476 94.0335 464.824 103.452 448 118H672.999C669.849 105.959 662.799 95.2971 652.946 87.6789C643.094 80.0592 630.993 75.9107 618.532 75.8789Z" fill="#8080FF"/>
<path d="M319.126 36.072C316.746 34.5841 314.725 32.5901 313.203 30.2341C311.683 27.8765 310.7 25.2144 310.326 22.4356L308.809 12.7386C308.773 12.525 308.661 12.3311 308.494 12.1917C308.327 12.0523 308.116 11.978 307.899 11.981C307.68 11.978 307.47 12.0523 307.303 12.1917C307.136 12.3311 307.024 12.525 306.989 12.7386L305.471 22.4356C305.068 25.2053 304.073 27.8568 302.554 30.2083C301.037 32.5614 299.029 34.5613 296.672 36.072L295.458 36.8295C295.312 36.8932 295.189 36.9992 295.108 37.1356C295.026 37.2719 294.989 37.4295 295.003 37.5871C294.989 37.7447 295.026 37.9038 295.108 38.0386C295.189 38.175 295.312 38.2826 295.458 38.3447L296.672 39.1023C299.022 40.6598 301.019 42.6901 302.534 45.0659C304.05 47.4401 305.05 50.1053 305.471 52.8901L306.989 62.4356C307.024 62.6492 307.136 62.8432 307.303 62.9826C307.47 63.122 307.68 63.1962 307.899 63.1932C308.116 63.1962 308.327 63.122 308.494 62.9826C308.661 62.8432 308.773 62.6492 308.809 62.4356L310.326 52.8901C310.718 50.0977 311.707 47.4205 313.226 45.0417C314.743 42.6629 316.756 40.6371 319.126 39.1023L320.34 38.3447C320.486 38.2826 320.607 38.175 320.689 38.0386C320.771 37.9038 320.807 37.7447 320.795 37.5871C320.807 37.4295 320.771 37.2719 320.689 37.1356C320.607 36.9992 320.486 36.8932 320.34 36.8295L319.126 36.072Z" fill="#91FFAD"/>
<path d="M407.452 30.5585V45.9585H411.984V41.1845H414.36C418.034 41.1845 420.146 39.0505 420.146 36.0365C420.146 32.5825 417.968 30.5585 414.206 30.5585H407.452ZM411.984 38.0165V34.1885H413.568C414.668 34.1885 415.504 34.6945 415.504 36.0145C415.504 37.3785 414.69 38.0165 413.414 38.0165H411.984ZM428.928 34.5625C427.608 34.5625 426.574 35.2005 426.068 37.1365V34.7605H421.646V45.9585H426.068V41.4265C426.068 39.5345 426.926 38.5665 428.554 38.5665C429.368 38.5665 429.962 38.7645 430.336 38.9845V34.9585C430.028 34.7605 429.566 34.5625 428.928 34.5625ZM442.9 40.0845C442.9 36.4105 440.942 34.4305 437.29 34.4305C433.55 34.4305 431.108 36.8065 431.108 40.3045C431.108 43.9785 433.704 46.2885 437.906 46.2885C440.018 46.2885 441.536 45.7165 442.394 45.0785V42.1525C441.47 42.7025 440.348 43.0105 439.116 43.0105C437.224 43.0105 436.102 42.4165 435.64 41.5145H442.9V40.0845ZM437.466 37.5985C438.544 37.5985 439.182 38.1705 439.248 39.2705H435.574C435.684 38.2145 436.366 37.5985 437.466 37.5985ZM450.683 46.3325C452.113 46.3325 453.521 45.9805 454.621 45.3205V41.7345C453.983 42.1525 452.993 42.5925 451.695 42.5925C449.759 42.5925 448.681 41.6905 448.681 40.3485C448.681 39.0065 449.759 38.1485 451.673 38.1485C452.905 38.1485 453.829 38.4565 454.555 38.8525V35.1785C453.653 34.7385 452.377 34.4085 450.815 34.4085C446.613 34.4085 444.171 36.8505 444.171 40.3705C444.171 43.8685 446.613 46.3325 450.683 46.3325ZM458.78 33.9025C460.122 33.9025 461.09 33.0665 461.09 31.7465C461.09 30.4925 460.188 29.6345 458.78 29.6345C457.372 29.6345 456.448 30.4925 456.448 31.7465C456.448 33.0665 457.438 33.9025 458.78 33.9025ZM461.002 45.9585V34.7605H456.58V45.9585H461.002ZM467.617 46.2885C470.895 46.2885 472.919 44.6385 472.919 42.3505C472.919 40.5905 471.973 39.4025 469.817 39.0065L468.431 38.7425C467.661 38.5885 467.441 38.4125 467.441 38.1045C467.441 37.7745 467.793 37.5325 468.607 37.5325C469.817 37.5325 471.093 37.8845 472.259 38.5665V35.5305C471.335 34.9805 470.059 34.4305 468.057 34.4305C464.845 34.4305 462.909 35.9485 462.909 38.2805C462.909 40.1285 464.009 41.0525 466.011 41.4925L467.243 41.7785C467.903 41.9105 468.255 42.1085 468.255 42.4825C468.255 42.9665 467.859 43.1645 467.177 43.1645C466.033 43.1645 464.207 42.5265 463.019 41.6685V44.9685C464.405 45.8265 466.011 46.2885 467.617 46.2885ZM479.29 34.4305C477.486 34.4305 475.858 34.9365 474.714 35.6185V39.0725C475.506 38.4565 476.716 37.9505 478.168 37.9505C479.906 37.9505 480.808 38.7425 480.808 40.2605C480.214 39.6005 479.29 39.2485 478.08 39.2485C475.792 39.2485 474.12 40.5245 474.12 42.7905C474.12 44.8145 475.616 46.2885 477.728 46.2885C479.048 46.2885 480.17 45.7165 480.808 44.7485V45.9585H485.12V39.8425C485.12 36.5865 483.14 34.4305 479.29 34.4305ZM479.488 43.6265C478.63 43.6265 478.102 43.1645 478.102 42.5045C478.102 41.8225 478.63 41.3605 479.488 41.3605C480.324 41.3605 480.896 41.8445 480.896 42.4825C480.896 43.1425 480.324 43.6265 479.488 43.6265ZM495.047 34.4305C493.287 34.4305 492.143 35.2885 491.593 36.3445V34.7605H487.259V45.9585H491.681V39.9965C491.681 38.8745 492.143 38.0825 493.177 38.0825C494.189 38.0825 494.563 38.8085 494.563 39.9305V45.9585H498.985V38.9185C498.985 36.1025 497.511 34.4305 495.047 34.4305ZM508.992 36.2125C508.376 35.1565 507.276 34.4305 505.846 34.4305C502.26 34.4305 500.654 37.4885 500.654 40.3265C500.654 43.5165 502.26 46.2885 505.516 46.2885C507.232 46.2885 508.508 45.3425 509.08 44.2865V45.9585H513.414V30.1185H508.992V36.2125ZM507.122 42.6365C506 42.6365 505.164 41.8005 505.164 40.4145C505.164 38.9845 505.978 38.0825 507.144 38.0825C508.31 38.0825 509.058 38.9845 509.058 40.3925C509.058 41.7785 508.266 42.6365 507.122 42.6365ZM521.513 46.2885C524.989 46.2885 527.915 44.1105 527.915 40.4365C527.915 36.6525 525.077 34.4305 521.513 34.4305C517.971 34.4305 515.155 36.6525 515.155 40.4365C515.155 44.1105 518.059 46.2885 521.513 46.2885ZM521.513 42.6365C520.391 42.6365 519.665 41.7785 519.665 40.3925C519.665 38.9845 520.347 38.0825 521.513 38.0825C522.679 38.0825 523.383 38.9845 523.383 40.3925C523.383 41.7785 522.657 42.6365 521.513 42.6365ZM543.023 36.2125C542.407 35.1565 541.307 34.4305 539.877 34.4305C536.291 34.4305 534.685 37.4885 534.685 40.3265C534.685 43.5165 536.291 46.2885 539.547 46.2885C541.263 46.2885 542.539 45.3425 543.111 44.2865V45.9585H547.445V30.1185H543.023V36.2125ZM541.153 42.6365C540.031 42.6365 539.195 41.8005 539.195 40.4145C539.195 38.9845 540.009 38.0825 541.175 38.0825C542.341 38.0825 543.089 38.9845 543.089 40.3925C543.089 41.7785 542.297 42.6365 541.153 42.6365ZM560.978 40.0845C560.978 36.4105 559.02 34.4305 555.368 34.4305C551.628 34.4305 549.186 36.8065 549.186 40.3045C549.186 43.9785 551.782 46.2885 555.984 46.2885C558.096 46.2885 559.614 45.7165 560.472 45.0785V42.1525C559.548 42.7025 558.426 43.0105 557.194 43.0105C555.302 43.0105 554.18 42.4165 553.718 41.5145H560.978V40.0845ZM555.544 37.5985C556.622 37.5985 557.26 38.1705 557.326 39.2705H553.652C553.762 38.2145 554.444 37.5985 555.544 37.5985ZM572.984 34.4305C571.18 34.4305 569.552 34.9365 568.408 35.6185V39.0725C569.2 38.4565 570.41 37.9505 571.862 37.9505C573.6 37.9505 574.502 38.7425 574.502 40.2605C573.908 39.6005 572.984 39.2485 571.774 39.2485C569.486 39.2485 567.814 40.5245 567.814 42.7905C567.814 44.8145 569.31 46.2885 571.422 46.2885C572.742 46.2885 573.864 45.7165 574.502 44.7485V45.9585H578.814V39.8425C578.814 36.5865 576.834 34.4305 572.984 34.4305ZM573.182 43.6265C572.324 43.6265 571.796 43.1645 571.796 42.5045C571.796 41.8225 572.324 41.3605 573.182 41.3605C574.018 41.3605 574.59 41.8445 574.59 42.4825C574.59 43.1425 574.018 43.6265 573.182 43.6265ZM583.351 33.9025C584.671 33.9025 585.661 33.0665 585.661 31.7465C585.661 30.4925 584.737 29.6345 583.351 29.6345C581.943 29.6345 581.019 30.4925 581.019 31.7465C581.019 33.0665 582.009 33.9025 583.351 33.9025ZM581.019 50.5565C583.725 50.5565 585.551 49.0605 585.551 46.5305V34.7605H581.129V45.7165C581.129 46.7725 580.623 47.1905 579.875 47.1905C579.281 47.1905 578.797 46.9925 578.467 46.7505V49.7865C578.995 50.2045 579.875 50.5565 581.019 50.5565ZM595.043 40.6345C595.043 41.9105 594.603 42.6805 593.569 42.6805C592.557 42.6805 592.183 41.9545 592.183 40.7665V34.7605H587.761V41.6685C587.761 44.4185 588.993 46.2885 591.765 46.2885C593.349 46.2885 594.581 45.3865 595.153 44.2865V45.9585H599.465V34.7605H595.043V40.6345ZM609.581 36.2125C608.965 35.1565 607.865 34.4305 606.435 34.4305C602.849 34.4305 601.243 37.4885 601.243 40.3265C601.243 43.5165 602.849 46.2885 606.105 46.2885C607.821 46.2885 609.097 45.3425 609.669 44.2865V45.9585H614.003V30.1185H609.581V36.2125ZM607.711 42.6365C606.589 42.6365 605.753 41.8005 605.753 40.4145C605.753 38.9845 606.567 38.0825 607.733 38.0825C608.899 38.0825 609.647 38.9845 609.647 40.3925C609.647 41.7785 608.855 42.6365 607.711 42.6365ZM620.958 34.4305C619.154 34.4305 617.526 34.9365 616.382 35.6185V39.0725C617.174 38.4565 618.384 37.9505 619.836 37.9505C621.574 37.9505 622.476 38.7425 622.476 40.2605C621.882 39.6005 620.958 39.2485 619.748 39.2485C617.46 39.2485 615.788 40.5245 615.788 42.7905C615.788 44.8145 617.284 46.2885 619.396 46.2885C620.716 46.2885 621.838 45.7165 622.476 44.7485V45.9585H626.788V39.8425C626.788 36.5865 624.808 34.4305 620.958 34.4305ZM621.156 43.6265C620.298 43.6265 619.77 43.1645 619.77 42.5045C619.77 41.8225 620.298 41.3605 621.156 41.3605C621.992 41.3605 622.564 41.8445 622.564 42.4825C622.564 43.1425 621.992 43.6265 621.156 43.6265ZM632.658 29.8545C630.678 29.8545 629.072 30.3165 627.972 30.9325V34.6285C628.654 34.1225 630.106 33.5505 631.69 33.5505C633.34 33.5505 634.044 34.3205 634.044 35.2005C634.044 36.2785 633.208 36.9165 631.58 36.9165H629.842V40.7445H633.978V39.2705C636.904 39.2265 638.576 37.2245 638.576 34.7385C638.576 31.9005 636.552 29.8545 632.658 29.8545ZM631.954 41.5585C630.48 41.5585 629.424 42.5485 629.424 43.8905C629.424 45.2545 630.48 46.2885 631.954 46.2885C633.406 46.2885 634.418 45.2545 634.418 43.8905C634.418 42.5485 633.406 41.5585 631.954 41.5585Z" fill="white"/>
<rect x="464" y="59.9043" width="176" height="31" rx="8" fill="#EB459F"/>
<path d="M501.078 70.1043V79.9043H503.43V76.6843H505.054C507.336 76.6843 508.638 75.3543 508.638 73.4503C508.638 71.3783 507.322 70.1043 505.096 70.1043H501.078ZM503.43 74.9623V72.0363H504.746C505.642 72.0363 506.23 72.4843 506.23 73.4503C506.23 74.4443 505.642 74.9623 504.606 74.9623H503.43ZM516.311 75.9983C516.311 73.8143 515.065 72.6103 512.937 72.6103C510.613 72.6103 509.185 74.1363 509.185 76.3203C509.185 78.6443 510.781 80.1143 513.301 80.1143C514.519 80.1143 515.471 79.7643 516.003 79.3583V77.7203C515.429 78.1123 514.659 78.3503 513.861 78.3503C512.489 78.3503 511.705 77.8043 511.481 76.9223H516.311V75.9983ZM512.993 74.3323C513.805 74.3323 514.337 74.7803 514.365 75.6623H511.509C511.621 74.8363 512.111 74.3323 512.993 74.3323ZM523.649 77.5663C523.215 77.8883 522.529 78.1823 521.731 78.1823C520.331 78.1823 519.589 77.4123 519.589 76.3483C519.589 75.2703 520.359 74.5563 521.661 74.5563C522.459 74.5563 523.075 74.7663 523.593 75.1303V73.1283C523.047 72.8343 522.291 72.5963 521.283 72.5963C518.791 72.5963 517.265 74.1503 517.265 76.3623C517.265 78.3923 518.581 79.9043 520.723 80.1003V81.0943H521.171C521.591 81.0943 521.801 81.2483 521.801 81.5283C521.801 81.8083 521.605 82.0043 521.227 82.0043C520.807 82.0043 520.429 81.8223 520.177 81.6403V82.7043C520.541 82.9003 520.947 83.0123 521.395 83.0123C522.445 83.0123 523.047 82.4243 523.047 81.6123C523.047 80.8563 522.543 80.2963 521.647 80.2963H521.535V80.1143C522.319 80.0723 523.047 79.8763 523.649 79.4983V77.5663ZM527.756 72.6103C526.664 72.6103 525.726 72.9463 525.054 73.3803V75.2703C525.586 74.7943 526.342 74.4723 527.238 74.4723C528.358 74.4723 528.988 75.0463 528.988 76.1103V76.3203C528.624 75.8723 528.022 75.5923 527.196 75.5923C525.726 75.5923 524.676 76.4463 524.676 77.8603C524.676 79.1623 525.642 80.1143 527.014 80.1143C527.896 80.1143 528.61 79.7223 528.988 79.0783V79.9043H531.214V75.8863C531.214 73.8843 529.996 72.6103 527.756 72.6103ZM527.882 78.6583C527.182 78.6583 526.776 78.2803 526.776 77.7203C526.776 77.1743 527.196 76.7963 527.896 76.7963C528.582 76.7963 529.03 77.1883 529.03 77.7063C529.03 78.2523 528.582 78.6583 527.882 78.6583ZM540.965 76.5303C540.965 77.5943 540.559 78.2383 539.733 78.2383C538.935 78.2383 538.585 77.7063 538.585 76.7543V72.8203H536.317V77.2443C536.317 78.9943 537.157 80.1003 538.851 80.1003C539.873 80.1003 540.657 79.5543 541.021 78.7423V79.9043H543.247V72.8203H540.965V76.5303ZM553.527 72.6103C552.533 72.6103 551.777 73.0863 551.315 73.8843C550.951 73.1003 550.251 72.6103 549.285 72.6103C548.291 72.6103 547.591 73.1143 547.199 73.9543V72.8203H544.959V79.9043H547.227V75.9003C547.227 75.1023 547.661 74.5143 548.347 74.5143C549.019 74.5143 549.355 75.0043 549.355 75.7463V79.9043H551.595V75.7043C551.609 75.0323 552.029 74.5143 552.701 74.5143C553.387 74.5143 553.709 75.0043 553.709 75.8023V79.9043H555.977V75.3683C555.977 73.6463 555.053 72.6103 553.527 72.6103ZM565.668 72.6103C564.576 72.6103 563.848 73.1003 563.456 73.8143V69.8243H561.188V79.9043H563.456V76.1103C563.456 75.1443 563.904 74.5143 564.744 74.5143C565.556 74.5143 565.878 75.0183 565.878 75.9703V79.9043H568.146V75.4663C568.146 73.6463 567.208 72.6103 565.668 72.6103ZM576.522 75.9983C576.522 73.8143 575.276 72.6103 573.148 72.6103C570.824 72.6103 569.396 74.1363 569.396 76.3203C569.396 78.6443 570.992 80.1143 573.512 80.1143C574.73 80.1143 575.682 79.7643 576.214 79.3583V77.7203C575.64 78.1123 574.87 78.3503 574.072 78.3503C572.7 78.3503 571.916 77.8043 571.692 76.9223H576.522V75.9983ZM573.204 74.3323C574.016 74.3323 574.548 74.7803 574.576 75.6623H571.72C571.832 74.8363 572.322 74.3323 573.204 74.3323ZM584.602 75.9983C584.602 73.8143 583.356 72.6103 581.228 72.6103C578.904 72.6103 577.476 74.1363 577.476 76.3203C577.476 78.6443 579.072 80.1143 581.592 80.1143C582.81 80.1143 583.762 79.7643 584.294 79.3583V77.7203C583.72 78.1123 582.95 78.3503 582.152 78.3503C580.78 78.3503 579.996 77.8043 579.772 76.9223H584.602V75.9983ZM581.284 74.3323C582.096 74.3323 582.628 74.7803 582.656 75.6623H579.8C579.912 74.8363 580.402 74.3323 581.284 74.3323ZM588.244 79.9043V69.8243H585.962V79.9043H588.244ZM594.531 72.6103C593.383 72.6103 592.585 73.2683 592.207 74.0103V72.8203H589.967V82.5643H592.235V79.0223C592.669 79.6803 593.439 80.1143 594.419 80.1143C596.253 80.1143 597.625 78.5883 597.625 76.2923C597.625 74.1503 596.379 72.6103 594.531 72.6103ZM593.719 78.2103C592.795 78.2103 592.207 77.4823 592.207 76.4043C592.207 75.2983 592.809 74.5423 593.747 74.5423C594.671 74.5423 595.301 75.2983 595.301 76.3763C595.301 77.4543 594.671 78.2103 593.719 78.2103ZM601.344 76.7683V70.1043H599.062V76.7683H601.344ZM600.224 80.1143C601.022 80.1143 601.582 79.5403 601.582 78.7983C601.582 78.0423 601.022 77.4823 600.224 77.4823C599.426 77.4823 598.852 78.0423 598.852 78.7983C598.852 79.5403 599.426 80.1143 600.224 80.1143Z" fill="white"/>
<defs>
<clipPath id="clip0_181_4438">
<rect x="70" y="192" width="46" height="46" rx="23" fill="white"/>
</clipPath>
<clipPath id="clip1_181_4438">
<rect x="70" y="192" width="46" height="46" rx="23" fill="white"/>
</clipPath>
<clipPath id="clip2_181_4438">
<rect x="160" y="8.9856" width="101" height="100.839" rx="50.4195" fill="white"/>
</clipPath>
</defs>
</svg>
