<svg width="340" height="162" viewBox="0 0 340 162" fill="none" xmlns="http://www.w3.org/2000/svg">
<g clip-path="url(#clip0_183_4663)">
<rect x="176" y="87.001" width="75" height="75" rx="37.5" fill="#19B375"/>
<path d="M196.505 115.758C197.409 115.758 198.142 115.025 198.142 114.121C198.142 113.218 197.409 112.485 196.505 112.485C195.601 112.485 194.869 113.218 194.869 114.121C194.869 115.025 195.601 115.758 196.505 115.758Z" fill="#FFD736"/>
<path d="M216.761 116.642C214.952 114.37 212.516 112.677 209.755 111.774C206.994 110.871 204.029 110.797 201.227 111.562C198.424 112.326 195.907 113.895 193.987 116.075C192.067 118.254 190.828 120.949 190.423 123.826C190.017 126.702 190.465 129.634 191.709 132.259C192.952 134.884 194.938 137.087 197.421 138.596C199.903 140.104 202.774 140.852 205.676 140.746C208.579 140.641 211.388 139.687 213.754 138.002C215.388 136.823 216.767 135.326 217.808 133.601C218.849 131.876 219.53 129.958 219.811 127.963C220.092 125.968 219.967 123.937 219.443 121.991C218.918 120.046 218.006 118.226 216.761 116.642Z" fill="#1D2CC2"/>
<path d="M224.278 120.445C231.443 111.468 232.327 106.205 224.942 104.481C220.301 103.427 215.487 103.397 210.835 104.392C208.979 104.835 207.234 105.652 205.706 106.793C204.178 107.933 202.898 109.374 201.946 111.026C196.374 120.666 195.666 123.983 195.666 123.983L224.278 120.445Z" fill="#FF78B9"/>
<path d="M218.572 115.448C222.641 115.448 222.552 116.819 222.331 118.455C222.11 120.091 218.572 115.448 218.572 115.448Z" fill="black"/>
<path d="M224.942 104.481C220.301 103.427 215.487 103.397 210.835 104.392C208.979 104.835 207.234 105.652 205.706 106.793C204.178 107.933 202.898 109.374 201.946 111.026C196.374 120.666 195.666 123.983 195.666 123.983L224.278 120.445C231.443 111.468 232.327 106.205 224.942 104.481ZM223.35 119.782L197.214 123.055C197.214 123.055 198.098 120.092 203.759 111.468C205.653 108.605 208.587 106.591 211.94 105.852C216.068 104.966 220.34 104.996 224.455 105.94C231.045 107.355 229.408 111.07 223.35 119.782Z" fill="#EB459F"/>
<path d="M225.118 148.129C235.069 147.068 242.852 148.35 239.668 168.118C238.828 173.292 238.12 177.936 237.457 181.96C243.692 187.488 242.94 197.084 238.12 202.259C233.3 207.433 227.285 203.453 223.924 196.819C220.563 190.186 217.777 183.242 217.777 183.242L225.118 148.129Z" fill="#459FF7"/>
<path d="M189.121 146.36C191.465 141.407 191.554 136.808 191.465 132.695C191.402 130.213 191.839 127.743 192.75 125.433C193.662 123.123 195.03 121.021 196.772 119.251C201.239 114.873 206.147 114.21 210.658 113.945C218.751 113.414 235.291 120.313 229.63 147.952C226.136 165.022 221.051 184.923 221.051 184.923C221.051 184.923 238.077 216.1 204.423 216.1C179.171 216.1 172.936 213.005 169.707 204.16C167.467 197.903 167.436 191.068 169.619 184.79C177.8 160.777 183.549 158.168 189.121 146.36Z" fill="#459FF7"/>
<path d="M210.657 113.945C206.589 114.21 202.166 114.741 198.098 118.102H198.142C217.91 122.303 218.042 126.991 225.781 121.02C221.315 115.404 214.858 113.679 210.657 113.945Z" fill="#2A88E6"/>
<path d="M178.508 167.455L185.76 159.804C185.832 159.72 185.93 159.663 186.039 159.641C186.147 159.621 186.26 159.637 186.357 159.689C186.456 159.74 186.533 159.824 186.577 159.925C186.621 160.026 186.629 160.14 186.601 160.246C184.39 172.452 184.08 177.67 184.08 177.67L178.508 167.455Z" fill="black"/>
<path d="M209.684 119.915C209.902 119.199 209.992 118.451 209.949 117.704" stroke="black" stroke-linecap="round" stroke-linejoin="round"/>
<path d="M210.303 120.136C210.737 119.516 211.066 118.829 211.276 118.102" stroke="black" stroke-linecap="round" stroke-linejoin="round"/>
<path d="M210.393 120.091C211.116 119.915 211.804 119.615 212.427 119.207" stroke="black" stroke-linecap="round" stroke-linejoin="round"/>
<path d="M220.652 120.887C220.812 120.297 220.857 119.681 220.785 119.074" stroke="black" stroke-linecap="round" stroke-linejoin="round"/>
<path d="M221.316 121.02C221.634 120.498 221.872 119.932 222.024 119.34" stroke="black" stroke-linecap="round" stroke-linejoin="round"/>
<path d="M221.359 121.02C221.946 120.829 222.498 120.545 222.996 120.18" stroke="black" stroke-linecap="round" stroke-linejoin="round"/>
<path d="M214.151 221.938C213.349 221.7 212.645 221.211 212.144 220.542C211.642 219.873 211.369 219.059 211.365 218.223C211.365 210.882 211.409 190.539 212.825 177.316C215.168 159.494 225.296 160.467 229.408 161.529C236.219 163.298 237.722 169.445 235.688 180.279C233.654 191.114 232.769 202.789 233.61 216.631C233.683 217.753 233.379 218.868 232.745 219.797C232.113 220.727 231.187 221.418 230.116 221.761C224.588 223.574 219.768 223.618 214.151 221.938Z" fill="#3442D9"/>
<path d="M215.036 220.877C215.563 220.512 215.982 220.011 216.247 219.426C216.512 218.842 216.613 218.197 216.539 217.56C215.08 203.143 214.77 184.835 214.638 173.425C214.505 162.015 209.11 161.529 204.864 161.529C200.619 161.529 196.86 161.44 193.057 167.013C189.253 172.585 181.249 181.518 171.785 208.361L194.914 205.266C194.914 211.059 194.472 215.57 194.825 221.363C194.864 221.918 195.072 222.448 195.419 222.883C195.767 223.317 196.238 223.635 196.771 223.795C203.582 226.006 210.702 223.928 215.036 220.877Z" fill="#3442D9"/>
<path d="M212.437 129.148C214.062 128.701 214.769 126.124 214.017 123.392C213.265 120.661 211.337 118.809 209.713 119.257C208.088 119.704 207.381 122.281 208.133 125.013C208.886 127.744 210.812 129.596 212.437 129.148Z" fill="white"/>
<path d="M202.432 125.487C206.633 124.204 211.497 125.575 215.389 128.848L212.426 130.749L202.432 125.487Z" fill="#459FF7"/>
<path d="M212.477 125.875C213.207 125.674 213.525 124.518 213.188 123.294C212.851 122.069 211.986 121.24 211.256 121.441C210.526 121.642 210.208 122.798 210.545 124.022C210.882 125.246 211.747 126.076 212.477 125.875Z" fill="black"/>
<path d="M224.215 128.982C225.442 128.494 225.601 125.999 224.57 123.41C223.54 120.82 221.711 119.117 220.484 119.605C219.258 120.093 219.099 122.587 220.129 125.177C221.159 127.766 222.988 129.47 224.215 128.982Z" fill="white"/>
<path d="M218.838 136.233C218.979 136.324 219.144 136.368 219.31 136.36C219.477 136.353 219.637 136.292 219.767 136.189C225.03 132.341 227.772 132.076 227.772 136.542C227.772 141.009 224.278 147.864 218.396 147.864C212.515 147.864 206.987 144.591 205.041 138.842C203.095 133.093 206.81 130.926 210.524 131.899C214.239 132.872 217.556 135.304 218.838 136.233Z" fill="black"/>
<path d="M213.311 139.771C214.858 138.577 217.423 138.931 219.06 140.125C220.696 141.319 222.863 143.618 220.961 145.697C219.06 147.775 214.814 146.714 212.515 144.812C210.215 142.911 208.358 141.363 208.623 139.948C208.888 138.533 210.259 138.267 213.311 139.771Z" fill="#FF78B9"/>
<path d="M223.106 125.834C223.606 125.637 223.668 124.611 223.246 123.544C222.823 122.476 222.076 121.772 221.576 121.969C221.076 122.167 221.014 123.193 221.437 124.26C221.859 125.327 222.607 126.032 223.106 125.834Z" fill="black"/>
<path d="M199.557 128.671C197.258 130.174 194.339 133.314 194.383 139.417" stroke="#2A88E6" stroke-width="2" stroke-linecap="round" stroke-linejoin="round"/>
<path d="M221.049 115.448C221.049 112.175 215.654 113.016 212.868 113.193C208.843 113.414 202.741 113.723 198.186 118.013V118.101C201.458 115.05 213.752 115.448 221.049 115.448Z" fill="#FF78B9"/>
<path d="M198.143 118.102C198.808 117.547 199.574 117.127 200.398 116.863L200.929 115.979C200.929 115.139 200.486 114.962 200.133 115.227C199.779 115.492 198.939 116.819 198.187 118.013L198.143 118.102Z" fill="#EB459F"/>
<path d="M229.673 147.864C229.17 150.485 228.445 153.06 227.506 155.559C227.476 155.619 227.467 155.687 227.48 155.753C227.493 155.819 227.527 155.879 227.577 155.924C227.627 155.969 227.69 155.996 227.757 156.002C227.824 156.008 227.891 155.992 227.948 155.957C230.115 155.116 232.724 150.738 233.963 148.439C232.569 148.035 231.123 147.841 229.673 147.864Z" fill="black"/>
<path d="M194.737 150.34C186.953 144.856 180.143 136.454 171.785 145.785C163.427 155.116 158.474 162.988 155.334 168.649C152.194 174.309 156.882 178.024 163.382 182.712C168.38 186.294 178.33 195.094 185.008 189.743C187.086 188.063 189.651 183.375 190.624 178.732C191.597 174.088 188.192 170.948 178.507 167.455L194.737 150.34Z" fill="#459FF7"/>
<path d="M189.695 146.36L196.727 151.755" stroke="black" stroke-linecap="round" stroke-linejoin="round"/>
<path d="M213.311 139.285C215.609 140.309 217.649 141.835 219.281 143.751" stroke="black" stroke-linecap="round" stroke-linejoin="round"/>
</g>
<g clip-path="url(#clip1_183_4663)">
<rect x="83" y="58.001" width="100" height="100" rx="50" fill="#4C5AF2"/>
<path d="M153.394 202.064L146.496 198.224C151.91 189.307 157.871 180.733 164.345 172.553C151.616 177.175 138.247 182.935 123.456 182.935H98.7091C97.2157 179.877 96.7891 176.748 96.7891 172.055L127.011 161.033L138.46 163.379L138.816 166.65C149.767 163.877 161.074 160.677 169.251 158.757C179.562 156.339 183.047 161.53 177.074 170.206C165.554 186.988 153.394 202.064 153.394 202.064Z" fill="#29CC7A"/>
<path d="M109.02 129.815C103.922 121.967 99.7233 113.571 96.5043 104.784C96.049 103.322 95.947 101.774 96.2066 100.266C96.4662 98.7577 97.08 97.3326 97.9976 96.1081C103.189 89.8503 110.015 86.5081 119.118 84.9436C120.108 84.8341 121.103 85.115 121.891 85.7258C132.7 95.1836 135.9 105.85 137.749 116.233C137.795 116.832 137.689 117.433 137.441 117.98C137.192 118.527 136.809 119.002 136.326 119.361C130.993 122.633 128.149 123.628 128.149 123.628L129.215 131.521L109.02 129.815Z" fill="#FFE75C"/>
<path d="M119.332 103.29C124.661 103.785 129.956 104.592 135.19 105.708L138.105 106.49C138.213 106.52 138.311 106.578 138.389 106.657C138.468 106.736 138.524 106.834 138.553 106.942C138.582 107.05 138.582 107.164 138.553 107.271C138.525 107.379 138.468 107.477 138.39 107.557L137.75 108.126L138.888 112.535C139.256 113.883 139.161 115.317 138.62 116.605C138.079 117.894 137.122 118.965 135.901 119.646L133.27 121.139L119.332 103.29Z" fill="#FFE75C"/>
<path d="M121.611 108.53C122.964 107.586 122.694 104.862 121.009 102.447C119.324 100.03 116.861 98.8373 115.508 99.7809C114.155 100.725 114.425 103.448 116.11 105.864C117.795 108.28 120.258 109.473 121.611 108.53Z" fill="#FF78B9"/>
<path d="M129.997 98.6682C129.144 97.886 128.219 97.6727 127.864 98.0282C127.508 98.3838 127.722 98.9527 128.504 99.5216L129.428 100.446C130.068 101.157 130.566 101.015 130.851 100.659C131.135 100.304 130.851 99.3793 129.997 98.6682Z" fill="black"/>
<path d="M101.768 92.3392C100.63 80.8903 101.768 77.0503 104.186 73.7081C106.603 70.3659 108.026 71.3614 107.599 75.7703C107.34 79.227 107.364 82.6994 107.67 86.1525C109.773 80.7651 112.833 75.803 116.701 71.5036C117.847 70.1141 119.383 69.0987 121.11 68.5881C122.817 68.1614 123.741 69.157 123.243 70.7925C122.39 73.5659 120.328 77.9747 114.781 85.8681L115.35 88.997L101.768 92.3392Z" fill="#FFE75C"/>
<path d="M134.975 136.57C141.02 138.633 136.753 157.548 136.753 157.548L137.607 158.188C138.305 158.722 138.798 159.48 139.006 160.334C139.213 161.188 139.12 162.087 138.744 162.881L138.46 163.379C134.264 163.379 131.491 163.735 125.802 167.788C120.113 171.841 116.487 172.055 110.655 172.055H96.7888V167.361C91.5977 165.299 91.171 162.81 93.1621 159.61C94.2287 157.761 95.9355 155.201 97.2155 153.281C97.7068 152.548 98.0477 151.723 98.2186 150.857C98.3895 149.99 98.3869 149.098 98.211 148.233C97.0733 142.117 97.9977 138.49 97.9977 138.49L113.073 134.437L132.202 133.655L134.975 136.57Z" fill="#2331B5"/>
<path d="M134.53 153.988C136.353 153.506 136.993 149.945 135.96 146.034C134.926 142.123 132.611 139.344 130.788 139.825C128.966 140.306 128.326 143.868 129.359 147.778C130.393 151.689 132.708 154.47 134.53 153.988Z" fill="black"/>
<path d="M134.976 136.57L146.211 140.41C147.349 124.695 152.113 120.215 157.66 107.699C161.642 98.8105 163.491 94.7572 164.273 93.1927C164.387 92.9317 164.577 92.7106 164.818 92.5584C165.058 92.4062 165.34 92.3301 165.624 92.3394H166.051C166.269 92.3387 166.485 92.3835 166.685 92.4702C166.885 92.5577 167.064 92.6857 167.211 92.8464C167.358 93.0071 167.47 93.197 167.54 93.4039C167.61 93.6101 167.635 93.8291 167.616 94.046C166.908 98.2466 165.789 102.367 164.273 106.348C167.616 104.073 169.109 104.073 170.673 106.419C174.513 104.428 175.936 104.357 177.287 107.344C178.638 110.33 178.424 110.899 177.713 113.317C177.002 115.735 175.936 115.948 174.3 115.948C174.3 132.446 173.233 138.633 165.482 149.726C158.584 159.61 158.229 158.402 148.842 155.415C143.438 153.708 138.104 151.788 134.62 150.437C132.601 149.702 130.904 148.281 129.826 146.423C128.747 144.564 128.355 142.386 128.718 140.268C129.358 137.282 131.349 135.362 134.976 136.57Z" fill="#FFE75C"/>
<path d="M134.976 136.57C135.359 136.117 135.715 135.643 136.043 135.148C136.233 134.884 136.364 134.583 136.428 134.263C136.492 133.945 136.486 133.616 136.412 133.299C136.338 132.982 136.197 132.685 135.998 132.427C135.799 132.17 135.548 131.958 135.26 131.806C115.847 121.139 109.02 119.859 98.3537 119.859C91.4559 119.859 91.8114 121.637 92.4514 124.908C87.5447 129.459 87.6158 131.024 91.0292 135.504C94.4425 139.984 95.5093 141.761 98.7093 141.761C101.909 141.761 109.376 141.832 115.918 138.49C122.46 135.148 125.589 133.441 134.976 136.57Z" fill="white"/>
<path d="M134.691 104.357C126.797 103.006 118.762 102.153 118.691 102.153C118.61 102.143 118.529 102.15 118.451 102.174C118.374 102.197 118.302 102.238 118.242 102.292C118.181 102.346 118.133 102.412 118.1 102.486C118.067 102.56 118.05 102.64 118.051 102.721C118.029 102.881 118.068 103.043 118.161 103.174C118.253 103.306 118.391 103.398 118.549 103.433C118.691 103.433 127.082 104.286 135.189 105.708C135.046 105.281 134.904 104.855 134.691 104.357Z" fill="black"/>
<path d="M118.833 101.797C118.411 102.411 118.031 103.052 117.695 103.717" stroke="black" stroke-linecap="round" stroke-linejoin="round"/>
<path d="M146.211 140.41L150.904 141.762" stroke="black" stroke-linecap="round" stroke-linejoin="round"/>
<path d="M105.749 91.3437C105.676 91.6118 105.581 91.8735 105.465 92.126C105.416 92.2405 105.337 92.3407 105.238 92.4154C105.138 92.4901 105.02 92.5377 104.896 92.5526H104.683C104.604 92.5292 104.532 92.4901 104.471 92.436C104.409 92.3827 104.36 92.3166 104.326 92.2426C104.293 92.1686 104.275 92.0876 104.275 92.0065C104.275 91.9247 104.293 91.8444 104.327 91.7704C104.398 91.5571 105.891 87.1482 107.243 84.0193C107.3 83.8927 107.401 83.7918 107.527 83.7349C107.527 84.5882 107.598 85.3704 107.669 86.2238C107.74 87.0771 106.176 90.0637 105.749 91.3437Z" fill="#FFC619"/>
<path d="M172.167 137.068C172.423 136.312 172.498 135.507 172.386 134.716C172.275 133.926 171.981 133.173 171.527 132.517C171.211 132.145 170.854 131.811 170.461 131.521C169.576 131.018 168.568 130.771 167.55 130.809C166.533 130.847 165.546 131.167 164.701 131.735C165.127 129.317 165.696 124.908 165.269 121.566C164.843 118.224 163.563 118.65 162.781 118.508C160.505 118.081 157.376 120.499 154.603 124.837C154.105 122.49 153.394 121.353 152.256 121.068C151.945 121.006 151.623 121.049 151.339 121.19C151.056 121.332 150.828 121.564 150.692 121.85L149.625 124.41C151.047 122.277 151.829 122.277 152.043 122.277C152.256 122.277 153.181 122.846 153.678 126.686C153.693 126.812 153.751 126.931 153.841 127.021C153.931 127.111 154.05 127.169 154.176 127.184C154.309 127.209 154.447 127.196 154.573 127.145C154.699 127.095 154.808 127.009 154.887 126.899C157.803 121.566 160.932 119.433 162.567 119.717C164.203 120.001 163.918 120.926 163.989 121.779C164.629 126.117 163.207 133.015 163.207 133.086C163.187 133.209 163.204 133.335 163.254 133.449C163.305 133.562 163.387 133.658 163.492 133.726C163.617 133.784 163.755 133.808 163.892 133.796C164.03 133.783 164.162 133.734 164.274 133.655C165.838 132.019 168.256 131.593 169.749 132.588C171.243 133.584 171.954 137.21 170.318 141.69C171.068 140.206 171.687 138.66 172.167 137.068Z" fill="#FFF4B3"/>
<path d="M160.363 107.984C162.781 106.633 163.634 105.85 165.768 107.984C168.612 106.49 169.181 106.49 170.746 108.766" stroke="#FFC619" stroke-width="2" stroke-linecap="round" stroke-linejoin="round"/>
<path d="M175.581 115.664C175.509 113.673 175.296 110.615 175.225 110.544C175.226 110.463 175.209 110.382 175.176 110.308C175.143 110.234 175.095 110.168 175.034 110.114C174.973 110.06 174.902 110.02 174.825 109.996C174.747 109.972 174.665 109.965 174.585 109.975C174.504 109.974 174.424 109.991 174.35 110.024C174.276 110.057 174.209 110.105 174.155 110.166C174.101 110.227 174.061 110.298 174.037 110.375C174.013 110.453 174.006 110.534 174.016 110.615C174.016 110.686 174.301 113.744 174.301 115.735C174.297 115.773 174.302 115.812 174.314 115.849C174.326 115.886 174.346 115.919 174.372 115.948H175.509L175.581 115.664Z" fill="black"/>
<path d="M176.363 113.246H174.798C174.714 113.246 174.631 113.229 174.554 113.197C174.475 113.165 174.405 113.118 174.346 113.058C174.286 112.999 174.239 112.929 174.207 112.85C174.175 112.773 174.158 112.69 174.158 112.606C174.176 112.449 174.251 112.304 174.369 112.198C174.487 112.094 174.64 112.036 174.798 112.037H176.363C176.521 112.036 176.673 112.094 176.791 112.198C176.91 112.304 176.985 112.449 177.003 112.606C177.003 112.69 176.986 112.773 176.954 112.85C176.922 112.929 176.875 112.999 176.815 113.058C176.756 113.118 176.685 113.165 176.607 113.197C176.53 113.229 176.447 113.246 176.363 113.246Z" fill="black"/>
<path d="M154.176 154.419C155.677 154.382 157.175 154.24 158.656 153.992" stroke="#FFC619" stroke-width="2" stroke-linecap="round" stroke-linejoin="round"/>
<path d="M93.0918 124.553C104.896 123.415 113.287 126.117 124.878 131.308C113.287 130.526 99.634 130.099 99.634 130.099" stroke="#BAE8FF" stroke-width="2" stroke-linecap="round" stroke-linejoin="round"/>
</g>
<g clip-path="url(#clip2_183_4663)">
<rect x="182" y="0.000976562" width="100" height="100" rx="50" fill="#FFBFD3"/>
<path d="M238.323 61.4397L209.663 66.2417C208.417 83.93 208.021 89.8262 210.696 100.433H246.134C246.589 83.1702 243.094 70.9525 238.323 61.4397Z" fill="#0E1D41"/>
<path d="M247.107 116.115L244.068 101.041H233.188V86.6045H245.132C248.163 86.6084 251.099 87.6607 253.442 89.583C255.785 91.5053 257.391 94.179 257.988 97.1506L261.756 115.781L247.107 116.115Z" fill="#B8CDFF"/>
<path d="M232.033 97.151L232.975 101.041H242.488C241.606 96.1177 243.156 90.7686 250.754 90.4343H229.936L232.033 97.151Z" fill="#7FA0FF"/>
<path d="M203.069 85.9968C202.269 86.0067 201.478 85.8298 200.759 85.4801C200.116 85.1773 199.54 84.7501 199.063 84.2233C198.586 83.6965 198.218 83.0804 197.981 82.4107C197.744 81.741 197.641 81.0309 197.68 80.3214C197.718 79.6119 197.897 78.9171 198.206 78.2771C200.303 73.8398 203.524 68.7035 207.779 62.9897C208.194 62.3942 208.724 61.8883 209.339 61.502C209.953 61.1156 210.639 60.8569 211.355 60.741C212.071 60.6252 212.804 60.6546 213.509 60.8276C214.213 61.0007 214.876 61.3137 215.457 61.7481C216.039 62.1826 216.527 62.7295 216.892 63.3564C217.258 63.9832 217.493 64.6773 217.585 65.3971C217.677 66.117 217.623 66.8479 217.426 67.5465C217.23 68.245 216.895 68.8969 216.441 69.4633C211.67 75.8761 209.208 80.3134 207.962 82.9271C207.517 83.8466 206.822 84.6221 205.956 85.165C205.091 85.7079 204.09 85.9961 203.069 85.9968Z" fill="#5ED6BB"/>
<path d="M215.346 61.8955C214.197 61.0378 212.755 60.6713 211.336 60.8765C209.917 61.0816 208.637 61.8417 207.778 62.9896C205.367 66.2517 203.3 69.291 201.578 72.1073C206.745 70.0407 209.693 72.4113 211.912 75.9672C213.127 74.0829 214.616 71.8946 216.44 69.4632C216.869 68.8958 217.18 68.2491 217.357 67.5604C217.535 66.8718 217.573 66.1549 217.472 65.4511C217.37 64.7474 217.13 64.0708 216.765 63.4605C216.4 62.8502 215.918 62.3183 215.346 61.8955Z" fill="#0E1D41"/>
<path d="M238.779 33.2965C239.296 39.7701 235.679 45.3623 230.968 45.6055C226.257 45.8486 222.762 41.0466 222.549 35.0897C222.337 29.1328 225.437 24.1788 229.692 23.4494C233.947 22.72 238.293 27.0053 238.779 33.2965Z" fill="#5ED6BB"/>
<path d="M252.243 45.97C253.945 56.3642 244.706 66.5153 231.151 68.6123C216.745 70.8614 203.16 63.2025 201.701 51.5318C201.123 46.8818 202.582 42.4445 205.5 38.767C207.479 36.2318 208.936 33.329 209.785 30.2268C210.879 26.3366 213.371 22.9934 216.441 22.3856C221.365 21.3826 224.069 25.0905 225.711 31.6856C238.536 31.6856 250.085 32.9925 252.243 45.97Z" fill="#5ED6BB"/>
<path d="M236.105 54.3281L218.903 49.9212C218.934 54.5104 219.055 60.4977 216.654 67.5184C221.335 69.009 226.3 69.3837 231.151 68.6125C234.485 68.1099 237.711 67.0518 240.695 65.4821C243.673 60.2546 244.98 53.5987 243.369 48.0977L236.105 54.3281Z" fill="#AAFAE7"/>
<path d="M221.789 29.6492C222.275 31.26 221.941 32.8708 220.999 33.2963C220.056 33.7218 218.719 32.7189 218.142 31.0169C217.564 29.3149 217.99 27.5826 219.053 27.2786C220.117 26.9747 221.272 28.0385 221.789 29.6492Z" fill="#1B1926"/>
<path d="M220.119 50.1643C231.273 50.5898 239.054 49.6173 243.369 48.0977C241.211 59.0085 231.091 60.8624 220.119 50.1643Z" fill="#4E2B42"/>
<path d="M239.69 55.179C237.836 53.3858 235.04 52.0486 231.758 51.5623C228.475 51.076 225.375 51.5927 223.096 52.778C229.782 58.0055 235.86 58.5221 239.69 55.179Z" fill="#AC194B"/>
<path d="M221.563 51.9669C223.023 49.0753 222.665 45.9521 220.762 44.9909C218.859 44.0298 216.133 45.5947 214.672 48.4863C213.211 51.3778 213.57 54.5011 215.473 55.4622C217.375 56.4234 220.102 54.8585 221.563 51.9669Z" fill="#4C7DFF"/>
<path d="M247.961 51.3784C249.475 50.7356 249.895 48.3107 248.898 45.9622C247.901 43.6137 245.865 42.2308 244.351 42.8736C242.837 43.5163 242.418 45.9412 243.414 48.2897C244.411 50.6383 246.447 52.0211 247.961 51.3784Z" fill="#4C7DFF"/>
<path d="M267.136 64.4791C267.865 62.1996 266.528 60.3457 264.157 60.3457H243.004C240.634 60.3457 238.081 62.1996 237.351 64.4791L229.662 87.7596C228.933 90.0087 230.27 91.8626 232.641 91.8626H253.794C256.164 91.8626 258.717 90.0087 259.477 87.7596L267.136 64.4791Z" fill="white"/>
<path d="M269.687 64.4791C270.447 62.1996 269.11 60.3457 266.739 60.3457H245.586C243.216 60.3457 240.663 62.1996 239.903 64.4791L232.244 87.7596C231.515 90.0087 232.852 91.8626 235.223 91.8626H256.345C258.746 91.8626 261.299 90.0087 262.029 87.7596L269.687 64.4791Z" fill="#DCE3ED"/>
<path d="M209.974 60.3985C210.196 59.8624 210.622 59.4364 211.158 59.2143C211.695 58.9922 212.297 58.9922 212.833 59.2143L231.225 66.8323L229.55 70.8757L211.187 63.2693C210.917 63.162 210.672 63.0023 210.465 62.7995C210.258 62.5966 210.093 62.3546 209.98 62.0875C209.867 61.8204 209.809 61.5335 209.808 61.2436C209.807 60.9536 209.863 60.6664 209.974 60.3985Z" fill="white"/>
<path d="M231.272 66.8496L229.57 70.9222L233.552 70.679C233.642 70.6654 233.727 70.6308 233.801 70.578C233.875 70.5252 233.935 70.4557 233.977 70.3751C234.017 70.2901 234.03 70.1948 234.013 70.1024C233.997 70.0099 233.953 69.9247 233.886 69.8584L231.272 66.8496Z" fill="#DCE3ED"/>
<path d="M242.488 117.97L228.507 121.465L223.766 102.409L211.761 100.433L210.637 100.251C209.375 95.3759 208.721 90.3636 208.691 85.3281L230.787 88.9448C232.179 89.1714 233.475 89.802 234.512 90.7584C235.549 91.7147 236.283 92.9546 236.622 94.3243L238.142 100.433L242.488 117.97Z" fill="#B8CDFF"/>
<path d="M220.999 94.2027C220.857 94.2036 220.718 94.2363 220.591 94.2984C220.464 94.3604 220.353 94.4502 220.265 94.5611C220.178 94.672 220.116 94.8012 220.085 94.939C220.054 95.0769 220.055 95.22 220.087 95.3576L221.424 100.676H223.339L221.91 94.9018C221.862 94.6983 221.744 94.5178 221.578 94.3906C221.412 94.2633 221.208 94.197 220.999 94.2027Z" fill="#7FA0FF"/>
<path d="M227.017 88.3066C220.969 87.2695 214.772 87.4867 208.812 88.9449L208.447 81.1948L227.442 81.438L227.017 88.3066Z" fill="#0E1D41"/>
<path d="M220.939 62.6252H223.614C224.064 62.6271 224.507 62.7387 224.904 62.9506C225.302 63.1625 225.641 63.4681 225.893 63.8409C226.794 65.1223 227.51 66.524 228.021 68.0047C228.184 68.4537 228.245 68.9336 228.198 69.4091C228.151 69.8845 227.998 70.3434 227.75 70.7518C227.502 71.1602 227.165 71.5077 226.765 71.7686C226.365 72.0296 225.911 72.1974 225.438 72.2596L222.155 72.7459L220.939 62.6252Z" fill="#5ED6BB"/>
<path d="M261.817 80.7693C259.902 80.7693 258.899 79.3105 259.659 77.5477L262.364 70.9222C263.094 69.129 265.282 67.6702 267.196 67.6702H270.266C272.211 67.6702 273.184 69.129 272.454 70.9222L269.719 77.5477C268.99 79.3105 266.832 80.7693 264.887 80.7693H261.817Z" fill="#5ED6BB"/>
<path d="M204.375 88.0634C203.223 88.0552 202.091 87.7574 201.084 87.1972C200.077 86.6371 199.227 85.8326 198.613 84.8579C197.998 83.8832 197.639 82.7696 197.568 81.6196C197.497 80.4696 197.716 79.3201 198.205 78.277C198.768 77.095 199.74 76.1571 200.942 75.6374C202.144 75.1176 203.493 75.0513 204.74 75.4505L217.292 64.0534C217.807 63.5259 218.425 63.1094 219.107 62.8294C219.789 62.5494 220.522 62.4119 221.259 62.4252C221.996 62.4385 222.723 62.6025 223.395 62.907C224.066 63.2115 224.669 63.6501 225.165 64.1959C225.661 64.7416 226.04 65.383 226.279 66.0807C226.518 66.7783 226.612 67.5175 226.555 68.2527C226.498 68.988 226.291 69.7038 225.947 70.3562C225.603 71.0086 225.13 71.5839 224.555 72.0466L208.964 86.2398C207.721 87.4084 206.081 88.0603 204.375 88.0634Z" fill="#5ED6BB"/>
<path d="M235.377 32.8546C236.111 32.6731 236.427 31.4033 236.084 30.0183C235.742 28.6334 234.869 27.6577 234.136 27.8392C233.403 28.0206 233.086 29.2905 233.429 30.6754C233.772 32.0604 234.644 33.036 235.377 32.8546Z" fill="#1B1926"/>
</g>
<g clip-path="url(#clip3_183_4663)">
<rect y="19.001" width="100" height="100" rx="50" fill="#EB459F"/>
<path d="M96.8934 121.267C103.242 124.617 122.208 137.298 124.545 139.709C126.542 141.77 122.611 146.051 118.771 143.782C114.97 141.536 99.0676 129.746 99.0676 129.746C99.0676 129.746 113.022 143.901 113.995 146.195C115.453 149.631 109.862 152.259 107.165 148.907C102.918 143.63 93.8997 133.074 89.047 127.327C83.5863 120.861 90.5449 117.917 96.8934 121.267Z" fill="#29CC7A"/>
<path d="M13.7791 73.8409C2.05761 63.9312 0.144016 72.5887 0.0024232 85.2671C-0.139169 97.9456 5.93715 104.832 14.8745 109.381C18.969 111.466 24.0537 113.727 28.7906 115.732C20.6993 118.368 4.41455 123.754 2.28606 125.084C-0.147551 126.605 2.64206 131.705 6.9135 130.424C11.1434 129.155 29.4099 121.525 29.4099 121.525C29.4099 121.525 12.4664 131.919 10.9714 133.912C8.73185 136.898 13.6055 140.889 16.9515 138.183C21.8894 134.191 39.8276 120.48 39.8276 120.48L43.9278 115.588C43.9278 115.588 27.8742 85.7572 13.7791 73.8409Z" fill="#29CC7A"/>
<path d="M128.104 83.9363C125.399 71.5492 121.772 63.4585 112.3 75.5358C104.953 84.9034 98.3176 101.733 94.5318 112.502C94.2739 107.59 93.1722 102.76 91.2748 98.2221C86.7023 87.5076 77.076 81.8469 72.0266 79.5117C73.6095 76.8244 74.3 73.7046 73.9988 70.6003C73.6702 67.0735 72.2642 63.7334 69.9718 61.0333C67.6793 58.3332 64.6114 56.404 61.1847 55.5076C57.6734 48.5457 52.8315 44.4018 47.6108 46.0155C43.1939 47.3807 42.1053 52.2803 43.3251 58.5773C42.5045 58.8383 41.6842 59.1114 40.8713 59.399C39.8702 59.7532 38.8963 60.1116 37.9496 60.4741C33.6573 53.7037 28.9189 52.6972 25.4941 54.0834C21.5073 55.6972 20.0836 61.6772 23.0247 69.9305C20.6554 73.8425 19.2866 78.278 19.039 82.8448C18.8052 88.8457 21.5908 92.991 26.2789 95.1941C21.8776 100.104 18.8307 106.99 19.0394 112.484C19.2531 118.108 25.0056 118.621 29.0775 118.251C31.2654 118.003 33.3819 117.322 35.3033 116.246C37.0303 115.336 38.5633 114.297 39.9222 113.505C39.9222 113.505 41.9568 128.312 58.0523 128.312H88.6106C91.4866 128.314 94.3003 127.475 96.7058 125.899C102.002 122.427 111.803 115.858 118.423 110.562C126.253 104.297 130.81 96.3237 128.104 83.9363ZM53.3944 94.4551H53.3934L53.3955 94.4544L53.3944 94.4551ZM56.9773 92.8864L56.9748 92.8877L56.9799 92.885L56.9773 92.8864Z" fill="#57F287"/>
<path d="M64.46 88.0652C53.9237 96.1811 46.3774 97.0353 32.851 96.7506C30.6322 104.12 32.4768 110.9 35.3038 116.246C37.0308 115.336 38.5638 114.296 39.9226 113.504C39.9226 113.504 41.9573 128.312 58.0528 128.312H70.6005L70.9621 101.734C70.7723 94.9945 67.8297 91.3876 64.46 88.0652Z" fill="#B3FFC3"/>
<path d="M49.4147 50.6664C47.5164 51.1409 47.1279 54.752 48.2906 57.5036L55.0151 55.6022C53.8522 52.8506 51.9617 50.0296 49.4147 50.6664Z" fill="black"/>
<path d="M49.6958 64.1081C46.6629 65.7256 47.0769 70.1014 47.7078 73.1828C48.1212 75.2895 48.3249 77.4318 48.3159 79.5786L58.3088 72.2575C57.9729 70.4848 57.425 68.759 56.6769 67.1171C55.1772 64.352 52.2759 62.732 49.6958 64.1081Z" fill="#FF78B9"/>
<path d="M53.6864 76.1706C53.4016 76.1703 53.1278 76.0606 52.9217 75.864C52.7155 75.6674 52.5929 75.3991 52.5792 75.1146C52.4735 73.2355 52.1181 71.3789 51.5225 69.5936C51.416 69.3193 51.4228 69.0139 51.5415 68.7447C51.6601 68.4754 51.8809 68.2643 52.1552 68.1578C52.4295 68.0512 52.7349 68.0581 53.0042 68.1767C53.2735 68.2954 53.4846 68.5161 53.5911 68.7904C54.2758 70.798 54.681 72.8903 54.7952 75.0084C54.8021 75.1539 54.7804 75.2993 54.7312 75.4363C54.6819 75.5734 54.6062 75.6994 54.5083 75.8072C54.4104 75.9149 54.2922 76.0024 54.1605 76.0645C54.0287 76.1266 53.8861 76.1621 53.7406 76.1691C53.7226 76.1698 53.7045 76.1706 53.6864 76.1706Z" fill="#EB459F"/>
<path d="M39.5727 83.0329C34.846 82.8979 30.1434 82.3067 25.5304 81.2677C25.388 81.2354 25.2534 81.1754 25.1342 81.091C25.0151 81.0066 24.9138 80.8996 24.8361 80.776C24.7584 80.6524 24.7059 80.5147 24.6816 80.3707C24.6572 80.2268 24.6615 80.0795 24.6942 79.9372C24.7269 79.7949 24.7873 79.6605 24.8721 79.5416C24.9568 79.4228 25.0642 79.3218 25.188 79.2445C25.3119 79.1672 25.4498 79.1151 25.5938 79.0912C25.7378 79.0673 25.8851 79.0721 26.0273 79.1052C26.1544 79.1341 38.7551 81.9943 44.44 80.2644C50.2065 78.5079 64.9386 65.0752 65.0867 64.9402C65.1939 64.8399 65.3198 64.7618 65.4573 64.7106C65.5948 64.6593 65.7411 64.6358 65.8877 64.6415C66.0344 64.6471 66.1784 64.6818 66.3116 64.7435C66.4447 64.8052 66.5642 64.8928 66.6633 65.001C66.7624 65.1093 66.839 65.2361 66.8887 65.3741C66.9384 65.5122 66.9603 65.6588 66.953 65.8053C66.9456 65.9519 66.9093 66.0955 66.8461 66.228C66.7829 66.3604 66.694 66.479 66.5847 66.5768C65.9642 67.1438 51.3304 80.4848 45.0869 82.3864C43.2888 82.8625 41.4321 83.0801 39.5727 83.0329Z" fill="black"/>
<path d="M27.1719 58.6977C28.7442 57.8085 31.7317 59.7605 32.9819 62.4737L27.0462 66.1618C25.7962 63.4485 24.925 59.9683 27.1719 58.6977Z" fill="black"/>
<path d="M49.0269 101.116C44.2351 99.6802 39.1424 99.5797 34.2976 100.825C26.6265 102.567 18.9124 107.01 18.8965 112.286C18.8806 117.583 24.2705 118.287 28.1134 118.096C34.0395 117.697 39.6595 115.318 44.0704 111.34C44.0704 111.34 51.5722 113.458 54.1797 108.737C56.3317 104.841 51.9862 101.842 49.0269 101.116Z" fill="url(#paint0_linear_183_4663)"/>
<path d="M78.5511 116.583C77.5196 110.126 72.5043 100.647 65.372 99.01C64.5019 98.7668 63.5864 98.7344 62.7013 98.9153C61.8161 99.0962 60.9868 99.4853 60.2819 100.05C59.5769 100.615 59.0167 101.34 58.6474 102.165C58.2781 102.989 58.1105 103.89 58.1584 104.792C58.2259 108.442 62.2829 110.701 62.2829 110.701C62.2829 110.701 60.2933 120.077 62.7473 125.772C65.5242 132.215 71.2527 133.4 74.0193 132.123C78.0225 130.275 79.9499 125.337 78.5511 116.583Z" fill="#57F287"/>
<path d="M77.7552 117.064C77.4615 117.064 77.1797 116.947 76.9718 116.74C76.7638 116.533 76.6466 116.251 76.6458 115.957C76.6607 113.36 76.1436 110.787 75.1264 108.397C74.1092 106.007 72.6134 103.85 70.7312 102.06C70.6185 101.965 70.526 101.847 70.4593 101.715C70.3925 101.583 70.3528 101.439 70.3425 101.292C70.3322 101.144 70.3515 100.996 70.3993 100.856C70.447 100.716 70.5223 100.587 70.6206 100.477C70.7189 100.367 70.8383 100.277 70.9718 100.213C71.1053 100.15 71.2501 100.113 71.3978 100.106C71.5456 100.1 71.6931 100.122 71.8319 100.173C71.9707 100.224 72.0979 100.303 72.2061 100.403C74.3184 102.403 75.9989 104.815 77.1441 107.489C78.2892 110.163 78.8747 113.043 78.8646 115.952C78.865 116.097 78.8367 116.242 78.7813 116.376C78.7258 116.511 78.6444 116.634 78.5417 116.737C78.4389 116.84 78.3169 116.922 78.1824 116.978C78.0479 117.034 77.9038 117.063 77.7581 117.064L77.7552 117.064Z" fill="#29CC7A"/>
</g>
<g clip-path="url(#clip4_183_4663)">
<rect x="265" y="33.001" width="75" height="75" rx="37.5" fill="#66BCFF"/>
<path d="M325.377 70.1284C325.377 70.1284 330.831 51.6209 333.006 60.3231C335.182 69.0264 333.006 77.7579 326.479 75.5821L325.377 70.1284Z" fill="#7567EF"/>
<path d="M295.425 82.477C305.493 80.9426 314.683 75.8619 321.337 68.1505C321.685 67.769 322.14 67.4977 322.643 67.3706C323.146 67.2463 323.674 67.2717 324.163 67.4441H324.728C324.858 67.413 324.994 67.4045 325.126 67.4271C325.259 67.4469 325.386 67.4949 325.499 67.5656C325.612 67.6362 325.711 67.7295 325.788 67.8425C325.864 67.9527 325.918 68.077 325.943 68.207L328.345 78.0406C328.404 78.3005 328.362 78.5718 328.223 78.7979C328.088 79.0268 327.867 79.1907 327.61 79.2556L326.96 79.4252V80.3012C326.96 90.4456 317.975 90.9542 312.832 93.6952C309.413 95.5036 303.478 101.833 298.703 103.5C293.927 105.168 292.006 104.009 286.722 104.603L295.425 82.477Z" fill="#CF5B67"/>
<path d="M285.703 109.632L275.813 102.709C275.813 102.709 260.667 105.224 256.739 94.9663C254.281 88.5236 251.709 89.993 250.155 92.1405C249.042 93.5986 248.409 95.3675 248.347 97.1986C248.121 103.246 250.24 118.589 277.169 120.681L285.703 109.632Z" fill="#6250F0"/>
<path d="M313.934 76.147C309.466 80.5947 303.784 83.6211 297.601 84.8503L288.219 101.805L288.841 104.348C292.158 104.625 295.496 104.311 298.703 103.415C301.8 101.977 304.659 100.073 307.18 97.7639C307.816 95.3394 307.816 92.7878 307.18 90.3605L313.934 76.147Z" fill="#CF5B67"/>
<path d="M295.425 97.821C297.827 96.2556 299.856 94.1758 301.359 91.7344C302.865 89.2901 303.809 86.5435 304.128 83.6923C304.128 83.6923 325.915 77.1649 312.86 66.2858C312.86 66.2858 310.684 56.4805 303.054 55.3784L286.722 60.8321L281.268 71.7112C281.268 71.7112 284.518 81.5165 277.99 86.9702" fill="#7567EF"/>
<path d="M310.683 76.1475C310.076 76.1475 309.581 75.4156 309.581 74.5086C309.581 73.6043 310.076 72.8696 310.683 72.8696C311.291 72.8696 311.785 73.6043 311.785 74.5086C311.785 75.4156 311.291 76.1475 310.683 76.1475Z" fill="#FFFEBD"/>
<path d="M280.221 73.2365C280.221 73.2365 275.531 48.2016 304.184 53.8237C304.184 53.8237 295.48 73.3212 280.221 73.2365Z" fill="#FC9E17"/>
<path d="M303.017 70.9198C302.553 70.0155 302.666 69.035 303.263 68.7298C303.862 68.4247 304.718 68.9107 305.181 69.8149C305.642 70.7192 305.529 71.6969 304.933 72.0021C304.334 72.3072 303.477 71.8212 303.017 70.9198Z" fill="black"/>
<path d="M306.304 73.9429C309.748 75.1721 313.512 75.1721 316.957 73.9429C316.957 73.9429 317.211 80.4986 304.128 83.7482C303.91 85.4634 303.512 87.1504 302.941 88.778C302.379 90.7362 301.424 92.5589 300.129 94.1356C298.838 95.7096 297.236 97.0037 295.425 97.9334L291.073 91.3777C291.647 91.389 292.217 91.2844 292.751 91.0697C293.285 90.8578 293.769 90.5356 294.176 90.1287C294.582 89.7246 294.902 89.2386 295.117 88.7074C295.331 88.1733 295.436 87.6025 295.425 87.0261C295.425 87.0261 300.878 84.8502 300.878 81.5724C302.537 81.1457 303.992 80.1454 304.984 78.7495C305.976 77.3535 306.445 75.6524 306.304 73.9429Z" fill="#6250F0"/>
<path d="M312.794 69.7696C312.489 69.2412 312.452 68.693 312.709 68.5432C312.967 68.3963 313.424 68.7043 313.727 69.2327C314.032 69.764 314.069 70.3122 313.811 70.4619C313.554 70.6089 313.097 70.3008 312.794 69.7696Z" fill="#6250F0"/>
<path d="M292.113 80.3407C291.935 80.0299 292.294 79.4845 292.916 79.1257C293.537 78.7668 294.187 78.7301 294.365 79.0409C294.546 79.3517 294.187 79.8943 293.566 80.2531C292.944 80.612 292.294 80.6516 292.113 80.3407Z" fill="#6250F0"/>
<path d="M289.279 84.4155C288.991 83.9154 289.562 83.045 290.551 82.4742C291.542 81.9063 292.58 81.8526 292.871 82.3527C293.159 82.8557 292.588 83.726 291.596 84.294C290.607 84.8648 289.57 84.9185 289.279 84.4155Z" fill="#6250F0"/>
<path d="M280.165 72.8689L288.642 71.1452C289.225 70.8683 289.793 70.5574 290.338 70.2127C285.704 66.4262 285.11 60.0683 285.223 56.3101C278.922 61.4246 279.883 70.8909 280.165 72.8689Z" fill="#FC8717"/>
<path d="M279.289 74.4801C285.141 74.288 290.764 72.1545 295.271 68.4132C299.778 64.6748 302.915 59.5433 304.184 53.824" stroke="#FBBB3A" stroke-width="1.75" stroke-miterlimit="10" stroke-linecap="round"/>
<path d="M302.629 90.0786C302.629 90.0786 300.99 103.19 279.628 85.1335L272.648 87.0833L276.633 102.031L268.155 109.774H278.017V121.275C281.202 123.117 284.516 124.722 287.936 126.079C294.237 127.915 304.297 120.625 304.297 119.523C304.297 117.856 305.936 94.8824 305.936 94.8824L302.629 90.0786Z" fill="#CF5B67"/>
<path d="M302.942 88.7788C302.942 88.7788 299.042 100.845 279.629 85.1335L278.527 85.4726C278.527 85.4726 303.168 107.231 302.942 88.7788Z" fill="#AD434E"/>
<path d="M251.879 122.998L252.698 121.048C252.266 120.367 251.995 119.593 251.907 118.787C251.144 112.26 256.965 107.174 259.932 103.189C262.249 100.109 265.131 93.2145 268.777 89.6541C269.345 89.089 269.949 88.5605 270.585 88.0717C271.198 87.6054 271.899 87.2692 272.648 87.0827H273.072C274.504 86.851 275.974 87.1024 277.248 87.7976C278.523 88.4927 279.529 89.5948 280.108 90.9257C280.362 91.5473 284.573 101.663 277.452 104.772C273.702 105.967 270.433 108.335 268.127 111.525C266.948 113.902 266.248 116.484 266.064 119.127C266.064 119.692 265.923 120.285 265.866 120.907C265.866 122.178 265.612 123.478 265.499 124.863C265.386 126.247 264.368 126.445 263.069 126.163L262.475 127.576C262.43 127.686 262.362 127.785 262.277 127.869C262.193 127.951 262.091 128.019 261.981 128.064C261.871 128.107 261.755 128.129 261.633 128.129C261.514 128.129 261.399 128.104 261.288 128.056L252.359 124.298C252.235 124.255 252.122 124.182 252.028 124.091C251.935 123.998 251.862 123.885 251.817 123.761C251.769 123.636 251.752 123.504 251.763 123.374C251.774 123.241 251.814 123.114 251.879 122.998Z" fill="#DE6B73"/>
<path d="M308.424 91.6322C308.78 90.8919 309.268 90.2222 309.865 89.6542C310.164 89.3773 310.523 89.1654 310.913 89.0382C311.303 88.911 311.718 88.8715 312.125 88.9195C312.608 89.106 313.111 89.236 313.623 89.3151C314.004 89.3293 314.38 89.2219 314.697 89.0043C315.561 88.3374 316.282 87.501 316.816 86.5459C317.073 86.0655 317.432 85.6445 317.864 85.3139C318.3 84.9804 318.8 84.7459 319.331 84.6244C319.82 84.5707 320.311 84.5707 320.8 84.6244C322.634 84.8307 324.482 84.3927 326.028 83.3811C326.277 83.2087 326.511 83.0194 326.734 82.8159C325.208 90.2759 317.522 90.9823 312.86 93.4407C310.444 95.0259 308.141 96.7722 305.965 98.6683C305.858 98.3716 305.813 98.0523 305.838 97.7358C305.861 97.4194 305.954 97.1113 306.106 96.8316C306.754 95.0457 307.528 93.3079 308.424 91.6322Z" fill="#BC4D58"/>
<path d="M332.442 66.5678C331.481 69.1109 331.283 71.3998 332.018 71.6824C332.753 71.9649 333.233 71.1455 333.968 69.9021C334.411 69.1561 334.79 68.3706 335.098 67.5568C336.059 65.0136 336.256 62.7248 335.522 62.4422C334.787 62.1596 333.431 63.9116 332.442 66.5678Z" fill="#7567EF"/>
</g>
<defs>
<linearGradient id="paint0_linear_183_4663" x1="19.8145" y1="111.469" x2="85.5402" y2="100.259" gradientUnits="userSpaceOnUse">
<stop offset="0.0988" stop-color="#57F287"/>
<stop offset="0.7734" stop-color="#B3FFC3"/>
</linearGradient>
<clipPath id="clip0_183_4663">
<rect x="176" y="87.001" width="75" height="75" rx="37.5" fill="white"/>
</clipPath>
<clipPath id="clip1_183_4663">
<rect x="83" y="58.001" width="100" height="100" rx="50" fill="white"/>
</clipPath>
<clipPath id="clip2_183_4663">
<rect x="182" y="0.000976562" width="100" height="100" rx="50" fill="white"/>
</clipPath>
<clipPath id="clip3_183_4663">
<rect y="19.001" width="100" height="100" rx="50" fill="white"/>
</clipPath>
<clipPath id="clip4_183_4663">
<rect x="265" y="33.001" width="75" height="75" rx="37.5" fill="white"/>
</clipPath>
</defs>
</svg>
