<svg width="130" height="130" viewBox="0 0 130 130" fill="none" xmlns="http://www.w3.org/2000/svg">
<path d="M130.001 19.0071L118.275 27.3703C100.245 6.04054 88.3442 0.736869 64.746 0C26.2916 4.30981 13.2118 17.5968 0.765625 55.2474L22.4323 63.3571C28.2746 34.3365 41.7267 22.3875 64.746 22.5551C80.2932 22.6684 89.1617 28.1599 99.6676 41.5623L87.9421 50.6857L130.001 66.1448V19.0071Z" fill="url(#paint0_linear_417_1859)"/>
<path d="M4.57764e-05 110.993L11.7487 102.63C29.8151 123.959 41.7389 129.263 65.3837 130C103.914 125.69 117.02 112.403 129.49 74.7526L107.781 66.6429C101.927 95.6635 88.4484 107.613 65.3837 107.445C49.8058 107.332 40.9198 101.84 30.3932 88.4377L42.1418 79.3143L4.57764e-05 63.8552V110.993Z" fill="url(#paint1_linear_417_1859)"/>
<defs>
<linearGradient id="paint0_linear_417_1859" x1="128.011" y1="39.1806" x2="21.0192" y2="-5.72509" gradientUnits="userSpaceOnUse">
<stop stop-color="#3F70DD"/>
<stop offset="1" stop-color="#B377F3"/>
</linearGradient>
<linearGradient id="paint1_linear_417_1859" x1="1.99418" y1="90.8194" x2="109.133" y2="135.876" gradientUnits="userSpaceOnUse">
<stop stop-color="#3F70DD"/>
<stop offset="1" stop-color="#B377F3"/>
</linearGradient>
</defs>
</svg>
