<svg width="340" height="245" viewBox="0 0 340 245" fill="none" xmlns="http://www.w3.org/2000/svg">
<rect width="340" height="245" rx="20" fill="#202225"/>
<path d="M44.592 41C47.868 41 49.604 38.956 49.604 36.058C49.604 33.188 47.952 31.2 44.83 31.2H41.232V41H44.592ZM43.052 32.838H44.69C46.776 32.838 47.714 34.098 47.714 36.086C47.714 38.06 46.678 39.362 44.578 39.362H43.052V32.838ZM57.5339 36.94C57.5339 34.896 56.3159 33.748 54.3699 33.748C52.1159 33.748 50.7859 35.288 50.7859 37.444C50.7859 39.754 52.3399 41.21 54.7059 41.21C55.7979 41.21 56.7219 40.888 57.2539 40.468V39.054C56.6939 39.488 55.8679 39.754 55.0419 39.754C53.5859 39.754 52.7319 39.068 52.5639 37.864H57.5339V36.94ZM54.3699 35.162C55.3219 35.162 55.9519 35.722 55.9659 36.772H52.6059C52.7459 35.806 53.3199 35.162 54.3699 35.162ZM61.4056 41.21C63.0856 41.21 64.2196 40.286 64.2196 38.914C64.2196 37.906 63.6876 37.192 62.3996 36.856L61.2516 36.562C60.7196 36.422 60.4816 36.17 60.4816 35.806C60.4816 35.372 60.8456 35.134 61.6016 35.134C62.3856 35.134 63.2116 35.386 63.8416 35.876V34.42C63.2676 34.056 62.5116 33.748 61.4896 33.748C59.7956 33.748 58.7316 34.602 58.7316 35.862C58.7316 36.828 59.3056 37.486 60.4816 37.808L61.6436 38.144C62.2456 38.326 62.4416 38.606 62.4416 38.97C62.4416 39.53 61.9936 39.824 61.2236 39.824C60.3836 39.824 59.4456 39.46 58.7316 38.886V40.37C59.5156 40.944 60.3976 41.21 61.4056 41.21ZM68.1631 33.748C67.1131 33.748 66.2731 34.098 65.6431 34.532V36.114C66.2171 35.568 66.9591 35.232 67.8271 35.232C68.9471 35.232 69.6471 35.876 69.6471 37.024V37.458C69.2971 36.982 68.6671 36.646 67.8131 36.646C66.3151 36.646 65.2651 37.556 65.2651 38.928C65.2651 40.23 66.2731 41.21 67.6591 41.21C68.5831 41.21 69.2831 40.79 69.6471 40.104V41H71.3551V36.856C71.3551 34.924 70.1791 33.748 68.1631 33.748ZM68.2891 39.978C67.4211 39.978 66.9451 39.53 66.9451 38.844C66.9451 38.158 67.4351 37.71 68.3031 37.71C69.1431 37.71 69.6611 38.186 69.6611 38.816C69.6611 39.488 69.1291 39.978 68.2891 39.978ZM75.4039 33.3C75.4039 32.6 75.7259 32.208 76.4959 32.208C76.9299 32.208 77.3219 32.306 77.6159 32.488V31.13C77.3079 30.92 76.7899 30.78 76.1739 30.78C74.5359 30.78 73.6679 31.732 73.6679 33.384V33.958H72.4359V35.4H73.6679V41H75.4039V35.4H77.4899V33.958H75.4039V33.3ZM79.5283 32.894C80.1163 32.894 80.5503 32.474 80.5503 31.9C80.5503 31.34 80.1303 30.92 79.5283 30.92C78.9263 30.92 78.4923 31.34 78.4923 31.9C78.4923 32.474 78.9403 32.894 79.5283 32.894ZM80.3963 41V33.958H78.6603V41H80.3963ZM85.5284 41.21C87.6704 41.21 89.1404 39.67 89.1404 37.5C89.1404 35.302 87.6844 33.748 85.5284 33.748C83.3864 33.748 81.9304 35.302 81.9304 37.5C81.9304 39.67 83.4004 41.21 85.5284 41.21ZM85.5284 39.698C84.3804 39.698 83.7084 38.788 83.7084 37.486C83.7084 36.17 84.3804 35.26 85.5284 35.26C86.6764 35.26 87.3764 36.17 87.3764 37.486C87.3764 38.788 86.6764 39.698 85.5284 39.698ZM92.9876 41.21C94.6676 41.21 95.8016 40.286 95.8016 38.914C95.8016 37.906 95.2696 37.192 93.9816 36.856L92.8336 36.562C92.3016 36.422 92.0636 36.17 92.0636 35.806C92.0636 35.372 92.4276 35.134 93.1836 35.134C93.9676 35.134 94.7936 35.386 95.4236 35.876V34.42C94.8496 34.056 94.0936 33.748 93.0716 33.748C91.3776 33.748 90.3136 34.602 90.3136 35.862C90.3136 36.828 90.8876 37.486 92.0636 37.808L93.2256 38.144C93.8276 38.326 94.0236 38.606 94.0236 38.97C94.0236 39.53 93.5756 39.824 92.8056 39.824C91.9656 39.824 91.0276 39.46 90.3136 38.886V40.37C91.0976 40.944 91.9796 41.21 92.9876 41.21Z" fill="#ADB0B3"/>
<rect x="20" y="59" width="300" height="66" fill="#202225"/>
<rect x="40" y="59" width="46" height="46" rx="23" fill="#8080FF"/>
<path d="M78.1504 77.7015L68.8219 74.8267L63.1504 67L57.4958 74.8267L48.1504 77.7015L53.9913 85.4118L53.8897 95L63.1504 91.9424L72.428 95L72.3265 85.4118L78.1504 77.7015Z" fill="#FFDEF9"/>
<path d="M78.1504 77.7015L68.8219 74.8267L63.1842 67L57.4958 74.8267L48.1504 77.7015L53.9913 85.4118L53.8897 95L63.1842 91.9424L72.4619 95L72.3603 85.4118L78.1504 77.7015ZM68.9235 82.9359L68.077 84.0492V85.4451V89.2006L64.4371 88.0041L63.1842 87.5555L61.8298 88.0041L58.1053 89.2006V85.4451V84.1157L57.2588 83.0023L55.0917 79.9115L58.7486 78.7816L60.1199 78.3662L60.9495 77.2196L63.1842 74.1454L65.4021 77.203L66.2316 78.3329L67.586 78.7484L71.2429 79.8783L68.9235 82.9359Z" fill="#FF73FA"/>
<path d="M63.1504 67V74.1786L66.1978 78.3662L71.2091 79.9115L78.1504 77.7015L68.822 74.8267L63.1504 67Z" fill="#FFB0FF"/>
<path d="M53.9903 85.4119L58.2228 84.0493L58.172 89.2006L63.1325 87.5555V91.9425L53.8887 95.0001L53.9903 85.4119Z" fill="#E655D4"/>
<path d="M68.0762 84.0493L72.3256 85.4119L72.4272 95.0001L68.127 89.2006L68.0762 84.0493Z" fill="#FFB0FF"/>
<path d="M66.1969 78.366L58.2228 84.0492L57.207 82.6866L65.1981 77.0034L66.1969 78.366Z" fill="white"/>
<path d="M71.2079 79.9117L58.1719 89.2007V87.107L69.1594 79.2803L71.2079 79.9117Z" fill="white"/>
<path d="M48.9922 73.3292L48.2915 74.7617C48.2099 74.8318 48.1595 74.9314 48.1515 75.0385C48.1435 75.1457 48.1785 75.2516 48.2487 75.333C48.319 75.4144 48.4188 75.4647 48.5262 75.4727C48.6336 75.4807 48.7397 75.4458 48.8213 75.3757L50.257 74.6935C50.3103 74.6678 50.3687 74.6545 50.4279 74.6545C50.4871 74.6545 50.5455 74.6678 50.5988 74.6935L52.0345 75.3757C52.1086 75.4139 52.193 75.4277 52.2755 75.4149C52.358 75.4022 52.4343 75.3636 52.4933 75.3047C52.5523 75.2458 52.591 75.1697 52.6038 75.0874C52.6165 75.0051 52.6027 74.9209 52.5644 74.847L51.8636 73.3292C51.8381 73.279 51.8248 73.2234 51.8248 73.1672C51.8248 73.1109 51.8381 73.0553 51.8636 73.0051L52.5644 71.5726C52.6027 71.4987 52.6165 71.4144 52.6038 71.3322C52.591 71.2499 52.5523 71.1738 52.4933 71.1149C52.4343 71.056 52.358 71.0174 52.2755 71.0046C52.193 70.9919 52.1086 71.0056 52.0345 71.0439L50.5988 71.7261C50.5455 71.7518 50.4871 71.7651 50.4279 71.7651C50.3687 71.7651 50.3103 71.7518 50.257 71.7261L48.8213 71.0439C48.7472 71.0056 48.6628 70.9919 48.5803 71.0046C48.4979 71.0174 48.4216 71.056 48.3626 71.1149C48.3036 71.1738 48.2649 71.2499 48.2521 71.3322C48.2393 71.4144 48.2531 71.4987 48.2915 71.5726L48.9922 73.0051C49.0178 73.0553 49.0311 73.1109 49.0311 73.1672C49.0311 73.2234 49.0178 73.279 48.9922 73.3292Z" fill="#FFD836"/>
<path d="M73.588 90.9634H73.6051C74.0204 90.9634 74.3571 90.6274 74.3571 90.213V88.6952C74.3571 88.2808 74.0204 87.9448 73.6051 87.9448H73.588C73.1726 87.9448 72.8359 88.2808 72.8359 88.6952V90.213C72.8359 90.6274 73.1726 90.9634 73.588 90.9634Z" fill="#D4E4FF"/>
<path d="M73.588 97.0005H73.6051C74.0204 97.0005 74.3571 96.6645 74.3571 96.2501V94.7323C74.3571 94.3179 74.0204 93.9819 73.6051 93.9819H73.588C73.1726 93.9819 72.8359 94.3179 72.8359 94.7323V96.2501C72.8359 96.6645 73.1726 97.0005 73.588 97.0005Z" fill="#D4E4FF"/>
<path d="M72.0838 92.4813V92.4642C72.0838 92.0498 71.7471 91.7139 71.3318 91.7139H69.8106C69.3953 91.7139 69.0586 92.0498 69.0586 92.4642V92.4813C69.0586 92.8957 69.3953 93.2317 69.8106 93.2317H71.3318C71.7471 93.2317 72.0838 92.8957 72.0838 92.4813Z" fill="#D4E4FF"/>
<path d="M78.1522 92.4813V92.4642C78.1522 92.0498 77.8155 91.7139 77.4001 91.7139H75.879C75.4637 91.7139 75.127 92.0498 75.127 92.4642V92.4813C75.127 92.8957 75.4637 93.2317 75.879 93.2317H77.4001C77.8155 93.2317 78.1522 92.8957 78.1522 92.4813Z" fill="#D4E4FF"/>
<path d="M100.23 69.052C101.966 68.842 102.876 67.736 102.876 66.224C102.876 64.348 101.518 63.2 99.39 63.2H95.078V73H97.43V68.87L100.328 73H103.142L100.23 69.052ZM97.43 65.174H98.942C99.866 65.174 100.356 65.636 100.356 66.448C100.356 67.288 99.824 67.792 98.774 67.792H97.43V65.174ZM110.707 69.094C110.707 66.91 109.461 65.706 107.333 65.706C105.009 65.706 103.581 67.232 103.581 69.416C103.581 71.74 105.177 73.21 107.697 73.21C108.915 73.21 109.867 72.86 110.399 72.454V70.816C109.825 71.208 109.055 71.446 108.257 71.446C106.885 71.446 106.101 70.9 105.877 70.018H110.707V69.094ZM107.389 67.428C108.201 67.428 108.733 67.876 108.761 68.758H105.905C106.017 67.932 106.507 67.428 107.389 67.428ZM114.601 73.21C116.477 73.21 117.681 72.23 117.681 70.802C117.681 69.752 117.121 69.01 115.791 68.716L114.783 68.492C114.265 68.366 114.069 68.184 114.069 67.904C114.069 67.582 114.377 67.386 115.007 67.386C115.791 67.386 116.603 67.624 117.289 68.086V66.392C116.715 66.028 115.917 65.706 114.783 65.706C112.907 65.706 111.759 66.616 111.759 67.988C111.759 69.052 112.389 69.682 113.621 69.99L114.601 70.242C115.105 70.382 115.315 70.578 115.315 70.872C115.315 71.306 114.965 71.516 114.363 71.516C113.579 71.516 112.529 71.138 111.801 70.578V72.37C112.627 72.93 113.579 73.21 114.601 73.21ZM123.535 65.706C122.387 65.706 121.589 66.364 121.211 67.106V65.916H118.971V75.66H121.239V72.118C121.673 72.776 122.443 73.21 123.423 73.21C125.257 73.21 126.629 71.684 126.629 69.388C126.629 67.246 125.383 65.706 123.535 65.706ZM122.723 71.306C121.799 71.306 121.211 70.578 121.211 69.5C121.211 68.394 121.813 67.638 122.751 67.638C123.675 67.638 124.305 68.394 124.305 69.472C124.305 70.55 123.675 71.306 122.723 71.306ZM131.356 73.21C133.54 73.21 135.206 71.74 135.206 69.486C135.206 67.19 133.568 65.706 131.356 65.706C129.172 65.706 127.548 67.19 127.548 69.486C127.548 71.74 129.2 73.21 131.356 73.21ZM131.356 71.292C130.432 71.292 129.872 70.564 129.872 69.472C129.872 68.366 130.418 67.624 131.356 67.624C132.308 67.624 132.882 68.366 132.882 69.472C132.882 70.564 132.308 71.292 131.356 71.292ZM141.006 65.706C139.886 65.706 139.13 66.224 138.766 66.98V65.916H136.526V73H138.794V69.206C138.794 68.24 139.242 67.61 140.082 67.61C140.894 67.61 141.216 68.114 141.216 69.066V73H143.484V68.562C143.484 66.77 142.546 65.706 141.006 65.706ZM150.123 66.938C149.689 66.154 148.961 65.706 148.023 65.706C145.909 65.706 144.747 67.498 144.747 69.458C144.747 71.544 145.853 73.21 147.841 73.21C149.003 73.21 149.801 72.552 150.165 71.81V73H152.391V62.92H150.123V66.938ZM148.597 71.292C147.701 71.292 147.071 70.606 147.071 69.486C147.071 68.352 147.687 67.624 148.625 67.624C149.563 67.624 150.151 68.366 150.151 69.458C150.151 70.55 149.535 71.292 148.597 71.292ZM156.81 65.706C155.718 65.706 154.78 66.042 154.108 66.476V68.366C154.64 67.89 155.396 67.568 156.292 67.568C157.412 67.568 158.042 68.142 158.042 69.206V69.416C157.678 68.968 157.076 68.688 156.25 68.688C154.78 68.688 153.73 69.542 153.73 70.956C153.73 72.258 154.696 73.21 156.068 73.21C156.95 73.21 157.664 72.818 158.042 72.174V73H160.268V68.982C160.268 66.98 159.05 65.706 156.81 65.706ZM156.936 71.754C156.236 71.754 155.83 71.376 155.83 70.816C155.83 70.27 156.25 69.892 156.95 69.892C157.636 69.892 158.084 70.284 158.084 70.802C158.084 71.348 157.636 71.754 156.936 71.754ZM164.938 65.608V67.918L167.43 66.266V73H169.74V63.69H167.878L164.938 65.608ZM175.19 66.952C174.616 66.952 174.098 67.05 173.664 67.204V65.608H177.752V63.69H171.718V69.122C172.32 68.828 173.062 68.548 174.056 68.548C175.302 68.548 175.918 69.192 175.918 70.004C175.918 70.816 175.232 71.404 174 71.404C173.02 71.404 172.138 71.082 171.62 70.62V72.482C172.32 72.958 173.384 73.252 174.336 73.252C176.758 73.252 178.27 71.852 178.27 69.906C178.27 68.24 177.15 66.952 175.19 66.952ZM187.793 65.706C186.645 65.706 185.847 66.364 185.469 67.106V65.916H183.229V75.66H185.497V72.118C185.931 72.776 186.701 73.21 187.681 73.21C189.515 73.21 190.887 71.684 190.887 69.388C190.887 67.246 189.641 65.706 187.793 65.706ZM186.981 71.306C186.057 71.306 185.469 70.578 185.469 69.5C185.469 68.394 186.071 67.638 187.009 67.638C187.933 67.638 188.563 68.394 188.563 69.472C188.563 70.55 187.933 71.306 186.981 71.306ZM198.932 69.094C198.932 66.91 197.686 65.706 195.558 65.706C193.234 65.706 191.806 67.232 191.806 69.416C191.806 71.74 193.402 73.21 195.922 73.21C197.14 73.21 198.092 72.86 198.624 72.454V70.816C198.05 71.208 197.28 71.446 196.482 71.446C195.11 71.446 194.326 70.9 194.102 70.018H198.932V69.094ZM195.614 67.428C196.426 67.428 196.958 67.876 196.986 68.758H194.13C194.242 67.932 194.732 67.428 195.614 67.428ZM204.324 65.79C203.512 65.79 202.868 66.252 202.546 67.386V65.916H200.278V73H202.546V69.836C202.546 68.562 203.134 67.876 204.1 67.876C204.576 67.876 204.954 67.988 205.22 68.17V66.07C204.996 65.916 204.702 65.79 204.324 65.79ZM211.126 67.05C210.734 66.168 209.978 65.706 209.012 65.706C207.038 65.706 205.806 67.316 205.806 69.304C205.806 71.278 206.982 72.734 208.83 72.734C209.88 72.734 210.678 72.258 211.112 71.404V72.048C211.112 73.28 210.426 74.134 209.012 74.134C208.06 74.134 207.192 73.84 206.562 73.308V75.198C207.276 75.702 208.228 75.912 209.166 75.912C211.602 75.912 213.352 74.652 213.352 72.034V65.916H211.126V67.05ZM209.6 70.97C208.718 70.97 208.13 70.326 208.13 69.304C208.13 68.254 208.718 67.54 209.628 67.54C210.51 67.54 211.112 68.212 211.112 69.262C211.112 70.298 210.51 70.97 209.6 70.97ZM219.635 69.626C219.635 70.69 219.229 71.334 218.403 71.334C217.605 71.334 217.255 70.802 217.255 69.85V65.916H214.987V70.34C214.987 72.09 215.827 73.196 217.521 73.196C218.543 73.196 219.327 72.65 219.691 71.838V73H221.917V65.916H219.635V69.626ZM228.109 65.706C226.989 65.706 226.233 66.224 225.869 66.98V65.916H223.629V73H225.897V69.206C225.897 68.24 226.345 67.61 227.185 67.61C227.997 67.61 228.319 68.114 228.319 69.066V73H230.587V68.562C230.587 66.77 229.649 65.706 228.109 65.706ZM235.395 65.916V63.536L233.127 64.026V65.916H231.503V67.764H233.127V73H235.395V67.764H237.173V65.916H235.395ZM240.838 65.706C239.746 65.706 238.808 66.042 238.136 66.476V68.366C238.668 67.89 239.424 67.568 240.32 67.568C241.44 67.568 242.07 68.142 242.07 69.206V69.416C241.706 68.968 241.104 68.688 240.278 68.688C238.808 68.688 237.758 69.542 237.758 70.956C237.758 72.258 238.724 73.21 240.096 73.21C240.978 73.21 241.692 72.818 242.07 72.174V73H244.296V68.982C244.296 66.98 243.078 65.706 240.838 65.706ZM240.964 71.754C240.264 71.754 239.858 71.376 239.858 70.816C239.858 70.27 240.278 69.892 240.978 69.892C241.664 69.892 242.112 70.284 242.112 70.802C242.112 71.348 241.664 71.754 240.964 71.754ZM248.449 73.21C250.325 73.21 251.529 72.23 251.529 70.802C251.529 69.752 250.969 69.01 249.639 68.716L248.631 68.492C248.113 68.366 247.917 68.184 247.917 67.904C247.917 67.582 248.225 67.386 248.855 67.386C249.639 67.386 250.451 67.624 251.137 68.086V66.392C250.563 66.028 249.765 65.706 248.631 65.706C246.755 65.706 245.607 66.616 245.607 67.988C245.607 69.052 246.237 69.682 247.469 69.99L248.449 70.242C248.953 70.382 249.163 70.578 249.163 70.872C249.163 71.306 248.813 71.516 248.211 71.516C247.427 71.516 246.377 71.138 245.649 70.578V72.37C246.475 72.93 247.427 73.21 248.449 73.21ZM263.121 69.094C263.121 66.91 261.875 65.706 259.747 65.706C257.423 65.706 255.995 67.232 255.995 69.416C255.995 71.74 257.591 73.21 260.111 73.21C261.329 73.21 262.281 72.86 262.813 72.454V70.816C262.239 71.208 261.469 71.446 260.671 71.446C259.299 71.446 258.515 70.9 258.291 70.018H263.121V69.094ZM259.803 67.428C260.615 67.428 261.147 67.876 261.175 68.758H258.319C258.431 67.932 258.921 67.428 259.803 67.428ZM273.035 65.706C272.041 65.706 271.285 66.182 270.823 66.98C270.459 66.196 269.759 65.706 268.793 65.706C267.799 65.706 267.099 66.21 266.707 67.05V65.916H264.467V73H266.735V68.996C266.735 68.198 267.169 67.61 267.855 67.61C268.527 67.61 268.863 68.1 268.863 68.842V73H271.103V68.8C271.117 68.128 271.537 67.61 272.209 67.61C272.895 67.61 273.217 68.1 273.217 68.898V73H275.485V68.464C275.485 66.742 274.561 65.706 273.035 65.706ZM285.358 67.932C286.366 67.666 286.856 66.868 286.856 66C286.856 64.544 285.61 63.48 283.482 63.48C282.334 63.48 281.424 63.718 280.556 64.236V66.224C281.06 65.846 281.844 65.454 282.992 65.454C284.028 65.454 284.518 65.86 284.518 66.448C284.518 67.078 284.14 67.526 283.02 67.526H281.41L281.13 69.052H283.188C284.42 69.052 284.798 69.57 284.798 70.144C284.798 70.872 284.126 71.348 282.964 71.348C281.914 71.348 281.13 70.998 280.584 70.578V72.524C281.438 73.014 282.292 73.252 283.398 73.252C285.624 73.252 287.136 71.95 287.136 70.228C287.136 69.136 286.492 68.24 285.358 67.932ZM99.852 84.938C99.418 84.154 98.69 83.706 97.752 83.706C95.638 83.706 94.476 85.498 94.476 87.458C94.476 89.544 95.582 91.21 97.57 91.21C98.732 91.21 99.53 90.552 99.894 89.81V91H102.12V80.92H99.852V84.938ZM98.326 89.292C97.43 89.292 96.8 88.606 96.8 87.486C96.8 86.352 97.416 85.624 98.354 85.624C99.292 85.624 99.88 86.366 99.88 87.458C99.88 88.55 99.264 89.292 98.326 89.292ZM104.985 83.118C105.699 83.118 106.231 82.628 106.231 81.928C106.231 81.242 105.727 80.766 104.985 80.766C104.229 80.766 103.711 81.242 103.711 81.928C103.711 82.628 104.257 83.118 104.985 83.118ZM106.119 91V83.916H103.837V91H106.119ZM110.558 83.706C109.466 83.706 108.528 84.042 107.856 84.476V86.366C108.388 85.89 109.144 85.568 110.04 85.568C111.16 85.568 111.79 86.142 111.79 87.206V87.416C111.426 86.968 110.824 86.688 109.998 86.688C108.528 86.688 107.478 87.542 107.478 88.956C107.478 90.258 108.444 91.21 109.816 91.21C110.698 91.21 111.412 90.818 111.79 90.174V91H114.016V86.982C114.016 84.98 112.798 83.706 110.558 83.706ZM110.684 89.754C109.984 89.754 109.578 89.376 109.578 88.816C109.578 88.27 109.998 87.892 110.698 87.892C111.384 87.892 111.832 88.284 111.832 88.802C111.832 89.348 111.384 89.754 110.684 89.754ZM118.17 91.21C120.046 91.21 121.25 90.23 121.25 88.802C121.25 87.752 120.69 87.01 119.36 86.716L118.352 86.492C117.834 86.366 117.638 86.184 117.638 85.904C117.638 85.582 117.946 85.386 118.576 85.386C119.36 85.386 120.172 85.624 120.858 86.086V84.392C120.284 84.028 119.486 83.706 118.352 83.706C116.476 83.706 115.328 84.616 115.328 85.988C115.328 87.052 115.958 87.682 117.19 87.99L118.17 88.242C118.674 88.382 118.884 88.578 118.884 88.872C118.884 89.306 118.534 89.516 117.932 89.516C117.148 89.516 116.098 89.138 115.37 88.578V90.37C116.196 90.93 117.148 91.21 118.17 91.21Z" fill="white"/>
<path d="M198.3 112.664V114.188L200.436 112.736V119H201.936V111.02H200.724L198.3 112.664ZM208.14 113.936C207.732 113.168 207.096 112.784 206.244 112.784C204.6 112.784 203.472 114.188 203.472 116.012C203.472 117.836 204.492 119.18 206.112 119.18C207.18 119.18 207.828 118.58 208.152 117.884V119H209.628V110.36H208.14V113.936ZM206.544 117.884C205.62 117.884 204.996 117.164 204.996 116.012C204.996 114.848 205.62 114.08 206.58 114.08C207.564 114.08 208.164 114.86 208.164 115.964C208.164 117.08 207.54 117.884 206.544 117.884Z" fill="#969696"/>
<circle cx="183" cy="114" r="9" fill="#8080FF"/>
<path opacity="0.7" d="M183 108V115L177.5 112" stroke="white"/>
<rect opacity="0.7" x="94" y="106" width="15" height="17" rx="2" fill="#EB459F"/>
<path opacity="0.5" d="M97 111L98 112L99.5 110.5" stroke="#FFB0FF"/>
<path opacity="0.5" d="M97 114.5L98 115.5L99.5 114" stroke="#FFB0FF"/>
<path opacity="0.5" d="M97 118.5L98 119.5L99.5 118" stroke="#FFB0FF"/>
<rect opacity="0.5" x="101.25" y="111.25" width="4.5" height="0.5" rx="0.25" fill="#FFB0FF" stroke="black" stroke-width="0.5"/>
<rect opacity="0.5" x="101.25" y="115.25" width="4.5" height="0.5" rx="0.25" fill="#FFB0FF" stroke="black" stroke-width="0.5"/>
<rect opacity="0.5" x="101.25" y="119.25" width="4.5" height="0.5" rx="0.25" fill="#FFB0FF" stroke="black" stroke-width="0.5"/>
<rect opacity="0.5" x="97.5" y="104.5" width="8" height="3" rx="1" fill="#FFB0FF" stroke="#FFB0FF"/>
<path d="M118.804 119.192C120.808 119.192 122.032 117.572 122.032 115.016C122.032 112.496 120.796 110.84 118.804 110.84C116.836 110.84 115.6 112.484 115.6 115.004C115.6 117.572 116.824 119.192 118.804 119.192ZM118.804 117.8C117.712 117.8 117.148 116.672 117.148 115.016C117.148 113.372 117.712 112.232 118.804 112.232C119.92 112.232 120.472 113.384 120.472 115.028C120.472 116.66 119.92 117.8 118.804 117.8ZM126.133 110.84C124.321 110.84 123.121 112.076 123.121 113.684C123.121 115.208 124.165 116.264 125.665 116.264C126.601 116.264 127.321 115.868 127.729 115.028C127.645 117.044 126.817 117.884 125.521 117.884C124.681 117.884 124.021 117.596 123.505 117.092V118.496C124.117 118.976 124.789 119.192 125.653 119.192C127.729 119.192 129.205 117.668 129.205 114.764C129.205 112.004 127.909 110.84 126.133 110.84ZM126.085 115.1C125.233 115.1 124.633 114.512 124.633 113.66C124.633 112.76 125.245 112.136 126.109 112.136C126.973 112.136 127.621 112.772 127.621 113.648C127.621 114.464 126.985 115.1 126.085 115.1ZM134.133 110.432L130.941 119H129.909L133.101 110.432H134.133ZM134.554 112.664V114.188L136.69 112.736V119H138.19V111.02H136.978L134.554 112.664ZM142.81 113.84C142.282 113.84 141.814 113.912 141.418 114.056V112.34H144.994V111.02H140.086V115.46C140.626 115.22 141.262 114.956 142.114 114.956C143.302 114.956 143.878 115.604 143.878 116.444C143.878 117.284 143.242 117.896 142.054 117.896C141.262 117.896 140.494 117.62 140.002 117.152V118.52C140.59 118.94 141.442 119.192 142.258 119.192C144.19 119.192 145.438 118.004 145.438 116.384C145.438 114.98 144.502 113.84 142.81 113.84Z" fill="#969696"/>
<path d="M264.552 113.84C264.024 113.84 263.556 113.912 263.16 114.056V112.34H266.736V111.02H261.828V115.46C262.368 115.22 263.004 114.956 263.856 114.956C265.044 114.956 265.62 115.604 265.62 116.444C265.62 117.284 264.984 117.896 263.796 117.896C263.004 117.896 262.236 117.62 261.744 117.152V118.52C262.332 118.94 263.184 119.192 264 119.192C265.932 119.192 267.18 118.004 267.18 116.384C267.18 114.98 266.244 113.84 264.552 113.84ZM271.484 119.192C273.488 119.192 274.712 117.572 274.712 115.016C274.712 112.496 273.476 110.84 271.484 110.84C269.516 110.84 268.28 112.484 268.28 115.004C268.28 117.572 269.504 119.192 271.484 119.192ZM271.484 117.8C270.392 117.8 269.828 116.672 269.828 115.016C269.828 113.372 270.392 112.232 271.484 112.232C272.6 112.232 273.152 113.384 273.152 115.028C273.152 116.66 272.6 117.8 271.484 117.8ZM279.089 119.192C281.093 119.192 282.317 117.572 282.317 115.016C282.317 112.496 281.081 110.84 279.089 110.84C277.121 110.84 275.885 112.484 275.885 115.004C275.885 117.572 277.109 119.192 279.089 119.192ZM279.089 117.8C277.997 117.8 277.433 116.672 277.433 115.016C277.433 113.372 277.997 112.232 279.089 112.232C280.205 112.232 280.757 113.384 280.757 115.028C280.757 116.66 280.205 117.8 279.089 117.8ZM290.1 115.82L292.08 112.964H290.424L289.14 114.992L287.904 112.964H286.2L288.192 115.868L286.104 119H287.784L289.128 116.804L290.484 119H292.2L290.1 115.82ZM296.681 112.784C295.637 112.784 294.965 113.396 294.629 114.092V112.964H293.153V121.28H294.641V118.136C295.013 118.76 295.697 119.18 296.561 119.18C298.085 119.18 299.309 117.884 299.309 115.928C299.309 114.128 298.241 112.784 296.681 112.784ZM296.165 117.896C295.193 117.896 294.617 117.116 294.617 116.024C294.617 114.896 295.229 114.092 296.201 114.092C297.161 114.092 297.785 114.884 297.785 115.988C297.785 117.104 297.137 117.896 296.165 117.896Z" fill="#FFC619"/>
<path d="M247 105L249.021 111.219H255.56L250.269 115.062L252.29 121.281L247 117.438L241.71 121.281L243.731 115.062L238.44 111.219H244.979L247 105Z" fill="#FFC619"/>
<rect x="20" y="153" width="300" height="66" fill="#202225"/>
<rect x="40" y="153" width="46" height="46" rx="23" fill="#5883F2"/>
<path d="M78.1504 171.701L68.8219 168.827L63.1504 161L57.4958 168.827L48.1504 171.701L53.9913 179.412L53.8897 189L63.1504 185.942L72.428 189L72.3265 179.412L78.1504 171.701Z" fill="#FFDEF9"/>
<path d="M78.1504 171.701L68.8219 168.827L63.1842 161L57.4958 168.827L48.1504 171.701L53.9913 179.412L53.8897 189L63.1842 185.942L72.4619 189L72.3603 179.412L78.1504 171.701ZM68.9235 176.936L68.077 178.049V179.445V183.201L64.4371 182.004L63.1842 181.555L61.8298 182.004L58.1053 183.201V179.445V178.116L57.2588 177.002L55.0917 173.912L58.7486 172.782L60.1199 172.366L60.9495 171.22L63.1842 168.145L65.4021 171.203L66.2316 172.333L67.586 172.748L71.2429 173.878L68.9235 176.936Z" fill="#FF73FA"/>
<path d="M63.1504 161V168.179L66.1978 172.366L71.2091 173.912L78.1504 171.701L68.822 168.827L63.1504 161Z" fill="#FFB0FF"/>
<path d="M53.9903 179.412L58.2228 178.049L58.172 183.201L63.1325 181.556V185.942L53.8887 189L53.9903 179.412Z" fill="#E655D4"/>
<path d="M68.0762 178.049L72.3256 179.412L72.4272 189L68.127 183.201L68.0762 178.049Z" fill="#FFB0FF"/>
<path d="M66.1969 172.366L58.2228 178.049L57.207 176.687L65.1981 171.003L66.1969 172.366Z" fill="white"/>
<path d="M71.2079 173.912L58.1719 183.201V181.107L69.1594 173.28L71.2079 173.912Z" fill="white"/>
<path d="M48.9922 167.329L48.2915 168.762C48.2099 168.832 48.1595 168.931 48.1515 169.039C48.1435 169.146 48.1785 169.252 48.2487 169.333C48.319 169.414 48.4188 169.465 48.5262 169.473C48.6336 169.481 48.7397 169.446 48.8213 169.376L50.257 168.693C50.3103 168.668 50.3687 168.654 50.4279 168.654C50.4871 168.654 50.5455 168.668 50.5988 168.693L52.0345 169.376C52.1086 169.414 52.193 169.428 52.2755 169.415C52.358 169.402 52.4343 169.364 52.4933 169.305C52.5523 169.246 52.591 169.17 52.6038 169.087C52.6165 169.005 52.6027 168.921 52.5644 168.847L51.8636 167.329C51.8381 167.279 51.8248 167.223 51.8248 167.167C51.8248 167.111 51.8381 167.055 51.8636 167.005L52.5644 165.573C52.6027 165.499 52.6165 165.414 52.6038 165.332C52.591 165.25 52.5523 165.174 52.4933 165.115C52.4343 165.056 52.358 165.017 52.2755 165.005C52.193 164.992 52.1086 165.006 52.0345 165.044L50.5988 165.726C50.5455 165.752 50.4871 165.765 50.4279 165.765C50.3687 165.765 50.3103 165.752 50.257 165.726L48.8213 165.044C48.7472 165.006 48.6628 164.992 48.5803 165.005C48.4979 165.017 48.4216 165.056 48.3626 165.115C48.3036 165.174 48.2649 165.25 48.2521 165.332C48.2393 165.414 48.2531 165.499 48.2915 165.573L48.9922 167.005C49.0178 167.055 49.0311 167.111 49.0311 167.167C49.0311 167.223 49.0178 167.279 48.9922 167.329Z" fill="#FFD836"/>
<path d="M73.588 184.963H73.6051C74.0204 184.963 74.3571 184.627 74.3571 184.213V182.695C74.3571 182.281 74.0204 181.945 73.6051 181.945H73.588C73.1726 181.945 72.8359 182.281 72.8359 182.695V184.213C72.8359 184.627 73.1726 184.963 73.588 184.963Z" fill="#D4E4FF"/>
<path d="M73.588 191.001H73.6051C74.0204 191.001 74.3571 190.665 74.3571 190.25V188.732C74.3571 188.318 74.0204 187.982 73.6051 187.982H73.588C73.1726 187.982 72.8359 188.318 72.8359 188.732V190.25C72.8359 190.665 73.1726 191.001 73.588 191.001Z" fill="#D4E4FF"/>
<path d="M72.0838 186.481V186.464C72.0838 186.05 71.7471 185.714 71.3318 185.714H69.8106C69.3953 185.714 69.0586 186.05 69.0586 186.464V186.481C69.0586 186.896 69.3953 187.232 69.8106 187.232H71.3318C71.7471 187.232 72.0838 186.896 72.0838 186.481Z" fill="#D4E4FF"/>
<path d="M78.1522 186.481V186.464C78.1522 186.05 77.8155 185.714 77.4001 185.714H75.879C75.4637 185.714 75.127 186.05 75.127 186.464V186.481C75.127 186.896 75.4637 187.232 75.879 187.232H77.4001C77.8155 187.232 78.1522 186.896 78.1522 186.481Z" fill="#D4E4FF"/>
<path d="M101.7 157.2H95.078V167H97.43V162.954H101.392V161.106H97.43V159.216H101.7V157.2ZM105.404 159.706C104.312 159.706 103.374 160.042 102.702 160.476V162.366C103.234 161.89 103.99 161.568 104.886 161.568C106.006 161.568 106.636 162.142 106.636 163.206V163.416C106.272 162.968 105.67 162.688 104.844 162.688C103.374 162.688 102.324 163.542 102.324 164.956C102.324 166.258 103.29 167.21 104.662 167.21C105.544 167.21 106.258 166.818 106.636 166.174V167H108.862V162.982C108.862 160.98 107.644 159.706 105.404 159.706ZM105.53 165.754C104.83 165.754 104.424 165.376 104.424 164.816C104.424 164.27 104.844 163.892 105.544 163.892C106.23 163.892 106.678 164.284 106.678 164.802C106.678 165.348 106.23 165.754 105.53 165.754ZM116.459 164.662C116.025 164.984 115.339 165.278 114.541 165.278C113.141 165.278 112.399 164.508 112.399 163.444C112.399 162.366 113.169 161.652 114.471 161.652C115.269 161.652 115.885 161.862 116.403 162.226V160.224C115.857 159.93 115.101 159.692 114.093 159.692C111.601 159.692 110.075 161.246 110.075 163.458C110.075 165.488 111.391 167 113.533 167.196V168.19H113.981C114.401 168.19 114.611 168.344 114.611 168.624C114.611 168.904 114.415 169.1 114.037 169.1C113.617 169.1 113.239 168.918 112.987 168.736V169.8C113.351 169.996 113.757 170.108 114.205 170.108C115.255 170.108 115.857 169.52 115.857 168.708C115.857 167.952 115.353 167.392 114.457 167.392H114.345V167.21C115.129 167.168 115.857 166.972 116.459 166.594V164.662ZM120.566 159.706C119.474 159.706 118.536 160.042 117.864 160.476V162.366C118.396 161.89 119.152 161.568 120.048 161.568C121.168 161.568 121.798 162.142 121.798 163.206V163.416C121.434 162.968 120.832 162.688 120.006 162.688C118.536 162.688 117.486 163.542 117.486 164.956C117.486 166.258 118.452 167.21 119.824 167.21C120.706 167.21 121.42 166.818 121.798 166.174V167H124.024V162.982C124.024 160.98 122.806 159.706 120.566 159.706ZM120.692 165.754C119.992 165.754 119.586 165.376 119.586 164.816C119.586 164.27 120.006 163.892 120.706 163.892C121.392 163.892 121.84 164.284 121.84 164.802C121.84 165.348 121.392 165.754 120.692 165.754ZM131.746 167.21C133.622 167.21 134.826 166.23 134.826 164.802C134.826 163.752 134.266 163.01 132.936 162.716L131.928 162.492C131.41 162.366 131.214 162.184 131.214 161.904C131.214 161.582 131.522 161.386 132.152 161.386C132.936 161.386 133.748 161.624 134.434 162.086V160.392C133.86 160.028 133.062 159.706 131.928 159.706C130.052 159.706 128.904 160.616 128.904 161.988C128.904 163.052 129.534 163.682 130.766 163.99L131.746 164.242C132.25 164.382 132.46 164.578 132.46 164.872C132.46 165.306 132.11 165.516 131.508 165.516C130.724 165.516 129.674 165.138 128.946 164.578V166.37C129.772 166.93 130.724 167.21 131.746 167.21ZM140.694 163.626C140.694 164.69 140.288 165.334 139.462 165.334C138.664 165.334 138.314 164.802 138.314 163.85V159.916H136.046V164.34C136.046 166.09 136.886 167.196 138.58 167.196C139.602 167.196 140.386 166.65 140.75 165.838V167H142.976V159.916H140.694V163.626ZM147.404 159.706C146.312 159.706 145.374 160.042 144.702 160.476V162.366C145.234 161.89 145.99 161.568 146.886 161.568C148.006 161.568 148.636 162.142 148.636 163.206V163.416C148.272 162.968 147.67 162.688 146.844 162.688C145.374 162.688 144.324 163.542 144.324 164.956C144.324 166.258 145.29 167.21 146.662 167.21C147.544 167.21 148.258 166.818 148.636 166.174V167H150.862V162.982C150.862 160.98 149.644 159.706 147.404 159.706ZM147.53 165.754C146.83 165.754 146.424 165.376 146.424 164.816C146.424 164.27 146.844 163.892 147.544 163.892C148.23 163.892 148.678 164.284 148.678 164.802C148.678 165.348 148.23 165.754 147.53 165.754ZM160.698 161.932C161.706 161.666 162.196 160.868 162.196 160C162.196 158.544 160.95 157.48 158.822 157.48C157.674 157.48 156.764 157.718 155.896 158.236V160.224C156.4 159.846 157.184 159.454 158.332 159.454C159.368 159.454 159.858 159.86 159.858 160.448C159.858 161.078 159.48 161.526 158.36 161.526H156.75L156.47 163.052H158.528C159.76 163.052 160.138 163.57 160.138 164.144C160.138 164.872 159.466 165.348 158.304 165.348C157.254 165.348 156.47 164.998 155.924 164.578V166.524C156.778 167.014 157.632 167.252 158.738 167.252C160.964 167.252 162.476 165.95 162.476 164.228C162.476 163.136 161.832 162.24 160.698 161.932ZM167.621 167.252C170.113 167.252 171.597 165.306 171.597 162.338C171.597 159.44 170.085 157.48 167.621 157.48C165.171 157.48 163.645 159.426 163.645 162.324C163.645 165.306 165.143 167.252 167.621 167.252ZM167.621 165.152C166.515 165.152 165.997 163.92 165.997 162.352C165.997 160.784 166.501 159.58 167.621 159.58C168.769 159.58 169.245 160.798 169.245 162.352C169.245 163.906 168.755 165.152 167.621 165.152ZM177.229 159.37C177.229 160.163 177.019 160.779 176.599 161.218C176.179 161.647 175.61 161.862 174.891 161.862C174.219 161.862 173.664 161.647 173.225 161.218C172.796 160.779 172.581 160.163 172.581 159.37C172.581 158.577 172.791 157.965 173.211 157.536C173.631 157.107 174.201 156.892 174.919 156.892C175.358 156.892 175.75 156.99 176.095 157.186C176.45 157.373 176.725 157.653 176.921 158.026C177.127 158.39 177.229 158.838 177.229 159.37ZM173.967 159.37C173.967 159.827 174.042 160.173 174.191 160.406C174.341 160.63 174.579 160.742 174.905 160.742C175.232 160.742 175.465 160.63 175.605 160.406C175.755 160.173 175.829 159.827 175.829 159.37C175.829 158.913 175.755 158.572 175.605 158.348C175.465 158.124 175.232 158.012 174.905 158.012C174.579 158.012 174.341 158.124 174.191 158.348C174.042 158.572 173.967 158.913 173.967 159.37ZM186.604 159.706C185.456 159.706 184.658 160.364 184.28 161.106V159.916H182.04V169.66H184.308V166.118C184.742 166.776 185.512 167.21 186.492 167.21C188.326 167.21 189.698 165.684 189.698 163.388C189.698 161.246 188.452 159.706 186.604 159.706ZM185.792 165.306C184.868 165.306 184.28 164.578 184.28 163.5C184.28 162.394 184.882 161.638 185.82 161.638C186.744 161.638 187.374 162.394 187.374 163.472C187.374 164.55 186.744 165.306 185.792 165.306ZM197.742 163.094C197.742 160.91 196.496 159.706 194.368 159.706C192.044 159.706 190.616 161.232 190.616 163.416C190.616 165.74 192.212 167.21 194.732 167.21C195.95 167.21 196.902 166.86 197.434 166.454V164.816C196.86 165.208 196.09 165.446 195.292 165.446C193.92 165.446 193.136 164.9 192.912 164.018H197.742V163.094ZM194.424 161.428C195.236 161.428 195.768 161.876 195.796 162.758H192.94C193.052 161.932 193.542 161.428 194.424 161.428ZM203.134 159.79C202.322 159.79 201.678 160.252 201.356 161.386V159.916H199.088V167H201.356V163.836C201.356 162.562 201.944 161.876 202.91 161.876C203.386 161.876 203.764 161.988 204.03 162.17V160.07C203.806 159.916 203.512 159.79 203.134 159.79ZM209.937 161.05C209.545 160.168 208.789 159.706 207.823 159.706C205.849 159.706 204.617 161.316 204.617 163.304C204.617 165.278 205.793 166.734 207.641 166.734C208.691 166.734 209.489 166.258 209.923 165.404V166.048C209.923 167.28 209.237 168.134 207.823 168.134C206.871 168.134 206.003 167.84 205.373 167.308V169.198C206.087 169.702 207.039 169.912 207.977 169.912C210.413 169.912 212.163 168.652 212.163 166.034V159.916H209.937V161.05ZM208.411 164.97C207.529 164.97 206.941 164.326 206.941 163.304C206.941 162.254 207.529 161.54 208.439 161.54C209.321 161.54 209.923 162.212 209.923 163.262C209.923 164.298 209.321 164.97 208.411 164.97ZM218.446 163.626C218.446 164.69 218.04 165.334 217.214 165.334C216.416 165.334 216.066 164.802 216.066 163.85V159.916H213.798V164.34C213.798 166.09 214.638 167.196 216.332 167.196C217.354 167.196 218.138 166.65 218.502 165.838V167H220.728V159.916H218.446V163.626ZM226.92 159.706C225.8 159.706 225.044 160.224 224.68 160.98V159.916H222.44V167H224.708V163.206C224.708 162.24 225.156 161.61 225.996 161.61C226.808 161.61 227.13 162.114 227.13 163.066V167H229.398V162.562C229.398 160.77 228.46 159.706 226.92 159.706ZM234.205 159.916V157.536L231.937 158.026V159.916H230.313V161.764H231.937V167H234.205V161.764H235.983V159.916H234.205ZM239.648 159.706C238.556 159.706 237.618 160.042 236.946 160.476V162.366C237.478 161.89 238.234 161.568 239.13 161.568C240.25 161.568 240.88 162.142 240.88 163.206V163.416C240.516 162.968 239.914 162.688 239.088 162.688C237.618 162.688 236.568 163.542 236.568 164.956C236.568 166.258 237.534 167.21 238.906 167.21C239.788 167.21 240.502 166.818 240.88 166.174V167H243.106V162.982C243.106 160.98 241.888 159.706 239.648 159.706ZM239.774 165.754C239.074 165.754 238.668 165.376 238.668 164.816C238.668 164.27 239.088 163.892 239.788 163.892C240.474 163.892 240.922 164.284 240.922 164.802C240.922 165.348 240.474 165.754 239.774 165.754Z" fill="white"/>
<path d="M203.532 213.052C203.096 213.052 202.718 212.944 202.398 212.728C202.078 212.508 201.832 212.208 201.66 211.828C201.492 211.448 201.412 211.018 201.42 210.538C201.428 210.086 201.52 209.67 201.696 209.29C201.876 208.91 202.126 208.606 202.446 208.378C202.766 208.15 203.146 208.036 203.586 208.036C204.042 208.036 204.452 208.176 204.816 208.456C205.18 208.736 205.44 209.206 205.596 209.866H205.248C205.36 209.43 205.52 209.078 205.728 208.81C205.94 208.538 206.178 208.342 206.442 208.222C206.706 208.098 206.98 208.036 207.264 208.036C207.664 208.036 208.026 208.136 208.35 208.336C208.674 208.536 208.932 208.82 209.124 209.188C209.316 209.556 209.412 209.994 209.412 210.502C209.412 210.982 209.322 211.416 209.142 211.804C208.966 212.188 208.716 212.492 208.392 212.716C208.068 212.94 207.692 213.052 207.264 213.052C206.972 213.052 206.694 212.994 206.43 212.878C206.166 212.762 205.93 212.572 205.722 212.308C205.518 212.04 205.36 211.676 205.248 211.216H205.596C205.476 211.676 205.308 212.04 205.092 212.308C204.876 212.572 204.632 212.762 204.36 212.878C204.088 212.994 203.812 213.052 203.532 213.052ZM203.598 211.738C203.87 211.738 204.12 211.638 204.348 211.438C204.58 211.234 204.806 210.936 205.026 210.544C204.806 210.144 204.58 209.844 204.348 209.644C204.12 209.444 203.87 209.344 203.598 209.344C203.394 209.344 203.216 209.396 203.064 209.5C202.912 209.6 202.792 209.74 202.704 209.92C202.62 210.1 202.578 210.308 202.578 210.544C202.578 210.776 202.62 210.982 202.704 211.162C202.792 211.342 202.912 211.484 203.064 211.588C203.216 211.688 203.394 211.738 203.598 211.738ZM207.246 211.738C207.45 211.738 207.628 211.688 207.78 211.588C207.936 211.484 208.056 211.342 208.14 211.162C208.224 210.982 208.266 210.776 208.266 210.544C208.266 210.308 208.224 210.1 208.14 209.92C208.056 209.74 207.936 209.6 207.78 209.5C207.628 209.396 207.45 209.344 207.246 209.344C206.974 209.344 206.722 209.444 206.49 209.644C206.262 209.844 206.038 210.144 205.818 210.544C206.038 210.936 206.262 211.234 206.49 211.438C206.722 211.638 206.974 211.738 207.246 211.738Z" fill="#969696"/>
<circle cx="186" cy="210" r="9" fill="#8080FF"/>
<path opacity="0.7" d="M186 204V211L180.5 208" stroke="white"/>
<rect opacity="0.7" x="94" y="202" width="15" height="17" rx="2" fill="#EB459F"/>
<path opacity="0.5" d="M97 207L98 208L99.5 206.5" stroke="#FFB0FF"/>
<path opacity="0.5" d="M97 210.5L98 211.5L99.5 210" stroke="#FFB0FF"/>
<path opacity="0.5" d="M97 214.5L98 215.5L99.5 214" stroke="#FFB0FF"/>
<rect opacity="0.5" x="101.25" y="207.25" width="4.5" height="0.5" rx="0.25" fill="#FFB0FF" stroke="black" stroke-width="0.5"/>
<rect opacity="0.5" x="101.25" y="211.25" width="4.5" height="0.5" rx="0.25" fill="#FFB0FF" stroke="black" stroke-width="0.5"/>
<rect opacity="0.5" x="101.25" y="215.25" width="4.5" height="0.5" rx="0.25" fill="#FFB0FF" stroke="black" stroke-width="0.5"/>
<rect opacity="0.5" x="97.5" y="200.5" width="8" height="3" rx="1" fill="#FFB0FF" stroke="#FFB0FF"/>
<path d="M119.068 212.336C120.172 211.364 120.736 210.452 120.736 209.372C120.736 207.836 119.668 206.84 118 206.84C116.98 206.84 116.224 207.152 115.612 207.644V209.132C116.068 208.64 116.752 208.208 117.628 208.208C118.636 208.208 119.188 208.76 119.188 209.624C119.188 210.296 118.84 210.92 117.868 211.808L115.624 213.92V215H120.844V213.656H117.652L119.068 212.336ZM126.978 211.868V207.02H125.07L121.71 211.712V213.056H125.562V215H126.978V213.056H128.274V211.868H126.978ZM125.562 208.388V211.868H123.114L125.562 208.388ZM132.926 206.432L129.734 215H128.702L131.894 206.432H132.926ZM137.451 210.68C138.339 210.476 138.759 209.744 138.759 208.952C138.759 207.728 137.739 206.84 136.035 206.84C135.135 206.84 134.415 207.056 133.719 207.488V208.88C134.079 208.556 134.727 208.184 135.735 208.184C136.755 208.184 137.235 208.604 137.235 209.216C137.235 209.864 136.863 210.356 135.807 210.356H134.403L134.211 211.46H135.903C137.103 211.46 137.475 212.024 137.475 212.6C137.475 213.38 136.839 213.884 135.759 213.884C134.787 213.884 134.127 213.548 133.719 213.188V214.58C134.403 215 135.111 215.192 135.999 215.192C137.811 215.192 139.011 214.112 139.011 212.66C139.011 211.736 138.447 210.932 137.451 210.68ZM143.39 215.192C145.394 215.192 146.618 213.572 146.618 211.016C146.618 208.496 145.382 206.84 143.39 206.84C141.422 206.84 140.186 208.484 140.186 211.004C140.186 213.572 141.41 215.192 143.39 215.192ZM143.39 213.8C142.298 213.8 141.734 212.672 141.734 211.016C141.734 209.372 142.298 208.232 143.39 208.232C144.506 208.232 145.058 209.384 145.058 211.028C145.058 212.66 144.506 213.8 143.39 213.8Z" fill="#969696"/>
<path d="M262.3 208.664V210.188L264.436 208.736V215H265.936V207.02H264.724L262.3 208.664ZM270.808 215.192C272.812 215.192 274.036 213.572 274.036 211.016C274.036 208.496 272.8 206.84 270.808 206.84C268.84 206.84 267.604 208.484 267.604 211.004C267.604 213.572 268.828 215.192 270.808 215.192ZM270.808 213.8C269.716 213.8 269.152 212.672 269.152 211.016C269.152 209.372 269.716 208.232 270.808 208.232C271.924 208.232 272.476 209.384 272.476 211.028C272.476 212.66 271.924 213.8 270.808 213.8ZM278.413 215.192C280.417 215.192 281.641 213.572 281.641 211.016C281.641 208.496 280.405 206.84 278.413 206.84C276.445 206.84 275.209 208.484 275.209 211.004C275.209 213.572 276.433 215.192 278.413 215.192ZM278.413 213.8C277.321 213.8 276.757 212.672 276.757 211.016C276.757 209.372 277.321 208.232 278.413 208.232C279.529 208.232 280.081 209.384 280.081 211.028C280.081 212.66 279.529 213.8 278.413 213.8ZM289.425 211.82L291.405 208.964H289.749L288.465 210.992L287.229 208.964H285.525L287.517 211.868L285.429 215H287.109L288.453 212.804L289.809 215H291.525L289.425 211.82ZM296.005 208.784C294.961 208.784 294.289 209.396 293.953 210.092V208.964H292.477V217.28H293.965V214.136C294.337 214.76 295.021 215.18 295.885 215.18C297.409 215.18 298.633 213.884 298.633 211.928C298.633 210.128 297.565 208.784 296.005 208.784ZM295.489 213.896C294.517 213.896 293.941 213.116 293.941 212.024C293.941 210.896 294.553 210.092 295.525 210.092C296.485 210.092 297.109 210.884 297.109 211.988C297.109 213.104 296.461 213.896 295.489 213.896Z" fill="#FFC619"/>
<path d="M248 201L250.021 207.219H256.56L251.269 211.062L253.29 217.281L248 213.438L242.71 217.281L244.731 211.062L239.44 207.219H245.979L248 201Z" fill="#FFC619"/>
</svg>
