<svg width="340" height="245" viewBox="0 0 340 245" fill="none" xmlns="http://www.w3.org/2000/svg">
<rect width="340" height="245" rx="20" fill="#202225"/>
<g clip-path="url(#clip0_179_1994)">
<rect x="132" y="40" width="75" height="75" rx="37.5" fill="#5865F2"/>
<path d="M186.345 111.746L138.891 110.633C139.076 134.434 139.773 148.956 141.119 170.205C141.212 172.107 143.952 172.06 153.192 171.364C160.807 170.808 160.575 168.906 160.528 168.303C160.482 167.699 160.203 165.565 159.924 163.338C160.482 153.642 161.225 146.172 162.478 132.3C162.478 132.3 166.146 132.578 168.793 132.021C168.7 143.852 168.654 156.054 167.447 167.282C167.122 170.066 167.632 170.483 175.804 171.179C183.976 171.875 183.976 171.55 184.302 168.535C186.391 150.858 187.737 133.784 186.345 111.746Z" fill="#57F287"/>
<path d="M145.253 114.948C145.167 114.948 145.084 114.982 145.023 115.043C144.962 115.104 144.928 115.186 144.928 115.272V164.544C144.928 164.591 145.299 168.859 145.671 171.782H146.414C145.996 168.859 145.624 164.544 145.624 164.544V115.272C145.613 115.182 145.569 115.099 145.5 115.039C145.432 114.98 145.344 114.947 145.253 114.948Z" fill="#29CC7A"/>
<path d="M186.623 116.525L186.345 111.746L138.891 110.633C138.891 111.793 138.937 112.953 138.937 114.067C141.212 118.149 155.653 120.84 167.493 120.979C178.173 121.072 185.091 118.752 186.623 116.525Z" fill="black"/>
<path d="M154.4 120.469V114.948" stroke="#57F287" stroke-width="0.485411" stroke-linecap="round" stroke-linejoin="round"/>
<path d="M143.256 117.499V111.979" stroke="#57F287" stroke-width="0.485411" stroke-linecap="round" stroke-linejoin="round"/>
<path d="M181.238 119.727V114.159" stroke="#57F287" stroke-width="0.485411" stroke-linecap="round" stroke-linejoin="round"/>
<path d="M146.785 56.629C143.767 55.2372 140.563 54.0309 139.913 53.9381C139.263 53.8453 139.263 53.8453 139.913 57.7889C140.563 61.7325 141.492 63.1244 146.785 56.629Z" fill="black"/>
<path d="M212.719 96.1578C213.183 91.0079 210.769 86.6468 206.822 83.1207C210.304 72.357 206.033 64.9801 197.907 63.0779L190.803 93.2349C190.803 101.261 193.542 103.767 197.35 106.318C196.978 114.809 198.929 122.649 206.265 124.134C213.601 125.619 219.916 117.871 221.03 105.854C222.145 93.838 212.719 96.1578 212.719 96.1578Z" fill="url(#paint0_linear_179_1994)"/>
<path d="M200.971 83.3062C205.242 85.7651 207.239 89.9406 207.611 91.6109" stroke="#FFC619" stroke-width="0.485411" stroke-miterlimit="10" stroke-linecap="round"/>
<path d="M210.444 96.4824L201.529 106.04" stroke="#FFA20D" stroke-width="0.485411" stroke-miterlimit="10" stroke-linecap="round"/>
<path d="M146.785 56.6289C170.002 57.6032 178.591 59.0415 197.908 63.0778C200.461 79.5946 194.518 88.0849 188.667 99.4054C189.132 109.427 189.596 113.788 183.188 115.829C175.527 118.289 161.505 118.149 147.064 114.716C133.692 111.561 135.827 109.055 136.663 97.0393C137.638 82.7495 134.574 66.2791 146.785 56.6289Z" fill="white"/>
<path d="M159.971 78.7594C166.053 90.4046 176.5 97.5959 185.88 94.1626C195.259 90.7294 175.34 66.3254 159.971 78.7594Z" fill="#8CD9FF"/>
<path d="M173.576 64.7017C182.63 65.3976 184.162 73.3776 179.612 92.7709C178.637 96.9464 178.497 97.4568 178.869 98.8023C179.24 100.148 180.448 103.395 180.633 107.293C180.726 108.592 180.587 109.566 181.515 109.566C182.444 109.566 185.137 109.566 190.013 107.896C191.034 107.571 191.22 107.386 191.359 97.9672C194.981 93.7452 203.85 81.9608 197.906 63.0778C178.126 58.2991 162.664 56.6753 146.784 56.6289C137.358 60.9437 136.987 72.7745 135.687 93.6988C135.176 101.911 133.086 105.158 141.119 107.339C149.152 109.52 158.531 109.566 161.178 109.566C163.825 109.566 163.918 109.241 163.918 105.808C163.871 103.535 164.753 87.5282 164.428 79.2234C164.103 70.9187 163.593 63.913 173.576 64.7017Z" fill="black"/>
<path d="M164.429 79.2234C164.615 84.5125 164.383 92.91 164.151 98.9414C162.758 93.9308 160.204 88.6417 159.508 87.0642C158.811 85.4868 158.625 85.0692 160.529 83.1206C156.815 81.2184 156.582 81.4504 157.557 78.9451C158.533 76.4397 160.204 70.5011 165.172 66.7895C165.808 66.3479 166.515 66.0184 167.262 65.8152C163.826 68.0885 164.151 73.3312 164.429 79.2234Z" fill="#5865F2"/>
<path d="M179.797 66.3254L178.404 66.2327C183.001 69.3875 183.187 77.5995 179.611 92.7708C178.776 96.3432 178.543 97.2247 178.73 98.2454C179.937 96.3432 184.208 90.5902 185.694 88.456C187.18 86.3218 186.112 86.3218 184.719 83.4917C188.016 82.0535 188.759 82.0535 188.48 80.6152C188.202 79.177 186.391 73.0527 179.797 66.3254Z" fill="#5865F2"/>
<path d="M186.206 75.2335C186.021 71.8466 184.07 68.8774 181.098 66.8823L180.959 65.5369C180.402 60.387 178.174 56.3506 172.276 56.3506C166.38 56.3506 164.476 59.8766 164.105 65.3513C164.105 65.7225 164.058 66.0936 164.058 66.4648C160.715 68.4598 158.625 71.7075 158.486 75.4191C158.3 81.7288 165.08 85.7652 172.694 85.7652C180.309 85.7652 186.578 81.5433 186.206 75.2335Z" fill="#FFE75C"/>
<path d="M178.545 62.7532C179.288 64.7482 181.006 66.2329 182.213 65.1658C183.421 64.0987 181.702 62.0573 179.938 60.2015C181.378 60.2943 182.446 59.1344 181.052 58.1137C179.659 57.093 177.198 55.9795 172.37 55.9795C167.541 55.9795 165.126 58.7632 163.269 61.1294C161.412 63.4955 161.412 64.7946 162.294 65.5369C163.176 66.2793 166.38 65.8617 167.958 62.5212C168.376 63.7275 169.212 64.4234 170.744 64.2378C172.277 64.0523 173.345 62.4284 173.577 60.9438C174.738 63.2172 175.202 64.377 176.781 64.5163C178.36 64.6554 178.452 63.6347 178.545 62.7532Z" fill="#EB459F"/>
<path d="M172.972 56.3508C172.88 53.9383 173.159 52.5 173.808 52.5C174.458 52.5 174.319 53.7991 173.669 55.8405C175.666 53.7527 176.501 53.6599 176.78 53.9847C177.059 54.3094 176.966 55.2837 172.972 56.3508Z" fill="#EB459F"/>
<path d="M177.617 66.7895C178.824 66.8358 179.288 67.2998 179.195 68.4597C179.127 68.898 178.9 69.2961 178.558 69.5783C178.216 69.8605 177.781 70.0074 177.338 69.9907C176.809 70.0228 176.287 69.8617 175.868 69.5373C175.45 69.2129 175.163 68.7474 175.063 68.2277C174.877 67.5782 174.552 67.4854 174.32 67.4854C174.088 67.4854 173.763 67.6246 173.531 68.1813C173.372 68.6949 173.04 69.1377 172.591 69.4338C172.142 69.73 171.605 69.8612 171.07 69.8051C170.846 69.8114 170.624 69.7727 170.415 69.6916C170.207 69.6104 170.017 69.4884 169.857 69.3326C169.697 69.1769 169.57 68.9907 169.483 68.785C169.396 68.5793 169.351 68.3582 169.352 68.1349C169.398 66.975 169.955 66.6502 171.116 66.6039C173.484 66.5575 176.224 66.6502 177.617 66.7895Z" fill="black"/>
<path d="M165.59 70.3156C165.304 70.7324 165.152 71.2256 165.152 71.7307C165.152 72.2357 165.304 72.7289 165.59 73.1457C166.611 74.4448 168.097 74.1664 169.351 73.5169C169.026 74.7232 169.119 76.347 170.79 76.9501C172.462 77.5533 173.762 76.811 174.644 75.5119C174.923 76.4862 175.619 77.3213 177.012 76.9966C177.313 76.908 177.591 76.7543 177.826 76.5464C178.06 76.3385 178.247 76.0815 178.371 75.7936C178.495 75.5057 178.554 75.194 178.544 74.8807C178.533 74.5674 178.455 74.2602 178.312 73.9809C178.962 74.3984 180.077 74.9551 181.052 74.2128C182.027 73.4705 181.98 72.3106 181.377 71.2899C183.187 71.3827 183.42 70.0836 183.187 69.3877C182.956 68.6918 182.027 68.1814 180.727 68.8774C179.427 69.5733 176.269 71.6147 174.505 72.6818L166.658 68.2278C164.847 67.1607 164.104 67.7175 163.825 68.3206C163.547 68.9237 163.547 70.362 165.59 70.3156Z" fill="#EB459F"/>
<path d="M169.77 80.2908C170.884 81.6362 174.691 82.5642 177.384 80.2908" stroke="#FFC619" stroke-width="0.485411" stroke-miterlimit="10" stroke-linecap="round"/>
<path d="M202.038 80.4761L205.149 77.9243C205.799 77.2748 205.475 76.8572 204.871 76.2077C204.267 75.5582 202.178 73.2848 201.528 72.7281C200.878 72.1713 200.924 72.0322 201.249 71.661C203.106 69.1092 203.895 68.0421 203.895 67.7174C203.895 67.3926 202.967 66.8823 201.11 65.8152C201.063 65.8152 201.063 65.7688 201.063 65.7223C202.503 63.7737 204.082 61.918 203.803 61.686C203.524 61.454 201.295 62.0571 197.906 63.0778L191.498 95.8793L194.516 96.6217C195.352 96.8537 195.445 96.8537 195.538 96.3897C195.631 95.9257 195.817 94.2091 195.863 93.838C195.909 93.4668 196.049 93.4668 196.559 93.5132L199.577 94.0236C200.738 94.2091 201.017 94.3483 200.785 93.5132C200.553 92.678 199.67 90.4511 199.485 89.9871C199.299 89.5232 199.159 89.2912 199.67 89.1056C200.181 88.92 201.899 88.2705 203.246 87.6674C204.592 87.0642 204.453 86.6931 204.174 85.9507C203.584 84.6064 202.901 83.3042 202.131 82.0535C201.528 81.0792 201.481 80.9864 202.038 80.4761Z" fill="black"/>
<path d="M146.785 56.6289C136.802 56.3506 127.701 60.5725 128.63 76.2078C122.918 79.7338 120.968 84.3733 122.454 92.307C117.997 96.6217 114.282 102.282 117.207 108.963C120.132 115.644 128.862 114.67 136.337 114.067L147.063 101.168C144.556 100.055 141.631 99.6374 138.845 98.7095C144.695 95.7402 147.11 91.2862 146.785 84.1414C153.378 76.9037 153.703 63.3098 146.785 56.6289Z" fill="url(#paint1_linear_179_1994)"/>
<path d="M141.631 82.6567C142.42 84.5126 142.049 87.2499 141.631 88.4562" stroke="#FFB012" stroke-width="0.485411" stroke-miterlimit="10" stroke-linecap="round"/>
<path d="M126.215 94.302C130.481 94.7937 134.674 95.7904 138.705 97.2713" stroke="#FFA20D" stroke-width="0.485411" stroke-miterlimit="10" stroke-linecap="round"/>
<path d="M148.177 84.5123L144.787 83.7235C144.323 83.5844 144.277 83.4452 144.787 82.9812L147.806 80.0583C148.177 79.6872 148.177 79.5944 147.62 78.9448L144.416 75.6044C143.998 75.1868 143.998 75.094 144.416 74.4909C144.834 73.8878 147.248 70.9648 147.666 70.4545C148.084 69.9441 148.038 69.6658 147.388 69.2482C146.738 68.8306 143.812 66.9748 142.884 66.4181C141.955 65.8613 141.909 65.7222 142.373 65.1654L145.298 61.7321C145.716 61.2682 145.716 61.0826 144.927 60.2939C144.137 59.5052 140.469 55.5152 139.494 53.9841L146.784 56.6287L155.885 61.129L154.167 81.311L148.177 84.5123Z" fill="black"/>
<path d="M152.867 73.5632C152.217 80.6617 148.549 91.147 148.549 91.147" stroke="#0C1AAD" stroke-width="0.485411" stroke-linecap="round" stroke-linejoin="round"/>
<path d="M218.802 88.549C220.938 90.2656 223.259 91.1007 224.606 89.4769C225.952 87.8531 224.188 86.322 222.331 84.4662C220.984 79.4091 218.198 79.0843 215.969 79.8267C213.741 80.569 212.905 83.7239 212.905 87.7138C209.329 92.2606 206.729 96.297 210.444 100.844C217.688 100.612 219.637 93.8845 218.802 88.549Z" fill="#FFE75C"/>
<path d="M133.133 97.3175C134.526 93.2812 136.152 93.142 141.027 91.8429C145.902 90.5438 147.76 91.2397 150.731 92.5852C153.703 93.9307 153.471 95.8793 153.285 97.4567C153.099 99.0342 152.821 99.7765 150.824 101.029C152.635 103.442 153.099 104.648 150.221 108.545C151.056 112.303 150.778 114.809 146.831 115.643C142.884 116.479 137.173 117.175 134.341 114.252C130.301 109.984 129.001 109.473 133.133 97.3175Z" fill="#FFE75C"/>
<path d="M201.436 104.277C202.118 104.083 202.818 103.959 203.525 103.906" stroke="#FFA20D" stroke-width="0.485411" stroke-miterlimit="10" stroke-linecap="round"/>
<path d="M142.188 109.984C134.527 112.025 131.787 111.422 130.998 109.984C131.555 111.468 132.716 112.535 134.341 114.252C137.174 117.175 142.838 116.433 146.832 115.644C150.825 114.855 151.057 112.304 150.221 108.545C153.1 104.648 152.636 103.442 150.825 101.029C152.821 99.7767 153.146 99.0344 153.286 97.457C153.425 95.8795 153.704 93.8845 150.732 92.5854C149.554 91.9961 148.306 91.5596 147.017 91.2864C148.549 91.5647 148.735 92.4463 149.153 94.3021C149.571 96.1579 148.596 97.8745 145.16 100.194C148.782 106.411 144.463 109.381 142.188 109.984Z" fill="#FFC619"/>
<path d="M151.521 101.168C149.896 100.565 147.342 99.9619 147.342 99.9619" stroke="black" stroke-width="0.485411" stroke-linecap="round" stroke-linejoin="round"/>
<path d="M151.15 108.545C149.478 107.989 146.971 107.339 146.971 107.339" stroke="black" stroke-width="0.485411" stroke-linecap="round" stroke-linejoin="round"/>
<path d="M132.856 95.5082C132.025 94.735 131.141 94.0217 130.209 93.374" stroke="#FFA20D" stroke-width="0.485411" stroke-miterlimit="10" stroke-linecap="round"/>
<path d="M196.049 72.0784C196.319 80.5816 194.768 89.0444 191.498 96.8999" stroke="#0C1AAD" stroke-width="0.485411" stroke-linecap="round" stroke-linejoin="round"/>
<path d="M179.426 69.666L178.59 70.1764C179.718 70.5101 180.763 71.0794 181.654 71.8466L181.376 71.2899H182.072C181.276 70.6204 180.384 70.0732 179.426 69.666Z" fill="#D11583"/>
<path d="M169.351 73.5166C169.297 73.6978 169.266 73.8847 169.258 74.0734C169.993 73.0032 170.85 72.0223 171.812 71.1505L171.162 70.7793C170.142 71.703 169.238 72.7467 168.469 73.8878L169.351 73.5166Z" fill="#D11583"/>
<path d="M178.498 74.8158C178.504 74.5266 178.44 74.2402 178.312 73.9807C178.57 74.1563 178.852 74.2967 179.148 74.3983C178.412 73.2994 177.573 72.2739 176.64 71.3362L175.99 71.7537C176.947 72.6694 177.789 73.6977 178.498 74.8158Z" fill="#D11583"/>
<path d="M174.088 72.45V76.1152L174.599 75.512C174.648 75.7376 174.726 75.9559 174.831 76.1616V72.45L174.506 72.6819L174.088 72.45Z" fill="#D11583"/>
<path d="M164.801 70.2691C165.059 70.3335 165.326 70.3493 165.59 70.3155C165.47 70.4695 165.376 70.6419 165.312 70.8258C166.169 70.1321 167.103 69.5405 168.097 69.0628L167.355 68.5989C166.458 69.084 165.604 69.6426 164.801 70.2691Z" fill="#D11583"/>
<path d="M170.883 69.8053L172.925 66.604H171.208L169.629 69.0629C169.779 69.2629 169.966 69.4314 170.182 69.5587C170.397 69.6861 170.635 69.7699 170.883 69.8053Z" fill="#8CD9FF"/>
<path d="M176.92 66.7432H176.084L175.062 68.3206C175.139 68.5955 175.248 68.8604 175.388 69.1093L176.92 66.7432Z" fill="#8CD9FF"/>
<path d="M178.126 66.8357L176.223 69.7586C176.573 69.9158 176.953 69.995 177.337 69.9906H177.476L179.055 67.4852C178.972 67.3038 178.843 67.1479 178.679 67.0337C178.516 66.9195 178.325 66.8511 178.126 66.8357Z" fill="#8CD9FF"/>
<path d="M172.369 66.836C174.413 66.836 176.456 66.9287 177.617 67.0216C178.777 67.1143 179.056 67.4391 178.963 68.4134C178.87 69.3877 178.22 69.7589 177.292 69.7589C176.819 69.7802 176.355 69.6334 175.98 69.3445C175.606 69.0557 175.347 68.6435 175.248 68.1814C175.109 67.5783 174.784 67.2535 174.32 67.2535C173.855 67.2535 173.531 67.5319 173.298 68.135C173.174 68.5632 172.91 68.9375 172.548 69.1981C172.186 69.4588 171.748 69.5909 171.302 69.5733H171.07C170.877 69.5795 170.685 69.5469 170.504 69.4774C170.324 69.408 170.16 69.303 170.022 69.1688C169.883 69.0346 169.773 68.8739 169.698 68.6964C169.622 68.5188 169.584 68.3279 169.584 68.135C169.63 67.1607 170.002 66.8824 171.116 66.836H172.369ZM172.369 66.604H171.116C169.955 66.6504 169.398 66.9752 169.352 68.135C169.351 68.3583 169.396 68.5794 169.483 68.7851C169.57 68.9908 169.697 69.1771 169.857 69.3328C170.017 69.4885 170.207 69.6105 170.415 69.6917C170.624 69.7729 170.846 69.8115 171.07 69.8053H171.302C171.8 69.8158 172.288 69.6627 172.69 69.3693C173.093 69.0759 173.388 68.6586 173.531 68.1814C173.763 67.6247 174.041 67.4855 174.32 67.4855C174.599 67.4855 174.877 67.5783 175.063 68.2278C175.162 68.7393 175.442 69.1983 175.85 69.5216C176.259 69.845 176.771 70.0115 177.292 69.9909H177.338C177.781 70.0074 178.216 69.8607 178.558 69.5784C178.9 69.2962 179.127 68.8981 179.195 68.4598C179.288 67.2999 178.824 66.836 177.617 66.7896C176.409 66.7432 174.366 66.604 172.369 66.604Z" fill="black"/>
<path d="M176.222 56.2578C178.033 56.5362 178.358 58.0673 177.011 57.5105C175.665 56.9537 174.179 56.8146 172.926 58.3456C171.672 59.8767 170 59.6447 169.814 57.928C169.629 56.2114 168.607 56.5362 167.168 57.3713C166.724 57.6272 166.305 57.9222 165.914 58.2528C168.096 56.4898 169.211 57.0001 168.746 58.5312C168.282 60.0622 169.118 61.2221 170.557 61.2685C171.997 61.3149 173.483 60.2942 174.365 59.0415C175.247 57.7888 176.454 58.16 177.662 58.6703C178.869 59.1807 180.076 57.4177 177.847 56.629L176.222 56.2578Z" fill="#FF78B9"/>
</g>
<rect x="40" y="167" width="260" height="16" rx="8" fill="#4F5660"/>
<path d="M108.576 144.32C109.968 144.32 111.264 143.952 112.192 143.328V140.88C111.408 141.424 110.32 141.84 109.184 141.84C106.88 141.84 105.44 140.416 105.44 138.384C105.44 136.352 106.88 134.944 109.152 134.944C110.352 134.944 111.376 135.376 112.144 135.936V133.392C111.328 132.912 110.16 132.48 108.608 132.48C104.928 132.48 102.624 134.992 102.624 138.464C102.624 141.696 104.752 144.32 108.576 144.32ZM116.924 135.664C115.676 135.664 114.604 136.048 113.836 136.544V138.704C114.444 138.16 115.308 137.792 116.332 137.792C117.612 137.792 118.332 138.448 118.332 139.664V139.904C117.916 139.392 117.228 139.072 116.284 139.072C114.604 139.072 113.404 140.048 113.404 141.664C113.404 143.152 114.508 144.24 116.076 144.24C117.084 144.24 117.9 143.792 118.332 143.056V144H120.876V139.408C120.876 137.12 119.484 135.664 116.924 135.664ZM117.068 142.576C116.268 142.576 115.804 142.144 115.804 141.504C115.804 140.88 116.284 140.448 117.084 140.448C117.868 140.448 118.38 140.896 118.38 141.488C118.38 142.112 117.868 142.576 117.068 142.576ZM132.502 135.664C131.366 135.664 130.502 136.208 129.974 137.12C129.558 136.224 128.758 135.664 127.654 135.664C126.518 135.664 125.718 136.24 125.27 137.2V135.904H122.71V144H125.302V139.424C125.302 138.512 125.798 137.84 126.582 137.84C127.35 137.84 127.734 138.4 127.734 139.248V144H130.294V139.2C130.31 138.432 130.79 137.84 131.558 137.84C132.342 137.84 132.71 138.4 132.71 139.312V144H135.302V138.816C135.302 136.848 134.246 135.664 132.502 135.664ZM144.875 139.536C144.875 137.04 143.451 135.664 141.019 135.664C138.363 135.664 136.731 137.408 136.731 139.904C136.731 142.56 138.555 144.24 141.435 144.24C142.827 144.24 143.915 143.84 144.523 143.376V141.504C143.867 141.952 142.987 142.224 142.075 142.224C140.507 142.224 139.611 141.6 139.355 140.592H144.875V139.536ZM141.083 137.632C142.011 137.632 142.619 138.144 142.651 139.152H139.387C139.515 138.208 140.075 137.632 141.083 137.632ZM151.038 135.76C150.11 135.76 149.374 136.288 149.006 137.584V135.904H146.414V144H149.006V140.384C149.006 138.928 149.678 138.144 150.782 138.144C151.326 138.144 151.758 138.272 152.062 138.48V136.08C151.806 135.904 151.47 135.76 151.038 135.76ZM157.068 144.24C159.564 144.24 161.468 142.56 161.468 139.984C161.468 137.36 159.596 135.664 157.068 135.664C154.572 135.664 152.715 137.36 152.715 139.984C152.715 142.56 154.604 144.24 157.068 144.24ZM157.068 142.048C156.012 142.048 155.372 141.216 155.372 139.968C155.372 138.704 155.996 137.856 157.068 137.856C158.156 137.856 158.812 138.704 158.812 139.968C158.812 141.216 158.156 142.048 157.068 142.048ZM168.096 135.664C166.816 135.664 165.952 136.256 165.536 137.12V135.904H162.976V144H165.568V139.664C165.568 138.56 166.08 137.84 167.04 137.84C167.968 137.84 168.336 138.416 168.336 139.504V144H170.928V138.928C170.928 136.88 169.856 135.664 168.096 135.664ZM189.698 132.8H185.826L183.634 140.448L181.538 132.8H177.57L176.818 144H179.282L179.842 135.472L182.162 144H184.946L187.282 135.616L187.97 144H190.626L189.698 132.8ZM197.552 140.144C197.552 141.36 197.088 142.096 196.144 142.096C195.232 142.096 194.832 141.488 194.832 140.4V135.904H192.24V140.96C192.24 142.96 193.2 144.224 195.136 144.224C196.304 144.224 197.2 143.6 197.616 142.672V144H200.16V135.904H197.552V140.144ZM206.741 135.76C205.813 135.76 205.077 136.288 204.709 137.584V135.904H202.117V144H204.709V140.384C204.709 138.928 205.381 138.144 206.485 138.144C207.029 138.144 207.461 138.272 207.765 138.48V136.08C207.509 135.904 207.173 135.76 206.741 135.76ZM214.208 135.664C212.896 135.664 211.984 136.416 211.552 137.264V135.904H208.992V147.04H211.584V142.992C212.08 143.744 212.96 144.24 214.08 144.24C216.176 144.24 217.744 142.496 217.744 139.872C217.744 137.424 216.32 135.664 214.208 135.664ZM213.28 142.064C212.224 142.064 211.552 141.232 211.552 140C211.552 138.736 212.24 137.872 213.312 137.872C214.368 137.872 215.088 138.736 215.088 139.968C215.088 141.2 214.368 142.064 213.28 142.064ZM224.362 135.664C223.114 135.664 222.282 136.224 221.834 137.04V132.48H219.242V144H221.834V139.664C221.834 138.56 222.346 137.84 223.306 137.84C224.234 137.84 224.602 138.416 224.602 139.504V144H227.194V138.928C227.194 136.848 226.122 135.664 224.362 135.664ZM232.42 140.448L230.756 135.904H227.988L231.044 143.088L229.156 147.04H231.988L236.996 135.904H234.228L232.42 140.448Z" fill="white"/>
<rect x="40" y="167" width="101" height="16" rx="8" fill="url(#paint2_linear_179_1994)"/>
<g filter="url(#filter0_d_179_1994)">
<circle cx="56" cy="173" r="16" fill="#8080FF"/>
<path d="M53.8649 172.68C54.7529 172.476 55.1729 171.744 55.1729 170.952C55.1729 169.728 54.1529 168.84 52.4489 168.84C51.5489 168.84 50.8289 169.056 50.1329 169.488V170.88C50.4929 170.556 51.1409 170.184 52.1489 170.184C53.1689 170.184 53.6489 170.604 53.6489 171.216C53.6489 171.864 53.2769 172.356 52.2209 172.356H50.8169L50.6249 173.46H52.3169C53.5169 173.46 53.8889 174.024 53.8889 174.6C53.8889 175.38 53.2529 175.884 52.1729 175.884C51.2009 175.884 50.5409 175.548 50.1329 175.188V176.58C50.8169 177 51.5249 177.192 52.4129 177.192C54.2249 177.192 55.4249 176.112 55.4249 174.66C55.4249 173.736 54.8609 172.932 53.8649 172.68ZM60.404 172.68C61.292 172.476 61.712 171.744 61.712 170.952C61.712 169.728 60.692 168.84 58.988 168.84C58.088 168.84 57.368 169.056 56.672 169.488V170.88C57.032 170.556 57.68 170.184 58.688 170.184C59.708 170.184 60.188 170.604 60.188 171.216C60.188 171.864 59.816 172.356 58.76 172.356H57.356L57.164 173.46H58.856C60.056 173.46 60.428 174.024 60.428 174.6C60.428 175.38 59.792 175.884 58.712 175.884C57.74 175.884 57.08 175.548 56.672 175.188V176.58C57.356 177 58.064 177.192 58.952 177.192C60.764 177.192 61.964 176.112 61.964 174.66C61.964 173.736 61.4 172.932 60.404 172.68Z" fill="white"/>
</g>
<path d="M125.611 194.664V196.188L127.747 194.736V201H129.247V193.02H128.035L125.611 194.664ZM133.866 195.84C133.338 195.84 132.87 195.912 132.474 196.056V194.34H136.05V193.02H131.142V197.46C131.682 197.22 132.318 196.956 133.17 196.956C134.358 196.956 134.934 197.604 134.934 198.444C134.934 199.284 134.298 199.896 133.11 199.896C132.318 199.896 131.55 199.62 131.058 199.152V200.52C131.646 200.94 132.498 201.192 133.314 201.192C135.246 201.192 136.494 200.004 136.494 198.384C136.494 196.98 135.558 195.84 133.866 195.84ZM142.55 197.868V193.02H140.642L137.282 197.712V199.056H141.134V201H142.55V199.056H143.846V197.868H142.55ZM141.134 194.388V197.868H138.686L141.134 194.388ZM148.306 195.696C147.286 195.696 146.566 196.176 146.23 196.872C146.266 195.204 147.13 194.184 148.534 194.184C149.338 194.184 150.034 194.52 150.454 194.904V193.428C149.89 193.056 149.194 192.84 148.378 192.84C146.23 192.84 144.742 194.484 144.742 197.316C144.742 200.04 146.062 201.192 147.838 201.192C149.65 201.192 150.862 199.944 150.862 198.3C150.862 196.764 149.818 195.696 148.306 195.696ZM147.838 199.92C146.962 199.92 146.314 199.248 146.314 198.348C146.314 197.472 146.95 196.824 147.838 196.824C148.714 196.824 149.362 197.448 149.362 198.36C149.362 199.296 148.702 199.92 147.838 199.92ZM151.685 194.664V196.188L153.821 194.736V201H155.321V193.02H154.109L151.685 194.664ZM160.733 192.432L157.541 201H156.509L159.701 192.432H160.733ZM165.258 196.68C166.146 196.476 166.566 195.744 166.566 194.952C166.566 193.728 165.546 192.84 163.842 192.84C162.942 192.84 162.222 193.056 161.526 193.488V194.88C161.886 194.556 162.534 194.184 163.542 194.184C164.562 194.184 165.042 194.604 165.042 195.216C165.042 195.864 164.67 196.356 163.614 196.356H162.21L162.018 197.46H163.71C164.91 197.46 165.282 198.024 165.282 198.6C165.282 199.38 164.646 199.884 163.566 199.884C162.594 199.884 161.934 199.548 161.526 199.188V200.58C162.21 201 162.918 201.192 163.806 201.192C165.618 201.192 166.818 200.112 166.818 198.66C166.818 197.736 166.254 196.932 165.258 196.68ZM171.197 201.192C173.201 201.192 174.425 199.572 174.425 197.016C174.425 194.496 173.189 192.84 171.197 192.84C169.229 192.84 167.993 194.484 167.993 197.004C167.993 199.572 169.217 201.192 171.197 201.192ZM171.197 199.8C170.105 199.8 169.541 198.672 169.541 197.016C169.541 195.372 170.105 194.232 171.197 194.232C172.313 194.232 172.865 195.384 172.865 197.028C172.865 198.66 172.313 199.8 171.197 199.8ZM178.802 201.192C180.806 201.192 182.03 199.572 182.03 197.016C182.03 194.496 180.794 192.84 178.802 192.84C176.834 192.84 175.598 194.484 175.598 197.004C175.598 199.572 176.822 201.192 178.802 201.192ZM178.802 199.8C177.71 199.8 177.146 198.672 177.146 197.016C177.146 195.372 177.71 194.232 178.802 194.232C179.918 194.232 180.47 195.384 180.47 197.028C180.47 198.66 179.918 199.8 178.802 199.8ZM186.408 201.192C188.412 201.192 189.636 199.572 189.636 197.016C189.636 194.496 188.4 192.84 186.408 192.84C184.44 192.84 183.204 194.484 183.204 197.004C183.204 199.572 184.428 201.192 186.408 201.192ZM186.408 199.8C185.316 199.8 184.752 198.672 184.752 197.016C184.752 195.372 185.316 194.232 186.408 194.232C187.524 194.232 188.076 195.384 188.076 197.028C188.076 198.66 187.524 199.8 186.408 199.8ZM194.013 201.192C196.017 201.192 197.241 199.572 197.241 197.016C197.241 194.496 196.005 192.84 194.013 192.84C192.045 192.84 190.809 194.484 190.809 197.004C190.809 199.572 192.033 201.192 194.013 201.192ZM194.013 199.8C192.921 199.8 192.357 198.672 192.357 197.016C192.357 195.372 192.921 194.232 194.013 194.232C195.129 194.232 195.681 195.384 195.681 197.028C195.681 198.66 195.129 199.8 194.013 199.8ZM205.024 197.82L207.004 194.964H205.348L204.064 196.992L202.828 194.964H201.124L203.116 197.868L201.028 201H202.708L204.052 198.804L205.408 201H207.124L205.024 197.82ZM211.604 194.784C210.56 194.784 209.888 195.396 209.552 196.092V194.964H208.076V203.28H209.564V200.136C209.936 200.76 210.62 201.18 211.484 201.18C213.008 201.18 214.232 199.884 214.232 197.928C214.232 196.128 213.164 194.784 211.604 194.784ZM211.088 199.896C210.116 199.896 209.54 199.116 209.54 198.024C209.54 196.896 210.152 196.092 211.124 196.092C212.084 196.092 212.708 196.884 212.708 197.988C212.708 199.104 212.06 199.896 211.088 199.896Z" fill="white"/>
<defs>
<filter id="filter0_d_179_1994" x="36" y="157" width="40" height="40" filterUnits="userSpaceOnUse" color-interpolation-filters="sRGB">
<feFlood flood-opacity="0" result="BackgroundImageFix"/>
<feColorMatrix in="SourceAlpha" type="matrix" values="0 0 0 0 0 0 0 0 0 0 0 0 0 0 0 0 0 0 127 0" result="hardAlpha"/>
<feOffset dy="4"/>
<feGaussianBlur stdDeviation="2"/>
<feComposite in2="hardAlpha" operator="out"/>
<feColorMatrix type="matrix" values="0 0 0 0 0 0 0 0 0 0 0 0 0 0 0 0 0 0 0.25 0"/>
<feBlend mode="normal" in2="BackgroundImageFix" result="effect1_dropShadow_179_1994"/>
<feBlend mode="normal" in="SourceGraphic" in2="effect1_dropShadow_179_1994" result="shape"/>
</filter>
<linearGradient id="paint0_linear_179_1994" x1="5851.68" y1="5006.82" x2="8184.94" y2="7124.13" gradientUnits="userSpaceOnUse">
<stop stop-color="#FFE75C"/>
<stop offset="1" stop-color="#FFC619"/>
</linearGradient>
<linearGradient id="paint1_linear_179_1994" x1="1335.21" y1="3204.73" x2="2919.12" y2="5084.35" gradientUnits="userSpaceOnUse">
<stop stop-color="#FFE75C"/>
<stop offset="1" stop-color="#FFC619"/>
</linearGradient>
<linearGradient id="paint2_linear_179_1994" x1="40" y1="177.667" x2="141" y2="177.667" gradientUnits="userSpaceOnUse">
<stop stop-color="#3F70DD"/>
<stop offset="1" stop-color="#B377F3"/>
</linearGradient>
<clipPath id="clip0_179_1994">
<rect x="132" y="40" width="75" height="75" rx="37.5" fill="white"/>
</clipPath>
</defs>
</svg>
