<svg width="40" height="40" viewBox="0 0 40 40" fill="none" xmlns="http://www.w3.org/2000/svg">
<g clip-path="url(#clip0_3_3)">
<path d="M-0.199219 20.314C-0.199219 10.8859 -0.199219 6.17182 2.72971 3.24289C5.65864 0.313965 10.3727 0.313965 19.8008 0.313965C29.2289 0.313965 33.9429 0.313965 36.8719 3.24289C39.8008 6.17182 39.8008 10.8859 39.8008 20.314C39.8008 29.7421 39.8008 34.4561 36.8719 37.3851C33.9429 40.314 29.2289 40.314 19.8008 40.314C10.3727 40.314 5.65864 40.314 2.72971 37.3851C-0.199219 34.4561 -0.199219 29.7421 -0.199219 20.314Z" fill="white"/>
<path d="M23.8015 26.314C24.3538 26.314 24.8116 26.7661 24.7019 27.3074C24.508 28.2634 24.037 29.1495 23.337 29.8495C22.3994 30.7872 21.1276 31.314 19.8015 31.314C18.4754 31.314 17.2037 30.7872 16.266 29.8495C15.566 29.1495 15.095 28.2634 14.9012 27.3074C14.7914 26.7661 15.2492 26.314 15.8015 26.314H23.8015Z" fill="#4B1AEC"/>
<path d="M25.9035 18.0905C25.37 18.2334 25.0433 18.7915 25.3138 19.273C25.5985 19.7798 25.9923 20.2221 26.4714 20.5654C27.2236 21.1044 28.1394 21.366 29.0629 21.3054C29.9863 21.2449 30.8602 20.8661 31.5356 20.2335C32.2111 19.6009 32.6462 18.7536 32.767 17.8361C32.8878 16.9186 32.6868 15.9876 32.1981 15.2017C31.7094 14.4159 30.9633 13.8238 30.087 13.5263C29.2107 13.2288 28.2584 13.2444 27.3923 13.5704C26.8407 13.778 26.3459 14.1033 25.9397 14.5191C25.5538 14.9142 25.7249 15.5379 26.2032 15.814L26.7105 16.1069C27.482 16.5524 27.3299 17.7083 26.4693 17.9389L25.9035 18.0905Z" fill="#4B1AEC"/>
</g>
<defs>
<clipPath id="clip0_3_3">
<rect width="40" height="40" fill="white"/>
</clipPath>
</defs>
</svg>
