<svg width="340" height="245" viewBox="0 0 340 245" fill="none" xmlns="http://www.w3.org/2000/svg">
<rect width="340" height="245" rx="20" fill="#202225"/>
<g clip-path="url(#clip0_179_1994)">
<rect x="132" y="60" width="75" height="75" rx="37.5" fill="#5865F2"/>
<path d="M186.345 131.746L138.891 130.633C139.076 154.434 139.773 168.956 141.119 190.205C141.212 192.107 143.952 192.06 153.192 191.364C160.807 190.808 160.575 188.906 160.528 188.303C160.482 187.699 160.203 185.565 159.924 183.338C160.482 173.642 161.225 166.172 162.478 152.3C162.478 152.3 166.146 152.578 168.793 152.021C168.7 163.852 168.654 176.054 167.447 187.282C167.122 190.066 167.632 190.483 175.804 191.179C183.976 191.875 183.976 191.55 184.302 188.535C186.391 170.858 187.737 153.784 186.345 131.746V131.746Z" fill="#57F287"/>
<path d="M145.253 134.948C145.167 134.948 145.084 134.982 145.023 135.043C144.962 135.104 144.928 135.186 144.928 135.272V184.544C144.928 184.591 145.299 188.859 145.671 191.782H146.414C145.996 188.859 145.624 184.544 145.624 184.544V135.272C145.613 135.182 145.569 135.099 145.5 135.039C145.432 134.98 145.344 134.947 145.253 134.948V134.948Z" fill="#29CC7A"/>
<path d="M186.623 136.525L186.345 131.746L138.891 130.633C138.891 131.793 138.937 132.953 138.937 134.067C141.212 138.149 155.653 140.84 167.493 140.979C178.173 141.072 185.091 138.752 186.623 136.525Z" fill="black"/>
<path d="M154.4 140.469V134.948" stroke="#57F287" stroke-width="0.485411" stroke-linecap="round" stroke-linejoin="round"/>
<path d="M143.256 137.499V131.979" stroke="#57F287" stroke-width="0.485411" stroke-linecap="round" stroke-linejoin="round"/>
<path d="M181.238 139.727V134.159" stroke="#57F287" stroke-width="0.485411" stroke-linecap="round" stroke-linejoin="round"/>
<path d="M146.785 76.629C143.767 75.2372 140.563 74.0309 139.913 73.9381C139.263 73.8453 139.263 73.8453 139.913 77.7889C140.563 81.7325 141.492 83.1244 146.785 76.629Z" fill="black"/>
<path d="M212.719 116.158C213.183 111.008 210.769 106.647 206.822 103.121C210.304 92.357 206.033 84.9801 197.907 83.0779L190.803 113.235C190.803 121.261 193.542 123.767 197.35 126.318C196.978 134.809 198.929 142.649 206.265 144.134C213.601 145.619 219.916 137.871 221.03 125.854C222.145 113.838 212.719 116.158 212.719 116.158V116.158Z" fill="url(#paint0_linear_179_1994)"/>
<path d="M200.971 103.306C205.242 105.765 207.239 109.941 207.611 111.611" stroke="#FFC619" stroke-width="0.485411" stroke-miterlimit="10" stroke-linecap="round"/>
<path d="M210.444 116.482L201.529 126.04" stroke="#FFA20D" stroke-width="0.485411" stroke-miterlimit="10" stroke-linecap="round"/>
<path d="M146.785 76.6289C170.002 77.6032 178.591 79.0415 197.908 83.0778C200.461 99.5946 194.518 108.085 188.667 119.405C189.132 129.427 189.596 133.788 183.188 135.829C175.527 138.289 161.505 138.149 147.064 134.716C133.692 131.561 135.827 129.055 136.663 117.039C137.638 102.75 134.574 86.2791 146.785 76.6289V76.6289Z" fill="white"/>
<path d="M159.971 98.7594C166.053 110.405 176.5 117.596 185.88 114.163C195.259 110.729 175.34 86.3254 159.971 98.7594Z" fill="#8CD9FF"/>
<path d="M173.576 84.7017C182.63 85.3976 184.162 93.3776 179.612 112.771C178.637 116.946 178.497 117.457 178.869 118.802C179.24 120.148 180.448 123.395 180.633 127.293C180.726 128.592 180.587 129.566 181.515 129.566C182.444 129.566 185.137 129.566 190.013 127.896C191.034 127.571 191.22 127.386 191.359 117.967C194.981 113.745 203.85 101.961 197.906 83.0778C178.126 78.2991 162.664 76.6753 146.784 76.6289C137.358 80.9437 136.987 92.7745 135.687 113.699C135.176 121.911 133.086 125.158 141.119 127.339C149.152 129.52 158.531 129.566 161.178 129.566C163.825 129.566 163.918 129.241 163.918 125.808C163.871 123.535 164.753 107.528 164.428 99.2234C164.103 90.9187 163.593 83.913 173.576 84.7017V84.7017Z" fill="black"/>
<path d="M164.429 99.2234C164.615 104.513 164.383 112.91 164.151 118.941C162.758 113.931 160.204 108.642 159.508 107.064C158.811 105.487 158.625 105.069 160.529 103.121C156.815 101.218 156.582 101.45 157.557 98.9451C158.533 96.4397 160.204 90.5011 165.172 86.7895C165.808 86.3479 166.515 86.0184 167.262 85.8152C163.826 88.0885 164.151 93.3312 164.429 99.2234V99.2234Z" fill="#5865F2"/>
<path d="M179.797 86.3254L178.404 86.2327C183.001 89.3875 183.187 97.5995 179.611 112.771C178.776 116.343 178.543 117.225 178.73 118.245C179.937 116.343 184.208 110.59 185.694 108.456C187.18 106.322 186.112 106.322 184.719 103.492C188.016 102.053 188.759 102.053 188.48 100.615C188.202 99.177 186.391 93.0527 179.797 86.3254Z" fill="#5865F2"/>
<path d="M186.206 95.2335C186.021 91.8466 184.07 88.8774 181.098 86.8823L180.959 85.5369C180.402 80.387 178.174 76.3506 172.276 76.3506C166.38 76.3506 164.476 79.8766 164.105 85.3513C164.105 85.7225 164.058 86.0936 164.058 86.4648C160.715 88.4598 158.625 91.7075 158.486 95.4191C158.3 101.729 165.08 105.765 172.694 105.765C180.309 105.765 186.578 101.543 186.206 95.2335V95.2335Z" fill="#FFE75C"/>
<path d="M178.545 82.7532C179.288 84.7482 181.006 86.2329 182.213 85.1658C183.421 84.0987 181.702 82.0573 179.938 80.2015C181.378 80.2943 182.446 79.1344 181.052 78.1137C179.659 77.093 177.198 75.9795 172.37 75.9795C167.541 75.9795 165.126 78.7632 163.269 81.1294C161.412 83.4955 161.412 84.7946 162.294 85.5369C163.176 86.2793 166.38 85.8617 167.958 82.5212C168.376 83.7275 169.212 84.4234 170.744 84.2378C172.277 84.0523 173.345 82.4284 173.577 80.9438C174.738 83.2172 175.202 84.377 176.781 84.5163C178.36 84.6554 178.452 83.6347 178.545 82.7532V82.7532Z" fill="#EB459F"/>
<path d="M172.972 76.3508C172.88 73.9383 173.159 72.5 173.808 72.5C174.458 72.5 174.319 73.7991 173.669 75.8405C175.666 73.7527 176.501 73.6599 176.78 73.9847C177.059 74.3094 176.966 75.2837 172.972 76.3508Z" fill="#EB459F"/>
<path d="M177.617 86.7895C178.824 86.8358 179.288 87.2998 179.195 88.4597C179.127 88.898 178.9 89.2961 178.558 89.5783C178.216 89.8605 177.781 90.0074 177.338 89.9907C176.809 90.0228 176.287 89.8617 175.868 89.5373C175.45 89.2129 175.163 88.7474 175.063 88.2277C174.877 87.5782 174.552 87.4854 174.32 87.4854C174.088 87.4854 173.763 87.6246 173.531 88.1813C173.372 88.6949 173.04 89.1377 172.591 89.4338C172.142 89.73 171.605 89.8612 171.07 89.8051C170.846 89.8114 170.624 89.7727 170.415 89.6916C170.207 89.6104 170.017 89.4884 169.857 89.3326C169.697 89.1769 169.57 88.9907 169.483 88.785C169.396 88.5793 169.351 88.3582 169.352 88.1349C169.398 86.975 169.955 86.6502 171.116 86.6039C173.484 86.5575 176.224 86.6502 177.617 86.7895V86.7895Z" fill="black"/>
<path d="M165.59 90.3156C165.304 90.7324 165.152 91.2256 165.152 91.7307C165.152 92.2357 165.304 92.7289 165.59 93.1457C166.611 94.4448 168.097 94.1664 169.351 93.5169C169.026 94.7232 169.119 96.347 170.79 96.9501C172.462 97.5533 173.762 96.811 174.644 95.5119C174.923 96.4862 175.619 97.3213 177.012 96.9966C177.313 96.908 177.591 96.7543 177.826 96.5464C178.06 96.3385 178.247 96.0815 178.371 95.7936C178.495 95.5057 178.554 95.194 178.544 94.8807C178.533 94.5674 178.455 94.2602 178.312 93.9809C178.962 94.3984 180.077 94.9551 181.052 94.2128C182.027 93.4705 181.98 92.3106 181.377 91.2899C183.187 91.3827 183.42 90.0836 183.187 89.3877C182.956 88.6918 182.027 88.1814 180.727 88.8774C179.427 89.5733 176.269 91.6147 174.505 92.6818L166.658 88.2278C164.847 87.1607 164.104 87.7175 163.825 88.3206C163.547 88.9237 163.547 90.362 165.59 90.3156V90.3156Z" fill="#EB459F"/>
<path d="M169.77 100.291C170.884 101.636 174.691 102.564 177.384 100.291" stroke="#FFC619" stroke-width="0.485411" stroke-miterlimit="10" stroke-linecap="round"/>
<path d="M202.038 100.476L205.149 97.9243C205.799 97.2748 205.475 96.8572 204.871 96.2077C204.267 95.5582 202.178 93.2848 201.528 92.7281C200.878 92.1713 200.924 92.0322 201.249 91.661C203.106 89.1092 203.895 88.0421 203.895 87.7174C203.895 87.3926 202.967 86.8823 201.11 85.8152C201.063 85.8152 201.063 85.7688 201.063 85.7223C202.503 83.7737 204.082 81.918 203.803 81.686C203.524 81.454 201.295 82.0571 197.906 83.0778L191.498 115.879L194.516 116.622C195.352 116.854 195.445 116.854 195.538 116.39C195.631 115.926 195.817 114.209 195.863 113.838C195.909 113.467 196.049 113.467 196.559 113.513L199.577 114.024C200.738 114.209 201.017 114.348 200.785 113.513C200.553 112.678 199.67 110.451 199.485 109.987C199.299 109.523 199.159 109.291 199.67 109.106C200.181 108.92 201.899 108.271 203.246 107.667C204.592 107.064 204.453 106.693 204.174 105.951C203.584 104.606 202.901 103.304 202.131 102.054C201.528 101.079 201.481 100.986 202.038 100.476V100.476Z" fill="black"/>
<path d="M146.785 76.6289C136.802 76.3506 127.701 80.5725 128.63 96.2078C122.918 99.7338 120.968 104.373 122.454 112.307C117.997 116.622 114.282 122.282 117.207 128.963C120.132 135.644 128.862 134.67 136.337 134.067L147.063 121.168C144.556 120.055 141.631 119.637 138.845 118.71C144.695 115.74 147.11 111.286 146.785 104.141C153.378 96.9037 153.703 83.3098 146.785 76.6289V76.6289Z" fill="url(#paint1_linear_179_1994)"/>
<path d="M141.631 102.657C142.42 104.513 142.049 107.25 141.631 108.456" stroke="#FFB012" stroke-width="0.485411" stroke-miterlimit="10" stroke-linecap="round"/>
<path d="M126.215 114.302C130.481 114.794 134.674 115.79 138.705 117.271" stroke="#FFA20D" stroke-width="0.485411" stroke-miterlimit="10" stroke-linecap="round"/>
<path d="M148.177 104.512L144.787 103.724C144.323 103.584 144.277 103.445 144.787 102.981L147.806 100.058C148.177 99.6872 148.177 99.5944 147.62 98.9448L144.416 95.6044C143.998 95.1868 143.998 95.094 144.416 94.4909C144.834 93.8878 147.248 90.9648 147.666 90.4545C148.084 89.9441 148.038 89.6658 147.388 89.2482C146.738 88.8306 143.812 86.9748 142.884 86.4181C141.955 85.8613 141.909 85.7222 142.373 85.1654L145.298 81.7321C145.716 81.2682 145.716 81.0826 144.927 80.2939C144.137 79.5052 140.469 75.5152 139.494 73.9841L146.784 76.6287L155.885 81.129L154.167 101.311L148.177 104.512Z" fill="black"/>
<path d="M152.867 93.5632C152.217 100.662 148.549 111.147 148.549 111.147" stroke="#0C1AAD" stroke-width="0.485411" stroke-linecap="round" stroke-linejoin="round"/>
<path d="M218.802 108.549C220.938 110.266 223.259 111.101 224.606 109.477C225.952 107.853 224.188 106.322 222.331 104.466C220.984 99.4091 218.198 99.0843 215.969 99.8267C213.741 100.569 212.905 103.724 212.905 107.714C209.329 112.261 206.729 116.297 210.444 120.844C217.688 120.612 219.637 113.884 218.802 108.549V108.549Z" fill="#FFE75C"/>
<path d="M133.133 117.318C134.526 113.281 136.152 113.142 141.027 111.843C145.902 110.544 147.76 111.24 150.731 112.585C153.703 113.931 153.471 115.879 153.285 117.457C153.099 119.034 152.821 119.777 150.824 121.029C152.635 123.442 153.099 124.648 150.221 128.545C151.056 132.303 150.778 134.809 146.831 135.643C142.884 136.479 137.173 137.175 134.341 134.252C130.301 129.984 129.001 129.473 133.133 117.318V117.318Z" fill="#FFE75C"/>
<path d="M201.436 124.277C202.118 124.083 202.818 123.959 203.525 123.906" stroke="#FFA20D" stroke-width="0.485411" stroke-miterlimit="10" stroke-linecap="round"/>
<path d="M142.188 129.984C134.527 132.025 131.787 131.422 130.998 129.984C131.555 131.468 132.716 132.535 134.341 134.252C137.174 137.175 142.838 136.433 146.832 135.644C150.825 134.855 151.057 132.304 150.221 128.545C153.1 124.648 152.636 123.442 150.825 121.029C152.821 119.777 153.146 119.034 153.286 117.457C153.425 115.88 153.704 113.885 150.732 112.585C149.554 111.996 148.306 111.56 147.017 111.286C148.549 111.565 148.735 112.446 149.153 114.302C149.571 116.158 148.596 117.875 145.16 120.194C148.782 126.411 144.463 129.381 142.188 129.984V129.984Z" fill="#FFC619"/>
<path d="M151.521 121.168C149.896 120.565 147.342 119.962 147.342 119.962" stroke="black" stroke-width="0.485411" stroke-linecap="round" stroke-linejoin="round"/>
<path d="M151.15 128.545C149.478 127.989 146.971 127.339 146.971 127.339" stroke="black" stroke-width="0.485411" stroke-linecap="round" stroke-linejoin="round"/>
<path d="M132.856 115.508C132.025 114.735 131.141 114.022 130.209 113.374" stroke="#FFA20D" stroke-width="0.485411" stroke-miterlimit="10" stroke-linecap="round"/>
<path d="M196.049 92.0784C196.319 100.582 194.768 109.044 191.498 116.9" stroke="#0C1AAD" stroke-width="0.485411" stroke-linecap="round" stroke-linejoin="round"/>
<path d="M179.426 89.666L178.59 90.1764C179.718 90.5101 180.763 91.0794 181.654 91.8466L181.376 91.2899H182.072C181.276 90.6204 180.384 90.0732 179.426 89.666V89.666Z" fill="#D11583"/>
<path d="M169.351 93.5166C169.297 93.6978 169.266 93.8847 169.258 94.0734C169.993 93.0032 170.85 92.0223 171.812 91.1505L171.162 90.7793C170.142 91.703 169.238 92.7467 168.469 93.8878L169.351 93.5166Z" fill="#D11583"/>
<path d="M178.498 94.8158C178.504 94.5266 178.44 94.2402 178.312 93.9807C178.57 94.1563 178.852 94.2967 179.148 94.3983C178.412 93.2994 177.573 92.2739 176.64 91.3362L175.99 91.7537C176.947 92.6694 177.789 93.6977 178.498 94.8158V94.8158Z" fill="#D11583"/>
<path d="M174.088 92.45V96.1152L174.599 95.512C174.648 95.7376 174.726 95.9559 174.831 96.1616V92.45L174.506 92.6819L174.088 92.45Z" fill="#D11583"/>
<path d="M164.801 90.2691C165.059 90.3335 165.326 90.3493 165.59 90.3155C165.47 90.4695 165.376 90.6419 165.312 90.8258C166.169 90.1321 167.103 89.5405 168.097 89.0628L167.355 88.5989C166.458 89.084 165.604 89.6426 164.801 90.2691V90.2691Z" fill="#D11583"/>
<path d="M170.883 89.8053L172.925 86.604H171.208L169.629 89.0629C169.779 89.2629 169.966 89.4314 170.182 89.5587C170.397 89.6861 170.635 89.7699 170.883 89.8053Z" fill="#8CD9FF"/>
<path d="M176.92 86.7432H176.084L175.062 88.3206C175.139 88.5955 175.248 88.8604 175.388 89.1093L176.92 86.7432Z" fill="#8CD9FF"/>
<path d="M178.126 86.8357L176.223 89.7586C176.573 89.9158 176.953 89.995 177.337 89.9906H177.476L179.055 87.4852C178.972 87.3038 178.843 87.1479 178.679 87.0337C178.516 86.9195 178.325 86.8511 178.126 86.8357V86.8357Z" fill="#8CD9FF"/>
<path d="M172.369 86.836C174.413 86.836 176.456 86.9287 177.617 87.0216C178.777 87.1143 179.056 87.4391 178.963 88.4134C178.87 89.3877 178.22 89.7589 177.292 89.7589C176.819 89.7802 176.355 89.6334 175.98 89.3445C175.606 89.0557 175.347 88.6435 175.248 88.1814C175.109 87.5783 174.784 87.2535 174.32 87.2535C173.855 87.2535 173.531 87.5319 173.298 88.135C173.174 88.5632 172.91 88.9375 172.548 89.1981C172.186 89.4588 171.748 89.5909 171.302 89.5733H171.07C170.877 89.5795 170.685 89.5469 170.504 89.4774C170.324 89.408 170.16 89.303 170.022 89.1688C169.883 89.0346 169.773 88.8739 169.698 88.6964C169.622 88.5188 169.584 88.3279 169.584 88.135C169.63 87.1607 170.002 86.8824 171.116 86.836H172.369ZM172.369 86.604H171.116C169.955 86.6504 169.398 86.9752 169.352 88.135C169.351 88.3583 169.396 88.5794 169.483 88.7851C169.57 88.9908 169.697 89.1771 169.857 89.3328C170.017 89.4885 170.207 89.6105 170.415 89.6917C170.624 89.7729 170.846 89.8115 171.07 89.8053H171.302C171.8 89.8158 172.288 89.6627 172.69 89.3693C173.093 89.0759 173.388 88.6586 173.531 88.1814C173.763 87.6247 174.041 87.4855 174.32 87.4855C174.599 87.4855 174.877 87.5783 175.063 88.2278C175.162 88.7393 175.442 89.1983 175.85 89.5216C176.259 89.845 176.771 90.0115 177.292 89.9909H177.338C177.781 90.0074 178.216 89.8607 178.558 89.5784C178.9 89.2962 179.127 88.8981 179.195 88.4598C179.288 87.2999 178.824 86.836 177.617 86.7896C176.409 86.7432 174.366 86.604 172.369 86.604V86.604Z" fill="black"/>
<path d="M176.222 76.2578C178.033 76.5362 178.358 78.0673 177.011 77.5105C175.665 76.9537 174.179 76.8146 172.926 78.3456C171.672 79.8767 170 79.6447 169.814 77.928C169.629 76.2114 168.607 76.5362 167.168 77.3713C166.724 77.6272 166.305 77.9222 165.914 78.2528C168.096 76.4898 169.211 77.0001 168.746 78.5312C168.282 80.0622 169.118 81.2221 170.557 81.2685C171.997 81.3149 173.483 80.2942 174.365 79.0415C175.247 77.7888 176.454 78.16 177.662 78.6703C178.869 79.1807 180.076 77.4177 177.847 76.629L176.222 76.2578Z" fill="#FF78B9"/>
</g>
<rect x="129.5" y="57.5" width="80" height="80" rx="40" stroke="url(#paint2_linear_179_1994)" stroke-width="5"/>
<path d="M108.576 181.32C109.968 181.32 111.264 180.952 112.192 180.328V177.88C111.408 178.424 110.32 178.84 109.184 178.84C106.88 178.84 105.44 177.416 105.44 175.384C105.44 173.352 106.88 171.944 109.152 171.944C110.352 171.944 111.376 172.376 112.144 172.936V170.392C111.328 169.912 110.16 169.48 108.608 169.48C104.928 169.48 102.624 171.992 102.624 175.464C102.624 178.696 104.752 181.32 108.576 181.32ZM116.924 172.664C115.676 172.664 114.604 173.048 113.836 173.544V175.704C114.444 175.16 115.308 174.792 116.332 174.792C117.612 174.792 118.332 175.448 118.332 176.664V176.904C117.916 176.392 117.228 176.072 116.284 176.072C114.604 176.072 113.404 177.048 113.404 178.664C113.404 180.152 114.508 181.24 116.076 181.24C117.084 181.24 117.9 180.792 118.332 180.056V181H120.876V176.408C120.876 174.12 119.484 172.664 116.924 172.664ZM117.068 179.576C116.268 179.576 115.804 179.144 115.804 178.504C115.804 177.88 116.284 177.448 117.084 177.448C117.868 177.448 118.38 177.896 118.38 178.488C118.38 179.112 117.868 179.576 117.068 179.576ZM132.502 172.664C131.366 172.664 130.502 173.208 129.974 174.12C129.558 173.224 128.758 172.664 127.654 172.664C126.518 172.664 125.718 173.24 125.27 174.2V172.904H122.71V181H125.302V176.424C125.302 175.512 125.798 174.84 126.582 174.84C127.35 174.84 127.734 175.4 127.734 176.248V181H130.294V176.2C130.31 175.432 130.79 174.84 131.558 174.84C132.342 174.84 132.71 175.4 132.71 176.312V181H135.302V175.816C135.302 173.848 134.246 172.664 132.502 172.664ZM144.875 176.536C144.875 174.04 143.451 172.664 141.019 172.664C138.363 172.664 136.731 174.408 136.731 176.904C136.731 179.56 138.555 181.24 141.435 181.24C142.827 181.24 143.915 180.84 144.523 180.376V178.504C143.867 178.952 142.987 179.224 142.075 179.224C140.507 179.224 139.611 178.6 139.355 177.592H144.875V176.536ZM141.083 174.632C142.011 174.632 142.619 175.144 142.651 176.152H139.387C139.515 175.208 140.075 174.632 141.083 174.632ZM151.038 172.76C150.11 172.76 149.374 173.288 149.006 174.584V172.904H146.414V181H149.006V177.384C149.006 175.928 149.678 175.144 150.782 175.144C151.326 175.144 151.758 175.272 152.062 175.48V173.08C151.806 172.904 151.47 172.76 151.038 172.76ZM157.068 181.24C159.564 181.24 161.468 179.56 161.468 176.984C161.468 174.36 159.596 172.664 157.068 172.664C154.572 172.664 152.715 174.36 152.715 176.984C152.715 179.56 154.604 181.24 157.068 181.24ZM157.068 179.048C156.012 179.048 155.372 178.216 155.372 176.968C155.372 175.704 155.996 174.856 157.068 174.856C158.156 174.856 158.812 175.704 158.812 176.968C158.812 178.216 158.156 179.048 157.068 179.048ZM168.096 172.664C166.816 172.664 165.952 173.256 165.536 174.12V172.904H162.976V181H165.568V176.664C165.568 175.56 166.08 174.84 167.04 174.84C167.968 174.84 168.336 175.416 168.336 176.504V181H170.928V175.928C170.928 173.88 169.856 172.664 168.096 172.664ZM189.698 169.8H185.826L183.634 177.448L181.538 169.8H177.57L176.818 181H179.282L179.842 172.472L182.162 181H184.946L187.282 172.616L187.97 181H190.626L189.698 169.8ZM197.552 177.144C197.552 178.36 197.088 179.096 196.144 179.096C195.232 179.096 194.832 178.488 194.832 177.4V172.904H192.24V177.96C192.24 179.96 193.2 181.224 195.136 181.224C196.304 181.224 197.2 180.6 197.616 179.672V181H200.16V172.904H197.552V177.144ZM206.741 172.76C205.813 172.76 205.077 173.288 204.709 174.584V172.904H202.117V181H204.709V177.384C204.709 175.928 205.381 175.144 206.485 175.144C207.029 175.144 207.461 175.272 207.765 175.48V173.08C207.509 172.904 207.173 172.76 206.741 172.76ZM214.208 172.664C212.896 172.664 211.984 173.416 211.552 174.264V172.904H208.992V184.04H211.584V179.992C212.08 180.744 212.96 181.24 214.08 181.24C216.176 181.24 217.744 179.496 217.744 176.872C217.744 174.424 216.32 172.664 214.208 172.664ZM213.28 179.064C212.224 179.064 211.552 178.232 211.552 177C211.552 175.736 212.24 174.872 213.312 174.872C214.368 174.872 215.088 175.736 215.088 176.968C215.088 178.2 214.368 179.064 213.28 179.064ZM224.362 172.664C223.114 172.664 222.282 173.224 221.834 174.04V169.48H219.242V181H221.834V176.664C221.834 175.56 222.346 174.84 223.306 174.84C224.234 174.84 224.602 175.416 224.602 176.504V181H227.194V175.928C227.194 173.848 226.122 172.664 224.362 172.664ZM232.42 177.448L230.756 172.904H227.988L231.044 180.088L229.156 184.04H231.988L236.996 172.904H234.228L232.42 177.448Z" fill="white"/>
<g filter="url(#filter0_d_179_1994)">
<rect x="138" y="130" width="64" height="24" rx="12" fill="#B376D4" shape-rendering="crispEdges"/>
<path d="M144.372 139.664V141.188L146.508 139.736V146H148.008V138.02H146.796L144.372 139.664ZM152.88 146.192C154.884 146.192 156.108 144.572 156.108 142.016C156.108 139.496 154.872 137.84 152.88 137.84C150.912 137.84 149.676 139.484 149.676 142.004C149.676 144.572 150.9 146.192 152.88 146.192ZM152.88 144.8C151.788 144.8 151.224 143.672 151.224 142.016C151.224 140.372 151.788 139.232 152.88 139.232C153.996 139.232 154.548 140.384 154.548 142.028C154.548 143.66 153.996 144.8 152.88 144.8ZM158.019 146.18C158.583 146.18 158.991 145.76 158.991 145.196C158.991 144.62 158.571 144.236 157.995 144.236C157.443 144.236 157.023 144.656 157.023 145.196C157.023 145.748 157.455 146.18 158.019 146.18ZM163.134 146.192C165.138 146.192 166.362 144.572 166.362 142.016C166.362 139.496 165.126 137.84 163.134 137.84C161.166 137.84 159.93 139.484 159.93 142.004C159.93 144.572 161.154 146.192 163.134 146.192ZM163.134 144.8C162.042 144.8 161.478 143.672 161.478 142.016C161.478 140.372 162.042 139.232 163.134 139.232C164.25 139.232 164.802 140.384 164.802 142.028C164.802 143.66 164.25 144.8 163.134 144.8ZM170.74 146.192C172.744 146.192 173.968 144.572 173.968 142.016C173.968 139.496 172.732 137.84 170.74 137.84C168.772 137.84 167.536 139.484 167.536 142.004C167.536 144.572 168.76 146.192 170.74 146.192ZM170.74 144.8C169.648 144.8 169.084 143.672 169.084 142.016C169.084 140.372 169.648 139.232 170.74 139.232C171.856 139.232 172.408 140.384 172.408 142.028C172.408 143.66 171.856 144.8 170.74 144.8ZM178.345 146.192C180.349 146.192 181.573 144.572 181.573 142.016C181.573 139.496 180.337 137.84 178.345 137.84C176.377 137.84 175.141 139.484 175.141 142.004C175.141 144.572 176.365 146.192 178.345 146.192ZM178.345 144.8C177.253 144.8 176.689 143.672 176.689 142.016C176.689 140.372 177.253 139.232 178.345 139.232C179.461 139.232 180.013 140.384 180.013 142.028C180.013 143.66 179.461 144.8 178.345 144.8ZM186.262 142.82L188.242 139.964H186.586L185.302 141.992L184.066 139.964H182.362L184.354 142.868L182.266 146H183.946L185.29 143.804L186.646 146H188.362L186.262 142.82ZM192.843 139.784C191.799 139.784 191.127 140.396 190.791 141.092V139.964H189.315V148.28H190.803V145.136C191.175 145.76 191.859 146.18 192.723 146.18C194.247 146.18 195.471 144.884 195.471 142.928C195.471 141.128 194.403 139.784 192.843 139.784ZM192.327 144.896C191.355 144.896 190.779 144.116 190.779 143.024C190.779 141.896 191.391 141.092 192.363 141.092C193.323 141.092 193.947 141.884 193.947 142.988C193.947 144.104 193.299 144.896 192.327 144.896Z" fill="white"/>
</g>
<defs>
<filter id="filter0_d_179_1994" x="134" y="130" width="72" height="32" filterUnits="userSpaceOnUse" color-interpolation-filters="sRGB">
<feFlood flood-opacity="0" result="BackgroundImageFix"/>
<feColorMatrix in="SourceAlpha" type="matrix" values="0 0 0 0 0 0 0 0 0 0 0 0 0 0 0 0 0 0 127 0" result="hardAlpha"/>
<feOffset dy="4"/>
<feGaussianBlur stdDeviation="2"/>
<feComposite in2="hardAlpha" operator="out"/>
<feColorMatrix type="matrix" values="0 0 0 0 0 0 0 0 0 0 0 0 0 0 0 0 0 0 0.25 0"/>
<feBlend mode="normal" in2="BackgroundImageFix" result="effect1_dropShadow_179_1994"/>
<feBlend mode="normal" in="SourceGraphic" in2="effect1_dropShadow_179_1994" result="shape"/>
</filter>
<linearGradient id="paint0_linear_179_1994" x1="5851.68" y1="5026.82" x2="8184.94" y2="7144.13" gradientUnits="userSpaceOnUse">
<stop stop-color="#FFE75C"/>
<stop offset="1" stop-color="#FFC619"/>
</linearGradient>
<linearGradient id="paint1_linear_179_1994" x1="1335.21" y1="3224.73" x2="2919.12" y2="5104.35" gradientUnits="userSpaceOnUse">
<stop stop-color="#FFE75C"/>
<stop offset="1" stop-color="#FFC619"/>
</linearGradient>
<linearGradient id="paint2_linear_179_1994" x1="169.5" y1="60" x2="169.5" y2="135" gradientUnits="userSpaceOnUse">
<stop stop-color="#CD83CB"/>
<stop offset="1" stop-color="#B674F1"/>
</linearGradient>
<clipPath id="clip0_179_1994">
<rect x="132" y="60" width="75" height="75" rx="37.5" fill="white"/>
</clipPath>
</defs>
</svg>
