<svg width="40" height="20" viewBox="0 0 40 20" fill="none" xmlns="http://www.w3.org/2000/svg">
<path d="M18.5 20H10C7.16667 20 4.79167 19.0417 2.875 17.125C0.958333 15.2083 0 12.8333 0 10C0 7.16667 0.958333 4.79167 2.875 2.875C4.79167 0.958333 7.16667 0 10 0H18.5V3H10C8 3 6.33333 3.66667 5 5C3.66667 6.33333 3 8 3 10C3 12 3.66667 13.6667 5 15C6.33333 16.3333 8 17 10 17H18.5V20ZM12.25 11.5V8.5H27.75V11.5H12.25ZM21.5 20V17H30C32 17 33.6667 16.3333 35 15C36.3333 13.6667 37 12 37 10C37 8 36.3333 6.33333 35 5C33.6667 3.66667 32 3 30 3H21.5V0H30C32.8333 0 35.2083 0.958333 37.125 2.875C39.0417 4.79167 40 7.16667 40 10C40 12.8333 39.0417 15.2083 37.125 17.125C35.2083 19.0417 32.8333 20 30 20H21.5Z" fill="#00AFF4"/>
</svg>
