<svg width="120" height="120" viewBox="0 0 120 120" fill="none" xmlns="http://www.w3.org/2000/svg">
<g clip-path="url(#clip0_3455_2628)">
<rect width="120" height="120" rx="60" fill="#3895F2"/>
<path d="M52.4141 37.6185C52.4706 34.2617 52.7606 30.9128 53.2805 27.5962C53.6516 26.6063 54.3938 25.7401 56.867 28.7098C59.3401 31.6793 63.5443 37.9896 63.5443 37.9896L52.4141 37.6185Z" fill="#FF8C19"/>
<path d="M75.541 38.4845C80.8585 31.1842 85.0646 28.0909 87.1667 28.2147C89.2688 28.3384 89.022 30.5656 87.1667 44.0525C85.3113 57.5392 75.541 38.4845 75.541 38.4845V38.4845Z" fill="#FF8C19"/>
<path d="M53.6513 149.596L38.4392 120.025C30.771 117.055 22.1139 116.559 20.2586 124.602C18.4051 132.645 21.7428 138.46 28.6689 152.071C22.8561 154.546 19.1453 155.413 15.5589 159.372C11.9725 163.331 9.00584 168.28 11.7258 170.384C14.4476 172.488 16.7965 171.25 18.6518 169.517C20.5072 167.784 22.8561 165.311 25.2068 164.32C27.5557 163.331 35.8417 160.361 39.4281 158.628C46.1074 155.413 53.1559 152.195 53.6513 149.596V149.596Z" fill="#FF8C19"/>
<path d="M35.4709 100.597C32.6267 108.145 29.0403 120.025 32.3799 133.387C34.8531 143.532 44.6234 155.906 63.4219 155.906C82.2185 155.906 95.8239 143.657 93.9685 129.799C93.102 124.107 88.5267 115.941 83.7028 112.104C85.5581 108.516 90.011 100.226 91.371 96.1444C92.731 92.0608 94.5863 87.8528 88.651 80.4296C71.5836 59.1478 49.6941 65.0868 44.7459 69.0464C39.7995 73.0057 37.9441 79.0687 36.3374 88.4725C35.729 92.4846 35.4408 96.54 35.4709 100.597Z" fill="white"/>
<path d="M43.3853 88.968C41.6184 84.9239 41.0194 80.4663 41.6542 76.0994H39.4278C37.9737 80.0636 36.9376 84.1686 36.3368 88.3483C35.7284 92.3623 35.4383 96.4159 35.4703 100.475C31.5128 110.373 30.5239 118.168 30.1529 133.263L27.3086 143.533L41.1588 147.741C39.5276 146.07 38.113 144.199 36.9546 142.173C31.0193 128.686 33.6149 112.353 43.3853 88.968V88.968Z" fill="#FF8C19"/>
<path d="M93.9682 129.799C93.1017 124.107 88.5264 115.941 83.7025 112.104C85.5578 108.516 90.0107 100.226 91.3707 96.1444C92.7307 92.0607 94.586 87.8527 88.6508 80.4295C87.2851 78.6765 85.7519 77.0603 84.0736 75.6041L76.4073 71.1497C82.3425 80.0585 77.5186 85.7506 71.459 91.1942C78.385 100.104 79.3739 121.261 79.4983 138.335L78.6318 152.813C88.8975 148.358 95.2039 139.451 93.9682 129.799V129.799Z" fill="#FF8C19"/>
<path d="M93.5968 136.605C92.1125 143.039 87.1661 148.607 80.1158 152.195C76.405 159.494 73.6851 161.103 68.4901 159.99C67.2243 159.756 66.0207 159.261 64.9564 158.537C63.8922 157.812 62.9899 156.874 62.308 155.784C60.3359 152.612 58.6784 149.255 57.3598 145.761C53.1556 135.614 47.3428 130.541 49.9403 126.458C52.5378 122.376 56.9887 123.736 59.2152 126.953C61.9803 131.347 64.4987 135.891 66.759 140.564C65.8945 124.973 68.7387 117.797 75.2937 118.045C81.8468 118.292 90.5039 123.24 93.5968 136.605V136.605Z" fill="#FF8C19"/>
<path d="M85.9287 88.4728C77.0248 85.2556 72.943 84.018 67.748 91.0703L59.9574 101.464C57.3599 105.052 56.7421 108.516 59.9574 110.125C63.1728 111.734 67.0078 108.145 69.1099 105.919C71.212 103.692 80.2402 94.6586 85.9287 94.5362H91.9883C93.2258 90.9479 93.7193 86.8642 88.6486 80.4301L87.9065 79.5639L83.7023 79.1928L85.9287 88.4728Z" fill="#FF8C19"/>
<path d="M89.2682 90.9476C89.1251 92.4564 88.835 93.9482 88.4018 95.4023L87.2886 95.0294C87.8009 93.6826 88.0929 92.2624 88.155 90.8233C88.155 90.5765 88.5261 90.3279 88.7729 90.3279C89.0196 90.3279 89.2682 90.699 89.2682 90.9476V90.9476Z" fill="black"/>
<path d="M92.2362 86.8637C92.6073 88.1012 91.8652 90.4519 85.9299 88.4723L83.7035 87.7301C77.2728 85.3794 73.5621 84.7597 69.4822 88.9677C46.7262 91.1941 43.6333 82.4089 38.3159 82.4089H37.5737C38.9337 76.47 40.9134 72.2632 44.7466 69.0462C48.5816 65.8291 71.5843 59.1476 88.6498 80.4296L89.392 81.2957C89.5257 81.6302 89.7386 81.9273 90.0117 82.1622C90.1492 82.4654 90.315 82.7555 90.5052 83.0286C90.9893 83.7726 91.4018 84.56 91.7427 85.3794L92.1138 86.1215C92.1138 86.3683 92.2362 86.6169 92.2362 86.8637V86.8637Z" fill="black"/>
<path d="M31.6367 68.7989L46.9712 70.6549L76.4046 71.1499L94.832 81.5433L101.016 58.158L82.2174 36.3812L55.504 35.3911L35.5942 33.9065L33.7388 54.941L31.6367 68.7989Z" fill="#FFD73B"/>
<path d="M76.4048 71.1499L80.2398 55.4358L82.2176 36.3812L101.016 58.158L94.8322 81.5435L76.4048 71.1499Z" fill="#FFB619"/>
<path d="M31.6384 68.7989L21.126 75.8517L21.9906 77.9552L43.3865 81.5433H66.2649L76.1596 73.5008L80.117 82.7802L97.1845 89.71L98.5444 88.9679L94.8337 81.5433L89.6406 81.667L76.4063 71.1498L40.418 76.099L31.6384 68.7989Z" fill="#FFD73B"/>
<path d="M31.6384 68.7989L21.126 75.8517L44.0044 79.6873H65.5246L76.4063 71.1498L46.9729 70.6548L31.6384 68.7989Z" fill="#FFF2A6"/>
<path d="M94.8322 81.5431L76.4048 71.1497L81.5998 81.5431L98.5429 88.9678L94.8322 81.5431Z" fill="#FFB619"/>
<path d="M71.2119 58.0342C69.5449 60.7743 66.8871 62.7678 63.7905 63.6022C62.7846 63.9162 61.7053 63.9162 60.6995 63.6022C60.5752 63.4785 60.5751 63.3547 60.5751 63.1072C59.9385 60.3861 60.1551 57.5349 61.1949 54.941C62.5548 51.9713 67.0077 48.3832 70.0987 48.2594H71.2119L71.583 49.373C72.0765 51.3527 72.6962 55.4358 71.2119 58.0342V58.0342Z" fill="black"/>
<path d="M71.2121 48.3832H70.0988C67.0078 48.507 62.555 52.0952 61.195 55.0648C60.1552 57.6589 59.9386 60.5101 60.5753 63.2312C60.5753 63.4785 60.5753 63.6022 60.6996 63.726C60.2645 63.5723 59.8896 63.2873 59.624 62.9106C59.3566 62.5338 59.2153 62.0837 59.2153 61.6226C58.5786 58.9015 58.7952 56.0503 59.835 53.4562C61.195 50.4866 65.6459 46.8983 68.7388 46.7748C69.2757 46.6945 69.8238 46.814 70.2797 47.1102C70.7355 47.4065 71.067 47.8592 71.2121 48.3832V48.3832Z" fill="#FFB012"/>
<path d="M49.5688 58.9004C48.951 60.7564 48.4556 62.365 47.3424 62.6125C46.2292 62.86 44.127 60.6328 42.6427 58.2819C41.4071 55.8072 41.2828 52.5901 41.7782 49.0019C42.2717 45.4136 44.4981 43.6814 46.1067 46.0323C47.3801 48.2375 48.5366 50.5091 49.5688 52.8376C50.1226 54.8205 50.1226 56.9175 49.5688 58.9004Z" fill="black"/>
<path d="M46.1079 46.0324C44.4993 43.6815 42.3972 44.9188 41.7794 49.0019C41.1597 53.0852 41.4083 55.8072 42.6439 58.2819C42.4386 58.0648 42.271 57.8137 42.1504 57.5394C40.4175 54.9411 40.0483 51.2291 40.6661 47.146C41.284 43.0629 43.2636 41.4543 44.8704 43.929L46.1079 46.0324Z" fill="#FFB012"/>
<path d="M42.6453 58.2821C42.521 58.1581 42.521 58.034 42.3967 58.034C42.2724 58.034 42.521 58.1581 42.6453 58.2821Z" fill="#FFB012"/>
<path d="M37.9432 88.968C35.099 85.5021 31.8837 79.0688 29.9059 73.0058C27.9262 66.943 25.6998 65.7057 23.1041 65.4582C22.4524 65.387 21.7913 65.4567 21.1697 65.6626C20.5481 65.8684 19.9755 66.2056 19.4951 66.6515C19.0148 67.0973 18.6362 67.6413 18.3838 68.2467C18.1314 68.8521 18.0108 69.5046 18.0334 70.1601C18.0334 75.3568 20.3823 81.296 23.5976 90.3279C26.813 99.3618 28.173 101.341 35.4701 100.597C40.6651 100.104 40.6651 92.3076 37.9432 88.968Z" fill="#FF8C19"/>
<path d="M26.3197 70.2839C26.2839 69.9793 26.1803 69.6868 26.0126 69.4295C25.8469 69.1722 25.6227 68.9571 25.359 68.8011C25.0953 68.6452 24.7996 68.5527 24.4944 68.5308C24.1874 68.509 23.8822 68.5585 23.5978 68.6753C23.4565 68.3255 23.2192 68.0234 22.9122 67.8041C22.6052 67.5849 22.2435 67.4579 21.8668 67.4381C20.8779 67.4381 20.3825 68.1805 20.5068 69.1703C20.6293 70.1601 18.2804 69.294 18.7758 71.645C19.1337 73.1862 19.7628 74.6522 20.6293 75.9756C21.0267 76.6415 21.6219 77.1666 22.3302 77.4774C23.0403 77.788 23.8295 77.8687 24.5867 77.7078C25.229 77.5091 25.781 77.0894 26.1426 76.5232C26.5043 75.9571 26.6549 75.2809 26.5664 74.6145C26.7246 73.1673 26.6418 71.7038 26.3197 70.2839V70.2839Z" fill="white"/>
<path d="M71.212 58.034C70.6544 59.0784 69.8991 60.0033 68.9855 60.756C69.3585 60.1604 69.5714 59.4785 69.6034 58.7763C70.0988 55.9305 68.8612 53.7034 66.8834 53.8271C64.9038 53.9509 62.9259 56.1781 62.4305 58.9001C61.9352 61.6223 62.8016 62.8594 64.0392 63.4782H63.7905L62.1838 63.7257C61.1799 62.1924 60.8239 60.3239 61.193 58.5288C61.6884 54.9407 64.2859 51.8474 67.1302 51.8474C69.9744 51.8474 71.4587 54.5694 71.212 58.034V58.034Z" fill="#57F287"/>
<path d="M49.5693 52.8374L48.9515 51.4763C48.3808 51.166 47.7441 50.9963 47.0961 50.9812C44.6229 50.9812 42.6432 53.7035 42.6432 57.0442C42.6225 57.5423 42.6659 58.041 42.7676 58.5289C44.2519 60.8798 45.7343 62.9833 47.3429 62.6122C48.9515 62.2409 48.9515 60.7561 49.5693 58.9002C50.1231 56.9173 50.1231 54.8203 49.5693 52.8374V52.8374Z" fill="#57F287"/>
<path d="M49.5692 58.9002C49.9647 57.3652 50.0476 55.7664 49.8159 54.1983C49.573 53.7528 49.2169 53.38 48.7818 53.119C48.3467 52.8579 47.8495 52.7179 47.3428 52.7136C45.4874 52.7136 44.0031 54.9408 44.0031 57.7866C43.9183 59.2716 44.4062 60.7329 45.3649 61.8697C45.606 62.1479 45.915 62.3613 46.2597 62.4909C46.6044 62.6205 46.9774 62.6621 47.3428 62.6122C48.456 62.3647 48.9513 60.7561 49.5692 58.9002V58.9002Z" fill="black"/>
<path d="M37.0786 86.9881L39.5518 90.6989" stroke="black" stroke-width="0.902235" stroke-miterlimit="10" stroke-linecap="round"/>
<path d="M25.1734 71.8535C25.6198 71.6791 25.778 71.0217 25.5293 70.3854C25.2788 69.7493 24.7175 69.375 24.2711 69.5495C23.8266 69.7241 23.6683 70.3813 23.917 71.0176C24.1656 71.6538 24.7288 72.0281 25.1734 71.8535Z" fill="#FF78B9"/>
<path d="M22.2871 70.9803C22.7335 70.8057 22.8918 70.1485 22.6431 69.5122C22.3926 68.8759 21.8313 68.5017 21.3849 68.6763C20.9403 68.8509 20.7821 69.5081 21.0307 70.1444C21.2794 70.7805 21.8426 71.1549 22.2871 70.9803Z" fill="#FF78B9"/>
<path d="M20.52 72.4911C20.9023 72.3415 21.0285 71.7561 20.8044 71.1835C20.5802 70.6108 20.0886 70.2678 19.7081 70.4176C19.3258 70.5671 19.1977 71.1526 19.4237 71.7252C19.6479 72.2978 20.1376 72.6408 20.52 72.4911Z" fill="#FF78B9"/>
<path d="M21.4957 72.2637C21.0003 73.6248 21.0004 74.4909 21.7425 74.7384C22.2266 74.9449 22.7559 75.0194 23.2776 74.9543C23.7975 74.8889 24.2929 74.6864 24.7111 74.3672C25.5756 73.7486 25.2046 73.1298 24.34 72.5112C23.4735 71.8925 21.9892 70.9026 21.4957 72.2637Z" fill="#FF78B9"/>
<path d="M21.249 122.005C22.9801 119.158 28.0508 121.385 31.1418 122.251C34.2347 123.118 32.7504 120.643 29.2864 118.045C25.7 117.921 22.8557 119.034 21.249 122.005Z" fill="#ED5F00"/>
<path d="M90.1332 45.4134L89.02 54.6933L94.0907 59.5189L95.0796 51.2287L90.1332 45.4134Z" fill="white"/>
<path d="M45.7366 55.1883C46.4185 55.1883 46.9722 54.6343 46.9722 53.951C46.9722 53.2676 46.4185 52.7136 45.7366 52.7136C45.0528 52.7136 44.499 53.2676 44.499 53.951C44.499 54.6343 45.0528 55.1883 45.7366 55.1883Z" fill="white"/>
<path d="M64.1619 56.9204C64.8457 56.9204 65.3995 56.3664 65.3995 55.683C65.3995 54.9997 64.8457 54.4457 64.1619 54.4457C63.4801 54.4457 62.9263 54.9997 62.9263 55.683C62.9263 56.3664 63.4801 56.9204 64.1619 56.9204Z" fill="white"/>
<path d="M64.5352 95.4005C66.2662 93.0497 72.9436 92.6787 75.2944 94.0405C77.6432 95.4005 76.5301 93.7938 75.5412 92.9273C74.5523 92.0608 69.7283 88.4726 65.8952 93.5451L64.5352 95.4005Z" fill="#ED5F00"/>
<path d="M76.4048 85.8731C79.622 85.9974 81.1044 88.3482 81.9709 90.0811C82.8374 91.814 83.2084 89.5857 82.342 87.235C80.4226 86.555 78.4297 86.0973 76.4048 85.8731Z" fill="#ED5F00"/>
<path d="M31.0203 93.5452C27.1853 93.7939 24.8364 93.7939 24.0942 91.8142C24.7968 93.7807 25.6652 95.685 26.6918 97.5046C32.9981 95.7736 34.9778 93.4209 31.0203 93.5452Z" fill="#ED5F00"/>
</g>
<defs>
<clipPath id="clip0_3455_2628">
<rect width="120" height="120" rx="60" fill="white"/>
</clipPath>
</defs>
</svg>
