<svg width="120" height="120" viewBox="0 0 120 120" fill="none" xmlns="http://www.w3.org/2000/svg">
<g clip-path="url(#clip0_3899_2460)">
<rect width="120" height="120" rx="60" fill="#5B40FF"/>
<path d="M10.6844 61.0243C16.6192 61.0243 21.4303 56.2132 21.4303 50.2784C21.4303 44.3436 16.6192 39.5325 10.6844 39.5325C4.74958 39.5325 -0.0615234 44.3436 -0.0615234 50.2784C-0.0615234 56.2132 4.74958 61.0243 10.6844 61.0243Z" fill="#B32FB3"/>
<path d="M28.3991 40.5093C28.0166 40.5055 27.6478 40.3672 27.3571 40.1186L26.9663 39.7278C25.533 38.2844 23.8285 37.1387 21.9507 36.3563C20.0731 35.5739 18.0592 35.1704 16.0251 35.169C15.6451 35.169 15.2806 35.018 15.012 34.7493C14.7432 34.4806 14.5923 34.1162 14.5923 33.7362C14.609 33.3676 14.7673 33.0197 15.0343 32.7649C15.3012 32.5101 15.6561 32.3681 16.0251 32.3685C18.4308 32.3598 20.8145 32.8271 23.0388 33.7437C25.2631 34.6603 27.2841 36.0079 28.9853 37.7089L29.376 38.0997C29.6277 38.3756 29.7672 38.7356 29.7672 39.1091C29.7672 39.4826 29.6277 39.8426 29.376 40.1186C29.1117 40.368 28.7625 40.5077 28.3991 40.5093Z" fill="#270813"/>
<path d="M54.5148 30.2845C47.978 30.2805 41.5261 31.7651 35.6485 34.6259C29.7709 37.4866 24.622 41.6483 20.5923 46.7952C16.5627 51.9422 13.758 57.9393 12.3911 64.3315C11.0242 70.7239 11.131 77.3435 12.7035 83.6884H96.2609C102.969 56.5305 82.4541 30.2845 54.5148 30.2845Z" fill="#B32FB3"/>
<path d="M54.5147 30.2845C45.0779 30.2552 35.8965 33.3462 28.3989 39.0766C41.2226 52.042 51.7299 67.1088 59.4643 83.6232H96.2609C102.969 56.5305 82.454 30.2845 54.5147 30.2845Z" fill="url(#paint0_linear_3899_2460)"/>
<path d="M92.5484 77.1105L92.9392 76.7849C93.7175 76.2389 94.6397 75.9353 95.5899 75.9121C96.5401 75.8889 97.4759 76.1473 98.2796 76.6546C103.815 80.1063 105.248 86.8144 105.248 90.3963C105.248 91.5015 104.809 92.5618 104.027 93.3433C103.245 94.1255 102.185 94.5644 101.08 94.5644C99.9683 94.5644 98.9015 94.1274 98.1096 93.3479C97.3177 92.5677 96.8637 91.5081 96.8468 90.3963C96.8468 90.3312 96.7165 85.4467 93.6556 83.6883H89.4224V83.3627C89.4321 82.1512 89.7193 80.958 90.2612 79.8744C90.803 78.7907 91.5852 77.8453 92.5484 77.1105Z" fill="#EB3EEB"/>
<path d="M109.026 94.5646H109.091C110.196 94.5646 111.256 94.1257 112.038 93.3435C112.82 92.562 113.259 91.5017 113.259 90.3965C113.259 86.7494 111.696 79.7158 105.769 76.3292C104.792 75.7906 103.642 75.6594 102.569 75.9643C101.496 76.2693 100.586 76.9855 100.038 77.9573C99.76 78.4352 99.5795 78.9635 99.5079 79.5117C99.4363 80.0599 99.474 80.6168 99.6193 81.1502C99.7652 81.6836 100.015 82.1827 100.355 82.6184C100.695 83.0542 101.119 83.4179 101.601 83.6885C104.662 85.4469 104.857 90.3314 104.857 90.3965C104.857 91.5017 105.296 92.562 106.079 93.3435C106.86 94.1257 107.92 94.5646 109.026 94.5646Z" fill="#EB3EEB"/>
<path d="M117.036 94.5645C118.148 94.5645 119.215 94.1275 120.007 93.3479C120.799 92.5677 121.252 91.5081 121.269 90.3964C121.269 86.7493 119.641 79.7156 113.715 76.329C112.751 75.9096 111.666 75.8636 110.67 76.2C109.674 76.5364 108.839 77.2312 108.328 78.1491C107.816 79.0671 107.664 80.1426 107.902 81.1664C108.139 82.1902 108.748 83.0892 109.612 83.6883C112.673 85.4468 112.803 90.3313 112.803 90.3964C112.836 91.5022 113.295 92.5534 114.083 93.3297C114.872 94.106 115.93 94.5482 117.036 94.5645Z" fill="#EB3EEB"/>
<path d="M105.249 93.0665C104.886 93.0665 104.538 92.9226 104.281 92.666C104.025 92.4094 103.881 92.0616 103.881 91.6989V90.3963C103.82 87.1046 102.826 83.8976 101.015 81.1484C100.904 81.0003 100.824 80.8312 100.78 80.6513C100.736 80.4714 100.729 80.2844 100.759 80.1017C100.79 79.919 100.857 79.7444 100.957 79.5885C101.057 79.4325 101.188 79.2985 101.341 79.1946C101.646 78.9868 102.019 78.9048 102.383 78.9654C102.747 79.0261 103.074 79.2248 103.295 79.5202C105.444 82.7453 106.62 86.5211 106.681 90.3963V91.6989C106.681 91.8838 106.644 92.0675 106.571 92.2375C106.498 92.4081 106.392 92.5618 106.258 92.6895C106.124 92.8178 105.966 92.9167 105.792 92.9819C105.618 93.0464 105.434 93.0757 105.249 93.0665Z" fill="#270813"/>
<path d="M113.259 93.0666C113.074 93.0757 112.889 93.0464 112.716 92.9819C112.542 92.9168 112.383 92.8178 112.249 92.6895C112.115 92.5619 112.009 92.4082 111.936 92.2376C111.863 92.0676 111.826 91.8839 111.826 91.699V90.3964C111.795 87.1 110.799 83.8849 108.96 81.1484C108.802 81.0046 108.678 80.8271 108.598 80.6291C108.517 80.4311 108.482 80.2176 108.494 80.0042C108.507 79.7907 108.567 79.5829 108.671 79.3958C108.774 79.2086 108.918 79.047 109.092 78.9227C109.266 78.7985 109.465 78.7147 109.676 78.6776C109.887 78.6405 110.103 78.651 110.309 78.7083C110.514 78.7656 110.705 78.8682 110.866 79.0087C111.028 79.1492 111.155 79.324 111.24 79.5203C113.433 82.7283 114.634 86.5108 114.692 90.3964V91.699C114.692 91.8839 114.654 92.0676 114.582 92.2376C114.509 92.4082 114.402 92.5619 114.268 92.6895C114.134 92.8178 113.976 92.9168 113.802 92.9819C113.629 93.0464 113.444 93.0757 113.259 93.0666Z" fill="#270813"/>
<path d="M0.394466 77.1105L0.850353 76.7849C1.62842 76.2389 2.55061 75.9353 3.50081 75.9121C4.45107 75.8889 5.38694 76.1473 6.19074 76.6546C11.6614 80.1063 13.1593 86.8144 13.1593 90.3963C13.1593 91.5015 12.7201 92.5618 11.9385 93.3433C11.1568 94.1255 10.0966 94.5644 8.99118 94.5644H8.92606C7.8206 94.5644 6.7604 94.1255 5.97875 93.3433C5.1971 92.5618 4.75795 91.5015 4.75795 90.3963C4.75795 90.3312 4.56257 85.4467 1.50162 83.6883H-2.66648V83.3627C-2.66915 82.1557 -2.39452 80.9643 -1.8638 79.8803C-1.33308 78.7963 -0.560486 77.8487 0.394466 77.1105Z" fill="#EB3EEB"/>
<path d="M16.9365 94.5645C18.0481 94.5645 19.1151 94.1275 19.9071 93.3479C20.6992 92.5677 21.1527 91.5081 21.1698 90.3964C21.1698 86.7493 19.5416 79.7156 13.6151 76.329C12.6515 75.9096 11.5663 75.8636 10.5705 76.2C9.57489 76.5364 8.73997 77.2312 8.2282 78.1491C7.71644 79.0671 7.56443 80.1426 7.80169 81.1664C8.03901 82.1902 8.64866 83.0892 9.51211 83.6883C12.5731 85.4468 12.7033 90.3313 12.7033 90.3964C12.7367 91.5022 13.1955 92.5534 13.984 93.3297C14.7725 94.106 15.8301 94.5482 16.9365 94.5645Z" fill="#EB3EEB"/>
<path d="M24.9472 94.5646C26.0526 94.5646 27.1127 94.1257 27.8945 93.3435C28.6761 92.562 29.1153 91.5017 29.1153 90.3965C29.1153 86.7494 27.5522 79.7158 21.6257 76.3292C20.6486 75.7906 19.4984 75.6594 18.4252 75.9643C17.352 76.2693 16.4425 76.9855 15.8946 77.9573C15.6165 78.4352 15.4363 78.9635 15.3645 79.5117C15.2926 80.0599 15.3305 80.6168 15.476 81.1502C15.6214 81.6836 15.8716 82.1827 16.2118 82.6184C16.5519 83.0542 16.9755 83.4179 17.4576 83.6885C20.5185 85.4469 20.7139 90.3314 20.7139 90.3965C20.7311 91.5082 21.1845 92.5678 21.9766 93.3481C22.7686 94.1276 23.8356 94.5646 24.9472 94.5646Z" fill="#EB3EEB"/>
<path d="M13.1592 93.0665C12.7966 93.0665 12.4486 92.9226 12.1922 92.666C11.9357 92.4094 11.7916 92.0616 11.7916 91.6989V90.3963C11.7337 87.0944 10.7154 83.8809 8.86088 81.1484C8.75264 80.9963 8.67664 80.8237 8.63763 80.6412C8.59862 80.4586 8.59738 80.2701 8.63398 80.087C8.67058 79.904 8.74424 79.7304 8.85053 79.5769C8.95675 79.4234 9.09326 79.2933 9.25164 79.1946C9.55657 78.9868 9.92994 78.9048 10.2939 78.9654C10.6579 79.0261 10.9843 79.2248 11.2054 79.5202C13.3549 82.7453 14.5305 86.5211 14.592 90.3963V91.6989C14.5922 91.8838 14.5548 92.0675 14.482 92.2375C14.4093 92.4081 14.3027 92.5618 14.1687 92.6895C14.0347 92.8178 13.8762 92.9167 13.7027 92.9819C13.5291 93.0464 13.3443 93.0757 13.1592 93.0665Z" fill="#270813"/>
<path d="M21.17 93.0665C20.985 93.0757 20.8001 93.0464 20.6266 92.9819C20.4531 92.9167 20.2945 92.8178 20.1605 92.6895C20.0266 92.5618 19.92 92.4081 19.8472 92.2375C19.7744 92.0675 19.737 91.8838 19.7372 91.6989V90.3963C19.6768 87.1046 18.6831 83.8976 16.8716 81.1484C16.7603 81.0003 16.6803 80.8312 16.6363 80.6513C16.5923 80.4714 16.5853 80.2844 16.6158 80.1017C16.6462 79.919 16.7135 79.7444 16.8134 79.5885C16.9134 79.4325 17.044 79.2985 17.1973 79.1946C17.5022 78.9868 17.8756 78.9048 18.2395 78.9654C18.6035 79.0261 18.93 79.2248 19.1511 79.5202C21.3281 82.7322 22.5063 86.5163 22.5377 90.3963V91.6989C22.5377 92.0616 22.3936 92.4094 22.1371 92.666C21.8806 92.9226 21.5327 93.0665 21.17 93.0665Z" fill="#270813"/>
<path d="M75.2903 74.5707H81.6727C83.887 74.5707 85.7106 75.8732 85.7106 77.5014C85.7106 79.1296 83.887 80.367 81.6727 80.367H75.2903C73.076 80.367 71.2524 79.0644 71.2524 77.5014C71.2524 75.9384 73.076 74.5707 75.2903 74.5707Z" fill="white"/>
<path d="M82.4539 74.6358C82.8759 75.5325 83.098 76.5102 83.1052 77.5013C83.1065 78.4724 82.8831 79.4308 82.4539 80.3018H76.6576C76.2356 79.4051 76.0135 78.4273 76.0063 77.4362C76.0057 76.4234 76.2284 75.4228 76.6576 74.5055H82.4539V74.6358Z" fill="#270813"/>
<path d="M44.0947 74.5707H50.412C52.6914 74.5707 54.5149 75.8732 54.5149 77.5014C54.5149 79.1296 52.6914 80.367 50.412 80.367H44.0947C41.8152 80.367 39.9917 79.0644 39.9917 77.5014C39.9917 75.9384 41.8152 74.5707 44.0947 74.5707Z" fill="white"/>
<path d="M51.2585 74.6358C51.6805 75.5325 51.9026 76.5102 51.9098 77.5013C51.9111 78.4724 51.6877 79.4308 51.2585 80.3018H45.4622C44.9907 79.4204 44.7445 78.4359 44.7458 77.4362C44.7367 76.4148 44.9829 75.4073 45.4622 74.5055H51.2585V74.6358Z" fill="#270813"/>
<path d="M28.3989 39.1417C34.9767 33.7362 44.5503 30.1543 54.5147 30.1543C72.4245 30.1543 87.9898 41.2909 93.8512 55.9444C69.0379 55.9444 44.6155 55.3583 28.3989 39.1417Z" fill="#FFE75C"/>
<path d="M62.4707 31.0306L68.3946 32.5738C69.5779 32.882 70.7874 32.1726 71.0961 30.9891L71.0974 30.9828C71.4054 29.7994 70.6962 28.5901 69.5128 28.2818L63.5883 26.7387C62.4049 26.4304 61.1955 27.1399 60.8875 28.3234L60.8862 28.3297C60.5775 29.5131 61.2873 30.7224 62.4707 31.0306Z" fill="#270813"/>
<path d="M14.918 51.5157C14.7011 51.5082 14.4887 51.4516 14.2969 51.35C14.1051 51.2485 13.9389 51.1048 13.8108 50.9296L8.14479 43.7656C8.02665 43.6257 7.93789 43.4634 7.88364 43.2885C7.82938 43.1137 7.81083 42.9296 7.82906 42.7474C7.8473 42.5652 7.90187 42.3885 7.98973 42.2277C8.07752 42.0671 8.1967 41.9256 8.34017 41.8118C8.48547 41.6919 8.65304 41.6018 8.83318 41.5467C9.01339 41.4917 9.20265 41.4727 9.39015 41.4908C9.57771 41.5089 9.7598 41.5639 9.92607 41.6525C10.0923 41.7411 10.2395 41.8617 10.3591 42.0072L16.0251 49.2363C16.2475 49.5256 16.351 49.8888 16.3147 50.2519C16.2784 50.6149 16.105 50.9505 15.8297 51.1901C15.5679 51.3924 15.2487 51.5064 14.918 51.5157Z" fill="#270813"/>
<path d="M75.7458 50.1482C77.6879 50.1482 79.2627 48.5736 79.2627 46.6314C79.2627 44.6891 77.6879 43.1145 75.7458 43.1145C73.8038 43.1145 72.229 44.6891 72.229 46.6314C72.229 48.5736 73.8038 50.1482 75.7458 50.1482Z" fill="#00CD9D"/>
<path d="M84.7984 70.9887H84.4727C81.0803 70.2716 77.5752 70.2716 74.1827 70.9887C73.9991 71.0375 73.8069 71.0491 73.6187 71.023C73.4299 70.9968 73.2488 70.9334 73.0853 70.8364C72.9212 70.7394 72.7786 70.6108 72.6653 70.458C72.552 70.3053 72.4699 70.1314 72.4243 69.9467C72.3448 69.5844 72.4093 69.2057 72.6041 68.8899C72.7981 68.5741 73.1075 68.3459 73.4663 68.2534C77.3062 67.4074 81.2841 67.4074 85.124 68.2534C85.4451 68.3511 85.7212 68.5584 85.9055 68.8392C86.0892 69.1199 86.1686 69.4562 86.1296 69.7895C86.0911 70.1228 85.9368 70.4319 85.6932 70.6629C85.4496 70.8939 85.1331 71.0323 84.7984 71.0538V70.9887Z" fill="#270813"/>
<path d="M43.5735 70.9887C43.2518 70.9946 42.9379 70.8868 42.6878 70.6843C42.4378 70.4818 42.2671 70.1976 42.2059 69.8816C42.1241 69.5281 42.1793 69.1567 42.3607 68.8424C42.542 68.5282 42.8356 68.2944 43.1828 68.1883C47.0441 67.3411 51.0442 67.3411 54.9055 68.1883C55.2527 68.2944 55.5464 68.5282 55.7274 68.8424C55.9091 69.1567 55.9645 69.5281 55.8824 69.8816C55.8447 70.0638 55.7698 70.2363 55.663 70.3887C55.5555 70.541 55.4187 70.6699 55.2605 70.7674C55.1016 70.865 54.9251 70.9291 54.7408 70.956C54.5565 70.9829 54.3689 70.9718 54.1891 70.9236C50.7967 70.2065 47.2916 70.2065 43.8991 70.9236L43.5735 70.9887Z" fill="#270813"/>
<path d="M11.2052 58.1587C11.9965 58.1587 12.638 57.5172 12.638 56.7259C12.638 55.9346 11.9965 55.2931 11.2052 55.2931C10.414 55.2931 9.77246 55.9346 9.77246 56.7259C9.77246 57.5172 10.414 58.1587 11.2052 58.1587Z" fill="white"/>
<path d="M6.38593 53.4695H6.12543C5.94431 53.4384 5.77133 53.3711 5.61679 53.2717C5.46224 53.1722 5.32932 53.0426 5.22597 52.8906C5.12261 52.7387 5.05097 52.5675 5.01528 52.3871C4.97959 52.2069 4.98063 52.0213 5.01828 51.8414C5.60442 48.2594 7.88385 45.8497 11.5961 44.938C11.9496 44.8561 12.3209 44.9115 12.6352 45.0928C12.9495 45.2741 13.1833 45.5679 13.2894 45.9149C13.3381 46.0988 13.3498 46.2906 13.3236 46.479C13.2975 46.6675 13.2341 46.8488 13.1371 47.0126C13.0401 47.1762 12.9114 47.319 12.7586 47.4324C12.6059 47.5459 12.4321 47.6278 12.2473 47.6733C9.64227 48.3245 8.20948 49.7573 7.7536 52.2973C7.70631 52.6252 7.54154 52.9248 7.29002 53.1403C7.03851 53.356 6.71723 53.4729 6.38593 53.4695Z" fill="#270813"/>
<path d="M87.1429 56.0096H118.404C119.698 56.0096 120.748 54.9599 120.748 53.665V53.6064C120.748 52.3116 119.698 51.2619 118.404 51.2619H87.1429C85.8482 51.2619 84.7983 52.3116 84.7983 53.6064V53.665C84.7983 54.9599 85.8482 56.0096 87.1429 56.0096Z" fill="#66BCFF"/>
</g>
<defs>
<linearGradient id="paint0_linear_3899_2460" x1="76.0781" y1="97.1891" x2="63.17" y2="53.7691" gradientUnits="userSpaceOnUse">
<stop offset="0.06" stop-color="#B32FB3"/>
<stop offset="1" stop-color="#3D0A27"/>
</linearGradient>
<clipPath id="clip0_3899_2460">
<rect width="120" height="120" rx="60" fill="white"/>
</clipPath>
</defs>
</svg>
