<svg width="120" height="120" viewBox="0 0 120 120" fill="none" xmlns="http://www.w3.org/2000/svg">
<g clip-path="url(#clip0_3399_2551)">
<rect width="120" height="120" rx="60" fill="#5865F2"/>
<path d="M89.8926 85.8951C89.0275 86.0995 88.1212 86.044 87.2875 85.7352C86.4539 85.4263 85.73 84.8782 85.2068 84.1596C84.5152 83.1627 84.2373 81.9364 84.4315 80.7387C84.6257 79.5411 85.2769 78.4656 86.2481 77.7382C94.0578 72.0111 95.4462 67.6724 94.5784 66.4575C93.9047 65.4398 93.6548 64.1993 93.8816 63.0001C94.1086 61.8008 94.7943 60.7375 95.7933 60.0362C96.7839 59.3718 97.997 59.1268 99.1678 59.3543C100.339 59.582 101.372 60.2639 102.041 61.251C104.297 64.3749 107.768 73.0524 91.6281 85.0273C91.1498 85.4841 90.545 85.7864 89.8926 85.8951V85.8951Z" fill="#4086EA"/>
<path d="M103.95 67.4981C102.562 57.9528 92.3222 59.5148 78.2646 62.2916V62.8122C78.4582 63.3901 78.7669 63.9228 79.172 64.378C79.5772 64.8332 80.0703 65.2018 80.6216 65.4613C81.1732 65.7208 81.7714 65.8658 82.3804 65.8879C82.9894 65.9097 83.5966 65.808 84.1653 65.589C86.2479 64.8948 92.4957 63.5064 94.5783 66.4568C96.6609 69.4071 94.0577 72.0103 86.2479 77.7375C85.2768 78.4648 84.6256 79.5403 84.4314 80.738C84.2372 81.9356 84.515 83.1619 85.2066 84.1588C85.7297 84.8775 86.4536 85.4257 87.2873 85.7345C88.1209 86.0432 89.0273 86.0987 89.8925 85.8943C90.5448 85.7857 91.1495 85.4833 91.628 85.0266C101.347 77.911 103.95 71.8368 103.95 67.4981Z" fill="#0654B5"/>
<path d="M32.968 111.927C31.9115 112.167 30.8041 112.017 29.8482 111.507C28.8921 110.999 28.1515 110.16 27.7616 109.15C26.5811 106.057 26.624 102.63 27.8815 99.5665C29.1389 96.5036 31.5165 94.0348 34.53 92.6631L47.1991 86.7624C47.7461 86.5116 48.3371 86.3712 48.9384 86.3488C49.5398 86.3266 50.1396 86.4229 50.7036 86.6324C51.2676 86.8419 51.7848 87.1605 52.2258 87.5699C52.6666 87.9793 53.0227 88.4715 53.2734 89.0185C53.5241 89.5656 53.6645 90.1565 53.6869 90.7579C53.7091 91.359 53.6128 91.9588 53.4033 92.5229C53.1939 93.0869 52.8752 93.6042 52.4658 94.0451C52.0564 94.486 51.5642 94.842 51.0172 95.0928L38.3481 100.82C37.4281 101.239 36.7016 101.992 36.315 102.926C35.9285 103.86 35.9108 104.906 36.2655 105.853C36.6697 106.983 36.6249 108.224 36.1405 109.322C35.6562 110.421 34.7691 111.29 33.6622 111.754L32.968 111.927Z" fill="#4086EA"/>
<path d="M43.2076 93.8777C38.5218 95.7867 35.2243 99.0842 35.9185 104.638C35.9124 103.835 36.1386 103.047 36.5697 102.37C37.0008 101.692 37.6184 101.154 38.3482 100.82L48.2405 96.3074C47.0257 94.3984 45.2902 93.01 43.2076 93.8777V93.8777Z" fill="#0654B5"/>
<path d="M90.4134 78.6056C89.618 77.3103 88.4375 76.296 87.0371 75.7048C85.6368 75.1136 84.0866 74.9748 82.6036 75.3082L47.5466 83.8121C46.105 84.1828 44.8207 85.007 43.8834 86.1632C42.9458 87.3194 42.4049 88.7463 42.3402 90.2334L41.4724 109.324C41.3148 113.989 42.8566 118.553 45.8112 122.167C47.0909 123.656 48.754 124.766 50.6202 125.379C52.4862 125.99 54.4843 126.08 56.3977 125.638L94.0579 116.439C95.9439 115.966 97.666 114.989 99.0412 113.612C100.416 112.238 101.393 110.516 101.868 108.63C102.839 104.014 102.099 99.203 99.7851 95.0928L90.4134 78.6056Z" fill="#FF7259"/>
<path d="M45.8112 122.166C47.0909 123.655 48.7541 124.766 50.6202 125.379C52.4863 125.989 54.4843 126.08 56.3977 125.637L94.0579 116.439C95.9439 115.965 97.666 114.988 99.0412 113.612C100.416 112.237 101.393 110.516 101.868 108.629C102.599 105.161 102.358 101.557 101.173 98.2163L41.646 112.621C42.0762 116.141 43.5238 119.457 45.8112 122.166V122.166Z" fill="#ED4C4C"/>
<path d="M96.1409 107.589L50.3238 118.696C48.0448 119.336 45.626 119.275 43.3818 118.522C44.076 119.737 44.9438 120.952 45.8115 122.167C47.0913 123.656 48.7544 124.767 50.6206 125.379C52.4866 125.99 54.4847 126.08 56.398 125.638L94.0583 116.44C95.9443 115.966 97.6664 114.989 99.0416 113.613C100.417 112.238 101.394 110.516 101.868 108.63C102.063 107.191 102.179 105.743 102.215 104.291C100.552 105.955 98.4422 107.101 96.1409 107.589V107.589Z" fill="#ED4C4C"/>
<path d="M74.2683 11.1557L21.1385 26.0898C14.218 28.035 10.1848 35.2222 12.1301 42.1426L21.1468 74.2208C23.0922 81.1413 30.2792 85.1746 37.1996 83.2292L90.3294 68.2951C97.2499 66.35 101.283 59.1628 99.3378 52.2423L90.3211 20.1641C88.3758 13.2437 81.1887 9.21039 74.2683 11.1557V11.1557Z" fill="#FF7259"/>
<path d="M97.7022 46.6728L99.2642 52.2263C99.7395 53.8787 99.8829 55.6088 99.6859 57.3167C99.4889 59.0248 98.9555 60.6768 98.1163 62.1775C97.2772 63.6782 96.1491 64.9979 94.7972 66.0601C93.4452 67.1223 91.8963 67.9062 90.2396 68.3665L37.1335 83.2917C35.4926 83.765 33.7737 83.9062 32.0775 83.7072C30.3814 83.5081 28.7418 82.9727 27.255 82.1324C25.7682 81.2921 24.464 80.1636 23.4187 78.8131C22.3733 77.4625 21.6077 75.9171 21.1669 74.2671L19.605 68.7135C20.0458 70.3635 20.8113 71.9089 21.8568 73.2595C22.9021 74.6101 24.2063 75.7385 25.6931 76.5788C27.1799 77.4191 28.8194 77.9545 30.5155 78.1536C32.2118 78.3527 33.9306 78.2114 35.5715 77.7381L88.8512 62.8129C90.4921 62.3342 92.0228 61.5371 93.3557 60.467C94.6886 59.3969 95.7975 58.0746 96.6195 56.5758C97.4414 55.0772 97.96 53.4313 98.1458 51.7321C98.3315 50.0329 98.1809 48.3137 97.7022 46.6728V46.6728Z" fill="#ED4C4C"/>
<path d="M55.1205 68.7082L67.1499 65.3268C67.8588 65.1275 68.6179 65.2181 69.2602 65.5784C69.9024 65.9389 70.3753 66.5397 70.5745 67.2487L72.3121 73.4303L55.1034 78.2675L53.3659 72.0858C53.1731 71.4052 53.2473 70.6768 53.5734 70.0491C53.8995 69.4213 54.4528 68.9418 55.1205 68.7082Z" fill="#FFDC53"/>
<path d="M70.7023 67.8294L53.4937 72.6666L55.0528 78.2134L72.2615 73.3762L70.7023 67.8294Z" fill="#F9B300"/>
<path d="M98.0493 47.7141L91.6279 24.632C93.3716 25.2687 94.9403 26.308 96.2069 27.6649C97.4732 29.0219 98.4019 30.6585 98.917 32.4417L100.305 37.3011C100.816 39.0883 100.878 40.9741 100.484 42.7908C100.091 44.6074 99.2542 46.2986 98.0493 47.7141V47.7141Z" fill="#FFDC53"/>
<path d="M99.2642 33.4828L100.306 37.3009C100.816 39.0881 100.878 40.9739 100.484 42.7904C100.091 44.6072 99.2543 46.2984 98.0494 47.7139L95.9668 40.4248C98.57 38.3422 99.7849 35.739 99.2642 33.4828V33.4828Z" fill="#F9B300"/>
<path d="M19.7785 69.7549L13.3572 46.6728C12.1524 48.0882 11.3159 49.7795 10.9223 51.596C10.5287 53.4127 10.5901 55.2985 11.1011 57.0857L12.4895 61.9451C13.0047 63.7283 13.9332 65.3649 15.1998 66.7219C16.4663 68.0789 18.0351 69.1181 19.7785 69.7549Z" fill="#FFDC53"/>
<path d="M17.696 62.4657L19.7786 69.7548C18.035 69.118 16.4663 68.0788 15.1997 66.7218C13.9333 65.3648 13.0046 63.7283 12.4895 61.945L11.4482 58.127C11.9689 60.3831 14.3986 61.945 17.696 62.4657V62.4657Z" fill="#F9B300"/>
<path d="M37.1642 16.9684L57.8815 11.1451C58.4575 10.9832 59.0743 11.0568 59.5961 11.3496C60.1178 11.6423 60.502 12.1305 60.664 12.7065L61.2745 14.8785L36.2133 21.9229L35.6027 19.7509C35.4408 19.1749 35.5144 18.5581 35.8072 18.0362C36.0999 17.5144 36.5881 17.1303 37.1642 16.9684V16.9684Z" fill="#70A9FA"/>
<path d="M40.3712 15.9219L58.0811 10.9438C58.6129 10.7944 59.1821 10.8622 59.6639 11.1325C60.1455 11.4028 60.5 11.8534 60.6495 12.3851L61.307 14.7242L39.5873 20.8294L38.9297 18.4903C38.7803 17.9585 38.8482 17.3893 39.1186 16.9075C39.3888 16.4259 39.8395 16.0713 40.3712 15.9219Z" fill="#4086EA"/>
<path d="M74.9258 21.484L29.4813 34.2577C25.9751 35.2433 23.9316 38.8847 24.9172 42.3911L30.4353 62.0224C31.4209 65.5288 35.0623 67.5723 38.5687 66.5867L84.013 53.8128C87.5194 52.8272 89.5628 49.1858 88.5772 45.6794L83.0592 26.0481C82.0736 22.5418 78.432 20.4984 74.9258 21.484V21.484Z" fill="#ED4C4C"/>
<path d="M74.5635 20.241L29.1192 33.0149C25.6128 34.0005 23.5693 37.6419 24.5548 41.1483L30.073 60.7795C31.0586 64.2859 34.7 66.3295 38.2064 65.3437L83.6507 52.5699C87.1571 51.5844 89.2005 47.9429 88.2149 44.4366L82.6969 24.8053C81.7113 21.2989 78.0699 19.2554 74.5635 20.241V20.241Z" fill="black"/>
<path d="M43.5868 41.8171L34.0635 44.4939C33.5099 44.6496 33.181 45.2021 33.3289 45.728C33.4765 46.254 34.0453 46.5543 34.5989 46.3986L44.1222 43.7218C44.6759 43.5661 45.0047 43.0135 44.8569 42.4877C44.709 41.9616 44.1405 41.6614 43.5868 41.8171V41.8171Z" fill="#FFF0A6"/>
<path d="M67.0268 37.1996L77.2183 34.3348C77.7719 34.1791 78.1008 33.6267 77.9531 33.1007C77.8053 32.5748 77.2365 32.2746 76.6829 32.4301L66.4914 35.2949C65.9378 35.4505 65.6087 36.003 65.7566 36.529C65.9044 37.055 66.4732 37.3551 67.0268 37.1996Z" fill="#FFF0A6"/>
<path d="M73.9255 77.3906L56.397 81.7294L56.9176 94.3985C56.9376 94.689 57.0185 94.9721 57.1547 95.2293C57.2909 95.4866 57.4796 95.7126 57.7085 95.8926C57.9376 96.0724 58.2017 96.2022 58.4839 96.2737C58.7661 96.3452 59.0603 96.3568 59.3473 96.3075L77.9171 91.7952C78.2017 91.7251 78.4662 91.5906 78.6905 91.4018C78.9147 91.213 79.0924 90.9752 79.2099 90.7067C79.3274 90.4383 79.3813 90.1462 79.3678 89.8534C79.3543 89.5608 79.2736 89.2749 79.132 89.0184L73.9255 77.3906Z" fill="#FFDC53"/>
<path d="M54.6621 48.7549C55.8967 46.6976 57.7645 45.0956 59.9858 44.1883C62.2068 43.281 64.6622 43.1175 66.9841 43.7219" stroke="#FFF0A6" stroke-width="0.264307" stroke-linecap="round" stroke-linejoin="round"/>
<path d="M47.8936 118.869C47.4033 118.939 46.9056 118.814 46.5052 118.522L42.34 114.183C42.1772 113.918 42.1086 113.604 42.1454 113.295C42.1821 112.986 42.3219 112.698 42.5423 112.478C42.7629 112.257 43.051 112.117 43.3606 112.08C43.6702 112.044 43.9832 112.111 44.249 112.274L48.5878 116.613C48.832 116.872 48.968 117.212 48.968 117.568C48.968 117.923 48.832 118.264 48.5878 118.522L47.8936 118.869Z" fill="#22262E"/>
<path d="M44.0753 120.605H43.9018C43.5158 120.606 43.1427 120.466 42.8544 120.211C42.566 119.954 42.3827 119.6 42.3398 119.216L41.9927 113.316C41.9899 112.975 42.1121 112.646 42.3362 112.39C42.5601 112.134 42.87 111.969 43.2076 111.927C43.39 111.903 43.5757 111.915 43.7534 111.964C43.9311 112.012 44.0975 112.094 44.2428 112.208C44.3882 112.321 44.5097 112.462 44.6 112.621C44.6904 112.783 44.748 112.96 44.7695 113.142L45.1166 119.043C45.1357 119.381 45.0446 119.716 44.8566 119.997C44.6689 120.28 44.3946 120.492 44.0753 120.605Z" fill="#22262E"/>
<path d="M42.5136 117.481H38.6955C36.2895 117.213 34.0014 116.297 32.0757 114.829C30.1498 113.362 28.6588 111.399 27.7619 109.15C27.5387 108.592 27.4292 107.996 27.4396 107.395C27.4502 106.795 27.5804 106.202 27.823 105.652C28.0655 105.103 28.4152 104.607 28.8516 104.195C29.2883 103.782 29.8029 103.461 30.3652 103.25C31.495 102.846 32.7369 102.89 33.8346 103.374C34.9325 103.859 35.8026 104.746 36.2659 105.853C36.5192 106.55 36.962 107.163 37.5444 107.623C38.1268 108.083 38.8261 108.371 39.5633 108.456H41.8194C42.4126 108.5 42.9912 108.661 43.5221 108.928C44.053 109.197 44.5256 109.568 44.9126 110.02C45.2998 110.471 45.5938 110.995 45.7778 111.561C45.9617 112.127 46.032 112.722 45.9846 113.315C45.9652 114.301 45.6108 115.25 44.9799 116.007C44.3491 116.764 43.4793 117.284 42.5136 117.481Z" fill="#4086EA"/>
<path d="M78.0909 66.8042C77.8044 66.8765 77.5023 66.8555 77.2286 66.7443C76.9547 66.633 76.7237 66.4373 76.5687 66.1856C76.4139 65.934 76.3433 65.6395 76.3674 65.3449C76.3915 65.0504 76.5089 64.7712 76.7025 64.548L80.8677 60.5564C80.9774 60.3773 81.1261 60.2254 81.303 60.1123C81.4798 59.9989 81.6799 59.9273 81.8884 59.9026C82.0968 59.8778 82.3082 59.9007 82.5066 59.9694C82.7049 60.0383 82.8852 60.1511 83.0336 60.2995C83.182 60.4481 83.295 60.6282 83.3637 60.8266C83.4324 61.025 83.4554 61.2363 83.4305 61.4448C83.4059 61.6532 83.3342 61.8535 83.2209 62.0302C83.1077 62.207 82.9559 62.3557 82.7768 62.4654L78.6116 66.457L78.0909 66.8042Z" fill="#22262E"/>
<path d="M82.2566 62.8124H81.2153L76.0088 60.3827C75.8481 60.2927 75.7072 60.1715 75.5939 60.0263C75.4805 59.8812 75.3972 59.7149 75.3486 59.5372C75.3002 59.3597 75.2877 59.174 75.3115 58.9914C75.3355 58.8088 75.3955 58.6328 75.4882 58.4737C75.5607 58.3187 75.665 58.1809 75.7945 58.0691C75.924 57.9574 76.0756 57.8741 76.2393 57.825C76.4031 57.7758 76.5756 57.7618 76.7452 57.784C76.9148 57.806 77.0779 57.8637 77.2237 57.953L82.4302 60.3827C82.6054 60.4572 82.7637 60.5669 82.8949 60.7052C83.026 60.8435 83.1273 61.0072 83.1924 61.1863C83.2575 61.3654 83.2851 61.5559 83.2734 61.7461C83.2616 61.9363 83.211 62.122 83.1244 62.2918C82.8932 62.5478 82.5912 62.7289 82.2566 62.8124V62.8124Z" fill="#22262E"/>
<path d="M82.2564 62.8125H76.1822C76.0086 62.8375 75.8318 62.8248 75.6638 62.775C75.4958 62.7253 75.3405 62.6398 75.2086 62.5244C75.0767 62.409 74.9713 62.2663 74.8997 62.1065C74.828 61.9465 74.7919 61.7729 74.7938 61.5976C74.7686 61.4241 74.7815 61.2474 74.8311 61.0792C74.8809 60.9112 74.9665 60.7559 75.0819 60.624C75.1973 60.4921 75.3398 60.3868 75.4998 60.3151C75.6598 60.2436 75.8334 60.2075 76.0086 60.2092H81.7358C81.9182 60.1849 82.1039 60.1972 82.2816 60.2453C82.4593 60.2936 82.6258 60.3765 82.771 60.4895C82.9164 60.6027 83.0379 60.7434 83.1282 60.9039C83.2186 61.0643 83.2762 61.2412 83.2977 61.4241C83.2809 61.7325 83.173 62.0291 82.9876 62.2762C82.8023 62.5233 82.5478 62.7099 82.2564 62.8125V62.8125Z" fill="#22262E"/>
<path d="M99.4377 68.1924C98.5474 68.4347 97.6043 68.3981 96.7355 68.0878C95.8666 67.7775 95.1137 67.2082 94.5783 66.4569C92.4957 63.5066 86.2479 64.895 84.1653 65.5892C83.5966 65.8082 82.9895 65.9099 82.3805 65.8879C81.7714 65.866 81.1732 65.7209 80.6218 65.4615C80.0704 65.2018 79.5772 64.8334 79.1721 64.3782C78.7671 63.9228 78.4583 63.3902 78.2646 62.8124C77.9214 61.6835 78.0168 60.4667 78.5316 59.4051C79.0463 58.3433 79.9425 57.515 81.0414 57.0853C86.4215 55.1762 96.8344 53.7878 102.041 61.2505C102.402 61.722 102.662 62.2626 102.805 62.8388C102.949 63.415 102.972 64.0144 102.875 64.6001C102.777 65.1857 102.56 65.7452 102.238 66.2437C101.915 66.7421 101.494 67.1692 101 67.4983C100.554 67.8703 100.013 68.1107 99.4377 68.1924V68.1924Z" fill="#4086EA"/>
<path d="M27.0674 106.894C27.1948 107.674 27.4284 108.433 27.7614 109.15C28.6585 111.399 30.1494 113.362 32.0752 114.829C34.0009 116.297 36.2889 117.213 38.6952 117.48H42.5131C43.4508 117.291 44.2996 116.797 44.9274 116.075C45.5551 115.353 45.9267 114.443 45.9841 113.489C35.224 115.224 28.1087 110.191 27.0674 106.894V106.894Z" fill="#0654B5"/>
<path d="M102.909 64.0275C99.6112 58.4739 90.2396 59.8623 78.2646 62.292V62.8127C78.4582 63.3906 78.7669 63.9232 79.172 64.3784C79.5772 64.8337 80.0703 65.2023 80.6216 65.4617C81.1732 65.7212 81.7714 65.8663 82.3804 65.8883C82.9894 65.9102 83.5966 65.8085 84.1653 65.5895C86.2479 64.8953 92.4957 63.5069 94.5783 66.4572L98.2228 72.0108L103.256 66.9779L102.909 64.0275Z" fill="#0654B5"/>
<path d="M26.894 104.291V105.506C28.1873 104.453 29.796 103.865 31.4631 103.833C33.1304 103.802 34.76 104.33 36.0922 105.332V104.638C34.9068 103.393 33.2819 102.659 31.5636 102.594C29.8454 102.53 28.1698 103.138 26.894 104.291V104.291Z" fill="black"/>
<path d="M37.6549 91.1013L36.7871 91.622C38.1396 92.5331 39.1804 93.8363 39.7699 95.3566C40.3594 96.8769 40.4693 98.5412 40.0847 100.126L40.9525 99.6053C41.6467 95.2665 40.2581 92.4897 37.6549 91.1013V91.1013Z" fill="black"/>
<path d="M37.3069 107.415C36.3838 107.321 35.4523 107.475 34.6089 107.862C33.7654 108.249 33.0407 108.855 32.5098 109.615C31.9789 110.377 31.661 111.266 31.5889 112.191C31.5169 113.116 31.6936 114.043 32.1004 114.877L33.3152 115.745C32.1004 111.233 33.4888 108.977 37.654 107.762L37.3069 107.415Z" fill="black"/>
<path d="M29.4977 96.6553L28.8037 97.5231C32.4483 95.0934 36.6134 99.6057 36.9605 101.862L37.4812 101.341C37.4309 100.426 37.1551 99.5375 36.678 98.7547C36.2009 97.972 35.5376 97.3197 34.7471 96.8556C33.9566 96.3917 33.0635 96.1305 32.1477 96.0956C31.2317 96.0606 30.3214 96.2529 29.4977 96.6553Z" fill="black"/>
<path d="M96.6615 80.862C95.2731 74.7877 92.4963 74.2671 90.5873 74.0935L89.8931 74.7877C94.926 75.829 95.9673 81.5562 95.9673 81.5562L96.6615 80.862Z" fill="black"/>
<path d="M94.2319 69.2341L93.8848 70.2754C98.5706 70.1019 101 71.8373 101.868 74.6141L102.562 73.2257C99.959 69.4076 97.3558 68.3664 94.2319 69.2341Z" fill="black"/>
<path d="M87.1164 55.6974H85.728C85.0338 58.3006 85.3808 62.4658 87.8105 64.5484H88.6783C87.0105 61.9197 86.4492 58.7383 87.1164 55.6974Z" fill="black"/>
<path d="M93.0171 65.2425C94.4818 62.5206 95.5346 59.5961 96.141 56.565L97.3558 57.0857C96.865 60.1742 95.7425 63.1282 94.0584 65.7632L93.0171 65.2425Z" fill="black"/>
</g>
<defs>
<clipPath id="clip0_3399_2551">
<rect width="120" height="120" rx="60" fill="white"/>
</clipPath>
</defs>
</svg>
