<svg width="22" height="19" viewBox="0 0 22 19" fill="none" xmlns="http://www.w3.org/2000/svg">
<path d="M19 18.033C19 18.2895 18.8946 18.5354 18.7071 18.7168C18.5196 18.8981 18.2652 19 18 19H4C3.73478 19 3.48043 18.8981 3.29289 18.7168C3.10536 18.5354 3 18.2895 3 18.033V9.32998H0L10.327 0.251766C10.5111 0.0897719 10.7511 0 11 0C11.2489 0 11.4889 0.0897719 11.673 0.251766L22 9.32998H19V18.033ZM11 13.198C11.663 13.198 12.2989 12.9433 12.7678 12.4899C13.2366 12.0365 13.5 11.4216 13.5 10.7805C13.5 10.1393 13.2366 9.52442 12.7678 9.07105C12.2989 8.61768 11.663 8.36298 11 8.36298C10.337 8.36298 9.70107 8.61768 9.23223 9.07105C8.76339 9.52442 8.5 10.1393 8.5 10.7805C8.5 11.4216 8.76339 12.0365 9.23223 12.4899C9.70107 12.9433 10.337 13.198 11 13.198Z" fill="white"/>
</svg>
