<svg width="16" height="16" viewBox="0 0 16 16" fill="none" xmlns="http://www.w3.org/2000/svg">
<path d="M11.333 3.99967H14.6663V5.33301H13.333V13.9997C13.333 14.1765 13.2628 14.3461 13.1377 14.4711C13.0127 14.5961 12.8432 14.6663 12.6663 14.6663H3.33301C3.1562 14.6663 2.98663 14.5961 2.8616 14.4711C2.73658 14.3461 2.66634 14.1765 2.66634 13.9997V5.33301H1.33301V3.99967H4.66634V1.99967C4.66634 1.82286 4.73658 1.65329 4.8616 1.52827C4.98663 1.40325 5.1562 1.33301 5.33301 1.33301H10.6663C10.8432 1.33301 11.0127 1.40325 11.1377 1.52827C11.2628 1.65329 11.333 1.82286 11.333 1.99967V3.99967ZM11.9997 5.33301H3.99967V13.333H11.9997V5.33301ZM8.94234 9.33301L10.121 10.5117L9.17834 11.4543L7.99967 10.2757L6.82101 11.4543L5.87834 10.5117L7.05701 9.33301L5.87834 8.15434L6.82101 7.21167L7.99967 8.39034L9.17834 7.21167L10.121 8.15434L8.94234 9.33301ZM5.99967 2.66634V3.99967H9.99967V2.66634H5.99967Z" fill="#ED4245"/>
</svg>
