<svg width="22" height="22" viewBox="0 0 22 22" fill="none" xmlns="http://www.w3.org/2000/svg">
<path d="M2.44444 15.0526V22H0V0H11.4669C11.6938 0.000114804 11.9162 0.0600752 12.1092 0.173166C12.3022 0.286257 12.4581 0.448012 12.5596 0.640316L13.4444 2.31579H20.7778C21.1019 2.31579 21.4128 2.43778 21.642 2.65493C21.8712 2.87208 22 3.16659 22 3.47368V16.2105C22 16.5176 21.8712 16.8121 21.642 17.0293C21.4128 17.2464 21.1019 17.3684 20.7778 17.3684H12.9776C12.7506 17.3683 12.5282 17.3083 12.3352 17.1953C12.1423 17.0822 11.9863 16.9204 11.8849 16.7281L11 15.0526H2.44444ZM2.44444 2.31579V12.7368H12.5107L13.7329 15.0526H19.5556V4.63158H11.9338L10.7116 2.31579H2.44444Z" fill="white"/>
</svg>
