<svg width="22" height="22" viewBox="0 0 22 22" fill="none" xmlns="http://www.w3.org/2000/svg">
<path d="M1 7.99401C0.999474 7.20621 1.15435 6.42605 1.45577 5.69819C1.75718 4.97034 2.19921 4.30909 2.75655 3.75231C3.31388 3.19553 3.97558 2.75416 4.70373 2.45348C5.43189 2.15279 6.21221 1.99869 7 2.00001H15C18.313 2.00001 21 4.69501 21 7.99401V20H7C3.687 20 1 17.305 1 14.006V7.99401ZM19 18V7.99401C18.9974 6.93451 18.5749 5.91925 17.8251 5.17063C17.0754 4.42201 16.0595 4.00106 15 4.00001H7C6.47485 3.99869 5.9546 4.10106 5.4691 4.30123C4.98359 4.50141 4.54238 4.79546 4.17076 5.16652C3.79914 5.53758 3.50443 5.97835 3.30353 6.46356C3.10262 6.94876 2.99947 7.46886 3 7.99401V14.006C3.00265 15.0655 3.42511 16.0808 4.17486 16.8294C4.9246 17.578 5.9405 17.999 7 18H19ZM13 10H15V12H13V10ZM7 10H9V12H7V10Z" fill="white"/>
<path d="M1 7.99401C0.999474 7.20621 1.15435 6.42605 1.45577 5.69819C1.75718 4.97034 2.19921 4.30909 2.75655 3.75231C3.31388 3.19553 3.97558 2.75416 4.70373 2.45348C5.43189 2.15279 6.21221 1.99869 7 2.00001H15C18.313 2.00001 21 4.69501 21 7.99401V20H7C3.687 20 1 17.305 1 14.006V7.99401ZM13 10V12H15V10H13ZM7 10V12H9V10H7Z" fill="#8080FF"/>
</svg>
