<svg width="32" height="32" viewBox="0 0 32 32" fill="none" xmlns="http://www.w3.org/2000/svg">
<path d="M5 27C5 24.7772 5.88371 22.6455 7.45671 21.0738C9.02972 19.502 11.1632 18.619 13.3877 18.619C15.6123 18.619 17.7458 19.502 19.3188 21.0738C20.8918 22.6455 21.7755 24.7772 21.7755 27H5ZM13.3877 17.5714C9.91207 17.5714 7.09694 14.7586 7.09694 11.2857C7.09694 7.81286 9.91207 5 13.3877 5C16.8634 5 19.6786 7.81286 19.6786 11.2857C19.6786 14.7586 16.8634 17.5714 13.3877 17.5714ZM21.1076 19.9108C22.7114 20.3226 24.1443 21.2295 25.2022 22.5024C26.2602 23.7752 26.8893 25.3491 27 27H23.8724C23.8724 24.2657 22.824 21.7766 21.1076 19.9108ZM18.9866 17.5264C19.8652 16.7412 20.5678 15.7793 21.0484 14.7038C21.5291 13.6284 21.7768 12.4635 21.7755 11.2857C21.7777 9.85411 21.4112 8.44601 20.7113 7.19686C21.8988 7.43528 22.9671 8.07725 23.7345 9.01363C24.5019 9.95002 24.9211 11.123 24.9209 12.3333C24.9212 13.0797 24.7618 13.8176 24.4534 14.4974C24.145 15.1772 23.6947 15.7833 23.1328 16.275C22.5708 16.7668 21.9102 17.1329 21.1951 17.3487C20.48 17.5645 19.727 17.6251 18.9866 17.5264Z" fill="#8080FF"/>
</svg>
