<svg width="32" height="32" viewBox="0 0 32 32" fill="none" xmlns="http://www.w3.org/2000/svg">
<path d="M5 27C5 24.7772 5.88299 22.6455 7.45472 21.0738C9.02646 19.502 11.1582 18.619 13.381 18.619C15.6037 18.619 17.7354 19.502 19.3072 21.0738C20.8789 22.6455 21.7619 24.7772 21.7619 27H19.6667C19.6667 25.3329 19.0044 23.7341 17.8256 22.5553C16.6468 21.3765 15.048 20.7143 13.381 20.7143C11.7139 20.7143 10.1151 21.3765 8.93628 22.5553C7.75748 23.7341 7.09524 25.3329 7.09524 27H5ZM13.381 17.5714C9.9081 17.5714 7.09524 14.7586 7.09524 11.2857C7.09524 7.81286 9.9081 5 13.381 5C16.8538 5 19.6667 7.81286 19.6667 11.2857C19.6667 14.7586 16.8538 17.5714 13.381 17.5714ZM13.381 15.4762C15.6962 15.4762 17.5714 13.601 17.5714 11.2857C17.5714 8.97048 15.6962 7.09524 13.381 7.09524C11.0657 7.09524 9.19048 8.97048 9.19048 11.2857C9.19048 13.601 11.0657 15.4762 13.381 15.4762ZM22.0594 19.3555C23.5317 20.0186 24.7811 21.0927 25.6576 22.4488C26.534 23.805 27.0002 25.3853 27 27H24.9048C24.905 25.7889 24.5554 24.6036 23.8981 23.5864C23.2407 22.5693 22.3036 21.7636 21.1993 21.2664L22.0584 19.3555H22.0594ZM21.3387 7.5279C22.3942 7.96298 23.2966 8.7018 23.9315 9.65062C24.5665 10.5994 24.9052 11.7155 24.9048 12.8571C24.9052 14.2948 24.3681 15.6807 23.3989 16.7426C22.4296 17.8044 21.0984 18.4655 19.6667 18.596V16.4871C20.4429 16.376 21.163 16.0189 21.7214 15.4683C22.2797 14.9177 22.6468 14.2026 22.7688 13.428C22.8908 12.6534 22.7613 11.8601 22.3993 11.1646C22.0372 10.469 21.4617 9.90783 20.7572 9.56343L21.3387 7.5279Z" fill="white"/>
</svg>
