<svg width="16" height="16" viewBox="0 0 16 16" fill="none" xmlns="http://www.w3.org/2000/svg">
<path d="M11.7713 9.88542L10.8287 8.94275L11.7713 8.00008C12.019 7.75245 12.2154 7.45848 12.3494 7.13493C12.4834 6.81139 12.5524 6.46462 12.5524 6.11442C12.5524 5.76422 12.4834 5.41744 12.3494 5.0939C12.2154 4.77036 12.019 4.47638 11.7713 4.22875C11.5237 3.98112 11.2297 3.78469 10.9062 3.65068C10.5826 3.51666 10.2359 3.44768 9.88568 3.44768C9.53547 3.44768 9.1887 3.51666 8.86516 3.65068C8.54162 3.78469 8.24764 3.98112 8.00001 4.22875L7.05734 5.17142L6.11468 4.22875L7.05734 3.28608C7.80955 2.54603 8.82372 2.13319 9.87893 2.13748C10.9341 2.14178 11.9449 2.56287 12.6911 3.30902C13.4372 4.05518 13.8583 5.06595 13.8626 6.12116C13.8669 7.17638 13.4541 8.19054 12.714 8.94275L11.7713 9.88542ZM9.88534 11.7714L8.94268 12.7141C8.57236 13.0905 8.13118 13.3898 7.64459 13.5949C7.15799 13.7999 6.63562 13.9066 6.1076 13.9088C5.57957 13.9109 5.05635 13.8085 4.5681 13.6074C4.07986 13.4063 3.63625 13.1106 3.26288 12.7372C2.88951 12.3638 2.59376 11.9202 2.39268 11.432C2.19161 10.9437 2.08919 10.4205 2.09134 9.8925C2.09349 9.36447 2.20017 8.8421 2.40521 8.35551C2.61025 7.86892 2.90961 7.42774 3.28601 7.05742L4.22868 6.11475L5.17134 7.05742L4.22868 8.00008C3.98105 8.24771 3.78462 8.54169 3.6506 8.86523C3.51658 9.18878 3.44761 9.53555 3.44761 9.88575C3.44761 10.236 3.51658 10.5827 3.6506 10.9063C3.78462 11.2298 3.98105 11.5238 4.22868 11.7714C4.47631 12.019 4.77028 12.2155 5.09383 12.3495C5.41737 12.4835 5.76414 12.5525 6.11434 12.5525C6.46454 12.5525 6.81131 12.4835 7.13486 12.3495C7.4584 12.2155 7.75238 12.019 8.00001 11.7714L8.94268 10.8287L9.88534 11.7714ZM9.88534 5.17142L10.8287 6.11475L6.11468 10.8281L5.17134 9.88542L9.88534 5.17208V5.17142Z" fill="#72767D"/>
</svg>
