<svg width="32" height="32" viewBox="0 0 32 32" fill="none" xmlns="http://www.w3.org/2000/svg">
<path d="M27 24.2558H5V22.1163H6.1V14.6611C6.1 9.32507 10.533 5 16 5C21.467 5 25.9 9.32507 25.9 14.6611V22.1163H27V24.2558ZM8.3 22.1163H23.7V14.6611C23.7 10.5072 20.2526 7.13953 16 7.13953C11.7474 7.13953 8.3 10.5072 8.3 14.6611V22.1163ZM13.25 25.3256H18.75C18.75 26.0349 18.4603 26.7151 17.9445 27.2167C17.4288 27.7182 16.7293 28 16 28C15.2707 28 14.5712 27.7182 14.0555 27.2167C13.5397 26.7151 13.25 26.0349 13.25 25.3256Z" fill="white"/>
</svg>
