<svg width="101" height="101" viewBox="0 0 101 101" fill="none" xmlns="http://www.w3.org/2000/svg">
<g clip-path="url(#clip0_102_13)">
<rect width="101" height="100.839" rx="50.4195" fill="#8080FF"/>
<path d="M84.4294 30.4351C80.1778 25.0162 78.3686 25.9193 75.2025 25.9193C75.2025 20.5907 72.6696 20.1392 71.4937 24.5646C70.3177 28.9901 69.594 31.0673 72.4887 35.3121C75.3834 39.5569 79.2732 45.7886 80.9919 53.1945C76.8852 54.3088 72.8393 55.6352 68.8704 57.1684L75.9262 73.5154C87.6859 68.2771 94.5608 63.7614 95.2845 54.3686C96.0082 44.9759 88.7714 35.9443 84.4294 30.4351V30.4351Z" fill="#FFC619"/>
<path d="M83.796 99.7069C70.5889 101.784 46.6172 103.861 15.8609 104.223C15.0468 96.6361 17.3987 90.0432 26.7161 82.818C30.7868 79.6569 30.4249 77.3087 30.0631 75.2315C28.8871 67.7353 25.9924 60.2391 21.6503 50.5754C15.0468 35.6734 14.2326 23.3905 25.1783 16.7072C36.1239 10.0239 48.6977 13.8171 57.1105 26.1903C65.5232 38.5635 84.0674 65.7483 83.796 99.7069Z" fill="#FFC619"/>
<path d="M46.8884 32.8739C55.0298 40.5506 58.1054 39.6475 59.9146 39.1959C61.7238 38.7443 60.186 34.1383 59.1909 32.061L46.8884 32.8739Z" fill="#FFAE00"/>
<path d="M33.591 43.621C34.2242 47.324 32.9577 50.3947 31.0581 50.8462C29.1584 51.2978 27.3493 49.4012 26.2637 46.5111C25.1782 43.621 25.5401 38.9247 27.5302 37.6603C29.5203 36.3958 32.7768 39.1053 33.591 43.621Z" fill="white"/>
<path d="M46.8886 32.8737C44.6271 30.0739 45.8935 24.9259 48.6978 20.2295C51.502 15.5331 55.3918 13.9075 58.6483 13.9075C61.9048 13.9075 62.8999 17.1588 59.1006 26.1904C63.895 25.3775 66.066 25.4678 66.5183 28.087C66.9706 30.7061 63.8045 32.6027 56.6582 33.7768C49.5119 34.9509 48.155 34.409 46.8886 32.8737Z" fill="#ED5F00"/>
<path d="M75.0213 25.3776C76.2877 21.9457 77.735 21.5844 78.4587 21.9457C79.1824 22.3069 79.0015 23.9326 78.2778 27.1839C77.5541 30.4353 73.8453 28.5387 75.0213 25.3776Z" fill="#FFC619"/>
<path d="M77.6449 25.9194C80.4491 23.5712 81.8965 23.8421 82.3488 24.5646C82.8011 25.2872 81.8965 26.5516 79.7255 29.0804C77.5544 31.6092 75.112 28.0869 77.6449 25.9194Z" fill="#FFC619"/>
<path d="M30.6548 43.4331C31.5115 43.0251 31.7004 41.6359 31.0767 40.3303C30.453 39.0247 29.2528 38.2971 28.396 38.7051C27.5393 39.1131 27.3503 40.5022 27.9741 41.8078C28.5978 43.1134 29.798 43.8411 30.6548 43.4331Z" fill="black"/>
<path d="M49.7832 29.8031C49.6873 29.8031 49.5952 29.765 49.5274 29.6972C49.4595 29.6295 49.4214 29.5376 49.4214 29.4418C49.7035 27.0546 50.5398 24.7661 51.8638 22.7585C54.1253 19.3265 55.844 18.1524 57.3818 17.7912C58.9196 17.4299 60.1861 17.7912 60.1861 19.1459C59.8849 21.785 59.215 24.3691 58.1959 26.8227C59.8893 26.4594 61.6213 26.3077 63.3521 26.3711C64.3472 26.4614 64.3472 26.913 63.6235 27.2743C62.8998 27.6355 59.1005 29.0806 49.7832 29.8031V29.8031Z" fill="black"/>
<path d="M42.0944 84.1729C43.0894 92.9335 35.7622 103.771 35.7622 103.771" stroke="black" stroke-miterlimit="10" stroke-linecap="round"/>
<path d="M80.9917 53.1944L85.1529 54.6394" stroke="black" stroke-miterlimit="10" stroke-linecap="round"/>
</g>
<defs>
<clipPath id="clip0_102_13">
<rect width="101" height="100.839" rx="50.4195" fill="white"/>
</clipPath>
</defs>
</svg>
