<svg width="16" height="16" viewBox="0 0 16 16" fill="none" xmlns="http://www.w3.org/2000/svg">
<path d="M1.33337 8.00004C1.33337 7.42337 1.40671 6.86471 1.54404 6.33071C1.91235 6.35007 2.27884 6.26721 2.603 6.09129C2.92716 5.91536 3.19636 5.65323 3.38084 5.33387C3.56533 5.01451 3.65791 4.65035 3.64836 4.28166C3.6388 3.91296 3.52748 3.55409 3.32671 3.24471C4.13267 2.45175 5.12724 1.87704 6.21671 1.57471C6.38403 1.90369 6.63913 2.17995 6.95376 2.37291C7.26839 2.56588 7.63028 2.66801 7.99937 2.66801C8.36846 2.66801 8.73035 2.56588 9.04499 2.37291C9.35962 2.17995 9.61471 1.90369 9.78204 1.57471C10.8715 1.87704 11.8661 2.45175 12.672 3.24471C12.471 3.55414 12.3596 3.91315 12.3499 4.28202C12.3403 4.65088 12.4329 5.01522 12.6175 5.33472C12.8021 5.65421 13.0715 5.91642 13.3958 6.09232C13.7202 6.26822 14.0869 6.35095 14.4554 6.33137C14.5927 6.86471 14.666 7.42337 14.666 8.00004C14.666 8.57671 14.5927 9.13537 14.4554 9.66937C14.087 9.64988 13.7204 9.73265 13.3962 9.90852C13.0719 10.0844 12.8026 10.3465 12.618 10.6659C12.4335 10.9853 12.3408 11.3495 12.3504 11.7182C12.3599 12.087 12.4712 12.4459 12.672 12.7554C11.8661 13.5483 10.8715 14.123 9.78204 14.4254C9.61471 14.0964 9.35962 13.8201 9.04499 13.6272C8.73035 13.4342 8.36846 13.3321 7.99937 13.3321C7.63028 13.3321 7.26839 13.4342 6.95376 13.6272C6.63913 13.8201 6.38403 14.0964 6.21671 14.4254C5.12724 14.123 4.13267 13.5483 3.32671 12.7554C3.52771 12.4459 3.63919 12.0869 3.64882 11.7181C3.65845 11.3492 3.56584 10.9849 3.38125 10.6654C3.19666 10.3459 2.92728 10.0837 2.60291 9.90776C2.27855 9.73186 1.91184 9.64913 1.54337 9.66871C1.40671 9.13604 1.33337 8.57737 1.33337 8.00004ZM4.53604 10C4.95604 10.7274 5.07604 11.564 4.91204 12.3494C5.18404 12.5427 5.47337 12.71 5.77671 12.8494C6.38782 12.3019 7.17958 11.9995 8.00004 12C8.84004 12 9.62537 12.314 10.2234 12.8494C10.5267 12.71 10.816 12.5427 11.088 12.3494C10.9197 11.5467 11.0536 10.7101 11.464 10C11.8738 9.28962 12.5314 8.75548 13.3107 8.50004C13.3415 8.16742 13.3415 7.83266 13.3107 7.50004C12.5311 7.24475 11.8733 6.71059 11.4634 6.00004C11.0529 5.28999 10.919 4.4534 11.0874 3.65071C10.8155 3.45732 10.526 3.28992 10.2227 3.15071C9.61177 3.698 8.82027 4.00045 8.00004 4.00004C7.17958 4.00061 6.38782 3.69815 5.77671 3.15071C5.47346 3.28992 5.18397 3.45733 4.91204 3.65071C5.08042 4.4534 4.94652 5.28999 4.53604 6.00004C4.12629 6.71046 3.4687 7.2446 2.68937 7.50004C2.65854 7.83266 2.65854 8.16742 2.68937 8.50004C3.46894 8.75533 4.12679 9.2895 4.53671 10H4.53604ZM8.00004 10C7.46961 10 6.9609 9.78933 6.58583 9.41425C6.21075 9.03918 6.00004 8.53047 6.00004 8.00004C6.00004 7.46961 6.21075 6.9609 6.58583 6.58583C6.9609 6.21075 7.46961 6.00004 8.00004 6.00004C8.53047 6.00004 9.03918 6.21075 9.41426 6.58583C9.78933 6.9609 10 7.46961 10 8.00004C10 8.53047 9.78933 9.03918 9.41426 9.41425C9.03918 9.78933 8.53047 10 8.00004 10ZM8.00004 8.66671C8.17685 8.66671 8.34642 8.59647 8.47145 8.47144C8.59647 8.34642 8.66671 8.17685 8.66671 8.00004C8.66671 7.82323 8.59647 7.65366 8.47145 7.52864C8.34642 7.40361 8.17685 7.33337 8.00004 7.33337C7.82323 7.33337 7.65366 7.40361 7.52864 7.52864C7.40361 7.65366 7.33337 7.82323 7.33337 8.00004C7.33337 8.17685 7.40361 8.34642 7.52864 8.47144C7.65366 8.59647 7.82323 8.66671 8.00004 8.66671Z" fill="#72767D"/>
</svg>
