<svg width="40" height="40" viewBox="0 0 40 40" fill="none" xmlns="http://www.w3.org/2000/svg">
<g clip-path="url(#clip0_3251_3167)">
<path d="M-0.199219 20.314C-0.199219 10.8859 -0.199219 6.17182 2.72971 3.24289C5.65864 0.313965 10.3727 0.313965 19.8008 0.313965C29.2289 0.313965 33.9429 0.313965 36.8719 3.24289C39.8008 6.17182 39.8008 10.8859 39.8008 20.314C39.8008 29.7421 39.8008 34.4561 36.8719 37.3851C33.9429 40.314 29.2289 40.314 19.8008 40.314C10.3727 40.314 5.65864 40.314 2.72971 37.3851C-0.199219 34.4561 -0.199219 29.7421 -0.199219 20.314Z" fill="#404EED"/>
<path d="M23.8015 26.314C24.3538 26.314 24.8116 26.7661 24.7019 27.3074C24.508 28.2634 24.037 29.1495 23.337 29.8495C22.3994 30.7872 21.1276 31.314 19.8015 31.314C18.4754 31.314 17.2037 30.7872 16.266 29.8495C15.566 29.1495 15.095 28.2634 14.9012 27.3074C14.7914 26.7661 15.2492 26.314 15.8015 26.314H23.8015Z" fill="white"/>
<path d="M25.9035 18.0905C25.37 18.2334 25.0433 18.7915 25.3138 19.273C25.5985 19.7798 25.9923 20.2221 26.4714 20.5654C27.2236 21.1044 28.1394 21.366 29.0629 21.3054C29.9863 21.2449 30.8602 20.8661 31.5356 20.2335C32.2111 19.6009 32.6462 18.7536 32.767 17.8361C32.8878 16.9186 32.6868 15.9876 32.1981 15.2017C31.7094 14.4159 30.9633 13.8238 30.087 13.5263C29.2107 13.2288 28.2584 13.2444 27.3923 13.5704C26.8407 13.778 26.3459 14.1033 25.9397 14.5191C25.5538 14.9142 25.7249 15.5379 26.2032 15.814L26.7105 16.1069C27.482 16.5524 27.3299 17.7083 26.4693 17.9389L25.9035 18.0905Z" fill="white"/>
<path d="M13.6985 18.0905C14.232 18.2334 14.5587 18.7915 14.2882 19.273C14.0035 19.7798 13.6097 20.2221 13.1307 20.5654C12.3785 21.1044 11.4626 21.366 10.5392 21.3054C9.61574 21.2449 8.74185 20.8661 8.06642 20.2335C7.39099 19.6009 6.9558 18.7536 6.83501 17.8361C6.71422 16.9186 6.91529 15.9876 7.40398 15.2017C7.89266 14.4159 8.63872 13.8238 9.51503 13.5263C10.3913 13.2288 11.3437 13.2444 12.2098 13.5704C12.7613 13.778 13.2562 14.1033 13.6624 14.5191C14.0483 14.9142 13.8771 15.5379 13.3988 15.814L12.8915 16.1069C12.12 16.5524 12.2722 17.7083 13.1327 17.9389L13.6985 18.0905Z" fill="white"/>
</g>
<defs>
<clipPath id="clip0_3251_3167">
<rect width="40" height="40" fill="white"/>
</clipPath>
</defs>
</svg>
