<svg width="339" height="159" viewBox="0 0 339 159" fill="none" xmlns="http://www.w3.org/2000/svg">
<path d="M218.02 75.939C218.02 75.939 215.05 76.7533 213.474 75.939C211.358 74.8458 212.352 72.3214 210.949 70.4011C209.342 68.2032 207.91 67.3852 205.645 65.87C203.52 64.4488 199.836 62.8493 199.836 62.8493C199.836 62.8493 197.544 62.2739 197.058 61.0873C196.441 59.5807 198.826 57.3114 198.826 57.3114C198.826 57.3114 202.27 55.7326 204.382 54.5424C207.049 53.0393 208.542 52.1537 210.949 50.2631C216.334 46.0315 222.314 36.9217 222.314 36.9217C222.314 36.9217 230.887 24.2157 237.972 17.5389C243.806 12.0411 254.389 5.20433 254.389 5.20433C254.389 5.20433 265.315 1.66543 272.573 1.17673C283.025 0.473001 289.16 1.88205 299.092 5.20433C307.706 8.08615 312.852 9.94119 319.802 15.7768C326.696 21.5661 330.016 25.9489 333.692 34.1527C337.812 43.3456 337.912 49.5087 337.986 59.5769C338.053 68.8079 338.019 74.3684 334.702 82.9873C331.224 92.0256 327.614 96.7233 320.559 103.377C313.801 109.751 309.137 112.899 300.354 115.963C293.284 118.43 288.88 118.388 281.413 118.984C273.842 119.588 269.535 119.596 261.965 118.984C257.405 118.615 254.919 117.288 250.348 117.474C242.868 117.777 232.163 123.515 232.163 123.515" stroke="white" stroke-width="2"/>
<path d="M232.669 98.3425C232.669 98.3425 236.92 95.1899 239.74 93.308C242.355 91.563 243.998 90.8504 246.559 89.0287C248.39 87.7267 249.976 87.443 251.105 85.5045C252.019 83.937 252.116 80.9735 252.116 80.9735C252.116 80.9735 251.512 78.6871 252.116 77.4493C252.87 75.9028 254.379 75.9884 255.904 75.1838C258.09 74.0302 261.713 72.6666 261.713 72.6666C261.713 72.6666 264.207 71.7417 264.996 70.401C265.944 68.79 264.996 67.4861 264.996 65.6183C264.996 62.7674 262.322 59.3293 264.996 58.3182C266.01 57.9347 266.755 57.9466 267.774 58.3182C269.763 59.0437 269.603 61.108 270.3 63.101C271.154 65.5428 271.149 67.0648 271.31 69.6459C271.42 71.4119 272.711 73.0905 271.31 74.1769C269.833 75.322 268.276 73.7651 266.764 72.6666C265.04 71.414 264.617 70.071 263.733 68.1355C263.048 66.6357 262.47 64.1079 262.47 64.1079C262.47 64.1079 260.441 63.8421 259.187 64.1079C256.832 64.607 254.136 67.6321 254.136 67.6321C254.136 67.6321 251.336 70.3721 249.085 70.401C247.865 70.4167 246.823 70.5896 246.054 69.6459C245.028 68.3876 246.505 67.1405 247.064 65.6183C248.708 61.1496 254.641 56.0527 254.641 56.0527C254.641 56.0527 262.708 47.8271 267.774 42.4596C271.457 38.5583 277.119 32.3906 277.119 32.3906L282.17 27.3561C282.17 27.3561 283.433 26.0975 284.191 27.3561C284.948 28.6147 283.854 34.7297 283.433 39.4389C283.045 43.775 281.865 46.1722 282.17 50.5148C282.561 56.0664 286.464 64.1079 286.464 64.1079C286.464 64.1079 288.594 71.0787 290.757 75.1838C291.827 77.2136 291.978 78.8029 293.788 80.2183C294.587 80.8431 295.121 81.8607 296.061 81.4769C296.645 81.2382 296.869 80.8146 297.071 80.2183C297.441 79.1283 296.061 77.4493 296.061 77.4493C296.061 77.4493 292.322 76.9959 289.999 77.4493C286.623 78.1084 282.17 81.4769 282.17 81.4769C282.17 81.4769 275.017 83.5332 270.3 83.9942C266.177 84.3971 263.829 84.2123 259.692 83.9942C255.831 83.7905 253.042 85.1511 249.843 82.9873C248.573 82.1287 247.756 81.5832 247.064 80.2183C246.303 78.7164 247.036 77.5531 246.559 75.939C246.061 74.2521 245.531 73.3654 244.539 71.9114C243.4 70.2437 243.529 68.1355 241.003 68.1355C238.477 68.1355 236.487 68.8449 233.679 69.6459C229.258 70.9066 222.819 74.1769 222.819 74.1769L217.768 75.939" stroke="url(#paint0_linear_1_330)" stroke-width="2"/>
<path d="M231.163 98.5943C231.163 98.5943 228.89 101.615 228.638 106.65C228.385 111.684 228.638 117.725 228.638 117.725C228.638 117.725 228.239 121.964 226.365 123.515C224.579 124.993 222.729 125.587 220.556 124.774C218.148 123.872 217.02 119.236 217.02 119.236C217.02 119.236 215.441 116.032 214.495 113.95C212.431 109.41 209.696 102.118 209.696 102.118C209.696 102.118 206.756 94.4173 203.887 90.0357C201.285 86.062 196.058 80.7219 196.058 80.7219C196.058 80.7219 190.127 77.0297 188.733 73.1701C188.157 71.5733 187.491 70.5174 187.976 68.8908C188.319 67.7406 188.838 67.164 189.744 66.3736C191.636 64.7226 193.552 64.9042 196.058 65.1149C200.256 65.4681 201.914 68.2149 205.15 70.9046C208.635 73.8015 212.979 79.4632 212.979 79.4632L219.798 88.7771C219.798 88.7771 223.826 97.1585 225.355 102.874C226.541 107.309 227.375 114.453 227.375 114.453C227.375 114.453 227.854 121.38 225.355 124.522C223.723 126.573 219.798 128.298 219.798 128.298C219.798 128.298 214.287 130.299 210.959 129.305C207.992 128.419 206.626 126.895 204.645 124.522C201.926 121.267 200.604 114.453 200.604 114.453C200.604 114.453 198.647 108.166 196.815 104.384C195.278 101.211 192.269 96.5805 192.269 96.5805C192.269 96.5805 189.15 91.3234 186.713 88.2736C184.712 85.77 183.703 84.1823 181.157 82.2322C179.09 80.6498 176.839 81.0895 175.348 78.9598C174.019 77.0624 173.266 75.3351 174.085 73.1701C174.963 70.8486 179.389 69.646 179.389 69.646C179.389 69.646 182.821 69.204 184.945 69.646C186.936 70.0602 189.744 71.6598 189.744 71.6598C189.744 71.6598 194.231 74.6652 196.815 76.946C200.213 79.9444 201.964 81.855 204.645 85.5046C208.086 90.1893 209.319 93.3029 211.716 98.5943C213.503 102.538 215.757 108.915 215.757 108.915C215.757 108.915 217.234 113.928 217.778 117.222C218.324 120.533 219.714 122.638 218.535 125.781C217.7 128.01 214.747 130.563 214.747 130.563C214.747 130.563 210.815 134.138 207.675 135.094C205.122 135.872 203.352 136.546 200.856 135.598C198.314 134.632 197.647 132.764 196.058 130.563C193.318 126.77 191.512 119.488 191.512 119.488C191.512 119.488 188.88 113.347 186.713 109.67C183.995 105.059 182.041 102.724 178.631 98.5943C176.013 95.4237 174.589 93.574 171.559 90.7909C168.716 88.1789 165.677 88.0795 163.73 84.7495C162.536 82.7074 161.402 81.2564 161.962 78.9598C162.506 76.7297 166.003 74.6805 166.003 74.6805C166.003 74.6805 170.367 74.1416 173.075 74.6805C177.012 75.4638 182.167 79.4632 182.167 79.4632C182.167 79.4632 187.67 83.6597 190.501 87.015C194.171 91.3637 197.826 99.6012 197.826 99.6012C197.826 99.6012 201.459 107.171 203.382 112.187C205.051 116.544 207.17 123.515 207.17 123.515C207.17 123.515 209.835 130.926 207.17 134.088C206.358 135.051 204.645 136.101 204.645 136.101C204.645 136.101 201.279 138.841 198.836 140.129C195.527 141.873 189.744 143.15 189.744 143.15C189.744 143.15 185.171 142.719 183.177 140.884C181.064 138.94 180.399 134.088 180.399 134.088C180.399 134.088 179.486 128.986 178.631 125.781C177.589 121.875 175.348 115.963 175.348 115.963C175.348 115.963 172.786 111.098 170.549 108.412C168.544 106.004 164.74 102.874 164.74 102.874C164.74 102.874 161.917 100.146 159.942 98.5943C157.428 96.6197 153.123 94.0633 153.123 94.0633C153.123 94.0633 150.697 92.2485 150.092 90.5391C149.534 88.9632 150.092 86.2598 150.092 86.2598C150.092 86.2598 150.626 83.4306 151.86 82.2322C152.745 81.3724 154.638 80.7219 154.638 80.7219C154.638 80.7219 157.896 80.3991 159.942 80.7219C161.883 81.0281 164.74 82.2322 164.74 82.2322C164.74 82.2322 168.405 84.0289 170.549 85.5046C174.51 88.2303 179.389 94.0633 179.389 94.0633C179.389 94.0633 187.21 103.092 191.007 109.67C194.242 115.277 197.826 124.774 197.826 124.774C197.826 124.774 199.313 129.695 198.836 132.829C198.366 135.918 197.414 137.615 195.553 140.129C192.999 143.578 190.776 145.269 186.713 146.674C184.354 147.49 182.894 147.586 180.399 147.681C177.123 147.805 174.986 148.156 172.065 146.674C169.64 145.443 168.477 144.177 167.013 141.891C165.301 139.216 165.637 137.132 164.74 134.088C163.668 130.447 161.962 124.774 161.962 124.774C161.962 124.774 160.119 120.299 158.426 117.725C156.89 115.388 153.88 112.187 153.88 112.187C153.88 112.187 151.191 109.526 149.082 108.412C147.152 107.393 143.778 106.65 143.778 106.65H139.232C139.232 106.65 139.306 101.174 140.242 97.8392C140.993 95.1666 141.109 93.3124 143.02 91.2943C144.717 89.5029 146.155 88.7682 148.577 88.2736C150.904 87.7983 152.346 88.1539 154.638 88.7771C158.36 89.7891 162.972 94.0633 162.972 94.0633C162.972 94.0633 168.956 99.0313 172.065 102.874C175.536 107.165 179.389 114.956 179.389 114.956C179.389 114.956 182.102 120.652 183.177 124.522C184.48 129.211 184.689 131.997 184.945 136.857C185.095 139.703 186.11 141.553 184.945 144.157C183.922 146.442 182.619 147.519 180.399 148.688C178.601 149.634 177.375 149.785 175.348 149.946C172.358 150.185 170.625 149.608 167.771 148.688C165.169 147.848 161.457 145.667 161.457 145.667C161.457 145.667 160.765 139.488 159.942 135.598C159.161 131.911 158.936 129.734 157.416 126.284C156.511 124.23 154.638 121.25 154.638 121.25C154.638 121.25 153.16 117.9 151.86 115.963C150.652 114.164 148.324 111.684 148.324 111.684C148.324 111.684 145.353 109.07 143.02 108.915C141.515 108.815 140.595 109.026 139.232 109.67C136.113 111.143 135.611 113.909 134.686 117.222C134.023 119.597 133.701 121.096 134.181 123.515C134.729 126.278 136.252 127.399 137.717 129.808C139.12 132.117 141.505 135.598 141.505 135.598C141.505 135.598 143.312 137.238 144.536 136.857C145.763 136.474 145.928 135.313 146.304 134.088C146.854 132.291 146.051 131.319 145.798 129.305C145.546 127.291 145.485 126.206 144.536 124.522C143.408 122.521 140.242 120.494 140.242 120.494C140.242 120.494 136.454 118.481 135.696 119.236C134.938 119.991 135.322 121.376 135.191 122.76C134.931 125.5 134.502 127.143 135.191 129.808C135.896 132.536 136.826 134.017 138.727 136.101C141.196 138.808 143.505 139.29 146.809 140.884C151.049 142.93 158.174 144.912 158.174 144.912C158.174 144.912 88.5 115.823 67 144.912C45.5 174 1 144.912 1 144.912" stroke="white" stroke-width="2"/>
<defs>
<linearGradient id="paint0_linear_1_330" x1="297.134" y1="98.3425" x2="210.719" y2="88.4657" gradientUnits="userSpaceOnUse">
<stop offset="0.302585" stop-color="#6E10A1"/>
<stop offset="1" stop-color="#B376D4"/>
</linearGradient>
</defs>
</svg>
