<svg width="406" height="143" viewBox="0 0 406 143" fill="none" xmlns="http://www.w3.org/2000/svg">
<path d="M1 95.654C1 95.654 9.56098 100.591 15.5556 102.435C22.3844 104.536 26.524 104.952 33.6693 105.019C41.3152 105.09 53.0769 102.435 53.0769 102.435L72.1609 98.5603C72.1609 98.5603 81.8647 95.3311 88.0104 94.3624C94.1561 93.3937 97.5556 92.3526 103.213 93.3936C107.769 94.2319 113.887 98.5603 113.887 98.5603C113.887 98.5603 117.358 106.698 120.356 111.477C123.132 115.902 124.877 118.314 128.443 122.134C133.715 127.782 137.297 130.501 143.969 134.405C148.65 137.144 151.275 139.097 156.584 140.217C161.527 141.261 164.579 141.261 169.522 140.217C169.522 140.217 164.757 138.012 162.082 136.019C157.195 132.38 152.055 124.071 152.055 124.071C152.055 124.071 148.169 118.502 147.203 114.384C146.253 110.332 146.556 106.956 147.203 103.727C147.85 100.498 148.821 97.2687 153.349 97.2687C157.877 97.2687 169.798 97.6918 180.196 96.2999C186.187 95.498 189.78 95.6203 195.399 93.3936C198.866 92.0195 201.464 91.7694 203.809 88.8727C204.898 87.5266 205.494 86.2419 205.835 84.8896M210.925 88.8727C209.631 93.3936 203.809 98.5603 203.809 98.5603C193.499 103.236 186.087 104.344 171.463 105.019H143.969L111.299 103.727C111.299 103.727 105.963 104.066 103.213 102.435C101.37 101.343 100.949 101.467 99.008 99.5292C97.0673 97.5916 94.4796 84.3518 94.4796 84.3518C94.4796 84.3518 91.8919 69.8203 91.5685 65.9452C91.245 62.0702 90.9215 41.4031 90.9215 41.4031C90.9215 41.4031 90.5981 25.9028 93.5092 20.7361C96.4203 15.5693 103.213 15.5693 103.213 15.5693L131.03 14.6006H163.053C163.053 14.6006 194.752 14.2776 198.957 15.5693C203.162 16.861 203.809 19.4444 204.779 24.2882C205.749 29.1321 206.396 45.924 206.396 45.924C206.396 45.924 207.043 65.6223 206.396 79.1851C206.292 81.3674 206.266 83.1824 205.835 84.8896M210.925 88.8727L218.041 90.8103C218.041 90.8103 221.711 92.5858 224.187 93.3936C228.096 94.6694 230.462 94.7751 234.537 95.3312C240.681 96.1696 250.387 96.2999 250.387 96.2999C250.387 96.2999 259.261 96.477 264.942 96.2999C274.19 96.0118 288.555 94.3624 288.555 94.3624C288.555 94.3624 297.494 93.582 303.11 92.4249C308.243 91.3675 311.007 90.299 316.049 88.8727C322.51 87.0451 326.12 85.9761 332.545 84.0289C338.624 82.1868 342.003 81.0595 348.071 79.1851C351.354 78.1711 356.481 76.6017 356.481 76.6017L370.066 74.0183C370.066 74.0183 378.795 73.2434 384.299 74.0183C388.424 74.5992 390.703 75.2683 394.649 76.6017C398.829 78.0136 405 81.1226 405 81.1226M210.925 88.8727L205.835 84.8896M210.925 88.8727C210.925 88.8727 222.959 87.5645 230.656 86.6123C235.839 85.971 238.703 85.1889 243.918 84.8896C248.079 84.6508 254.592 84.8896 254.592 84.8896C254.592 84.8896 257.572 86.9724 258.797 88.8727C260.224 91.087 260.579 92.7027 260.737 95.3312C260.974 99.2739 257.826 105.019 257.826 105.019L251.681 115.352L243.918 125.363L237.772 132.144L248.122 129.238C248.122 129.238 254.65 126.134 258.797 124.071C263.499 121.732 266.201 120.535 270.765 117.936C274.905 115.577 281.115 111.477 281.115 111.477C281.115 111.477 293.82 103.2 300.523 96.2999C303.203 93.5407 306.992 88.8727 306.992 88.8727C306.992 88.8727 310.489 84.3077 313.138 81.7684C314.235 80.7165 316.049 79.1851 316.049 79.1851C316.049 79.1851 319.807 77.0983 321.871 75.31C324.034 73.4358 325.213 72.2494 326.723 69.8203C328.368 67.174 328.526 65.3048 329.634 62.3931C331.209 58.2534 333.516 51.7366 333.516 51.7366C333.516 51.7366 334.283 44.5863 333.516 40.1114C332.747 35.6297 331.685 33.192 329.634 29.1321C327.267 24.4458 321.871 18.1527 321.871 18.1527C321.871 18.1527 315.247 12.9818 310.55 10.4026C306.785 8.33525 300.523 5.88164 300.523 5.88164L288.555 3.29826C288.555 3.29826 275.755 1.89268 267.53 2.00657C260.817 2.09952 250.387 3.29826 250.387 3.29826L234.537 5.88164C234.537 5.88164 225.456 8.06726 219.982 10.4026C213.685 13.0885 204.779 19.1215 204.779 19.1215C204.779 19.1215 198.496 23.27 195.399 26.8716C192.59 30.1373 189.576 36.2364 189.576 36.2364C189.576 36.2364 186.164 42.4905 185.371 46.8928C184.656 50.8646 185.371 57.2263 185.371 57.2263C185.371 57.2263 187.299 64.4054 189.576 68.5286C191.882 72.7032 197.016 78.2163 197.016 78.2163L205.835 84.8896" stroke="white" stroke-width="3"/>
<path d="M197.016 90.1645L210.601 89.1957L211.895 84.6748C211.895 84.6748 213.12 74.8539 213.189 68.5287C213.27 61.1974 211.895 49.7992 211.895 49.7992V40.1115V31.0697L210.601 21.7049C210.601 21.7049 210.461 17.6584 209.631 15.2465C208.56 12.1365 207.648 10.2294 205.103 8.14216C202.962 6.38667 201.264 6.10342 198.633 5.23586C192.617 3.25167 182.46 3.94417 182.46 3.94417H165.317H145.263C145.263 3.94417 135.225 5.01749 128.766 5.23586C123.843 5.40234 121.024 4.51023 116.151 5.23586C111.998 5.85435 109.626 6.41279 105.801 8.14216C103.274 9.28434 101.364 9.51376 99.655 11.6943C97.88 13.9592 97.7143 18.7986 97.7143 18.7986V32.6843V46.8929C97.7143 46.8929 97.2412 54.7876 97.7143 59.8098C98.1226 64.1446 99.655 70.7891 99.655 70.7891C99.655 70.7891 100.296 77.952 102.89 81.4456C104.981 84.2624 110.006 86.9353 110.006 86.9353C110.006 86.9353 116.218 89.2664 120.356 90.1645C126.671 91.5349 136.853 91.4562 136.853 91.4562H163.7L197.016 90.1645Z" stroke="url(#paint0_linear_1_320)" stroke-width="3"/>
<path d="M221.922 85.9663L211.895 82.0913C211.895 82.0913 203.631 77.3606 199.927 72.7265C196.58 68.5385 193.781 60.4555 193.781 60.4555C193.781 60.4555 193.382 55.1181 193.781 51.7366C194.287 47.4526 196.693 41.0801 196.693 41.0801C196.693 41.0801 199.836 35.4582 202.515 32.3612C205.676 28.707 207.991 27.1382 211.895 24.2881C214.922 22.0787 219.982 19.1214 219.982 19.1214L230.332 15.2463C230.332 15.2463 237.483 12.4487 242.3 11.6942C247.916 10.8146 256.856 11.6942 256.856 11.6942H270.118C270.118 11.6942 276.64 11.3189 280.792 11.6942C286.987 12.2542 290.434 13.231 296.318 15.2463L296.659 15.3629C302.386 17.3241 305.834 18.5048 310.874 22.0277C314.973 24.8939 317.351 26.6758 320.254 30.7466C322.843 34.3774 325.106 41.0801 325.106 41.0801C325.106 41.0801 325.29 46.399 325.106 49.799C324.879 53.985 323.812 60.4555 323.812 60.4555C323.812 60.4555 320.172 72.0244 315.402 77.8933C313.263 80.5245 309.256 84.0288 309.256 84.0288L296.318 88.2268C296.318 88.2268 289.321 90.526 284.673 91.1331C279.413 91.8203 276.392 90.987 271.088 91.1331C266.283 91.2655 258.797 91.7789 258.797 91.7789C258.797 91.7789 244.91 90.7921 236.155 89.1956C230.548 88.1731 221.922 85.9663 221.922 85.9663Z" stroke="url(#paint1_linear_1_320)" stroke-width="3"/>
<defs>
<linearGradient id="paint0_linear_1_320" x1="213.192" y1="91.457" x2="87.9025" y2="74.4146" gradientUnits="userSpaceOnUse">
<stop offset="0.302585" stop-color="#6E10A1"/>
<stop offset="1" stop-color="#B376D4"/>
</linearGradient>
<linearGradient id="paint1_linear_1_320" x1="325.188" y1="91.7789" x2="184.052" y2="68.0023" gradientUnits="userSpaceOnUse">
<stop offset="0.302585" stop-color="#6E10A1"/>
<stop offset="1" stop-color="#B376D4"/>
</linearGradient>
</defs>
</svg>
