<svg width="30" height="30" viewBox="0 0 30 30" fill="none" xmlns="http://www.w3.org/2000/svg">
<circle cx="15" cy="15" r="15" fill="#050607"/>
<path d="M8.56 22.16C7.48 22.16 6.60667 21.8333 5.94 21.18C5.28667 20.5133 4.96 19.6333 4.96 18.54V11.44C4.96 10.3467 5.28667 9.47333 5.94 8.82C6.60667 8.16667 7.48 7.84 8.56 7.84C9.65333 7.84 10.5267 8.16667 11.18 8.82C11.8467 9.47333 12.18 10.3467 12.18 11.44V11.76C12.18 11.8933 12.1133 11.96 11.98 11.96L10.46 12.04C10.3267 12.04 10.26 11.9733 10.26 11.84V11.32C10.26 10.7733 10.1 10.3333 9.78 10C9.47333 9.66667 9.06667 9.5 8.56 9.5C8.05333 9.5 7.64667 9.66667 7.34 10C7.03333 10.3333 6.88 10.7733 6.88 11.32V18.68C6.88 19.2267 7.03333 19.6667 7.34 20C7.64667 20.3333 8.05333 20.5 8.56 20.5C9.06667 20.5 9.47333 20.3333 9.78 20C10.1 19.6667 10.26 19.2267 10.26 18.68V18.16C10.26 18.0267 10.3267 17.96 10.46 17.96L11.98 18.04C12.1133 18.04 12.18 18.1067 12.18 18.24V18.54C12.18 19.6333 11.8467 20.5133 11.18 21.18C10.5267 21.8333 9.65333 22.16 8.56 22.16ZM16.2039 22C16.0839 22 16.0106 21.94 15.9839 21.82L13.3239 8.22V8.18C13.3239 8.06 13.3839 8 13.5039 8H15.0839C15.2172 8 15.2906 8.06 15.3039 8.18L16.9239 17.56C16.9372 17.5867 16.9506 17.6 16.9639 17.6C16.9772 17.6 16.9906 17.5867 17.0039 17.56L18.4439 8.18C18.4572 8.06 18.5239 8 18.6439 8H19.9839C20.1039 8 20.1706 8.06 20.1839 8.18L21.7239 17.56C21.7372 17.5867 21.7506 17.6 21.7639 17.6C21.7772 17.6 21.7906 17.5867 21.8039 17.56L23.2839 8.18C23.3106 8.06 23.3772 8 23.4839 8H25.0439C25.1106 8 25.1572 8.02 25.1839 8.06C25.2239 8.1 25.2372 8.15333 25.2239 8.22L22.7039 21.82C22.6906 21.94 22.6172 22 22.4839 22H21.0639C20.9572 22 20.8906 21.94 20.8639 21.82L19.3439 12.36C19.3306 12.3333 19.3106 12.32 19.2839 12.32C19.2706 12.32 19.2639 12.3333 19.2639 12.36L17.8239 21.82C17.8106 21.94 17.7439 22 17.6239 22H16.2039Z" fill="white"/>
</svg>
