<svg width="32" height="32" viewBox="0 0 32 32" fill="none" xmlns="http://www.w3.org/2000/svg">
<path d="M0 16C0 7.16344 7.16344 0 16 0C24.8366 0 32 7.16344 32 16C32 24.8366 24.8366 32 16 32C7.16344 32 0 24.8366 0 16Z" fill="#0A66C2"/>
<path d="M23.5007 7.20001H8.49917C8.1546 7.20001 7.82414 7.33689 7.58048 7.58055C7.33683 7.8242 7.19995 8.15466 7.19995 8.49923V23.5008C7.19995 23.8454 7.33683 24.1758 7.58048 24.4195C7.82414 24.6631 8.1546 24.8 8.49917 24.8H23.5007C23.8453 24.8 24.1758 24.6631 24.4194 24.4195C24.6631 24.1758 24.7999 23.8454 24.7999 23.5008V8.49923C24.7999 8.15466 24.6631 7.8242 24.4194 7.58055C24.1758 7.33689 23.8453 7.20001 23.5007 7.20001ZM12.4457 22.193H9.79962V13.7878H12.4457V22.193ZM11.1208 12.623C10.8207 12.6213 10.5278 12.5308 10.279 12.3627C10.0303 12.1947 9.8369 11.9568 9.72326 11.679C9.60962 11.4012 9.58083 11.0959 9.64051 10.8017C9.70019 10.5076 9.84567 10.2377 10.0586 10.0261C10.2715 9.81456 10.5423 9.67081 10.8369 9.61302C11.1314 9.55523 11.4365 9.58598 11.7136 9.7014C11.9907 9.81682 12.2273 10.0117 12.3938 10.2615C12.5602 10.5113 12.6489 10.8049 12.6486 11.105C12.6514 11.306 12.6138 11.5054 12.5379 11.6915C12.462 11.8776 12.3494 12.0465 12.2068 12.1882C12.0643 12.3298 11.8946 12.4414 11.7081 12.5161C11.5215 12.5908 11.3218 12.6271 11.1208 12.623ZM22.1991 22.2003H19.5542V17.6085C19.5542 16.2542 18.9785 15.8362 18.2354 15.8362C17.4507 15.8362 16.6807 16.4278 16.6807 17.6427V22.2003H14.0346V13.7939H16.5793V14.9587H16.6135C16.869 14.4417 17.7636 13.558 19.1288 13.558C20.6053 13.558 22.2003 14.4343 22.2003 17.001L22.1991 22.2003Z" fill="white"/>
</svg>
