<svg width="25" height="25" viewBox="0 0 25 25" fill="none" xmlns="http://www.w3.org/2000/svg">
<path d="M12.0056 2.5C7.80562 2.5 4.00562 5.72 4.00562 10.7C4.00562 13.88 6.45562 17.62 11.3456 21.93C11.7256 22.26 12.2956 22.26 12.6756 21.93C17.5556 17.62 20.0056 13.88 20.0056 10.7C20.0056 5.72 16.2056 2.5 12.0056 2.5ZM12.0056 12.5C10.9056 12.5 10.0056 11.6 10.0056 10.5C10.0056 9.4 10.9056 8.5 12.0056 8.5C13.1056 8.5 14.0056 9.4 14.0056 10.5C14.0056 11.6 13.1056 12.5 12.0056 12.5Z" fill="url(#paint0_linear_662_5656)"/>
<defs>
<linearGradient id="paint0_linear_662_5656" x1="20.0056" y1="22.1775" x2="2.48009" y2="20.7093" gradientUnits="userSpaceOnUse">
<stop offset="0.302585" stop-color="#6E10A1"/>
<stop offset="1" stop-color="#B376D4"/>
</linearGradient>
</defs>
</svg>
