<svg width="45" height="82" viewBox="0 0 45 82" fill="none" xmlns="http://www.w3.org/2000/svg">
<path d="M22.6998 27.7441L22.2679 27.996L23.1998 29.5935V27.7441H22.6998ZM12.05 23.9406L11.9162 23.4588L11.4387 23.5915L11.5671 24.0701L12.05 23.9406ZM17.882 33.8297L17.4139 34.0052L17.7777 34.9754L18.3108 34.0869L17.882 33.8297ZM9.13401 26.603L8.87336 26.1763L7.99551 26.7126L8.95951 27.0716L9.13401 26.603ZM15.5999 31.5476L15.1527 31.7712L15.1989 31.8636L15.278 31.9301L15.5999 31.5476ZM17.1213 35.2243L17.6209 35.2037L17.6206 35.1954L17.6199 35.1871L17.1213 35.2243ZM16.6142 42.7045L16.1312 42.8338L17.1054 42.7978L16.6142 42.7045ZM11.5429 36.8724L11.3107 37.3153L11.3171 37.3186L11.3236 37.3218L11.5429 36.8724ZM7.35905 31.9279L6.86064 31.9678L6.8613 31.976L6.86222 31.9842L7.35905 31.9279ZM6.85192 25.5888L7.35032 25.5489L7.2847 24.7286L6.58692 25.1648L6.85192 25.5888ZM10.1483 14.5587L10.552 14.8536L10.6421 14.7303L10.6479 14.5777L10.1483 14.5587ZM4.56982 6.95168L4.80164 6.50867L3.66261 5.91265L4.0996 7.12165L4.56982 6.95168ZM5.20374 15.9533L4.70364 15.9514L4.70381 15.9614L5.20374 15.9533ZM38.928 7.45881L39.4255 7.50853L39.5954 5.80819L38.5357 7.14875L38.928 7.45881ZM38.1673 18.7425L37.7029 18.9279L37.9516 19.5509L38.4776 19.1345L38.1673 18.7425ZM40.8297 10.7552L41.3258 10.6928L41.1168 9.03089L40.3806 10.5354L40.8297 10.7552ZM39.5619 20.5175L39.0691 20.6022L39.0809 20.6709L39.1111 20.7338L39.5619 20.5175ZM34.4906 27.9976L34.9892 27.961L34.9684 27.6772L34.7137 27.5502L34.4906 27.9976ZM31.0674 26.9834L31.1311 26.4874L30.9445 26.4635L30.7885 26.5685L31.0674 26.9834ZM26.63 32.5618L26.1572 32.3994L25.5605 34.1368L26.9554 32.9415L26.63 32.5618ZM30.18 27.6072L30.3418 28.0803L30.412 28.0563L30.4721 28.013L30.18 27.6072ZM29.9264 27.6072L29.4285 27.6526L29.4353 27.7274L29.4638 27.7969L29.9264 27.6072ZM27.7711 22.7995L28.1449 22.4674L27.727 21.9972L27.3632 22.5103L27.7711 22.7995ZM26.63 28.8851L26.1323 28.9323L26.2237 29.8959L26.9566 29.2637L26.63 28.8851ZM36.3923 25.9691L36.7701 25.6415L36.7036 25.5649L36.6124 25.5202L36.3923 25.9691ZM37.4066 32.3083L37.0664 31.9419L37.0152 31.9894L36.979 32.0492L37.4066 32.3083ZM30.8139 37.2528L30.5516 37.6785L30.5958 37.7057L30.6445 37.7232L30.8139 37.2528ZM27.1372 35.985L26.7504 36.3018L26.8006 36.3631L26.8673 36.4059L27.1372 35.985ZM31.321 40.8027L30.8246 40.7433L30.8237 40.7504L30.8231 40.7575L31.321 40.8027ZM29.0389 51.3257L28.6505 51.0109L28.4488 51.2597L28.5906 51.547L29.0389 51.3257ZM24.2212 65.0182L24.7211 65.0259L24.727 64.6447L24.3608 64.5381L24.2212 65.0182ZM23.9676 64.9429L23.8224 65.4214L23.9676 64.9429ZM22.1998 10.3748V27.7441H23.1998V10.3748H22.1998ZM22.6998 27.7441C23.1317 27.4921 23.1316 27.492 23.1315 27.4919C23.1315 27.4919 23.1315 27.4918 23.1314 27.4917C23.1313 27.4915 23.1311 27.4912 23.131 27.4909C23.1306 27.4903 23.1302 27.4896 23.1296 27.4886C23.1285 27.4867 23.1269 27.4841 23.125 27.4807C23.121 27.4741 23.1153 27.4645 23.108 27.4523C23.0934 27.4279 23.072 27.3928 23.0444 27.3481C22.9891 27.2589 22.9085 27.1315 22.8052 26.9761C22.5989 26.6656 22.3008 26.2408 21.9326 25.7827C21.2076 24.8805 20.1665 23.7918 18.9824 23.2346L18.5566 24.1394C19.5278 24.5965 20.4518 25.5364 21.1531 26.4091C21.4981 26.8384 21.7785 27.2378 21.9723 27.5295C22.0691 27.6752 22.144 27.7935 22.1942 27.8746C22.2193 27.9151 22.2382 27.9463 22.2506 27.967C22.2568 27.9773 22.2614 27.985 22.2643 27.9899C22.2657 27.9923 22.2668 27.9941 22.2674 27.9951C22.2677 27.9956 22.2679 27.996 22.2679 27.9961C22.268 27.9962 22.268 27.9962 22.268 27.9962C22.268 27.9962 22.268 27.9961 22.268 27.9961C22.2679 27.9961 22.2679 27.996 22.6998 27.7441ZM18.9824 23.2346C18.3549 22.9393 17.5876 22.8238 16.8266 22.799C16.0584 22.774 15.2562 22.8407 14.5347 22.9379C13.8116 23.0354 13.1592 23.1652 12.6879 23.2703C12.452 23.323 12.2606 23.3697 12.1275 23.4034C12.061 23.4203 12.009 23.4339 11.9732 23.4434C11.9553 23.4482 11.9415 23.4519 11.9319 23.4545C11.9271 23.4558 11.9234 23.4568 11.9208 23.4576C11.9194 23.4579 11.9184 23.4582 11.9176 23.4584C11.9173 23.4585 11.917 23.4586 11.9167 23.4587C11.9166 23.4587 11.9165 23.4588 11.9164 23.4588C11.9163 23.4588 11.9162 23.4588 12.05 23.9406C12.1838 24.4223 12.1838 24.4224 12.1837 24.4224C12.1837 24.4224 12.1837 24.4224 12.1837 24.4224C12.1838 24.4224 12.1839 24.4223 12.184 24.4223C12.1844 24.4222 12.185 24.422 12.1859 24.4218C12.1877 24.4213 12.1905 24.4205 12.1945 24.4194C12.2023 24.4173 12.2143 24.414 12.2304 24.4098C12.2625 24.4012 12.3107 24.3886 12.3731 24.3728C12.4981 24.3411 12.6801 24.2967 12.9058 24.2463C13.3576 24.1455 13.981 24.0217 14.6683 23.929C15.3573 23.8361 16.1003 23.7759 16.7941 23.7985C17.495 23.8213 18.1064 23.9276 18.5566 24.1394L18.9824 23.2346ZM11.5671 24.0701C12.3869 27.128 14.3607 29.1247 15.9565 30.1886L16.5112 29.3566C15.0643 28.3919 13.2751 26.5792 12.533 23.8111L11.5671 24.0701ZM15.9565 30.1886C16.5736 30.6 16.786 31.0815 16.9167 31.692C16.988 32.0247 17.0259 32.3461 17.0948 32.7534C17.1605 33.1418 17.2491 33.5658 17.4139 34.0052L18.3502 33.6541C18.2179 33.3013 18.1421 32.9488 18.0808 32.5866C18.0227 32.2431 17.971 31.8394 17.8946 31.4827C17.7301 30.7143 17.4155 29.9594 16.5112 29.3566L15.9565 30.1886ZM18.3108 34.0869C19.5538 32.0152 19.3398 29.9056 18.6254 28.2727C18.2693 27.4587 17.786 26.7541 17.2857 26.2153C16.795 25.6868 16.2513 25.2788 15.758 25.1144L15.4418 26.0631C15.7093 26.1523 16.1165 26.4257 16.5529 26.8957C16.9796 27.3553 17.3997 27.966 17.7092 28.6735C18.326 30.0833 18.4924 31.8406 17.4533 33.5724L18.3108 34.0869ZM15.758 25.1144C14.8954 24.8269 13.6804 24.7901 12.4578 24.9638C11.227 25.1386 9.9215 25.5361 8.87336 26.1763L9.39465 27.0297C10.2976 26.4782 11.4643 26.1149 12.5984 25.9538C13.7407 25.7915 14.7831 25.8435 15.4418 26.0631L15.758 25.1144ZM8.95951 27.0716C12.3499 28.3342 14.0921 29.65 15.1527 31.7712L16.0471 31.324C14.8256 28.8809 12.8126 27.4394 9.30851 26.1345L8.95951 27.0716ZM15.278 31.9301C15.8209 32.3871 16.1008 32.749 16.2769 33.1966C16.4625 33.6685 16.5491 34.2732 16.6227 35.2614L17.6199 35.1871C17.5466 34.2023 17.4546 33.4587 17.2074 32.8305C16.9507 32.1781 16.5433 31.6881 15.9219 31.165L15.278 31.9301ZM16.6218 35.2448C16.7334 37.9603 16.7129 39.5064 16.123 42.6111L17.1054 42.7978C17.7131 39.5994 17.7348 37.9739 17.6209 35.2037L16.6218 35.2448ZM17.0972 42.5751C16.6711 40.9835 16.1446 39.8187 15.2942 38.8561C14.449 37.8995 13.3185 37.1825 11.7622 36.4231L11.3236 37.3218C12.8405 38.062 13.8303 38.7095 14.5448 39.5182C15.254 40.321 15.7266 41.3223 16.1312 42.8338L17.0972 42.5751ZM11.775 36.4296C10.2164 35.6125 9.30669 34.9619 8.75087 34.286C8.21189 33.6305 7.97365 32.9115 7.85587 31.8716L6.86222 31.9842C6.99261 33.1353 7.27383 34.0642 7.97849 34.9211C8.66631 35.7576 9.72445 36.4837 11.3107 37.3153L11.775 36.4296ZM7.85746 31.888L7.35032 25.5489L6.35351 25.6286L6.86064 31.9678L7.85746 31.888ZM6.58692 25.1648L5.57265 25.7987L6.10265 26.6467L7.11692 26.0128L6.58692 25.1648ZM6.32186 23.3046C7.22129 19.8117 8.24404 18.0128 10.552 14.8536L9.74453 14.2637C7.38969 17.487 6.29443 19.401 5.35345 23.0552L6.32186 23.3046ZM10.6479 14.5777C10.7291 12.4491 10.3187 10.9383 9.30551 9.68837C8.31835 8.47052 6.79611 7.55231 4.80164 6.50867L4.33801 7.3947C6.34192 8.44327 7.6871 9.27983 8.52866 10.3181C9.34423 11.3242 9.72378 12.5708 9.64863 14.5396L10.6479 14.5777ZM4.0996 7.12165C4.40449 7.96517 4.56375 9.00737 4.64098 10.4368C4.71821 11.8661 4.71214 13.6439 4.70374 15.9514L5.70374 15.9551C5.7121 13.6585 5.71866 11.8475 5.63953 10.3829C5.5604 8.91845 5.39433 7.76188 5.04005 6.78172L4.0996 7.12165ZM4.70381 15.9614C4.72377 17.1828 5.17539 18.2974 5.68521 19.0841C5.94017 19.4775 6.22152 19.8074 6.49164 20.0346C6.62565 20.1472 6.77238 20.2478 6.92532 20.3133C7.06812 20.3745 7.28576 20.4346 7.51632 20.3582L7.20177 19.4089C7.30556 19.3745 7.36189 19.4125 7.31932 19.3942C7.2869 19.3803 7.22421 19.344 7.13521 19.2692C6.95933 19.1213 6.74035 18.8735 6.5244 18.5403C6.09239 17.8736 5.71992 16.9391 5.70367 15.9451L4.70381 15.9614ZM7.51632 20.3582C7.61838 20.3243 7.71197 20.2646 7.77443 20.2222C7.84771 20.1723 7.92915 20.1101 8.01547 20.0399C8.18875 19.8992 8.40231 19.7096 8.64411 19.483C9.12884 19.0289 9.74457 18.4096 10.4091 17.6967C11.7354 16.2737 13.2775 14.4546 14.3687 12.8061L13.5348 12.2541C12.4867 13.8376 10.9859 15.6112 9.67755 17.0149C9.02468 17.7153 8.42506 18.3179 7.96039 18.7533C7.7275 18.9715 7.53285 19.1436 7.38489 19.2638C7.31059 19.3242 7.25317 19.3673 7.21188 19.3954C7.15978 19.4308 7.16311 19.4217 7.20177 19.4089L7.51632 20.3582ZM29.2421 14.9556C31.1992 16.4542 32.6882 17.1575 34.025 16.981C35.3718 16.8032 36.3769 15.7562 37.4268 14.3508L36.6257 13.7523C35.5661 15.1706 34.7837 15.8722 33.8941 15.9896C32.9945 16.1084 31.7982 15.6534 29.85 14.1617L29.2421 14.9556ZM37.4697 14.2825C38.7725 11.7812 39.1505 10.2602 39.4255 7.50853L38.4305 7.4091C38.1659 10.0561 37.8174 11.4502 36.5828 13.8205L37.4697 14.2825ZM38.5357 7.14875C37.6288 8.29603 37.0182 9.27454 36.694 10.3659C36.3689 11.4601 36.3453 12.6212 36.53 14.113L37.5224 13.9901C37.3464 12.5684 37.3822 11.5607 37.6526 10.6507C37.9237 9.73791 38.4444 8.87682 39.3202 7.76888L38.5357 7.14875ZM36.5314 14.1232C36.8699 16.4612 37.1327 17.4993 37.7029 18.9279L38.6317 18.5571C38.1002 17.2257 37.8527 16.2705 37.5211 13.9799L36.5314 14.1232ZM38.4776 19.1345C39.8894 18.0169 40.761 16.9406 41.1884 15.5838C41.6093 14.2476 41.5784 12.7007 41.3258 10.6928L40.3336 10.8176C40.5829 12.799 40.5872 14.1641 40.2346 15.2833C39.8886 16.382 39.1781 17.3046 37.8569 18.3505L38.4776 19.1345ZM40.3806 10.5354C39.463 12.4106 38.9538 13.9268 38.7694 15.4906C38.5855 17.0504 38.729 18.6239 39.0691 20.6022L40.0547 20.4327C39.7205 18.4891 39.5953 17.0262 39.7626 15.6077C39.9293 14.1931 40.3912 12.7891 41.2788 10.9749L40.3806 10.5354ZM39.1111 20.7338C39.5039 21.5521 39.8671 22.1447 40.3109 22.6027C40.7616 23.0677 41.2677 23.3659 41.8992 23.6388L42.2959 22.7209C41.7342 22.4781 41.3562 22.2444 41.0291 21.9068C40.6952 21.5622 40.3872 21.0814 40.0127 20.3011L39.1111 20.7338ZM34.6947 30.8615C35.0847 29.9752 35.0826 29.2307 34.9892 27.961L33.9919 28.0343C34.0841 29.2881 34.0625 29.8153 33.7794 30.4587L34.6947 30.8615ZM34.7137 27.5502C33.198 26.7942 32.4238 26.6533 31.1311 26.4874L31.0038 27.4793C32.2225 27.6357 32.8805 27.7533 34.2674 28.4451L34.7137 27.5502ZM30.7885 26.5685C30.6233 26.6795 30.3969 26.8387 30.2147 26.968C30.123 27.0331 30.0414 27.0914 29.9827 27.1334C29.9533 27.1544 29.9297 27.1714 29.9133 27.1831C29.9052 27.189 29.8988 27.1936 29.8945 27.1967C29.8923 27.1982 29.8907 27.1994 29.8895 27.2002C29.889 27.2006 29.8885 27.2009 29.8883 27.2012C29.8881 27.2013 29.888 27.2013 29.8879 27.2014C29.8879 27.2014 29.8878 27.2015 29.8878 27.2015C29.8878 27.2015 29.8878 27.2015 29.8878 27.2015C29.8878 27.2015 29.8878 27.2015 30.18 27.6072C30.4721 28.013 30.4721 28.013 30.4721 28.013C30.4722 28.013 30.4722 28.013 30.4722 28.013C30.4722 28.013 30.4722 28.013 30.4722 28.0129C30.4723 28.0129 30.4724 28.0128 30.4725 28.0127C30.4728 28.0125 30.4732 28.0123 30.4737 28.0119C30.4747 28.0111 30.4763 28.01 30.4784 28.0085C30.4825 28.0055 30.4887 28.0011 30.4967 27.9953C30.5127 27.9838 30.5359 27.9672 30.5649 27.9465C30.6227 27.905 30.7032 27.8476 30.7935 27.7835C30.9753 27.6544 31.1927 27.5017 31.3464 27.3983L30.7885 26.5685ZM30.0181 27.1342C29.6406 27.2633 29.2677 27.5239 28.9197 27.8446C28.5666 28.1701 28.2131 28.5818 27.8771 29.0485C27.2054 29.9815 26.5807 31.1663 26.1572 32.3994L27.1029 32.7242C27.4948 31.5833 28.0744 30.486 28.6887 29.6328C28.9956 29.2064 29.3054 28.8491 29.5974 28.5799C29.8947 28.3059 30.1488 28.1464 30.3418 28.0803L30.0181 27.1342ZM26.9554 32.9415C27.4182 32.5449 27.8982 32.1821 28.3776 31.801C28.8468 31.428 29.31 31.0413 29.6884 30.6269C30.0675 30.2116 30.3852 29.7431 30.5337 29.199C30.6852 28.6433 30.6487 28.0511 30.389 27.4176L29.4638 27.7969C29.6478 28.246 29.6571 28.6123 29.5689 28.9358C29.4775 29.2708 29.2697 29.6023 28.9498 29.9527C28.6292 30.3039 28.22 30.6488 27.7553 31.0182C27.3011 31.3793 26.786 31.7698 26.3047 32.1822L26.9554 32.9415ZM30.4243 27.5618C30.2941 26.1339 29.718 24.8596 29.1897 23.9556C28.9238 23.5008 28.6658 23.1325 28.4733 22.8768C28.3769 22.7487 28.2967 22.6485 28.2396 22.5793C28.2111 22.5447 28.1884 22.5178 28.1723 22.499C28.1642 22.4896 28.1578 22.4822 28.1532 22.477C28.1509 22.4743 28.1491 22.4722 28.1477 22.4706C28.147 22.4698 28.1464 22.4692 28.1459 22.4686C28.1457 22.4684 28.1455 22.4681 28.1453 22.4679C28.1452 22.4678 28.1451 22.4677 28.1451 22.4676C28.1449 22.4675 28.1449 22.4674 27.7711 22.7995C27.3973 23.1317 27.3972 23.1316 27.3972 23.1315C27.3972 23.1315 27.3971 23.1314 27.3971 23.1314C27.397 23.1313 27.397 23.1313 27.397 23.1312C27.397 23.1312 27.3971 23.1314 27.3973 23.1316C27.3977 23.1321 27.3986 23.1331 27.3999 23.1346C27.4026 23.1377 27.407 23.1427 27.413 23.1498C27.4251 23.1638 27.4437 23.1858 27.4679 23.2152C27.5164 23.2741 27.5875 23.3628 27.6743 23.4781C27.8481 23.7091 28.0836 24.045 28.3263 24.4603C28.8151 25.2965 29.3166 26.4261 29.4285 27.6526L30.4243 27.5618ZM27.3632 22.5103C26.7476 23.3786 26.3529 24.1907 26.1606 25.205C25.9714 26.2032 25.984 27.3687 26.1323 28.9323L27.1278 28.8379C26.9821 27.3012 26.9806 26.2485 27.1431 25.3912C27.3025 24.5501 27.6253 23.8696 28.179 23.0887L27.3632 22.5103ZM26.9566 29.2637C29.0404 27.4664 30.5621 26.3825 31.951 25.9281C33.2924 25.4893 34.5552 25.6252 36.1722 26.4181L36.6124 25.5202C34.8214 24.642 33.2861 24.4392 31.6401 24.9777C30.0414 25.5007 28.3861 26.7102 26.3035 28.5065L26.9566 29.2637ZM36.0146 26.2967C37.2145 27.6804 37.8345 28.7659 37.9827 29.6534C38.1214 30.4834 37.8572 31.2075 37.0664 31.9419L37.7468 32.6747C38.7309 31.7608 39.1741 30.7158 38.969 29.4886C38.7736 28.3188 37.999 27.0588 36.7701 25.6415L36.0146 26.2967ZM36.979 32.0492C36.4264 32.9611 35.9814 33.7537 35.5267 34.4838C35.0798 35.2014 34.6675 35.7838 34.2333 36.2152C33.8051 36.6406 33.3711 36.9036 32.8791 37.0077C32.3842 37.1125 31.7766 37.0679 30.9832 36.7823L30.6445 37.7232C31.5584 38.0522 32.3601 38.1397 33.0861 37.9861C33.8149 37.8318 34.4133 37.446 34.9381 36.9245C35.457 36.4089 35.9186 35.7461 36.3755 35.0125C36.8247 34.2913 37.3136 33.4266 37.8342 32.5674L36.979 32.0492ZM31.0761 36.8271C29.5721 35.9006 28.1103 34.9457 27.2953 34.545C27.0952 34.4466 26.8859 34.3566 26.705 34.3223C26.6231 34.3067 26.4655 34.2853 26.3017 34.3497C26.2085 34.3863 26.113 34.4513 26.041 34.5535C25.9706 34.6535 25.9437 34.7593 25.9369 34.8464C25.9245 35.003 25.9732 35.1411 26.009 35.2262C26.05 35.3234 26.1068 35.4248 26.1717 35.5273C26.302 35.7331 26.4952 35.9903 26.7504 36.3018L27.5239 35.6681C27.2782 35.3682 27.1148 35.1474 27.0166 34.9923C26.9672 34.9144 26.9418 34.8646 26.9305 34.8378C26.9141 34.7989 26.9405 34.8402 26.9338 34.9251C26.9297 34.9764 26.9126 35.0526 26.8588 35.1291C26.8034 35.2078 26.7311 35.2553 26.6677 35.2803C26.5634 35.3213 26.4912 35.2995 26.5186 35.3047C26.5562 35.3119 26.661 35.3475 26.8541 35.4424C27.6122 35.8151 28.9906 36.7169 30.5516 37.6785L31.0761 36.8271ZM26.8673 36.4059C27.6404 36.9015 28.3182 37.265 28.8772 37.5704C29.4476 37.8821 29.8668 38.1195 30.1806 38.3772C30.4786 38.6219 30.6634 38.8711 30.7676 39.2017C30.8767 39.5477 30.9106 40.0244 30.8246 40.7433L31.8175 40.8621C31.9117 40.0746 31.8906 39.4381 31.7213 38.9011C31.5472 38.3487 31.2303 37.9452 30.8152 37.6043C30.4158 37.2764 29.9104 36.9954 29.3566 36.6928C28.7914 36.384 28.1454 36.0374 27.407 35.564L26.8673 36.4059ZM30.8231 40.7575C30.5772 43.4649 30.4018 45.5814 30.0942 47.268C29.7869 48.9519 29.3584 50.1375 28.6505 51.0109L29.4274 51.6405C30.2917 50.574 30.7595 49.1927 31.0779 47.4474C31.3958 45.7047 31.5754 43.5297 31.819 40.8479L30.8231 40.7575ZM28.5906 51.547C29.1655 52.7119 29.2012 53.6169 28.9237 55.697L29.9149 55.8292C30.1997 53.6949 30.1974 52.543 29.4873 51.1044L28.5906 51.547ZM17.383 56.4276C17.5457 59.0795 17.9623 60.9978 18.9722 62.4268C19.992 63.87 21.5587 64.7346 23.8224 65.4214L24.1128 64.4645C21.9354 63.8039 20.6207 63.0269 19.7888 61.8497C18.9469 60.6583 18.5413 58.9773 18.3811 56.3664L17.383 56.4276ZM23.8224 65.4214C23.9078 65.4473 23.9941 65.4729 24.0815 65.4983L24.3608 64.5381C24.277 64.5137 24.1943 64.4892 24.1128 64.4645L23.8224 65.4214ZM23.7212 65.0106L23.4677 81.4923L24.4675 81.5077L24.7211 65.0259L23.7212 65.0106Z" fill="url(#paint0_linear_662_5579)"/>
<path d="M13.9516 12.5301C10.2749 4.41601 7.60257 7.10334 5.83746 2.00713C-0.772506 10.5528 0.639707 20.1371 2.79467 27.2369C3.59156 26.1127 4.58774 24.9396 5.71102 23.7638M29.5462 14.8122C26.9981 13.2029 25.5085 12.4936 22.6999 11.7694C19.4465 12.3991 11.1104 18.1119 5.71102 23.7638M29.5462 14.8122C31.2615 10.6824 32.6156 8.76115 35.1247 5.43027C36.4211 4.10732 36.8985 3.21609 37.5335 1.5C43.4781 8.734 43.8025 13.682 42.0977 23.1799M29.5462 14.8122C28.894 16.7381 32.4433 18.5427 37.5335 21.5317C43.392 25.6485 44.1557 30.1856 44.3798 39.2813V48.79C42.6465 46.7156 41.6749 46.5304 39.9424 48.79C38.3839 55.7307 37.0552 59.0496 32.7158 62.4826C28.1624 65.6814 26.1762 67.7017 25.6159 72.4984C25.1402 75.0012 24.837 76.4095 23.9678 78.9643C21.0087 70.8145 19.2126 66.9609 15.2197 64.2575C11.9997 61.0302 10.9124 58.7608 10.0216 53.9881C8.15463 49.8965 6.67678 48.1941 2.66823 47.0151C0.789512 36.7869 1.98662 32.6358 5.71102 26.3494M5.71102 23.7638L6.21816 35.7314C6.24813 39.9382 7.3153 41.9688 11.2895 44.9865C14.307 47.4377 15.3175 48.9825 15.7269 52.0864C16.046 54.1437 16.5501 55.0163 18.2625 55.8899H29.0391M34.364 30.6601C38.2256 31.7276 38.8165 33.809 38.5478 38.7742C35.6592 41.9365 34.2577 43.811 33.0961 47.7758C32.2249 50.9844 31.5621 52.764 29.9266 55.8899H29.0391M34.364 30.6601C31.2579 28.542 30.5605 29.7726 27.898 34.4635C29.0279 33.5197 30.0257 33.3161 32.0819 33.1957C33.4518 32.4883 33.973 31.9414 34.364 30.6601ZM29.0391 55.8899C27.9405 58.0164 27.0494 58.8219 24.6017 59.0594C21.8108 59.1971 20.3549 58.584 17.8822 56.397M16.1072 35.7314C16.5435 30.9922 14.9227 30.1259 10.402 30.1529C10.8055 32.3404 11.6999 33.1169 14.3323 33.8296C15.2477 34.0678 15.6462 34.4742 16.1072 35.7314ZM19.0232 49.2971C19.7616 47.0153 21.2496 47.4851 23.3338 47.3954C26.0887 47.3165 26.9923 47.8177 27.898 49.2971C28.1185 51.4794 27.7554 52.3116 25.6159 52.5935C24.3882 51.6942 24.607 51.2695 25.6159 50.565C27.4651 49.9309 28.3131 49.9152 29.0391 51.3257C28.3685 52.6597 27.7991 53.0979 26.3766 53.2274C25.1448 53.548 24.4877 53.7938 23.7142 55.0024C23.2519 53.6911 22.8323 53.4132 21.8124 53.6078C19.8624 53.4844 19.2146 52.7873 19.0232 50.1846C19.884 51.8855 20.2055 52.1325 20.6714 52.0864C22.0134 50.0755 22.4629 49.9856 22.8267 51.3257C22.9896 53.5586 22.2858 53.0448 20.6714 51.3257C20.3497 49.7512 20.0013 49.2768 19.0232 49.2971Z" stroke="white"/>
<defs>
<linearGradient id="paint0_linear_662_5579" x1="42.0976" y1="81.5" x2="0.814287" y2="79.3588" gradientUnits="userSpaceOnUse">
<stop offset="0.302585" stop-color="#6E10A1"/>
<stop offset="1" stop-color="#B376D4"/>
</linearGradient>
</defs>
</svg>
