<svg width="484" height="468" viewBox="0 0 484 468" fill="none" xmlns="http://www.w3.org/2000/svg">
<g filter="url(#filter0_d_2364_5102)">
<rect x="40" y="36" width="404" height="388" rx="30" fill="#050607"/>
<rect x="41" y="37" width="402" height="386" rx="29" stroke="white" stroke-width="2"/>
</g>
<path d="M97.9812 333.336C97.9812 333.456 97.9212 333.516 97.8012 333.516H93.6612C93.6132 333.516 93.5892 333.54 93.5892 333.588V338.052C93.5892 338.1 93.6132 338.124 93.6612 338.124H96.2712C96.3912 338.124 96.4512 338.184 96.4512 338.304V339.078C96.4512 339.198 96.3912 339.258 96.2712 339.258H93.6612C93.6132 339.258 93.5892 339.282 93.5892 339.33V344.82C93.5892 344.94 93.5292 345 93.4092 345H92.4912C92.3712 345 92.3112 344.94 92.3112 344.82V332.58C92.3112 332.46 92.3712 332.4 92.4912 332.4H97.8012C97.9212 332.4 97.9812 332.46 97.9812 332.58V333.336ZM101.664 335.748C102.504 335.748 103.176 336.024 103.68 336.576C104.184 337.116 104.436 337.842 104.436 338.754V344.82C104.436 344.94 104.376 345 104.256 345H103.338C103.218 345 103.158 344.94 103.158 344.82V344.28C103.158 344.256 103.146 344.244 103.122 344.244C103.11 344.232 103.092 344.238 103.068 344.262C102.624 344.85 101.958 345.144 101.07 345.144C100.41 345.144 99.8336 344.958 99.3416 344.586C98.8616 344.202 98.6216 343.53 98.6216 342.57C98.6216 341.55 98.9156 340.806 99.5036 340.338C100.092 339.858 100.866 339.618 101.826 339.618H103.086C103.134 339.618 103.158 339.594 103.158 339.546V338.844C103.158 338.244 103.02 337.764 102.744 337.404C102.468 337.044 102.096 336.864 101.628 336.864C101.268 336.864 100.956 336.984 100.692 337.224C100.44 337.464 100.29 337.77 100.242 338.142C100.242 338.262 100.182 338.322 100.062 338.322L99.0536 338.304C98.9936 338.304 98.9456 338.286 98.9096 338.25C98.8856 338.214 98.8796 338.172 98.8916 338.124C98.9516 337.416 99.2396 336.846 99.7556 336.414C100.272 335.97 100.908 335.748 101.664 335.748ZM101.34 344.028C101.832 344.028 102.258 343.872 102.618 343.56C102.978 343.236 103.158 342.792 103.158 342.228V340.716C103.158 340.668 103.134 340.644 103.086 340.644H101.808C101.232 340.644 100.776 340.8 100.44 341.112C100.104 341.412 99.9356 341.862 99.9356 342.462C99.9356 342.99 100.062 343.386 100.314 343.65C100.578 343.902 100.92 344.028 101.34 344.028ZM106.327 345C106.207 345 106.147 344.94 106.147 344.82V332.58C106.147 332.46 106.207 332.4 106.327 332.4H107.245C107.365 332.4 107.425 332.46 107.425 332.58V344.82C107.425 344.94 107.365 345 107.245 345H106.327ZM111.991 335.748C112.831 335.748 113.503 336.024 114.007 336.576C114.511 337.116 114.763 337.842 114.763 338.754V344.82C114.763 344.94 114.703 345 114.583 345H113.665C113.545 345 113.485 344.94 113.485 344.82V344.28C113.485 344.256 113.473 344.244 113.449 344.244C113.437 344.232 113.419 344.238 113.395 344.262C112.951 344.85 112.285 345.144 111.397 345.144C110.737 345.144 110.161 344.958 109.669 344.586C109.189 344.202 108.949 343.53 108.949 342.57C108.949 341.55 109.243 340.806 109.831 340.338C110.419 339.858 111.193 339.618 112.153 339.618H113.413C113.461 339.618 113.485 339.594 113.485 339.546V338.844C113.485 338.244 113.347 337.764 113.071 337.404C112.795 337.044 112.423 336.864 111.955 336.864C111.595 336.864 111.283 336.984 111.019 337.224C110.767 337.464 110.617 337.77 110.569 338.142C110.569 338.262 110.509 338.322 110.389 338.322L109.381 338.304C109.321 338.304 109.273 338.286 109.237 338.25C109.213 338.214 109.207 338.172 109.219 338.124C109.279 337.416 109.567 336.846 110.083 336.414C110.599 335.97 111.235 335.748 111.991 335.748ZM111.667 344.028C112.159 344.028 112.585 343.872 112.945 343.56C113.305 343.236 113.485 342.792 113.485 342.228V340.716C113.485 340.668 113.461 340.644 113.413 340.644H112.135C111.559 340.644 111.103 340.8 110.767 341.112C110.431 341.412 110.263 341.862 110.263 342.462C110.263 342.99 110.389 343.386 110.641 343.65C110.905 343.902 111.247 344.028 111.667 344.028ZM119.661 335.802C119.961 335.802 120.219 335.868 120.435 336C120.519 336.048 120.549 336.126 120.525 336.234L120.309 337.17C120.297 337.278 120.225 337.314 120.093 337.278C119.949 337.206 119.769 337.17 119.553 337.17C119.457 337.17 119.385 337.176 119.337 337.188C118.905 337.212 118.551 337.44 118.275 337.872C117.999 338.292 117.861 338.808 117.861 339.42V344.82C117.861 344.94 117.801 345 117.681 345H116.763C116.643 345 116.583 344.94 116.583 344.82V336.072C116.583 335.952 116.643 335.892 116.763 335.892H117.681C117.801 335.892 117.861 335.952 117.861 336.072V337.152C117.861 337.188 117.867 337.206 117.879 337.206C117.903 337.206 117.927 337.194 117.951 337.17C118.299 336.258 118.869 335.802 119.661 335.802ZM127.746 335.748C128.586 335.748 129.258 336.024 129.762 336.576C130.266 337.116 130.518 337.842 130.518 338.754V344.82C130.518 344.94 130.458 345 130.338 345H129.42C129.3 345 129.24 344.94 129.24 344.82V344.28C129.24 344.256 129.228 344.244 129.204 344.244C129.192 344.232 129.174 344.238 129.15 344.262C128.706 344.85 128.04 345.144 127.152 345.144C126.492 345.144 125.916 344.958 125.424 344.586C124.944 344.202 124.704 343.53 124.704 342.57C124.704 341.55 124.998 340.806 125.586 340.338C126.174 339.858 126.948 339.618 127.908 339.618H129.168C129.216 339.618 129.24 339.594 129.24 339.546V338.844C129.24 338.244 129.102 337.764 128.826 337.404C128.55 337.044 128.178 336.864 127.71 336.864C127.35 336.864 127.038 336.984 126.774 337.224C126.522 337.464 126.372 337.77 126.324 338.142C126.324 338.262 126.264 338.322 126.144 338.322L125.136 338.304C125.076 338.304 125.028 338.286 124.992 338.25C124.968 338.214 124.962 338.172 124.974 338.124C125.034 337.416 125.322 336.846 125.838 336.414C126.354 335.97 126.99 335.748 127.746 335.748ZM127.422 344.028C127.914 344.028 128.34 343.872 128.7 343.56C129.06 343.236 129.24 342.792 129.24 342.228V340.716C129.24 340.668 129.216 340.644 129.168 340.644H127.89C127.314 340.644 126.858 340.8 126.522 341.112C126.186 341.412 126.018 341.862 126.018 342.462C126.018 342.99 126.144 343.386 126.396 343.65C126.66 343.902 127.002 344.028 127.422 344.028ZM137.543 345C137.435 345 137.369 344.946 137.345 344.838L135.113 336.09L135.095 336.018C135.095 335.934 135.149 335.892 135.257 335.892H136.301C136.409 335.892 136.475 335.946 136.499 336.054L138.047 342.876C138.059 342.912 138.071 342.93 138.083 342.93C138.095 342.93 138.107 342.912 138.119 342.876L139.649 336.054C139.673 335.946 139.739 335.892 139.847 335.892L140.891 335.91C140.951 335.91 140.993 335.928 141.017 335.964C141.053 336 141.059 336.048 141.035 336.108L138.821 344.838C138.809 344.946 138.743 345 138.623 345H137.543ZM147.714 340.752C147.714 340.872 147.654 340.932 147.534 340.932H143.43C143.382 340.932 143.358 340.956 143.358 341.004V342.318C143.358 342.822 143.496 343.236 143.772 343.56C144.06 343.872 144.432 344.028 144.888 344.028C145.272 344.028 145.596 343.914 145.86 343.686C146.136 343.446 146.316 343.14 146.4 342.768C146.436 342.66 146.502 342.606 146.598 342.606L147.498 342.642C147.546 342.642 147.588 342.66 147.624 342.696C147.66 342.732 147.672 342.78 147.66 342.84C147.564 343.548 147.27 344.112 146.778 344.532C146.298 344.94 145.668 345.144 144.888 345.144C144.036 345.144 143.352 344.892 142.836 344.388C142.332 343.884 142.08 343.218 142.08 342.39V338.502C142.08 337.686 142.332 337.026 142.836 336.522C143.352 336.006 144.036 335.748 144.888 335.748C145.752 335.748 146.436 336.006 146.94 336.522C147.456 337.026 147.714 337.686 147.714 338.502V340.752ZM144.888 336.864C144.432 336.864 144.06 337.026 143.772 337.35C143.496 337.662 143.358 338.076 143.358 338.592V339.798C143.358 339.846 143.382 339.87 143.43 339.87H146.382C146.43 339.87 146.454 339.846 146.454 339.798V338.592C146.454 338.076 146.31 337.662 146.022 337.35C145.734 337.026 145.356 336.864 144.888 336.864ZM152.506 335.802C152.806 335.802 153.064 335.868 153.28 336C153.364 336.048 153.394 336.126 153.37 336.234L153.154 337.17C153.142 337.278 153.07 337.314 152.938 337.278C152.794 337.206 152.614 337.17 152.398 337.17C152.302 337.17 152.23 337.176 152.182 337.188C151.75 337.212 151.396 337.44 151.12 337.872C150.844 338.292 150.706 338.808 150.706 339.42V344.82C150.706 344.94 150.646 345 150.526 345H149.608C149.488 345 149.428 344.94 149.428 344.82V336.072C149.428 335.952 149.488 335.892 149.608 335.892H150.526C150.646 335.892 150.706 335.952 150.706 336.072V337.152C150.706 337.188 150.712 337.206 150.724 337.206C150.748 337.206 150.772 337.194 150.796 337.17C151.144 336.258 151.714 335.802 152.506 335.802ZM158.574 332.58C158.574 332.46 158.634 332.4 158.754 332.4H159.672C159.792 332.4 159.852 332.46 159.852 332.58V344.82C159.852 344.94 159.792 345 159.672 345H158.754C158.634 345 158.574 344.94 158.574 344.82V344.424C158.574 344.4 158.562 344.382 158.538 344.37C158.526 344.358 158.508 344.364 158.484 344.388C158.028 344.892 157.452 345.144 156.756 345.144C155.988 345.144 155.376 344.892 154.92 344.388C154.464 343.872 154.236 343.206 154.236 342.39V338.502C154.236 337.662 154.464 336.996 154.92 336.504C155.376 336 155.988 335.748 156.756 335.748C157.464 335.748 158.04 336.006 158.484 336.522C158.508 336.546 158.526 336.552 158.538 336.54C158.562 336.528 158.574 336.51 158.574 336.486V332.58ZM157.062 344.028C157.506 344.028 157.866 343.872 158.142 343.56C158.43 343.236 158.574 342.822 158.574 342.318V338.592C158.574 338.076 158.43 337.662 158.142 337.35C157.866 337.026 157.506 336.864 157.062 336.864C156.606 336.864 156.228 337.026 155.928 337.35C155.64 337.662 155.496 338.076 155.496 338.592V342.318C155.496 342.822 155.64 343.236 155.928 343.56C156.228 343.872 156.606 344.028 157.062 344.028ZM164.529 335.748C165.369 335.748 166.041 336.024 166.545 336.576C167.049 337.116 167.301 337.842 167.301 338.754V344.82C167.301 344.94 167.241 345 167.121 345H166.203C166.083 345 166.023 344.94 166.023 344.82V344.28C166.023 344.256 166.011 344.244 165.987 344.244C165.975 344.232 165.957 344.238 165.933 344.262C165.489 344.85 164.823 345.144 163.935 345.144C163.275 345.144 162.699 344.958 162.207 344.586C161.727 344.202 161.487 343.53 161.487 342.57C161.487 341.55 161.781 340.806 162.369 340.338C162.957 339.858 163.731 339.618 164.691 339.618H165.951C165.999 339.618 166.023 339.594 166.023 339.546V338.844C166.023 338.244 165.885 337.764 165.609 337.404C165.333 337.044 164.961 336.864 164.493 336.864C164.133 336.864 163.821 336.984 163.557 337.224C163.305 337.464 163.155 337.77 163.107 338.142C163.107 338.262 163.047 338.322 162.927 338.322L161.919 338.304C161.859 338.304 161.811 338.286 161.775 338.25C161.751 338.214 161.745 338.172 161.757 338.124C161.817 337.416 162.105 336.846 162.621 336.414C163.137 335.97 163.773 335.748 164.529 335.748ZM164.205 344.028C164.697 344.028 165.123 343.872 165.483 343.56C165.843 343.236 166.023 342.792 166.023 342.228V340.716C166.023 340.668 165.999 340.644 165.951 340.644H164.673C164.097 340.644 163.641 340.8 163.305 341.112C162.969 341.412 162.801 341.862 162.801 342.462C162.801 342.99 162.927 343.386 163.179 343.65C163.443 343.902 163.785 344.028 164.205 344.028ZM173.261 332.58C173.261 332.46 173.321 332.4 173.441 332.4H174.359C174.479 332.4 174.539 332.46 174.539 332.58V344.82C174.539 344.94 174.479 345 174.359 345H173.441C173.321 345 173.261 344.94 173.261 344.82V344.424C173.261 344.4 173.249 344.382 173.225 344.37C173.213 344.358 173.195 344.364 173.171 344.388C172.715 344.892 172.139 345.144 171.443 345.144C170.675 345.144 170.063 344.892 169.607 344.388C169.151 343.872 168.923 343.206 168.923 342.39V338.502C168.923 337.662 169.151 336.996 169.607 336.504C170.063 336 170.675 335.748 171.443 335.748C172.151 335.748 172.727 336.006 173.171 336.522C173.195 336.546 173.213 336.552 173.225 336.54C173.249 336.528 173.261 336.51 173.261 336.486V332.58ZM171.749 344.028C172.193 344.028 172.553 343.872 172.829 343.56C173.117 343.236 173.261 342.822 173.261 342.318V338.592C173.261 338.076 173.117 337.662 172.829 337.35C172.553 337.026 172.193 336.864 171.749 336.864C171.293 336.864 170.915 337.026 170.615 337.35C170.327 337.662 170.183 338.076 170.183 338.592V342.318C170.183 342.822 170.327 343.236 170.615 343.56C170.915 343.872 171.293 344.028 171.749 344.028ZM181.988 340.752C181.988 340.872 181.928 340.932 181.808 340.932H177.704C177.656 340.932 177.632 340.956 177.632 341.004V342.318C177.632 342.822 177.77 343.236 178.046 343.56C178.334 343.872 178.706 344.028 179.162 344.028C179.546 344.028 179.87 343.914 180.134 343.686C180.41 343.446 180.59 343.14 180.674 342.768C180.71 342.66 180.776 342.606 180.872 342.606L181.772 342.642C181.82 342.642 181.862 342.66 181.898 342.696C181.934 342.732 181.946 342.78 181.934 342.84C181.838 343.548 181.544 344.112 181.052 344.532C180.572 344.94 179.942 345.144 179.162 345.144C178.31 345.144 177.626 344.892 177.11 344.388C176.606 343.884 176.354 343.218 176.354 342.39V338.502C176.354 337.686 176.606 337.026 177.11 336.522C177.626 336.006 178.31 335.748 179.162 335.748C180.026 335.748 180.71 336.006 181.214 336.522C181.73 337.026 181.988 337.686 181.988 338.502V340.752ZM179.162 336.864C178.706 336.864 178.334 337.026 178.046 337.35C177.77 337.662 177.632 338.076 177.632 338.592V339.798C177.632 339.846 177.656 339.87 177.704 339.87H180.656C180.704 339.87 180.728 339.846 180.728 339.798V338.592C180.728 338.076 180.584 337.662 180.296 337.35C180.008 337.026 179.63 336.864 179.162 336.864ZM189.502 345.09C188.674 345.09 188.008 344.88 187.504 344.46C187.012 344.028 186.766 343.458 186.766 342.75V342.624C186.766 342.504 186.826 342.444 186.946 342.444H187.81C187.93 342.444 187.99 342.504 187.99 342.624V342.732C187.99 343.116 188.128 343.44 188.404 343.704C188.692 343.968 189.064 344.1 189.52 344.1C189.952 344.1 190.3 343.968 190.564 343.704C190.828 343.44 190.96 343.104 190.96 342.696C190.96 342.384 190.876 342.126 190.708 341.922C190.54 341.706 190.342 341.538 190.114 341.418C189.898 341.298 189.568 341.142 189.124 340.95C188.656 340.758 188.266 340.572 187.954 340.392C187.654 340.2 187.39 339.936 187.162 339.6C186.946 339.252 186.838 338.814 186.838 338.286C186.838 337.518 187.072 336.912 187.54 336.468C188.02 336.024 188.662 335.802 189.466 335.802C190.282 335.802 190.93 336.03 191.41 336.486C191.89 336.942 192.13 337.548 192.13 338.304V338.358C192.13 338.478 192.07 338.538 191.95 338.538H191.122C191.002 338.538 190.942 338.478 190.942 338.358V338.25C190.942 337.842 190.804 337.506 190.528 337.242C190.264 336.978 189.916 336.846 189.484 336.846C189.052 336.846 188.704 336.984 188.44 337.26C188.188 337.524 188.062 337.854 188.062 338.25C188.062 338.538 188.14 338.784 188.296 338.988C188.452 339.18 188.644 339.342 188.872 339.474C189.1 339.594 189.418 339.744 189.826 339.924C190.318 340.14 190.72 340.344 191.032 340.536C191.356 340.728 191.638 340.998 191.878 341.346C192.118 341.694 192.238 342.126 192.238 342.642C192.238 343.386 191.992 343.98 191.5 344.424C191.008 344.868 190.342 345.09 189.502 345.09ZM199.114 340.752C199.114 340.872 199.054 340.932 198.934 340.932H194.83C194.782 340.932 194.758 340.956 194.758 341.004V342.318C194.758 342.822 194.896 343.236 195.172 343.56C195.46 343.872 195.832 344.028 196.288 344.028C196.672 344.028 196.996 343.914 197.26 343.686C197.536 343.446 197.716 343.14 197.8 342.768C197.836 342.66 197.902 342.606 197.998 342.606L198.898 342.642C198.946 342.642 198.988 342.66 199.024 342.696C199.06 342.732 199.072 342.78 199.06 342.84C198.964 343.548 198.67 344.112 198.178 344.532C197.698 344.94 197.068 345.144 196.288 345.144C195.436 345.144 194.752 344.892 194.236 344.388C193.732 343.884 193.48 343.218 193.48 342.39V338.502C193.48 337.686 193.732 337.026 194.236 336.522C194.752 336.006 195.436 335.748 196.288 335.748C197.152 335.748 197.836 336.006 198.34 336.522C198.856 337.026 199.114 337.686 199.114 338.502V340.752ZM196.288 336.864C195.832 336.864 195.46 337.026 195.172 337.35C194.896 337.662 194.758 338.076 194.758 338.592V339.798C194.758 339.846 194.782 339.87 194.83 339.87H197.782C197.83 339.87 197.854 339.846 197.854 339.798V338.592C197.854 338.076 197.71 337.662 197.422 337.35C197.134 337.026 196.756 336.864 196.288 336.864ZM208.118 335.766C208.838 335.766 209.396 336.03 209.792 336.558C210.188 337.086 210.386 337.818 210.386 338.754V344.82C210.386 344.94 210.326 345 210.206 345H209.306C209.186 345 209.126 344.94 209.126 344.82V338.862C209.126 338.25 208.994 337.77 208.73 337.422C208.478 337.062 208.142 336.882 207.722 336.882C207.266 336.882 206.906 337.056 206.642 337.404C206.378 337.752 206.246 338.226 206.246 338.826V344.82C206.246 344.94 206.186 345 206.066 345H205.148C205.028 345 204.968 344.94 204.968 344.82V338.862C204.968 338.25 204.836 337.77 204.572 337.422C204.32 337.062 203.99 336.882 203.582 336.882C203.126 336.882 202.76 337.056 202.484 337.404C202.22 337.752 202.088 338.226 202.088 338.826V344.82C202.088 344.94 202.028 345 201.908 345H201.008C200.888 345 200.828 344.94 200.828 344.82V336.072C200.828 335.952 200.888 335.892 201.008 335.892H201.908C202.028 335.892 202.088 335.952 202.088 336.072V336.63C202.088 336.654 202.094 336.672 202.106 336.684C202.13 336.684 202.154 336.672 202.178 336.648C202.406 336.348 202.676 336.126 202.988 335.982C203.3 335.838 203.63 335.766 203.978 335.766C204.434 335.766 204.83 335.88 205.166 336.108C205.502 336.324 205.76 336.636 205.94 337.044C205.952 337.068 205.97 337.08 205.994 337.08C206.018 337.08 206.036 337.062 206.048 337.026C206.264 336.594 206.558 336.276 206.93 336.072C207.302 335.868 207.698 335.766 208.118 335.766ZM215.524 335.748C216.28 335.748 216.886 336.006 217.342 336.522C217.798 337.026 218.026 337.686 218.026 338.502V342.39C218.026 343.23 217.798 343.902 217.342 344.406C216.886 344.898 216.28 345.144 215.524 345.144C215.188 345.144 214.87 345.084 214.57 344.964C214.27 344.832 214.006 344.634 213.778 344.37C213.754 344.346 213.73 344.34 213.706 344.352C213.694 344.364 213.688 344.382 213.688 344.406V348.312C213.688 348.432 213.628 348.492 213.508 348.492H212.59C212.47 348.492 212.41 348.432 212.41 348.312V336.072C212.41 335.952 212.47 335.892 212.59 335.892H213.508C213.628 335.892 213.688 335.952 213.688 336.072V336.486C213.688 336.51 213.7 336.528 213.724 336.54C213.748 336.54 213.772 336.528 213.796 336.504C214.012 336.252 214.27 336.066 214.57 335.946C214.882 335.814 215.2 335.748 215.524 335.748ZM216.766 338.592C216.766 338.076 216.616 337.662 216.316 337.35C216.028 337.026 215.656 336.864 215.2 336.864C214.756 336.864 214.39 337.026 214.102 337.35C213.826 337.662 213.688 338.076 213.688 338.592V342.3C213.688 342.816 213.826 343.236 214.102 343.56C214.39 343.872 214.756 344.028 215.2 344.028C215.656 344.028 216.028 343.872 216.316 343.56C216.616 343.236 216.766 342.816 216.766 342.3V338.592ZM222.917 335.802C223.217 335.802 223.475 335.868 223.691 336C223.775 336.048 223.805 336.126 223.781 336.234L223.565 337.17C223.553 337.278 223.481 337.314 223.349 337.278C223.205 337.206 223.025 337.17 222.809 337.17C222.713 337.17 222.641 337.176 222.593 337.188C222.161 337.212 221.807 337.44 221.531 337.872C221.255 338.292 221.117 338.808 221.117 339.42V344.82C221.117 344.94 221.057 345 220.937 345H220.019C219.899 345 219.839 344.94 219.839 344.82V336.072C219.839 335.952 219.899 335.892 220.019 335.892H220.937C221.057 335.892 221.117 335.952 221.117 336.072V337.152C221.117 337.188 221.123 337.206 221.135 337.206C221.159 337.206 221.183 337.194 221.207 337.17C221.555 336.258 222.125 335.802 222.917 335.802ZM230.281 340.752C230.281 340.872 230.221 340.932 230.101 340.932H225.997C225.949 340.932 225.925 340.956 225.925 341.004V342.318C225.925 342.822 226.063 343.236 226.339 343.56C226.627 343.872 226.999 344.028 227.455 344.028C227.839 344.028 228.163 343.914 228.427 343.686C228.703 343.446 228.883 343.14 228.967 342.768C229.003 342.66 229.069 342.606 229.165 342.606L230.065 342.642C230.113 342.642 230.155 342.66 230.191 342.696C230.227 342.732 230.239 342.78 230.227 342.84C230.131 343.548 229.837 344.112 229.345 344.532C228.865 344.94 228.235 345.144 227.455 345.144C226.603 345.144 225.919 344.892 225.403 344.388C224.899 343.884 224.647 343.218 224.647 342.39V338.502C224.647 337.686 224.899 337.026 225.403 336.522C225.919 336.006 226.603 335.748 227.455 335.748C228.319 335.748 229.003 336.006 229.507 336.522C230.023 337.026 230.281 337.686 230.281 338.502V340.752ZM227.455 336.864C226.999 336.864 226.627 337.026 226.339 337.35C226.063 337.662 225.925 338.076 225.925 338.592V339.798C225.925 339.846 225.949 339.87 225.997 339.87H228.949C228.997 339.87 229.021 339.846 229.021 339.798V338.592C229.021 338.076 228.877 337.662 228.589 337.35C228.301 337.026 227.923 336.864 227.455 336.864ZM238.028 345.144C237.176 345.144 236.492 344.892 235.976 344.388C235.472 343.884 235.22 343.218 235.22 342.39V338.502C235.22 337.686 235.478 337.026 235.994 336.522C236.51 336.006 237.188 335.748 238.028 335.748C238.592 335.748 239.09 335.862 239.522 336.09C239.954 336.318 240.284 336.624 240.512 337.008C240.752 337.38 240.872 337.794 240.872 338.25V338.43C240.872 338.55 240.812 338.61 240.692 338.61L239.774 338.646C239.654 338.646 239.594 338.586 239.594 338.466V338.34C239.594 337.944 239.444 337.602 239.144 337.314C238.856 337.014 238.484 336.864 238.028 336.864C237.572 336.864 237.2 337.026 236.912 337.35C236.636 337.662 236.498 338.076 236.498 338.592V342.3C236.498 342.816 236.636 343.236 236.912 343.56C237.2 343.872 237.572 344.028 238.028 344.028C238.484 344.028 238.856 343.884 239.144 343.596C239.444 343.296 239.594 342.948 239.594 342.552V342.426C239.594 342.306 239.654 342.246 239.774 342.246L240.692 342.264C240.812 342.264 240.872 342.324 240.872 342.444V342.642C240.872 343.362 240.608 343.962 240.08 344.442C239.564 344.91 238.88 345.144 238.028 345.144ZM245.109 345.144C244.245 345.144 243.555 344.892 243.039 344.388C242.535 343.884 242.283 343.218 242.283 342.39V338.52C242.283 337.704 242.541 337.038 243.057 336.522C243.573 336.006 244.257 335.748 245.109 335.748C245.973 335.748 246.663 336.006 247.179 336.522C247.695 337.038 247.953 337.704 247.953 338.52V342.39C247.953 343.218 247.695 343.884 247.179 344.388C246.663 344.892 245.973 345.144 245.109 345.144ZM245.109 344.01C245.565 344.01 245.937 343.854 246.225 343.542C246.525 343.23 246.675 342.816 246.675 342.3V338.592C246.675 338.076 246.525 337.662 246.225 337.35C245.937 337.026 245.565 336.864 245.109 336.864C244.653 336.864 244.281 337.026 243.993 337.35C243.705 337.662 243.561 338.076 243.561 338.592V342.3C243.561 342.816 243.705 343.23 243.993 343.542C244.281 343.854 244.653 344.01 245.109 344.01ZM257.061 335.766C257.781 335.766 258.339 336.03 258.735 336.558C259.131 337.086 259.329 337.818 259.329 338.754V344.82C259.329 344.94 259.269 345 259.149 345H258.249C258.129 345 258.069 344.94 258.069 344.82V338.862C258.069 338.25 257.937 337.77 257.673 337.422C257.421 337.062 257.085 336.882 256.665 336.882C256.209 336.882 255.849 337.056 255.585 337.404C255.321 337.752 255.189 338.226 255.189 338.826V344.82C255.189 344.94 255.129 345 255.009 345H254.091C253.971 345 253.911 344.94 253.911 344.82V338.862C253.911 338.25 253.779 337.77 253.515 337.422C253.263 337.062 252.933 336.882 252.525 336.882C252.069 336.882 251.703 337.056 251.427 337.404C251.163 337.752 251.031 338.226 251.031 338.826V344.82C251.031 344.94 250.971 345 250.851 345H249.951C249.831 345 249.771 344.94 249.771 344.82V336.072C249.771 335.952 249.831 335.892 249.951 335.892H250.851C250.971 335.892 251.031 335.952 251.031 336.072V336.63C251.031 336.654 251.037 336.672 251.049 336.684C251.073 336.684 251.097 336.672 251.121 336.648C251.349 336.348 251.619 336.126 251.931 335.982C252.243 335.838 252.573 335.766 252.921 335.766C253.377 335.766 253.773 335.88 254.109 336.108C254.445 336.324 254.703 336.636 254.883 337.044C254.895 337.068 254.913 337.08 254.937 337.08C254.961 337.08 254.979 337.062 254.991 337.026C255.207 336.594 255.501 336.276 255.873 336.072C256.245 335.868 256.641 335.766 257.061 335.766ZM270.123 340.752C270.123 340.872 270.063 340.932 269.943 340.932H265.839C265.791 340.932 265.767 340.956 265.767 341.004V342.318C265.767 342.822 265.905 343.236 266.181 343.56C266.469 343.872 266.841 344.028 267.297 344.028C267.681 344.028 268.005 343.914 268.269 343.686C268.545 343.446 268.725 343.14 268.809 342.768C268.845 342.66 268.911 342.606 269.007 342.606L269.907 342.642C269.955 342.642 269.997 342.66 270.033 342.696C270.069 342.732 270.081 342.78 270.069 342.84C269.973 343.548 269.679 344.112 269.187 344.532C268.707 344.94 268.077 345.144 267.297 345.144C266.445 345.144 265.761 344.892 265.245 344.388C264.741 343.884 264.489 343.218 264.489 342.39V338.502C264.489 337.686 264.741 337.026 265.245 336.522C265.761 336.006 266.445 335.748 267.297 335.748C268.161 335.748 268.845 336.006 269.349 336.522C269.865 337.026 270.123 337.686 270.123 338.502V340.752ZM267.297 336.864C266.841 336.864 266.469 337.026 266.181 337.35C265.905 337.662 265.767 338.076 265.767 338.592V339.798C265.767 339.846 265.791 339.87 265.839 339.87H268.791C268.839 339.87 268.863 339.846 268.863 339.798V338.592C268.863 338.076 268.719 337.662 268.431 337.35C268.143 337.026 267.765 336.864 267.297 336.864ZM275.977 332.58C275.977 332.46 276.037 332.4 276.157 332.4H277.075C277.195 332.4 277.255 332.46 277.255 332.58V344.82C277.255 344.94 277.195 345 277.075 345H276.157C276.037 345 275.977 344.94 275.977 344.82V344.424C275.977 344.4 275.965 344.382 275.941 344.37C275.929 344.358 275.911 344.364 275.887 344.388C275.431 344.892 274.855 345.144 274.159 345.144C273.391 345.144 272.779 344.892 272.323 344.388C271.867 343.872 271.639 343.206 271.639 342.39V338.502C271.639 337.662 271.867 336.996 272.323 336.504C272.779 336 273.391 335.748 274.159 335.748C274.867 335.748 275.443 336.006 275.887 336.522C275.911 336.546 275.929 336.552 275.941 336.54C275.965 336.528 275.977 336.51 275.977 336.486V332.58ZM274.465 344.028C274.909 344.028 275.269 343.872 275.545 343.56C275.833 343.236 275.977 342.822 275.977 342.318V338.592C275.977 338.076 275.833 337.662 275.545 337.35C275.269 337.026 274.909 336.864 274.465 336.864C274.009 336.864 273.631 337.026 273.331 337.35C273.043 337.662 272.899 338.076 272.899 338.592V342.318C272.899 342.822 273.043 343.236 273.331 343.56C273.631 343.872 274.009 344.028 274.465 344.028ZM283.426 336.072C283.426 335.952 283.486 335.892 283.606 335.892H284.524C284.644 335.892 284.704 335.952 284.704 336.072V344.82C284.704 344.94 284.644 345 284.524 345H283.606C283.486 345 283.426 344.94 283.426 344.82V344.208C283.426 344.172 283.414 344.154 283.39 344.154C283.378 344.154 283.36 344.166 283.336 344.19C282.964 344.814 282.364 345.126 281.536 345.126C280.816 345.126 280.24 344.91 279.808 344.478C279.388 344.034 279.178 343.368 279.178 342.48V336.072C279.178 335.952 279.238 335.892 279.358 335.892H280.276C280.396 335.892 280.456 335.952 280.456 336.072V342.192C280.456 342.792 280.576 343.248 280.816 343.56C281.068 343.86 281.428 344.01 281.896 344.01C282.376 344.01 282.748 343.836 283.012 343.488C283.288 343.14 283.426 342.666 283.426 342.066V336.072ZM289.327 345.144C288.475 345.144 287.791 344.892 287.275 344.388C286.771 343.884 286.519 343.218 286.519 342.39V338.502C286.519 337.686 286.777 337.026 287.293 336.522C287.809 336.006 288.487 335.748 289.327 335.748C289.891 335.748 290.389 335.862 290.821 336.09C291.253 336.318 291.583 336.624 291.811 337.008C292.051 337.38 292.171 337.794 292.171 338.25V338.43C292.171 338.55 292.111 338.61 291.991 338.61L291.073 338.646C290.953 338.646 290.893 338.586 290.893 338.466V338.34C290.893 337.944 290.743 337.602 290.443 337.314C290.155 337.014 289.783 336.864 289.327 336.864C288.871 336.864 288.499 337.026 288.211 337.35C287.935 337.662 287.797 338.076 287.797 338.592V342.3C287.797 342.816 287.935 343.236 288.211 343.56C288.499 343.872 288.871 344.028 289.327 344.028C289.783 344.028 290.155 343.884 290.443 343.596C290.743 343.296 290.893 342.948 290.893 342.552V342.426C290.893 342.306 290.953 342.246 291.073 342.246L291.991 342.264C292.111 342.264 292.171 342.324 292.171 342.444V342.642C292.171 343.362 291.907 343.962 291.379 344.442C290.863 344.91 290.179 345.144 289.327 345.144ZM296.443 335.748C297.283 335.748 297.955 336.024 298.459 336.576C298.963 337.116 299.215 337.842 299.215 338.754V344.82C299.215 344.94 299.155 345 299.035 345H298.117C297.997 345 297.937 344.94 297.937 344.82V344.28C297.937 344.256 297.925 344.244 297.901 344.244C297.889 344.232 297.871 344.238 297.847 344.262C297.403 344.85 296.737 345.144 295.849 345.144C295.189 345.144 294.613 344.958 294.121 344.586C293.641 344.202 293.401 343.53 293.401 342.57C293.401 341.55 293.695 340.806 294.283 340.338C294.871 339.858 295.645 339.618 296.605 339.618H297.865C297.913 339.618 297.937 339.594 297.937 339.546V338.844C297.937 338.244 297.799 337.764 297.523 337.404C297.247 337.044 296.875 336.864 296.407 336.864C296.047 336.864 295.735 336.984 295.471 337.224C295.219 337.464 295.069 337.77 295.021 338.142C295.021 338.262 294.961 338.322 294.841 338.322L293.833 338.304C293.773 338.304 293.725 338.286 293.689 338.25C293.665 338.214 293.659 338.172 293.671 338.124C293.731 337.416 294.019 336.846 294.535 336.414C295.051 335.97 295.687 335.748 296.443 335.748ZM296.119 344.028C296.611 344.028 297.037 343.872 297.397 343.56C297.757 343.236 297.937 342.792 297.937 342.228V340.716C297.937 340.668 297.913 340.644 297.865 340.644H296.587C296.011 340.644 295.555 340.8 295.219 341.112C294.883 341.412 294.715 341.862 294.715 342.462C294.715 342.99 294.841 343.386 295.093 343.65C295.357 343.902 295.699 344.028 296.119 344.028ZM306.489 338.43C306.489 338.55 306.429 338.61 306.309 338.61L305.391 338.646C305.271 338.646 305.211 338.586 305.211 338.466V338.34C305.211 337.944 305.061 337.602 304.761 337.314C304.473 337.014 304.101 336.864 303.645 336.864C303.189 336.864 302.817 337.026 302.529 337.35C302.253 337.662 302.115 338.076 302.115 338.592V342.3C302.115 342.816 302.253 343.236 302.529 343.56C302.817 343.872 303.189 344.028 303.645 344.028C304.101 344.028 304.473 343.884 304.761 343.596C305.061 343.296 305.211 342.948 305.211 342.552V342.426C305.211 342.306 305.271 342.246 305.391 342.246L306.309 342.264C306.429 342.264 306.489 342.324 306.489 342.444V342.642C306.489 343.266 306.279 343.806 305.859 344.262C305.451 344.706 304.905 344.982 304.221 345.09C304.161 345.114 304.149 345.144 304.185 345.18C304.677 345.684 304.923 346.242 304.923 346.854C304.923 347.382 304.785 347.754 304.509 347.97C304.233 348.198 303.891 348.312 303.483 348.312C303.291 348.312 303.111 348.294 302.943 348.258C302.847 348.246 302.805 348.18 302.817 348.06L302.871 347.664C302.895 347.568 302.955 347.52 303.051 347.52C303.063 347.532 303.087 347.538 303.123 347.538C303.387 347.574 303.603 347.526 303.771 347.394C303.939 347.262 304.023 347.028 304.023 346.692C304.023 346.236 303.759 345.72 303.231 345.144C303.207 345.12 303.177 345.108 303.141 345.108C302.433 345.024 301.869 344.736 301.449 344.244C301.041 343.752 300.837 343.134 300.837 342.39V338.502C300.837 337.686 301.095 337.026 301.611 336.522C302.127 336.006 302.805 335.748 303.645 335.748C304.209 335.748 304.707 335.862 305.139 336.09C305.571 336.318 305.901 336.624 306.129 337.008C306.369 337.38 306.489 337.794 306.489 338.25V338.43ZM310.761 335.748C311.601 335.748 312.273 336.024 312.777 336.576C313.281 337.116 313.533 337.842 313.533 338.754V344.82C313.533 344.94 313.473 345 313.353 345H312.435C312.315 345 312.255 344.94 312.255 344.82V344.28C312.255 344.256 312.243 344.244 312.219 344.244C312.207 344.232 312.189 344.238 312.165 344.262C311.721 344.85 311.055 345.144 310.167 345.144C309.507 345.144 308.931 344.958 308.439 344.586C307.959 344.202 307.719 343.53 307.719 342.57C307.719 341.55 308.013 340.806 308.601 340.338C309.189 339.858 309.963 339.618 310.923 339.618H312.183C312.231 339.618 312.255 339.594 312.255 339.546V338.844C312.255 338.244 312.117 337.764 311.841 337.404C311.565 337.044 311.193 336.864 310.725 336.864C310.365 336.864 310.053 336.984 309.789 337.224C309.537 337.464 309.387 337.77 309.339 338.142C309.339 338.262 309.279 338.322 309.159 338.322L308.151 338.304C308.091 338.304 308.043 338.286 308.007 338.25C307.983 338.214 307.977 338.172 307.989 338.124C308.049 337.416 308.337 336.846 308.853 336.414C309.369 335.97 310.005 335.748 310.761 335.748ZM310.437 344.028C310.929 344.028 311.355 343.872 311.715 343.56C312.075 343.236 312.255 342.792 312.255 342.228V340.716C312.255 340.668 312.231 340.644 312.183 340.644H310.905C310.329 340.644 309.873 340.8 309.537 341.112C309.201 341.412 309.033 341.862 309.033 342.462C309.033 342.99 309.159 343.386 309.411 343.65C309.675 343.902 310.017 344.028 310.437 344.028ZM311.823 334.056C311.655 334.056 311.505 334.026 311.373 333.966C311.241 333.894 311.067 333.792 310.851 333.66C310.803 333.624 310.725 333.57 310.617 333.498C310.509 333.426 310.413 333.378 310.329 333.354C310.245 333.318 310.155 333.3 310.059 333.3C309.891 333.3 309.741 333.336 309.609 333.408C309.489 333.468 309.369 333.588 309.249 333.768C309.177 333.876 309.093 333.894 308.997 333.822L308.673 333.588C308.577 333.516 308.553 333.432 308.601 333.336C308.925 332.712 309.381 332.4 309.969 332.4C310.161 332.4 310.335 332.436 310.491 332.508C310.647 332.58 310.821 332.682 311.013 332.814C311.037 332.838 311.103 332.886 311.211 332.958C311.319 333.03 311.421 333.09 311.517 333.138C311.625 333.174 311.727 333.192 311.823 333.192C311.979 333.192 312.117 333.156 312.237 333.084C312.357 333.012 312.477 332.88 312.597 332.688C312.621 332.64 312.657 332.61 312.705 332.598C312.753 332.586 312.801 332.592 312.849 332.616L313.173 332.832C313.221 332.868 313.245 332.916 313.245 332.976C313.245 333.036 313.221 333.108 313.173 333.192C313.005 333.492 312.795 333.714 312.543 333.858C312.291 333.99 312.051 334.056 311.823 334.056ZM317.945 345.144C317.081 345.144 316.391 344.892 315.875 344.388C315.371 343.884 315.119 343.218 315.119 342.39V338.52C315.119 337.704 315.377 337.038 315.893 336.522C316.409 336.006 317.093 335.748 317.945 335.748C318.809 335.748 319.499 336.006 320.015 336.522C320.531 337.038 320.789 337.704 320.789 338.52V342.39C320.789 343.218 320.531 343.884 320.015 344.388C319.499 344.892 318.809 345.144 317.945 345.144ZM317.945 344.01C318.401 344.01 318.773 343.854 319.061 343.542C319.361 343.23 319.511 342.816 319.511 342.3V338.592C319.511 338.076 319.361 337.662 319.061 337.35C318.773 337.026 318.401 336.864 317.945 336.864C317.489 336.864 317.117 337.026 316.829 337.35C316.541 337.662 316.397 338.076 316.397 338.592V342.3C316.397 342.816 316.541 343.23 316.829 343.542C317.117 343.854 317.489 344.01 317.945 344.01ZM322.251 346.422C322.203 346.422 322.161 346.404 322.125 346.368C322.089 346.332 322.077 346.284 322.089 346.224L322.647 342.372C322.659 342.264 322.719 342.21 322.827 342.21H323.637C323.769 342.21 323.823 342.276 323.799 342.408L322.989 346.26C322.977 346.368 322.911 346.422 322.791 346.422H322.251ZM332.15 335.766C332.882 335.766 333.446 336.018 333.842 336.522C334.25 337.026 334.454 337.728 334.454 338.628V344.82C334.454 344.94 334.394 345 334.274 345H333.356C333.236 345 333.176 344.94 333.176 344.82V338.736C333.176 338.148 333.044 337.692 332.78 337.368C332.528 337.044 332.174 336.882 331.718 336.882C331.238 336.882 330.86 337.056 330.584 337.404C330.32 337.752 330.188 338.226 330.188 338.826V344.82C330.188 344.94 330.128 345 330.008 345H329.09C328.97 345 328.91 344.94 328.91 344.82V332.58C328.91 332.46 328.97 332.4 329.09 332.4H330.008C330.128 332.4 330.188 332.46 330.188 332.58V336.648C330.188 336.672 330.2 336.69 330.224 336.702C330.248 336.714 330.266 336.702 330.278 336.666C330.494 336.366 330.764 336.144 331.088 336C331.424 335.844 331.778 335.766 332.15 335.766ZM340.517 336.072C340.517 335.952 340.577 335.892 340.697 335.892H341.615C341.735 335.892 341.795 335.952 341.795 336.072V344.82C341.795 344.94 341.735 345 341.615 345H340.697C340.577 345 340.517 344.94 340.517 344.82V344.208C340.517 344.172 340.505 344.154 340.481 344.154C340.469 344.154 340.451 344.166 340.427 344.19C340.055 344.814 339.455 345.126 338.627 345.126C337.907 345.126 337.331 344.91 336.899 344.478C336.479 344.034 336.269 343.368 336.269 342.48V336.072C336.269 335.952 336.329 335.892 336.449 335.892H337.367C337.487 335.892 337.547 335.952 337.547 336.072V342.192C337.547 342.792 337.667 343.248 337.907 343.56C338.159 343.86 338.519 344.01 338.987 344.01C339.467 344.01 339.839 343.836 340.103 343.488C340.379 343.14 340.517 342.666 340.517 342.066V336.072ZM351.098 335.766C351.818 335.766 352.376 336.03 352.772 336.558C353.168 337.086 353.366 337.818 353.366 338.754V344.82C353.366 344.94 353.306 345 353.186 345H352.286C352.166 345 352.106 344.94 352.106 344.82V338.862C352.106 338.25 351.974 337.77 351.71 337.422C351.458 337.062 351.122 336.882 350.702 336.882C350.246 336.882 349.886 337.056 349.622 337.404C349.358 337.752 349.226 338.226 349.226 338.826V344.82C349.226 344.94 349.166 345 349.046 345H348.128C348.008 345 347.948 344.94 347.948 344.82V338.862C347.948 338.25 347.816 337.77 347.552 337.422C347.3 337.062 346.97 336.882 346.562 336.882C346.106 336.882 345.74 337.056 345.464 337.404C345.2 337.752 345.068 338.226 345.068 338.826V344.82C345.068 344.94 345.008 345 344.888 345H343.988C343.868 345 343.808 344.94 343.808 344.82V336.072C343.808 335.952 343.868 335.892 343.988 335.892H344.888C345.008 335.892 345.068 335.952 345.068 336.072V336.63C345.068 336.654 345.074 336.672 345.086 336.684C345.11 336.684 345.134 336.672 345.158 336.648C345.386 336.348 345.656 336.126 345.968 335.982C346.28 335.838 346.61 335.766 346.958 335.766C347.414 335.766 347.81 335.88 348.146 336.108C348.482 336.324 348.74 336.636 348.92 337.044C348.932 337.068 348.95 337.08 348.974 337.08C348.998 337.08 349.016 337.062 349.028 337.026C349.244 336.594 349.538 336.276 349.91 336.072C350.282 335.868 350.678 335.766 351.098 335.766ZM356.074 334.236C355.774 334.236 355.528 334.14 355.336 333.948C355.156 333.756 355.066 333.516 355.066 333.228C355.066 332.928 355.156 332.688 355.336 332.508C355.528 332.316 355.774 332.22 356.074 332.22C356.362 332.22 356.596 332.316 356.776 332.508C356.968 332.688 357.064 332.928 357.064 333.228C357.064 333.516 356.968 333.756 356.776 333.948C356.596 334.14 356.362 334.236 356.074 334.236ZM355.624 345C355.504 345 355.444 344.94 355.444 344.82V336.072C355.444 335.952 355.504 335.892 355.624 335.892H356.542C356.662 335.892 356.722 335.952 356.722 336.072V344.82C356.722 344.94 356.662 345 356.542 345H355.624ZM358.936 345C358.816 345 358.756 344.94 358.756 344.82V332.58C358.756 332.46 358.816 332.4 358.936 332.4H359.854C359.974 332.4 360.034 332.46 360.034 332.58V344.82C360.034 344.94 359.974 345 359.854 345H358.936ZM366.076 332.58C366.076 332.46 366.136 332.4 366.256 332.4H367.174C367.294 332.4 367.354 332.46 367.354 332.58V344.82C367.354 344.94 367.294 345 367.174 345H366.256C366.136 345 366.076 344.94 366.076 344.82V344.424C366.076 344.4 366.064 344.382 366.04 344.37C366.028 344.358 366.01 344.364 365.986 344.388C365.53 344.892 364.954 345.144 364.258 345.144C363.49 345.144 362.878 344.892 362.422 344.388C361.966 343.872 361.738 343.206 361.738 342.39V338.502C361.738 337.662 361.966 336.996 362.422 336.504C362.878 336 363.49 335.748 364.258 335.748C364.966 335.748 365.542 336.006 365.986 336.522C366.01 336.546 366.028 336.552 366.04 336.54C366.064 336.528 366.076 336.51 366.076 336.486V332.58ZM364.564 344.028C365.008 344.028 365.368 343.872 365.644 343.56C365.932 343.236 366.076 342.822 366.076 342.318V338.592C366.076 338.076 365.932 337.662 365.644 337.35C365.368 337.026 365.008 336.864 364.564 336.864C364.108 336.864 363.73 337.026 363.43 337.35C363.142 337.662 362.998 338.076 362.998 338.592V342.318C362.998 342.822 363.142 343.236 363.43 343.56C363.73 343.872 364.108 344.028 364.564 344.028ZM372.031 335.748C372.871 335.748 373.543 336.024 374.047 336.576C374.551 337.116 374.803 337.842 374.803 338.754V344.82C374.803 344.94 374.743 345 374.623 345H373.705C373.585 345 373.525 344.94 373.525 344.82V344.28C373.525 344.256 373.513 344.244 373.489 344.244C373.477 344.232 373.459 344.238 373.435 344.262C372.991 344.85 372.325 345.144 371.437 345.144C370.777 345.144 370.201 344.958 369.709 344.586C369.229 344.202 368.989 343.53 368.989 342.57C368.989 341.55 369.283 340.806 369.871 340.338C370.459 339.858 371.233 339.618 372.193 339.618H373.453C373.501 339.618 373.525 339.594 373.525 339.546V338.844C373.525 338.244 373.387 337.764 373.111 337.404C372.835 337.044 372.463 336.864 371.995 336.864C371.635 336.864 371.323 336.984 371.059 337.224C370.807 337.464 370.657 337.77 370.609 338.142C370.609 338.262 370.549 338.322 370.429 338.322L369.421 338.304C369.361 338.304 369.313 338.286 369.277 338.25C369.253 338.214 369.247 338.172 369.259 338.124C369.319 337.416 369.607 336.846 370.123 336.414C370.639 335.97 371.275 335.748 372.031 335.748ZM371.707 344.028C372.199 344.028 372.625 343.872 372.985 343.56C373.345 343.236 373.525 342.792 373.525 342.228V340.716C373.525 340.668 373.501 340.644 373.453 340.644H372.175C371.599 340.644 371.143 340.8 370.807 341.112C370.471 341.412 370.303 341.862 370.303 342.462C370.303 342.99 370.429 343.386 370.681 343.65C370.945 343.902 371.287 344.028 371.707 344.028ZM380.763 332.58C380.763 332.46 380.823 332.4 380.943 332.4H381.861C381.981 332.4 382.041 332.46 382.041 332.58V344.82C382.041 344.94 381.981 345 381.861 345H380.943C380.823 345 380.763 344.94 380.763 344.82V344.424C380.763 344.4 380.751 344.382 380.727 344.37C380.715 344.358 380.697 344.364 380.673 344.388C380.217 344.892 379.641 345.144 378.945 345.144C378.177 345.144 377.565 344.892 377.109 344.388C376.653 343.872 376.425 343.206 376.425 342.39V338.502C376.425 337.662 376.653 336.996 377.109 336.504C377.565 336 378.177 335.748 378.945 335.748C379.653 335.748 380.229 336.006 380.673 336.522C380.697 336.546 380.715 336.552 380.727 336.54C380.751 336.528 380.763 336.51 380.763 336.486V332.58ZM379.251 344.028C379.695 344.028 380.055 343.872 380.331 343.56C380.619 343.236 380.763 342.822 380.763 342.318V338.592C380.763 338.076 380.619 337.662 380.331 337.35C380.055 337.026 379.695 336.864 379.251 336.864C378.795 336.864 378.417 337.026 378.117 337.35C377.829 337.662 377.685 338.076 377.685 338.592V342.318C377.685 342.822 377.829 343.236 378.117 343.56C378.417 343.872 378.795 344.028 379.251 344.028ZM389.49 340.752C389.49 340.872 389.43 340.932 389.31 340.932H385.206C385.158 340.932 385.134 340.956 385.134 341.004V342.318C385.134 342.822 385.272 343.236 385.548 343.56C385.836 343.872 386.208 344.028 386.664 344.028C387.048 344.028 387.372 343.914 387.636 343.686C387.912 343.446 388.092 343.14 388.176 342.768C388.212 342.66 388.278 342.606 388.374 342.606L389.274 342.642C389.322 342.642 389.364 342.66 389.4 342.696C389.436 342.732 389.448 342.78 389.436 342.84C389.34 343.548 389.046 344.112 388.554 344.532C388.074 344.94 387.444 345.144 386.664 345.144C385.812 345.144 385.128 344.892 384.612 344.388C384.108 343.884 383.856 343.218 383.856 342.39V338.502C383.856 337.686 384.108 337.026 384.612 336.522C385.128 336.006 385.812 335.748 386.664 335.748C387.528 335.748 388.212 336.006 388.716 336.522C389.232 337.026 389.49 337.686 389.49 338.502V340.752ZM386.664 336.864C386.208 336.864 385.836 337.026 385.548 337.35C385.272 337.662 385.134 338.076 385.134 338.592V339.798C385.134 339.846 385.158 339.87 385.206 339.87H388.158C388.206 339.87 388.23 339.846 388.23 339.798V338.592C388.23 338.076 388.086 337.662 387.798 337.35C387.51 337.026 387.132 336.864 386.664 336.864ZM390.847 346.422C390.799 346.422 390.757 346.404 390.721 346.368C390.685 346.332 390.673 346.284 390.685 346.224L391.243 342.372C391.255 342.264 391.315 342.21 391.423 342.21H392.233C392.365 342.21 392.419 342.276 392.395 342.408L391.585 346.26C391.573 346.368 391.507 346.422 391.387 346.422H390.847ZM184.133 357.372C183.677 357.372 183.353 357.528 183.161 357.84C182.969 358.14 182.873 358.614 182.873 359.262V359.82C182.873 359.868 182.897 359.892 182.945 359.892H184.331C184.451 359.892 184.511 359.952 184.511 360.072V360.666C184.511 360.786 184.451 360.846 184.331 360.846H182.945C182.897 360.846 182.873 360.87 182.873 360.918V368.82C182.873 368.94 182.813 369 182.693 369H181.793C181.673 369 181.613 368.94 181.613 368.82V360.918C181.613 360.87 181.589 360.846 181.541 360.846H180.821C180.701 360.846 180.641 360.786 180.641 360.666V360.072C180.641 359.952 180.701 359.892 180.821 359.892H181.541C181.589 359.892 181.613 359.868 181.613 359.82V359.244C181.613 358.2 181.805 357.444 182.189 356.976C182.573 356.508 183.215 356.274 184.115 356.274H184.367C184.487 356.274 184.547 356.334 184.547 356.454L184.529 357.192C184.529 357.312 184.469 357.372 184.349 357.372H184.133ZM186.977 358.236C186.677 358.236 186.431 358.14 186.239 357.948C186.059 357.756 185.969 357.516 185.969 357.228C185.969 356.928 186.059 356.688 186.239 356.508C186.431 356.316 186.677 356.22 186.977 356.22C187.265 356.22 187.499 356.316 187.679 356.508C187.871 356.688 187.967 356.928 187.967 357.228C187.967 357.516 187.871 357.756 187.679 357.948C187.499 358.14 187.265 358.236 186.977 358.236ZM186.527 369C186.407 369 186.347 368.94 186.347 368.82V360.072C186.347 359.952 186.407 359.892 186.527 359.892H187.445C187.565 359.892 187.625 359.952 187.625 360.072V368.82C187.625 368.94 187.565 369 187.445 369H186.527ZM192.851 359.802C193.151 359.802 193.409 359.868 193.625 360C193.709 360.048 193.739 360.126 193.715 360.234L193.499 361.17C193.487 361.278 193.415 361.314 193.283 361.278C193.139 361.206 192.959 361.17 192.743 361.17C192.647 361.17 192.575 361.176 192.527 361.188C192.095 361.212 191.741 361.44 191.465 361.872C191.189 362.292 191.051 362.808 191.051 363.42V368.82C191.051 368.94 190.991 369 190.871 369H189.953C189.833 369 189.773 368.94 189.773 368.82V360.072C189.773 359.952 189.833 359.892 189.953 359.892H190.871C190.991 359.892 191.051 359.952 191.051 360.072V361.152C191.051 361.188 191.057 361.206 191.069 361.206C191.093 361.206 191.117 361.194 191.141 361.17C191.489 360.258 192.059 359.802 192.851 359.802ZM202.139 359.766C202.859 359.766 203.417 360.03 203.813 360.558C204.209 361.086 204.407 361.818 204.407 362.754V368.82C204.407 368.94 204.347 369 204.227 369H203.327C203.207 369 203.147 368.94 203.147 368.82V362.862C203.147 362.25 203.015 361.77 202.751 361.422C202.499 361.062 202.163 360.882 201.743 360.882C201.287 360.882 200.927 361.056 200.663 361.404C200.399 361.752 200.267 362.226 200.267 362.826V368.82C200.267 368.94 200.207 369 200.087 369H199.169C199.049 369 198.989 368.94 198.989 368.82V362.862C198.989 362.25 198.857 361.77 198.593 361.422C198.341 361.062 198.011 360.882 197.603 360.882C197.147 360.882 196.781 361.056 196.505 361.404C196.241 361.752 196.109 362.226 196.109 362.826V368.82C196.109 368.94 196.049 369 195.929 369H195.029C194.909 369 194.849 368.94 194.849 368.82V360.072C194.849 359.952 194.909 359.892 195.029 359.892H195.929C196.049 359.892 196.109 359.952 196.109 360.072V360.63C196.109 360.654 196.115 360.672 196.127 360.684C196.151 360.684 196.175 360.672 196.199 360.648C196.427 360.348 196.697 360.126 197.009 359.982C197.321 359.838 197.651 359.766 197.999 359.766C198.455 359.766 198.851 359.88 199.187 360.108C199.523 360.324 199.781 360.636 199.961 361.044C199.973 361.068 199.991 361.08 200.015 361.08C200.039 361.08 200.057 361.062 200.069 361.026C200.285 360.594 200.579 360.276 200.951 360.072C201.323 359.868 201.719 359.766 202.139 359.766ZM211.777 364.752C211.777 364.872 211.717 364.932 211.597 364.932H207.493C207.445 364.932 207.421 364.956 207.421 365.004V366.318C207.421 366.822 207.559 367.236 207.835 367.56C208.123 367.872 208.495 368.028 208.951 368.028C209.335 368.028 209.659 367.914 209.923 367.686C210.199 367.446 210.379 367.14 210.463 366.768C210.499 366.66 210.565 366.606 210.661 366.606L211.561 366.642C211.609 366.642 211.651 366.66 211.687 366.696C211.723 366.732 211.735 366.78 211.723 366.84C211.627 367.548 211.333 368.112 210.841 368.532C210.361 368.94 209.731 369.144 208.951 369.144C208.099 369.144 207.415 368.892 206.899 368.388C206.395 367.884 206.143 367.218 206.143 366.39V362.502C206.143 361.686 206.395 361.026 206.899 360.522C207.415 360.006 208.099 359.748 208.951 359.748C209.815 359.748 210.499 360.006 211.003 360.522C211.519 361.026 211.777 361.686 211.777 362.502V364.752ZM208.951 360.864C208.495 360.864 208.123 361.026 207.835 361.35C207.559 361.662 207.421 362.076 207.421 362.592V363.798C207.421 363.846 207.445 363.87 207.493 363.87H210.445C210.493 363.87 210.517 363.846 210.517 363.798V362.592C210.517 362.076 210.373 361.662 210.085 361.35C209.797 361.026 209.419 360.864 208.951 360.864ZM213.167 369C213.047 369 212.987 368.94 212.987 368.82V367.956C212.987 367.872 213.005 367.794 213.041 367.722L216.731 361.152C216.743 361.128 216.743 361.11 216.731 361.098C216.731 361.074 216.719 361.062 216.695 361.062H213.239C213.119 361.062 213.059 361.002 213.059 360.882V360.072C213.059 359.952 213.119 359.892 213.239 359.892H218.099C218.219 359.892 218.279 359.952 218.279 360.072V360.936C218.279 361.02 218.261 361.098 218.225 361.17L214.499 367.74C214.487 367.764 214.487 367.788 214.499 367.812C214.511 367.824 214.529 367.83 214.553 367.83H218.135C218.255 367.83 218.315 367.89 218.315 368.01V368.82C218.315 368.94 218.255 369 218.135 369H213.167ZM222.479 359.748C223.319 359.748 223.991 360.024 224.495 360.576C224.999 361.116 225.251 361.842 225.251 362.754V368.82C225.251 368.94 225.191 369 225.071 369H224.153C224.033 369 223.973 368.94 223.973 368.82V368.28C223.973 368.256 223.961 368.244 223.937 368.244C223.925 368.232 223.907 368.238 223.883 368.262C223.439 368.85 222.773 369.144 221.885 369.144C221.225 369.144 220.649 368.958 220.157 368.586C219.677 368.202 219.437 367.53 219.437 366.57C219.437 365.55 219.731 364.806 220.319 364.338C220.907 363.858 221.681 363.618 222.641 363.618H223.901C223.949 363.618 223.973 363.594 223.973 363.546V362.844C223.973 362.244 223.835 361.764 223.559 361.404C223.283 361.044 222.911 360.864 222.443 360.864C222.083 360.864 221.771 360.984 221.507 361.224C221.255 361.464 221.105 361.77 221.057 362.142C221.057 362.262 220.997 362.322 220.877 362.322L219.869 362.304C219.809 362.304 219.761 362.286 219.725 362.25C219.701 362.214 219.695 362.172 219.707 362.124C219.767 361.416 220.055 360.846 220.571 360.414C221.087 359.97 221.723 359.748 222.479 359.748ZM222.155 368.028C222.647 368.028 223.073 367.872 223.433 367.56C223.793 367.236 223.973 366.792 223.973 366.228V364.716C223.973 364.668 223.949 364.644 223.901 364.644H222.623C222.047 364.644 221.591 364.8 221.255 365.112C220.919 365.412 220.751 365.862 220.751 366.462C220.751 366.99 220.877 367.386 221.129 367.65C221.393 367.902 221.735 368.028 222.155 368.028ZM235.93 364.752C235.93 364.872 235.87 364.932 235.75 364.932H231.646C231.598 364.932 231.574 364.956 231.574 365.004V366.318C231.574 366.822 231.712 367.236 231.988 367.56C232.276 367.872 232.648 368.028 233.104 368.028C233.488 368.028 233.812 367.914 234.076 367.686C234.352 367.446 234.532 367.14 234.616 366.768C234.652 366.66 234.718 366.606 234.814 366.606L235.714 366.642C235.762 366.642 235.804 366.66 235.84 366.696C235.876 366.732 235.888 366.78 235.876 366.84C235.78 367.548 235.486 368.112 234.994 368.532C234.514 368.94 233.884 369.144 233.104 369.144C232.252 369.144 231.568 368.892 231.052 368.388C230.548 367.884 230.296 367.218 230.296 366.39V362.502C230.296 361.686 230.548 361.026 231.052 360.522C231.568 360.006 232.252 359.748 233.104 359.748C233.968 359.748 234.652 360.006 235.156 360.522C235.672 361.026 235.93 361.686 235.93 362.502V364.752ZM233.104 360.864C232.648 360.864 232.276 361.026 231.988 361.35C231.712 361.662 231.574 362.076 231.574 362.592V363.798C231.574 363.846 231.598 363.87 231.646 363.87H234.598C234.646 363.87 234.67 363.846 234.67 363.798V362.592C234.67 362.076 234.526 361.662 234.238 361.35C233.95 361.026 233.572 360.864 233.104 360.864ZM243.678 369.144C242.826 369.144 242.142 368.892 241.626 368.388C241.122 367.884 240.87 367.218 240.87 366.39V362.502C240.87 361.686 241.128 361.026 241.644 360.522C242.16 360.006 242.838 359.748 243.678 359.748C244.242 359.748 244.74 359.862 245.172 360.09C245.604 360.318 245.934 360.624 246.162 361.008C246.402 361.38 246.522 361.794 246.522 362.25V362.43C246.522 362.55 246.462 362.61 246.342 362.61L245.424 362.646C245.304 362.646 245.244 362.586 245.244 362.466V362.34C245.244 361.944 245.094 361.602 244.794 361.314C244.506 361.014 244.134 360.864 243.678 360.864C243.222 360.864 242.85 361.026 242.562 361.35C242.286 361.662 242.148 362.076 242.148 362.592V366.3C242.148 366.816 242.286 367.236 242.562 367.56C242.85 367.872 243.222 368.028 243.678 368.028C244.134 368.028 244.506 367.884 244.794 367.596C245.094 367.296 245.244 366.948 245.244 366.552V366.426C245.244 366.306 245.304 366.246 245.424 366.246L246.342 366.264C246.462 366.264 246.522 366.324 246.522 366.444V366.642C246.522 367.362 246.258 367.962 245.73 368.442C245.214 368.91 244.53 369.144 243.678 369.144ZM250.758 369.144C249.894 369.144 249.204 368.892 248.688 368.388C248.184 367.884 247.932 367.218 247.932 366.39V362.52C247.932 361.704 248.19 361.038 248.706 360.522C249.222 360.006 249.906 359.748 250.758 359.748C251.622 359.748 252.312 360.006 252.828 360.522C253.344 361.038 253.602 361.704 253.602 362.52V366.39C253.602 367.218 253.344 367.884 252.828 368.388C252.312 368.892 251.622 369.144 250.758 369.144ZM250.758 368.01C251.214 368.01 251.586 367.854 251.874 367.542C252.174 367.23 252.324 366.816 252.324 366.3V362.592C252.324 362.076 252.174 361.662 251.874 361.35C251.586 361.026 251.214 360.864 250.758 360.864C250.302 360.864 249.93 361.026 249.642 361.35C249.354 361.662 249.21 362.076 249.21 362.592V366.3C249.21 366.816 249.354 367.23 249.642 367.542C249.93 367.854 250.302 368.01 250.758 368.01ZM258.661 359.766C259.393 359.766 259.957 360.018 260.353 360.522C260.761 361.026 260.965 361.728 260.965 362.628V368.82C260.965 368.94 260.905 369 260.785 369H259.867C259.747 369 259.687 368.94 259.687 368.82V362.736C259.687 362.148 259.555 361.692 259.291 361.368C259.039 361.044 258.685 360.882 258.229 360.882C257.749 360.882 257.371 361.056 257.095 361.404C256.831 361.752 256.699 362.226 256.699 362.826V368.82C256.699 368.94 256.639 369 256.519 369H255.601C255.481 369 255.421 368.94 255.421 368.82V360.072C255.421 359.952 255.481 359.892 255.601 359.892H256.519C256.639 359.892 256.699 359.952 256.699 360.072V360.648C256.699 360.672 256.711 360.69 256.735 360.702C256.759 360.714 256.777 360.702 256.789 360.666C257.005 360.366 257.275 360.144 257.599 360C257.935 359.844 258.289 359.766 258.661 359.766ZM264.599 369C264.491 369 264.425 368.946 264.401 368.838L262.169 360.09L262.151 360.018C262.151 359.934 262.205 359.892 262.313 359.892H263.357C263.465 359.892 263.531 359.946 263.555 360.054L265.103 366.876C265.115 366.912 265.127 366.93 265.139 366.93C265.151 366.93 265.163 366.912 265.175 366.876L266.705 360.054C266.729 359.946 266.795 359.892 266.903 359.892L267.947 359.91C268.007 359.91 268.049 359.928 268.073 359.964C268.109 360 268.115 360.048 268.091 360.108L265.877 368.838C265.865 368.946 265.799 369 265.679 369H264.599ZM270.231 358.236C269.931 358.236 269.685 358.14 269.493 357.948C269.313 357.756 269.223 357.516 269.223 357.228C269.223 356.928 269.313 356.688 269.493 356.508C269.685 356.316 269.931 356.22 270.231 356.22C270.519 356.22 270.753 356.316 270.933 356.508C271.125 356.688 271.221 356.928 271.221 357.228C271.221 357.516 271.125 357.756 270.933 357.948C270.753 358.14 270.519 358.236 270.231 358.236ZM269.781 369C269.661 369 269.601 368.94 269.601 368.82V360.072C269.601 359.952 269.661 359.892 269.781 359.892H270.699C270.819 359.892 270.879 359.952 270.879 360.072V368.82C270.879 368.94 270.819 369 270.699 369H269.781ZM275.631 369.144C274.779 369.144 274.095 368.892 273.579 368.388C273.075 367.884 272.823 367.218 272.823 366.39V362.502C272.823 361.686 273.081 361.026 273.597 360.522C274.113 360.006 274.791 359.748 275.631 359.748C276.195 359.748 276.693 359.862 277.125 360.09C277.557 360.318 277.887 360.624 278.115 361.008C278.355 361.38 278.475 361.794 278.475 362.25V362.43C278.475 362.55 278.415 362.61 278.295 362.61L277.377 362.646C277.257 362.646 277.197 362.586 277.197 362.466V362.34C277.197 361.944 277.047 361.602 276.747 361.314C276.459 361.014 276.087 360.864 275.631 360.864C275.175 360.864 274.803 361.026 274.515 361.35C274.239 361.662 274.101 362.076 274.101 362.592V366.3C274.101 366.816 274.239 367.236 274.515 367.56C274.803 367.872 275.175 368.028 275.631 368.028C276.087 368.028 276.459 367.884 276.747 367.596C277.047 367.296 277.197 366.948 277.197 366.552V366.426C277.197 366.306 277.257 366.246 277.377 366.246L278.295 366.264C278.415 366.264 278.475 366.324 278.475 366.444V366.642C278.475 367.362 278.211 367.962 277.683 368.442C277.167 368.91 276.483 369.144 275.631 369.144ZM285.537 362.43C285.537 362.55 285.477 362.61 285.357 362.61L284.439 362.646C284.319 362.646 284.259 362.586 284.259 362.466V362.34C284.259 361.944 284.109 361.602 283.809 361.314C283.521 361.014 283.149 360.864 282.693 360.864C282.237 360.864 281.865 361.026 281.577 361.35C281.301 361.662 281.163 362.076 281.163 362.592V366.3C281.163 366.816 281.301 367.236 281.577 367.56C281.865 367.872 282.237 368.028 282.693 368.028C283.149 368.028 283.521 367.884 283.809 367.596C284.109 367.296 284.259 366.948 284.259 366.552V366.426C284.259 366.306 284.319 366.246 284.439 366.246L285.357 366.264C285.477 366.264 285.537 366.324 285.537 366.444V366.642C285.537 367.266 285.327 367.806 284.907 368.262C284.499 368.706 283.953 368.982 283.269 369.09C283.209 369.114 283.197 369.144 283.233 369.18C283.725 369.684 283.971 370.242 283.971 370.854C283.971 371.382 283.833 371.754 283.557 371.97C283.281 372.198 282.939 372.312 282.531 372.312C282.339 372.312 282.159 372.294 281.991 372.258C281.895 372.246 281.853 372.18 281.865 372.06L281.919 371.664C281.943 371.568 282.003 371.52 282.099 371.52C282.111 371.532 282.135 371.538 282.171 371.538C282.435 371.574 282.651 371.526 282.819 371.394C282.987 371.262 283.071 371.028 283.071 370.692C283.071 370.236 282.807 369.72 282.279 369.144C282.255 369.12 282.225 369.108 282.189 369.108C281.481 369.024 280.917 368.736 280.497 368.244C280.089 367.752 279.885 367.134 279.885 366.39V362.502C279.885 361.686 280.143 361.026 280.659 360.522C281.175 360.006 281.853 359.748 282.693 359.748C283.257 359.748 283.755 359.862 284.187 360.09C284.619 360.318 284.949 360.624 285.177 361.008C285.417 361.38 285.537 361.794 285.537 362.25V362.43ZM289.81 359.748C290.65 359.748 291.322 360.024 291.826 360.576C292.33 361.116 292.582 361.842 292.582 362.754V368.82C292.582 368.94 292.522 369 292.402 369H291.484C291.364 369 291.304 368.94 291.304 368.82V368.28C291.304 368.256 291.292 368.244 291.268 368.244C291.256 368.232 291.238 368.238 291.214 368.262C290.77 368.85 290.104 369.144 289.216 369.144C288.556 369.144 287.98 368.958 287.488 368.586C287.008 368.202 286.768 367.53 286.768 366.57C286.768 365.55 287.062 364.806 287.65 364.338C288.238 363.858 289.012 363.618 289.972 363.618H291.232C291.28 363.618 291.304 363.594 291.304 363.546V362.844C291.304 362.244 291.166 361.764 290.89 361.404C290.614 361.044 290.242 360.864 289.774 360.864C289.414 360.864 289.102 360.984 288.838 361.224C288.586 361.464 288.436 361.77 288.388 362.142C288.388 362.262 288.328 362.322 288.208 362.322L287.2 362.304C287.14 362.304 287.092 362.286 287.056 362.25C287.032 362.214 287.026 362.172 287.038 362.124C287.098 361.416 287.386 360.846 287.902 360.414C288.418 359.97 289.054 359.748 289.81 359.748ZM289.486 368.028C289.978 368.028 290.404 367.872 290.764 367.56C291.124 367.236 291.304 366.792 291.304 366.228V364.716C291.304 364.668 291.28 364.644 291.232 364.644H289.954C289.378 364.644 288.922 364.8 288.586 365.112C288.25 365.412 288.082 365.862 288.082 366.462C288.082 366.99 288.208 367.386 288.46 367.65C288.724 367.902 289.066 368.028 289.486 368.028ZM290.872 358.056C290.704 358.056 290.554 358.026 290.422 357.966C290.29 357.894 290.116 357.792 289.9 357.66C289.852 357.624 289.774 357.57 289.666 357.498C289.558 357.426 289.462 357.378 289.378 357.354C289.294 357.318 289.204 357.3 289.108 357.3C288.94 357.3 288.79 357.336 288.658 357.408C288.538 357.468 288.418 357.588 288.298 357.768C288.226 357.876 288.142 357.894 288.046 357.822L287.722 357.588C287.626 357.516 287.602 357.432 287.65 357.336C287.974 356.712 288.43 356.4 289.018 356.4C289.21 356.4 289.384 356.436 289.54 356.508C289.696 356.58 289.87 356.682 290.062 356.814C290.086 356.838 290.152 356.886 290.26 356.958C290.368 357.03 290.47 357.09 290.566 357.138C290.674 357.174 290.776 357.192 290.872 357.192C291.028 357.192 291.166 357.156 291.286 357.084C291.406 357.012 291.526 356.88 291.646 356.688C291.67 356.64 291.706 356.61 291.754 356.598C291.802 356.586 291.85 356.592 291.898 356.616L292.222 356.832C292.27 356.868 292.294 356.916 292.294 356.976C292.294 357.036 292.27 357.108 292.222 357.192C292.054 357.492 291.844 357.714 291.592 357.858C291.34 357.99 291.1 358.056 290.872 358.056ZM296.994 369.144C296.13 369.144 295.44 368.892 294.924 368.388C294.42 367.884 294.168 367.218 294.168 366.39V362.52C294.168 361.704 294.426 361.038 294.942 360.522C295.458 360.006 296.142 359.748 296.994 359.748C297.858 359.748 298.548 360.006 299.064 360.522C299.58 361.038 299.838 361.704 299.838 362.52V366.39C299.838 367.218 299.58 367.884 299.064 368.388C298.548 368.892 297.858 369.144 296.994 369.144ZM296.994 368.01C297.45 368.01 297.822 367.854 298.11 367.542C298.41 367.23 298.56 366.816 298.56 366.3V362.592C298.56 362.076 298.41 361.662 298.11 361.35C297.822 361.026 297.45 360.864 296.994 360.864C296.538 360.864 296.166 361.026 295.878 361.35C295.59 361.662 295.446 362.076 295.446 362.592V366.3C295.446 366.816 295.59 367.23 295.878 367.542C296.166 367.854 296.538 368.01 296.994 368.01ZM302.146 368.964C301.846 368.964 301.6 368.868 301.408 368.676C301.228 368.484 301.138 368.244 301.138 367.956C301.138 367.656 301.228 367.416 301.408 367.236C301.6 367.044 301.846 366.948 302.146 366.948C302.434 366.948 302.674 367.044 302.866 367.236C303.058 367.416 303.154 367.656 303.154 367.956C303.154 368.244 303.058 368.484 302.866 368.676C302.674 368.868 302.434 368.964 302.146 368.964Z" fill="white"/>
<path d="M192.576 295.2C192.736 295.2 192.816 295.28 192.816 295.44V296.952C192.816 297.112 192.736 297.192 192.576 297.192H189.432C189.368 297.192 189.336 297.224 189.336 297.288V311.76C189.336 311.92 189.256 312 189.096 312H187.272C187.112 312 187.032 311.92 187.032 311.76V297.288C187.032 297.224 187 297.192 186.936 297.192H183.96C183.8 297.192 183.72 297.112 183.72 296.952V295.44C183.72 295.28 183.8 295.2 183.96 295.2H192.576ZM198.578 299.664C198.978 299.664 199.322 299.752 199.61 299.928C199.722 299.992 199.762 300.096 199.73 300.24L199.37 302.064C199.354 302.208 199.258 302.256 199.082 302.208C198.874 302.128 198.65 302.088 198.41 302.088C198.314 302.088 198.17 302.104 197.978 302.136C197.482 302.184 197.066 302.456 196.73 302.952C196.41 303.448 196.25 304.048 196.25 304.752V311.76C196.25 311.92 196.17 312 196.01 312H194.186C194.026 312 193.946 311.92 193.946 311.76V300.024C193.946 299.864 194.026 299.784 194.186 299.784H196.01C196.17 299.784 196.25 299.864 196.25 300.024V301.416C196.25 301.464 196.258 301.496 196.274 301.512C196.306 301.512 196.33 301.488 196.346 301.44C196.81 300.256 197.554 299.664 198.578 299.664ZM204.86 299.592C206.028 299.592 206.98 299.96 207.716 300.696C208.468 301.432 208.844 302.4 208.844 303.6V311.76C208.844 311.92 208.764 312 208.604 312H206.78C206.62 312 206.54 311.92 206.54 311.76V311.232C206.54 311.2 206.524 311.176 206.492 311.16C206.476 311.144 206.452 311.152 206.42 311.184C205.86 311.856 205.036 312.192 203.948 312.192C203.036 312.192 202.228 311.936 201.524 311.424C200.836 310.896 200.492 309.968 200.492 308.64C200.492 307.248 200.908 306.232 201.74 305.592C202.588 304.936 203.692 304.608 205.052 304.608H206.444C206.508 304.608 206.54 304.576 206.54 304.512V303.816C206.54 303.144 206.38 302.608 206.06 302.208C205.74 301.792 205.324 301.584 204.812 301.584C204.412 301.584 204.076 301.72 203.804 301.992C203.532 302.264 203.372 302.616 203.324 303.048C203.324 303.208 203.244 303.288 203.084 303.288H201.14C200.98 303.288 200.9 303.208 200.9 303.048C200.98 302.024 201.388 301.192 202.124 300.552C202.86 299.912 203.772 299.592 204.86 299.592ZM204.452 310.176C205.012 310.176 205.5 310 205.916 309.648C206.332 309.296 206.54 308.8 206.54 308.16V306.528C206.54 306.464 206.508 306.432 206.444 306.432H204.98C204.34 306.432 203.828 306.608 203.444 306.96C203.06 307.296 202.868 307.792 202.868 308.448C202.868 309.024 203.012 309.456 203.3 309.744C203.588 310.032 203.972 310.176 204.452 310.176ZM215.752 299.616C216.76 299.616 217.528 299.96 218.056 300.648C218.6 301.32 218.872 302.28 218.872 303.528V311.76C218.872 311.92 218.792 312 218.632 312H216.808C216.648 312 216.568 311.92 216.568 311.76V303.72C216.568 303.048 216.424 302.528 216.136 302.16C215.848 301.792 215.448 301.608 214.936 301.608C214.408 301.608 213.992 301.792 213.688 302.16C213.4 302.512 213.24 303.016 213.208 303.672C213.208 303.768 213.2 303.816 213.184 303.816V311.76C213.184 311.92 213.104 312 212.944 312H211.12C210.96 312 210.88 311.92 210.88 311.76V300.024C210.88 299.864 210.96 299.784 211.12 299.784H212.944C213.104 299.784 213.184 299.864 213.184 300.024V300.672C213.184 300.704 213.2 300.728 213.232 300.744C213.264 300.744 213.296 300.72 213.328 300.672C213.904 299.968 214.712 299.616 215.752 299.616ZM224.479 312.144C223.279 312.144 222.327 311.856 221.623 311.28C220.935 310.688 220.591 309.896 220.591 308.904V308.688C220.591 308.528 220.671 308.448 220.831 308.448H222.535C222.695 308.448 222.775 308.528 222.775 308.688V308.856C222.775 309.288 222.943 309.656 223.279 309.96C223.615 310.248 224.031 310.392 224.527 310.392C225.007 310.392 225.391 310.248 225.679 309.96C225.983 309.672 226.135 309.304 226.135 308.856C226.135 308.504 226.031 308.208 225.823 307.968C225.615 307.728 225.367 307.544 225.079 307.416C224.807 307.272 224.383 307.08 223.807 306.84C223.183 306.568 222.663 306.304 222.247 306.048C221.847 305.792 221.487 305.424 221.167 304.944C220.847 304.464 220.687 303.856 220.687 303.12C220.687 302.032 221.023 301.184 221.695 300.576C222.383 299.968 223.303 299.664 224.455 299.664C225.639 299.664 226.567 299.976 227.239 300.6C227.927 301.224 228.271 302.072 228.271 303.144V303.216C228.271 303.376 228.191 303.456 228.031 303.456H226.375C226.215 303.456 226.135 303.376 226.135 303.216V303.048C226.135 302.616 225.983 302.248 225.679 301.944C225.375 301.64 224.983 301.488 224.503 301.488C224.007 301.488 223.615 301.64 223.327 301.944C223.039 302.248 222.895 302.616 222.895 303.048C222.895 303.384 222.991 303.664 223.183 303.888C223.375 304.112 223.607 304.296 223.879 304.44C224.151 304.568 224.583 304.76 225.175 305.016C225.831 305.304 226.375 305.584 226.807 305.856C227.239 306.112 227.615 306.48 227.935 306.96C228.271 307.44 228.439 308.04 228.439 308.76C228.439 309.8 228.079 310.624 227.359 311.232C226.655 311.84 225.695 312.144 224.479 312.144ZM234.792 299.592C235.832 299.592 236.656 299.944 237.264 300.648C237.888 301.336 238.2 302.248 238.2 303.384V308.376C238.2 309.56 237.888 310.496 237.264 311.184C236.656 311.856 235.832 312.192 234.792 312.192C234.408 312.192 234.016 312.12 233.616 311.976C233.232 311.832 232.888 311.608 232.584 311.304C232.504 311.256 232.464 311.272 232.464 311.352V316.344C232.464 316.504 232.384 316.584 232.224 316.584H230.4C230.24 316.584 230.16 316.504 230.16 316.344V300.024C230.16 299.864 230.24 299.784 230.4 299.784H232.224C232.384 299.784 232.464 299.864 232.464 300.024V300.408C232.464 300.44 232.48 300.464 232.512 300.48C232.544 300.48 232.576 300.464 232.608 300.432C232.912 300.144 233.256 299.936 233.64 299.808C234.024 299.664 234.408 299.592 234.792 299.592ZM235.92 303.552C235.92 302.976 235.752 302.504 235.416 302.136C235.096 301.768 234.68 301.584 234.168 301.584C233.672 301.584 233.264 301.768 232.944 302.136C232.624 302.504 232.464 302.976 232.464 303.552V308.232C232.464 308.808 232.624 309.28 232.944 309.648C233.264 310.016 233.672 310.2 234.168 310.2C234.68 310.2 235.096 310.016 235.416 309.648C235.752 309.28 235.92 308.808 235.92 308.232V303.552ZM244.166 299.592C245.334 299.592 246.286 299.96 247.022 300.696C247.774 301.432 248.15 302.4 248.15 303.6V311.76C248.15 311.92 248.07 312 247.91 312H246.086C245.926 312 245.846 311.92 245.846 311.76V311.232C245.846 311.2 245.83 311.176 245.798 311.16C245.782 311.144 245.758 311.152 245.726 311.184C245.166 311.856 244.342 312.192 243.254 312.192C242.342 312.192 241.534 311.936 240.83 311.424C240.142 310.896 239.798 309.968 239.798 308.64C239.798 307.248 240.214 306.232 241.046 305.592C241.894 304.936 242.998 304.608 244.358 304.608H245.75C245.814 304.608 245.846 304.576 245.846 304.512V303.816C245.846 303.144 245.686 302.608 245.366 302.208C245.046 301.792 244.63 301.584 244.118 301.584C243.718 301.584 243.382 301.72 243.11 301.992C242.838 302.264 242.678 302.616 242.63 303.048C242.63 303.208 242.55 303.288 242.39 303.288H240.446C240.286 303.288 240.206 303.208 240.206 303.048C240.286 302.024 240.694 301.192 241.43 300.552C242.166 299.912 243.078 299.592 244.166 299.592ZM243.758 310.176C244.318 310.176 244.806 310 245.222 309.648C245.638 309.296 245.846 308.8 245.846 308.16V306.528C245.846 306.464 245.814 306.432 245.75 306.432H244.286C243.646 306.432 243.134 306.608 242.75 306.96C242.366 307.296 242.174 307.792 242.174 308.448C242.174 309.024 242.318 309.456 242.606 309.744C242.894 310.032 243.278 310.176 243.758 310.176ZM254.817 299.664C255.217 299.664 255.561 299.752 255.849 299.928C255.961 299.992 256.001 300.096 255.969 300.24L255.609 302.064C255.593 302.208 255.497 302.256 255.321 302.208C255.113 302.128 254.889 302.088 254.649 302.088C254.553 302.088 254.409 302.104 254.217 302.136C253.721 302.184 253.305 302.456 252.969 302.952C252.649 303.448 252.489 304.048 252.489 304.752V311.76C252.489 311.92 252.409 312 252.249 312H250.425C250.265 312 250.185 311.92 250.185 311.76V300.024C250.185 299.864 250.265 299.784 250.425 299.784H252.249C252.409 299.784 252.489 299.864 252.489 300.024V301.416C252.489 301.464 252.497 301.496 252.513 301.512C252.545 301.512 252.569 301.488 252.585 301.44C253.049 300.256 253.793 299.664 254.817 299.664ZM264.965 306.6C264.965 306.76 264.885 306.84 264.725 306.84H259.301C259.237 306.84 259.205 306.872 259.205 306.936V308.232C259.205 308.808 259.365 309.28 259.685 309.648C260.005 310.016 260.421 310.2 260.933 310.2C261.381 310.2 261.757 310.064 262.061 309.792C262.365 309.52 262.557 309.168 262.637 308.736C262.685 308.608 262.773 308.544 262.901 308.544L264.677 308.64C264.757 308.64 264.813 308.664 264.845 308.712C264.893 308.76 264.909 308.816 264.893 308.88C264.781 309.92 264.381 310.736 263.693 311.328C263.021 311.904 262.101 312.192 260.933 312.192C259.701 312.192 258.717 311.848 257.981 311.16C257.261 310.472 256.901 309.552 256.901 308.4V303.408C256.901 302.272 257.261 301.352 257.981 300.648C258.717 299.944 259.701 299.592 260.933 299.592C262.181 299.592 263.165 299.944 263.885 300.648C264.605 301.352 264.965 302.272 264.965 303.408V306.6ZM260.933 301.584C260.421 301.584 260.005 301.768 259.685 302.136C259.365 302.504 259.205 302.976 259.205 303.552V304.824C259.205 304.888 259.237 304.92 259.301 304.92H262.589C262.653 304.92 262.685 304.888 262.685 304.824V303.552C262.685 302.976 262.525 302.504 262.205 302.136C261.885 301.768 261.461 301.584 260.933 301.584ZM258.101 298.152C258.005 298.152 257.941 298.128 257.909 298.08C257.893 298.016 257.909 297.944 257.957 297.864L259.517 295.368C259.597 295.256 259.693 295.2 259.805 295.2H261.845C261.957 295.2 262.053 295.256 262.133 295.368L263.765 297.864C263.797 297.928 263.813 297.976 263.813 298.008C263.813 298.104 263.749 298.152 263.621 298.152H262.157C262.045 298.152 261.949 298.096 261.869 297.984L260.933 296.352C260.917 296.32 260.893 296.304 260.861 296.304C260.829 296.304 260.805 296.32 260.789 296.352L259.853 297.984C259.773 298.096 259.677 298.152 259.565 298.152H258.101ZM271.78 299.616C272.788 299.616 273.556 299.96 274.084 300.648C274.628 301.32 274.9 302.28 274.9 303.528V311.76C274.9 311.92 274.82 312 274.66 312H272.836C272.676 312 272.596 311.92 272.596 311.76V303.72C272.596 303.048 272.452 302.528 272.164 302.16C271.876 301.792 271.476 301.608 270.964 301.608C270.436 301.608 270.02 301.792 269.716 302.16C269.428 302.512 269.268 303.016 269.236 303.672C269.236 303.768 269.228 303.816 269.212 303.816V311.76C269.212 311.92 269.132 312 268.972 312H267.148C266.988 312 266.908 311.92 266.908 311.76V300.024C266.908 299.864 266.988 299.784 267.148 299.784H268.972C269.132 299.784 269.212 299.864 269.212 300.024V300.672C269.212 300.704 269.228 300.728 269.26 300.744C269.292 300.744 269.324 300.72 269.356 300.672C269.932 299.968 270.74 299.616 271.78 299.616ZM280.844 312.192C279.612 312.192 278.628 311.848 277.892 311.16C277.172 310.472 276.812 309.544 276.812 308.376V303.408C276.812 302.272 277.172 301.352 277.892 300.648C278.628 299.944 279.612 299.592 280.844 299.592C281.66 299.592 282.372 299.752 282.98 300.072C283.604 300.376 284.076 300.8 284.396 301.344C284.732 301.872 284.9 302.472 284.9 303.144V303.456C284.9 303.616 284.82 303.696 284.66 303.696L282.836 303.768C282.676 303.768 282.596 303.688 282.596 303.528V303.288C282.596 302.824 282.428 302.424 282.092 302.088C281.756 301.752 281.34 301.584 280.844 301.584C280.332 301.584 279.916 301.768 279.596 302.136C279.276 302.504 279.116 302.976 279.116 303.552V308.232C279.116 308.808 279.276 309.28 279.596 309.648C279.916 310.016 280.332 310.2 280.844 310.2C281.34 310.2 281.756 310.032 282.092 309.696C282.428 309.36 282.596 308.96 282.596 308.496V308.256C282.596 308.096 282.676 308.016 282.836 308.016L284.66 308.04C284.82 308.04 284.9 308.12 284.9 308.28V308.64C284.9 309.68 284.532 310.536 283.796 311.208C283.06 311.864 282.076 312.192 280.844 312.192ZM287.974 297.864C287.526 297.864 287.158 297.72 286.87 297.432C286.582 297.144 286.438 296.776 286.438 296.328C286.438 295.88 286.582 295.512 286.87 295.224C287.158 294.936 287.526 294.792 287.974 294.792C288.438 294.792 288.806 294.936 289.078 295.224C289.366 295.496 289.51 295.864 289.51 296.328C289.51 296.776 289.366 297.144 289.078 297.432C288.79 297.72 288.422 297.864 287.974 297.864ZM287.086 312C286.926 312 286.846 311.92 286.846 311.76V300.024C286.846 299.864 286.926 299.784 287.086 299.784H288.91C289.07 299.784 289.15 299.864 289.15 300.024V311.76C289.15 311.92 289.07 312 288.91 312H287.086ZM295.484 299.592C296.652 299.592 297.604 299.96 298.34 300.696C299.092 301.432 299.468 302.4 299.468 303.6V311.76C299.468 311.92 299.388 312 299.228 312H297.404C297.244 312 297.164 311.92 297.164 311.76V311.232C297.164 311.2 297.148 311.176 297.116 311.16C297.1 311.144 297.076 311.152 297.044 311.184C296.484 311.856 295.66 312.192 294.572 312.192C293.66 312.192 292.852 311.936 292.148 311.424C291.46 310.896 291.116 309.968 291.116 308.64C291.116 307.248 291.532 306.232 292.364 305.592C293.212 304.936 294.316 304.608 295.676 304.608H297.068C297.132 304.608 297.164 304.576 297.164 304.512V303.816C297.164 303.144 297.004 302.608 296.684 302.208C296.364 301.792 295.948 301.584 295.436 301.584C295.036 301.584 294.7 301.72 294.428 301.992C294.156 302.264 293.996 302.616 293.948 303.048C293.948 303.208 293.868 303.288 293.708 303.288H291.764C291.604 303.288 291.524 303.208 291.524 303.048C291.604 302.024 292.012 301.192 292.748 300.552C293.484 299.912 294.396 299.592 295.484 299.592ZM295.076 310.176C295.636 310.176 296.124 310 296.54 309.648C296.956 309.296 297.164 308.8 297.164 308.16V306.528C297.164 306.464 297.132 306.432 297.068 306.432H295.604C294.964 306.432 294.452 306.608 294.068 306.96C293.684 307.296 293.492 307.792 293.492 308.448C293.492 309.024 293.636 309.456 293.924 309.744C294.212 310.032 294.596 310.176 295.076 310.176Z" fill="white"/>
<path d="M99.2378 134.516C99.2378 134.516 109.701 136.386 116.129 138.55C125.206 141.604 138.189 149.264 138.189 149.264L161.131 162.626L179.661 173.719C179.661 173.719 188.836 180.032 195.544 182.039C199.615 183.256 206.259 183.93 206.259 183.93C206.259 183.93 211.659 184.171 214.831 183.047C216.886 182.319 219.747 180.4 219.747 180.4" stroke="url(#paint0_linear_2364_5102)" stroke-width="2"/>
<path d="M369.879 140.188C369.879 140.188 352.043 150.6 340.13 156.323C328.378 161.969 309.373 169.307 309.373 169.307L287.187 177.879C287.187 177.879 281.766 179.265 280.884 180.526C280.002 181.787 280.884 183.93 280.884 183.93L283.279 190.358C283.279 190.358 285.065 195.582 284.035 198.678C283.341 200.764 280.884 203.342 280.884 203.342C280.884 203.342 278.197 204.06 278.237 205.359C278.276 206.629 279.852 206.509 280.884 207.25C282.86 208.668 284.213 209.179 285.926 210.905C287.438 212.429 289.204 215.317 289.204 215.317C289.204 215.317 291.192 213.653 292.607 212.796C294.93 211.391 299.036 210.149 299.036 210.149" stroke="url(#paint1_linear_2364_5102)" stroke-width="2"/>
<path d="M298.91 210.275L335.97 201.451L355.005 197.417L368.871 194.518C368.871 194.518 373.122 194.443 375.678 193.636C377.819 192.96 380.846 191.115 380.846 191.115C380.846 191.115 384.134 184.594 385.51 180.148C386.949 175.499 387.302 172.749 387.905 167.92C388.614 162.249 388.536 153.298 388.536 153.298C388.536 153.298 389.054 145.743 386.645 141.953C385.393 139.985 382.485 137.667 382.485 137.667C382.485 137.667 379.271 136.659 377.695 137.667C376.136 138.664 375.656 140.103 375.678 141.953C375.699 143.758 376.545 144.721 377.695 146.113C379.121 147.839 380.328 148.663 382.485 149.264C384.911 149.941 388.914 148.76 388.914 148.76C388.914 148.76 394.792 146.922 397.99 144.726C402.041 141.945 406.435 135.398 406.435 135.398L412.486 127.457C412.486 127.457 415.653 122.732 418.537 120.65C420.965 118.896 425.47 117.372 425.47 117.372C425.47 117.372 433.238 115.536 438.201 116.112C440.503 116.378 444 117.372 444 117.372" stroke="white" stroke-width="2"/>
<path d="M41 121.658L53.6056 120.524C53.6056 120.524 60.7292 119.374 65.3287 119.389C69.7813 119.403 76.6738 120.524 76.6738 120.524C76.6738 120.524 82.6069 122.127 85.3716 124.683C87.9504 127.068 89.3263 128.933 90.0357 132.373C90.7275 135.728 89.9652 137.815 88.9012 141.071C87.971 143.917 88.0606 146.56 85.3716 147.878C83.3823 148.852 81.6858 148.858 79.6991 147.878C78.1691 147.123 77.2812 146.32 76.6738 144.726C75.7895 142.406 76.736 140.565 78.1864 138.55C80.0123 136.012 82.4117 136.026 85.3716 135.02C88.7358 133.876 90.7721 133.217 94.3216 133.381C96.3185 133.473 99.3638 134.264 99.3638 134.264M99.3638 134.264C99.3638 134.264 100.048 132.248 101.003 131.364C102.527 129.953 106.171 130.104 106.171 130.104C106.171 130.104 113.206 131.74 117.516 133.381C123.586 135.693 132.264 141.071 132.264 141.071L156.215 154.559L173.232 164.391L188.485 172.837C188.485 172.837 197.332 178.402 203.738 179.265C207.007 179.706 212.184 179.265 212.184 179.265C212.184 179.265 215.804 177.918 218.234 177.753C219.167 177.689 220.01 177.052 220.629 177.753C221.362 178.581 219.621 180.4 219.621 180.4M99.3638 134.264C99.3638 134.264 98.3633 138.385 97.9772 141.071C97.0313 147.649 97.9772 158.088 97.9772 158.088C97.9772 158.088 99.5458 164.934 101.003 169.181C102.385 173.211 105.162 179.265 105.162 179.265C105.162 179.265 108.882 187.587 113.356 190.863C116.075 192.853 121.171 194.518 121.171 194.518L136.802 199.434C136.802 199.434 153.383 203.245 163.526 207.124C169.763 209.509 179.157 214.057 179.157 214.057C179.157 214.057 187.922 218.719 192.645 222.881C194.734 224.722 197.687 227.923 197.687 227.923C197.687 227.923 198.467 232.986 200.46 235.36C202.475 237.759 205.503 239.394 207.394 239.394C209.284 239.394 210.386 237.38 210.797 235.36C211.589 231.467 205.593 231.984 202.351 229.688C200.511 228.384 200.46 227.293 197.687 226.284C194.914 225.276 195.418 230.948 195.418 230.948C195.418 230.948 197.25 237.284 200.46 239.394C203.423 241.341 209.41 240.907 209.41 240.907C209.41 240.907 212.418 243.163 214.579 244.184C217.226 245.435 218.853 246.641 221.764 246.327C225.417 245.934 229.453 240.907 229.453 240.907C229.453 240.907 232.185 238.724 233.361 236.873C234.2 235.552 234.982 234.782 235 233.217C235.022 231.233 234.071 229.99 232.479 228.805C230.602 227.409 228.838 227.417 226.554 227.923C224.394 228.402 223.413 229.473 221.764 230.948C220.12 232.42 220.243 234.447 218.234 235.36C216.397 236.195 214.775 234.286 213.066 235.36C211.536 236.323 211.156 237.623 210.797 239.394C210.316 241.77 210.793 243.459 212.184 245.445C214.434 248.659 221.764 248.47 221.764 248.47C221.764 248.47 227.276 251.027 230.966 250.739C232.574 250.613 234.495 250.487 235 249.857C235.504 249.226 244.328 239.394 244.328 239.394C244.328 239.394 246.652 237.191 246.723 235.36C246.798 233.401 244.328 230.948 244.328 230.948C244.328 230.948 240.714 229.845 238.907 230.948C237.895 231.566 237.482 232.19 236.891 233.217C235.893 234.95 236.008 238.26 236.008 238.26C236.008 238.26 237.448 240.436 238.907 240.907C239.985 241.254 240.807 241.438 241.807 240.907C242.88 240.336 243.445 238.26 243.445 238.26L237.899 234.226C237.899 234.226 236.046 235.752 235 236.873C233.117 238.889 232.972 240.778 230.966 242.671C228.989 244.537 226.621 244.115 225.041 246.327C224.17 247.547 223.112 248.416 223.529 249.857C224.006 251.506 227.436 251.874 227.436 251.874C227.436 251.874 230.519 251.677 232.479 251.874C235.045 252.131 236.393 252.814 238.907 253.386C240.678 253.789 241.685 254.836 243.445 254.395C245.012 254.002 246.723 251.874 246.723 251.874C246.723 251.874 249.874 248.818 249.874 246.327C249.874 244.832 248.74 242.671 248.74 242.671C248.74 242.671 246.822 240.718 245.336 240.907C243.782 241.104 242.437 243.68 242.437 243.68C242.437 243.68 241.318 246.971 242.437 248.47C242.985 249.204 244.328 249.857 244.328 249.857C244.328 249.857 247.654 249.147 247.857 247.84C248.101 246.273 245.831 244.686 244.328 244.184C242.511 243.577 241.382 245.094 239.916 246.327C238.317 247.672 236.134 249.983 235.63 251.117C235.126 252.252 236.008 254.395 236.008 254.395C236.008 254.395 238.327 255.47 239.916 255.781C241.993 256.188 243.728 257.157 245.336 255.781C246.158 255.079 245.957 254.148 246.723 253.386C247.691 252.424 249.874 251.874 249.874 251.874C252.336 251.874 255.169 252.63 256.177 251.874C257.186 251.117 258.602 250.613 258.32 248.47C258.038 246.327 248.74 240.907 248.74 240.907C248.74 240.907 246.47 239.534 246.723 238.26C247.06 236.561 251.009 239.394 251.009 239.394C251.009 239.394 255.357 242.489 258.32 244.184C259.868 245.07 260.575 246.189 262.354 246.327C264.442 246.489 267.27 244.184 267.27 244.184C267.27 244.184 268.677 242.312 268.783 240.907C269.007 237.921 263.488 235.36 263.488 235.36L257.186 230.948C257.186 230.948 256.051 230.318 257.186 228.805C258.32 227.293 263.488 233.217 263.488 233.217C263.488 233.217 266.951 236.174 269.665 236.873C272.096 237.499 274.176 238.493 276.094 236.873C277.305 235.85 277.659 234.79 277.859 233.217C278.175 230.723 275.338 227.293 275.338 227.293C275.338 227.293 269.794 223.318 267.27 219.855C266.578 218.906 265.86 218.486 265.631 217.334C265.115 214.734 271.934 219.855 271.934 219.855C271.934 219.855 275.207 223.415 277.859 224.898C280.481 226.364 282.331 228.276 285.17 227.293C286.631 226.787 287.383 226.126 288.321 224.898C290.126 222.534 290.041 220.188 289.204 217.334C288.46 214.802 286.972 213.841 285.17 211.914C280.706 207.141 276.241 206.96 270.8 203.342C262.156 197.596 259.113 191.685 249.874 186.955C247.049 185.508 245.606 183.499 242.437 183.677C239.623 183.836 238.195 185.177 236.008 186.955C234.413 188.252 233.996 189.475 232.479 190.863C230.683 192.504 229.662 193.538 227.436 194.518C224.614 195.761 222.194 197.352 219.621 195.653C218.174 194.697 217.486 193.688 217.1 191.997C216.651 190.029 217.209 188.693 218.234 186.955C219.19 185.335 219.898 183.918 221.764 183.677C223.092 183.506 224.021 183.818 225.041 184.686C226.218 185.687 226.927 186.842 226.554 188.341C226.183 189.834 225.038 190.57 223.529 190.863C221.939 191.171 219.117 190.989 219.621 189.476C220.125 187.963 222.52 178.635 222.52 178.635C222.52 178.635 222.52 175.232 223.529 173.719C224.537 172.206 236.891 168.047 236.891 168.047C236.891 168.047 243.432 165.536 247.731 165.904C250.743 166.161 255.169 168.047 255.169 168.047C255.169 168.047 263.249 175.211 269.665 176.114C272.151 176.464 273.825 176.618 276.094 176.114C278.363 175.61 300.982 167.792 316.558 161.492C337.852 152.878 369.879 136.659 369.879 136.659C369.879 136.659 371.599 136.086 372.4 136.659C373.779 137.643 369.879 140.188 369.879 140.188" stroke="white" stroke-width="2"/>
<defs>
<filter id="filter0_d_2364_5102" x="0" y="0" width="484" height="468" filterUnits="userSpaceOnUse" color-interpolation-filters="sRGB">
<feFlood flood-opacity="0" result="BackgroundImageFix"/>
<feColorMatrix in="SourceAlpha" type="matrix" values="0 0 0 0 0 0 0 0 0 0 0 0 0 0 0 0 0 0 127 0" result="hardAlpha"/>
<feOffset dy="4"/>
<feGaussianBlur stdDeviation="20"/>
<feComposite in2="hardAlpha" operator="out"/>
<feColorMatrix type="matrix" values="0 0 0 0 0.701961 0 0 0 0 0.462745 0 0 0 0 0.831373 0 0 0 0.25 0"/>
<feBlend mode="normal" in2="BackgroundImageFix" result="effect1_dropShadow_2364_5102"/>
<feBlend mode="normal" in="SourceGraphic" in2="effect1_dropShadow_2364_5102" result="shape"/>
</filter>
<linearGradient id="paint0_linear_2364_5102" x1="219.747" y1="183.951" x2="94.7091" y2="152.546" gradientUnits="userSpaceOnUse">
<stop offset="0.302585" stop-color="#6E10A1"/>
<stop offset="1" stop-color="#B376D4"/>
</linearGradient>
<linearGradient id="paint1_linear_2364_5102" x1="369.879" y1="215.317" x2="270.366" y2="202.811" gradientUnits="userSpaceOnUse">
<stop offset="0.302585" stop-color="#6E10A1"/>
<stop offset="1" stop-color="#B376D4"/>
</linearGradient>
</defs>
</svg>
