<svg width="405" height="143" viewBox="0 0 405 143" fill="none" xmlns="http://www.w3.org/2000/svg">
<path d="M59.2377 19.5158C59.2377 19.5158 69.7014 21.3865 76.1292 23.5496C85.2063 26.6042 98.1889 34.2643 98.1889 34.2643L121.131 47.6262L139.661 58.7191C139.661 58.7191 148.836 65.0322 155.544 67.0388C159.615 68.2564 166.259 68.9296 166.259 68.9296C166.259 68.9296 171.659 69.1713 174.831 68.0472C176.886 67.3189 179.747 65.4001 179.747 65.4001" stroke="url(#paint0_linear_1_338)" stroke-width="2"/>
<path d="M329.879 25.1882C329.879 25.1882 312.043 35.6 300.13 41.3234C288.378 46.9694 269.372 54.3071 269.372 54.3071L247.187 62.8789C247.187 62.8789 241.766 64.2655 240.884 65.526C240.001 66.7866 240.884 68.9296 240.884 68.9296L243.279 75.3584C243.279 75.3584 245.065 80.5824 244.035 83.6781C243.341 85.7639 240.884 88.3421 240.884 88.3421C240.884 88.3421 238.197 89.06 238.237 90.359C238.276 91.6288 239.852 91.5089 240.884 92.2499C242.86 93.6683 244.213 94.1792 245.926 95.9055C247.438 97.4289 249.204 100.317 249.204 100.317C249.204 100.317 251.192 98.6527 252.607 97.7963C254.93 96.3906 259.036 95.1491 259.036 95.1491" stroke="url(#paint1_linear_1_338)" stroke-width="2"/>
<path d="M258.91 95.2752L295.97 86.4513L315.005 82.4175L328.871 79.5182C328.871 79.5182 333.122 79.4429 335.678 78.6358C337.819 77.9597 340.846 76.1147 340.846 76.1147C340.846 76.1147 344.134 69.5939 345.51 65.1479C346.949 60.4995 347.302 57.7488 347.905 52.9205C348.614 47.2488 348.536 38.298 348.536 38.298C348.536 38.298 349.054 30.7435 346.645 26.953C345.393 24.9846 342.485 22.6671 342.485 22.6671C342.485 22.6671 339.271 21.6592 337.695 22.6671C336.136 23.6638 335.656 25.1033 335.678 26.953C335.699 28.7583 336.545 29.7212 337.695 31.1128C339.121 32.8389 340.328 33.6628 342.485 34.2642C344.911 34.9406 348.914 33.76 348.914 33.76C348.914 33.76 354.792 31.9218 357.99 29.7262C362.041 26.9445 366.435 20.3981 366.435 20.3981L372.486 12.4566C372.486 12.4566 375.653 7.73167 378.537 5.64958C380.965 3.89641 385.47 2.37213 385.47 2.37213C385.47 2.37213 393.238 0.536415 398.201 1.11157C400.503 1.37834 404 2.37213 404 2.37213" stroke="white" stroke-width="2"/>
<path d="M1 6.65806L13.6056 5.52356C13.6056 5.52356 20.7292 4.37436 25.3287 4.38906C29.7813 4.40328 36.6738 5.52356 36.6738 5.52356C36.6738 5.52356 42.6069 7.12736 45.3716 9.68339C47.9504 12.0676 49.3263 13.9331 50.0357 17.3728C50.7275 20.7277 49.9652 22.8146 48.9012 26.0706C47.971 28.9169 48.0606 31.5602 45.3716 32.8776C43.3823 33.8523 41.6858 33.8575 39.6991 32.8776C38.1691 32.123 37.2812 31.3204 36.6738 29.7262C35.7895 27.4056 36.736 25.5654 38.1864 23.5495C40.0123 21.0119 42.4117 21.0262 45.3716 20.02C48.7358 18.8762 50.7721 18.2173 54.3216 18.3812C56.3185 18.4735 59.3638 19.2636 59.3638 19.2636M59.3638 19.2636C59.3638 19.2636 60.0483 17.248 61.0025 16.3643C62.5268 14.9527 66.1708 15.1038 66.1708 15.1038C66.1708 15.1038 73.2062 16.7396 77.5158 18.3812C83.5858 20.6934 92.2643 26.0706 92.2643 26.0706L116.215 39.5586L133.232 49.3909L148.485 57.8366C148.485 57.8366 157.332 63.402 163.738 64.2655C167.007 64.7061 172.184 64.2655 172.184 64.2655C172.184 64.2655 175.804 62.9177 178.234 62.7528C179.167 62.6895 180.01 62.0523 180.629 62.7528C181.362 63.5814 179.621 65.4 179.621 65.4M59.3638 19.2636C59.3638 19.2636 58.3633 23.3854 57.9772 26.0706C57.0313 32.6487 57.9772 43.0881 57.9772 43.0881C57.9772 43.0881 59.5458 49.9336 61.0025 54.181C62.3845 58.2108 65.1623 64.2655 65.1623 64.2655C65.1623 64.2655 68.8818 72.5866 73.356 75.8626C76.0746 77.8532 81.1714 79.5182 81.1714 79.5182L96.8023 84.4344C96.8023 84.4344 113.383 88.2452 123.526 92.1238C129.763 94.5088 139.157 99.0568 139.157 99.0568C139.157 99.0568 147.922 103.719 152.645 107.881C154.734 109.722 157.687 112.923 157.687 112.923C157.687 112.923 158.467 117.986 160.46 120.36C162.475 122.759 165.503 124.394 167.394 124.394C169.284 124.394 170.386 122.38 170.797 120.36C171.589 116.467 165.593 116.984 162.351 114.688C160.511 113.384 160.46 112.293 157.687 111.284C154.914 110.276 155.418 115.948 155.418 115.948C155.418 115.948 157.25 122.284 160.46 124.394C163.423 126.341 169.41 125.907 169.41 125.907C169.41 125.907 172.418 128.163 174.579 129.184C177.226 130.435 178.853 131.641 181.764 131.327C185.417 130.934 189.453 125.907 189.453 125.907C189.453 125.907 192.185 123.724 193.361 121.873C194.2 120.552 194.982 119.782 195 118.217C195.022 116.233 194.071 114.99 192.479 113.805C190.602 112.409 188.838 112.417 186.554 112.923C184.394 113.402 183.413 114.473 181.764 115.948C180.12 117.42 180.243 119.447 178.234 120.36C176.397 121.195 174.775 119.286 173.066 120.36C171.536 121.323 171.156 122.623 170.797 124.394C170.316 126.77 170.793 128.459 172.184 130.445C174.434 133.659 181.764 133.47 181.764 133.47C181.764 133.47 187.276 136.027 190.966 135.739C192.574 135.613 194.495 135.487 195 134.857C195.504 134.226 204.328 124.394 204.328 124.394C204.328 124.394 206.652 122.191 206.723 120.36C206.798 118.401 204.328 115.948 204.328 115.948C204.328 115.948 200.714 114.845 198.907 115.948C197.895 116.566 197.482 117.19 196.891 118.217C195.893 119.95 196.008 123.26 196.008 123.26C196.008 123.26 197.448 125.436 198.907 125.907C199.985 126.254 200.807 126.438 201.807 125.907C202.88 125.336 203.445 123.26 203.445 123.26L197.899 119.226C197.899 119.226 196.046 120.752 195 121.873C193.117 123.889 192.972 125.778 190.966 127.671C188.989 129.537 186.621 129.115 185.041 131.327C184.17 132.547 183.112 133.416 183.529 134.857C184.006 136.506 187.436 136.874 187.436 136.874C187.436 136.874 190.519 136.677 192.479 136.874C195.045 137.131 196.393 137.814 198.907 138.386C200.678 138.789 201.685 139.836 203.445 139.395C205.012 139.002 206.723 136.874 206.723 136.874C206.723 136.874 209.874 133.818 209.874 131.327C209.874 129.832 208.74 127.671 208.74 127.671C208.74 127.671 206.822 125.718 205.336 125.907C203.782 126.104 202.437 128.68 202.437 128.68C202.437 128.68 201.318 131.971 202.437 133.47C202.985 134.204 204.328 134.857 204.328 134.857C204.328 134.857 207.654 134.147 207.857 132.84C208.101 131.273 205.831 129.686 204.328 129.184C202.511 128.577 201.382 130.094 199.916 131.327C198.317 132.672 196.134 134.983 195.63 136.117C195.126 137.252 196.008 139.395 196.008 139.395C196.008 139.395 198.327 140.47 199.916 140.781C201.993 141.188 203.728 142.157 205.336 140.781C206.158 140.079 205.957 139.148 206.723 138.386C207.691 137.424 209.874 136.874 209.874 136.874C212.336 136.874 215.169 137.63 216.177 136.874C217.186 136.117 218.602 135.613 218.32 133.47C218.038 131.327 208.74 125.907 208.74 125.907C208.74 125.907 206.47 124.534 206.723 123.26C207.06 121.561 211.009 124.394 211.009 124.394C211.009 124.394 215.357 127.489 218.32 129.184C219.868 130.07 220.575 131.189 222.354 131.327C224.442 131.489 227.27 129.184 227.27 129.184C227.27 129.184 228.677 127.312 228.783 125.907C229.007 122.921 223.488 120.36 223.488 120.36L217.186 115.948C217.186 115.948 216.051 115.318 217.186 113.805C218.32 112.293 223.488 118.217 223.488 118.217C223.488 118.217 226.951 121.174 229.665 121.873C232.096 122.499 234.176 123.493 236.094 121.873C237.305 120.85 237.659 119.79 237.859 118.217C238.175 115.723 235.338 112.293 235.338 112.293C235.338 112.293 229.794 108.318 227.27 104.855C226.578 103.906 225.86 103.486 225.631 102.334C225.115 99.734 231.934 104.855 231.934 104.855C231.934 104.855 235.207 108.415 237.859 109.898C240.481 111.364 242.331 113.276 245.17 112.293C246.631 111.787 247.383 111.126 248.321 109.898C250.126 107.534 250.041 105.188 249.204 102.334C248.46 99.8025 246.972 98.841 245.17 96.9139C240.706 92.1415 236.241 91.9597 230.8 88.3421C222.156 82.5958 219.113 76.6853 209.874 71.9549C207.049 70.5084 205.606 68.4986 202.437 68.6774C199.623 68.8362 198.195 70.1771 196.008 71.9549C194.413 73.2521 193.996 74.4752 192.479 75.8626C190.683 77.5035 189.662 78.5379 187.436 79.5182C184.614 80.7613 182.194 82.3523 179.621 80.6527C178.174 79.697 177.486 78.6878 177.1 76.9971C176.651 75.0293 177.209 73.6935 178.234 71.9549C179.19 70.3346 179.898 68.9178 181.764 68.6774C183.092 68.5063 184.021 68.8182 185.041 69.6859C186.218 70.687 186.927 71.8421 186.554 73.3415C186.183 74.834 185.038 75.5698 183.529 75.8626C181.939 76.1709 179.117 75.9887 179.621 74.476C180.125 72.9633 182.52 63.6352 182.52 63.6352C182.52 63.6352 182.52 60.2317 183.529 58.719C184.537 57.2064 196.891 53.0465 196.891 53.0465C196.891 53.0465 203.432 50.5356 207.731 50.9036C210.743 51.1613 215.169 53.0465 215.169 53.0465C215.169 53.0465 223.249 60.2109 229.665 61.1141C232.151 61.4641 233.825 61.6183 236.094 61.1141C238.363 60.6099 260.982 52.7925 276.558 46.4916C297.852 37.8776 329.879 21.6587 329.879 21.6587C329.879 21.6587 331.599 21.0864 332.4 21.6587C333.779 22.6432 329.879 25.1882 329.879 25.1882" stroke="white" stroke-width="2"/>
<defs>
<linearGradient id="paint0_linear_1_338" x1="179.747" y1="68.9515" x2="54.7091" y2="37.5465" gradientUnits="userSpaceOnUse">
<stop offset="0.302585" stop-color="#6E10A1"/>
<stop offset="1" stop-color="#B376D4"/>
</linearGradient>
<linearGradient id="paint1_linear_1_338" x1="329.879" y1="100.317" x2="230.366" y2="87.8106" gradientUnits="userSpaceOnUse">
<stop offset="0.302585" stop-color="#6E10A1"/>
<stop offset="1" stop-color="#B376D4"/>
</linearGradient>
</defs>
</svg>
