<svg width="32" height="32" viewBox="0 0 32 32" fill="none" xmlns="http://www.w3.org/2000/svg">
<circle cx="16" cy="16" r="16" fill="#8080FF"/>
<path d="M10.196 7.50199C10.196 7.06726 13.2391 6.63252 13.2392 7.50199V11.4146L14.1086 12.7188C14.5434 12.7188 13.2392 14.023 13.2392 14.023V17.5009C13.2392 17.5009 14.1086 18.1929 14.1086 18.8051C14.1086 18.9489 14.0606 19.0971 13.9872 19.2398C13.748 19.7042 13.2392 20.1093 13.2392 20.1093V24.0219C13.2392 25.326 10.196 25.326 10.196 24.0219V20.544C10.196 20.544 9.32655 19.6745 9.32655 19.2398C9.32655 18.8051 10.196 17.5009 10.196 17.5009V14.023C10.196 14.023 9.91632 12.8827 9.32655 12.7188C8.91709 12.605 10.0221 12.6012 11.2725 12.6277C8.34612 12.4944 7.88103 9.78467 8.02235 8.37145C8.97028 8.5821 9.67632 8.94967 10.196 9.392V7.50199Z" fill="white"/>
<path d="M14.1086 12.7188L13.2392 11.4146C13.2392 11.4146 13.2392 8.37145 13.2392 7.50199C13.2391 6.63252 10.196 7.06726 10.196 7.50199C10.196 7.93672 10.196 9.41087 10.196 9.41087M14.1086 12.7188C14.5434 12.7188 13.2392 14.023 13.2392 14.023V17.5009C13.2392 17.5009 14.1086 18.1929 14.1086 18.8051C14.1086 18.9489 14.0606 19.0971 13.9872 19.2398M14.1086 12.7188C14.1086 12.7188 8.47987 12.4834 9.32655 12.7188C9.91632 12.8827 10.196 14.023 10.196 14.023V17.5009C10.196 17.5009 9.32655 18.8051 9.32655 19.2398M9.32655 19.2398C9.32655 19.6745 10.196 20.544 10.196 20.544C10.196 20.544 10.196 22.7177 10.196 24.0219C10.196 25.3261 13.2392 25.3261 13.2392 24.0219C13.2392 22.7177 13.2392 20.1093 13.2392 20.1093C13.2392 20.1093 13.748 19.7042 13.9872 19.2398M9.32655 19.2398H13.9872M11.5002 12.6328C11.6451 11.4736 11.1524 9.06703 8.02235 8.37145C7.87744 9.82056 8.37014 12.6328 11.5002 12.6328Z" stroke="#8080FF"/>
<path d="M21.5657 24.498C21.5657 24.9327 18.5226 25.3675 18.5226 24.498V20.5854L17.6531 19.2812C17.2184 19.2812 18.5226 17.977 18.5226 17.977V14.4991C18.5226 14.4991 17.6531 13.8071 17.6531 13.1949C17.6531 13.0511 17.7011 12.9029 17.7746 12.7602C18.0137 12.2958 18.5226 11.8907 18.5226 11.8907V7.97815C18.5226 6.67395 21.5657 6.67395 21.5657 7.97815V11.456C21.5657 11.456 22.4352 12.3255 22.4352 12.7602C22.4352 13.1949 21.5657 14.4991 21.5657 14.4991V17.977C21.5657 17.977 21.8454 19.1173 22.4352 19.2812C22.8446 19.395 21.7396 19.3988 20.4892 19.3723C23.4156 19.5056 23.8807 22.2153 23.7394 23.6285C22.7914 23.4179 22.0854 23.0503 21.5657 22.608V24.498Z" fill="white"/>
<path d="M17.6531 19.2812L18.5226 20.5854C18.5226 20.5854 18.5226 23.6285 18.5226 24.498C18.5226 25.3675 21.5657 24.9327 21.5657 24.498C21.5657 24.0633 21.5657 22.5891 21.5657 22.5891M17.6531 19.2812C17.2184 19.2812 18.5226 17.977 18.5226 17.977V14.4991C18.5226 14.4991 17.6531 13.8071 17.6531 13.1949C17.6531 13.0511 17.7011 12.9029 17.7746 12.7602M17.6531 19.2812C17.6531 19.2812 23.2818 19.5166 22.4352 19.2812C21.8454 19.1173 21.5657 17.977 21.5657 17.977V14.4991C21.5657 14.4991 22.4352 13.1949 22.4352 12.7602M22.4352 12.7602C22.4352 12.3255 21.5657 11.456 21.5657 11.456C21.5657 11.456 21.5657 9.28235 21.5657 7.97815C21.5657 6.67395 18.5226 6.67395 18.5226 7.97815C18.5226 9.28235 18.5226 11.8907 18.5226 11.8907C18.5226 11.8907 18.0137 12.2958 17.7746 12.7602M22.4352 12.7602H17.7746M20.2615 19.3672C20.1166 20.5264 20.6093 22.933 23.7394 23.6285C23.8843 22.1794 23.3916 19.3672 20.2615 19.3672Z" stroke="#8080FF"/>
</svg>
