<svg width="18" height="18" viewBox="0 0 18 18" fill="none" xmlns="http://www.w3.org/2000/svg">
<path d="M13.7512 13.7543H11.7525V10.6215C11.7525 9.8745 11.7375 8.913 10.71 8.913C9.66825 8.913 9.50925 9.726 9.50925 10.5667V13.7543H7.50975V7.3125H9.42975V8.19H9.456C9.7245 7.6845 10.377 7.14975 11.352 7.14975C13.377 7.14975 13.752 8.48325 13.752 10.218V13.7543H13.7512ZM5.25225 6.43125C5.09967 6.43145 4.94854 6.40153 4.80755 6.3432C4.66655 6.28488 4.53845 6.1993 4.43059 6.09138C4.32273 5.98345 4.23724 5.85529 4.17901 5.71426C4.12078 5.57322 4.09095 5.42208 4.09125 5.2695C4.0914 5.03988 4.15963 4.81545 4.28733 4.62461C4.41503 4.43377 4.59645 4.28508 4.80865 4.19734C5.02085 4.1096 5.2543 4.08676 5.47949 4.13171C5.70467 4.17665 5.91147 4.28736 6.07373 4.44983C6.23599 4.6123 6.34644 4.81925 6.39109 5.04449C6.43574 5.26973 6.4126 5.50315 6.32459 5.71524C6.23658 5.92733 6.08765 6.10855 5.89664 6.236C5.70564 6.36345 5.48112 6.4314 5.2515 6.43125H5.25225ZM6.25425 13.7543H4.2495V7.3125H6.255V13.7543H6.25425ZM14.7525 2.25H3.24675C2.69475 2.25 2.25 2.685 2.25 3.22275V14.7772C2.25 15.315 2.6955 15.75 3.246 15.75H14.7495C15.3 15.75 15.75 15.315 15.75 14.7772V3.22275C15.75 2.685 15.3 2.25 14.7495 2.25H14.7518H14.7525Z" fill="#ADB0B3"/>
</svg>
