<svg width="1040" height="174" viewBox="0 0 1040 174" fill="none" xmlns="http://www.w3.org/2000/svg">
<rect width="1040" height="174" rx="10" fill="#404EED"/>
<path d="M717.172 33.303C715.712 32.3182 714.474 31.0424 713.535 29.5561C712.595 28.0697 711.972 26.4045 711.71 24.6667L710.8 18.6061C710.648 18.303 710.496 18 710.193 18C710.032 18 709.877 18.0636 709.763 18.1773C709.65 18.2909 709.586 18.4454 709.586 18.6061L708.676 24.6667C708.384 26.4151 707.736 28.0834 706.77 29.5697C705.804 31.0561 704.541 32.3273 703.062 33.303L702.152 33.7576C702 33.9091 702 34.0606 702 34.3636C702 34.5152 702 34.8182 702.152 34.8182L703.062 35.4242C704.555 36.3863 705.826 37.6545 706.794 39.1424C707.761 40.6318 708.403 42.3075 708.676 44.0606L709.586 50.1212C709.586 50.4242 709.889 50.5758 710.193 50.5758C710.496 50.5758 710.648 50.4242 710.8 50.1212L711.71 44.0606C711.954 42.3166 712.569 40.6454 713.511 39.156C714.452 37.6666 715.7 36.3954 717.172 35.4242L718.082 34.8182C718.234 34.8182 718.386 34.5152 718.386 34.3636C718.386 34.247 718.358 34.1303 718.305 34.0257C718.252 33.9197 718.176 33.8288 718.082 33.7576L717.172 33.303Z" fill="#FF78B9"/>
<path d="M820.372 97.9444C819.742 97.5702 819.201 97.0641 818.782 96.4641C818.363 95.8626 818.078 95.1793 817.945 94.4596L817.641 91.8838H817.186L816.731 94.4596C816.623 95.1702 816.365 95.8489 815.972 96.4504C815.579 97.0519 815.062 97.5611 814.455 97.9444L814.152 98.2474C814.111 98.2474 814.073 98.2641 814.044 98.2929C814.015 98.3201 814 98.3595 814 98.3989C814 98.4398 814.015 98.4777 814.044 98.5065C814.073 98.5353 814.111 98.5505 814.152 98.5505L814.455 98.8535C815.062 99.2368 815.579 99.7474 815.972 100.349C816.365 100.95 816.623 101.629 816.731 102.338L817.186 104.914H817.641L817.945 102.338C818.078 101.619 818.363 100.935 818.782 100.335C819.201 99.7338 819.742 99.2292 820.372 98.8535L820.676 98.5505L820.372 97.9444Z" fill="#FFC619"/>
<path d="M504.126 128.091C501.746 126.603 499.725 124.609 498.203 122.253C496.683 119.896 495.7 117.233 495.326 114.455L493.809 104.758C493.773 104.544 493.661 104.35 493.494 104.211C493.327 104.071 493.116 103.997 492.899 104C492.68 103.997 492.47 104.071 492.303 104.211C492.136 104.35 492.024 104.544 491.989 104.758L490.471 114.455C490.068 117.224 489.073 119.876 487.554 122.227C486.037 124.58 484.029 126.58 481.672 128.091L480.458 128.849C480.312 128.912 480.189 129.018 480.108 129.155C480.026 129.291 479.989 129.449 480.003 129.606C479.989 129.764 480.026 129.923 480.108 130.058C480.189 130.194 480.312 130.302 480.458 130.364L481.672 131.121C484.022 132.679 486.019 134.709 487.534 137.085C489.05 139.459 490.05 142.124 490.471 144.909L491.989 154.455C492.024 154.668 492.136 154.862 492.303 155.002C492.47 155.141 492.68 155.215 492.899 155.212C493.116 155.215 493.327 155.141 493.494 155.002C493.661 154.862 493.773 154.668 493.809 154.455L495.326 144.909C495.718 142.117 496.707 139.44 498.226 137.061C499.743 134.682 501.756 132.656 504.126 131.121L505.34 130.364C505.486 130.302 505.607 130.194 505.689 130.058C505.771 129.923 505.807 129.764 505.795 129.606C505.807 129.449 505.771 129.291 505.689 129.155C505.607 129.018 505.486 128.912 505.34 128.849L504.126 128.091Z" fill="#91FFAD"/>
<path d="M577.061 51.5154C610.574 34.8426 634.231 47.7938 634.231 47.7938C650.76 42.7324 665.469 46.3051 672.9 51.962C677.6 55.6836 667.137 54.9392 643.481 54.9392H577.82C577.337 54.9392 576.873 54.7517 576.532 54.4167C576.191 54.0818 576 53.6262 576 53.1529C575.997 52.809 576.096 52.4711 576.284 52.1808C576.473 51.8905 576.742 51.6583 577.061 51.5154Z" fill="#8080FF"/>
<path d="M190.532 132C181.43 132.005 172.467 134.206 164.407 138.415C156.348 142.625 149.433 148.718 144.258 156.173C124.005 146.986 101.531 143.781 79.5026 146.942C57.476 150.102 36.8241 159.493 20 174H244.999C241.849 161.994 234.799 151.362 224.946 143.766C215.094 136.168 202.993 132.032 190.532 132Z" fill="#8080FF"/>
<path d="M200.372 151.061C199.742 150.686 199.201 150.18 198.782 149.58C198.363 148.979 198.078 148.295 197.945 147.576L197.641 145H197.186L196.731 147.576C196.623 148.286 196.365 148.965 195.972 149.567C195.579 150.168 195.062 150.677 194.455 151.061L194.152 151.364C194.111 151.364 194.073 151.38 194.044 151.409C194.015 151.436 194 151.476 194 151.515C194 151.556 194.015 151.594 194.044 151.623C194.073 151.651 194.111 151.667 194.152 151.667L194.455 151.97C195.062 152.353 195.579 152.864 195.972 153.465C196.365 154.067 196.623 154.745 196.731 155.455L197.186 158.03H197.641L197.945 155.455C198.078 154.735 198.363 154.052 198.782 153.452C199.201 152.85 199.742 152.345 200.372 151.97L200.676 151.667L200.372 151.061Z" fill="#FFC619"/>
</svg>
