<svg width="1440" height="1024" viewBox="0 0 1440 1024" fill="none" xmlns="http://www.w3.org/2000/svg">
<path d="M1440 0C1315.02 111.44 1270.04 162.92 1349.86 255.2C1254.68 359.96 1286.69 399.56 1385.95 512C1308.17 568.2 1275.87 589.76 1324.54 615.8C1218.76 679.92 1184.15 715.16 1276.27 768.88C1286.23 774.703 1293.61 782.426 1297.53 791.128C1301.45 799.83 1301.74 809.145 1298.36 817.96C1267.26 898.84 1397.51 976.56 1440 1024V0Z" fill="#3442D9" fill-opacity="0.3"/>
<path d="M1339.51 376.53C1337.13 375.045 1335.11 373.054 1333.59 370.701C1332.07 368.347 1331.09 365.689 1330.72 362.915L1329.2 353.232C1329.16 353.019 1329.05 352.825 1328.88 352.686C1328.72 352.547 1328.5 352.473 1328.29 352.476C1328.07 352.473 1327.86 352.547 1327.69 352.686C1327.52 352.825 1327.41 353.019 1327.38 353.232L1325.86 362.915C1325.46 365.68 1324.46 368.328 1322.94 370.676C1321.43 373.025 1319.42 375.022 1317.06 376.53L1315.85 377.287C1315.7 377.35 1315.58 377.456 1315.5 377.593C1315.41 377.729 1315.38 377.886 1315.39 378.043C1315.38 378.201 1315.41 378.36 1315.5 378.494C1315.58 378.63 1315.7 378.738 1315.85 378.8L1317.06 379.556C1319.41 381.111 1321.41 383.139 1322.92 385.511C1324.44 387.882 1325.44 390.543 1325.86 393.323L1327.38 402.855C1327.41 403.068 1327.52 403.262 1327.69 403.401C1327.86 403.54 1328.07 403.614 1328.29 403.611C1328.5 403.614 1328.72 403.54 1328.88 403.401C1329.05 403.262 1329.16 403.068 1329.2 402.855L1330.72 393.323C1331.11 390.535 1332.1 387.862 1333.61 385.487C1335.13 383.112 1337.15 381.089 1339.51 379.556L1340.73 378.8C1340.87 378.738 1341 378.63 1341.08 378.494C1341.16 378.36 1341.2 378.201 1341.18 378.043C1341.2 377.886 1341.16 377.729 1341.08 377.593C1341 377.456 1340.87 377.35 1340.73 377.287L1339.51 376.53Z" fill="#91FFAD"/>
<path d="M1235.37 102.752C1234.74 102.378 1234.2 101.873 1233.78 101.274C1233.36 100.673 1233.08 99.9907 1232.94 99.2721L1232.64 96.7002H1232.19L1231.73 99.2721C1231.62 99.9816 1231.37 100.659 1230.97 101.26C1230.58 101.861 1230.06 102.369 1229.46 102.752L1229.15 103.054C1229.11 103.054 1229.07 103.071 1229.04 103.1C1229.02 103.127 1229 103.166 1229 103.206C1229 103.246 1229.02 103.284 1229.04 103.313C1229.07 103.342 1229.11 103.357 1229.15 103.357L1229.46 103.659C1230.06 104.042 1230.58 104.552 1230.97 105.153C1231.37 105.753 1231.62 106.431 1231.73 107.139L1232.19 109.711H1232.64L1232.94 107.139C1233.08 106.42 1233.36 105.738 1233.78 105.139C1234.2 104.538 1234.74 104.035 1235.37 103.659L1235.68 103.357L1235.37 102.752Z" fill="#FFC619"/>
<path d="M1299.37 623.137C1298.74 622.764 1298.2 622.258 1297.78 621.659C1297.36 621.059 1297.08 620.376 1296.94 619.658L1296.64 617.086H1296.19L1295.73 619.658C1295.62 620.367 1295.37 621.045 1294.97 621.646C1294.58 622.246 1294.06 622.755 1293.46 623.137L1293.15 623.44C1293.11 623.44 1293.07 623.457 1293.04 623.485C1293.02 623.513 1293 623.552 1293 623.591C1293 623.632 1293.02 623.67 1293.04 623.699C1293.07 623.727 1293.11 623.743 1293.15 623.743L1293.46 624.045C1294.06 624.428 1294.58 624.938 1294.97 625.538C1295.37 626.139 1295.62 626.817 1295.73 627.525L1296.19 630.097H1296.64L1296.94 627.525C1297.08 626.806 1297.36 626.124 1297.78 625.525C1298.2 624.924 1298.74 624.42 1299.37 624.045L1299.68 623.743L1299.37 623.137Z" fill="#F47B67"/>
<path d="M1290.27 917.858C1286.25 915.263 1282.83 911.842 1280.24 907.824C1277.64 903.807 1275.95 899.284 1275.25 894.559L1272.82 878.22C1272.73 877.846 1272.52 877.512 1272.21 877.267C1271.91 877.022 1271.53 876.878 1271.15 876.859C1270.76 876.853 1270.38 876.986 1270.06 877.235C1269.76 877.483 1269.56 877.833 1269.48 878.22L1267.05 894.559C1266.33 899.295 1264.6 903.821 1261.99 907.838C1259.36 911.854 1255.92 915.271 1251.88 917.858L1249.76 919.219C1249.53 919.376 1249.35 919.579 1249.23 919.815C1249.09 920.05 1249.02 920.311 1249 920.581C1249 920.853 1249.08 921.118 1249.21 921.355C1249.33 921.593 1249.53 921.794 1249.76 921.942L1251.88 923.304C1255.93 925.923 1259.38 929.366 1261.99 933.407C1264.6 937.449 1266.33 941.999 1267.05 946.753L1269.48 963.093C1269.56 963.48 1269.76 963.829 1270.06 964.079C1270.38 964.327 1270.76 964.46 1271.15 964.454C1271.53 964.434 1271.91 964.291 1272.21 964.047C1272.52 963.802 1272.73 963.468 1272.82 963.093L1275.25 946.753C1275.95 942.008 1277.64 937.463 1280.24 933.421C1282.82 929.378 1286.25 925.93 1290.27 923.304L1292.54 921.942C1292.76 921.786 1292.92 921.581 1293.03 921.342C1293.13 921.103 1293.18 920.841 1293.15 920.581C1293.17 920.322 1293.12 920.065 1293.01 919.829C1292.91 919.593 1292.74 919.384 1292.54 919.219L1290.27 917.858Z" fill="#8CD9FF"/>
<path d="M7.28043e-06 -1.52588e-05C124.98 111.44 169.963 162.92 90.1371 255.2C185.316 359.96 153.307 399.56 54.0483 512C131.835 568.2 164.128 589.76 115.462 615.8C221.235 679.92 255.851 715.16 163.731 768.88C153.769 774.703 146.388 782.426 142.47 791.128C138.553 799.83 138.263 809.145 141.636 817.96C172.739 898.84 42.4908 976.56 7.28043e-06 1024L7.28043e-06 -1.52588e-05Z" fill="#3442D9" fill-opacity="0.5"/>
<path d="M204.126 413.846C201.746 412.36 199.725 410.369 198.203 408.017C196.683 405.663 195.7 403.005 195.326 400.23L193.809 390.548C193.773 390.334 193.661 390.141 193.494 390.001C193.327 389.862 193.116 389.788 192.899 389.791C192.68 389.788 192.47 389.862 192.303 390.001C192.136 390.141 192.024 390.334 191.989 390.548L190.471 400.23C190.068 402.996 189.073 405.643 187.554 407.991C186.037 410.341 184.029 412.338 181.672 413.846L180.458 414.602C180.312 414.666 180.189 414.772 180.108 414.908C180.026 415.044 179.989 415.201 180.003 415.359C179.989 415.516 180.026 415.675 180.108 415.81C180.189 415.946 180.312 416.053 180.458 416.115L181.672 416.872C184.022 418.427 186.019 420.454 187.534 422.826C189.05 425.197 190.05 427.858 190.471 430.639L191.989 440.17C192.024 440.383 192.136 440.577 192.303 440.716C192.47 440.855 192.68 440.929 192.899 440.926C193.116 440.929 193.327 440.855 193.494 440.716C193.661 440.577 193.773 440.383 193.809 440.17L195.326 430.639C195.718 427.851 196.707 425.177 198.226 422.802C199.743 420.427 201.756 418.404 204.126 416.872L205.34 416.115C205.486 416.053 205.607 415.946 205.689 415.81C205.771 415.675 205.807 415.516 205.795 415.359C205.807 415.201 205.771 415.044 205.689 414.908C205.607 414.772 205.486 414.666 205.34 414.602L204.126 413.846Z" fill="#91FFAD"/>
<path d="M215.126 965.097C212.746 963.611 210.725 961.62 209.203 959.268C207.683 956.914 206.7 954.256 206.326 951.481L204.809 941.799C204.773 941.585 204.661 941.392 204.494 941.252C204.327 941.113 204.116 941.039 203.899 941.042C203.68 941.039 203.47 941.113 203.303 941.252C203.136 941.392 203.024 941.585 202.989 941.799L201.471 951.481C201.068 954.246 200.073 956.894 198.554 959.242C197.037 961.591 195.029 963.588 192.672 965.097L191.458 965.853C191.312 965.917 191.189 966.023 191.108 966.159C191.026 966.295 190.989 966.452 191.003 966.61C190.989 966.767 191.026 966.926 191.108 967.06C191.189 967.197 191.312 967.304 191.458 967.366L192.672 968.122C195.022 969.678 197.019 971.705 198.534 974.077C200.05 976.448 201.05 979.109 201.471 981.89L202.989 991.421C203.024 991.634 203.136 991.828 203.303 991.967C203.47 992.106 203.68 992.18 203.899 992.177C204.116 992.18 204.327 992.106 204.494 991.967C204.661 991.828 204.773 991.634 204.809 991.421L206.326 981.89C206.718 979.101 207.707 976.428 209.226 974.053C210.743 971.678 212.756 969.655 215.126 968.122L216.34 967.366C216.486 967.304 216.607 967.197 216.689 967.06C216.771 966.926 216.807 966.767 216.795 966.61C216.807 966.452 216.771 966.295 216.689 966.159C216.607 966.023 216.486 965.917 216.34 965.853L215.126 965.097Z" fill="#FFB0FF"/>
<path d="M179.372 683.949C178.742 683.575 178.201 683.07 177.782 682.471C177.363 681.87 177.078 681.188 176.945 680.469L176.641 677.897H176.186L175.731 680.469C175.623 681.179 175.365 681.857 174.972 682.457C174.579 683.058 174.062 683.566 173.455 683.949L173.152 684.252C173.111 684.252 173.073 684.268 173.044 684.297C173.015 684.324 173 684.364 173 684.403C173 684.444 173.015 684.482 173.044 684.51C173.073 684.539 173.111 684.554 173.152 684.554L173.455 684.857C174.062 685.24 174.579 685.749 174.972 686.35C175.365 686.951 175.623 687.628 175.731 688.337L176.186 690.908H176.641L176.945 688.337C177.078 687.618 177.363 686.936 177.782 686.336C178.201 685.736 178.742 685.232 179.372 684.857L179.676 684.554L179.372 683.949Z" fill="#FFC619"/>
<path d="M127.267 170.597C123.247 168.002 119.833 164.582 117.239 160.563C114.644 156.547 112.945 152.023 112.247 147.299L109.82 130.959C109.729 130.586 109.516 130.251 109.213 130.006C108.909 129.761 108.53 129.618 108.151 129.598C107.756 129.592 107.377 129.725 107.058 129.975C106.755 130.223 106.558 130.572 106.482 130.959L104.054 147.299C103.326 152.034 101.597 156.56 98.987 160.577C96.3623 164.594 92.9184 168.01 88.8827 170.597L86.7586 171.958C86.531 172.116 86.349 172.319 86.2276 172.555C86.0911 172.789 86.0152 173.051 86 173.32C86 173.592 86.0759 173.857 86.2124 174.095C86.3338 174.332 86.531 174.533 86.7586 174.682L88.8827 176.043C92.9336 178.662 96.3774 182.105 98.987 186.146C101.597 190.189 103.326 194.738 104.054 199.493L106.482 215.832C106.558 216.219 106.755 216.569 107.058 216.818C107.377 217.066 107.756 217.2 108.151 217.194C108.53 217.174 108.909 217.03 109.213 216.787C109.516 216.542 109.729 216.207 109.82 215.832L112.247 199.493C112.945 194.747 114.644 190.202 117.239 186.16C119.818 182.117 123.247 178.67 127.267 176.043L129.543 174.682C129.755 174.526 129.922 174.32 130.029 174.081C130.135 173.842 130.18 173.58 130.15 173.32C130.165 173.061 130.12 172.804 130.013 172.568C129.907 172.332 129.74 172.123 129.543 171.958L127.267 170.597Z" fill="#8CD9FF"/>
<path d="M91.4434 852.138C90.2099 851.356 89.163 850.313 88.3771 849.085C87.5912 847.858 87.083 846.472 86.8918 845.027L86.1332 840.186C86.1332 840.067 86.0846 839.95 85.9997 839.866C85.9147 839.781 85.7978 839.732 85.678 839.732C85.5566 839.732 85.4413 839.781 85.3564 839.866C85.2699 839.95 85.2228 840.067 85.2228 840.186L84.4642 845.027C84.2716 846.472 83.7649 847.858 82.9774 849.085C82.1915 850.313 81.1446 851.356 79.9127 852.138L79.1541 852.592C79.0024 852.592 79.0024 852.894 79.0024 853.046C78.9948 853.127 79.0054 853.211 79.0312 853.288C79.057 853.366 79.0979 853.439 79.1541 853.5L79.9127 853.802C81.1128 854.621 82.1354 855.672 82.9168 856.893C83.6996 858.115 84.2261 859.483 84.4642 860.913L85.2228 865.905C85.2228 866.026 85.2699 866.141 85.3564 866.226C85.4413 866.311 85.5566 866.359 85.678 866.359C85.7978 866.359 85.9147 866.311 85.9997 866.226C86.0846 866.141 86.1332 866.026 86.1332 865.905L86.8918 860.913C87.13 859.483 87.6549 858.115 88.4378 856.893C89.2207 855.672 90.2418 854.621 91.4434 853.802L92.202 853.5C92.2566 853.439 92.2975 853.366 92.3249 853.288C92.3507 853.211 92.3597 853.127 92.3537 853.046C92.3537 852.894 92.3537 852.592 92.202 852.592L91.4434 852.138Z" fill="#FFC619"/>
<path d="M1248.44 725.976C1247.21 725.194 1246.16 724.151 1245.38 722.923C1244.59 721.696 1244.08 720.31 1243.89 718.865L1243.13 714.024C1243.13 713.905 1243.08 713.788 1243 713.703C1242.91 713.619 1242.8 713.57 1242.68 713.57C1242.56 713.57 1242.44 713.619 1242.36 713.703C1242.27 713.788 1242.22 713.905 1242.22 714.024L1241.46 718.865C1241.27 720.31 1240.76 721.696 1239.98 722.923C1239.19 724.151 1238.14 725.194 1236.91 725.976L1236.15 726.43C1236 726.43 1236 726.732 1236 726.884C1235.99 726.965 1236.01 727.049 1236.03 727.126C1236.06 727.204 1236.1 727.277 1236.15 727.338L1236.91 727.64C1238.11 728.459 1239.14 729.51 1239.92 730.731C1240.7 731.953 1241.23 733.321 1241.46 734.751L1242.22 739.743C1242.22 739.864 1242.27 739.979 1242.36 740.064C1242.44 740.149 1242.56 740.197 1242.68 740.197C1242.8 740.197 1242.91 740.149 1243 740.064C1243.08 739.979 1243.13 739.864 1243.13 739.743L1243.89 734.751C1244.13 733.321 1244.65 731.953 1245.44 730.731C1246.22 729.51 1247.24 728.459 1248.44 727.64L1249.2 727.338C1249.26 727.277 1249.3 727.204 1249.32 727.126C1249.35 727.049 1249.36 726.965 1249.35 726.884C1249.35 726.732 1249.35 726.43 1249.2 726.43L1248.44 725.976Z" fill="#9AFFD8"/>
</svg>
