<svg width="27" height="18" viewBox="0 0 27 18" fill="none" xmlns="http://www.w3.org/2000/svg">
<rect width="27" height="18" fill="#303339"/>
<path d="M20.0557 10.0225L19.0057 9.03371C19.4193 7.97004 19.2045 7.08614 18.3614 6.38202C17.5182 5.6779 16.6034 5.49813 15.617 5.8427L14.567 4.85393C14.8375 4.68914 15.1398 4.56929 15.4739 4.49438C15.808 4.41948 16.15 4.38202 16.5 4.38202C17.6295 4.38202 18.5881 4.75281 19.3756 5.49438C20.1631 6.23596 20.5568 7.13858 20.5568 8.20225C20.5568 8.53184 20.5131 8.85768 20.4256 9.17978C20.3381 9.50187 20.2148 9.78277 20.0557 10.0225ZM23.1341 12.9213L22.1795 12.0225C22.9591 11.4831 23.6392 10.8802 24.2199 10.2135C24.8006 9.54682 25.2261 8.8764 25.4966 8.20225C24.7011 6.53933 23.508 5.22472 21.917 4.25843C20.3261 3.29214 18.6 2.80899 16.7386 2.80899C16.0705 2.80899 15.3864 2.86891 14.6864 2.98876C13.9864 3.10861 13.4375 3.25094 13.0398 3.41573L11.942 2.35955C12.4989 2.11985 13.2108 1.91011 14.0778 1.73034C14.9449 1.55056 15.792 1.46067 16.6193 1.46067C18.8943 1.46067 20.9744 2.07116 22.8597 3.29213C24.7449 4.51311 26.125 6.14981 27 8.20225C26.5864 9.16105 26.0534 10.0375 25.4011 10.8315C24.7489 11.6255 23.9932 12.3221 23.1341 12.9213ZM24.5182 18L20.5091 14.2921C19.9523 14.5019 19.3239 14.6629 18.6239 14.7753C17.9239 14.8876 17.2159 14.9438 16.5 14.9438C14.1773 14.9438 12.0693 14.3333 10.1761 13.1124C8.28295 11.8914 6.89091 10.2547 6 8.20225C6.31818 7.42322 6.75966 6.66292 7.32443 5.92135C7.8892 5.17978 8.57727 4.47191 9.38864 3.79775L6.38182 0.966292L7.38409 0L25.4489 17.0112L24.5182 18ZM10.367 4.74157C9.77841 5.14607 9.20966 5.6779 8.6608 6.33708C8.11193 6.99626 7.71818 7.61798 7.47955 8.20225C8.29091 9.86517 9.51193 11.1798 11.1426 12.1461C12.7733 13.1124 14.6227 13.5955 16.6909 13.5955C17.2159 13.5955 17.733 13.5655 18.242 13.5056C18.7511 13.4457 19.133 13.3558 19.3875 13.236L17.8602 11.7978C17.6852 11.8727 17.4705 11.9288 17.2159 11.9663C16.9614 12.0037 16.7227 12.0225 16.5 12.0225C15.3864 12.0225 14.4318 11.6554 13.6364 10.9213C12.8409 10.1873 12.4432 9.2809 12.4432 8.20225C12.4432 7.97753 12.4631 7.75281 12.5028 7.52809C12.5426 7.30337 12.6023 7.10112 12.6818 6.92135L10.367 4.74157Z" fill="#ADB0B3"/>
</svg>
