<svg width="27" height="14" viewBox="0 0 27 14" fill="none" xmlns="http://www.w3.org/2000/svg">
<rect width="27" height="14" fill="#303339"/>
<path d="M16.5 10.9667C17.6295 10.9667 18.5881 10.5817 19.3756 9.81167C20.1631 9.04167 20.5568 8.10444 20.5568 7C20.5568 5.89556 20.1631 4.95833 19.3756 4.18833C18.5881 3.41833 17.6295 3.03333 16.5 3.03333C15.3705 3.03333 14.4119 3.41833 13.6244 4.18833C12.8369 4.95833 12.4432 5.89556 12.4432 7C12.4432 8.10444 12.8369 9.04167 13.6244 9.81167C14.4119 10.5817 15.3705 10.9667 16.5 10.9667ZM16.5 9.61333C15.7523 9.61333 15.1199 9.36056 14.6028 8.855C14.0858 8.34944 13.8273 7.73111 13.8273 7C13.8273 6.26889 14.0858 5.65056 14.6028 5.145C15.1199 4.63944 15.7523 4.38667 16.5 4.38667C17.2477 4.38667 17.8801 4.63944 18.3972 5.145C18.9142 5.65056 19.1727 6.26889 19.1727 7C19.1727 7.73111 18.9142 8.34944 18.3972 8.855C17.8801 9.36056 17.2477 9.61333 16.5 9.61333ZM16.5 14C14.1773 14 12.0773 13.3544 10.2 12.0633C8.32273 10.7722 6.92273 9.08444 6 7C6.92273 4.91556 8.32273 3.22778 10.2 1.93667C12.0773 0.645555 14.1773 0 16.5 0C18.8227 0 20.9227 0.645555 22.8 1.93667C24.6773 3.22778 26.0773 4.91556 27 7C26.0773 9.08444 24.6773 10.7722 22.8 12.0633C20.9227 13.3544 18.8227 14 16.5 14ZM16.5 12.6C18.425 12.6 20.1949 12.0906 21.8097 11.0717C23.4244 10.0528 24.6534 8.69556 25.4966 7C24.6534 5.30444 23.4244 3.94722 21.8097 2.92833C20.1949 1.90944 18.425 1.4 16.5 1.4C14.575 1.4 12.8051 1.90944 11.1903 2.92833C9.57557 3.94722 8.33864 5.30444 7.47955 7C8.33864 8.69556 9.57557 10.0528 11.1903 11.0717C12.8051 12.0906 14.575 12.6 16.5 12.6Z" fill="#ADB0B3"/>
</svg>
